<svg width="1078" height="901" viewBox="0 0 1078 901" fill="none" xmlns="http://www.w3.org/2000/svg">
<path fill-rule="evenodd" clip-rule="evenodd" d="M1074.83 339.767C1078.85 327.174 1077.7 313.5 1071.64 301.751C1065.59 290.002 1055.11 281.141 1042.52 277.117L233.016 18.4067C220.423 14.3848 206.749 15.5293 195 21.5884C183.251 27.6475 174.39 38.1251 170.366 50.7167L2.36585 576.457C0.373078 582.692 -0.372076 589.258 0.173225 595.781C0.718525 602.305 2.54349 608.656 5.54383 614.474C8.54417 620.292 12.6613 625.462 17.6598 629.688C22.6583 633.915 28.4404 637.115 34.6759 639.107L844.126 897.807C856.718 901.832 870.394 900.69 882.145 894.633C893.896 888.576 902.759 878.099 906.786 865.507C943.676 750.017 1037.83 455.287 1074.83 339.767Z" fill="#D1A018"/>
<path fill-rule="evenodd" clip-rule="evenodd" d="M1066.99 320.017C1071.01 307.424 1069.86 293.75 1063.8 282.001C1057.74 270.252 1047.27 261.391 1034.68 257.367L236.886 2.36665C230.652 0.373663 224.085 -0.371792 217.563 0.172853C211.04 0.717498 204.689 2.54157 198.871 5.54093C193.054 8.54028 187.884 12.6562 183.657 17.6536C179.43 22.651 176.229 28.432 174.236 34.6667L7.82605 555.307C3.80379 567.898 4.94692 581.571 11.004 593.32C17.0611 605.068 27.5363 613.93 40.1261 617.957L837.916 872.957C850.509 876.979 864.183 875.836 875.933 869.779C887.683 863.722 896.547 853.247 900.576 840.657L1066.99 320.017Z" fill="#FFBC00"/>
<path fill-rule="evenodd" clip-rule="evenodd" d="M583.246 250.047L584.706 251.117L585.056 252.927L585.076 251.957V251.967L584.916 251.437L584.926 251.447L584.776 251.167H584.786L584.636 250.937H584.646L584.656 250.947L584.526 250.787L584.566 250.797L584.486 250.707H584.526L584.466 250.657H584.526L584.486 250.627H584.546L584.516 250.597H584.586L584.556 250.567L584.706 250.547L584.876 250.517L585.086 250.497L585.336 250.467L585.616 250.447L585.926 250.417L586.266 250.387L586.636 250.347H586.736L587.396 250.357L588.246 250.377L588.606 250.387L589.116 250.467L589.486 250.517L589.986 250.677L590.236 250.747L591.426 251.307L591.656 251.427L592.816 252.037L593.386 252.367L594.276 252.877L594.336 252.917L595.146 253.457L595.866 253.937L596.016 254.047L596.866 254.677L597.356 255.047L597.706 255.317L598.546 255.947L598.776 256.127L598.966 256.267L599.376 256.577L599.786 256.897L600.076 257.117L600.186 257.207L600.586 257.507L600.976 257.817L601.166 257.957L601.326 258.167L601.616 258.567L601.776 258.787L601.876 258.997L602.106 259.447L602.306 259.837L602.326 259.897L602.496 260.387L602.656 260.867L602.816 261.327L602.966 261.767L603.106 262.197L603.206 262.647L603.306 263.087L603.346 263.297L603.396 263.497L603.436 263.697L603.486 263.897L603.526 264.087L603.566 264.267L603.596 264.447L603.636 264.617L603.676 264.787L603.716 264.957L603.756 265.117L603.766 265.197L603.776 265.257L601.686 267.177L599.606 269.097H599.566H599.496L599.396 269.117L599.286 269.127L599.166 269.147L599.036 269.157L598.906 269.167L598.756 269.177L598.606 269.187H598.446L598.276 269.197L598.096 269.207L597.926 269.217L597.536 269.227L597.126 269.247L596.726 269.227L596.306 269.197L595.866 269.167L595.416 269.137L594.936 269.107L594.876 269.097L594.486 269.027L594.026 268.927L593.816 268.887L593.586 268.797L593.156 268.637L592.926 268.547L592.756 268.407L592.386 268.127L592.006 267.837L591.906 267.757L591.626 267.547L591.236 267.247L590.846 266.947L590.666 266.807L590.446 266.647L589.636 266.027L589.286 265.767L588.816 265.417L587.986 264.797L587.846 264.687L587.186 264.147L586.446 263.527L586.406 263.487L585.666 262.787L585.186 262.337L584.266 261.417L584.076 261.227L583.196 260.257L583.056 260.037L582.756 259.597L582.596 259.267L582.366 258.787L582.246 258.437L581.966 257.617L581.736 256.967L581.716 256.877L581.636 256.497L581.546 256.147L581.476 255.817L581.406 255.517L581.336 255.247L581.276 254.997L581.206 254.777L581.156 254.587L581.106 254.487L581.066 254.397L581.006 254.297L580.936 254.187L580.826 254.027L580.786 253.957L580.686 253.817L580.536 253.557L580.366 253.147L580.316 252.867L580.276 252.537V252.207H580.286L580.336 251.877L583.236 250.057V250.047H583.246Z" fill="#FFEAAD"/>
<path fill-rule="evenodd" clip-rule="evenodd" d="M715.226 548.777L715.636 548.827L717.546 551.667V551.677L716.886 552.627L717.226 552.487L717.396 552.157V552.167L717.456 552.037L717.466 552.057L717.476 552.097L717.496 552.047L717.546 552.137L717.606 552.257L717.686 552.407L717.776 552.607L717.886 552.827L718.006 553.077L718.136 553.357L718.286 553.657L718.436 553.977L718.576 554.247L718.596 554.297L718.716 554.637L718.846 554.977L718.976 555.327L719.116 555.677L719.226 555.947L719.246 556.027L719.336 556.367L719.436 556.697L719.446 556.747L719.486 557.017L719.526 557.317L719.546 557.447V557.617L719.556 557.737V557.867L719.566 557.997V558.117L719.576 558.227L719.586 558.337L719.596 558.437V558.467V558.527L719.606 558.607L719.616 558.677L719.626 558.737L719.636 558.777L719.656 558.807L719.666 558.827L719.676 558.877L719.696 558.757L719.706 558.787L719.716 558.807L719.726 558.647L719.736 558.737V558.537L719.746 558.617V558.447L719.756 558.487L719.746 558.357L719.756 558.397V558.307L719.786 558.467L719.806 558.527L719.846 558.737L719.886 558.947L719.936 559.157L719.986 559.367L720.036 559.567L720.086 559.777L720.116 559.917L720.126 559.987L720.166 560.197L720.206 560.407L720.246 560.617L720.286 560.817L720.326 561.027L720.366 561.227L720.406 561.397L720.416 561.437L720.446 561.647L720.476 561.847L720.516 562.047L720.556 562.257L720.596 562.457L720.636 562.657L720.676 562.837V562.857L720.716 563.057L720.766 563.257L720.806 563.447L720.856 563.637L720.906 563.837L720.956 564.017L720.986 564.147L721.006 564.207L721.066 564.397L721.116 564.577L721.176 564.757L721.236 564.937L721.286 565.117L721.336 565.257L721.346 565.287L721.416 565.477L721.446 565.547L721.476 565.637L721.506 565.717L721.536 565.797L721.576 565.877L721.606 565.967L721.636 566.047L721.676 566.117V566.127L721.666 566.217V566.307V566.407L721.676 566.497V566.587V566.687V566.777V566.807L721.666 566.877L721.646 566.977L721.626 567.077L721.606 567.187L721.596 567.287L721.576 567.387L721.566 567.497L721.546 567.597V567.627L721.526 567.707L721.486 567.817L721.456 567.937L721.426 568.047L721.396 568.157L721.366 568.277L721.336 568.397L721.316 568.507L721.286 568.627L721.266 568.747L721.236 568.857L721.216 568.977L721.196 569.097L721.176 569.207L721.156 569.327L721.136 569.447L721.106 569.577L721.076 569.717L721.046 569.847L721.016 569.977L720.986 570.117L720.966 570.247L720.936 570.387L720.916 570.527L720.896 570.657L720.876 570.797L720.856 570.937L720.846 571.077L720.826 571.217L720.816 571.357L720.806 571.497L720.796 571.647L720.806 571.757V571.797L716.776 575.787H716.726L716.596 575.767L716.416 575.727L716.226 575.687L716.046 575.647L715.866 575.597L715.676 575.557L715.496 575.507L715.306 575.447L715.126 575.397L714.946 575.337L714.756 575.277L714.576 575.217L714.396 575.157L714.206 575.097L714.026 575.027L713.846 574.957L713.656 574.887L713.496 574.797L713.326 574.717L713.166 574.627L713.006 574.527L712.846 574.437L712.676 574.347L712.516 574.247L712.356 574.147L712.196 574.047L712.036 573.947L711.876 573.847L711.716 573.747L711.556 573.647L711.406 573.537L711.246 573.427L711.136 573.357L711.096 573.317L710.956 573.197L710.826 573.067L710.686 572.947L710.556 572.827L710.426 572.697L710.286 572.577L710.156 572.447L710.076 572.367L710.036 572.317L709.926 572.177L709.826 572.037L709.716 571.897L709.616 571.757L709.516 571.617L709.406 571.467L709.306 571.327L709.236 571.167L709.176 571.017L709.116 570.857L709.056 570.697L708.986 570.537L708.926 570.377L708.866 570.227L708.806 570.057L708.696 569.747L708.676 569.687L708.586 569.437L708.486 569.117L708.386 568.807L708.286 568.487L708.186 568.177L708.096 567.857L708.076 567.747L708.016 567.547L707.926 567.227L707.846 566.917L707.776 566.607L707.696 566.297L707.626 565.987L707.556 565.667V565.647L707.496 565.367L707.426 565.057L707.366 564.747L707.316 564.437L707.256 564.137L707.206 563.827L707.156 563.527V563.467L707.126 563.217L707.096 562.917L707.066 562.617L707.036 562.317L707.016 562.017L706.996 561.717L706.976 561.417L706.966 561.327V561.127V560.827V560.537L706.976 560.247V559.967L706.986 559.677L706.996 559.397V559.307L707.006 559.087V558.937V558.747L707.016 558.477L707.046 558.217L707.066 557.967L707.096 557.737L707.136 557.517L707.176 557.317L707.226 557.117L707.266 556.917L707.316 556.727L707.366 556.547L707.416 556.367L707.456 556.237L707.476 556.177L707.536 556.007L707.606 555.827L707.666 555.647L707.736 555.477L707.806 555.297L707.876 555.127L707.956 554.937L708.036 554.747L708.116 554.607L708.316 554.267L708.496 553.987L708.526 553.947L708.796 553.637L709.056 553.327L709.116 553.257L709.356 553.037L709.666 552.767L709.966 552.497L710.266 552.237L710.556 551.997L710.606 551.947L710.866 551.767L711.176 551.557L711.466 551.367L711.736 551.187L711.986 551.027L712.206 550.877L712.396 550.747L712.566 550.637L712.696 550.537L712.806 550.447L712.866 550.367L712.896 550.317L713.016 550.077L713.116 549.917L713.366 549.587L713.666 549.297L714.016 549.067L714.406 548.907L714.806 548.807L715.226 548.777Z" fill="#FFEAAD"/>
<path fill-rule="evenodd" clip-rule="evenodd" d="M598.826 726.857V726.937V727.637V727.717V727.877V727.957V728.817V729.087V729.187V730.257V731.777V731.877V732.117V732.347V732.587V732.817V733.057V733.247V733.487V733.737V733.977V734.227V734.477V734.707V734.967V735.237V735.467L598.746 735.737L598.676 736.017L598.606 736.297L598.536 736.557L598.426 736.847L598.316 737.137L598.206 737.437L598.106 737.737L597.996 738.037L597.896 738.337L597.796 738.637L597.706 738.917L597.566 739.217L597.306 739.847L597.046 740.467L596.786 741.087L596.556 741.657L594.466 745.107L591.046 742.987L590.586 742.577L590.076 742.117L589.556 741.647L589.036 741.167L588.766 740.917L588.556 740.667L588.336 740.407L588.106 740.147L587.886 739.877L587.656 739.597L587.436 739.327L587.206 739.047L586.986 738.757L586.826 738.487L586.646 738.187L586.466 737.877L586.296 737.567L586.176 737.287L586.056 736.967L585.926 736.637L585.816 736.347V736.007V735.667L585.766 735.317V734.967V734.617V734.547V734.267V733.917V733.557V733.197V732.837V732.487V732.297V728.577V728.387V728.197V728.007V727.817V727.617V727.427V727.237V727.047V726.847V726.667V726.477V726.277V726.087L585.816 725.897V725.697V725.507L585.866 725.307V725.117V724.917L585.926 724.727L585.976 724.537L586.026 724.337L586.086 724.147L586.146 723.947L586.206 723.797L586.276 723.607L586.346 723.417L586.426 723.217L586.496 723.027L586.576 722.837L586.656 722.647L586.736 722.457L586.826 722.267L586.916 722.077L587.016 721.857L587.116 721.637L587.236 721.387L587.356 721.157L587.476 720.937L587.596 720.737L587.726 720.537L587.856 720.347L587.966 720.197L588.096 720.027L588.226 719.867L588.346 719.707L588.476 719.567L588.606 719.417L588.736 719.287L588.866 719.157L588.986 719.027L589.116 718.907L589.246 718.787L589.376 718.677L589.496 718.557L589.626 718.457L589.746 718.347L589.876 718.247L590.006 718.147L590.126 718.047L590.256 717.957L590.376 717.857L590.496 717.777L590.626 717.687L590.746 717.607L590.876 717.517L591.006 717.437L591.256 717.287L591.506 717.137L591.756 716.987L592.006 716.847L592.136 716.777H592.266L592.526 716.667L592.796 716.567L593.056 716.467H593.166H593.316L593.596 716.407L593.866 716.347L594.126 716.287H594.296H594.396H594.676H594.936H595.206H595.456H595.706H596.646H597.076H597.476H597.826L598.376 716.347H598.566H598.636H598.576L598.456 716.427L598.246 716.597L597.926 716.927L597.306 718.387L597.716 719.057L598.646 716.707L598.786 716.487L598.926 716.287L599.026 716.207L599.146 716.127L599.346 716.037L599.656 715.957H599.856H600.276H600.686L601.086 716.077L601.516 716.277L601.906 716.537L602.246 716.867L602.526 717.247L602.736 717.667L602.876 718.127L602.936 718.587V719.057L602.866 719.447L602.736 719.837L602.556 720.197L602.316 720.517L602.166 720.707L601.896 720.957L601.716 721.107L601.606 721.217L601.536 721.307L601.476 721.397L601.376 721.597L601.146 722.107L601.006 722.427L600.866 722.777L600.716 723.147L600.556 723.467L600.466 723.657L600.376 723.847L600.276 724.047L600.186 724.247L600.096 724.447L599.996 724.657L599.906 724.867V724.937L599.836 725.057L599.736 725.237L599.636 725.427L599.536 725.617V725.717L599.486 725.787L599.376 725.947L599.276 726.097L599.176 726.257L599.126 726.327L599.066 726.397L598.966 726.527L598.866 726.647L598.776 726.767L598.686 726.887V726.947V726.997V727.087L598.746 727.017L598.806 726.937V727.007L598.876 726.917V726.967L598.946 726.857L599.026 726.737V726.807L599.106 726.677V726.747L599.186 726.607V726.677L599.266 726.527V726.597L599.346 726.427V726.497L599.426 726.317V726.387L599.506 726.197V726.257L599.566 726.127V726.237V726.307L598.826 726.857ZM599.116 721.337L600.346 721.497L600.726 721.437L600.956 721.367H601.086H601.026H601.096H601.016H601.066L600.876 721.317L600.646 721.257L598.566 720.437L599.206 721.487L599.116 721.337Z" fill="#FFEAAD"/>
<path fill-rule="evenodd" clip-rule="evenodd" d="M637.276 629.077L637.476 629.137L637.696 629.257L637.876 629.427L638.036 629.617L638.186 629.827L638.326 630.037L638.456 630.257L638.536 630.377L638.616 630.487L638.696 630.597L638.776 630.707L638.866 630.827L638.966 630.937L639.086 631.067L639.226 631.207L639.396 631.377L639.586 631.567L639.746 631.737L639.896 631.927L640.056 632.157L640.226 632.457L640.376 632.847L640.466 633.317L640.476 633.837L640.366 634.347L640.176 634.807L639.926 635.157L639.826 635.267L639.676 635.417L639.536 635.517L636.356 631.867L636.346 631.847L636.126 632.067L636.116 632.057V632.047L635.886 632.357L635.876 632.337L635.666 632.747L635.656 632.737L635.516 633.227L635.506 633.217L635.466 633.737H635.446L635.516 634.227L635.506 634.217L635.636 634.637H635.626L635.796 634.967H635.776L635.946 635.217H635.926L636.086 635.397L636.066 635.407L636.216 635.547L636.196 635.557L636.376 635.707L636.326 635.727L636.526 635.867L636.476 635.897L636.636 635.987L636.576 636.017L636.706 636.077L636.646 636.127L636.746 636.167L636.686 636.217L636.766 636.257L636.706 636.307L636.776 636.337L636.706 636.397L636.776 636.417L636.706 636.487L636.766 636.497L636.696 636.567L636.746 636.587L636.676 636.657L636.756 636.677L636.656 636.837L636.566 636.997L636.656 637.017L636.576 637.177L636.516 637.327L636.626 637.347L636.526 637.477L636.676 637.497L636.606 637.587L636.776 637.597L636.756 637.637L636.926 637.647L636.896 637.677H637.166L637.146 637.707L637.606 637.667L637.596 637.697L638.036 637.607L637.986 637.757L638.126 637.717L638.076 637.867L638.236 637.817L638.196 637.957L638.356 637.907L638.326 638.037L638.456 637.997L638.436 638.057L638.536 638.017L638.516 638.087L638.616 638.047L638.596 638.117L638.696 638.067L638.686 638.137L638.786 638.087L638.776 638.147L638.886 638.097L638.876 638.157L638.986 638.107L638.976 638.147V638.157L639.086 638.097L639.076 638.147L639.186 638.087L639.176 638.137L639.286 638.067L639.276 638.117L639.386 638.037V638.087L639.496 638.007V638.047L639.616 637.967L639.606 638.017L639.726 637.917L639.716 637.967L639.836 637.867V637.917L639.956 637.817V637.857L640.066 637.757L640.076 637.797L640.186 637.687L640.196 637.727L640.306 637.607V637.627V637.647L640.416 637.527V637.557L640.526 637.427V637.467L640.626 637.337V637.367L640.736 637.227V637.267L640.836 637.117V637.157L640.936 637.007V637.047L641.026 636.897L641.036 636.927L641.116 636.777L641.126 636.807L641.206 636.657L641.216 636.687L641.296 636.527V636.567L641.376 636.407L641.386 636.437L641.446 636.277L641.456 636.307L641.526 636.147V636.177L641.576 636.017L641.586 636.047L641.636 635.887V635.917L641.686 635.757L641.696 635.787L641.736 635.627V635.657L641.776 635.497V635.527L641.816 635.367V635.397L641.856 635.167L641.876 635.227L641.916 634.927L641.936 634.997L641.956 634.707L641.976 634.767L641.986 634.487L642.006 634.547V634.287L642.036 634.347L642.026 634.107L642.056 634.167L642.036 633.927L642.056 633.967L642.066 633.987L642.036 633.767L642.066 633.827L642.036 633.627L642.066 633.687L642.026 633.497L642.066 633.557L642.016 633.367L642.056 633.437L642.016 633.267L642.056 633.327L642.006 633.167L642.056 633.227L642.006 633.077L642.046 633.137L641.996 632.997H642.026L642.046 632.987L642.006 632.867H642.026L642.056 632.877L642.006 632.767L642.036 632.777L642.066 632.797L642.016 632.697L642.046 632.717L642.086 632.737L642.036 632.647L642.076 632.677L642.116 632.697L642.076 632.627L642.116 632.647H642.136H642.146H642.156L642.176 632.657L642.196 632.667L642.216 632.687L642.236 632.707L642.266 632.727L642.296 632.747L642.326 632.777L642.366 632.807L642.376 632.817L642.396 632.837L642.416 632.867L642.486 632.967L642.566 633.057L642.636 633.147L642.666 633.187L642.726 633.257L642.816 633.357L642.906 633.467L643.006 633.577L643.026 633.607L643.106 633.687L643.216 633.807L643.326 633.927L643.406 634.017L643.426 634.037L643.546 634.157L643.656 634.267L643.746 634.367L643.756 634.407L643.776 634.607L643.806 634.807V634.817L643.786 635.057L643.756 635.297L643.746 635.447L643.716 635.567L643.656 635.847L643.546 636.407L643.446 636.917L643.436 636.957L643.296 637.447L643.176 637.917L643.066 638.327L642.946 638.877L642.926 638.917L639.156 643.137L639.116 643.157L638.586 643.337L638.166 643.467L637.676 643.607L637.166 643.757L637.116 643.767L636.566 643.847L635.966 643.947L635.646 643.977L635.506 643.997H635.346L635.046 643.977L634.776 643.967L634.756 643.957L634.506 643.887L634.246 643.807L634.206 643.787L634.066 643.647L633.886 643.467L633.716 643.287L633.676 643.247L633.536 643.107L633.356 642.907L633.176 642.717L633.046 642.557L633.006 642.517L632.816 642.307L632.636 642.097L632.456 641.887L632.326 641.737L632.276 641.667L632.086 641.437L631.906 641.207L631.726 640.977L631.636 640.847L631.566 640.757L631.546 640.727L631.466 640.587L631.376 640.457L631.296 640.317L631.216 640.187L631.136 640.047L631.056 639.897L630.976 639.757L630.896 639.607L630.846 639.517L630.816 639.457L630.746 639.297L630.676 639.137L630.616 638.967L630.546 638.797L630.476 638.627L630.416 638.447L630.346 638.257L630.286 638.077L630.216 637.877V637.847L630.166 637.677L630.106 637.467L630.056 637.257L630.006 637.027L629.966 636.797L629.916 636.557L629.876 636.307L629.846 636.047L629.816 635.777L629.796 635.497V635.397L629.786 635.207L629.796 634.897L629.806 634.587L629.836 634.257L629.886 633.917L629.946 633.567L630.016 633.257L630.076 633.037L630.126 632.847L630.176 632.667L630.246 632.487L630.316 632.297L630.386 632.117L630.466 631.927L630.486 631.907L630.566 631.747L630.666 631.577L630.776 631.397L630.886 631.227L631.006 631.057L631.126 630.897L631.256 630.737L631.386 630.577L631.526 630.427L631.666 630.277L631.806 630.137L631.956 630.007L632.036 629.937L632.106 629.877L632.266 629.767L632.426 629.657L632.586 629.557L632.756 629.467L632.916 629.377L633.076 629.297L633.236 629.227L633.396 629.157L633.556 629.097L633.716 629.047L633.876 628.997L633.916 628.987L634.036 628.967L634.196 628.937L634.346 628.927L634.506 628.907H634.656H634.806L634.976 628.897L635.236 628.927L635.506 628.967L635.776 629.027L636.176 629.067L636.656 629.017L637.036 629.037L637.276 629.077Z" fill="#FFEAAD"/>
<path fill-rule="evenodd" clip-rule="evenodd" d="M737.546 676.227L737.586 676.217L737.546 676.297L737.496 676.387L737.556 676.377L737.526 676.457L737.496 676.537L737.576 676.527L737.516 676.617L737.606 676.597L737.546 676.687L737.656 676.667L737.606 676.747L737.736 676.717L737.696 676.797L737.806 676.767L737.786 676.807L737.876 676.787L737.856 676.827L737.956 676.797L737.936 676.837L738.046 676.797L738.026 676.837L738.146 676.787L738.136 676.827L738.266 676.767L738.256 676.807L738.406 676.737L738.386 676.777L738.556 676.687L738.546 676.727L738.726 676.617L738.716 676.657L738.926 676.527L738.916 676.557L739.046 676.467V676.497V676.537V676.617L739.076 676.587V676.657V676.727L739.116 676.697L739.126 676.767V676.847L739.166 676.807V676.877L739.176 676.947L739.216 676.917V676.987L739.226 677.057L739.266 677.017L739.276 677.087L739.286 677.157L739.316 677.127L739.326 677.187L739.336 677.257L739.376 677.217L739.386 677.287L739.406 677.357L739.446 677.317L739.456 677.387L739.466 677.447L739.526 677.387L739.546 677.497L739.556 677.517L739.566 677.637L739.636 677.547L739.656 677.657L739.676 677.777L739.746 677.687L739.766 677.797L739.806 677.847L739.816 677.857L739.846 677.907L739.886 677.967L739.916 678.017L739.956 678.067L739.966 678.087L739.976 678.107L739.986 678.147L740.006 678.197L740.016 678.237L740.036 678.287L740.046 678.337L740.066 678.387L740.076 678.437V678.447L740.086 678.487L740.096 678.537V678.597L740.106 678.657L740.116 678.717L740.126 678.777L740.136 678.837V678.907L740.146 678.977L740.156 678.997V679.047V679.117L740.166 679.187V679.267L740.176 679.347V679.427L740.186 679.507L740.196 679.587V679.677L740.206 679.767V679.777V679.857V679.947V680.037V680.137V680.237V680.327V680.427V680.537V680.637L740.216 680.747V680.757L740.206 680.857V680.967L740.196 681.077V681.187V681.297V681.417V681.537V681.647V681.767V681.887V681.897V682.017V682.137L740.206 682.267V682.387L740.216 682.517V682.647L740.226 682.777L740.236 682.907V683.037V683.057L740.246 683.157L740.266 683.427L740.286 683.697L740.316 683.967L740.336 684.187V684.237L740.366 684.517L740.396 684.787L740.426 685.067L740.436 685.177L740.396 685.347L740.326 685.637L740.256 685.937L740.116 686.237L739.986 686.537L739.876 686.797L739.846 686.847L739.666 687.147L739.296 687.777L738.946 688.387L738.826 688.617L738.546 688.997L738.116 689.607L737.716 690.177L737.516 690.467L737.346 690.697L737.326 690.737L731.706 691.507L731.666 691.477L731.446 691.307L731.186 691.117L730.636 690.717L730.056 690.287L729.676 689.997L729.486 689.817L728.966 689.317L728.436 688.797L728.156 688.517L728.116 688.477L727.936 688.227L727.726 687.927L727.506 687.617L727.356 687.297L727.206 686.967L727.116 686.767L727.106 686.627L727.066 686.277L727.026 685.917L726.986 685.547L726.976 685.477L726.956 685.187L726.916 684.807L726.886 684.437L726.866 684.057L726.856 683.897L726.846 683.867L726.836 683.667L726.826 683.477L726.816 683.277L726.806 683.087V682.887L726.796 682.687L726.786 682.487V682.287V682.087V682.077L726.776 681.887V681.687V681.487V681.277L726.786 681.077V680.867L726.796 680.657V680.457L726.806 680.247L726.816 680.067V680.037L726.836 679.827L726.866 679.617L726.886 679.407L726.916 679.197L726.946 678.977L726.976 678.767L727.006 678.557L727.046 678.337L727.076 678.127L727.116 677.937V677.907L727.176 677.697L727.226 677.477L727.286 677.267L727.346 677.047L727.406 676.827L727.466 676.617L727.536 676.397L727.606 676.177L727.686 675.967L727.736 675.817L727.756 675.747L727.846 675.527L727.936 675.317L728.026 675.097L728.116 674.887L728.216 674.667L728.316 674.457L728.426 674.237L728.536 674.027L728.626 673.847L728.646 673.807L728.766 673.597L728.896 673.397L729.026 673.187L729.156 672.977L729.296 672.767L729.446 672.567L729.586 672.367L729.686 672.227L729.746 672.167L729.926 671.987L730.106 671.797L730.286 671.617L730.476 671.437L730.536 671.387L730.686 671.277L730.896 671.127L731.116 670.977L731.346 670.837L731.566 670.697L731.616 670.667L731.806 670.587L731.936 670.517L732.066 670.467L732.186 670.417L732.316 670.367L732.446 670.317L732.566 670.267L732.696 670.227L732.826 670.177L732.956 670.137L733.086 670.097L733.206 670.057L733.336 670.027L733.466 669.987L733.596 669.957L733.726 669.927L733.856 669.897L733.986 669.867L734.106 669.837L734.156 669.817L734.356 669.707L734.586 669.607L734.796 669.517L734.986 669.457L735.166 669.407L735.326 669.377L735.486 669.357L735.626 669.337H735.756L735.906 669.327L736.116 669.347L736.316 669.387L736.506 669.427L736.676 669.477L736.836 669.537L736.986 669.607L737.116 669.677L737.256 669.747L737.376 669.817L737.486 669.887L737.606 669.957L737.786 670.097L737.956 670.217L738.106 670.327L738.246 670.407L738.406 670.477L738.686 670.527L738.876 670.587L739.266 670.747L739.626 670.967L739.936 671.247L740.206 671.577L740.406 671.937L740.556 672.337L740.626 672.747L740.636 673.167L740.566 673.577L740.446 673.947L740.276 674.297L740.056 674.607L739.776 674.887L739.466 675.117L739.126 675.297L738.756 675.427L738.376 675.497L738.256 675.507L738.076 675.487L738.006 675.447L737.966 675.407L738.096 670.577L738.116 670.537L738.166 670.507H738.066L738.086 670.487H737.856L735.676 672.407L737.366 675.397H737.356L737.746 675.487L737.736 675.497L737.886 675.517L737.836 675.557L737.916 675.567L737.866 675.637L737.786 675.737H737.836L737.736 675.857L737.656 675.997L737.606 676.067H737.646L737.596 676.147L737.546 676.227Z" fill="#FFEAAD"/>
<path fill-rule="evenodd" clip-rule="evenodd" d="M521.606 646.627L521.586 646.647L521.746 646.617L521.736 646.637L521.886 646.597L521.866 646.617L522.006 646.577L521.986 646.607L522.116 646.557L522.096 646.587L522.216 646.537L522.196 646.567L522.306 646.517L522.296 646.547L522.386 646.497L522.376 646.527L522.466 646.477L522.456 646.507L522.546 646.457L522.536 646.487L522.616 646.437L522.606 646.467L522.676 646.417L522.666 646.447L522.736 646.397V646.427L522.806 646.377L522.796 646.407L522.856 646.357V646.397L522.916 646.337L522.906 646.377L522.966 646.317V646.357L523.026 646.297V646.337L523.076 646.277V646.317L523.136 646.257V646.297L523.186 646.237V646.277L523.236 646.217V646.257L523.286 646.187L523.296 646.227L523.346 646.157V646.197L523.396 646.127V646.177L523.446 646.097L523.456 646.147L523.506 646.067V646.107L523.556 646.027L523.566 646.067L523.606 645.987L523.616 646.027L523.656 645.947L523.666 645.987L523.716 645.897L523.726 645.937L523.766 645.847L523.776 645.887L523.816 645.797L523.826 645.837L523.866 645.737L523.886 645.777L523.916 645.667L523.936 645.717L523.966 645.607L523.986 645.647L524.016 645.527L524.036 645.567L524.066 645.457L524.086 645.497L524.116 645.367L524.136 645.407L524.156 645.277L524.176 645.317L524.196 645.187L524.216 645.227L524.236 645.097L524.256 645.127L524.266 644.987L524.296 645.027V644.887L524.326 644.917V644.767L524.356 644.807L524.346 644.657L524.376 644.687L524.366 644.537L524.396 644.567L524.386 644.467L524.546 644.567L524.686 644.627L524.696 644.637L524.826 644.707L524.956 644.777L525.096 644.837L525.226 644.897L525.356 644.957L525.496 645.007L525.626 645.057L525.766 645.107L525.906 645.147L525.956 645.167L526.026 645.197L526.136 645.257L526.246 645.297L526.366 645.347L526.476 645.397H526.486L526.576 645.447L526.656 645.507L526.756 645.567L526.846 645.617L526.896 645.647L526.926 645.677L527.006 645.747L527.076 645.817L527.156 645.887L527.236 645.947L527.316 646.017L527.396 646.087L527.476 646.157L527.486 646.167L527.556 646.227L527.636 646.297L527.716 646.377L527.806 646.447L527.886 646.527L527.976 646.607L528.066 646.677L528.156 646.757L528.246 646.827V646.837L528.336 646.907L528.426 646.987L528.516 647.067L528.606 647.157L528.706 647.237L528.806 647.317L528.896 647.397L529.006 647.487L529.106 647.567L529.176 647.627L529.206 647.647L529.296 647.747L529.396 647.837L529.496 647.927L529.596 648.017L529.706 648.107L529.806 648.197L529.916 648.297L530.026 648.387L530.126 648.477L530.206 648.547L530.236 648.577L530.346 648.677L530.446 648.777L530.556 648.877L530.666 648.977L530.776 649.077L530.896 649.177L531.006 649.277L531.116 649.377L531.236 649.487L531.306 649.537L531.356 649.587L531.476 649.687L531.596 649.787L531.716 649.887L531.836 649.987L531.956 650.087L532.076 650.187L532.206 650.287L532.336 650.387L532.446 650.487H532.456L532.716 650.687L532.976 650.897L533.236 651.087L533.496 651.287L533.566 651.337L533.766 651.487L534.036 651.687L534.306 651.877L534.556 652.057L534.576 652.087L534.786 652.367L534.996 652.647L535.116 652.787L535.196 652.947L535.376 653.287L535.556 653.617L535.626 653.737L535.716 653.977L535.866 654.357L536.006 654.737L536.316 655.477L536.496 655.907L536.596 656.247L536.836 657.057L537.076 657.847L537.296 658.557L537.306 658.607L538.096 662.557L534.136 663.307L534.086 663.317L533.356 663.397L532.546 663.477L531.706 663.567L531.356 663.607L530.886 663.597L530.056 663.587L529.626 663.577L529.196 663.557L528.926 663.547L528.776 663.527L528.366 663.457L527.956 663.377L527.756 663.347L527.556 663.267L527.176 663.137L526.796 662.987L526.756 662.977L526.466 662.767L526.136 662.527L525.806 662.287L525.556 662.107L525.476 662.037L525.136 661.787L524.806 661.537L524.476 661.277L524.136 661.017V661.007L523.966 660.877L523.806 660.747L523.636 660.607L523.466 660.477L523.296 660.337L523.126 660.197L522.966 660.057L522.796 659.917L522.626 659.767L522.556 659.707L522.456 659.627L522.296 659.477L522.126 659.337L521.956 659.187L521.796 659.037L521.626 658.887L521.456 658.737L521.296 658.577L521.126 658.427L520.966 658.267L520.916 658.227L520.806 658.107L520.646 657.937L520.496 657.777L520.336 657.607L520.186 657.437L520.026 657.267L519.876 657.087L519.726 656.917L519.576 656.737L519.426 656.557L519.386 656.507L519.276 656.377L519.136 656.187L519.006 655.997L518.866 655.807L518.726 655.617L518.596 655.417L518.456 655.227L518.326 655.027L518.196 654.827L518.076 654.627H518.066L517.946 654.417L517.826 654.207L517.706 653.997L517.586 653.787L517.476 653.577L517.356 653.367L517.246 653.147L517.136 652.927L517.046 652.737L517.026 652.707L516.926 652.487L516.836 652.257L516.736 652.027L516.646 651.797L516.556 651.567L516.476 651.337L516.386 651.097L516.356 650.997L516.326 650.857L516.266 650.607L516.216 650.367L516.166 650.117L516.126 649.897V649.857L516.106 649.597L516.096 649.337L516.086 649.077V648.817V648.647L516.096 648.547L516.126 648.277L516.156 648.017L516.196 647.747L516.236 647.477L516.286 647.217L516.346 646.957L516.396 646.697L516.456 646.437L516.526 646.187L516.536 646.157L516.616 645.927L516.716 645.647L516.726 645.477L516.746 645.287L516.766 645.107L516.796 644.927L516.826 644.747L516.866 644.577L516.916 644.417L516.966 644.257L517.026 644.097L517.086 643.947L517.146 643.807L517.216 643.667L517.286 643.537L517.366 643.417L517.436 643.297L517.516 643.187L517.596 643.077L517.686 642.967L517.766 642.867L517.856 642.777L517.936 642.687L518.026 642.597L518.116 642.517L518.206 642.437L518.296 642.367L518.386 642.287L518.476 642.227L518.576 642.157L518.666 642.097L518.756 642.027L518.856 641.977L518.956 641.917L519.056 641.867L519.156 641.807L519.256 641.757L519.366 641.707L519.476 641.667L519.586 641.617L519.706 641.577L519.826 641.527L519.956 641.487L520.096 641.447L520.236 641.417L520.396 641.387L520.556 641.357L520.736 641.337L520.926 641.327H521.136L521.356 641.337L521.596 641.377L521.846 641.427L522.106 641.517L522.366 641.627L522.636 641.777L522.876 641.957L523.106 642.167L523.306 642.397L523.466 642.637L523.596 642.877L523.696 643.117L523.756 643.347L523.796 643.557L523.806 643.647L523.816 643.757L523.806 643.867V643.877L523.106 645.667L521.696 646.547V646.557L519.006 644.437L518.976 644.417L519.006 644.587L518.986 644.577V644.567L519.026 644.747L519.006 644.737L519.066 644.937L519.046 644.917L519.136 645.137L519.116 645.127L519.226 645.347L519.206 645.337L519.356 645.557H519.336L519.516 645.767H519.496L519.706 645.967H519.686L519.926 646.147H519.906L520.156 646.287L520.136 646.297L520.386 646.407L520.376 646.417L520.626 646.497L520.606 646.507L520.846 646.557L520.836 646.567L521.066 646.597L521.046 646.617H521.256L521.246 646.637L521.436 646.627L521.426 646.647L521.606 646.627Z" fill="#FFEAAD"/>
<path fill-rule="evenodd" clip-rule="evenodd" d="M689.676 343.697L689.716 343.647L689.816 343.507L689.876 343.587L689.906 343.497L689.946 343.547L690.006 343.497L690.026 343.467L690.056 343.427L690.106 343.497L690.156 343.397L690.206 343.467L690.246 343.377L690.306 343.447L690.346 343.357L690.416 343.437L690.446 343.347L690.526 343.437L690.556 343.347L690.636 343.447L690.666 343.357L690.766 343.457L690.786 343.387L690.906 343.487L690.926 343.417L691.056 343.527L691.066 343.457L691.216 343.577L691.226 343.517L691.406 343.647L691.416 343.577L691.616 343.717L691.626 343.657L691.866 343.797V343.737L692.156 343.877V343.827L692.496 343.957L692.486 343.907L692.886 344.017L692.866 343.957L693.326 344.037L693.306 343.987L693.806 344.017L693.786 343.967L694.316 343.927L694.286 343.887L694.816 343.767L694.786 343.727L695.296 343.547L695.256 343.507L695.706 343.267L695.656 343.237L696.046 342.967L695.996 342.947L696.306 342.657L696.256 342.637L696.496 342.367L696.436 342.347L696.626 342.097L696.556 342.077L696.696 341.847L696.616 341.837L696.726 341.637H696.646L696.726 341.457H696.636L696.696 341.297L696.596 341.307L696.646 341.167L696.546 341.177L696.576 341.067L696.466 341.077L696.496 340.977L696.376 340.997L696.396 340.917L696.276 340.937L696.286 340.867L696.156 340.897L696.166 340.837L696.026 340.877L696.036 340.817L695.916 340.847L695.886 340.857L691.076 340.257L691.056 340.227L690.946 340.147L690.836 340.007L690.736 339.867L690.646 339.707L690.576 339.547L690.516 339.367L690.476 339.177L690.456 338.957L690.466 338.727L690.506 338.467L690.586 338.187L690.716 337.887L690.906 337.557L691.156 337.227L691.496 336.887L691.906 336.577L692.386 336.307L692.916 336.107L693.466 335.987L694.006 335.927L694.506 335.937L694.966 335.987L694.976 335.997L695.376 336.077L695.736 336.187L696.046 336.297L696.326 336.407L696.576 336.517L696.806 336.617L697.016 336.707L697.216 336.797L697.396 336.877L697.576 336.957L697.746 337.017L697.906 337.087L698.066 337.147L698.226 337.207L698.386 337.257L698.466 337.277L698.536 337.307L698.676 337.367L698.816 337.447L699.076 337.537L699.176 337.567L699.326 337.657L699.546 337.787L699.656 337.847L699.746 337.937L699.926 338.087L700.096 338.237L700.236 338.337L700.276 338.387L700.426 338.537L700.586 338.697L700.746 338.857L700.786 338.897L700.896 339.017L701.046 339.187L701.316 339.477L701.326 339.507L701.556 339.857L701.726 340.117L701.776 340.217L701.946 340.587L702.036 340.757L702.296 341.307L702.316 341.357L702.456 341.647L702.566 341.867L702.616 341.977L702.776 342.277L702.766 342.297L702.706 342.507L702.656 342.677L702.636 342.717L702.486 342.967L702.366 343.177L702.346 343.207L702.136 343.467L701.936 343.727L701.736 343.977L701.536 344.217L701.476 344.297L701.316 344.477L701.076 344.737L700.846 344.987L700.626 345.217L700.416 345.447L700.256 345.657L700.236 345.687L695.536 348.867L695.506 348.877L695.206 348.897H694.856L694.486 348.887H694.096L693.706 348.877H693.436L693.316 348.857L692.966 348.817L692.606 348.767L692.236 348.717L691.866 348.677L691.836 348.667L691.556 348.587L691.246 348.507L691.186 348.487L690.996 348.387L690.766 348.247L690.756 348.237L690.576 347.877L690.506 347.737L690.386 347.487L690.226 347.167L690.206 347.107L689.936 346.557L689.856 346.377L689.686 346.027L689.646 345.947L689.556 345.687L689.456 345.347L689.446 345.327L689.406 345.007L689.396 344.847L689.376 344.737V344.697L689.386 344.547V344.407V344.277V344.247L689.406 344.157L689.436 344.037L689.466 343.937L689.486 343.887L689.526 343.837L689.586 343.697L689.636 343.777L689.676 343.697Z" fill="#FFEAAD"/>
<path fill-rule="evenodd" clip-rule="evenodd" d="M218.796 541.567L218.906 541.647L218.936 541.537L219.046 541.607L219.076 541.497L219.196 541.567L219.216 541.457L219.336 541.517L219.356 541.407L219.476 541.467L219.496 541.357L219.616 541.407L219.636 541.297L219.756 541.347L219.766 541.227L219.826 541.257L219.886 541.277V541.157L219.996 541.207V541.087L220.106 541.137V541.017L220.216 541.057V540.947L220.326 540.987L220.316 540.867L220.426 540.907V540.797L220.536 540.827L220.526 540.717L220.636 540.747L220.626 540.637L220.746 540.667L220.736 540.557L220.856 540.587L220.836 540.487L220.876 540.497L220.936 540.517L220.916 540.407L221.016 540.437L220.996 540.337L221.096 540.367L221.076 540.267L221.166 540.287L221.146 540.197L221.246 540.217L221.226 540.127L221.296 540.157L221.266 540.067L221.346 540.097L221.316 540.007L221.396 540.037L221.366 539.947L221.446 539.977L221.396 539.857H221.406L221.486 539.847H221.556L221.506 539.697H221.586L221.626 539.707H221.666L221.606 539.587L221.686 539.597L221.756 539.617L221.706 539.507L221.786 539.527L221.816 539.537L221.866 539.557L221.806 539.457L221.886 539.497L221.936 539.487H221.996H222.026L222.046 539.497L222.086 539.517L222.126 539.547L222.176 539.577L222.206 539.597L222.216 539.617L222.256 539.657L222.296 539.717L222.336 539.777L222.366 539.817L222.376 539.837L222.426 539.897L222.466 539.957L222.516 540.027L222.556 540.067L222.566 540.087L222.686 540.237L222.766 540.327L222.806 540.377L222.926 540.527L222.956 540.567L222.906 540.797L222.886 540.927L222.686 541.447L222.596 541.617L222.126 542.557L222.046 542.727L221.866 543.057L221.596 543.547L221.346 544.007L221.236 544.237L221.136 544.407L221.116 544.427L216.606 547.867L216.576 547.887L216.406 547.957L216.206 548.057L215.756 548.267L215.256 548.487L214.926 548.637L214.756 548.697L213.756 549.007L213.576 549.057L213.006 549.147L212.876 549.137L212.596 549.097L212.556 549.047L212.376 548.817L212.316 548.747L212.186 548.587L211.996 548.347L211.966 548.307L211.886 548.207L211.786 548.077L211.686 547.937L211.586 547.797L211.556 547.767L211.476 547.657L211.366 547.507L211.266 547.357L211.156 547.197L211.116 547.147L211.066 547.037L210.966 546.857L210.886 546.677L210.796 546.497L210.746 546.397L210.716 546.297L210.646 546.087L210.586 545.877L210.516 545.657L210.476 545.517L210.456 545.427L210.406 545.197L210.356 544.957L210.316 544.707L210.286 544.577L210.276 544.447L210.246 544.177L210.226 543.907L210.216 543.667V543.647L210.226 543.467L210.246 543.317L210.276 543.157L210.296 543.007V542.997L210.346 542.837L210.396 542.667L210.456 542.507L210.516 542.337L210.556 542.227L210.586 542.167L210.676 541.997L210.766 541.827L210.866 541.657L210.966 541.497L211.066 541.327L211.166 541.167L211.276 541.007L211.386 540.847L211.496 540.687L211.556 540.607L211.626 540.537L211.776 540.387L211.926 540.247L212.076 540.107L212.236 539.977L212.396 539.857L212.556 539.747L212.726 539.637L212.896 539.537L213.066 539.447L213.236 539.357L213.416 539.287L213.586 539.227L213.706 539.217H213.746L217.966 541.587L217.986 541.617L218.056 541.687L218.096 541.607L218.196 541.707L218.236 541.617L218.336 541.707L218.376 541.617L218.476 541.707L218.516 541.607L218.616 541.697L218.656 541.597L218.766 541.677L218.796 541.567Z" fill="#FFEAAD"/>
<path fill-rule="evenodd" clip-rule="evenodd" d="M146.076 468.237L146.376 468.377L146.576 468.497V468.507L146.736 468.667L143.776 472.497L143.756 472.517H143.746L144.116 472.777L144.716 473.017L145.586 473.067L146.486 472.767V472.777L147.106 472.277L147.116 472.297L147.446 471.837L147.466 471.857L147.626 471.497L147.656 471.517L147.736 471.257L147.776 471.277L147.816 471.077L147.856 471.107L147.876 470.947L147.926 470.977L147.936 470.857L147.986 470.877L147.996 470.737L148.116 470.787V470.657L148.276 470.707L148.266 470.607L148.446 470.657L148.436 470.577L148.636 470.597L148.856 470.627L148.846 470.567L149.096 470.607L149.346 470.617H149.356L149.576 470.647L149.826 470.687L150.076 470.717L150.466 470.797L150.606 470.837L150.916 470.927L151.026 470.977L151.216 471.077L151.316 471.177L151.536 471.377L151.556 471.397L151.756 471.647L151.856 471.767L151.956 471.917L152.136 472.197L152.156 472.227L152.266 472.487L152.366 472.737L152.386 472.797L152.456 473.117L152.486 473.267L152.526 473.437L152.596 473.747L152.606 473.777L152.666 474.057L152.716 474.237L152.746 474.347L152.806 474.627V474.637L152.606 474.957L152.596 474.967L152.236 475.327L152.196 475.357L151.766 475.687L151.326 476.017L151.076 476.207L150.886 476.327L150.436 476.617L150.226 476.727L150.046 476.827L149.876 476.937L149.866 476.877L149.726 476.997L149.706 476.927L149.586 477.037L149.556 476.947L149.476 477.017L149.456 477.037L144.216 479.217H144.176L144.066 479.187L143.886 479.107L143.676 479.037L143.466 478.987L143.226 478.927L142.966 478.877L142.406 478.777L142.176 478.737L141.846 478.647L141.266 478.497L140.706 478.357L140.666 478.337L140.156 478.127L140.146 478.117L139.806 477.867L139.786 477.857L139.706 477.527L139.676 477.397L139.626 477.167L139.546 476.847L139.536 476.817L139.456 476.447L139.406 476.257L139.366 476.077L139.286 475.707L139.266 475.637L139.246 475.327L139.226 474.987L139.236 474.947L139.276 474.557L139.296 474.347L139.336 474.177L139.416 473.797L139.426 473.757L139.536 473.417L139.586 473.237L139.716 473.037L139.796 472.917L140.046 472.647L140.156 472.537L140.486 472.277L140.706 472.077L140.916 471.897L141.116 471.727L141.126 471.717L141.356 471.557L141.576 471.387L141.776 471.217L141.956 471.057L142.116 470.897L142.266 470.717L142.396 470.527L142.466 470.387L142.536 470.237L142.606 470.057L142.706 469.817L142.856 469.497L143.126 469.087L143.336 468.877L143.626 468.607L143.956 468.377L143.966 468.387L144.256 468.247L144.556 468.147L144.876 468.087V468.097L145.176 468.077L145.466 468.087L145.756 468.137L145.766 468.147L146.076 468.237Z" fill="#FFEAAD"/>
<path fill-rule="evenodd" clip-rule="evenodd" d="M201.566 629.817L201.556 629.897L201.616 629.857V629.927L201.676 629.887V629.967L201.736 629.917V629.997L201.796 629.947L201.806 630.017L201.866 629.967V630.037L201.926 629.987L201.936 630.057L201.996 630.007L202.006 630.077L202.066 630.017L202.076 630.087L202.136 630.027L202.146 630.097L202.206 630.037L202.216 630.107L202.276 630.037L202.296 630.117L202.346 630.047L202.366 630.117L202.426 630.047L202.446 630.117L202.496 630.037L202.516 630.117L202.566 630.037L202.596 630.107L202.646 630.027L202.666 630.097L202.716 630.027L202.746 630.097L202.796 630.017L202.816 630.077L202.866 629.997L202.896 630.067L202.936 629.987L202.966 630.057L203.016 629.977L203.026 629.997L203.036 630.037L203.076 629.947L203.106 630.017L203.136 629.927L203.166 629.997L203.196 629.907L203.226 629.967L203.266 629.887L203.296 629.947L203.326 629.867L203.356 629.927L203.386 629.837L203.416 629.897L203.446 629.817L203.476 629.877L203.496 629.797L203.536 629.857L203.556 629.767L203.596 629.827L203.616 629.747L203.656 629.807L203.676 629.727L203.716 629.787L203.736 629.707L203.766 629.767L203.786 629.677L203.826 629.737L203.846 629.657L203.886 629.717L203.906 629.637L203.946 629.697L203.956 629.617L204.006 629.677L204.016 629.597L204.066 629.617L204.116 629.637L204.126 629.567L204.176 629.587L204.236 629.607V629.527L204.256 629.557L204.286 629.587V629.477L204.366 629.517L204.456 629.557V629.417L204.546 629.467L204.636 629.517V629.387L204.676 629.407L204.706 629.437L204.776 629.487L204.766 629.367L204.836 629.427L204.906 629.477L204.886 629.367L204.936 629.407L204.956 629.427L204.996 629.447L205.036 629.467L205.076 629.497L205.126 629.517L205.176 629.557L205.226 629.597L205.246 629.607L205.276 629.637L205.316 629.687L205.366 629.737L205.406 629.787L205.466 629.847L205.516 629.907L205.576 629.977L205.616 630.027L205.626 630.047L205.676 630.117L205.736 630.187L205.786 630.267L205.846 630.347L205.906 630.427L205.966 630.517L206.026 630.597L206.056 630.637L206.086 630.687L206.136 630.787L206.196 630.887L206.246 630.987L206.306 631.087L206.366 631.187L206.426 631.287L206.486 631.387L206.496 631.417L206.536 631.497L206.596 631.607L206.646 631.727L206.696 631.837L206.756 631.947L206.816 632.067L206.866 632.177L206.916 632.277L206.986 632.417L207.116 632.647L207.236 632.887L207.366 633.117L207.376 633.137L207.496 633.357L207.626 633.597L207.756 633.827L207.826 633.927L207.896 634.057L208.026 634.287L208.166 634.517L208.216 634.597L208.226 634.777L208.256 635.057L208.266 635.227L208.256 635.357L208.206 635.677L208.176 635.987V635.997L208.076 636.337L207.986 636.667L207.906 636.987L207.826 637.297L207.756 637.597L207.726 637.727L207.656 637.897L207.446 638.497L207.266 639.017L207.116 639.477L207.006 639.807L206.996 639.847L202.316 643.047H202.276L201.916 643.017L201.426 642.967L200.846 642.907L200.196 642.837L199.996 642.807L199.856 642.777L199.536 642.697L199.196 642.607L198.846 642.517L198.486 642.427L198.116 642.327V642.317L197.786 642.177L197.456 642.027L197.316 641.957L197.156 641.837L196.886 641.627L196.716 641.497L196.646 641.387L196.476 641.097L196.296 640.807L196.206 640.637L196.126 640.497L195.946 640.197L195.776 639.877L195.606 639.587L195.596 639.557L195.426 639.237L195.246 638.907L195.076 638.577L194.976 638.387L194.906 638.247L194.816 638.067L194.726 637.897L194.646 637.717L194.556 637.547L194.476 637.377L194.396 637.197L194.326 637.057L194.316 637.017L194.236 636.837L194.176 636.647L194.106 636.467L194.036 636.277L193.966 636.087L193.896 635.897L193.836 635.707L193.796 635.607L193.776 635.517L193.726 635.317L193.676 635.117L193.636 634.917L193.586 634.717L193.536 634.517L193.496 634.317L193.456 634.117L193.446 634.057L193.416 633.907L193.386 633.697L193.356 633.487L193.326 633.277L193.306 633.067L193.276 632.857L193.256 632.647L193.246 632.497L193.236 632.427L193.226 632.207V631.987L193.216 631.757V631.537V631.307V631.077L193.226 630.997L193.246 630.847L193.286 630.607L193.326 630.367L193.366 630.127L193.396 629.997L193.436 629.887L193.516 629.637L193.606 629.397L193.696 629.147L193.786 628.917L193.816 628.847L193.846 628.777L193.916 628.657L193.986 628.537L193.996 628.407L194.046 628.417L194.116 628.297L194.186 628.177L194.266 628.057L194.336 627.937L194.416 627.817L194.486 627.697L194.576 627.577L194.656 627.467L194.736 627.347L194.826 627.227L194.906 627.117L195.006 627.007L195.096 626.887L195.186 626.777L195.286 626.667L195.386 626.567L195.486 626.457L195.556 626.387L195.586 626.357L195.706 626.257L195.826 626.167L195.946 626.077L196.066 625.987L196.186 625.907L196.316 625.827L196.436 625.747L196.566 625.667L196.696 625.597L196.826 625.537L196.956 625.477L197.086 625.417L197.226 625.357L197.356 625.307L197.486 625.267L197.626 625.227L197.756 625.187L197.896 625.157L198.026 625.137L198.156 625.107L198.296 625.097L198.426 625.077H198.556L198.686 625.067H198.816L198.936 625.077L199.066 625.087L199.116 625.097L199.166 625.117L201.256 629.477V629.517L201.236 629.567L201.296 629.537L201.276 629.617L201.326 629.597L201.316 629.677L201.366 629.647L201.356 629.727L201.416 629.687L201.406 629.767L201.456 629.737V629.817L201.506 629.777V629.857L201.566 629.817Z" fill="#FFEAAD"/>
<path fill-rule="evenodd" clip-rule="evenodd" d="M329.646 625.817L329.616 625.907L329.666 625.897L329.626 625.987L329.686 625.967L329.656 626.057L329.716 626.047L329.686 626.127L329.746 626.117L329.716 626.197L329.786 626.177L329.756 626.257L329.826 626.237L329.806 626.317L329.876 626.297L329.856 626.377L329.926 626.357L329.906 626.437L329.986 626.407L329.966 626.487L330.046 626.457L330.036 626.537L330.116 626.507L330.106 626.577L330.186 626.547L330.176 626.627L330.256 626.587V626.657L330.336 626.617V626.687L330.416 626.647V626.717L330.506 626.667V626.737L330.596 626.687V626.757L330.686 626.697V626.767L330.786 626.707V626.777L330.876 626.707L330.886 626.777L330.976 626.707L330.986 626.777L331.076 626.707L331.086 626.777L331.176 626.697L331.186 626.757L331.276 626.677V626.737L331.366 626.647L331.376 626.707L331.466 626.617V626.677L331.556 626.587L331.566 626.637L331.646 626.547L331.656 626.607L331.736 626.507L331.756 626.557L331.826 626.467L331.846 626.517L331.916 626.417L331.936 626.477L332.006 626.367L332.026 626.427L332.096 626.317L332.116 626.377L332.176 626.267L332.206 626.327L332.266 626.217L332.286 626.267L332.346 626.167L332.376 626.217L332.426 626.107L332.456 626.167L332.506 626.057L332.536 626.107L332.586 625.997L332.616 626.057L332.656 625.947L332.686 625.997L332.736 625.887L332.766 625.937L332.806 625.837L332.836 625.887L332.876 625.777L332.906 625.827L332.946 625.727L332.986 625.777L333.006 625.667L333.026 625.697L333.046 625.717L333.076 625.617L333.096 625.667L333.126 625.557L333.156 625.607L333.176 625.507L333.206 625.557L333.226 625.457L333.256 625.507L333.286 625.357L333.356 625.447L333.376 625.257L333.456 625.357L333.466 625.167L333.536 625.247L333.546 625.267L333.556 625.087L333.606 625.177L333.616 625.017L333.676 625.107V624.947L333.736 624.957L333.796 624.977V624.827L333.806 624.837L333.836 624.857L333.876 624.877L333.866 624.747L333.906 624.777L333.946 624.807L333.936 624.687L333.976 624.727L334.026 624.767L334.006 624.667L334.056 624.707L334.096 624.757L334.076 624.657L334.116 624.717L334.156 624.727L334.186 624.737L334.226 624.757L334.266 624.777L334.306 624.807L334.326 624.817L334.346 624.837L334.386 624.877L334.426 624.917L334.466 624.967L334.516 625.007L334.566 625.057L334.606 625.107L334.656 625.167L334.696 625.227L334.736 625.297L334.776 625.357L334.816 625.427L334.856 625.507L334.906 625.577L334.946 625.647L334.976 625.687L334.986 625.727L335.026 625.807L335.066 625.897L335.096 625.977L335.186 626.157L335.266 626.327L335.276 626.337L335.366 626.517L335.456 626.707L335.546 626.897L335.596 626.977L335.646 627.077L335.746 627.267L335.846 627.457L335.916 627.577L335.946 627.637L336.056 627.827L336.156 628.007L336.206 628.097V628.227L336.186 628.467V628.607L336.146 628.727L336.076 629.007L336.006 629.257L335.996 629.277L335.866 629.577L335.736 629.877L335.616 630.147L335.406 630.687L335.376 630.747L335.136 631.217L334.896 631.687L334.706 632.077L334.466 632.587L334.446 632.617L329.706 635.717H329.666L329.106 635.727L328.656 635.717L328.106 635.707L327.556 635.687L327.486 635.677L326.876 635.577L326.546 635.517L326.206 635.467L325.846 635.397H325.826L325.546 635.287L325.236 635.177L325.096 635.127L324.956 635.027L324.706 634.857L324.576 634.767L324.506 634.647L324.356 634.397L324.216 634.137L324.166 634.057L324.076 633.877L323.926 633.607L323.776 633.337L323.696 633.177L323.636 633.057L323.486 632.767L323.346 632.477L323.196 632.187L323.186 632.167L323.056 631.887L322.916 631.587L322.846 631.427L322.776 631.267L322.706 631.117L322.676 631.037L322.636 630.947L322.586 630.787L322.526 630.627L322.476 630.457L322.416 630.287L322.366 630.117L322.316 629.947L322.266 629.777L322.226 629.597L322.186 629.417L322.156 629.237L322.126 629.047L322.096 628.867L322.056 628.677L322.026 628.487L322.016 628.387L322.006 628.297L321.986 628.107L321.966 627.907L321.956 627.707L321.936 627.507L321.926 627.307L321.916 627.107L321.906 626.907V626.897V626.677L321.916 626.467L321.926 626.247L321.936 626.017L321.956 625.787L321.976 625.557L321.996 625.377L322.006 625.317L322.066 625.077L322.126 624.837L322.196 624.587L322.266 624.327L322.276 624.287L322.366 624.077L322.486 623.817L322.606 623.577L322.676 623.427L322.746 623.297L322.816 623.157L322.886 623.027L322.926 622.957L322.966 622.897L323.056 622.767L323.156 622.637L323.256 622.517L323.346 622.387L323.456 622.257L323.556 622.137L323.666 622.017L323.776 621.897L323.896 621.777L324.016 621.657L324.136 621.537L324.256 621.427L324.386 621.317L324.516 621.217L324.656 621.117L324.786 621.017L324.926 620.917L325.076 620.827L325.216 620.747L325.356 620.667L325.506 620.587L325.646 620.527L325.656 620.517L325.816 620.467L325.966 620.417L326.126 620.367L326.286 620.337L326.446 620.307L326.596 620.277L326.756 620.257L326.906 620.247L327.056 620.237H327.206L327.346 620.247L327.496 620.257L327.636 620.267L327.776 620.297L327.916 620.317L328.046 620.357L328.176 620.387L328.306 620.427L328.426 620.477L328.546 620.527L328.666 620.587L328.776 620.647L328.886 620.707L328.996 620.767L329.056 620.817L329.076 620.847L329.626 625.657L329.616 625.687L329.586 625.747L329.636 625.737L329.596 625.827L329.646 625.817Z" fill="#FFEAAD"/>
<path fill-rule="evenodd" clip-rule="evenodd" d="M255.976 649.427L255.986 649.437L256.216 648.697L256.246 648.717L256.306 648.227L256.336 648.237L256.346 647.907L256.386 647.917L256.366 647.687L256.416 647.697L256.386 647.447L256.486 647.477L256.456 647.257L256.586 647.277L256.556 647.127L256.626 647.137L256.696 647.147L256.666 647.037L256.816 647.057L256.796 646.977L256.956 646.967L257.136 646.957L257.116 646.897H257.316L257.526 646.867L257.676 646.857L257.736 646.847L257.926 646.857H258.126L258.276 646.877L258.426 646.917L258.556 646.987L258.786 647.117L258.796 647.127L259.016 647.287L259.156 647.397L259.236 647.467L259.456 647.667L259.526 647.737L259.636 647.897L259.716 648.007L259.806 648.127L259.816 648.137L259.866 648.257L259.926 648.387L259.986 648.517L260.016 648.567L260.046 648.637L260.116 648.767L260.176 648.887L260.216 648.967L260.236 649.017L260.296 649.137L260.356 649.247L260.386 649.317L260.416 649.357L260.466 649.467L260.526 649.567L260.536 649.587L260.466 649.737L260.386 649.897L260.226 650.107L260.066 650.307V650.317L259.846 650.547L259.626 650.777L259.416 651.007L259.206 651.227L259.136 651.297L258.966 651.457L258.716 651.697L258.506 651.967L258.456 651.897L258.256 652.147L258.076 652.397L258.026 652.347L257.936 652.467L257.876 652.557L257.856 652.577L253.556 656.277L253.526 656.287L253.396 656.317H253.216L252.866 656.367L252.496 656.387L252.106 656.417L251.716 656.447L251.456 656.467L251.326 656.457L250.966 656.437L250.596 656.417L250.216 656.397L249.846 656.377H249.836L249.526 656.307L249.206 656.237H249.196L248.966 656.127L248.766 656.017L248.746 655.997L248.646 655.807L248.546 655.617L248.506 655.537L248.446 655.417L248.346 655.227L248.246 655.037L248.216 654.977L248.156 654.847L248.056 654.657L247.966 654.477L247.916 654.367L247.876 654.287L247.786 654.097L247.706 653.907L247.626 653.737L247.616 653.727L247.566 653.527L247.506 653.327L247.426 653.077L247.416 652.947L247.376 652.547L247.356 652.397V652.157L247.346 651.777V651.767L247.386 651.397L247.406 651.197L247.476 651.027L247.536 650.827L247.546 650.817L247.666 650.617L247.776 650.407L247.816 650.347L247.926 650.207L248.066 649.997L248.206 649.797L248.326 649.607L248.436 649.417L248.526 649.217L248.566 649.097L248.606 649.007L248.686 648.747L248.746 648.467L248.766 648.207L248.796 647.907L248.856 647.487L249.006 646.857L249.176 646.497L249.476 645.947L249.856 645.457H249.866H249.876L250.296 645.067L250.776 644.747L251.306 644.507L251.316 644.517L251.836 644.367L252.386 644.297L252.936 644.307V644.317L253.486 644.417L254.016 644.597L254.326 644.747L254.786 645.087L255.046 645.357L255.196 645.567L255.296 645.747L255.366 645.917L255.376 646.157L255.336 646.397L255.246 646.637L255.116 646.877L254.966 647.087L254.946 647.117L250.756 649.537L250.716 649.547L250.476 649.607L250.246 649.667L250.286 649.727L250.076 649.767L250.126 649.847L249.956 649.897L250.036 650.007L249.896 650.047L249.996 650.177L249.936 650.197L250.036 650.307L249.986 650.327L250.126 650.477L250.086 650.497L250.296 650.687L250.266 650.707L250.616 650.967L250.586 650.987L251.176 651.327L252.246 651.607L253.866 651.407L255.296 650.467L255.976 649.427Z" fill="#FFEAAD"/>
<path fill-rule="evenodd" clip-rule="evenodd" d="M431.576 662.287V662.247L431.656 662.317V662.277L431.666 662.237L431.746 662.317L431.756 662.277L431.766 662.237L431.856 662.317L431.866 662.307L431.886 662.277L431.906 662.217L432.006 662.297L431.986 662.207L432.096 662.287L432.066 662.197L432.176 662.277L432.146 662.197L432.266 662.267L432.246 662.167L432.366 662.237L432.356 662.137L432.476 662.207L432.456 662.107L432.586 662.177L432.566 662.077L432.696 662.147L432.676 662.037L432.806 662.107V662.087L432.786 661.987L432.926 662.047L432.906 661.927L433.056 661.987L433.026 661.867L433.176 661.917L433.136 661.797L433.286 661.847L433.256 661.727L433.406 661.777L433.366 661.657L433.516 661.697L433.476 661.587L433.626 661.617L433.576 661.507L433.726 661.527L433.676 661.417L433.826 661.437L433.766 661.327L433.916 661.347L433.876 661.267L433.856 661.227L433.996 661.237L433.936 661.107H434.076L434.006 660.977H434.146L434.076 660.847H434.196L434.126 660.707H434.246L434.166 660.577L434.276 660.567L434.186 660.437L434.296 660.417L434.206 660.297L434.306 660.277L434.206 660.147L434.306 660.137L434.196 660.007L434.286 659.987L434.176 659.867L434.256 659.837L434.146 659.717L434.216 659.697L434.116 659.597L434.096 659.567L432.696 654.937L432.716 654.897L432.766 654.757L432.886 654.567L433.016 654.387L433.156 654.207L433.306 654.037L433.466 653.877L433.636 653.717L433.826 653.567L434.016 653.427L434.216 653.297L434.436 653.167L434.656 653.057L434.726 653.017L434.876 652.967L435.106 652.897L435.346 652.837L435.586 652.777L435.826 652.727L436.066 652.697L436.316 652.667L436.566 652.647L436.806 652.627H437.056H437.266H437.306L437.536 652.657L437.776 652.687L438.006 652.727L438.226 652.777L438.456 652.827L438.656 652.897L438.866 652.977L439.056 653.057L439.256 653.137L439.396 653.197L439.446 653.227L439.616 653.327L439.776 653.427L439.936 653.537L440.096 653.637L440.246 653.747L440.396 653.847L440.546 653.947L440.596 653.987L440.686 654.057L440.816 654.167L440.946 654.277L441.076 654.387L441.196 654.497L441.326 654.607L441.446 654.707L441.556 654.817L441.656 654.917L441.666 654.927L441.776 655.027L441.886 655.137L441.986 655.257L442.186 655.457L442.376 655.667L442.546 655.847L442.556 655.867L442.716 656.087L442.866 656.287L443.016 656.497L443.156 656.697L443.196 656.757L443.286 656.897L443.396 657.097L443.506 657.297L443.676 657.597L443.716 657.667L443.916 658.017L444.066 658.297L444.096 658.357L444.186 658.507L444.276 658.657L444.346 658.797L444.376 658.837L444.426 658.927L444.506 659.047L444.576 659.167L444.606 659.217L444.586 659.307L444.546 659.477L444.516 659.587L444.486 659.647L444.386 659.847L444.316 659.937L444.266 660.027L444.246 660.067L444.196 660.137L444.106 660.247L444.026 660.357L443.946 660.477L443.866 660.587L443.776 660.687L443.696 660.797L443.616 660.907L443.546 661.017L443.466 661.117L443.446 661.167L443.396 661.267L443.356 661.217L443.276 661.367L443.206 661.517L443.156 661.467L443.086 661.617L443.016 661.767L442.976 661.727L442.906 661.877L442.846 662.027L442.796 661.987L442.736 662.137L442.676 662.287L442.636 662.247L442.576 662.397L442.526 662.547L442.486 662.507L442.466 662.647L442.456 662.687L439.006 667.187L438.976 667.197L438.826 667.237L438.626 667.267L438.416 667.287L438.206 667.307L437.996 667.327L437.786 667.337L437.566 667.347H437.356L437.136 667.357H436.916L436.696 667.347H436.566L436.486 667.337L436.296 667.307L436.096 667.277L435.896 667.247L435.706 667.207L435.506 667.177L435.316 667.137L435.116 667.097L434.916 667.057L434.726 667.017L434.596 666.997L434.536 666.977L434.376 666.907L434.206 666.837L433.886 666.727L433.796 666.687L433.606 666.567L433.356 666.407L433.226 666.317L433.156 666.207L433.016 665.987L432.886 665.767L432.806 665.617L432.756 665.547L432.636 665.337L432.526 665.137L432.406 664.927L432.376 664.867L432.196 664.557L432.006 664.207L431.966 664.137L431.816 663.867L431.736 663.717L431.646 663.577L431.596 663.487L431.576 663.437L431.516 663.297L431.466 663.167L431.426 663.047L431.376 662.937V662.927L431.356 662.827L431.346 662.727L431.336 662.627V662.597V662.557L431.346 662.527V662.517V662.487L431.366 662.457L431.376 662.427L431.386 662.397L431.406 662.377L431.396 662.327L431.456 662.387L431.446 662.337V662.297L431.506 662.357L431.496 662.337V662.317L431.506 662.267L431.566 662.337L431.576 662.287Z" fill="#FFEAAD"/>
<path fill-rule="evenodd" clip-rule="evenodd" d="M369.976 678.477L370.086 678.537L370.106 678.407L370.216 678.467L370.226 678.327L370.336 678.387L370.346 678.247L370.466 678.307V678.167L370.536 678.197L370.576 678.227V678.087L370.666 678.137V677.997L370.756 678.047L370.746 677.917L370.846 677.957L370.836 677.827L370.926 677.867L370.916 677.737L370.936 677.747L370.986 677.787L370.976 677.657L371.046 677.697L371.026 677.567L371.096 677.617L371.076 677.487L371.146 677.527L371.126 677.407L371.156 677.427L371.176 677.447L371.156 677.337L371.206 677.377L371.176 677.267L371.226 677.307L371.196 677.197L371.246 677.237L371.216 677.127L371.266 677.167L371.236 677.067L371.286 677.107L371.256 677.007L371.306 677.047L371.276 676.947L371.306 676.967L371.326 676.987L371.296 676.887H371.326L371.356 676.877L371.316 676.787H371.346H371.376L371.346 676.697H371.376H371.406L371.376 676.627L371.426 676.657L371.376 676.547H371.396L371.436 676.557L371.496 676.567L371.426 676.437L371.486 676.457L371.556 676.477L371.486 676.357L371.526 676.377L371.546 676.387L371.596 676.427L371.536 676.327L371.586 676.367H371.616H371.636L371.656 676.397L371.676 676.417L371.696 676.447L371.726 676.487L371.736 676.497L371.756 676.527L371.786 676.567L371.826 676.607L371.866 676.657L371.876 676.677L371.906 676.707L371.946 676.757L371.996 676.817L372.046 676.867V676.877L372.096 676.917L372.206 677.047L372.226 677.067L372.176 677.317L372.156 677.407L372.056 677.677L371.966 677.907L371.876 678.107L371.466 679.057L371.396 679.217L371.236 679.547L370.996 680.057L370.786 680.527L370.596 680.917L370.586 680.947L366.426 684.807L366.396 684.817L366.016 685.007L365.576 685.247L365.096 685.497L364.756 685.657L364.596 685.717L363.616 686.077L363.406 686.137L363.136 686.187L362.806 686.227L362.696 686.217L362.376 686.167L362.346 686.147L362.146 685.917L362.036 685.797L362.026 685.787L361.916 685.667L361.806 685.537L361.686 685.397L361.606 685.307L361.576 685.257L361.456 685.117L361.336 684.967L361.216 684.817L361.116 684.697L361.096 684.657L360.966 684.497L360.846 684.337L360.716 684.157L360.596 683.987L360.586 683.977L360.486 683.787L360.376 683.587L360.276 683.377L360.166 683.157L360.126 683.067L360.076 682.927L359.996 682.677L359.916 682.427L359.836 682.167L359.796 681.997L359.776 681.917L359.736 681.757L359.706 681.617L359.676 681.477L359.656 681.327L359.626 681.177L359.606 681.027L359.576 680.867V680.797L359.566 680.717L359.556 680.547L359.546 680.387L359.536 680.227V680.057V679.887V679.707V679.617L359.546 679.527L359.586 679.347L359.616 679.167L359.656 678.987L359.696 678.837L359.706 678.797L359.786 678.617L359.866 678.427L359.946 678.237L360.036 678.057L360.076 677.987L360.146 677.877L360.276 677.697L360.406 677.527L360.546 677.357L360.676 677.187L360.826 677.037L360.976 676.877L361.126 676.727L361.286 676.587L361.386 676.507L361.446 676.457L361.636 676.347L361.836 676.237L362.036 676.137L362.226 676.047L362.426 675.967L362.636 675.897L362.836 675.847L363.036 675.797L363.246 675.767L363.446 675.737L363.596 675.757H363.626L367.606 678.517L367.636 678.537L367.716 678.647L367.756 678.587L367.856 678.717L367.906 678.647L368.006 678.767L368.056 678.697L368.166 678.817L368.206 678.737L368.316 678.857L368.366 678.767L368.476 678.877L368.516 678.787L368.636 678.897L368.676 678.797L368.796 678.897L368.836 678.797L368.956 678.897L368.996 678.787L369.126 678.877L369.156 678.767L369.286 678.857L369.316 678.737L369.366 678.767L369.426 678.817L369.466 678.697L369.566 678.777L369.596 678.647L369.696 678.727L369.726 678.597L369.826 678.667L369.846 678.537L369.956 678.607L369.976 678.477Z" fill="#FFEAAD"/>
<path fill-rule="evenodd" clip-rule="evenodd" d="M133.316 571.287L133.506 571.397L133.536 571.237L133.736 571.347L133.766 571.177L133.966 571.277L133.986 571.117L134.066 571.147L134.166 571.197L134.186 571.027L134.356 571.107L134.366 570.937L134.546 571.007V570.837L134.726 570.907V570.737L134.916 570.797L134.906 570.637L135.096 570.697L135.086 570.527L135.156 570.547L135.256 570.587L135.236 570.427L135.396 570.477L135.376 570.317L135.536 570.367L135.506 570.217L135.536 570.227L135.636 570.267L135.606 570.117L135.726 570.167L135.696 570.027L135.776 570.067L135.796 570.077L135.776 569.947L135.846 570.007L135.816 569.877L135.876 569.867L135.946 569.857L135.906 569.747H135.966H135.976H136.026L135.996 569.637L136.056 569.647L136.106 569.657L136.076 569.557L136.136 569.567L136.156 569.577L136.196 569.587L136.156 569.497L136.206 569.517L136.266 569.537L136.236 569.457L136.286 569.487L136.336 569.467L136.356 569.477H136.386L136.406 569.487L136.446 569.507L136.466 569.517V569.527L136.486 569.557L136.506 569.587L136.526 569.627L136.546 569.667L136.576 569.707L136.596 569.757L136.626 569.797L136.656 569.837V569.847L136.736 569.967L136.786 570.037L136.806 570.077L136.896 570.207V570.217L136.766 570.497L136.756 570.507L136.476 570.907L136.456 570.927L136.036 571.457L135.616 572.007L135.596 572.027L135.026 572.717L134.466 573.417L134.446 573.437L129.906 576.827L129.876 576.837L129.036 577.147L128.166 577.447L128.136 577.457L127.436 577.627L126.756 577.777H126.726L126.186 577.817H126.166L125.796 577.737L125.776 577.717L125.616 577.477L125.556 577.387L125.446 577.217L125.296 576.977L125.286 576.967L125.206 576.837L125.126 576.707L125.046 576.567L124.966 576.437L124.886 576.297L124.816 576.167L124.736 576.027L124.656 575.887L124.636 575.837L124.596 575.737L124.536 575.587L124.486 575.427L124.426 575.267L124.376 575.117V575.107L124.346 574.927L124.306 574.757L124.276 574.577L124.256 574.397L124.236 574.277L124.226 574.217L124.216 574.027L124.196 573.837L124.186 573.637L124.176 573.437V573.397V573.237L124.186 573.027L124.196 572.817L124.216 572.597V572.537L124.256 572.377L124.326 572.147L124.376 571.957L124.396 571.917L124.516 571.677L124.636 571.437L124.726 571.287L124.786 571.207L124.966 570.967L125.146 570.737L125.326 570.517L125.526 570.307L125.716 570.097L125.846 569.967L125.936 569.897L126.186 569.717L126.436 569.547L126.696 569.397L126.956 569.267L127.216 569.147L127.476 569.047L127.746 568.967L127.946 568.957L127.986 568.967L132.226 571.297L132.246 571.317L132.376 571.447L132.436 571.327L132.596 571.467L132.656 571.347L132.816 571.477L132.866 571.337L133.046 571.467L133.096 571.317L133.266 571.437L133.316 571.287Z" fill="#FFEAAD"/>
<path fill-rule="evenodd" clip-rule="evenodd" d="M666.836 679.337L666.856 679.277L666.936 679.347L666.956 679.287L666.986 679.237L667.076 679.307L667.106 679.257L667.116 679.247L667.136 679.197L667.256 679.267L667.236 679.167L667.356 679.247L667.336 679.147L667.466 679.237L667.456 679.157V679.117L667.596 679.197V679.057L667.736 679.137V679.027L667.746 678.987L667.896 679.057L667.926 678.867L668.076 678.937L668.096 678.737L668.256 678.807L668.286 678.557L668.456 678.627L668.476 678.377L668.636 678.427L668.656 678.177L668.816 678.227L668.826 677.977L668.986 678.017V677.907V677.737L669.146 677.767L669.136 677.457L669.296 677.487L669.276 677.167L669.416 677.187L669.386 676.867L669.516 676.887L669.476 676.567H669.556L669.536 676.407H669.586L669.566 676.277L669.556 676.247L669.656 671.407L669.666 671.377L669.726 671.247L669.836 671.097L670.036 670.797L670.276 670.507L670.546 670.237L670.826 669.987L670.986 669.857L671.116 669.767L671.406 669.597L671.716 669.447L672.026 669.297L672.336 669.167H672.346L672.646 669.097L672.946 669.037L672.996 669.027H673.216H673.476H673.546L673.716 669.067L673.936 669.127L674.156 669.177L674.326 669.227L674.356 669.237L674.546 669.307L674.726 669.377L674.906 669.437L675.066 669.507H675.076L675.226 669.577L675.366 669.647L675.506 669.707L675.656 669.777L675.706 669.807L675.866 669.907L676.056 670.037L676.156 670.097L676.216 670.157L676.416 670.357L676.436 670.377L676.506 670.457L676.566 670.507H676.576L676.606 670.547L676.616 670.557L676.606 670.547H676.616V670.557L676.636 670.577L676.616 670.557L676.636 670.577L676.616 670.557L676.596 670.537L676.546 670.497L676.526 670.537L676.476 670.637L676.386 670.567L676.326 670.657L676.316 670.667L676.226 670.807L676.116 670.727L676.076 670.917L675.966 670.847L675.926 670.997L675.916 671.047L675.796 670.977L675.726 671.217L675.606 671.147L675.536 671.397L675.416 671.317L675.356 671.567L675.226 671.497L675.176 671.747L675.046 671.677L675.006 671.927L674.866 671.867V671.907L674.816 672.167L674.676 672.117L674.626 672.417L674.496 672.367L674.456 672.677L674.336 672.637L674.306 672.947L674.186 672.907L674.166 673.227L674.046 673.187V673.477V673.507L672.666 679.007L672.646 679.037L672.466 679.277L672.196 679.517L671.916 679.747L671.616 679.967L671.306 680.167L671.036 680.327L670.986 680.347L670.686 680.477L670.386 680.587L670.076 680.697L669.766 680.797L669.456 680.897L669.396 680.917L669.176 680.947L668.906 680.977L668.666 681.007H668.636L668.416 680.977L668.206 680.947L668.126 680.937L668.036 680.867L667.906 680.757L667.786 680.657L667.686 680.567L667.676 680.547L667.566 680.457L667.446 680.347L667.296 680.197L667.276 680.187L667.116 680.037L666.986 679.897L666.966 679.887L666.776 679.687L666.746 679.657L666.716 679.607L666.696 679.527L666.686 679.477L666.696 679.447V679.397L666.756 679.447V679.387L666.766 679.337L666.826 679.387L666.836 679.337Z" fill="#FFEAAD"/>
<path fill-rule="evenodd" clip-rule="evenodd" d="M567.636 668.887L567.806 668.907L567.946 668.927L568.056 668.947L568.276 668.987L568.466 669.007L568.476 669.027L568.536 669.297L568.586 669.747V669.807L568.626 670.817L568.616 671.137V671.357L568.596 671.927L568.616 672.457L568.556 672.447L568.596 672.897V672.927L568.106 678.577L568.096 678.607L567.956 679.037L567.756 679.547L567.556 680.097L567.476 680.317L567.336 680.617L566.946 681.567L566.916 681.627L566.716 682.027L566.536 682.267L566.526 682.287L566.326 682.257L566.106 682.217L565.986 682.207L565.866 682.187L565.736 682.167L565.636 682.157L565.506 682.067L565.446 682.027L565.416 681.987L565.336 681.867L565.306 681.807L565.266 681.727L565.216 681.587L565.206 681.557L565.176 681.417L565.156 681.287V681.217L565.116 681.027L565.106 680.907L565.206 680.917L565.196 680.607L565.186 680.517L565.176 680.057H565.306L565.226 679.637H565.346L565.316 679.527L565.306 679.427H565.396L565.346 679.207L565.446 679.197L565.406 678.997L565.516 678.987L565.466 678.797L565.596 678.777L565.546 678.607L565.696 678.577L565.636 678.427L565.816 678.387L565.756 678.257L565.976 678.187L565.916 678.067L566.176 677.967L566.116 677.877L566.426 677.707L566.366 677.627L566.736 677.347L566.666 677.287L566.946 676.987L566.916 676.967L567.096 676.697H567.086L567.056 676.687L562.896 674.207L562.936 674.087L562.946 674.047L563.146 673.717L563.426 673.347L563.736 673.037L564.006 672.787L564.226 672.577L564.406 672.387L564.576 672.187L564.716 671.987L564.856 671.777L564.986 671.567L565.106 671.337L565.156 671.237L565.246 671.117L565.456 670.707L565.696 670.257L565.746 670.157L565.926 669.867L565.996 669.757L566.156 669.577L566.206 669.517L566.356 669.397L566.516 669.287L566.566 669.257L566.756 669.147L566.856 669.087L566.946 669.037L567.136 668.957L567.196 668.917L567.316 668.907L567.516 668.867L567.636 668.887Z" fill="#FFEAAD"/>
<path fill-rule="evenodd" clip-rule="evenodd" d="M407.666 327.717C407.666 327.717 544.116 283.377 674.666 360.297C805.216 437.217 841.666 550.117 724.386 626.707C607.106 703.297 397.386 706.867 312.136 615.707C226.886 524.547 249.396 407.057 407.676 327.707L407.666 327.717Z" fill="#D1A018"/>
<path fill-rule="evenodd" clip-rule="evenodd" d="M460.446 222.907C460.446 222.907 598.386 176.907 730.346 256.707C862.306 336.507 899.206 453.587 780.606 533.017C662.006 612.447 450.016 616.167 363.826 521.577C277.636 426.987 300.406 305.167 460.406 222.907H460.446Z" fill="#FFDD7C"/>
</svg>
