<svg xmlns="http://www.w3.org/2000/svg" viewBox="0 0 114.25 77.89"><defs><style>.cls-1{fill:#8a0c0c;}.cls-1,.cls-2,.cls-3{fill-rule:evenodd;}.cls-2{fill:#b13131;}.cls-3{fill:#e68282;}</style></defs><g id="Warstwa_2" data-name="Warstwa 2"><g id="Warstwa_1-2" data-name="Warstwa 1"><path class="cls-1" d="M53,10.69c30.44-5.13,57.25-14.57,61.11,26C116,56.4,92.77,71.08,64.6,76.28,34.24,81.88,7.5,72.47,2.32,53.39-6.76,20,22.6,15.83,53,10.69Z"/><path class="cls-2" d="M50.54,1.28c30.93-5.22,58.65,6,61.86,25S93.1,65,62.16,70.21,3.51,64.22.3,45.2,19.61,6.5,50.54,1.28Z"/><path class="cls-3" d="M24.83,24.59c4.13-.7,7.81.64,8.2,3s-2.63,4.82-6.77,5.52-7.8-.65-8.2-3,2.64-4.82,6.77-5.51Z"/><path class="cls-1" d="M42.31,12.27c3-.51,5.72.45,6,2.15s-1.94,3.48-5,4-5.73-.45-6-2.14,1.94-3.49,5-4Z"/><path class="cls-3" d="M89.44,39.48c3.48-.58,6.62.76,7,3S94.3,47,90.81,47.62s-6.61-.76-7-3,2.14-4.55,5.62-5.14Z"/><path class="cls-1" d="M19.52,53.11c3.25-.55,6.09.28,6.36,1.85s-2.15,3.3-5.4,3.84-6.09-.28-6.36-1.85,2.16-3.3,5.4-3.84Z"/><path class="cls-3" d="M63.3,57.75c4.1-.69,7.63,0,7.87,1.42s-2.87,3.23-7,3.92-7.62,0-7.87-1.42,2.88-3.23,7-3.92Z"/><path class="cls-1" d="M70.64,23.19c3.63-.62,6.82.34,7.13,2.14s-2.4,3.75-6,4.36-6.82-.35-7.12-2.14,2.39-3.75,6-4.36Z"/><path class="cls-3" d="M49.13,36.81c2.86-.48,4.92-2.46,4.59-4.42s-2.93-3.16-5.79-2.67S43,32.18,43.34,34.14s2.92,3.16,5.79,2.67Z"/><path class="cls-3" d="M98.42,21.6c.31,2.36-1.89,4.6-4.91,5s-5.71-1.21-6-3.58,1.89-4.59,4.91-5,5.71,1.21,6,3.57Z"/><path class="cls-1" d="M63.93,38c4.54-.76,8.69,1.36,9.26,4.74S70.54,49.52,66,50.29s-8.68-1.36-9.25-4.74S59.4,38.8,63.93,38Z"/><path class="cls-1" d="M72.61,14.52C75.93,14,78.3,11.6,77.9,9.25S74.49,5.45,71.17,6s-5.69,2.92-5.29,5.27,3.41,3.8,6.73,3.24Z"/><path class="cls-1" d="M47.7,52.21a6.22,6.22,0,1,1-4.16-7.65,6.16,6.16,0,0,1,4.16,7.65Z"/></g></g></svg>