<svg width="577" height="654" viewBox="0 0 577 654" fill="none" xmlns="http://www.w3.org/2000/svg">
<path fill-rule="evenodd" clip-rule="evenodd" d="M197.135 80.5423C201.875 79.8406 206.716 80.378 211.186 82.1024C215.657 83.8267 219.604 86.6793 222.645 90.3823L506.535 435.542C509.851 439.571 511.965 444.453 512.636 449.628C513.306 454.802 512.505 460.061 510.325 464.802L558.015 522.802C564.603 530.817 567.739 541.12 566.734 551.447C565.729 561.773 560.665 571.278 552.655 577.872L471.915 644.272C467.948 647.536 463.376 649.986 458.462 651.482C453.547 652.979 448.386 653.493 443.273 652.994C438.159 652.495 433.195 650.994 428.662 648.576C424.129 646.158 420.117 642.871 416.855 638.902L369.905 581.822C364.513 583.763 358.652 583.988 353.127 582.466C347.602 580.944 342.683 577.75 339.045 573.322C283.225 505.462 110.965 296.032 55.1552 228.162C51.262 223.431 49.0413 217.546 48.8388 211.423C48.6362 205.299 50.463 199.28 54.035 194.302L8.91517 139.452C5.64937 135.485 3.19727 130.913 1.69911 125.998C0.200946 121.083 -0.313803 115.921 0.18397 110.807C0.681744 105.692 2.18237 100.726 4.60023 96.1923C7.01809 91.6583 10.3058 87.6451 14.2753 84.3823L95.0053 17.9822C103.02 11.3943 113.323 8.25823 123.65 9.2633C133.976 10.2684 143.481 15.3323 150.075 23.3422L197.135 80.5622V80.5423ZM493.065 482.612L390.375 567.072L419.375 602.352C425.968 610.361 435.471 615.425 445.796 616.43C456.12 617.435 466.422 614.3 474.435 607.712L516.705 572.942C524.718 566.353 529.786 556.85 530.793 546.524C531.8 536.199 528.664 525.896 522.075 517.882L493.075 482.612H493.065ZM175.575 93.1122L147.945 59.5323C141.356 51.5192 131.853 46.4518 121.527 45.4448C111.202 44.4377 100.899 47.5734 92.8851 54.1622L50.6552 88.9322C46.6871 92.195 43.4007 96.2076 40.9838 100.741C38.5668 105.274 37.0665 110.239 36.5687 115.352C36.071 120.465 36.5856 125.626 38.0829 130.54C39.5802 135.454 42.0308 140.025 45.2951 143.992L72.9152 177.582L175.615 93.1122H175.575Z" fill="#C5940B"/>
<path fill-rule="evenodd" clip-rule="evenodd" d="M461.275 423.482L480.275 407.822L567.375 513.722C570.641 517.689 573.093 522.261 574.591 527.176C576.089 532.092 576.604 537.254 576.107 542.368C575.609 547.482 574.108 552.448 571.69 556.982C569.272 561.516 565.985 565.529 562.015 568.792L481.285 635.192C473.27 641.78 462.967 644.916 452.641 643.911C442.315 642.906 432.81 637.842 426.215 629.832L339.115 523.932L358.555 507.932L428.745 593.282C435.338 601.295 444.843 606.36 455.17 607.365C465.498 608.371 475.801 605.233 483.815 598.642C497.135 587.642 512.755 574.832 526.085 563.882C534.095 557.288 539.159 547.783 540.164 537.457C541.169 527.13 538.033 516.827 531.445 508.812L461.245 423.472L461.275 423.482Z" fill="#FFBC00"/>
<path fill-rule="evenodd" clip-rule="evenodd" d="M227.535 135.812L246.535 120.162L159.435 14.2623C152.843 6.25308 143.34 1.18932 133.015 0.184222C122.69 -0.820873 112.389 2.31492 104.375 8.9023L23.6354 75.3023C15.6255 81.8966 10.5616 91.4014 9.55651 101.728C8.55144 112.054 11.6876 122.357 18.2755 130.372L105.375 236.272L124.815 220.272L54.6154 134.932C48.026 126.917 44.8901 116.613 45.8971 106.285C46.9041 95.9581 51.9718 86.4537 59.9855 79.8623L102.245 45.1023C106.213 41.8378 110.785 39.3868 115.7 37.8894C120.615 36.3919 125.777 35.8774 130.891 36.3751C136.005 36.8729 140.97 38.3731 145.504 40.7902C150.038 43.2073 154.052 46.4939 157.315 50.4623L227.505 135.802L227.535 135.812Z" fill="#FFBC00"/>
<path fill-rule="evenodd" clip-rule="evenodd" d="M505.035 471.432C512.59 465.2 517.366 456.227 518.317 446.48C519.267 436.733 516.314 427.006 510.105 419.432L237.865 88.4321C231.632 80.8786 222.658 76.1045 212.911 75.156C203.164 74.2075 193.438 77.1621 185.865 83.3722L75.4653 174.172C67.9118 180.405 63.1374 189.379 62.1889 199.126C61.2404 208.874 64.1951 218.599 70.4052 226.172L342.645 557.172C348.877 564.727 357.85 569.503 367.597 570.454C377.345 571.404 387.071 568.451 394.645 562.242L505.035 471.442V471.432Z" fill="#FFBC00"/>
<path fill-rule="evenodd" clip-rule="evenodd" d="M467.655 427.902C462.465 431.902 451.835 426.902 443.925 416.712C436.015 406.522 454.795 391.942 462.705 402.142C470.615 412.342 472.835 423.882 467.655 427.902Z" fill="#FFE18D"/>
<path fill-rule="evenodd" clip-rule="evenodd" d="M406.375 357.412C401.185 361.412 390.555 356.412 382.645 346.212C374.735 336.012 393.515 321.442 401.425 331.642C409.335 341.842 411.555 353.392 406.375 357.412Z" fill="#FFE18D"/>
<path fill-rule="evenodd" clip-rule="evenodd" d="M408.405 356.732C403.215 360.732 392.585 355.732 384.675 345.532C376.765 335.332 395.545 320.762 403.465 330.962C411.385 341.162 413.585 352.712 408.405 356.732Z" fill="#FFE18D"/>
<path fill-rule="evenodd" clip-rule="evenodd" d="M350.945 287.532C345.755 291.532 335.125 286.532 327.215 276.342C319.305 266.152 338.085 251.572 345.995 261.762C353.905 271.952 356.125 283.512 350.945 287.532Z" fill="#FFE18D"/>
<path fill-rule="evenodd" clip-rule="evenodd" d="M290.555 214.732C285.375 218.732 274.745 213.732 266.835 203.542C258.925 193.352 277.705 178.772 285.615 188.972C293.525 199.172 295.745 210.712 290.555 214.732V214.732Z" fill="#FFE18D"/>
<path fill-rule="evenodd" clip-rule="evenodd" d="M241.355 154.942C236.175 158.942 225.545 153.942 217.635 143.742C209.725 133.542 228.505 118.972 236.415 129.172C244.325 139.372 246.545 150.922 241.355 154.942V154.942Z" fill="#FFE18D"/>
<path fill-rule="evenodd" clip-rule="evenodd" d="M420.065 467.522C414.885 471.522 404.255 466.522 396.345 456.332C388.435 446.142 407.215 431.552 415.125 441.752C423.035 451.952 425.255 463.502 420.065 467.522V467.522Z" fill="#FFE18D"/>
<path fill-rule="evenodd" clip-rule="evenodd" d="M358.815 397.033C353.635 401.033 343.005 396.032 335.085 385.832C327.165 375.632 345.965 361.062 353.875 371.262C361.785 381.462 363.995 393.013 358.815 397.033Z" fill="#FFE18D"/>
<path fill-rule="evenodd" clip-rule="evenodd" d="M360.845 396.382C355.665 400.382 345.035 395.382 337.125 385.182C329.215 374.982 347.995 360.412 355.905 370.612C363.815 380.812 366.035 392.352 360.845 396.382V396.382Z" fill="#FFE18D"/>
<path fill-rule="evenodd" clip-rule="evenodd" d="M303.385 327.152C298.205 331.152 287.575 326.152 279.655 315.952C271.735 305.752 290.535 291.182 298.445 301.382C306.355 311.582 308.565 323.132 303.385 327.152Z" fill="#FFE18D"/>
<path fill-rule="evenodd" clip-rule="evenodd" d="M243.005 254.372C237.825 258.372 227.185 253.372 219.275 243.182C211.365 232.992 230.145 218.412 238.065 228.612C245.985 238.812 248.185 250.352 243.005 254.372Z" fill="#FFE18D"/>
<path fill-rule="evenodd" clip-rule="evenodd" d="M193.805 194.552C188.615 198.552 177.985 193.552 170.075 183.362C162.165 173.172 180.945 158.592 188.855 168.792C196.765 178.992 198.985 190.532 193.855 194.552H193.805Z" fill="#FFE18D"/>
<path fill-rule="evenodd" clip-rule="evenodd" d="M367.545 510.262C362.365 514.262 351.725 509.262 343.815 499.072C335.905 488.882 354.685 474.302 362.605 484.502C370.525 494.702 372.725 506.242 367.545 510.262Z" fill="#FFE18D"/>
<path fill-rule="evenodd" clip-rule="evenodd" d="M306.295 439.732C301.115 443.732 290.475 438.732 282.565 428.542C274.655 418.352 293.435 403.772 301.355 413.972C309.275 424.172 311.475 435.712 306.295 439.732Z" fill="#FFE18D"/>
<path fill-rule="evenodd" clip-rule="evenodd" d="M308.325 439.122C303.145 443.122 292.505 438.122 284.595 427.922C276.685 417.722 295.465 403.152 303.385 413.352C311.305 423.552 313.505 435.102 308.325 439.122Z" fill="#FFE18D"/>
<path fill-rule="evenodd" clip-rule="evenodd" d="M250.865 369.892C245.675 373.892 235.045 368.892 227.135 358.702C219.225 348.512 238.005 333.932 245.915 344.132C253.825 354.332 256.045 365.872 250.865 369.892Z" fill="#FFE18D"/>
<path fill-rule="evenodd" clip-rule="evenodd" d="M190.485 297.122C185.295 301.122 174.665 296.122 166.755 285.922C158.845 275.722 177.625 261.152 185.535 271.352C193.445 281.552 195.665 293.102 190.485 297.122Z" fill="#FFE18D"/>
<path fill-rule="evenodd" clip-rule="evenodd" d="M141.285 237.302C136.095 241.302 125.465 236.302 117.555 226.102C109.645 215.902 128.425 201.333 136.335 211.533C144.245 221.733 146.465 233.282 141.335 237.302H141.285Z" fill="#FFE18D"/>
<path fill-rule="evenodd" clip-rule="evenodd" d="M459.655 417.082C454.475 421.082 446.465 419.472 441.785 413.432C437.105 407.392 455.885 392.832 460.565 398.862C465.245 404.892 464.835 413.062 459.655 417.082V417.082Z" fill="#C5940B"/>
<path fill-rule="evenodd" clip-rule="evenodd" d="M398.355 346.592C393.165 350.592 385.165 348.982 380.475 342.942C375.785 336.902 394.585 322.342 399.265 328.372C403.945 334.402 403.535 342.572 398.355 346.592Z" fill="#C5940B"/>
<path fill-rule="evenodd" clip-rule="evenodd" d="M400.385 345.942C395.205 349.942 387.195 348.322 382.515 342.292C377.835 336.262 396.655 321.732 401.295 327.732C405.935 333.732 405.565 341.932 400.385 345.952V345.942Z" fill="#C5940B"/>
<path fill-rule="evenodd" clip-rule="evenodd" d="M342.925 276.732C337.735 280.732 329.725 279.122 325.045 273.082C320.365 267.042 339.155 252.482 343.835 258.512C348.515 264.542 348.105 272.712 342.925 276.732Z" fill="#C5940B"/>
<path fill-rule="evenodd" clip-rule="evenodd" d="M282.545 203.942C277.355 207.942 269.345 206.322 264.665 200.292C259.985 194.262 278.765 179.682 283.455 185.722C288.145 191.762 287.725 199.912 282.545 203.942Z" fill="#C5940B"/>
<path fill-rule="evenodd" clip-rule="evenodd" d="M233.335 144.122C228.155 148.122 220.145 146.502 215.465 140.472C210.785 134.442 229.565 119.862 234.245 125.902C238.925 131.942 238.525 140.092 233.335 144.122V144.122Z" fill="#C5940B"/>
<path fill-rule="evenodd" clip-rule="evenodd" d="M412.045 456.732C406.865 460.732 398.855 459.122 394.175 453.082C389.495 447.042 408.275 432.482 412.955 438.512C417.635 444.542 417.235 452.712 412.045 456.732V456.732Z" fill="#C5940B"/>
<path fill-rule="evenodd" clip-rule="evenodd" d="M350.795 386.212C345.615 390.212 337.605 388.592 332.925 382.562C328.245 376.532 347.025 361.952 351.705 367.992C356.385 374.032 355.985 382.192 350.795 386.212V386.212Z" fill="#C5940B"/>
<path fill-rule="evenodd" clip-rule="evenodd" d="M352.835 385.562C347.645 389.562 339.635 387.942 334.955 381.912C330.275 375.882 349.055 361.302 353.735 367.342C358.415 373.382 358.015 381.542 352.835 385.562Z" fill="#C5940B"/>
<path fill-rule="evenodd" clip-rule="evenodd" d="M295.365 316.332C290.185 320.332 282.175 318.722 277.495 312.682C272.815 306.642 291.595 292.082 296.275 298.112C300.955 304.142 300.555 312.312 295.365 316.332V316.332Z" fill="#C5940B"/>
<path fill-rule="evenodd" clip-rule="evenodd" d="M234.985 243.552C229.805 247.552 221.795 245.943 217.115 239.903C212.435 233.863 231.215 219.302 235.895 225.342C240.575 231.382 240.165 239.532 234.985 243.552V243.552Z" fill="#C5940B"/>
<path fill-rule="evenodd" clip-rule="evenodd" d="M185.785 183.732C180.605 187.732 172.595 186.122 167.905 180.092C163.215 174.062 182.015 159.482 186.695 165.512C191.375 171.542 190.965 179.712 185.785 183.732Z" fill="#C5940B"/>
<path fill-rule="evenodd" clip-rule="evenodd" d="M359.525 499.442C354.345 503.442 346.335 501.832 341.655 495.792C336.975 489.752 355.755 475.192 360.435 481.222C365.115 487.252 364.705 495.422 359.525 499.442V499.442Z" fill="#C5940B"/>
<path fill-rule="evenodd" clip-rule="evenodd" d="M298.275 428.952C293.095 432.952 285.085 431.342 280.405 425.302C275.725 419.262 294.505 404.702 299.185 410.732C303.865 416.762 303.455 424.932 298.275 428.952V428.952Z" fill="#C5940B"/>
<path fill-rule="evenodd" clip-rule="evenodd" d="M300.305 428.302C295.125 432.302 287.115 430.692 282.435 424.652C277.755 418.612 296.535 404.052 301.215 410.082C305.895 416.112 305.495 424.282 300.305 428.302V428.302Z" fill="#C5940B"/>
<path fill-rule="evenodd" clip-rule="evenodd" d="M242.845 359.072C237.665 363.072 229.655 361.462 224.975 355.432C220.295 349.402 239.075 334.822 243.755 340.852C248.435 346.882 248.025 355.052 242.845 359.072V359.072Z" fill="#C5940B"/>
<path fill-rule="evenodd" clip-rule="evenodd" d="M182.465 286.302C177.275 290.302 169.265 288.682 164.585 282.652C159.905 276.622 178.695 262.042 183.375 268.082C188.055 274.122 187.645 282.282 182.465 286.302Z" fill="#C5940B"/>
<path fill-rule="evenodd" clip-rule="evenodd" d="M133.265 226.482C128.075 230.482 120.065 228.862 115.385 222.832C110.705 216.802 129.485 202.222 134.175 208.262C138.865 214.302 138.445 222.462 133.265 226.482Z" fill="#C5940B"/>
</svg>
