<svg width="387" height="718" viewBox="0 0 387 718" fill="none" xmlns="http://www.w3.org/2000/svg">
<path fill-rule="evenodd" clip-rule="evenodd" d="M92.7499 569.63C92.3499 569.63 90.0598 577.17 89.8998 577.63C86.7398 586.24 83.0699 594.75 79.7099 603.32C73.4799 619.24 66.8398 635.32 61.8398 651.38C57.3598 665.81 55.3798 679.93 47.8398 693.98C42.0998 704.62 31.7397 720.54 14.7897 717.28C-0.380265 714.37 -2.07018 699.92 3.12982 689.21C10.7398 673.55 22.9197 656.94 35.0197 642.82C42.1097 634.55 50.3898 627.29 55.5998 618.12C64.9498 601.68 61.0999 581.89 75.4599 567.12" fill="#004497"/>
<path fill-rule="evenodd" clip-rule="evenodd" d="M5.66992 705.35V705.4L5.72998 705.49L5.84985 705.63L6.06982 705.81H6.17993L5.51978 705.1V705.03V704.93V704.76V704.51V704.35V704.16L5.57983 703.97L5.66992 703.79L5.77979 703.62L5.94995 703.43L6.1499 703.28L6.35986 703.16L6.59985 703.08H6.83984H7.08984H7.33984L7.57983 703.16L7.7998 703.29L7.92993 703.37L8.09985 703.54L8.19995 703.67L8.26001 703.74V703.81L8.32983 703.91L8.3999 704.02L8.48999 704.13L8.65991 704.37L8.73999 704.49L8.81982 704.6L8.8999 704.7V704.65L9.01978 704.76L9.12988 704.87L9.23999 704.97L9.34985 705.07L9.46997 705.18L9.57983 705.27L9.69995 705.37L9.80981 705.47L9.92993 705.56L10.0498 705.65L10.1599 705.73L10.2798 705.82L10.3999 705.9L10.51 705.98L10.6299 706.05L10.74 706.13H10.8298L10.9199 706.19L11.01 706.24L11.0999 706.3L11.1899 706.35H11.2798L11.3799 706.4H11.47L11.5598 706.45L11.6499 706.5H11.74H11.8298L11.9299 706.55H12.0198H12.1099H12.2L12.2898 706.6H12.3899H12.48H12.5698H12.6699H12.76H12.8499H12.9399H13.0298H13.1299H13.22H13.3098H13.3999H13.5H13.5898H13.6799H13.7698H13.8599H13.95H14.0398H14.1299H14.22H14.3098H14.3999H14.49H14.5798H14.6699H14.76H14.8499H14.9299H15.0198H15.1099H17.1799H17.2798H17.3799H17.48H17.5698H17.6699H17.7698H17.8599H17.96H18.0498H18.1499H18.24H18.3298H18.4199H18.51H18.5999H18.6899H18.7698H18.8599H18.95H19.0298H19.1199H19.21H19.2898H19.3799H19.46L19.5398 706.55H19.6299L19.71 706.5H19.7998L19.8799 706.45H19.96L20.0498 706.4H20.1299L20.21 706.34L20.2898 706.29L20.3799 706.24L20.46 706.18L20.5398 706.12H20.6199L20.7 706.06L20.7798 706L20.8699 705.94L20.95 705.87L21.0298 705.81L21.1099 705.74L21.1899 705.68L21.2698 705.61L21.3499 705.54L21.4299 705.47L21.51 705.4L21.5898 705.33L21.6699 705.25L21.75 705.18L21.8298 705.1H21.8799L21.96 705.02L22.0398 704.94L22.1199 704.87L22.2 704.79L22.2798 704.71L22.3599 704.62L22.4399 704.54L22.5198 704.46L22.5999 704.37L22.6799 704.29L22.76 704.2L22.8398 704.11L22.9199 704.02L23 703.93L23.0798 703.84L23.1599 703.75L23.23 703.66L23.3098 703.56L23.3899 703.47L23.47 703.37L23.5498 703.28L23.6199 703.18L23.7 703.08L23.7798 702.98L23.8599 702.89L23.9299 702.79L24.01 702.69L24.0898 702.59L24.1699 702.49L24.24 702.38L24.3198 702.28L24.3999 702.18L24.47 702.07L24.6299 701.86L24.7798 701.64L24.9299 701.42L25.0798 701.2L25.23 700.98L25.3799 700.75L25.5198 700.52L25.6699 700.29L25.8098 700.06L25.95 699.83L26.0898 699.59L26.23 699.36L26.3699 699.12L26.51 698.88L26.6499 698.64L26.7698 698.42L26.9199 698.16L27.0798 697.89L27.23 697.61L27.3799 697.34L27.5298 697.07L27.6799 696.79L27.8198 696.52L27.97 696.24L28.1199 695.97L28.2698 695.69L28.4099 695.42L28.5598 695.14L28.7 694.86L28.8499 694.58L28.99 694.3L29.1299 694.03L29.2798 693.75L29.4199 693.47L29.5598 693.18L29.7 692.9L29.98 692.34L30.0698 692.15L30.26 691.77L30.5398 691.21L30.8198 690.64L31.0898 690.06L31.3699 689.49L31.6399 688.92L31.9099 688.34L32.1699 687.76L32.4399 687.18L32.7 686.6L32.97 686.01L33.23 685.42L33.46 684.9V684.84L33.72 684.25L33.98 683.66L34.24 683.07L34.5 682.48L34.76 681.89L35.01 681.29L35.2698 680.69L35.5198 680.1L35.7698 679.5L36.0298 678.9L36.2798 678.29L36.5298 677.69L36.7698 677.09L37.0298 676.48L37.2798 675.88L37.5298 675.27L37.7798 674.67L38.0198 674.06L38.2698 673.45L38.5198 672.84L38.76 672.23L39.01 671.61L39.26 671L39.5 670.39L39.99 669.16L40.48 667.93L40.96 666.69L41.45 665.46L42.45 662.98L43.45 660.5L43.9399 659.25L44.4299 658.01L44.9199 656.77L45.4099 655.53L45.6599 654.91L45.9099 654.29L46.1599 653.67L46.4099 653.05L46.6599 652.43L46.9099 651.81L47.1699 651.19L47.4199 650.57L47.6799 649.96L47.9299 649.34L48.1899 648.72L48.3098 648.44L48.46 648.11L48.75 647.51L49.0298 646.9L49.3198 646.3L49.6099 645.69L49.8999 645.09L50.1799 644.49L50.2698 644.32L50.49 643.9L50.7998 643.3L51.1099 642.71L51.4199 642.12L51.73 641.53L52.0498 640.95L52.3599 640.36L52.5598 640L52.6799 639.78L53.0198 639.2L53.3499 638.63L53.6899 638.05L54.0298 637.48L54.3699 636.91L54.71 636.35L55.0598 635.78L55.4099 635.22L55.76 634.65L56.1099 634.09L56.46 633.54L56.8198 632.98L56.99 632.7L57.1699 632.43L57.3499 632.15L57.5298 631.88L57.6799 631.66L57.8699 631.38L58.0598 631.11L58.25 630.85L58.4299 630.58L58.6199 630.31L58.8198 630.04L59.01 629.77L59.2 629.51L59.3899 629.24L59.5798 628.98L59.7798 628.71L59.97 628.45L60.1699 628.19L60.3599 627.93L60.5598 627.66L60.76 627.4L60.95 627.14L61.1499 626.88L61.3499 626.63L61.5498 626.37L61.75 626.11L61.95 625.86L62.1499 625.6L62.3499 625.35L62.5598 625.09L62.76 624.84L62.96 624.59L63.1699 624.34L63.3699 624.08L63.5798 623.84L63.6799 623.71L63.7898 623.58L64.97 622.89L66.2 623.08L66.8499 624.13L66.6699 625.49L66.5999 625.63L66.5298 625.77L66.3899 626.05L66.25 626.33L66.1099 626.6L65.96 626.88L65.8298 627.16L65.6899 627.44L65.5498 627.72L65.4099 628.01L65.2798 628.29L65.1399 628.57L65.01 628.85L64.8699 629.14L64.74 629.42L64.6099 629.7L64.48 629.99L64.3499 630.27L64.22 630.56L64.0898 630.85L63.96 631.13L63.8398 631.42L63.71 631.71L63.5798 632L63.46 632.28L63.3298 632.57L63.21 632.86L63.0898 633.15L62.96 633.44L62.8398 633.73L62.72 634.03L62.5999 634.32L62.5 634.56L62.3799 634.85L62.25 635.14L62.1299 635.43L62.01 635.72L61.76 636.3L61.5198 636.89L61.2798 637.47L61.0398 638.06L60.7998 638.65L60.5698 639.24L60.3398 639.84L60.1099 640.43L59.8799 641.03L59.6599 641.63L59.4299 642.23L59.21 642.83L59.1299 643.06L58.98 643.43L58.75 644.02L58.5198 644.62L58.2998 645.22L58.0698 645.83L57.8398 646.43L57.6199 647.04L57.46 647.47L57.3899 647.64L57.1599 648.24L56.9199 648.85L56.6899 649.45L56.46 650.06L56.22 650.66L55.99 651.27L55.8699 651.6L55.75 651.88L55.5 652.48L55.25 653.08L55 653.68L54.75 654.29L54.51 654.89L54.26 655.5L54.01 656.11L53.7698 656.72L53.5198 657.33V657.41L53.3098 657.94L53.0698 658.55L52.5798 659.78L52.0898 661.01L51.6099 662.24L51.1199 663.47L50.7698 664.38L50.1499 665.95L49.1499 668.43L48.6599 669.68L48.1699 670.92L47.7 672.12L47.21 673.36L46.96 673.99L46.71 674.61L46.46 675.23L46.21 675.85L45.96 676.47L45.71 677.09L45.45 677.71L45.2 678.33L44.9399 678.95L44.6899 679.57L44.4299 680.19L44.1699 680.81L43.8999 681.42L43.6399 682.04L43.3699 682.65L43.0999 683.27L42.8298 683.88L42.5598 684.49L42.2898 685.1L42.01 685.71L41.74 686.32L41.46 686.93L41.1799 687.54L40.8999 688.15V688.21L40.6399 688.75L40.3499 689.35L40.0598 689.95L39.76 690.55L39.47 691.15L39.1699 691.75L38.8699 692.35L38.5698 692.94L38.26 693.53L37.95 694.13L37.6399 694.72L37.3298 695.3L37.1199 695.7L37.01 695.89L36.7 696.47L36.5298 696.77L36.3699 697.06L36.21 697.35L36.0498 697.64L35.8899 697.93L35.72 698.22L35.5598 698.51L35.3899 698.79L35.22 699.08L35.0598 699.37L34.8899 699.66L34.72 699.94L34.5498 700.23L34.3799 700.51L34.21 700.8L34.0398 701.08L33.8699 701.37L33.7 701.65L33.5198 701.93L33.3499 702.22L33.2 702.46L33.0298 702.73L32.8499 703L32.6799 703.27L32.5 703.54L32.3098 703.81L32.1299 704.08L31.9399 704.35L31.75 704.62L31.5598 704.89L31.3599 705.16L31.1699 705.42L30.96 705.69L30.76 705.95L30.5498 706.22L30.3499 706.47L30.24 706.61L30.1299 706.74L30.0198 706.87L29.9199 707L29.8098 707.12L29.7 707.25L29.5898 707.38L29.47 707.51L29.3699 707.62L29.26 707.75L29.1399 707.87L29.0198 707.99L28.9099 708.11L28.7898 708.23L28.6699 708.35L28.5498 708.47L28.4299 708.59L28.3098 708.71L28.1799 708.83L28.0598 708.95L27.9299 709.06L27.8098 709.18L27.6799 709.29L27.5498 709.41L27.4299 709.52L27.2998 709.63L27.1699 709.74L27.0398 709.85L26.8999 709.96L26.7698 710.07L26.6399 710.17L26.5 710.28L26.3699 710.38H26.3098L26.23 710.45L26.0898 710.55L25.95 710.64L25.7998 710.74L25.6599 710.84L25.5198 710.93L25.3699 711.03L25.23 711.12L25.0798 711.21L24.9299 711.3L24.7798 711.39L24.6299 711.47L24.48 711.56L24.3298 711.64L24.1799 711.72L24.0198 711.8L23.8699 711.88L23.71 711.96L23.5498 712.04L23.3899 712.11L23.23 712.18L23.0698 712.25L22.9099 712.32L22.75 712.39L22.5898 712.45L22.4199 712.51L22.26 712.57H22.1699H22.0898L21.9199 712.63L21.75 712.68L21.5798 712.73H21.4099H21.24H21.0698H20.8899H20.72H20.5398H20.3699H20.1899H20.01H19.8398H19.6599H19.48H19.2998H19.1199H18.9399H17.1099H16.9199H16.73H16.5498H16.3599H16.1799H15.99H15.8098H15.6699H15.5398H15.3999H15.2698H15.1399H15H14.8699H14.74H14.6099H14.47H14.3398H14.21H14.0798H13.95H13.8198L13.6899 712.68H13.5598L13.4299 712.63H13.3098L13.1799 712.58L13.0498 712.53L12.9199 712.47H12.7998L12.6699 712.41L12.5498 712.35L12.4299 712.29L12.2998 712.23L12.1799 712.17L12.0598 712.1L11.9399 712.04L11.8098 711.97L11.6899 711.91L11.5698 711.84L11.45 711.77L11.3298 711.7L11.22 711.63L11.0999 711.55L10.98 711.48L10.8699 711.41L10.75 711.33L10.6299 711.25L10.5198 711.18L10.4099 711.1L10.2898 711.02L10.1799 710.94L10.0698 710.85L9.95996 710.77L9.84985 710.69L9.72998 710.6L9.62988 710.52L9.51978 710.43L9.40991 710.34L9.2998 710.25L9.19995 710.16L9.08984 710.07L8.97998 709.98L8.87988 709.89L8.77979 709.79L8.66992 709.7L8.56982 709.6L8.46997 709.51L8.36987 709.41L8.26978 709.31L8.16992 709.21L8.02979 709.07L7.8999 708.93L7.76978 708.78L7.63989 708.64L7.51001 708.49L7.37988 708.34L7.26001 708.19L7.13989 708.03L7.01001 707.88L6.8999 707.72L6.77979 707.56L6.66992 707.41L6.55981 707.25L6.44995 707.09L6.33984 706.92L6.22998 706.75L6.17993 706.67L6.11987 706.59V706.51L6.06982 706.43V706.35V706.26L6 706.11L5.92993 705.95L5.85986 705.8L5.73999 705.51L5.68994 705.39V705.29V705.22L5.66992 705.35ZM6.78979 706H6.84985H6.6499H6.78979ZM8.01978 705.46H8.09985V705.39L8 705.49L8.01978 705.46ZM8.33984 704.15L8.19995 705.15L8.37988 704.69V704.4V704.21V704.11L8.33984 704.15Z" fill="#0072FF"/>
<path fill-rule="evenodd" clip-rule="evenodd" d="M113.07 604.8C112.609 606.896 111.483 608.786 109.86 610.19L109.32 611.09L109.02 610.84C99.9398 617.14 78.8298 610.51 59.5898 594.77C40.0198 578.77 29.28 559.01 34.25 549.01L217.83 163.59L333.27 234.93L113.11 604.83L113.07 604.8Z" fill="#0072FF"/>
<path fill-rule="evenodd" clip-rule="evenodd" d="M208.73 239.79H208.75L210.11 241.43L210.05 243.69L210.04 243.7L209.86 244.14L199.32 269.76L190.61 290.07L186.06 300.28L181.61 309.87L173.74 326.29L164.16 346.06L153.41 368.09L141.94 391.24L130.32 414.45L119.19 436.66L109.11 456.8L100.61 473.78L94.28 485.65L87.3401 498.2L73.3899 522.53L58.1399 548.26L57.8899 548.67V548.68L55.8 550.35L53.3 550.23L53.28 550.22L51.6899 548.29L51.78 545.62L51.96 545.16L63.4299 517.54L74.55 491.8L80.4399 478.72L86.1599 466.54L127.49 384.01L139.16 360.95L150.35 339.14L160.45 319.63L168.88 303.49L173.89 294.19L179.34 284.42L190.39 265.29L204.58 241.5L204.83 241.08L206.6 239.68L208.73 239.79Z" fill="#004497"/>
<path fill-rule="evenodd" clip-rule="evenodd" d="M291.97 174.5C323.62 195.64 341.23 224.92 331.26 239.84C321.29 254.76 287.51 249.7 255.86 228.56C224.21 207.42 206.6 178.14 216.56 163.22C226.52 148.3 260.32 153.36 291.97 174.5V174.5Z" fill="#004497"/>
<path fill-rule="evenodd" clip-rule="evenodd" d="M267.14 184C268.06 192.18 281.62 199.12 289.01 198.27Z" fill="#0072FF"/>
<path fill-rule="evenodd" clip-rule="evenodd" d="M270.03 183.72C270.03 183.72 272.79 184.52 274.52 184.79C274.52 184.79 275.79 185.36 275.99 185.48L276.36 185.7C278.879 187.309 281.561 188.649 284.36 189.7L285.7 191.01C286.13 191.66 286.99 192.79 286.99 192.79C287.38 193.41 288.44 194.72 288.44 194.72L288.65 194.93L289.3 201.81C288.893 202.15 288.466 202.464 288.02 202.75C286.457 203.774 284.733 204.528 282.92 204.98L279.65 205.15C275.65 203.978 271.914 202.042 268.65 199.45C267.716 198.666 266.859 197.796 266.09 196.85C265.319 195.894 264.608 194.892 263.96 193.85C263.88 193.67 263.8 193.5 263.73 193.32C263.422 192.648 263.22 191.933 263.13 191.2C263.02 189.98 263.08 188.2 263.08 188.2C263.224 186.893 263.629 185.628 264.27 184.48L270.06 183.79L270.03 183.72Z" fill="#004497"/>
<path fill-rule="evenodd" clip-rule="evenodd" d="M288.85 195.7C288.53 195.4 294.35 186.79 294.67 186.27C300.88 176.04 306.58 165.52 312.59 155.18C323.74 135.98 334.73 116.34 347.07 97.8899C358.15 81.3299 370.99 66.8899 379.13 48.4299C385.29 34.4299 393.05 12.2198 375.7 2.84984C360.18 -5.54016 343.97 6.52981 337.3 20.1898C327.53 40.1898 320.59 64.3398 316.11 86.1898C313.49 98.9798 312.9 111.71 307.8 123.96C298.68 145.96 275.21 161.32 271.92 185.44" fill="#0072FF"/>
<path fill-rule="evenodd" clip-rule="evenodd" d="M363.14 7.24988H364.48H364.65H364.82H364.98H365.15H365.32H365.48H365.65H365.82H365.98H366.15H366.31H366.47H366.64H366.8H366.97H367.13H367.29H367.45H367.62H367.78L367.94 7.29993H368.1H368.26H368.42H368.58H368.73L368.89 7.34985H369.05L369.2 7.40991H369.36L369.52 7.45984L369.67 7.5199L369.83 7.57983L369.98 7.63989L370.13 7.69983L370.28 7.75989H370.39H370.49H370.6H370.7H370.81H370.91H371.01H371.12H371.22L371.32 7.80994L371.52 7.90991L371.72 8.0199L371.91 8.12988L372.11 8.23987L372.3 8.34985L372.49 8.46985L372.68 8.58984L372.87 8.70984L373.05 8.82983L373.23 8.95984L373.42 9.08984L373.51 9.15991L373.6 9.22986L373.69 9.28992L373.76 9.35986L373.84 9.42993L373.91 9.49988L373.98 9.56982L374.05 9.63989L374.18 9.7699L374.31 9.90991L374.43 10.0399L374.54 10.1599L374.64 10.2699L374.71 10.3599L374.78 10.4299L374.68 10.3599L374.5 10.2599L374.26 10.1799L375.09 10.6898V10.7599L375.15 10.8499V10.9498L375.22 11.0898V11.1898V11.3599V11.5499V11.7599V11.9598L375.16 12.1599L375.07 12.3499L374.94 12.5499L374.77 12.7299L374.58 12.8699L374.37 12.9899L374.14 13.0698H373.92H373.69H373.46H373.3L373.06 12.9598L372.89 12.8699L372.79 12.7999H372.73L372.62 12.7198L372.5 12.6299L372.38 12.5399L372.25 12.4398L372.12 12.3398L372 12.2499L371.87 12.1599H371.82H371.77H371.72H371.77H371.72L371.56 12.0798L371.4 12.0099L371.24 11.9398L371.08 11.8699L370.91 11.8099L370.75 11.7399L370.59 11.6799H370.42L370.26 11.6199H370.1L369.93 11.5698H369.85H369.77H369.69H369.61H369.52H369.44H369.36H369.28H369.14H369.06H368.94H368.81H368.68H368.56H368.43H368.3H368.17H368.14H368.01H367.88H367.5H367.37H364.79H364.66H364.41H364.28H364.14H364.01H363.88H363.76H363.63H363.5H363.38H363.25H363.13H363.01H362.88H362.76H362.64H362.51H362.39H362.27H362.15H362.03H361.91H361.79H361.67H361.55H361.43H361.32H361.2H361.09L360.92 11.6299L360.77 11.6898H360.61L360.45 11.7499L360.3 11.8099L360.15 11.8799L359.99 11.9398L359.85 12.0099L359.7 12.0698L359.55 12.1399L359.41 12.2098L359.26 12.2799L359.12 12.3499L358.98 12.4299L358.84 12.4999L358.7 12.5798L358.56 12.6599L358.42 12.7399L358.29 12.8198L358.15 12.8999L358.02 12.9899L357.89 13.0698L357.76 13.1599L357.63 13.2499L357.5 13.3298L357.37 13.4299L357.24 13.5199L357.12 13.6099L356.99 13.6998L356.87 13.7999L356.75 13.8999L356.63 13.9899L356.5 14.0898L356.41 14.1599L356.29 14.2599L356.17 14.3599L356.05 14.4598L355.94 14.5698L355.82 14.6699L355.7 14.7799L355.59 14.8799L355.47 14.9899L355.36 15.0999L355.25 15.2098L355.13 15.3198L355.02 15.4398L354.91 15.5499L354.8 15.6699L354.69 15.7799L354.59 15.8999L354.48 16.0199L354.37 16.1399L354.26 16.2599L354.16 16.3799L354.05 16.4999L353.95 16.6299L353.85 16.7499L353.76 16.8699L353.65 16.9999L353.55 17.1199L353.45 17.2499L353.34 17.3799L353.24 17.5099L353.14 17.6399L353.04 17.7699L352.94 17.8999L352.84 18.0399L352.75 18.1699L352.65 18.3099L352.55 18.4498L352.46 18.5798L352.36 18.7198L352.27 18.8599L352.17 18.9999L352.08 19.1399L351.99 19.2899L351.9 19.4299L351.8 19.5698L351.71 19.7198L351.63 19.8599L351.55 19.9899L351.45 20.1399L351.36 20.2799L351.27 20.4299L351.19 20.5798L351.1 20.7299L351.01 20.8799L350.92 21.0299L350.83 21.1799L350.75 21.3298L350.66 21.4799L350.58 21.6299L350.49 21.7899L350.41 21.9398L350.33 22.0999L350.25 22.2499L350.16 22.4099L350.08 22.5698L350 22.7198L349.92 22.8799L349.84 23.0399L349.76 23.1998L349.69 23.3599L349.61 23.5199L349.53 23.6799L349.46 23.8298L349.3 24.1599L349.16 24.4799L349.01 24.8099L348.87 25.1299L348.72 25.4598L348.58 25.7899L348.45 26.1099L348.33 26.3899L348.19 26.7198L348.06 27.0499L347.93 27.3799L347.78 27.7499L347.64 28.1099L347.5 28.4799L347.36 28.8499L347.22 29.2098L347.08 29.5798L346.94 29.9498L346.8 30.3198L346.66 30.6898L346.53 31.0499L346.39 31.4199L346.26 31.7899L346.12 32.1599L345.99 32.5299L345.86 32.8999L345.73 33.2799L345.6 33.6499L345.47 34.0199L345.34 34.3899L345.21 34.7399L345.09 35.1099L344.96 35.4899L344.83 35.8599L344.71 36.2299L344.58 36.5999L344.46 36.9799L344.34 37.3499L344.21 37.7299L344.09 38.0999L343.97 38.4799L343.85 38.8499L343.73 39.2299L343.61 39.5999L343.49 39.9799L343.38 40.3499L343.26 40.7299L343.03 41.4899L342.8 42.2399L342.58 42.9999L342.35 43.7499V43.8999L342.17 44.5099L341.94 45.2699L341.72 46.0299L341.5 46.7899L341.29 47.5499L341.07 48.3099L340.86 49.0698L340.65 49.8398L340.44 50.5999L340.23 51.3699L340.03 52.1399L339.82 52.8999L339.62 53.6699L339.51 54.1099L339.42 54.4398L339.22 55.2098L339.02 55.9799L338.82 56.7499L338.62 57.5199L338.42 58.2899L338.23 59.0698L338.03 59.8398L337.84 60.6099L337.64 61.3899L337.45 62.1599L337.26 62.9398L337.07 63.7198L336.89 64.4799L336.7 65.2499L336.33 66.8099L335.95 68.3699L335.58 69.9299L334.84 73.0599L334.5 74.4799V74.6199L334.13 76.1898L333.76 77.7599L333.38 79.3198L333 80.8899L332.81 81.6799L332.62 82.4598L332.42 83.2499L332.33 83.6099L332.23 84.0299L332.04 84.8099L331.84 85.5999L331.64 86.3799L331.44 87.1699L331.24 87.9498L331.04 88.7399L330.84 89.5199L330.63 90.2999L330.43 91.0898L330.37 91.3298L330.21 91.8699L329.97 92.6399L329.74 93.4199L329.5 94.1898L329.26 94.9698L329.02 95.7499L328.78 96.5199L328.71 96.7399L328.52 97.2899L328.26 98.0599L327.99 98.8298L327.73 99.5999L327.46 100.36L327.18 101.13L326.91 101.89L326.71 102.45L326.63 102.66L326.33 103.42L326.04 104.17L325.74 104.93L325.59 105.31L325.43 105.69L325.28 106.07L325.13 106.44L324.97 106.82L324.82 107.2L324.66 107.57L324.51 107.95L324.35 108.32L324.19 108.7L324.03 109.08L323.87 109.45L323.72 109.82L323.55 110.2L323.39 110.57L323.23 110.95L323.07 111.32L322.9 111.69L322.74 112.06L322.57 112.44L322.4 112.81L322.24 113.18L322.14 113.39L322.06 113.55L321.89 113.92L321.71 114.28L321.53 114.65L321.35 115.02L321.17 115.39L320.99 115.75L320.81 116.12L320.63 116.48L320.44 116.85L320.26 117.21L320.07 117.57L319.89 117.94L319.7 118.3L319.51 118.66L319.32 119.02L319.13 119.39L318.94 119.75L318.74 120.11L318.55 120.47L318.36 120.82L318.16 121.18L317.96 121.54L317.77 121.9L317.57 122.26L317.37 122.61L317.16 122.97L316.96 123.32L316.76 123.68L316.55 124.03L316.35 124.39L316.25 124.56L316.14 124.74L315.08 125.6H313.82L313 124.6V123.23L313.07 123.04L313.14 122.85L313.27 122.47L313.41 122.1L313.55 121.72L313.68 121.35L313.81 120.98L313.94 120.6L314.08 120.23L314.2 119.85L314.33 119.47L314.46 119.1L314.58 118.72L314.71 118.35L314.83 117.97L314.96 117.59L315.08 117.22L315.2 116.84L315.32 116.46L315.44 116.08L315.55 115.71L315.67 115.33L315.79 114.95L315.9 114.57L316.01 114.19L316.12 113.82L316.24 113.44L316.35 113.06L316.46 112.68L316.56 112.3L316.67 111.92L316.78 111.54V111.38L316.85 111.16L316.96 110.78L317.07 110.4L317.18 110.02L317.29 109.65L317.39 109.27L317.5 108.89L317.61 108.51L317.71 108.13L317.82 107.75L317.92 107.37L318.02 106.99L318.13 106.61L318.23 106.23L318.33 105.85L318.43 105.47L318.53 105.08L318.62 104.7L318.72 104.32L318.82 103.94L318.91 103.56L319.01 103.17L319.1 102.79L319.29 102.03L319.47 101.26L319.65 100.49V100.28L319.79 99.7299L319.98 98.9598L320.17 98.1898L320.36 97.4299L320.54 96.6599L320.72 95.8899L320.9 95.1199L321.03 94.5698L321.08 94.3499L321.27 93.5798L321.46 92.8198L321.65 92.0499L321.83 91.2799L322.01 90.5099L322.19 89.7399L322.32 89.1998L322.38 88.9698L322.58 88.1998L322.78 87.4299L322.98 86.6599L323.18 85.8899L323.38 85.1199L323.57 84.3499L323.76 83.5798L323.96 82.8099L324.15 82.0299L324.34 81.2599L324.53 80.4799L324.72 79.7098L324.91 78.9299L325.29 77.3699L325.66 75.8198L326.03 74.2599L326.41 72.6998L326.78 71.1299L327.52 67.9999L327.9 66.4299L328.27 64.8599L328.65 63.2999L328.84 62.5099L329.03 61.7198L329.23 60.9398L329.42 60.1499L329.62 59.3699L329.81 58.5798L330.01 57.7999L330.21 57.0099L330.41 56.2198L330.61 55.4398L330.81 54.6499L331.01 53.8699L331.22 53.0798L331.42 52.2899L331.51 51.9498L331.64 51.5099L331.85 50.7299L332.07 49.9398L332.28 49.1599L332.51 48.3699L332.73 47.5898L332.95 46.8099L333.18 46.0199L333.41 45.2399L333.64 44.4598L333.88 43.6799L334.11 42.8999L334.35 42.1199L334.55 41.4899L334.6 41.3398L334.85 40.5599L335.1 39.7799L335.36 38.9999L335.61 38.2299L335.74 37.8398L335.88 37.4498L336.01 37.0599L336.14 36.6799L336.27 36.2899L336.41 35.8999L336.54 35.5099L336.68 35.1299L336.82 34.7399L336.96 34.3499L337.09 33.9698L337.23 33.5798L337.38 33.1998L337.52 32.8099L337.66 32.4299L337.8 32.0399L337.94 31.6699L338.08 31.2799L338.23 30.8999L338.38 30.5099L338.53 30.1299L338.68 29.7499L338.83 29.3599L338.98 28.9799L339.13 28.5999L339.29 28.2098L339.44 27.8298L339.6 27.4498L339.75 27.0698L339.91 26.6898L340.07 26.3099L340.23 25.9299L340.39 25.5499L340.55 25.1699L340.72 24.7899L340.88 24.3999L341.04 24.0399L341.2 23.6799L341.36 23.3198L341.51 22.9999L341.68 22.6399L341.86 22.2699L342.03 21.8999L342.21 21.5399L342.4 21.1699L342.59 20.7999L342.78 20.4398L342.88 20.2599L342.97 20.0698L343.07 19.8899L343.17 19.7098L343.27 19.5199L343.37 19.3398L343.48 19.1599L343.58 18.9799L343.68 18.7999L343.79 18.6199L343.89 18.4299L344 18.2499L344.11 18.0698L344.22 17.8899L344.33 17.7098L344.44 17.5299L344.55 17.3499L344.66 17.1699L344.78 16.9999L344.89 16.8198L345.01 16.6399L345.13 16.4598L345.24 16.2899L345.36 16.1099L345.48 15.9299L345.59 15.7799L345.71 15.6099L345.84 15.4299L345.97 15.2599L346.1 15.0898L346.22 14.9199L346.36 14.7499L346.49 14.5798L346.62 14.4199L346.75 14.2499L346.89 14.0798L347.03 13.9099L347.17 13.7499L347.3 13.5898L347.44 13.4199L347.59 13.2599L347.73 13.0999L347.87 12.9398L348.02 12.7799L348.17 12.6199L348.31 12.4598L348.46 12.2999L348.61 12.1499L348.75 12.0199L348.9 11.8599L349.06 11.7098L349.22 11.5599L349.38 11.4199L349.54 11.2699L349.7 11.1299L349.86 10.9799L350.03 10.8398L350.19 10.6998L350.36 10.5599L350.53 10.4199L350.7 10.2799L350.87 10.1499L351.04 10.0099L351.22 9.87988L351.39 9.74988L351.57 9.61987L351.75 9.48987L351.93 9.35986L352.11 9.23987L352.29 9.10986L352.47 8.98987L352.66 8.86987L352.8 8.77991L352.99 8.66992L353.18 8.55994L353.37 8.44983L353.56 8.33984L353.76 8.22986L353.96 8.12988L354.15 8.02991L354.36 7.92993L354.56 7.82983L354.76 7.72986L354.96 7.63989L355.16 7.54993L355.37 7.45984L355.58 7.36987L355.79 7.27991L356 7.19983L356.21 7.11987L356.42 7.03992L356.63 6.95984L356.85 6.88989L357.06 6.81982L357.28 6.74988L357.5 6.67993L357.72 6.61987L357.94 6.54993L358.16 6.48987L358.38 6.43982L358.61 6.37988H358.84H359.06H359.29H359.52H359.75H359.92H360.08H360.25H360.42H360.59H360.76H360.92H361.09H361.26H361.43H361.6H363.14V7.24988ZM372.41 13.0499L372.47 13.3999L372.53 13.5698V13.6599V13.7399V13.7999L372.39 12.8699L372.33 13.1499L372.41 13.0499ZM372.59 12.2499V12.3599L372.69 12.1898L372.61 12.2499H372.59ZM373.52 11.5399H373.66H373.52Z" fill="#004497"/>
</svg>
