<svg xmlns="http://www.w3.org/2000/svg" viewBox="0 0 881.97 882.4"><defs><style>.cls-1{fill:#fe4a27;}.cls-1,.cls-10,.cls-11,.cls-12,.cls-13,.cls-14,.cls-15,.cls-16,.cls-17,.cls-18,.cls-19,.cls-2,.cls-20,.cls-21,.cls-22,.cls-23,.cls-24,.cls-25,.cls-26,.cls-3,.cls-4,.cls-5,.cls-6,.cls-7,.cls-8,.cls-9{fill-rule:evenodd;}.cls-2{fill:#ffd58d;}.cls-3{fill:#e73715;}.cls-4{fill:#ffc740;}.cls-5{fill:#ffe1ad;}.cls-6{fill:#f3bd3a;}.cls-7{fill:#e70000;}.cls-8{fill:#ff5d38;}.cls-9{fill:#f7392b;}.cls-10{fill:#ffae50;}.cls-11{fill:#ffd368;}.cls-12{fill:#568c00;}.cls-13{fill:#74b311;}.cls-14{fill:#7fc216;}.cls-15{fill:#5d9000;}.cls-16{fill:#daef7c;}.cls-17{fill:#bbcf62;}.cls-18{fill:#69980c;}.cls-19{fill:#7eb216;}.cls-20{fill:#6aac14;}.cls-21{fill:#f10f00;}.cls-22{fill:#ff3f33;}.cls-23{fill:#263314;}.cls-24{fill:#719300;}.cls-25{fill:#fff2d2;}.cls-26{fill:#6e7400;}</style></defs><g id="Warstwa_2" data-name="Warstwa 2"><g id="objects"><path class="cls-1" d="M154.57,727.75c-158.09-158.16-158.09-414.93,0-573.1s414.73-158.16,572.81,0,158.09,414.94,0,573.1-414.72,158.17-572.81,0Z"/><path class="cls-2" d="M413.45,876.92v0c-23.23-8.23-62.1-14.67-86.73-14.36h0c-24.64.31-59.52-12.83-77.81-29.34h0c-18.29-16.52-51.76-37.36-74.65-46.49s-50.08-34.63-60.67-56.9S80,675.49,62.39,658.29s-33-51.18-34.29-75.8h0c-1.26-24.63-10.21-63-19.93-85.67h0c-9.74-22.65-10.94-59.91-2.7-83.13l0,0c8.24-23.24,14.67-62.12,14.36-86.77v0c-.33-24.64,12.81-59.54,29.32-77.85h0c16.51-18.3,37.33-51.78,46.46-74.67s34.62-50.12,56.86-60.71S206.81,80.09,224,62.42s51.15-33,75.76-34.31h0c24.61-1.26,63-10.2,85.62-19.94h0c22.64-9.74,59.87-10.94,83.11-2.69v0c23.23,8.24,62.1,14.67,86.73,14.36h0c24.64-.32,59.52,12.83,77.81,29.34h0c18.29,16.52,51.75,37.36,74.64,46.49s50.09,34.63,60.68,56.9,33.53,54.33,51.18,71.53,33,51.17,34.28,75.8h0c1.27,24.63,10.2,63,19.93,85.67l0,0c9.73,22.64,10.92,59.9,2.68,83.13h0c-8.24,23.24-14.67,62.13-14.36,86.77l0,0c.31,24.65-12.83,59.55-29.33,77.85h0c-16.5,18.3-37.34,51.77-46.46,74.68s-34.62,50.11-56.86,60.7S675.16,802.32,658,820s-51.15,33-75.76,34.31h0c-24.62,1.25-63,10.19-85.62,19.93h0c-22.64,9.74-59.88,10.94-83.11,2.69Zm61-42.71c14.58-6.47,40.24-10.54,56.07-8.89,15.38,1.61,34.89-3.09,50.16-11.35l13.54-9.36c11.84-10.67,35-22.46,50.56-25.77l15.53-5.47c15.66-7.49,30.92-20.53,38.66-33.92l7.68-11A150.18,150.18,0,0,1,728.11,707l11-7.71c13.39-7.74,26.42-23,33.91-38.68l5.45-15.5c3.33-15.62,15.11-38.78,25.76-50.61L813.56,581c8.26-15.27,13-34.8,11.35-50.19-1.65-15.84,2.42-41.51,8.88-56.07,8.37-18.84,8.37-48.16,0-67-6.46-14.57-10.53-40.23-8.88-56.09,1.6-15.37-3.09-34.9-11.35-50.17l-9.35-13.54c-10.66-11.85-22.44-35-25.77-50.59L773,221.78c-7.49-15.66-20.52-30.94-33.9-38.68l-11-7.68a150.9,150.9,0,0,1-21.47-21.49L699,143c-7.74-13.4-23-26.44-38.66-33.93l-15.51-5.46c-15.6-3.33-38.74-15.12-50.58-25.78l-13.54-9.36c-15.27-8.26-34.78-13-50.16-11.35-15.83,1.65-41.49-2.42-56-8.89-14.13-6.27-34.13-7.84-51.21-4.71L407.53,48.2c-14.58,6.47-40.24,10.54-56.09,8.89-15.38-1.61-34.89,3.09-50.15,11.35l-13.53,9.35c-11.84,10.67-35,22.46-50.58,25.78L221.67,109C206,116.53,190.73,129.57,183,143l-7.68,11a150.39,150.39,0,0,1-21.47,21.49l-11,7.68c-13.38,7.74-26.42,23-33.91,38.68l-5.44,15.51c-3.33,15.62-15.12,38.77-25.78,50.61L68.4,301.45c-8.27,15.27-13,34.8-11.35,50.17,1.65,15.86-2.41,41.52-8.88,56.09-8.36,18.83-8.36,48.15,0,67,6.47,14.56,10.53,40.23,8.88,56.07-1.6,15.39,3.08,34.92,11.35,50.19l9.35,13.53c10.66,11.85,22.45,35,25.76,50.6L109,660.62c7.49,15.67,20.53,30.94,33.91,38.68l11,7.71a149.66,149.66,0,0,1,21.47,21.46l7.68,11c7.73,13.39,23,26.43,38.67,33.92l15.5,5.46c15.6,3.32,38.75,15.11,50.58,25.78L301.29,814c15.26,8.26,34.77,13,50.15,11.35,15.85-1.65,41.51,2.42,56.05,8.88,18.83,8.37,48.14,8.37,66.95,0Z"/><path class="cls-3" d="M396.06,811.41l-19.6-7.3c-21.58-6.91-47.61-12.26-65.34-13.07l-22-4a137.49,137.49,0,0,1-43.47-22.81l-15.3-14.85a9.14,9.14,0,0,1-1.17-1.24c-15.59-19.6-45.33-45.59-65.75-57.51a6.89,6.89,0,0,1-1.43-1.08l-16.22-12.77a137.47,137.47,0,0,1-27.91-40.4l-7.12-21.91c-3.5-18.44-12.42-43.78-21.95-63.75l-9.55-17.74C64.38,509.25,59.56,468.69,68,441l4.87-20.35a322.89,322.89,0,0,0,5.31-46.3l-.23-20.15c-1.59-20.91,6.2-47.6,18.75-68.32L110.26,268l.38-.42c17.57-17.82,39.78-50.51,49.15-72.24l11.6-19.19c14.57-18.84,37-35.69,57.6-42.29,17.88-5.71,41.95-17.61,60.62-29.48l16.45-11.63c21.71-17.59,61.37-27.27,89.85-22.26l20.77,2.39a324.52,324.52,0,0,0,46.59-.31l20-2.65c27.41-5.47,67,4.37,89.91,22.07l17.29,11.77c19.29,11.86,43.29,23.3,60.3,28.33l20.45,9.21a137.6,137.6,0,0,1,36.74,32.55l12.17,19.56c7.81,17.06,22.52,39.54,36.55,56.65L770.15,265c20.07,19.46,34.46,57.68,32.91,86.57l.14,20.92a323.47,323.47,0,0,0,5.93,46.24l5,19.5c8.73,26.55,3.72,67.07-11.06,91.94l-9.61,18.6c-9.44,20.58-17.9,45.81-20.82,63.31L766,633.48c-9.65,21.78-27.34,43.52-45.83,54.86-21.31,13.1-50.69,39.52-65,58.37a4.79,4.79,0,0,1-.44.48l-15.44,15.37a137.1,137.1,0,0,1-43.45,22.84l-22.59,4.43c-18.71,1.27-44.93,7.06-65.91,14.12l-18.73,7.35c-25.31,11.87-66.14,11.78-92.58.11Zm84.53-17.25c17.73-8.32,45-16.18,69-20.38L572,770.94c23.7-1.6,54.73-18,68.14-35.71l.4-.47,13.93-16.12a340.12,340.12,0,0,1,37.26-33.49l18.54-12.95c20.24-12.43,40.1-41.39,43.74-63.27l5-21.38c6.58-23,17.4-49.5,27.85-67.08l7.56-17.58a119.59,119.59,0,0,0,5-40.81l-3.18-18c-8.14-24.79-13.46-66.36-12-93.57,1.28-23.73-11.27-56.55-27.19-72-14.06-13.62-31.08-36.34-43.5-57.3l-10.61-20c-9.9-21.59-36.23-44.8-57.5-51.06l-20.62-7.53c-22-9.3-47-23.26-63.18-35.75-14.1-10.9-36.81-18.27-56.44-19.47l-18.19,1c-25.6,5.11-67.48,5.38-94.31.65-17.54-3.07-41.09.93-59,9L318,107.46c-15.22,12.33-39.8,26.48-62.1,36.3l-21.1,8.14c-22.62,7.23-48.83,30.59-57.61,50.95l-10,19.57A336.94,336.94,0,0,1,139,263.87L124.5,280.46l-.38.42c-12.51,12.69-22.58,34.35-26.12,53.71l-1.22,18.19c2,26-2.79,67.66-10.72,93.74L82.94,465.4a119.1,119.1,0,0,0,5,40.82l7.37,16.68c10.38,16.59,21.48,42.73,28.53,66.05l5.52,21.93c4.45,23.34,24.47,52.18,43.62,63.37l18.22,12.24a340.91,340.91,0,0,1,37.71,33L244,736.32c14.78,18.59,45.89,34.83,68,35.81l21.82,2.38c23.62,3.76,51.2,11.31,69.9,19.58,16.29,7.19,40.11,8.93,59.46,5.37l17.42-5.3Z"/><path class="cls-4" d="M312,777.6h0c24.77,1.11,64.21,10.55,88,21.08h0c24,10.6,61.84,10.6,84.44,0h0c22.44-10.54,61.76-20.51,87.74-22.27h0c26.18-1.76,59.67-19.36,74.76-39.27h0c15-19.76,45.16-46.87,67.36-60.51h0c22.36-13.74,43.84-44.89,48-69.53h0c4.09-24.47,18.21-62.51,31.53-84.91h0c13.41-22.57,18-60.14,10.17-83.87h0c-7.74-23.56-12.9-63.81-11.52-89.84h0c1.39-26.21-12-61.61-30-79h0c-17.8-17.27-41.06-50.5-51.92-74.19h0c-10.94-23.86-39.26-49-63.21-56h0c-23.78-7-59.82-25.62-80.44-41.55h0c-20.77-16-57.51-25.1-82-20.21h0c-24.31,4.85-64.87,5.13-90.52.62h0c-25.83-4.54-62.57,4.52-82,20.23h0c-19.27,15.6-55.06,34.7-79.87,42.63h0c-25,8-53.31,33.09-63.2,56h0c-9.81,22.78-32.63,56.33-50.92,74.88h0c-18.42,18.7-31.83,54.09-29.93,79h0c1.88,24.73-2.74,65-10.31,90h0c-7.63,25.12-3.06,62.69,10.19,83.86h0c13.16,21,27.8,58.87,32.67,84.46h0c4.92,25.78,26.41,56.93,48,69.52h0c21.41,12.5,52,39.21,68.16,59.6h0c16.33,20.56,49.83,38.14,74.77,39.26Z"/><path class="cls-5" d="M413.45,876.92v0c-23.23-8.23-62.1-14.67-86.73-14.36h0c-24.64.31-59.52-12.83-77.81-29.34h0c-18.29-16.52-51.76-37.36-74.65-46.49s-50.08-34.63-60.67-56.9S80,675.49,62.39,658.29s-33-51.18-34.29-75.8h0c-1.26-24.63-10.21-63-19.93-85.67h0c-9.74-22.65-10.94-59.91-2.7-83.13l0,0c8.24-23.24,14.67-62.12,14.36-86.77v0c-.33-24.64,12.81-59.54,29.32-77.85h0c16.51-18.3,37.33-51.78,46.46-74.67s34.62-50.12,56.86-60.71S206.81,80.09,224,62.42s51.15-33,75.76-34.31h0c24.61-1.26,63-10.2,85.62-19.94h0c22.64-9.74,59.87-10.94,83.11-2.69v0c23.23,8.24,62.1,14.67,86.73,14.36h0c24.64-.32,59.52,12.83,77.81,29.34h0c18.29,16.52,51.75,37.36,74.64,46.49s50.09,34.63,60.68,56.9,33.53,54.33,51.18,71.53,33,51.17,34.28,75.8h0c1.27,24.63,10.2,63,19.93,85.67l0,0c9.73,22.64,10.92,59.9,2.68,83.13h0c-8.24,23.24-14.67,62.13-14.36,86.77l0,0c.31,24.65-12.83,59.55-29.33,77.85h0c-16.5,18.3-37.34,51.77-46.46,74.68s-34.62,50.11-56.86,60.7S675.16,802.32,658,820s-51.15,33-75.76,34.31h0c-24.62,1.25-63,10.19-85.62,19.93h0c-22.64,9.74-59.88,10.94-83.11,2.69Zm62-8.71L493.38,863c23-9.92,61.67-18.92,86.72-20.2l18.37-3.19c19.34-5.34,40.33-16.56,52.24-28.78,17.48-18,49.75-41.08,72.39-51.87,20.54-9.77,44.59-35.42,53-56.56,9.29-23.31,30.25-57,47.07-75.63l10.73-15.25a138.57,138.57,0,0,0,14.59-38.74l2-18.57c-.31-25.09,6.16-64.23,14.56-87.88l4.08-18.21a138.3,138.3,0,0,0-1.34-41.37l-5.25-17.92c-9.91-23.05-18.9-61.7-20.19-86.76l-3.18-18.39c-5.34-19.35-16.56-40.35-28.78-52.26-18-17.51-41-49.78-51.83-72.43-9.76-20.55-35.42-44.61-56.54-53-23.29-9.29-57-30.27-75.59-47.08L611.17,48.1a137.85,137.85,0,0,0-38.72-14.6l-18.57-2c-25.06.32-64.18-6.16-87.84-14.56l-18.2-4.08a137.86,137.86,0,0,0-41.35,1.34l-17.91,5.25c-23,9.91-61.66,18.92-86.72,20.2l-18.38,3.18c-19.33,5.35-40.32,16.55-52.22,28.79-17.5,18-49.76,41.08-72.4,51.86-20.53,9.77-44.6,35.44-53,56.56-9.28,23.31-30.24,57-47.07,75.64L48.06,270.94a138.6,138.6,0,0,0-14.6,38.73l-2,18.58c.32,25.07-6.15,64.22-14.55,87.88l-4.08,18.2a138.31,138.31,0,0,0,1.33,41.37l5.25,17.92c9.92,23,18.92,61.69,20.19,86.75l3.19,18.41c5.32,19.34,16.55,40.34,28.77,52.25,18,17.5,41.05,49.77,51.82,72.43,9.77,20.54,35.43,44.61,56.55,53,23.3,9.29,57,30.26,75.59,47.08l15.25,10.74a138,138,0,0,0,38.72,14.6l18.56,2c25.07-.33,64.2,6.15,87.85,14.56,16.07,5.7,39.85,6.5,59.55,2.74Z"/><path class="cls-6" d="M379.26,781a2.78,2.78,0,1,1,1.62,3.57,2.78,2.78,0,0,1-1.62-3.57Zm40.72-.16a2.76,2.76,0,1,1,1.62,3.56,2.77,2.77,0,0,1-1.62-3.56Zm30.51-.1a2.77,2.77,0,1,1,3.35,2,2.78,2.78,0,0,1-3.35-2Zm-40.4-5a2.77,2.77,0,1,1,3.34,2,2.77,2.77,0,0,1-3.34-2ZM577,751.59a4.41,4.41,0,1,1,3.71,5,4.42,4.42,0,0,1-3.71-5Zm-81.39-3.39a4.4,4.4,0,1,1,5.32,3.26,4.43,4.43,0,0,1-5.32-3.26Zm20.85-2.51a5.5,5.5,0,1,1,6.65,4.06,5.53,5.53,0,0,1-6.65-4.06Zm-181.28-3.45a4.41,4.41,0,1,1,2.6,5.67,4.43,4.43,0,0,1-2.6-5.67Zm-81.78-2.88a4.41,4.41,0,1,1,4.55,4.28,4.44,4.44,0,0,1-4.55-4.28Zm59.32-2.85A5.51,5.51,0,1,1,316,743.6a5.5,5.5,0,0,1-3.24-7.09Zm76-8a5.5,5.5,0,1,1,5.67,5.33,5.51,5.51,0,0,1-5.67-5.33Zm53.09-4a5.5,5.5,0,1,1,4.62,6.26,5.49,5.49,0,0,1-4.62-6.26Zm139.46-58.61a2.77,2.77,0,1,1,1.91,3.43,2.76,2.76,0,0,1-1.91-3.43ZM420.79,713.83a2.76,2.76,0,1,1,1.62,3.56,2.75,2.75,0,0,1-1.62-3.56Zm-170.9-2.78a2.77,2.77,0,1,1,3.19,2.28,2.78,2.78,0,0,1-3.19-2.28Zm167.27-1.9a2.76,2.76,0,1,1,3.34,2,2.76,2.76,0,0,1-3.34-2Zm123.12,45.47a4.41,4.41,0,1,1,5.08,3.63,4.42,4.42,0,0,1-5.08-3.63ZM267.46,693.89a4.41,4.41,0,1,1,3,5.46,4.41,4.41,0,0,1-3-5.46Zm400.05-9.64a2.76,2.76,0,1,1,4,3.8,2.76,2.76,0,1,1-4-3.8Zm-57.59,46.5a2.77,2.77,0,1,1,2.16,3.28,2.75,2.75,0,0,1-2.16-3.28Zm21.27-6.81a5.51,5.51,0,1,1,7.14,3.15,5.51,5.51,0,0,1-7.14-3.15Zm-135-52.88a4.42,4.42,0,1,1,5.33,3.24,4.43,4.43,0,0,1-5.33-3.24Zm-114.43-2.25a4.41,4.41,0,1,1,4.54,4.28,4.43,4.43,0,0,1-4.54-4.28Zm66,13a4.41,4.41,0,1,1,3.71,5,4.4,4.4,0,0,1-3.71-5Zm-104-16.26a4.41,4.41,0,1,1,2.59,5.68,4.41,4.41,0,0,1-2.59-5.68ZM524.3,654.2a5.51,5.51,0,1,1,6.32,4.56,5.53,5.53,0,0,1-6.32-4.56Zm23.16-1.29a4.4,4.4,0,1,1,8.69-1.41,4.4,4.4,0,1,1-8.69,1.41ZM727.23,654a2.77,2.77,0,1,1,.11,3.91,2.78,2.78,0,0,1-.11-3.91Zm-441-3.19a5.51,5.51,0,1,1,3.77,6.82,5.51,5.51,0,0,1-3.77-6.82Zm-20.74-3.38a4.42,4.42,0,1,1,3,5.45,4.44,4.44,0,0,1-3-5.45Zm400.92-7.32a2.77,2.77,0,1,1,3.19,2.28,2.77,2.77,0,0,1-3.19-2.28Zm-27.18,25.09a2.75,2.75,0,0,1,2.27-3.17,2.77,2.77,0,1,1-2.27,3.17ZM532.06,626a2.77,2.77,0,1,1,2.33,3.14,2.78,2.78,0,0,1-2.33-3.14ZM161.82,642a2.77,2.77,0,1,1,1.9,3.43,2.78,2.78,0,0,1-1.9-3.43Zm465.41,14.08a4.41,4.41,0,1,1,6.24-.17,4.43,4.43,0,0,1-6.24.17ZM316.08,619.85a2.78,2.78,0,1,1,2.87,2.68,2.77,2.77,0,0,1-2.87-2.68Zm393.38-2.46a2.77,2.77,0,1,1,4,3.8,2.73,2.73,0,0,1-3.9.11,2.77,2.77,0,0,1-.12-3.91Zm-487.67-4.28a2.77,2.77,0,1,1,1.89,3.45,2.77,2.77,0,0,1-1.89-3.45Zm191-3.18a5.51,5.51,0,1,1,5.66,5.35,5.5,5.5,0,0,1-5.66-5.35Zm164.86-1.09a4.42,4.42,0,1,1,5.07,3.66,4.44,4.44,0,0,1-5.07-3.66Zm-133-23.41a5.5,5.5,0,1,1,4.63,6.25,5.5,5.5,0,0,1-4.63-6.25ZM233.93,606.06a4.41,4.41,0,1,1,6.16.89,4.43,4.43,0,0,1-6.16-.89Zm279-6.64a5.51,5.51,0,1,1,6.32,4.54,5.5,5.5,0,0,1-6.32-4.54Zm142.58,1.67a4.42,4.42,0,1,1,6.23-.18,4.43,4.43,0,0,1-6.23.18Zm-322.3-8.61a5.51,5.51,0,1,1,3.77,6.81,5.52,5.52,0,0,1-3.77-6.81ZM139.42,612.67a2.77,2.77,0,0,1,4.44-3.31,2.8,2.8,0,0,1-.57,3.9,2.75,2.75,0,0,1-3.87-.59ZM294.9,577.39a4.42,4.42,0,1,1,3,5.47,4.43,4.43,0,0,1-3-5.47Zm-99.08,2.12a4.41,4.41,0,1,1,6.16.9,4.43,4.43,0,0,1-6.16-.9Zm396.06-5.91a2.77,2.77,0,1,1,3.17,2.29,2.79,2.79,0,0,1-3.17-2.29Zm128,9.88a2.77,2.77,0,1,1,1.9,3.41,2.74,2.74,0,0,1-1.9-3.41Zm16-23a5.51,5.51,0,1,1,7.7,1.13,5.49,5.49,0,0,1-7.7-1.13Zm-128-12.5a4.41,4.41,0,1,1,5.32,3.26,4.43,4.43,0,0,1-5.32-3.26Zm20.85-2.53a5.5,5.5,0,1,1,6.65,4.07,5.53,5.53,0,0,1-6.65-4.07ZM288,541.61a2.76,2.76,0,1,1,5.31,1.54,2.76,2.76,0,1,1-5.31-1.54ZM391,473.34a5.5,5.5,0,1,1,3.25,7.07,5.52,5.52,0,0,1-3.25-7.07Zm96.64,48.33a5.51,5.51,0,1,1,6.66,4.05,5.54,5.54,0,0,1-6.66-4.05Zm-240.41,8.48a4.39,4.39,0,0,1,5.67-2.59,4.42,4.42,0,1,1-5.67,2.59Zm-22.47-5.72a5.51,5.51,0,1,1,3.24,7.08,5.5,5.5,0,0,1-3.24-7.08Zm432.36,11.7a5.5,5.5,0,1,1,7.78-.18,5.48,5.48,0,0,1-7.78.18ZM312,515.11a4.41,4.41,0,1,1,2.59,5.67,4.42,4.42,0,0,1-2.59-5.67Zm358.36-1.65a2.76,2.76,0,1,1,3.17,2.28,2.73,2.73,0,0,1-3.17-2.28ZM646,504.24a2.77,2.77,0,1,1,3.36,2,2.78,2.78,0,0,1-3.36-2Zm-479.74-1a5.51,5.51,0,1,1,8.83-6.59,5.51,5.51,0,0,1-8.83,6.59Zm614.3-16.49a2.77,2.77,0,1,1,2.15,3.26,2.77,2.77,0,0,1-2.15-3.26Zm-588.34,3.33a2.77,2.77,0,1,1,1.9,3.41,2.74,2.74,0,0,1-1.9-3.41Zm166.88,50.45a5.5,5.5,0,1,1,3.77,6.81,5.51,5.51,0,0,1-3.77-6.81ZM217.64,483.43a2.76,2.76,0,1,1,1.62,3.56,2.78,2.78,0,0,1-1.62-3.56Zm89.21-4.06a4.41,4.41,0,1,1,3,5.47,4.42,4.42,0,0,1-3-5.47Zm309.67,3.1a2.79,2.79,0,0,1,2-3.34,2.77,2.77,0,1,1-2,3.34Zm67.14,4.62a5.51,5.51,0,1,1,7.79-.21,5.49,5.49,0,0,1-7.79.21Zm90.11-19.56a2.77,2.77,0,1,1,3.35,2,2.77,2.77,0,0,1-3.35-2ZM125.83,539a2.77,2.77,0,0,1,2.53-3,2.77,2.77,0,1,1-2.53,3Zm34.85-99.23a5.5,5.5,0,1,1,7.7,1.13,5.51,5.51,0,0,1-7.7-1.13Zm469.53,13.76a4.4,4.4,0,1,1,5.32,3.25,4.4,4.4,0,0,1-5.32-3.25Zm-341.27,4.64a2.78,2.78,0,1,1,3.56,1.64,2.77,2.77,0,0,1-3.56-1.64Zm302.31-10a2.77,2.77,0,1,1,5.2,1.92,2.77,2.77,0,0,1-5.2-1.92ZM135.11,518.26a2.78,2.78,0,1,1,1.63,3.56,2.77,2.77,0,0,1-1.63-3.56ZM330.24,443a5.51,5.51,0,1,1,7.71-1.13,5.51,5.51,0,0,1-7.71,1.13Zm219.94-1.13a5.5,5.5,0,1,1,7.71,1.13,5.51,5.51,0,0,1-7.71-1.13Zm159.89,11.8a2.76,2.76,0,1,1,3.33,2,2.75,2.75,0,0,1-3.33-2Zm-430.4-16.23a2.77,2.77,0,1,1,2.51,3,2.75,2.75,0,0,1-2.51-3Zm320.55-7.59a2.77,2.77,0,1,1,3,2.53,2.77,2.77,0,0,1-3-2.53ZM171.38,411.36a2.76,2.76,0,1,1,1.61,3.56,2.76,2.76,0,0,1-1.61-3.56Zm462.12-5.18a2.77,2.77,0,1,1,1.63,3.55,2.78,2.78,0,0,1-1.63-3.55ZM289.6,390.33a4.41,4.41,0,1,1,5.45,3,4.42,4.42,0,0,1-5.45-3Zm305.91-.7a4.4,4.4,0,1,1,3,5.45,4.4,4.4,0,0,1-3-5.45Zm-222,26.54a5.51,5.51,0,1,1,6.83,3.77,5.51,5.51,0,0,1-6.83-3.77Zm199.15-30.54a5.5,5.5,0,1,1,3.76,6.8,5.49,5.49,0,0,1-3.76-6.8Zm-355,4.32a2.76,2.76,0,1,1,3.54,1.62,2.76,2.76,0,0,1-3.54-1.62ZM665.29,388a2.77,2.77,0,1,1,5.19,1.93,2.77,2.77,0,0,1-5.19-1.93ZM318,343.73a4.41,4.41,0,1,1,5.68,2.61,4.42,4.42,0,0,1-5.68-2.61Zm249.85,11.46a4.41,4.41,0,1,1,2.59,5.68,4.39,4.39,0,0,1-2.59-5.68Zm-356,6.3a5.5,5.5,0,1,1,7.07,3.24,5.5,5.5,0,0,1-7.07-3.24Zm429.8-11.68a5.51,5.51,0,1,1,3.26,7.09,5.53,5.53,0,0,1-3.26-7.09Zm-407.34,6a4.41,4.41,0,1,1,5.66,2.6,4.42,4.42,0,0,1-5.66-2.6Zm165.5,14.41a5.51,5.51,0,1,1,7.08,3.25,5.49,5.49,0,0,1-7.08-3.25Zm95.1-32a5.51,5.51,0,1,1,3.24,7.07,5.5,5.5,0,0,1-3.24-7.07ZM136.72,310a2.76,2.76,0,1,1,3.56,1.63,2.77,2.77,0,0,1-3.56-1.63ZM752.3,331.41a2.76,2.76,0,1,1,1.62,3.57,2.77,2.77,0,0,1-1.62-3.57ZM366.72,370.5a2.77,2.77,0,1,1,3.43,1.91,2.77,2.77,0,0,1-3.43-1.91ZM169.86,327.32a4.42,4.42,0,1,1,6.18-.91,4.44,4.44,0,0,1-6.18.91Zm515.38-28.18a4.41,4.41,0,1,1,6.18.91,4.42,4.42,0,0,1-6.18-.91ZM294.91,296a4.42,4.42,0,1,1,5.45,3,4.43,4.43,0,0,1-5.45-3Zm174.37-3.41a5.5,5.5,0,1,1,5.67,5.35,5.5,5.5,0,0,1-5.67-5.35Zm-40.57,77.09a5.51,5.51,0,1,1,6.82,3.77,5.55,5.55,0,0,1-6.82-3.77Zm96.84-86.05a5.51,5.51,0,1,1,10.59,3,5.51,5.51,0,0,1-10.59-3ZM142,279.82a2.75,2.75,0,0,1,3.87-.58,2.78,2.78,0,0,1-3.32,4.46,2.77,2.77,0,0,1-.55-3.88Zm599.62,3.31a2.79,2.79,0,0,1,.56-3.89,2.77,2.77,0,1,1-.56,3.89Zm-355.73-.28a4.42,4.42,0,1,1,6.18-.9,4.43,4.43,0,0,1-6.18.9ZM647.11,272.6a4.41,4.41,0,1,1,6.18.9,4.43,4.43,0,0,1-6.18-.9Zm-234.37-9.16a5.51,5.51,0,1,1,5.34,5.67,5.49,5.49,0,0,1-5.34-5.67ZM372.9,269.6a2.77,2.77,0,1,1,3.43,1.9,2.77,2.77,0,0,1-3.43-1.9ZM661,258.72a2.77,2.77,0,1,1,1.89,3.43,2.79,2.79,0,0,1-1.89-3.43ZM316.1,253.53a2.77,2.77,0,1,1,2.67,2.85,2.76,2.76,0,0,1-2.67-2.85Zm231.61,5.92a2.77,2.77,0,1,1,2.86,2.69,2.76,2.76,0,0,1-2.86-2.69Zm-383.28-9a2.77,2.77,0,1,1,5.33-1.53,2.77,2.77,0,0,1-1.9,3.43,2.8,2.8,0,0,1-3.43-1.9ZM718.36,249a2.77,2.77,0,1,1,1.9,3.43,2.79,2.79,0,0,1-1.9-3.43Zm-216.81-8.69a4.41,4.41,0,1,1,2.6,5.68,4.41,4.41,0,0,1-2.6-5.68Zm-38.55.11a4.41,4.41,0,1,1,4.55,4.28,4.44,4.44,0,0,1-4.55-4.28ZM265.51,225.91a4.42,4.42,0,0,1,8.49-2.43,4.42,4.42,0,0,1-8.49,2.43Zm348.62-2.43a4.41,4.41,0,1,1,3,5.45,4.39,4.39,0,0,1-3-5.45Zm-327.88-.95a5.51,5.51,0,1,1,6.81,3.77,5.52,5.52,0,0,1-6.81-3.77Zm305-3.05a5.51,5.51,0,1,1,3.77,6.82,5.5,5.5,0,0,1-3.77-6.82ZM394.91,199.11a4.41,4.41,0,1,1,5.67,2.6,4.42,4.42,0,0,1-5.67-2.6Zm38-3.25a4.41,4.41,0,1,1,4.27,4.54,4.41,4.41,0,0,1-4.27-4.54ZM267.46,179.49a4.41,4.41,0,1,1,5.47,3,4.4,4.4,0,0,1-5.47-3Zm344.72-2.44a4.42,4.42,0,0,1,8.49,2.44,4.42,4.42,0,0,1-8.49-2.44ZM249.9,162.33a2.77,2.77,0,1,1,2.28,3.18,2.77,2.77,0,0,1-2.28-3.18Zm382.85.9a2.77,2.77,0,1,1,3.19,2.28,2.78,2.78,0,0,1-3.19-2.28Zm-239.83,7.6a2.77,2.77,0,1,1,3.55,1.63,2.77,2.77,0,0,1-3.55-1.63Zm69.22-13.22a2.77,2.77,0,0,1,5.2,1.93,2.75,2.75,0,0,1-3.56,1.63,2.78,2.78,0,0,1-1.64-3.56Zm-73.44-12.7a5.51,5.51,0,1,1,5.35,5.68,5.51,5.51,0,0,1-5.35-5.68Zm99.71.34a5.51,5.51,0,1,1,5.68,5.34,5.52,5.52,0,0,1-5.68-5.34Zm-175.68-8.39a5.51,5.51,0,1,1,7.09,3.23,5.52,5.52,0,0,1-7.09-3.23ZM565.07,133a5.51,5.51,0,1,1,3.25,7.08,5.51,5.51,0,0,1-3.25-7.08ZM335.2,131.14a4.41,4.41,0,1,1,5.68,2.6,4.42,4.42,0,0,1-5.68-2.6Zm209.47-3.08a4.4,4.4,0,1,1,2.57,5.68,4.4,4.4,0,0,1-2.57-5.68ZM420,92.59a2.77,2.77,0,1,1,3.56,1.63A2.77,2.77,0,0,1,420,92.59Zm43-1.94a2.77,2.77,0,1,1,1.63,3.57A2.76,2.76,0,0,1,463,90.65Zm-83.69,1.78a2.77,2.77,0,1,1,3.55,1.63,2.78,2.78,0,0,1-3.55-1.63Zm124.39-1.94a2.78,2.78,0,1,1,1.64,3.57,2.8,2.8,0,0,1-1.64-3.57Z"/><path class="cls-7" d="M227,299.08a70.94,70.94,0,0,1-15.45-51.94l12.63,1.35h-.06a58.49,58.49,0,0,0,116.22,12.35l12.83,1.36h0A71.21,71.21,0,0,1,227,299.08Z"/><path class="cls-8" d="M321.05,302.22a61.58,61.58,0,0,1-100-54.06l122.44,13h0a61.47,61.47,0,0,1-22.49,41.05Z"/><path class="cls-9" d="M330.9,273.85a52.33,52.33,0,0,1-99.82-9.05c-.8-4.36,1.66-7,5.5-6.58l19.79,2.1a5.33,5.33,0,0,1,4.61,3.34,23.34,23.34,0,0,0,36,8.78,24,24,0,0,0,3.53-3.52c1.94-2.4,4.05-3.33,7.51-3.1l19.63,2.08c3.79.4,4.47,3,3.23,6Z"/><path class="cls-10" d="M311.72,285.64a6.1,6.1,0,0,1-5-4.85,3.12,3.12,0,0,1,3.74-3.72,6.09,6.09,0,0,1,5,4.85,3.13,3.13,0,0,1-3.74,3.72Zm-19,10.61a3.15,3.15,0,0,1-5.25.68,6.15,6.15,0,0,1-1-6.91,3.13,3.13,0,0,1,5.23-.68,6.13,6.13,0,0,1,1,6.91Zm-26.7-1.85a3.14,3.14,0,0,1-4.65-2.52,6.14,6.14,0,0,1,3.21-6.2,3.14,3.14,0,0,1,4.64,2.52,6.1,6.1,0,0,1-3.2,6.2Zm-14.35-20.35a6.12,6.12,0,0,1-6.26,3.1,3.16,3.16,0,0,1-2.26-4.79,6.15,6.15,0,0,1,6.27-3.09,3.14,3.14,0,0,1,2.25,4.78Z"/><path class="cls-11" d="M398.52,804.17l-19.93-7.42c-21.9-7-48.27-12.44-66.4-13.26l-20.74-3.83a132,132,0,0,1-41.17-21.61l-15.1-14.68a3.54,3.54,0,0,1-.5-.53c-15.88-20-46-46.25-66.83-58.45a2.51,2.51,0,0,1-.6-.46l-16-12.58a131.43,131.43,0,0,1-26.43-38.29l-6.75-20.71c-3.58-18.79-12.59-44.44-22.29-64.75l-9.74-18.07c-13.86-22.15-18.52-60.83-10.6-86.93l5-20.69a325.16,325.16,0,0,0,5.38-47l-.24-20.53c-1.48-19.55,5.92-44.92,17.8-64.57l13-17.15.17-.17c17.9-18.17,40.35-51.22,49.94-73.46l10.93-18a131.74,131.74,0,0,1,34.81-30.87l19.73-9.2c18.21-5.81,42.59-17.87,61.56-29.93l16.75-11.87c20.32-16.44,58.14-25.72,85-21l21.12,2.43a325.66,325.66,0,0,0,47.29-.31L484,77.54c25.62-5.11,63.42,4.25,85,20.91l17.58,12c19.58,12,43.9,23.64,61.3,28.77l19.21,8.69a131.47,131.47,0,0,1,34.82,30.85l11.51,18.48c8,17.4,22.86,40.15,37.12,57.54L764.34,270c18.75,18.19,32.54,54.63,31.08,81.88l.13,21.27a328,328,0,0,0,6,46.93L806.7,440c8.17,24.81,3.45,63.48-10.49,86.91l-9.77,18.91c-9.6,20.91-18.16,46.45-21.15,64.36L759,630.26c-9.14,20.55-26,41.25-43.37,52-21.73,13.34-51.43,40-66,59.32l-.19.21-14.75,14.7a131.67,131.67,0,0,1-41.19,21.62l-21.35,4.22c-19.09,1.29-45.62,7.15-66.93,14.33l-19.11,7.51c-23.65,11.09-62.6,11-87.53,0Zm84.11-7.36c17.14-8,43.74-15.7,67.1-19.79l21.8-2.77c25-1.7,57.31-18.71,71.61-37.58l.19-.21,13.75-15.9a333.21,333.21,0,0,1,36.28-32.62l18-12.59c21.37-13.13,42.06-43.21,46-66.57L762.18,588c6.4-22.36,17-48.22,27.1-65.28l8-18.48a123.84,123.84,0,0,0,5.18-42.8l-3.39-19c-7.88-24-13.09-64.61-11.68-91l-1.51-20.06A124.05,124.05,0,0,0,770.56,291l-11.83-15.25c-13.58-13.18-30.21-35.34-42.3-55.76l-10.32-19.42c-10.45-22.78-37.8-47-60.5-53.65l-20-7.31c-21.42-9-45.81-22.67-61.51-34.79L546.71,94.7a123.63,123.63,0,0,0-41.84-10.33L485.6,85.45c-24.76,4.93-65.69,5.21-91.74.63l-20.1-.92A124.52,124.52,0,0,0,331.91,95.5l-16.55,9.91c-14.72,11.91-38.72,25.73-60.43,35.3l-20.51,7.91c-23.87,7.63-51.15,31.88-60.54,53.62l-9.67,19a331.84,331.84,0,0,1-27.42,40.35L122.46,278l-.17.17c-13.2,13.39-23.75,36-27.44,56.37L93.6,353.76c1.92,25.18-2.75,65.86-10.43,91.19L79.84,464.8A123.92,123.92,0,0,0,85,507.61l7.84,17.64c10.05,16,20.87,41.56,27.74,64.27L126,610.85c4.69,24.62,25.47,54.65,45.91,66.59l17.67,11.89a333.67,333.67,0,0,1,36.73,32.1L241,737.82c15.6,19.63,47.94,36.56,71.58,37.62l21.17,2.32c23,3.65,49.9,11,68,19,17.2,7.6,42,9.47,62.41,5.69l18.45-5.67Z"/><path class="cls-7" d="M550.1,622.68a70.32,70.32,0,0,1-28.27-45.63l12.43-2-.07,0a58,58,0,0,0,114.33-18.44l12.61-2h0a70.58,70.58,0,0,1-111,68.1Z"/><path class="cls-8" d="M640.88,601.19a61,61,0,0,1-109.62-25.65L651.68,556.1h0a60.86,60.86,0,0,1-10.82,45.09Z"/><path class="cls-9" d="M642.92,571.5a51.84,51.84,0,0,1-97.78,17.34c-1.89-4-.23-7.12,3.56-7.73L568.15,578a5.23,5.23,0,0,1,5.28,2,22.69,22.69,0,0,0,4.46,4.22A23.11,23.11,0,0,0,610.15,579a22.56,22.56,0,0,0,2.44-4.27c1.25-2.81,3-4.24,6.39-4.93l19.31-3.13c3.72-.59,5.05,1.76,4.63,4.85Z"/><path class="cls-10" d="M627.65,587.78a6.07,6.07,0,0,1-6.06-3.35,3.09,3.09,0,0,1,2.61-4.52,6,6,0,0,1,6.06,3.33,3.11,3.11,0,0,1-2.61,4.54Zm-15.36,15.07a3.11,3.11,0,0,1-4.84,2,6.07,6.07,0,0,1-2.78-6.33,3.11,3.11,0,0,1,4.83-2,6.07,6.07,0,0,1,2.79,6.34Zm-26,5.17a3.1,3.1,0,0,1-5.09-1.19,6.08,6.08,0,0,1,1.46-6.77,3.12,3.12,0,0,1,5.1,1.2,6.09,6.09,0,0,1-1.47,6.76Zm-19-15.72a6.08,6.08,0,0,1-5.17,4.6,3.11,3.11,0,0,1-3.4-4,6.06,6.06,0,0,1,5.17-4.59,3.11,3.11,0,0,1,3.4,4Z"/><path class="cls-7" d="M637.18,310a70,70,0,0,1-33.56,41.59l-6-11,0,0a57.71,57.71,0,0,0-54.9-101.41L536.72,228v0a70.25,70.25,0,0,1,100.46,82Z"/><path class="cls-8" d="M587.15,231.7a60.77,60.77,0,0,1,11.94,111.5L541.25,236.38v0a60.56,60.56,0,0,1,45.89-4.65Z"/><path class="cls-9" d="M558.61,239.56A51.65,51.65,0,0,1,607,325.78c-3.1,3.07-6.61,2.54-8.42-.79l-9.35-17.28a5.26,5.26,0,0,1,.14-5.62,22.78,22.78,0,0,0,2.48-5.57A23,23,0,0,0,571.58,267c-3.05-.24-5-1.43-6.72-4.38l-9.29-17.13c-1.78-3.31,0-5.33,3-5.94Z"/><path class="cls-10" d="M578.9,248.55a6.08,6.08,0,0,1-1.14,6.81,3.1,3.1,0,0,1-5.12-1,6.08,6.08,0,0,1,1.15-6.81,3.09,3.09,0,0,1,5.11,1ZM598.11,258a3.11,3.11,0,0,1,3.48,3.89,6.06,6.06,0,0,1-5,4.7,3.1,3.1,0,0,1-3.49-3.88,6.07,6.07,0,0,1,5-4.71Zm13.41,22.75a3.1,3.1,0,0,1,.56,5.19,6,6,0,0,1-6.84.84,3.09,3.09,0,0,1-.54-5.18,6,6,0,0,1,6.82-.85Zm-8.51,23a6.11,6.11,0,0,1,6,3.37,3.11,3.11,0,0,1-2.63,4.51,6.06,6.06,0,0,1-6-3.36,3.12,3.12,0,0,1,2.63-4.52Z"/><path class="cls-7" d="M231.58,642.29a69.21,69.21,0,0,1,84.7-95.66l-3.77,10.83,0-.06A60,60,0,0,0,269.72,560c-29.23,13.41-41,47.86-26.22,76.88a61.58,61.58,0,0,0,31.36,28.87l-4.05,11.65v0a69.08,69.08,0,0,1-39.23-35.11Z"/><path class="cls-8" d="M240,638.21a59.84,59.84,0,0,1,73.18-82.74l-39.32,113v0A59.71,59.71,0,0,1,240,638.21Z"/><path class="cls-9" d="M264.69,653.78a50.87,50.87,0,0,1,30.57-92.51c4.29.22,6.24,3.12,5,6.66l-6.35,18.28a5.2,5.2,0,0,1-4.18,3.63,22.1,22.1,0,0,0-5.71,1.88A22.67,22.67,0,0,0,273.51,622a21.54,21.54,0,0,0,2.54,4.11c1.84,2.36,2.26,4.55,1.27,7.79L271,652c-1.21,3.49-3.86,3.55-6.33,1.74Z"/><path class="cls-10" d="M257.75,633a6,6,0,0,1,5.71-3.67,3,3,0,0,1,2.7,4.36,5.94,5.94,0,0,1-5.7,3.68,3.07,3.07,0,0,1-2.71-4.37Zm-5.84-20.28a3.06,3.06,0,0,1,.52-5.12,5.93,5.93,0,0,1,6.75.56,3.05,3.05,0,0,1-.5,5.11,6,6,0,0,1-6.77-.55Zm7.63-24.86A3.06,3.06,0,0,1,263,584a5.93,5.93,0,0,1,5.15,4.4,3.05,3.05,0,0,1-3.4,3.85,6,6,0,0,1-5.17-4.4ZM282,578.77a6,6,0,0,1-1.57-6.6,3.05,3.05,0,0,1,5-1.08A5.94,5.94,0,0,1,287,577.7a3,3,0,0,1-5,1.07Z"/><path class="cls-12" d="M443.37,432.8c15.58,33.75-23.16,45.07-70.86,32.56,21.94-40.39,55.7-65.44,70.86-32.56Z"/><path class="cls-12" d="M437.19,429.5c22.8,27.36,48.07-1.12,56.41-47.21-43.55,2-78.61,20.55-56.41,47.21Z"/><path class="cls-13" d="M437.19,430.64c-22.78,33,11.73,49.95,60.38,43.24-11.64-44.89-38.21-75.41-60.38-43.24Z"/><path class="cls-14" d="M438.46,431.94c-17,25.21-44.36.94-58.75-39.63,40.3,0,75.28,15,58.75,39.63Z"/><path class="cls-15" d="M471.64,663a60.1,60.1,0,1,1-63.11-57,60.16,60.16,0,0,1,63.11,57Z"/><path class="cls-16" d="M463.44,663.41A51.89,51.89,0,1,1,409,614.21a51.94,51.94,0,0,1,54.48,49.2Z"/><path class="cls-17" d="M408.54,692.84c.08-2.28,1.54-4.05,3.23-3.94s3,2.08,2.93,4.38-1.54,4.07-3.24,4-3-2.09-2.92-4.39ZM389.48,688c-1.12-1.27-.65-3.59,1-5.15s4-1.8,5.08-.51.66,3.61-1,5.16-4,1.79-5.08.5Zm38.88-.8c-1.56-1.68-1.79-4-.51-5.08s3.61-.66,5.17,1,1.78,4,.51,5.08-3.61.66-5.17-1Zm-47.89-21.27c.12-1.7,2.08-3,4.38-2.92s4.06,1.54,3.95,3.23-2.08,3-4.38,2.93-4.07-1.54-3.95-3.24Zm54,0c.13-1.71,2.09-3,4.39-2.92s4.06,1.54,3.94,3.23-2.08,3-4.37,2.93-4.07-1.55-4-3.24Zm-6.79-16.1c-1.12-1.28-.66-3.6,1-5.16s3.95-1.78,5.08-.5.65,3.59-1,5.16-4,1.79-5.08.5ZM390.2,649c-1.56-1.69-1.78-4-.5-5.08s3.6-.66,5.16,1,1.79,4,.5,5.1-3.6.65-5.16-1Zm18.33-10.15c.09-2.28,1.55-4.06,3.24-3.94s3,2.07,2.92,4.37-1.53,4.07-3.23,4-3-2.09-2.93-4.39Z"/><path class="cls-15" d="M521.63,198a60.11,60.11,0,1,1-63.11-57,60.15,60.15,0,0,1,63.11,57Z"/><path class="cls-16" d="M513.43,198.43a51.89,51.89,0,1,1-54.49-49.18,51.95,51.95,0,0,1,54.49,49.18Z"/><path class="cls-17" d="M458.52,227.88c.1-2.3,1.55-4.06,3.25-3.95s3,2.08,2.92,4.37-1.54,4.08-3.24,4-3-2.08-2.93-4.38Zm-19-4.87c-1.12-1.28-.65-3.59,1-5.15s4-1.79,5.08-.51.65,3.61-1,5.17-4,1.78-5.08.49Zm38.88-.8c-1.56-1.69-1.78-4-.5-5.09s3.6-.65,5.16,1,1.79,4,.5,5.09-3.6.66-5.16-1Zm-47.89-21.27c.12-1.71,2.08-3,4.38-2.93s4.06,1.55,3.94,3.25-2.08,3-4.37,2.92-4.07-1.54-4-3.24Zm54,0c.11-1.7,2.08-3,4.38-2.92s4.05,1.55,3.94,3.25-2.08,3-4.37,2.91-4.06-1.54-3.95-3.24Zm-6.8-16.09c-1.12-1.29-.66-3.61,1-5.17s4-1.78,5.08-.5.66,3.6-1,5.17-4,1.78-5.08.5ZM440.19,184c-1.56-1.68-1.79-4-.5-5.08s3.6-.67,5.16,1,1.79,4,.5,5.09-3.6.65-5.16-1Zm18.33-10.15c.1-2.29,1.55-4.06,3.25-3.94s3,2.07,2.91,4.37-1.54,4.07-3.24,3.95-3-2.08-2.92-4.38Z"/><path class="cls-15" d="M667.24,349.4a60.13,60.13,0,1,1-57,63.14,60.14,60.14,0,0,1,57-63.14Z"/><path class="cls-16" d="M667.65,357.61a51.92,51.92,0,1,1-49.16,54.51,51.91,51.91,0,0,1,49.16-54.51Z"/><path class="cls-17" d="M667.24,436.24c.08-2.29,1.54-4.06,3.23-3.95s3,2.08,2.92,4.38-1.54,4.06-3.24,3.95-3-2.07-2.91-4.38Zm19.82-5.67c-1.56-1.68-1.78-3.95-.5-5.09s3.6-.65,5.16,1,1.79,4,.5,5.09-3.6.66-5.16-1Zm-38.88.82c-1.12-1.29-.66-3.61,1-5.17s4-1.78,5.08-.5.66,3.61-1,5.16-4,1.78-5.08.51Zm-9-22.09c.12-1.71,2.08-3,4.37-2.92s4.07,1.54,4,3.24-2.09,3-4.39,2.92-4.06-1.54-3.94-3.24Zm54,0c.11-1.71,2.07-3,4.37-2.93s4.06,1.55,4,3.25-2.08,3-4.38,2.91S693,411,693.14,409.3Zm-6.81-16.09c-1.12-1.29-.65-3.61,1-5.17s4-1.78,5.09-.5.64,3.6-1,5.16-4,1.8-5.09.51Zm-37.43-.81c-1.57-1.69-1.79-4-.5-5.08s3.6-.66,5.16,1,1.79,4,.5,5.08-3.59.66-5.16-1Zm18.34-10.15c.07-2.3,1.54-4.07,3.23-3.94s3,2.07,2.92,4.37-1.54,4.06-3.24,3.95-3-2.08-2.91-4.38Z"/><path class="cls-15" d="M179.84,435.85A60.13,60.13,0,1,1,122.9,499a60.15,60.15,0,0,1,56.94-63.14Z"/><path class="cls-16" d="M180.27,444.06a51.92,51.92,0,1,1-49.17,54.51,51.92,51.92,0,0,1,49.17-54.51Z"/><path class="cls-17" d="M179.85,522.69c.08-2.3,1.53-4.06,3.23-4s3,2.08,2.92,4.38-1.54,4.07-3.23,4-3-2.08-2.92-4.38ZM199.67,517c-1.57-1.69-1.78-4-.5-5.09s3.6-.65,5.16,1,1.78,4,.51,5.08-3.61.66-5.17-1Zm-38.9.8c-1.1-1.27-.64-3.59,1-5.15s4-1.8,5.09-.51.65,3.6-1,5.17-4,1.78-5.1.49Zm-9-22.08c.11-1.7,2.08-3,4.38-2.92s4.06,1.54,3.94,3.24-2.08,3-4.38,2.91-4.07-1.54-3.94-3.23Zm54,0c.12-1.71,2.09-3,4.38-2.92s4.06,1.53,3.95,3.24-2.09,3-4.38,2.91-4.06-1.54-3.95-3.23Zm-6.8-16.1c-1.11-1.28-.65-3.59,1-5.16s4-1.78,5.08-.51.65,3.61-1,5.18-4,1.78-5.09.49Zm-37.43-.79c-1.56-1.69-1.79-4-.5-5.1s3.59-.65,5.16,1,1.78,4,.5,5.09-3.59.66-5.16-1Zm18.33-10.16c.08-2.3,1.54-4.07,3.23-3.95s3,2.08,2.93,4.38-1.54,4.06-3.23,3.95-3-2.08-2.93-4.38Z"/><path class="cls-18" d="M451.41,584.92c3.8-4.44,8.94,3.23,11.78,3.48,1.77.13,2-2.32,4.46-1.56,4.49,1.38,5.51,8.46,8.54,11.23.88.79,3.56,1.21,3.26-1.45-.24-2-.95-6.11,1.21-6.46,4.88-.77,4.81,5.65,6.61,10.25,1,2.55,3.74,3.1,3.84,1.14.07-1.42.23-4,1.69-4,6.16,0,3.59,10.62,7.23,17,1.72,3,4.22,3.84,5.71,2.22s1.52-7.77,4.25-7.24c6.71,1.31,4,11.25,4.52,16.09.54,4.54,2.19,4.91,4.41,6.07,2.58,1.33,6.63-1.92,8.7.11,3.32,3.29.82,8.59,0,13.73a9.55,9.55,0,0,1-2.06,3.64c-27.31-18.4-52.69-39-74.15-64.2Z"/><path class="cls-19" d="M522.34,651.31c-4.83,1.62-9.54,4.67-13.19,2-2.33-1.73.27-6.23-1.43-8.58-1.48-2-2.09-3.61-6.68-3.45-4.86.15-14.27,4.37-16.56-2.07-.93-2.62,5.18-3.64,6.51-5.29s.22-4.06-3-5.32c-6.85-2.65-17,1.5-17.89-4.59-.22-1.48,2.36-2,3.77-2.3,1.89-.37.95-3-1.72-3.61C467.3,617,461,618,461,613c0-2.17,4.17-2.1,6.22-2.16,2.66-.1,1.85-2.69.94-3.43-3.2-2.6-10.34-2.54-12.38-6.77-1.11-2.3,1.26-2.94.86-4.64-.65-2.79-9-6.7-5.21-11.15l74.37,64h0a9.19,9.19,0,0,1-3.45,2.46Z"/><path class="cls-20" d="M351.47,123.73c-.41-6.22,1.31-13.31,8.54-16.65,5.2-2.43,12.27,1,16.5,6.45-9.52-.86-18,4.22-25,10.2Z"/><path class="cls-21" d="M375.46,112.54c14.26,8.54,18.54,31.71,14.45,52.36-2.66,13.53-12.75,32.33-27.74,43-12.67,9-16.23,4.08-10-7.19,9-16.22,8.45-41.29-1.22-65.46-5.89-14.73,11.2-30.64,24.48-22.68Z"/><path class="cls-22" d="M369.09,127.1c5.73,5.86,8.19,19.48,7.18,33.26A72,72,0,0,1,360.33,200c-3.56,3.7-7.08,2.52-2.76-5.85,7.15-16.24,6.94-35.76-2.13-58.71-2.83-7.14,8.75-13.37,13.65-8.35Z"/><path class="cls-20" d="M501.82,689.2c1.23-6.13,4.74-12.51,12.59-13.84,5.66-1,11.58,4.21,14.24,10.57-9-3.33-18.44-.64-26.83,3.27Z"/><path class="cls-21" d="M527.91,684.7c11.52,12,9.57,35.45.21,54.31-6.12,12.36-20.77,27.85-38,34.18-14.59,5.37-16.73-.3-7.74-9.53,12.95-13.29,19-37.65,16-63.5-1.82-15.77,18.83-26.63,29.58-15.46Z"/><path class="cls-22" d="M517.94,697.07c4,7.16,2.8,20.94-1.79,34a72,72,0,0,1-25.77,34.08c-4.39,2.64-7.5.58-1.14-6.36,11.17-13.8,16.09-32.7,13.33-57.22-.85-7.64,11.95-10.61,15.37-4.48Z"/><path class="cls-20" d="M673.54,539c-2.6-5.66-3.48-12.91,2.1-18.6,4-4.09,11.84-3.36,17.73.22-9.21,2.55-15.34,10.29-19.83,18.38Z"/><path class="cls-21" d="M692,520.08c16.36,2.94,28.54,23.11,32,43.89,2.28,13.6-.52,34.74-10.79,50-8.67,12.91-13.73,9.55-11.85-3.19,2.71-18.37-6.69-41.63-24.26-60.82-10.71-11.71-.34-32.61,14.89-29.87Z"/><path class="cls-22" d="M691.21,536c7.43,3.46,14.54,15.33,18.46,28.58a72,72,0,0,1-.92,42.73c-2,4.72-5.73,4.87-4.65-4.49,1-17.72-6.13-35.92-22.71-54.18-5.18-5.69,3.46-15.6,9.82-12.64Z"/><path class="cls-20" d="M677,257.54c.73-6.19,3.73-12.84,11.45-14.8,5.55-1.42,11.87,3.27,15,9.4-9.21-2.6-18.46.83-26.49,5.4Z"/><path class="cls-21" d="M702.62,251c12.44,11,12.36,34.58,4.55,54.13-5.12,12.8-18.5,29.41-35.19,37.11-14.11,6.51-16.7,1-8.47-8.9,11.86-14.28,15.9-39,10.86-64.56C671.31,253.17,691,240.7,702.62,251Z"/><path class="cls-22" d="M693.67,264.1c4.55,6.82,4.46,20.65.93,34a72,72,0,0,1-23,36c-4.18,3-7.44,1.19-1.64-6.24,10-14.64,13.42-33.88,8.73-58.1-1.47-7.55,11.06-11.53,14.95-5.7Z"/><path class="cls-20" d="M218.27,335c6,1.48,12.29,5.27,13.28,13.18.72,5.69-4.71,11.38-11.18,13.78,3.71-8.82,1.45-18.41-2.1-27Z"/><path class="cls-21" d="M221.65,361.21c-12.46,11-35.83,8-54.26-2.12-12.08-6.65-26.91-22-32.5-39.49-4.72-14.8,1-16.71,9.87-7.32,12.72,13.52,36.77,20.58,62.71,18.7,15.84-1.12,25.78,20,14.18,30.23Z"/><path class="cls-22" d="M209.72,350.72c-7.33,3.67-21,1.9-33.86-3.26a72,72,0,0,1-32.92-27.22c-2.44-4.52-.26-7.53,6.4-.86,13.3,11.74,32,17.47,56.56,15.79,7.67-.53,10.09,12.4,3.82,15.55Z"/><path class="cls-23" d="M297.76,704.88c-5.25-10.52-1.57-24.32,8.21-30.82s22-3.24,27.23,7.26,1.56,24.32-8.21,30.82-22,3.25-27.23-7.26Zm21.75-2.43A13.59,13.59,0,0,0,323.63,687c-2.23-5.17-7.68-6.62-12.18-3.26a13.58,13.58,0,0,0-4.11,15.46c2.22,5.17,7.67,6.62,12.17,3.25Zm320-43.52c-7.82-8.77-6.33-21.31,3.33-28s23.84-5,31.65,3.78,6.32,21.31-3.33,28-23.84,5-31.65-3.78ZM664.14,654c4.79-2.94,5.47-8.55,1.5-12.53a13.56,13.56,0,0,0-15.88-1.89c-4.79,2.93-5.46,8.54-1.5,12.52a13.62,13.62,0,0,0,15.88,1.9ZM154.38,631.28c-4.84-10.71.34-22.23,11.56-25.73s24.23,2.38,29.07,13.08-.34,22.24-11.54,25.71-24.25-2.37-29.09-13.06Zm25,2.71c5.44-1.37,7.76-6.52,5.17-11.51A13.58,13.58,0,0,0,170,615.92c-5.45,1.37-7.77,6.51-5.17,11.5A13.56,13.56,0,0,0,179.41,634Zm257-72.23c-8-8.63-6.67-21.2,2.87-28S463.07,528.34,471,537s6.67,21.2-2.88,28-23.75,5.37-31.71-3.27Zm24.6-5.3c4.75-3,5.33-8.63,1.28-12.54a13.56,13.56,0,0,0-15.9-1.64c-4.74,3-5.32,8.63-1.29,12.55A13.58,13.58,0,0,0,461,556.46Zm-134.54-44c-8.93-7.61-11-21.77-4.5-31.58s18.95-11.6,27.89-4,11,21.75,4.51,31.57-19,11.6-27.9,4Zm19.07-10.75a13.61,13.61,0,0,0-2.27-15.85c-4.06-3.87-9.65-3.08-12.47,1.79a13.6,13.6,0,0,0,2.26,15.84c4.06,3.88,9.66,3.08,12.48-1.78ZM590,486.54C581,479.07,578.71,465,585,455s18.77-11.91,27.83-4.44,11.32,21.57,5,31.5S599.08,494,590,486.54Zm18.89-11.06a13.58,13.58,0,0,0-2.52-15.8c-4.13-3.82-9.7-2.92-12.44,2a13.57,13.57,0,0,0,2.51,15.8c4.13,3.81,9.7,2.93,12.45-2ZM238.25,427.93c-8.81-7.78-8.81-20.42,0-28.19s23.07-7.78,31.88,0,8.79,20.41,0,28.19-23.09,7.78-31.88,0Zm23.93-7.8c4.41-3.47,4.41-9.13,0-12.6a13.57,13.57,0,0,0-16,0c-4.4,3.47-4.4,9.13,0,12.6a13.53,13.53,0,0,0,16,0Zm88.88-52.68c-6.26-9.94-4-24,5.13-31.48s21.56-5.39,27.81,4.55,3.95,24-5.14,31.48-21.55,5.4-27.8-4.55Zm21.39-4.55A13.55,13.55,0,0,0,375,347.11c-2.72-4.92-8.29-5.82-12.43-2A13.58,13.58,0,0,0,360,360.87c2.73,4.91,8.3,5.82,12.43,2Zm353.26-8.43c-11.36-3-17-14.3-12.64-25.2s17.14-17.3,28.5-14.3,17,14.31,12.63,25.21-17.15,17.31-28.49,14.29Zm17.9-17.7c2.38-5.09-.14-10.14-5.65-11.26a13.54,13.54,0,0,0-14.3,7.17c-2.38,5.08.15,10.13,5.65,11.26a13.56,13.56,0,0,0,14.3-7.17ZM514.45,297.1c-9.12-7.41-11.46-21.51-5.24-31.47s18.68-12,27.79-4.62,11.46,21.49,5.25,31.46-18.69,12-27.8,4.63Zm18.8-11.2a13.56,13.56,0,0,0-2.63-15.78c-4.15-3.79-9.72-2.86-12.42,2.07A13.58,13.58,0,0,0,520.82,288c4.15,3.78,9.72,2.84,12.43-2.08Zm-162.67-4.08c-8-8.58-6.81-21.17,2.68-28.06s23.72-5.54,31.74,3,6.81,21.16-2.69,28.07-23.72,5.53-31.73-3.05Zm24.57-5.48c4.72-3,5.27-8.66,1.2-12.54a13.55,13.55,0,0,0-15.92-1.53c-4.73,3-5.26,8.67-1.2,12.55a13.57,13.57,0,0,0,15.92,1.52Zm200.37-91.79c-9.39-7.06-12.29-21.05-6.46-31.23s18.19-12.77,27.6-5.73,12.29,21,6.46,31.23-18.19,12.76-27.6,5.73Zm18.36-11.93A13.58,13.58,0,0,0,610.64,157c-4.3-3.61-9.83-2.47-12.35,2.56a13.6,13.6,0,0,0,3.25,15.67c4.3,3.61,9.84,2.47,12.34-2.56Z"/><path class="cls-18" d="M333.45,559.66c5.84.38,2.78,9.1,4.29,11.53,1,1.48,3.06.22,3.93,2.62,1.59,4.42-3.44,9.49-3.84,13.57-.1,1.19,1.19,3.59,3.12,1.74,1.48-1.41,4.32-4.44,5.89-2.92,3.55,3.45-1.62,7.26-4.21,11.47-1.43,2.33-.21,4.84,1.39,3.74,1.19-.79,3.38-2.26,4.26-1.09,3.72,4.9-6.33,9.25-9.24,16-1.38,3.2-.53,5.69,1.66,5.9s7.12-3.44,8.35-1c3,6.16-6.62,9.93-10.13,13.28-3.32,3.18-2.61,4.71-2.22,7.18.49,2.86,5.53,4.15,5.13,7-.62,4.63-6.36,5.82-10.94,8.25a9.36,9.36,0,0,1-4.16.53c-1.72-32.88-.49-65.58,6.72-97.88Z"/><path class="cls-19" d="M323.05,656.3c-4.19-2.89-9.47-4.83-9.49-9.38,0-2.91,5.15-3.53,6-6.3.74-2.41,1.64-3.84-1.26-7.43-3-3.79-12.06-8.77-8.3-14.47,1.54-2.32,6,2,8.14,2s3.37-2.27,2.42-5.63c-2-7.06-11.4-12.68-7.08-17.06,1-1.06,3,.7,4.09,1.64,1.45,1.29,3-1.05,1.86-3.55-2-4.51-6.68-8.95-2.69-11.91,1.75-1.29,4.2,2.07,5.47,3.67,1.67,2.07,3.26-.13,3.32-1.32.15-4.11-4.2-9.78-2-14,1.18-2.26,3.1-.74,4.23-2.09,1.84-2.19-.07-11.25,5.78-10.86l-6.4,97.91h0a9.39,9.39,0,0,1-4-1.28Z"/><path class="cls-18" d="M246.36,446c4.81-3.34,7.84,5.4,10.52,6.35,1.67.57,2.54-1.71,4.71-.37,4,2.47,3.18,9.57,5.42,13,.66,1,3.16,2.06,3.52-.58.28-2,.63-6.15,2.81-5.95,4.92.5,3.23,6.7,3.81,11.61.34,2.72,2.84,3.93,3.41,2.07.44-1.36,1.26-3.87,2.67-3.5,6,1.53.78,11.19,2.69,18.29.91,3.36,3.11,4.77,5,3.58s3.45-7.13,5.95-5.93c6.16,3,1,11.89.3,16.71-.62,4.55.89,5.31,2.72,7,2.17,1.94,6.92-.18,8.39,2.31,2.39,4-1.36,8.52-3.46,13.27a9.51,9.51,0,0,1-2.92,3c-21.75-24.72-41.11-51.1-55.5-80.9Z"/><path class="cls-19" d="M298.2,528.24c-5.08.35-10.41,2.1-13.27-1.46-1.8-2.26,1.86-6,.8-8.67-.91-2.33-1.1-4-5.59-5-4.73-1.08-14.91.62-15.5-6.19-.24-2.77,5.94-2.22,7.65-3.47s1.23-3.87-1.6-5.92c-6-4.29-16.81-2.84-16.15-9,.15-1.47,2.78-1.32,4.23-1.26,1.93.12,1.68-2.65-.75-3.92-4.38-2.29-10.79-2.88-9.51-7.68.59-2.1,4.58-1,6.57-.52,2.6.59,2.49-2.13,1.78-3.09-2.43-3.32-9.36-5.06-10.27-9.67-.47-2.51,2-2.51,2-4.28.09-2.86-7-8.77-2.21-12.1l55.77,80.72h0a9.42,9.42,0,0,1-4,1.51Z"/><path class="cls-18" d="M659.28,501.46c2.65,5.23-6.41,7-7.73,9.56-.79,1.58,1.35,2.75-.28,4.72-3,3.61-9.91,1.85-13.63,3.59-1.07.51-2.48,2.83.1,3.56,2,.55,6,1.47,5.5,3.6-1.17,4.8-7.08,2.27-12,2.18-2.74,0-4.29,2.27-2.52,3.1,1.29.62,3.66,1.77,3.1,3.13-2.34,5.69-11.17-.77-18.47.15-3.45.43-5.16,2.43-4.23,4.42s6.58,4.39,5,6.72c-3.79,5.69-11.9-.67-16.58-2-4.42-1.24-5.38.14-7.3,1.74-2.23,1.88-.78,6.87-3.44,8-4.31,1.81-8.26-2.52-12.67-5.25a9.54,9.54,0,0,1-2.58-3.31c27.46-18.16,56.23-33.72,87.7-43.9Z"/><path class="cls-19" d="M570.8,541.56c.35-5.08-.66-10.62,3.25-12.95,2.5-1.48,5.66,2.65,8.48,2,2.44-.59,4.12-.54,5.74-4.85,1.72-4.54,1.43-14.86,8.26-14.51,2.77.15,1.38,6.19,2.38,8s3.67,1.75,6.09-.78c5.07-5.31,5.13-16.26,11.09-14.76,1.45.35.93,2.93.67,4.36-.38,1.9,2.4,2,4-.21,2.85-4,4.31-10.29,8.89-8.35,2,.85.35,4.66-.39,6.58-.92,2.48,1.77,2.75,2.82,2.18,3.62-2,6.3-8.59,11-8.85,2.56-.13,2.22,2.29,3.95,2.57,2.83.49,9.65-5.75,12.29-.52l-87.56,44.19h0a9.3,9.3,0,0,1-.94-4.13Z"/><path class="cls-18" d="M477.71,327c.66-5.82,9.22-2.34,11.71-3.73,1.54-.88.38-3,2.82-3.78,4.49-1.38,9.3,3.91,13.36,4.5,1.18.15,3.63-1,1.89-3-1.34-1.54-4.22-4.53-2.62-6,3.61-3.37,7.15,2,11.23,4.78,2.26,1.54,4.82.46,3.8-1.21-.73-1.22-2.08-3.48-.87-4.31,5.08-3.46,8.92,6.79,15.51,10,3.14,1.53,5.65.82,6-1.37s-3.09-7.29-.54-8.38c6.29-2.67,9.58,7.1,12.75,10.78,3,3.47,4.58,2.84,7.06,2.56,2.89-.34,4.43-5.31,7.27-4.78,4.6.85,5.5,6.65,7.69,11.35a9.53,9.53,0,0,1,.34,4.18c-32.92.09-65.5-2.76-97.38-11.56Z"/><path class="cls-19" d="M573.65,342.13c-3.07,4.05-5.29,9.22-9.83,9-2.89-.12-3.27-5.31-6-6.3-2.37-.85-3.74-1.82-7.47.88-3.94,2.86-9.35,11.63-14.86,7.58-2.25-1.64,2.24-5.93,2.43-8s-2.11-3.49-5.51-2.7c-7.15,1.65-13.22,10.77-17.38,6.23-1-1.09.84-3,1.83-4,1.36-1.37-.88-3-3.45-2-4.59,1.8-9.26,6.22-12,2.09-1.21-1.82,2.27-4.09,3.93-5.28,2.15-1.58,0-3.28-1.16-3.38-4.09-.36-10,3.71-14,1.35-2.2-1.29-.59-3.13-1.88-4.33-2.1-1.94-11.23-.49-10.55-6.31l97.42,11.25h0a9.13,9.13,0,0,1-1.48,4Z"/><path class="cls-18" d="M235,348.79c.67-5.82,9.22-2.33,11.72-3.74,1.52-.88.37-3,2.82-3.78,4.48-1.37,9.29,3.91,13.36,4.5,1.16.16,3.63-1,1.87-3-1.33-1.54-4.2-4.52-2.62-6,3.62-3.37,7.17,2,11.23,4.78,2.28,1.54,4.84.47,3.82-1.19-.74-1.23-2.08-3.5-.87-4.32,5.08-3.48,8.92,6.78,15.51,10,3.13,1.53,5.65.81,6-1.37s-3.09-7.29-.54-8.39c6.29-2.67,9.59,7.1,12.76,10.79,3,3.47,4.57,2.84,7.06,2.56,2.88-.35,4.41-5.31,7.27-4.79,4.59.86,5.5,6.66,7.69,11.37a9.42,9.42,0,0,1,.34,4.16c-32.92.09-65.51-2.75-97.39-11.55Z"/><path class="cls-19" d="M330.94,364c-3.09,4-5.29,9.22-9.83,9-2.9-.14-3.26-5.33-6-6.31-2.37-.85-3.75-1.82-7.47.88-3.93,2.85-9.36,11.64-14.87,7.59-2.23-1.65,2.25-5.93,2.43-8s-2.11-3.49-5.51-2.7c-7.16,1.65-13.22,10.77-17.38,6.24-1-1.1.84-3,1.84-4,1.36-1.37-.89-3-3.45-2-4.59,1.8-9.27,6.23-12,2.1-1.21-1.82,2.26-4.09,3.93-5.29,2.15-1.57,0-3.27-1.14-3.37-4.11-.36-10,3.71-14.05,1.35-2.21-1.29-.6-3.13-1.89-4.33-2.09-1.95-11.22-.49-10.55-6.32L332.41,360l0,0a9.63,9.63,0,0,1-1.49,4Z"/><path class="cls-18" d="M208.33,186.65c2.82-5.13,9.42,1.33,12.25,1,1.76-.23,1.5-2.67,4-2.45,4.67.44,7.12,7.15,10.66,9.23,1,.59,3.75.45,2.89-2.1-.65-1.93-2.19-5.78-.14-6.57,4.62-1.75,5.87,4.55,8.58,8.68,1.52,2.29,4.3,2.26,4,.33-.21-1.41-.61-4,.82-4.32,6-1.29,5.69,9.66,10.58,15.14,2.32,2.61,4.91,2.9,6,1s-.1-7.91,2.68-8c6.84-.1,6.18,10.19,7.73,14.8,1.48,4.36,3.16,4.37,5.56,5.05,2.8.78,6.11-3.25,8.54-1.68,3.93,2.53,2.58,8.24,2.83,13.43a9.25,9.25,0,0,1-1.26,4c-30.51-12.38-59.62-27.33-85.79-47.55Z"/><path class="cls-19" d="M291.42,237c-4.38,2.58-8.38,6.54-12.51,4.63-2.63-1.22-1-6.15-3.16-8.11-1.87-1.68-2.79-3.09-7.25-2-4.72,1.17-13.06,7.23-16.63,1.4-1.45-2.36,4.32-4.63,5.29-6.52s-.64-4-4.07-4.58c-7.26-1.18-16.33,5-18.46-.8-.52-1.39,1.9-2.44,3.22-3,1.77-.76.32-3.13-2.43-3.18-4.93-.08-10.93,2.26-11.92-2.62-.43-2.13,3.65-2.92,5.64-3.39,2.58-.65,1.28-3,.22-3.56-3.66-1.89-10.64-.35-13.53-4.07-1.54-2,.65-3.12-.1-4.72-1.22-2.6-10.2-4.71-7.39-9.84l86,47.27h0a9.09,9.09,0,0,1-2.87,3.12Z"/><path class="cls-18" d="M191.68,651.93c4.06-4.22,8.76,3.74,11.58,4.14,1.75.23,2.14-2.19,4.54-1.31,4.4,1.64,5,8.76,7.9,11.68.84.86,3.5,1.41,3.33-1.27-.12-2-.6-6.14,1.58-6.38,4.92-.48,4.49,5.93,6,10.62.87,2.6,3.57,3.29,3.76,1.35.16-1.42.45-4,1.92-4,6.14.32,3,10.81,6.27,17.38,1.56,3.12,4,4.07,5.58,2.53s2-7.67,4.65-7c6.62,1.68,3.31,11.45,3.61,16.31.3,4.58,1.92,5,4.06,6.32,2.51,1.47,6.74-1.55,8.68.61,3.13,3.46.35,8.61-.75,13.69a9.63,9.63,0,0,1-2.26,3.52c-26.23-19.89-50.45-41.9-70.48-68.24Z"/><path class="cls-19" d="M258.82,722.18c-4.9,1.35-9.79,4.13-13.28,1.22-2.23-1.87.62-6.22-.94-8.66-1.38-2.11-1.88-3.71-6.49-3.82-4.85-.11-14.48,3.58-16.4-3-.8-2.67,5.38-3.36,6.79-4.92s.43-4-2.75-5.49c-6.69-3-17,.55-17.61-5.57-.14-1.49,2.47-1.86,3.9-2.08,1.91-.27,1.12-2.94-1.52-3.7-4.73-1.37-11.14-.68-10.83-5.63.15-2.18,4.29-1.88,6.33-1.82,2.66,0,2-2.58,1.13-3.38-3-2.78-10.18-3.1-12-7.44-1-2.36,1.43-2.85,1.13-4.58-.5-2.83-8.64-7.2-4.59-11.44l70.7,68h0a9.37,9.37,0,0,1-3.58,2.27Z"/><path class="cls-18" d="M639.08,672.72c4.75,3.42-2.47,9.2-2.47,12,0,1.77,2.47,1.81,1.92,4.31-1,4.59-7.95,6.2-10.45,9.46-.72,1-.9,3.67,1.72,3.13,2-.41,6-1.46,6.55.66,1.17,4.8-5.24,5.28-9.67,7.47-2.45,1.22-2.75,4-.81,3.91,1.43,0,4.06-.12,4.19,1.35.53,6.13-10.28,4.46-16.32,8.64-2.87,2-3.47,4.53-1.73,5.88s7.87.86,7.58,3.62c-.75,6.81-10.88,4.9-15.64,5.87-4.5.93-4.71,2.61-5.69,4.91-1.11,2.69,2.48,6.45.63,8.69-3,3.58-8.49,1.55-13.67,1.16a9.32,9.32,0,0,1-3.8-1.74c16-28.77,34.4-55.85,57.66-79.37Z"/><path class="cls-19" d="M579,749.07c-2-4.66-5.46-9.13-3.06-13,1.53-2.46,6.24-.26,8.44-2.15,1.89-1.65,3.41-2.38,2.87-6.95-.57-4.83-5.57-13.85.65-16.68,2.52-1.16,4.07,4.85,5.82,6s4.06-.13,5-3.49c2.07-7-2.93-16.8,3.07-18.22,1.44-.35,2.17,2.18,2.59,3.57.54,1.86,3.07.7,3.45-2,.68-4.88-.89-11.13,4-11.52,2.17-.15,2.47,4,2.69,6,.32,2.65,2.83,1.64,3.51.65,2.31-3.41,1.63-10.52,5.67-12.92,2.21-1.3,3,1,4.7.47,2.73-.89,5.92-9.56,10.67-6.13L581.7,752.29v0a9.57,9.57,0,0,1-2.74-3.24Z"/><path class="cls-18" d="M144.17,372.58c5.26,2.58-.9,9.47-.42,12.28.31,1.74,2.74,1.39,2.62,3.94-.21,4.69-6.81,7.45-8.73,11.08-.55,1.05-.27,3.76,2.23,2.78,1.9-.73,5.66-2.43,6.56-.44,1.95,4.55-4.28,6.08-8.27,9-2.23,1.62-2.06,4.4-.15,4,1.39-.28,4-.8,4.35.63,1.56,5.95-9.39,6.12-14.65,11.25-2.5,2.44-2.67,5.05-.72,6.08s7.9-.46,8.07,2.31c.41,6.83-9.89,6.65-14.43,8.39-4.27,1.69-4.21,3.38-4.78,5.8-.65,2.85,3.51,5.95,2.07,8.46-2.36,4-8.11,3-13.28,3.43a9,9,0,0,1-4-1.08c11-31.05,24.58-60.81,43.57-87.89Z"/><path class="cls-19" d="M97.66,457.9c-2.76-4.25-6.9-8.07-5.18-12.29,1.09-2.69,6.1-1.3,8-3.53,1.59-1.95,3-2.91,1.67-7.34-1.36-4.66-7.8-12.72-2.14-16.55,2.3-1.56,4.82,4.11,6.75,5s4-.81,4.39-4.29c.84-7.28-5.7-16.08,0-18.47,1.37-.58,2.51,1.79,3.15,3.08.85,1.74,3.15.18,3.08-2.58-.15-4.93-2.75-10.82,2.06-12,2.12-.52,3.09,3.52,3.65,5.49.76,2.55,3.07,1.13,3.57.05,1.72-3.75-.14-10.66,3.44-13.7,2-1.63,3.15.51,4.71-.31,2.54-1.34,4.23-10.42,9.5-7.84l-43.31,88.05h0a9.46,9.46,0,0,1-3.25-2.74Z"/><path class="cls-18" d="M574.05,487c-4.25,4-8.55-4.14-11.36-4.68-1.73-.32-2.25,2.08-4.6,1.07-4.31-1.83-4.59-9-7.32-12-.8-.89-3.43-1.58-3.38,1.1,0,2,.3,6.17-1.88,6.3-4.94.25-4.2-6.13-5.51-10.89-.75-2.64-3.4-3.46-3.7-1.54-.22,1.41-.64,4-2.11,3.86-6.12-.62-2.45-10.94-5.42-17.67-1.4-3.19-3.79-4.26-5.43-2.8s-2.34,7.57-5,6.77c-6.53-2-2.75-11.61-2.81-16.48-.07-4.59-1.67-5.12-3.76-6.51-2.42-1.59-6.79,1.22-8.63-1-3-3.62.07-8.62,1.42-13.65a9.6,9.6,0,0,1,2.43-3.4c25.23,21.14,48.34,44.32,67.06,71.58Z"/><path class="cls-19" d="M510.43,413.58c4.95-1.1,10-3.64,13.32-.57,2.13,2-.93,6.18.52,8.71,1.26,2.16,1.7,3.79,6.27,4.12,4.86.35,14.65-2.86,16.27,3.78.65,2.71-5.54,3.09-7,4.58s-.63,4,2.48,5.62c6.52,3.34,17,.28,17.3,6.43.07,1.49-2.55,1.72-4,1.88-1.93.18-1.26,2.89,1.35,3.78,4.66,1.59,11.09,1.21,10.54,6.13-.26,2.17-4.38,1.68-6.41,1.52-2.67-.19-2.15,2.48-1.3,3.32,2.9,2.92,10,3.6,11.62,8,.85,2.41-1.58,2.78-1.36,4.53.36,2.85,8.27,7.61,4,11.64l-67.28-71.39h0a9.53,9.53,0,0,1,3.7-2.09Z"/><path class="cls-18" d="M769.05,479.56c-5.82.72-4.45-8.42-6.4-10.51-1.21-1.28-3,.35-4.35-1.85-2.38-4,1.62-10,1.23-14-.11-1.2-1.82-3.31-3.38-1.11-1.19,1.64-3.41,5.15-5.25,3.95-4.13-2.72.25-7.43,2-12.05,1-2.55-.7-4.79-2.07-3.42-1,1-2.89,2.85-4,1.86-4.57-4.11,4.49-10.26,6.08-17.44.76-3.41-.54-5.69-2.73-5.49s-6.35,4.73-8,2.5c-4.08-5.48,4.64-11,7.47-14.94,2.66-3.75,1.68-5.11.83-7.47-1-2.72-6.2-3.05-6.37-5.93-.24-4.67,5.18-6.92,9.22-10.16a9.64,9.64,0,0,1,4-1.32c7.84,32,12.76,64.36,11.74,97.42Z"/><path class="cls-19" d="M761.17,382.69c4.64,2.05,10.2,3,11.07,7.43.55,2.85-4.39,4.43-4.71,7.32-.28,2.5-.88,4.07,2.62,7.05,3.7,3.15,13.49,6.35,10.87,12.66-1.07,2.57-6.29-.78-8.39-.46s-2.88,2.87-1.31,6c3.28,6.57,13.57,10.32,10.15,15.43-.83,1.25-3.08-.12-4.33-.84-1.67-1-2.72,1.57-1.16,3.83,2.83,4,8.23,7.56,4.87,11.2-1.48,1.59-4.51-1.25-6.06-2.58-2-1.73-3.18.73-3,1.91.63,4.08,6,8.82,4.63,13.34-.73,2.44-2.91,1.3-3.75,2.84-1.41,2.52,2.16,11.05-3.65,11.76L757,382.2h0a9.37,9.37,0,0,1,4.21.5Z"/><path class="cls-18" d="M531.09,119.91c-.56,5.83-9.18,2.51-11.65,4-1.51.9-.32,3-2.75,3.84-4.46,1.45-9.37-3.75-13.43-4.27-1.19-.14-3.62,1.08-1.83,3.07,1.36,1.52,4.28,4.45,2.73,6-3.56,3.43-7.21-1.85-11.32-4.58-2.29-1.5-4.84-.37-3.8,1.27.77,1.22,2.15,3.45,1,4.29-5,3.57-9-6.62-15.69-9.73-3.16-1.48-5.67-.71-5.94,1.47s3.21,7.24.68,8.37c-6.24,2.8-9.71-6.91-13-10.54-3.06-3.41-4.62-2.76-7.09-2.44-2.89.4-4.32,5.4-7.19,4.92-4.6-.77-5.61-6.55-7.89-11.21a9.53,9.53,0,0,1-.42-4.16c32.92-.7,65.55,1.54,97.59,9.76Z"/><path class="cls-19" d="M434.87,106.49c3-4.09,5.13-9.32,9.67-9.18,2.9.07,3.37,5.25,6.11,6.19,2.38.8,3.77,1.74,7.45-1,3.88-2.92,9.14-11.79,14.72-7.85,2.27,1.61-2.14,6-2.28,8.07s2.16,3.45,5.56,2.61c7.12-1.78,13-11,17.26-6.55,1,1.08-.79,3-1.77,4-1.33,1.39,1,3,3.5,2,4.56-1.87,9.15-6.39,12-2.31,1.24,1.79-2.19,4.14-3.83,5.36-2.13,1.61,0,3.27,1.21,3.36,4.11.28,9.9-3.9,14-1.62,2.23,1.25.65,3.13,2,4.29,2.14,1.91,11.23.29,10.67,6.12l-97.62-9.46h0a9.45,9.45,0,0,1,1.41-4Z"/><path class="cls-18" d="M390.8,762.36c-1.56,5.65-9.48.9-12.15,1.9-1.65.62-.84,3-3.37,3.31-4.63.69-8.59-5.28-12.51-6.49-1.14-.34-3.75.44-2.32,2.71,1.08,1.73,3.46,5.11,1.66,6.36-4.09,2.78-6.76-3-10.36-6.44-2-1.86-4.71-1.19-4,.61.55,1.33,1.53,3.75.2,4.39-5.55,2.66-7.77-8.07-13.79-12.27-2.87-2-5.46-1.67-6.11.43s1.94,7.68-.75,8.37c-6.62,1.69-8.39-8.46-11-12.6-2.44-3.88-4.1-3.5-6.59-3.6-2.91-.11-5.18,4.56-7.92,3.61-4.39-1.55-4.41-7.41-5.86-12.4a9.49,9.49,0,0,1,.3-4.17c32.54,4.93,64.32,12.71,94.49,26.28Z"/><path class="cls-19" d="M298.28,732.71c3.67-3.51,6.63-8.3,11.09-7.4,2.84.57,2.42,5.75,5,7.15,2.22,1.19,3.43,2.36,7.52.27,4.33-2.23,11-10.07,15.85-5.23,2,2-3.13,5.51-3.63,7.57s1.55,3.76,5,3.5c7.32-.54,14.71-8.62,18.14-3.5.83,1.23-1.29,2.8-2.44,3.68-1.55,1.15.42,3.12,3.11,2.51,4.81-1,10.1-4.72,12.19-.22.92,2-2.86,3.69-4.69,4.62-2.36,1.23-.54,3.24.62,3.53,4,1,10.42-2.15,14.09.8,2,1.6.1,3.18,1.2,4.55,1.78,2.26,11,2.21,9.48,7.86l-94.59-26h0a9.58,9.58,0,0,1,2.07-3.71Z"/><path class="cls-24" d="M539.6,652.73c9.09-22.38,43.1-12.1,63.45,23.66-37.69,14.06-72.43-1.63-63.45-23.66Zm-371.55-280c40,4.57,63.8,34.32,45.82,49.89-18.24,15.81-43.9-8.8-45.82-49.89ZM549.68,130.29c28.45,28.47,28.6,66.59,4.85,67.59-24.12,1-28.9-34.21-4.85-67.59Z"/><path class="cls-25" d="M415.44,781.73l-.36-.67L409,769.86c-1.29-2.41-.68-4,1.25-5.25a80.31,80.31,0,0,1,31.79-11.84h.06a5.15,5.15,0,1,0-3-9.81,2.15,2.15,0,0,1-2.91-1l-1.77-3.29c-1.2-2.25.22-4.56,3.26-5.67,19.82-8.75,32.85-2.07,41,12.71h0l.09.15h0a1.34,1.34,0,0,0,.06.12s0,0,0,.07l.1.2h0l.09.16c.11.21.22.42.32.63l-64,34.66Zm-279-220h0a.62.62,0,0,0,0-.19h0s0-.09,0-.14,0,0,0-.08,0-.09,0-.22h0a1.28,1.28,0,0,0,0-.19c0-.23.06-.47.1-.7l72.37,8-.09.75-1.41,12.66c-.31,2.72-1.71,3.65-4,3.59a80.25,80.25,0,0,1-32.87-8.39l-.06,0a5.15,5.15,0,1,0-3.12,9.76,2.16,2.16,0,0,1,1.84,2.47l-.43,3.72c-.28,2.52-2.77,3.62-5.89,2.79-21.29-4.1-28.18-17-26.51-33.85Zm247.84,7.15h0l-.19,0h0l-.14,0a.09.09,0,0,1-.08,0l-.22,0h0l-.18,0c-16.52-3.5-26.76-14-24.23-35.52.16-3.22,2-5.29,4.46-4.78l3.66.73a2.15,2.15,0,0,1,1.8,2.49,5.16,5.16,0,1,0,10.26,0l0-.08a80.63,80.63,0,0,1,2-33.87c.64-2.21,2-3.28,4.65-2.74l11.69,2.32,12.49,2.49c2.68.54,3.49,2,3.23,4.31a80.23,80.23,0,0,1-11.16,32.05l0,.06a5.15,5.15,0,1,0,9.45,3.94,2.17,2.17,0,0,1,2.61-1.62l3.67.74c2.49.5,3.37,3.07,2.28,6.12-5.9,20.87-19.36,26.64-36,23.52Zm122.43-14.06-10.93-6.54-10.22-6.13c-2.37-1.39-2.62-3.08-1.61-5.14a80.32,80.32,0,0,1,21.26-26.44l.06,0a5.16,5.16,0,1,0-7.6-6.91,2.13,2.13,0,0,1-3,.64l-3.2-1.91c-2.19-1.32-2.15-4.05-.11-6.54,12.57-17.67,27.18-18.58,41.79-10.09l.15.1h0a1.55,1.55,0,0,0,.19.11s.06,0,.06.05a.45.45,0,0,1,.12.06h0a.69.69,0,0,0,.17.1h0c14.39,8.83,20.5,22.15,10.9,41.59-1.24,3-3.63,4.31-5.8,3l-3.21-1.92a2.14,2.14,0,0,1-.86-2.94,5.15,5.15,0,1,0-9.66-3.43l0,.06A80.3,80.3,0,0,1,512,553.8c-1.34,1.87-2.94,2.43-5.29,1Zm247.2-31.49a80.73,80.73,0,0,1-24.75-23.23l0-.05a5.15,5.15,0,1,0-7.45,7,2.18,2.18,0,0,1,.42,3l-2.17,3.06c-1.47,2.08-4.18,1.83-6.52-.4-16.65-13.89-16.46-28.54-6.87-42.45h0a.48.48,0,0,0,.09-.14h0l.09-.11s0,0,0-.07.06,0,.14-.18h0a1.4,1.4,0,0,0,.1-.16c.14-.19.27-.38.42-.57l59.51,42-.44.62-7.35,10.4c-1.58,2.23-3.26,2.37-5.25,1.21ZM324.73,460.93,313.47,457l-12-4.2c-2.57-.89-3.18-2.48-2.6-4.71a80.19,80.19,0,0,1,15.48-30.19l0-.06a5.15,5.15,0,1,0-8.82-5.22,2.17,2.17,0,0,1-2.81,1.25l-3.53-1.24c-2.4-.84-2.91-3.51-1.42-6.38,8.73-19.85,22.86-23.7,38.87-18.33h0l.18.05h0l.12.05s0,0,.08,0l.2.07h0l.18.05c15.88,5.75,24.56,17.56,19.1,38.53-.61,3.17-2.67,5-5.09,4.11l-3.52-1.23a2.13,2.13,0,0,1-1.43-2.71,5.15,5.15,0,1,0-10.16-1.39v.07a80.41,80.41,0,0,1-6.62,33.29c-.92,2.1-2.38,3-5,2.07Zm241.5-27.1a80.38,80.38,0,0,1-9.75-32.51v-.07a5.16,5.16,0,1,0-10,2.35,2.14,2.14,0,0,1-1.17,2.83L541.94,408c-2.32,1.08-4.55-.51-5.45-3.61-7.43-20.36.1-32.94,15.37-40.16l.17-.07h0c.12-.06.25-.12.21-.09s0,0,.07,0l.11-.06h0l.17-.07h0C568,357,582.47,359.52,593,378.45c1.76,2.71,1.5,5.43-.81,6.49l-3.4,1.56a2.17,2.17,0,0,1-2.92-1,5.15,5.15,0,1,0-8.28,6l0,.05a80.3,80.3,0,0,1,18.27,28.6c.79,2.17.33,3.8-2.15,4.94l-11.58,5.32-10.83,4.95c-2.49,1.15-4,.42-5.14-1.59ZM417,364.87c-2.8-1.59-3.83-4.13-2.26-6.13l2.3-3a2.17,2.17,0,0,1,3-.47,5.15,5.15,0,1,0,4.59-9.17l-.05,0a80.23,80.23,0,0,1-29.37-17c-1.68-1.57-2-3.23-.36-5.38l7.85-10,7.34-9.4c1.69-2.16,3.38-2.21,5.3-.95A80.65,80.65,0,0,1,439,327.76l0,.05a5.16,5.16,0,1,0,7.8-6.68,2.11,2.11,0,0,1-.26-3.05l2.28-2.95c1.57-2,4.28-1.62,6.51.7,15.95,14.67,15,29.3,4.8,42.74l-.12.15h0l-.13.16s0,.05-.05.06l-.09.12h0s-.08.09-.11.14h0c-10.55,13.2-24.52,17.61-42.6,5.66ZM207.28,323.3l-63.79-35.11c.1-.22.21-.43.33-.64a.65.65,0,0,1,.1-.15h0l.1-.2s0-.06,0-.07l.06-.13h0a1.29,1.29,0,0,0,.09-.16h0c8.3-14.71,21.38-21.32,41.15-12.41,3,1.13,4.43,3.45,3.21,5.68l-1.8,3.29a2.14,2.14,0,0,1-2.91,1,5.16,5.16,0,1,0-3.07,9.79h.07a80.07,80.07,0,0,1,31.7,12.07c1.92,1.28,2.53,2.85,1.22,5.25l-6.12,11.16-.38.67Zm436.05-91.05c-20.79-6.13-26.42-19.65-23.15-36.24h0s0-.12,0-.18h0a.33.33,0,0,1,0-.13s0,0,0-.08,0-.08,0-.22h0a.53.53,0,0,0,0-.17c.06-.23.11-.47.16-.7l71.28,14.9-.16.75L689,222.63c-.57,2.68-2.06,3.47-4.35,3.2a80.14,80.14,0,0,1-31.91-11.49l-.06,0a5.15,5.15,0,1,0-4,9.43,2.18,2.18,0,0,1,1.6,2.63l-.78,3.66c-.52,2.49-3.11,3.34-6.15,2.23ZM299.55,206.62a80.31,80.31,0,0,1,.74-33.92l0-.07a5.15,5.15,0,1,0-10.22-.83,2.15,2.15,0,0,1-2,2.34l-3.71.43c-2.54.3-4.15-1.88-4.06-5.11-.81-21.68,10.21-31.32,27-33.49h0l.19,0h.14s0,0,.08,0l.22,0h0l.18,0,.71-.08,8.54,72.37-.75.09L304,209.74c-2.71.3-3.94-.85-4.41-3.12Z"/><path class="cls-26" d="M553.34,759.83l-6.05-7.53a3.83,3.83,0,0,1,6-4.8l6,7.55a3.82,3.82,0,0,1-6,4.78ZM342.42,712.74l1-9.61a3.83,3.83,0,0,1,7.63.78l-1,9.61a3.83,3.83,0,1,1-7.62-.78Zm213.29-.32a3.83,3.83,0,0,1-.22-5.41l6.55-7.1a3.83,3.83,0,1,1,5.63,5.2l-6.56,7.1a3.83,3.83,0,0,1-5.4.21Zm154-62a3.84,3.84,0,0,1-1.54-5.2l4.61-8.49a3.83,3.83,0,1,1,6.73,3.65l-4.6,8.5a3.86,3.86,0,0,1-5.2,1.54ZM375.46,598a3.84,3.84,0,0,1-1.58-5.18l4.54-8.52a3.82,3.82,0,0,1,5.17-1.6,3.86,3.86,0,0,1,1.59,5.19l-4.53,8.53a3.84,3.84,0,0,1-5.19,1.58Zm36.23-13.62a3.85,3.85,0,0,1,3.51-4.13l9.64-.78a3.83,3.83,0,0,1,.61,7.64l-9.63.79a3.85,3.85,0,0,1-4.13-3.52ZM117.37,548.85l-4.66-8.46a3.82,3.82,0,0,1,6.7-3.69l4.67,8.45a3.83,3.83,0,1,1-6.71,3.7ZM752,544.25l-9.54-1.44a3.84,3.84,0,0,1,1.14-7.59l9.55,1.46a3.83,3.83,0,1,1-1.15,7.57Zm-506.5-8.79a3.83,3.83,0,0,1,2.35-4.89l9.1-3.19a3.83,3.83,0,1,1,2.54,7.23l-9.1,3.2a3.84,3.84,0,0,1-4.89-2.35ZM440.63,511.7V502a3.84,3.84,0,0,1,7.67,0v9.67a3.84,3.84,0,0,1-7.67,0ZM673.46,500l-2.35-9.37a3.83,3.83,0,1,1,7.42-1.87l2.37,9.37a3.84,3.84,0,0,1-7.44,1.87Zm-304-11a3.85,3.85,0,0,1-.23-5.41l6.55-7.11a3.83,3.83,0,1,1,5.63,5.19l-6.54,7.12a3.83,3.83,0,0,1-5.41.21Zm-94.08-44.16a3.85,3.85,0,0,1,.33-5.42l7.23-6.39a3.83,3.83,0,1,1,5.08,5.74l-7.23,6.4a3.84,3.84,0,0,1-5.41-.33Zm91.88-9.26a3.82,3.82,0,0,1,.11-5.41l7-6.69a3.83,3.83,0,1,1,5.31,5.52l-7,6.7a3.84,3.84,0,0,1-5.42-.12Zm137.28-44.2a3.82,3.82,0,0,1,.12-5.41l7-6.7a3.84,3.84,0,0,1,5.31,5.54l-7,6.69a3.85,3.85,0,0,1-5.42-.12Zm-113-15.59a3.82,3.82,0,0,1,3.74-3.91l9.65-.2a3.84,3.84,0,0,1,.17,7.67l-9.67.19a3.8,3.8,0,0,1-3.89-3.75Zm206.14-7.24a3.83,3.83,0,0,1,3.75-3.91l9.65-.2a3.83,3.83,0,0,1,.16,7.66l-9.65.2a3.82,3.82,0,0,1-3.91-3.75ZM480,361.9l.25-9.65a3.83,3.83,0,1,1,7.66.2l-.25,9.66a3.83,3.83,0,1,1-7.66-.21Zm276.29,1.36a3.85,3.85,0,0,1,2.24-4.94l9-3.41a3.84,3.84,0,0,1,2.71,7.18l-9,3.41a3.84,3.84,0,0,1-4.94-2.24Zm-649.18-1.54a3.82,3.82,0,0,1,3.29-4.3l9.56-1.27a3.83,3.83,0,1,1,1,7.59L111.41,365a3.83,3.83,0,0,1-4.29-3.3Zm6-40.61,2.3-9.38a3.82,3.82,0,1,1,7.43,1.81l-2.29,9.39a3.83,3.83,0,1,1-7.44-1.82ZM464.3,297.39,458,290.12a3.83,3.83,0,1,1,5.77-5.05l6.34,7.27a3.83,3.83,0,1,1-5.76,5.05Zm264.8-5.95a3.81,3.81,0,0,1-1.69-5.14l4.34-8.64a3.83,3.83,0,0,1,6.84,3.45l-4.34,8.63a3.84,3.84,0,0,1-5.15,1.7Zm-74.6-33.52-9.23-2.81a3.83,3.83,0,1,1,2.24-7.32l9.22,2.81a3.83,3.83,0,1,1-2.23,7.32Zm-325-21.86a3.84,3.84,0,0,1,1.79-5.12l8.7-4.18a3.83,3.83,0,0,1,3.32,6.9l-8.7,4.19a3.82,3.82,0,0,1-5.11-1.79Zm-134.36-1.49-9.61-1a3.83,3.83,0,1,1,.8-7.62l9.6,1a3.84,3.84,0,0,1-.79,7.63Zm395.47-25.15-9.23-2.81a3.83,3.83,0,1,1,2.23-7.33l9.24,2.81a3.83,3.83,0,1,1-2.24,7.33Zm-339-35.33-7.9-5.56a3.83,3.83,0,0,1,4.39-6.28l7.91,5.55a3.84,3.84,0,0,1-4.4,6.29ZM403.78,131.7a3.83,3.83,0,0,1,1.79-5.11l8.7-4.19a3.83,3.83,0,1,1,3.33,6.9l-8.7,4.19a3.83,3.83,0,0,1-5.12-1.79Zm-74.76.1-6.39-7.24a3.83,3.83,0,1,1,5.73-5.07l6.4,7.24A3.83,3.83,0,0,1,329,131.8Z"/></g></g></svg>