<svg xmlns="http://www.w3.org/2000/svg" viewBox="0 0 166.18 116.65"><g id="Warstwa_2" data-name="Warstwa 2"><g id="Ńëîé_1" data-name="Ńëîé 1"><path d="M69.49,106.58a20.72,20.72,0,0,0,1.33-1.79c.83-1.46,1.59-3,2.39-4.45a7.42,7.42,0,0,1,.65-1,3.37,3.37,0,0,0,.63-2.69c-.06-.38-.16-.47-.51-.37-1.93.57-3.89,1.07-5.78,1.73-.46.16-.79.81-1.06,1.31s.19.35.42.3c.82-.21,1.62-.45,2.43-.65s1.52-.31,2.27-.49c.43-.11.84-.3,1.27-.4.14,0,.32.13.47.19a1.69,1.69,0,0,1-.39.22c-1.82.53-3.64,1-5.46,1.58a6.24,6.24,0,0,0-.85.44c-.26.12-.53.22-.8.33s-.49.13-.63.29a3.38,3.38,0,0,0-.38.76l.68-.15L71,100.58c.08,0,.16-.09.23-.07a2.58,2.58,0,0,1,.41.2c-.1.1-.18.27-.3.31-.89.27-1.79.49-2.66.78s-2,.37-2.84,1.11a.62.62,0,0,1-.47,0c-.23-.06-.56-.32-.64-.25a8.27,8.27,0,0,0-1.32,1.39c-.21.29.06.4.38.32l3.17-.74c.75-.16,1.49-.33,2.24-.45a1.84,1.84,0,0,1,.63.14c-.16.13-.29.32-.47.37-1.63.43-3.26.82-4.89,1.24-.2,0-.51.11-.55.24-.27.88-.88.5-1.18.21s-.48-.2-.7,0c-1,1-1.92,1.91-2.87,2.88-.5.53-.89.49-1.07-.22-.14-.5-.44-.45-.74-.35q-2.37.8-4.72,1.65a1.21,1.21,0,0,0-.55.45c-.71,1-1.43,2-2.06,3.09-.34.58-.51,1.25-.8,1.86-.1.21-.35.51-.5.49s-.38-.3-.53-.5a1,1,0,0,1-.14-.38c-.06-.29-.08-.49-.52-.33s-.84-.16-.8-.75a10.59,10.59,0,0,0,.17-2.43,13.67,13.67,0,0,0-.94-2.51c-.42-1.07-1.25-1.14-2.2-.94a.47.47,0,0,1-.16,0l-.75-.33.66-.19a6.9,6.9,0,0,0,1-.25.54.54,0,0,0,.21-.47c-.32-.83-.7-1.64-1-2.47-.13-.34-.32-.38-.63-.31-.93.19-1.87.35-2.8.56-.2,0-.35.28-.54.38a1.33,1.33,0,0,1-.66.24c-.15,0-.4-.25-.39-.38a.8.8,0,0,1,.33-.57,7.26,7.26,0,0,1,3.6-.87c.27,0,.65.08.56-.34s0-.92-.61-.88c-1,.07-2,.2-3,.35-.22,0-.41.25-.62.37s-.36.27-.5.23a3.9,3.9,0,0,1-.81-.42c.22-.23.4-.6.67-.69a7.36,7.36,0,0,1,3.65-.6,1.33,1.33,0,0,0,.5-.11,2.83,2.83,0,0,0-.25-.59c-.05-.06-.26,0-.39,0-1,.12-1.93.23-2.89.38-.71.11-1.49.06-1.92.86,0,.09-.53.06-.71-.06a.67.67,0,0,1-.11-.64,1.5,1.5,0,0,1,.81-.61c1.38-.25,2.77-.43,4.16-.63.17,0,.34-.08.51-.12a3.74,3.74,0,0,0-.24-.76c0-.09-.25-.13-.37-.12-1.43.17-2.86.33-4.28.56-.58.09-1.12.36-1.68.5a2.64,2.64,0,0,1-.74,0,2.88,2.88,0,0,1,.26-.86c.12-.16.44-.2.68-.25,1.18-.2,2.36-.4,3.55-.56.48-.06,1,0,1.46,0a1.82,1.82,0,0,0,.57-.22,2.73,2.73,0,0,0-.53-.63c-.15-.09-.42,0-.64,0-1,.05-1.9.06-2.84.17-.37.05-.69.38-1.06.49a3.49,3.49,0,0,1-.86,0c.05-.31,0-.74.19-.91a2.15,2.15,0,0,1,1.06-.35c1.07-.15,2.15-.25,3.22-.39a2.11,2.11,0,0,0,.45-.18c-.14-.18-.25-.44-.43-.5s-.48,0-.73,0c-1.6,0-3.2.06-4.8.14a4.94,4.94,0,0,0-1.12.38c-.23.07-.47.09-.71.14,0-.28,0-.67.14-.79.38-.31.82-.53.74-1.14,0,0,.15-.15.24-.17l4.11-.8a.38.38,0,0,1,.24,0c.19.11.37.24.56.36-.17.14-.33.36-.52.41-.93.2-1.86.34-2.79.52a1.78,1.78,0,0,0-.41.17h.46c1.25,0,2.49-.07,3.74-.07.45,0,.62-.12.45-.57a12.82,12.82,0,0,1-.81-5.52c0-.4,0-.55-.52-.45-2.13.39-4.27.68-6.4,1-.6.11-1.17.4-1.77.57a1.52,1.52,0,0,1-.59-.06c.11-.23.18-.62.35-.68a22.5,22.5,0,0,1,2.3-.52l5.21-1a2,2,0,0,1,.24,0c.37,0,.92.08,1.08-.12A2.59,2.59,0,0,0,38.47,86c.06-.39.07-.8.1-1.2-.39,0-.78.06-1.16.13l-5,.84a4.4,4.4,0,0,0-.75.31c-.2.09-.41.25-.6.24s-.4-.21-.6-.32c.1-.16.17-.36.31-.45a2.52,2.52,0,0,1,.81-.35l5.51-1.05a2.2,2.2,0,0,1,.56-.07c1.17,0,1.15,0,1.31-1.09.06-.5-.12-.59-.54-.48L35.94,83c-1.27.3-2.54.58-3.8.9-.33.08-.63.32-1,.39s-.81.09-.91-.07c-.27-.42.1-.61.48-.71,1.18-.3,2.36-.61,3.55-.9,1.5-.36,3-.68,4.5-1.07.63-.16.52-.8.5-1.24s-.5-.27-.76-.2c-2.82.77-5.64,1.57-8.46,2.34-.16,0-.37-.08-.56-.13.11-.22.18-.54.36-.63s.64-.07.95-.17.33-.29.49-.44a2.17,2.17,0,0,0-.58-.44c-1.24-.37-2.5-.67-3.71-1.09-.21-.07-.31-.6-.37-.93a9.77,9.77,0,0,1,.36-4,40.36,40.36,0,0,1,1.58-5.9A23.46,23.46,0,0,1,32,62.89a6.15,6.15,0,0,0,.58-1.11,6.83,6.83,0,0,0-1.11.08c-1.3.3-2.58.65-3.88,1s-2.76.58-4.13.9L14.36,65.8c-1,.22-1.91.46-2.86.69,0,0-.06,0-.08,0l-.95.69a5.41,5.41,0,0,0,1,0c3-.41,6.09-.78,9.12-1.27,2.08-.33,4.14-.8,6.2-1.28.89-.2,1.75-.56,2.62-.85.15,0,.33-.14.46-.1a.61.61,0,0,1,.39.33c0,.09-.08.3-.19.38a1.45,1.45,0,0,1-.52.23c-1.91.46-3.82.94-5.74,1.35-1.33.28-2.67.49-4,.68-2.26.3-4.52.56-6.77.84-1.21.16-2.42.32-3.63.51a.91.91,0,0,0-.51.33.88.88,0,0,1-1.07.37c-.35-.09-1-.9-1-1.25,0-.11.18-.24.31-.29.42-.16.86-.31,1.3-.43,2-.54,3.91-1.09,5.88-1.59,2.29-.59,4.58-1.13,6.88-1.66,1.13-.27,2.27-.47,3.41-.71a1.48,1.48,0,0,0,.33-.17,1.28,1.28,0,0,0-.35-.11,33.22,33.22,0,0,0-3.74.2,23.06,23.06,0,0,0-3.09.89L14,64.78,9.39,66.2c-1.68.52-3.36,1-5,1.56-.4.13-.78.36-1.18.5-.16.06-.36,0-.55,0,.08-.2.09-.48.24-.59s.46-.12.7-.19L9,65.72c1.36-.43,2.74-.81,4.11-1.24s3-1,4.47-1.51a1.14,1.14,0,0,0,.31-.23,1.56,1.56,0,0,0-.33-.14,4.72,4.72,0,0,0-2.36.33,50.41,50.41,0,0,1-6.06,1.58c-1.78.36-3.6.52-5.4.74-.25,0-.65.23-.7-.25s.3-.43.61-.46c1.68-.18,3.37-.28,5-.6a20.09,20.09,0,0,0,5.16-1.38l.33-.19-.41-.14-1.3-.52a1.06,1.06,0,0,0-.48-.14c-1.83.2-3.66.49-5.5.63a30,30,0,0,1-4.13,0C1.62,62.15.83,62,.68,61a.84.84,0,0,1,.13-.6c.47-.61,1.06-1.15,1.48-1.8a18.17,18.17,0,0,1,4.76-4.93c1.93-1.38,4-2.58,6-3.83,1.22-.75,2.46-1.47,3.73-2.15,1-.52,2-1,3-1.43,1.48-.67,3-1.32,4.46-2a1.06,1.06,0,0,1,.62-.11c.12,0,.31.33.27.43a3.1,3.1,0,0,1-1.5,1.63.4.4,0,0,1-.26,0c-.13-.73-.59-.38-.91-.24-2.05.88-4.13,1.69-6.11,2.7S12.63,50.84,10.82,52a35.47,35.47,0,0,0-4,2.8,13.07,13.07,0,0,0-4,4.89c-.3.72-.23.87.53.67,1.73-.45,3.46-.93,5.15-1.52A31,31,0,0,0,12.7,57c1.48-.78,2.88-1.72,4.27-2.64.75-.49,1.41-1.1,2.13-1.64a31.59,31.59,0,0,0,5.64-5.91,44.91,44.91,0,0,0,2.74-4.05,3.65,3.65,0,0,0,.31-1.22s-.2-.17-.28-.15a8.48,8.48,0,0,0-1,.27,8.08,8.08,0,0,1-5.36-.18c-.88-.34-1.74-.72-2.63-1-.37-.13-.82,0-1.17-.21a35.44,35.44,0,0,1-6.17-3.21,51.13,51.13,0,0,1-6.4-5.52A5.21,5.21,0,0,1,4,30.42c-.92-1.61-1.82-3.24-2.75-4.85-.3-.5-.73-.92-1-1.43a1.33,1.33,0,0,1-.17-1,.8.8,0,0,1,1-.42,9.66,9.66,0,0,0,2.74.15,27.43,27.43,0,0,1,6.27.24c1.29.2,2.6.24,3.9.4a22.28,22.28,0,0,1,6,1.64c1.59.68,3.28,1.14,4.93,1.68a22.89,22.89,0,0,1,7,3.34,18.41,18.41,0,0,1,4,3.62c.22.3.58.5.79.81.1.14,0,.42,0,.64a2.83,2.83,0,0,1-.45-.32l-1.61-1.61c-.15-.15-.32-.28-.48-.42l-.4-.31c0,.2-.07.43,0,.59.3.64.65,1.25,1,1.87a.61.61,0,0,1,.07.14c.08.39.16.78.23,1.17-.34-.1-.67-.22-1-.29a24.07,24.07,0,0,0-2.79-.53,2.28,2.28,0,0,0-1.36.42c-1.06.74-2.05,1.58-3.08,2.35-.43.32-.93.56-1.37.87a1.37,1.37,0,0,0-.34.44c-.14.23-.22.54-.42.69a2.15,2.15,0,0,1-.79.23c0-.27,0-.62.12-.78a11.45,11.45,0,0,1,1.24-1c1.19-1,2.39-1.94,3.55-3,.55-.49.46-.77-.25-1-.35-.12-.72-.21-1.07-.34a2.76,2.76,0,0,0-1.66,0c-2.83.61-5.67,1.13-8.51,1.69-.85.17-1.7.37-2.55.55a2.8,2.8,0,0,1-.64.08c-.13,0-.25-.13-.38-.2.11-.13.2-.35.34-.37,1.3-.28,2.61-.51,3.91-.77l7.11-1.47a2.22,2.22,0,0,0,.49-.24c-.14-.16-.24-.38-.4-.46-1.18-.57-2.36-1.11-3.55-1.65-.05,0-.12-.07-.15,0-.73.51-1.33-.15-2-.22a14.34,14.34,0,0,0-2.35.15,36.33,36.33,0,0,0-6.38,1.15c-.62.17-1.24.39-1.84.61s-.48.48-.14.81a23.46,23.46,0,0,0,5.8,4,55.37,55.37,0,0,0,5.86,2.45,15.24,15.24,0,0,0,4.09.87,9,9,0,0,0,3-.63c1.77-.55,3.52-1.19,5.28-1.8.27-.1.51-.29.78-.4s.48-.19.58-.11a1.19,1.19,0,0,1,.33.65c0,.19-.1.41-.06.6.13.61.38.66.89.3a3.67,3.67,0,0,1,1-.32A27.71,27.71,0,0,1,43.35,38c1.54-.14,3.1-.11,4.65-.13,1,0,1.9,0,2.84.07.61,0,1.21.07,1.82.14.34.05.39-.06.25-.34-.51-1-1-2-1.53-3-.69-1.18-1.48-2.32-2.19-3.49a2.28,2.28,0,0,1-.13-.8c.46,0,1.23-.24,1.32-.08.74,1.33,2.17,1.24,3.29,1.75.53.24.86.24,1.16-.51a7.07,7.07,0,0,1,1.59-1.81,5.9,5.9,0,0,0,.5-.5c.18-.26.33-.54.49-.8a5.94,5.94,0,0,0-1.1-.08c-1.54.19-3.1.32-4.61.65A38.07,38.07,0,0,0,48,30.32a7.68,7.68,0,0,1-1.39.36c-.15,0-.41-.18-.47-.34s.16-.37.31-.46c1.44-.81,2.89-1.59,4.33-2.41A9.67,9.67,0,0,0,52,26.58c.06,0,.06-.17.1-.26l-.3,0a11.54,11.54,0,0,1-1.41.24,27.13,27.13,0,0,0-6,.85c-2.11.61-4.29,1-6.43,1.47-1.32.31-2.62.67-3.94,1-.26.06-.53.08-.79.16s-.54,0-.62-.41.1-.52.41-.66c1.61-.71,3.2-1.48,4.82-2.16s3.44-1.36,5.15-2.06c2.2-.91,4.39-1.85,6.58-2.8a.56.56,0,0,0,.15-.49c-.17-.36-.42-.69-.63-1-.66-1.15-1.34-2.28-2-3.45a35.93,35.93,0,0,1-1.72-3.39c-.62-1.52-1.1-3.11-1.63-4.67-.28-.85-.49-1.73-.82-2.56s-.28-1.17.69-1.08c1.73.17,3.46.39,5.16.72,2.13.4,4.25.88,6.35,1.4A28.75,28.75,0,0,1,61.69,10a39.06,39.06,0,0,1,3.56,2.28c1.82,1.24,3.7,2.4,5.4,3.78s3.54,2.45,4.76,4.28a2,2,0,0,0,.5.4c.38.28.54.23.71-.27a10.54,10.54,0,0,1,3.3-5.15,17.53,17.53,0,0,0,1.81-1.37c.83-.8,1.56-1.71,2.34-2.57.05-.06.13-.14.12-.21-.17-1,.65-1.2,1.3-1.48,1.77-.75,3.57-1.45,5.33-2.22.55-.24,1-.72,1.53-1a12.41,12.41,0,0,1,2-.62,7.28,7.28,0,0,1,3.15,0,8.94,8.94,0,0,0,3.19.3c1.2-.19,2.1.72,3,1.4a11.1,11.1,0,0,1,1.09,1.08c1.23,1.18,2.69,2.17,3.28,3.89.13.36.27.56.7.31.19-.1.47,0,.71,0,2.05-.19,4.11-.36,6.16-.59,1.09-.13,2.17-.38,3.27-.52,2.22-.28,4.45-.55,6.68-.77a9.38,9.38,0,0,1,3.16-.1,21.18,21.18,0,0,0,4.33.37,3,3,0,0,0,2.37-1,4.51,4.51,0,0,1,.78-.58c1.15-.75,2.25-1.6,3.46-2.23,1.66-.86,2.7-2.43,4.25-3.42A26.32,26.32,0,0,0,147.4.88c.33-.32.73-.4,1-.06a1,1,0,0,1,0,.91,2.46,2.46,0,0,1-1.16.84,9.52,9.52,0,0,0-3.35,2.07c-1.79,1.42-3.56,2.87-5.4,4.22-1.17.86-2.47,1.55-3.7,2.33-.12.08-.27.22-.27.33,0,.41-.24.45-.54.42a1.35,1.35,0,0,0-1,.47,8.23,8.23,0,0,1-1.62.83c-.85.42-1.71.82-2.53,1.31-.49.3-.85.85-1.37,1.1s-1.14.1-1.6.35a23.22,23.22,0,0,0-2.18,1.54c-1.15.8-2.29,1.62-3.48,2.36a39.59,39.59,0,0,1-6,3.1q-2.36,1-4.7,2c-1,.41-2,.84-2.91,1.27-.34.15-.69.26-.78.75,0,.17-.44.32-.71.4-1.68.49-3.39.9-5,1.46-2.2.74-4.38,1.55-6.55,2.39a20.71,20.71,0,0,0-2.18,1.16,3,3,0,0,1-.35.19c-1.45.45-2.9.87-4.34,1.34-2.16.69-4.31,1.43-6.48,2.1a6.29,6.29,0,0,1-1.45.08c-.27,0-.56,0-.31.46a1,1,0,0,1-.18.83c-.34.41-.81.72-1.19,1.1-.76.75-1.47,1.56-2.24,2.29-1.12,1.07-2.27,2.11-3.41,3.15a4,4,0,0,1-.34.23l-.56.41a2.76,2.76,0,0,1,.39-.72c1-.95,2-1.83,3-2.82,1.26-1.35,2.44-2.79,3.64-4.19a3.65,3.65,0,0,0,.3-.55,2.32,2.32,0,0,0-.67-.19,6.56,6.56,0,0,0-4.54,1.82,26.58,26.58,0,0,1-3.68,2.61,28.56,28.56,0,0,1-3.59,1.89,34.55,34.55,0,0,1-3.3,1.11.55.55,0,0,1-.4,0,7.57,7.57,0,0,1-.63-.49c.23-.14.48-.42.7-.4a6.84,6.84,0,0,0,3.89-1.09c.58-.29,1.17-.56,1.76-.82a19.07,19.07,0,0,0,4.67-3.46,2.5,2.5,0,0,0,.4-.51.33.33,0,0,0,0-.25,4,4,0,0,0-1.44-.1c-.92.26-1.78.74-2.69,1q-4,1.24-8,2.38a5.34,5.34,0,0,1-2.77.38c-.14,0-.24-.18-.37-.28.14,0,.29-.16.41-.13,1,.29,1.91-.24,2.82-.49s1.92-.73,2.89-1.06c.81-.27,1.65-.41,2.46-.68s1.75-.67,2.61-1a1.73,1.73,0,0,0,.35-.27,2.42,2.42,0,0,0-.4-.19c-2.23-.59-4.46-1.2-6.71-1.74-1.32-.31-2.68-.48-4-.77-1.64-.36-3.27-.79-4.9-1.17a7.15,7.15,0,0,0-1-.08,4.43,4.43,0,0,0,.25.88c.92,1.72,1.84,3.45,2.81,5.14a1.32,1.32,0,0,0,.84.49c.47.07.53.31.33.59s-.22.56.25.61c.06,0,.17.1.17.14-.09.89.69,1.18,1.16,1.65A43,43,0,0,0,61,45.19,10.84,10.84,0,0,0,66.19,47c.29.05.62-.24.94-.36s.71-.83.9.12c0,.09.38.16.56.13a30.75,30.75,0,0,0,5.69-1.85A10.64,10.64,0,0,0,78,42.44c.22-.22.87-.56.07-1-.08,0,0-.56.13-.79a1.64,1.64,0,0,1,.68-.57,2.61,2.61,0,0,0,1.48-2.5,1.21,1.21,0,0,1,.93-1.21c1-.29,2-.88,3.06-1.23,1.82-.6,3.67-1.12,5.5-1.67.9-.27,1.84-.46,2.71-.8,1.35-.53,2.64-1.22,4-1.73a17.78,17.78,0,0,1,3.79-1.34,10.13,10.13,0,0,0,2.39-1l1.35-.56c1.86-.73,3.77-1.37,5.58-2.2,2-.92,3.88-2,5.81-3,.65-.34,1.29-.67,1.94-1,1.08-.55,2.15-1.11,3.24-1.62,1.29-.62,2.6-1.19,3.9-1.79.89-.41,1.78-.81,2.65-1.25s1.69-1,2.59-1.39c1.81-.77,3.4-1.94,5.13-2.84a2.73,2.73,0,0,0,1.53-1.32.5.5,0,0,1,.33-.22,9.64,9.64,0,0,0,3.33-1.92,33.79,33.79,0,0,0,4.25-3.34c1-1,2.41-1.64,3.12-3,.11-.19.51-.28.77-.3s.38.32.36.43a1.15,1.15,0,0,1-.42.61,43.56,43.56,0,0,0-5.4,4.16c-.76.67-1.61,1.24-2.41,1.86-.19.14-.34.34-.53.48s-.47.31-.71.46a8.68,8.68,0,0,0,1,.1c.62,0,1.23,0,1.85-.06.15,0,.38,0,.45.12.54.74,1,.21,1.44-.09,1.1-.78,2.17-1.61,3.29-2.37,1.32-.91,2.72-1.71,4-2.65,1.59-1.13,3.11-2.37,4.67-3.55.41-.3.89-.51,1.3-.81a5.06,5.06,0,0,0,1-1c.29-.39.92-.76,1.26-.6a1.21,1.21,0,0,1,.12,1.41,12.33,12.33,0,0,1-1.3,1.07c-.86.69-1.74,1.36-2.58,2.09-1.28,1.11-2.54,2.26-3.82,3.38a1.51,1.51,0,0,1-.54.2,2.67,2.67,0,0,1,.32-.43c1.08-1,2.18-2,3.24-3,.58-.56,1.11-1.18,1.65-1.78a1.2,1.2,0,0,0,.17-.42,1.18,1.18,0,0,0-.43.11l-4.67,3.38C149.84,7.37,148,8.69,146.13,10c-1,.68-1.95,1.33-2.93,2a1,1,0,0,0-.22.31,2.07,2.07,0,0,1,.34.15c.86.61,1.61.18,2.34-.25.9-.53,1.79-1.1,2.65-1.69.31-.21.54-.42.94-.19a.85.85,0,0,0,.61-.09c1-.42,1.9-.88,2.86-1.31,1.28-.58,2.6-1.1,3.85-1.73a18.43,18.43,0,0,0,2.27-1.43c.52-.37.95-.29,1.19.31.05.13.09.26.15.38.64,1.33.06,1.58-.78,2.28-.34.29-.67.61-1,.93,0,0,.13.25.18.25a1.4,1.4,0,0,0,.53-.19,34.67,34.67,0,0,0,2.89-2c.9-.75,1.67-1.65,2.51-2.46.2-.2.46-.47.7-.48a2.79,2.79,0,0,1,1,.32c-.12.22-.18.54-.37.65-1.8,1-2.78,2.86-4.34,4.1-1.09.85-2.19,1.68-3.29,2.52a9.92,9.92,0,0,1-1.84,1.3c-.81.35-.86.76-.6,1.5s-.45.81-.84,1.12c-.54.42-1.08.86-1.59,1.31-.1.09-.09.29-.13.43a1.7,1.7,0,0,0,.39,0c1.83-.47,3.66-1,5.51-1.41.91-.22,1.86-.3,2.78-.5.54-.13,1.06-.41,1.61-.54a1,1,0,0,1,.81.15c.12.11.05.51,0,.75a7,7,0,0,1-.54,1.19.77.77,0,0,1-.33.34c-1.19.47-2.36,1-3.58,1.37-2.32.73-4.68,1.35-7,2-1.69.51-3.37,1.05-5,1.6a2.38,2.38,0,0,0-.71.49c-.62.52-1.23,1.06-1.84,1.6a2.63,2.63,0,0,0-.29.37,2,2,0,0,0,.49.16l4.4.14a2.92,2.92,0,0,1,.73.06,3.61,3.61,0,0,1,.67.36,6,6,0,0,1-.72.12c-.92,0-1.83,0-2.74,0-1.33,0-2.66.09-4,.16-.16,0-.32.2-.47.31.17.09.35.26.53.27,2.39.15,4.79.27,7.19.39.55,0,1.09,0,1.63,0a1.14,1.14,0,0,1,.34.15,2,2,0,0,1-.32.11c-1.87,0-3.74.07-5.61.15-2.06.1-4.11.25-6.16.4-.2,0-.39.21-.58.33a2.15,2.15,0,0,0,.6.24c2.08.13,4.17.21,6.25.36,1.11.08,2.21.26,3.31.41.09,0,.16.17.24.26-.11.05-.21.15-.32.16l-8.06.81-6.15.61c-.14,0-.31,0-.4,0a5.1,5.1,0,0,0-.62.51,2.75,2.75,0,0,0,.61.16c2.1,0,4.19,0,6.28,0,1.11,0,2.23.12,3.34.21.15,0,.29.14.44.21a1.57,1.57,0,0,1-.48.18c-1.22,0-2.45.06-3.67,0a29,29,0,0,0-6.64.49c-.38.08-.83.17-1.06-.34a.37.37,0,0,0-.33-.06c-.8.44-1.6.88-2.38,1.36-.17.11-.23.4-.34.61l.55,0,7.65-.16h.08l.59.24c-.18,0-.37.09-.56.11-2.32.17-4.64.31-6.95.5a13.47,13.47,0,0,0-1.48.39c-.29.06-.69.2-.68-.37,0,0,0-.07,0-.07-.18,0-.42,0-.55,0-.38.27-.73.59-1.09.89a1.23,1.23,0,0,0,.37.08c2-.17,3.92-.38,5.89-.51a17.76,17.76,0,0,1,2.41.08c.1,0,.19.15.29.23-.1.06-.2.17-.31.18-1.49.13-3,.21-4.46.37-2.11.23-4.21.47-6.3.81a7.21,7.21,0,0,0-1.83.85c-.06,0-.1.11-.15.17s.16.13.24.13l5.61-.15c.6,0,1.2,0,1.79,0a1.63,1.63,0,0,1,.4.15c-.12.12-.22.32-.35.34-.65.08-1.3.11-1.95.15l-6.1.4c-.19,0-.38,0-.56.06s-.62-.32-.76.15a11.5,11.5,0,0,0-.28,1.42.5.5,0,0,0,.32.13c2.18-.09,4.35-.22,6.52-.3.87,0,1.74,0,2.6.06.11,0,.21.1.32.15-.1.08-.19.21-.3.23-.69.09-1.38.19-2.07.24-1.13.08-2.27.12-3.4.19l-3.61.25c-.13,0-.31,0-.39.07a1.09,1.09,0,0,0-.29.51c0,.07.23.25.37.28a3.88,3.88,0,0,0,.9,0c1.72-.08,3.44-.19,5.17-.26a6.11,6.11,0,0,1,1.12.13c.11,0,.2.13.29.2-.08.05-.17.14-.26.15-1.08.08-2.17.15-3.25.24-1.27.1-2.54.22-3.81.35-.49,0-.68.29-.77.84a6.72,6.72,0,0,0,1.34,4.68,16.51,16.51,0,0,0,2,2.58,10.74,10.74,0,0,0,2,1.52,10.11,10.11,0,0,1,3.55,4.64.88.88,0,0,1,.07.32,47.57,47.57,0,0,1,0,6A23.49,23.49,0,0,0,131,68a9.19,9.19,0,0,1-1.43,5.58c-.85,1.21-1.66,2.44-2.46,3.69a16.64,16.64,0,0,1-3.77,3.86,7.87,7.87,0,0,1-1.24.93,2.46,2.46,0,0,1-1,0,2.41,2.41,0,0,1,0-.81.84.84,0,0,1,1-.64c.47,0,1.06-.58,1.53-1a24.92,24.92,0,0,0,5.34-7.13,9.15,9.15,0,0,0,.88-5.21A34.44,34.44,0,0,1,130,63a12.47,12.47,0,0,0-.43-5.4,5.75,5.75,0,0,0-2.39-2.88c-.31-.19-.47-.16-.69.08q-1.14,1.26-2.31,2.49c-.26.27-.61.46-.86.73s-.11.37-.15.56a3.42,3.42,0,0,0,.4-.26l2.63-2.3a1.35,1.35,0,0,1,.42-.24,2.24,2.24,0,0,1,.46,0,3.37,3.37,0,0,1-.24.37c-.82.89-1.65,1.78-2.48,2.66-.16.17-.45.28-.1.55s.57.36.86,0,.74-.86,1.12-1.3a9.72,9.72,0,0,1,.85-1c.13-.12.41-.06.62-.08,0,.22,0,.49-.11.63-.56.66-1.16,1.27-1.74,1.9a1.12,1.12,0,0,0-.35.54,2.34,2.34,0,0,0,.18.76c.21-.07.47-.08.62-.22.63-.55,1.22-1.15,1.82-1.73.12-.11.23-.31.35-.32a4.08,4.08,0,0,1,.85.08,3.31,3.31,0,0,1-.45.4A9.47,9.47,0,0,0,125,64c-.13.35-.31.69-.45,1a1.45,1.45,0,0,0-.06.3,1.14,1.14,0,0,0,.31-.16c.92-.92,1.83-1.85,2.74-2.77a1.59,1.59,0,0,1,.29-.29c.3-.15.62-.28.93-.41a4,4,0,0,1-.47.74c-.73.79-1.5,1.53-2.22,2.32-.4.44-.71,1-1.08,1.42-.2.24-.43.53-.69.59-.52.12-.54.4-.42.78s.3.87.48,1.29a2.65,2.65,0,0,1,0,1.9c-.44,1.42-1.43,2.64-1.48,4.2a2.7,2.7,0,0,0,0,.48,5,5,0,0,1-.6,3.36,5.48,5.48,0,0,1-1.48,2,2.18,2.18,0,0,0-.55,3.1c.41.83.76,1.52,1.77,1.66.68.09.81.52.84,1.21a15.55,15.55,0,0,0,1.47,7A8.84,8.84,0,0,1,125,96.2c.45,2,.89,4,1.25,6a19.44,19.44,0,0,1,0,2,10.94,10.94,0,0,0,2.24,6.26,2.71,2.71,0,0,1,.46.76c.14.37.19.74-.35.91s-.74,0-.94-.46c-.39-.91-.91-1.78-1.25-2.71a15.53,15.53,0,0,1-.85-3.05c-.4-2.61-.64-5.26-1.06-7.87a12.94,12.94,0,0,0-1.32-4.26,8,8,0,0,1-.76-2.29c-.28-1.44-.42-2.9-.69-4.34a1.14,1.14,0,0,0-.71-.74c-1.36-.16-1.84-.94-1.86-2.21,0-.49-.14-1-.86-1,0,0-.2-.34-.17-.38.68-.62.16-1.24-.07-1.77a27.64,27.64,0,0,0-2-4,7.33,7.33,0,0,0-2.91-2.51,17.36,17.36,0,0,0-5.42-1.37,8.53,8.53,0,0,0-2.63.44c-.4.07-.79.21-1.18.27a3.29,3.29,0,0,0-2.35,1.44c-.51.76-1.06,1.5-1.63,2.21a1,1,0,0,0-.22,1c.26.9.42,1.83.7,2.73s.72,1.94,1.06,2.91c.15.43.33.56.77.33a21.23,21.23,0,0,1,6.57-1.83c1.6-.23,3.23-.23,4.86-.32.13,0,.27.09.41.13a1.35,1.35,0,0,1-.45.25c-1,.08-2,0-2.91.21a29.23,29.23,0,0,0-7.51,2c-.8.39-.89.73-.47,1.55a1.86,1.86,0,0,0,2.11,1.17c1.34-.15,2.68-.45,4-.47,1.83,0,3.66.11,5.49.26a28,28,0,0,1,2.86.48,2,2,0,0,1,.53.19,1.38,1.38,0,0,1,.26.23.8.8,0,0,1-.3,0c-.73-.1-1.45-.28-2.18-.32-2.14-.1-4.29-.24-6.43-.2a29.89,29.89,0,0,0-4.19.56,1.11,1.11,0,0,0-.57.44,6.12,6.12,0,0,0,.81,1.15c.12.13.44.07.6.18a.7.7,0,0,1,.24.5,2.77,2.77,0,0,0,1.39,2.42c.14.07.39.17.38.22-.13.89.75.93,1.13,1.37s.84.85,1.22,1.3a33,33,0,0,0,4.21,4.06c.9.74,1.87,1.41,2.78,2.16a.93.93,0,0,1,.38.73c0,.23-.38.48-.63.55s-.45-.18-.63-.34c-.91-.81-1.83-1.61-2.71-2.45-1.39-1.35-2.75-2.73-4.14-4.09a1.9,1.9,0,0,0-.56-.4,2.49,2.49,0,0,0-.62.88,8.57,8.57,0,0,0-.2,1.68c-.06,1-.08,2.06-.12,3.09,0,.13,0,.3,0,.4a4.6,4.6,0,0,1-.45.54c-.11-.19-.32-.39-.31-.57.1-1.57.24-3.14.38-4.7.08-.87.18-1.73.25-2.59a.59.59,0,0,0-.14-.37c-.65-.8-1.32-1.58-2-2.38-.19-.24-.32-.27-.48,0a15.75,15.75,0,0,0-1.83,3.7c-.31,1.11-.79,2.16-1.1,3.26a7.88,7.88,0,0,0-.11,1.62,1.73,1.73,0,0,1-.14.42,1.52,1.52,0,0,1-.29-.39,4.72,4.72,0,0,1,.23-3c.63-1.81,1.41-3.56,2.12-5.34.16-.4.34-.8.49-1.2.07-.18.16-.43.09-.55-.46-.71-1-1.4-1.47-2.07,0,0-.35.06-.44.18-.88,1.09-1.79,2.17-2.6,3.31a30.71,30.71,0,0,0-1.8,3,14.46,14.46,0,0,0-.74,1.71,30.08,30.08,0,0,1-1.15,2.81,1.43,1.43,0,0,0,.28,1.71,28.35,28.35,0,0,0,2.68,2.69c.67.61.81.56,1.49-.06s1.24-.46,1.67.5a15.65,15.65,0,0,0,1,2,5.38,5.38,0,0,0,2.55,1.87,21.6,21.6,0,0,1,3.06,1.48,5,5,0,0,1,1.44,1.73,5.78,5.78,0,0,0,3.28,2.57,17.62,17.62,0,0,0,2.83,1,10,10,0,0,0,4.66.24,7.07,7.07,0,0,0,3.15-1.43c.09-.09.2-.34.15-.41-1.5-2.15-2.44-4.69-4.43-6.5-.44-.4-.92-.76-1.36-1.15a1.69,1.69,0,0,1-.43-.57c-.15-.41,0-.68.47-.52a2.78,2.78,0,0,1,1,.61,46.78,46.78,0,0,1,3,3.55c.84,1.12,1.45,2.41,2.29,3.52a9.75,9.75,0,0,0,1.93,1.67c.08.06.74.56.61-.27,0,0,0-.07,0-.07s.31-.13.37-.08a12,12,0,0,1,1,1s-.12.3-.24.34a2.45,2.45,0,0,1-2,.07,3.06,3.06,0,0,0-2.51-.25c-.22.11-.44.22-.65.34a9.34,9.34,0,0,1-7.41.58c-1.1-.3-2.2-.58-3.28-.93a5.65,5.65,0,0,1-3.23-2.59,4.53,4.53,0,0,0-2.6-2.29c-1-.3-1.83-.92-2.77-1.31a5.14,5.14,0,0,1-2.36-2.49s0-.11,0-.15c-.49-1-.48-1-1.32-.3a.6.6,0,0,1-.57.08c-1.12-.79-2.21-1.63-3.31-2.45-.1-.07-.35-.12-.38-.08-.56.92-1.61,1-2.44,1.5-1.24.67-2.57,1.17-3.79,1.87a7,7,0,0,0-1.34,1.42,2.59,2.59,0,0,1-.69.64c-1.8.86-3.62,1.67-5.42,2.52a10,10,0,0,1-1,.63c-1.6.52-3.22,1-4.82,1.45a35.54,35.54,0,0,0-6.65,2.36,12.61,12.61,0,0,1-1.55.69.71.71,0,0,1-.61,0c-.43-.42-.77-.11-1.17,0a5.49,5.49,0,0,1-1.5.26.64.64,0,0,1-.51-.4.9.9,0,0,1,.24-.68c.72-.77,1.56-1.45,2.21-2.27a6.05,6.05,0,0,0,1-3.23,10.84,10.84,0,0,1,.12-1.29A8.09,8.09,0,0,1,69,107.5c.14-.32.31-.63.46-.94ZM63.3,48.5c-.4.46-.8.92-1.19,1.39,0,0,0,.2,0,.28s.14,0,.21,0a3.84,3.84,0,0,0,.93-1.71l.87-.38a.42.42,0,0,0,0-.14l-.7.45ZM93.9,72c-.05-.22-.21-.51-.12-.64a10.66,10.66,0,0,1,.9-1c.2-.23.57-.52.54-.73-.1-.56.27-.77.56-1.07a3.85,3.85,0,0,0,.27-.3,1.15,1.15,0,0,0-.43.14c-.86.78-1.73,1.56-2.54,2.39-.2.2-.4.74-.3.87a.87.87,0,0,0,1.13.34c-.21.66.48.51.72.76.07.07.37,0,.51-.13,1-.72,2.06-1.48,3.12-2.18a3.85,3.85,0,0,1,1-.31,7.41,7.41,0,0,1-.74.84c-.87.73-1.77,1.43-2.65,2.15-.29.24-.4.5,0,.77.57.36,1.11.75,1.68,1.12a.31.31,0,0,0,.31,0c.82-.63,2.2-.45,2.43-2,.11-.71.85-1.3,1.2-2s1-1.13.27-1.9c-.09-.09,0-.39.06-.59.12-.69.26-1.37.35-2,0-.12-.17-.27-.27-.41-.14.18-.42.49-.38.53.63.78-.18.65-.5.81a7.85,7.85,0,0,0-.88.42c-1.08.73-2.36,1.24-2.86,2.62-.06.17-.38.25-.58.36a4.31,4.31,0,0,1-.19-.61c0-.09,0-.18.07-.28a1,1,0,0,0-.31.09,10.79,10.79,0,0,1-1.08.84C94.71,71.21,94.69,72.08,93.9,72ZM68.81,60.22c-.48.74-1,1.48-1.43,2.24a.5.5,0,0,0,0,.45c.49.5.2,1,0,1.5-.25.76-.4,1.56-.6,2.33a1.68,1.68,0,0,1-.21.62c-.09.1-.46.13-.49.07a1.77,1.77,0,0,1-.19-.69,1,1,0,0,1,.1-.39c.18-.65.38-1.3.55-2a1,1,0,0,0,0-.38,2.2,2.2,0,0,0-.27.26c-.56.69-1.09,1.42-1.7,2.06-.22.23-.64.28-1,.41a2.58,2.58,0,0,1,.05-1,3,3,0,0,1,.77-1A10,10,0,0,0,67.22,61c.44-1,.85-2.09,1.26-3.14.2-.53-.09-.61-.48-.43-1.42.66-2.87,1.26-4.22,2a42,42,0,0,0-4.36,2.87c-1,.75-2.24,1.27-2.85,2.49a1.91,1.91,0,0,1-.31.38c-.44.42-1,.7-.5,1.54.21.34.32.43.65.45,1.08.07,2.17.12,3.25.23,2.17.21,4.33.44,6.5.67,1.53.16,3.08.29,4.61.51.91.14,1.79.44,2.69.64a.84.84,0,0,0,.65-.08,8.56,8.56,0,0,0,1-1.15c.87-1.1,1.71-2.22,2.6-3.31.21-.26.15-.38,0-.62s-.22-.53-.13-.63a.51.51,0,0,1,.83-.06,8.11,8.11,0,0,0,.77.66,2.17,2.17,0,0,0,.33.19L79.48,64c-.08-.38.09-.46.4-.32s.46.28.7.41.4.29.56.26a3.23,3.23,0,0,0,2.52-2.06c.89-2.41,1.65-4.88,2.45-7.32.19-.56.34-1.13.49-1.71,0-.1-.06-.23-.09-.35a1.16,1.16,0,0,0-.32.2c-.72.82-1.37,1.7-2.15,2.45-1,1-2.11,1.86-3.22,2.73a40.23,40.23,0,0,1-4.1,3A20.47,20.47,0,0,0,74,63.61c-.53.46-1,.94-1.62,1.35a.55.55,0,0,1-.83-.65,4.71,4.71,0,0,1,.9-1.09c.45-.38,1.09-.59,1.44-1,1.37-1.78,2.68-3.61,4-5.44a.73.73,0,0,0,.09-.63.83.83,0,0,1,0-1c.17-.45.23-.95.43-1.39.37-.86.8-1.71,1.24-2.54.07-.12.35-.12.54-.18a1.62,1.62,0,0,1,0,.44c-.48,1.27-1,2.52-1.44,3.78a1.18,1.18,0,0,0,0,.42,2,2,0,0,0,.32-.22c.56-.62,1.12-1.25,1.67-1.89a10,10,0,0,0,1.2-1.5,11.22,11.22,0,0,0,.78-2,2.28,2.28,0,0,0,0-.59,2.51,2.51,0,0,0-.62.07c-1.06.4-2.13.79-3.17,1.26-.38.17-.88.47-1,.82-.58,1.81-1,3.65-1.54,5.47a1.24,1.24,0,0,1-.27.49,2.12,2.12,0,0,1-.48.29c0-.19-.17-.4-.12-.57.34-1.29.72-2.57,1.08-3.85.15-.52.29-1,.43-1.58a11.21,11.21,0,0,0-1.59.79,16.12,16.12,0,0,0-3.68,3.06,1.66,1.66,0,0,1-.69.39,2.19,2.19,0,0,0-1.34,1.93c0,.13,0,.25,0,.38.14-.06.36-.08.43-.19.21-.34.36-.72.56-1.07.05-.11.19-.16.29-.24a1.45,1.45,0,0,1,0,.35c-.2,1-.41,2-.6,3-.24,1.28-.46,2.57-.73,3.84,0,.17-.31.29-.47.44a2.23,2.23,0,0,1-.11-.66c.11-.69.29-1.36.4-2s.12-1.13.18-1.7c0-.15,0-.29,0-.44-.11.13-.28.25-.32.4-.36,1.43-.73,2.88-1,4.33-.17.76-.24,1.55-.4,2.32,0,.16-.25.29-.38.43-.06-.16-.21-.33-.19-.48.15-1.16.27-2.32.5-3.46s.56-2.09.85-3.13l.18-.26a1.07,1.07,0,0,0,.19-.26,3.25,3.25,0,0,0,.12-.52c-.18.25-.37.49-.53.76C68.71,60,68.79,60.12,68.81,60.22Zm72.3-35.56,0,0,3.7-2.61c.06.28.14.52.53.44a1.3,1.3,0,0,1,.62,0,2,2,0,0,0,1.81-.55,21.44,21.44,0,0,0,2.31-2.17c1.12-1.34,2.41-2.54,3.61-3.82a1.22,1.22,0,0,0,.29-.55c.2-.7,0-1.68,1.26-1.56.11,0,.23-.13.34-.21,1.36-1,2.76-1.92,4.07-3a34.8,34.8,0,0,0,2.55-2.46.64.64,0,0,0,.11-.27,1.31,1.31,0,0,0-.28.09c-1.41.94-2.82,1.89-4.24,2.82-.51.33-1.07.6-1.59.94s-1.33.63-1.42,1.07c-.14.68-.71.91-.94,1.43a4,4,0,0,1-1.92,2.11c-.12.06-.19.2-.29.29-1,.93-1.93,1.9-3,2.78-.87.75-1.82,1.41-2.77,2.08a7.23,7.23,0,0,1-1.12.54l1-1.13c.13-.15.23-.33.35-.5-.21,0-.41-.06-.61-.07a1.24,1.24,0,0,0-.33,0c-2.3.56-4.63,1-6.9,1.7a108.26,108.26,0,0,1-11,2.43,1.06,1.06,0,0,1-.34-.06c.07-.1.12-.26.21-.3a7.06,7.06,0,0,1,1.08-.33c.53-.1,1.08-.11,1.61-.23,2.39-.56,4.78-1.15,7.17-1.71.73-.17,1.5-.22,2.22-.44,2.28-.7,4.53-1.48,6.81-2.18a1.78,1.78,0,0,1,1.12.17c.3.15.44.17.68-.08.51-.52,1.07-1,1.6-1.5.88-.86,1.79-1.69,2.62-2.6a16.09,16.09,0,0,0,1.26-1.87,1.23,1.23,0,0,0,.06-.44,2.07,2.07,0,0,0-.44.15c-.7.41-1.36.9-2.08,1.25-2.38,1.16-4.63,2.61-7.22,3.3-2.35.63-4.69,1.29-7,1.9-1.85.49-3.73.89-5.58,1.4-2.35.64-4.67,1.42-7,2s-4.69.85-7,1.39c-1.78.4-3.52,1-5.28,1.53a5.65,5.65,0,0,0-.89.44,3.75,3.75,0,0,0,1.11.24,62.7,62.7,0,0,0,7.73-.92c2.09-.42,4.17-.9,6.25-1.35a.9.9,0,0,1,.4,0c.09,0,.16.12.24.19-.07.07-.13.19-.22.21-.84.21-1.67.44-2.52.61-2.1.41-4.2.82-6.31,1.21-1.38.25-2.75.52-4.15.7a11.5,11.5,0,0,1-2.27,0c-.34,0-.71-.1-.67-.63s-.35-.35-.58-.27c-.75.24-1.49.51-2.21.8-2.45,1-4.89,2-7.35,3-1.07.43-2.19.75-3.27,1.18-2.41,1-4.8,2-7.21,3-.55.22-1.13.35-1.7.55a2.19,2.19,0,0,0-.4.25,3.66,3.66,0,0,0,.44.13,19.33,19.33,0,0,1,8,2.16c1,.56,2,.1,3,.36,0,0,.15-.05.21-.1,1.25-1,2.57-2,3.74-3.13a19.52,19.52,0,0,0,2.07-2.6c.11-.13.1-.35.15-.53a4.41,4.41,0,0,0-.52,0c-1.12.23-2.23.5-3.35.69-1.29.23-2.58.39-3.87.57a1.49,1.49,0,0,1-.63,0c-.13,0-.32-.21-.31-.3a.71.71,0,0,1,.29-.42,1.16,1.16,0,0,1,.47-.11c2.65-.39,5.31-.76,8-1.17a.64.64,0,0,0,.46-.4c.17-.64.53-.38.87-.23.18.07.36.24.52.21q3.21-.51,6.41-1.07c3-.53,6-1.12,9-1.61a64.84,64.84,0,0,0,9-1.56c2.12-.65,4.27-1.17,6.37-1.87a25.75,25.75,0,0,0,3-1.49,4.85,4.85,0,0,1,1.08-.34c.51-.11.68.14.47.59a1.16,1.16,0,0,1-.54.57c-.76.28-1.55.47-2.33.72l-7.14,2.23c-.21.07-.48.09-.6.23A7.13,7.13,0,0,1,129.23,28c-2,1-4,2-6,2.93-1.6.77-3.22,1.49-4.8,2.31-2.2,1.13-4.35,2.36-6.56,3.49-.95.49-2,.84-3,1.28-.54.24-1.19.28-1.39,1.09-.08.31-.63.55-1,.72-.12.05-.37-.26-.58-.33a.82.82,0,0,0-.51,0c-.28.1-.54.25-.81.35-.85.3-1.81,0-2.62.56a2.57,2.57,0,0,1-1.89.51c-.23,0-.54.22-.78.39a10.84,10.84,0,0,0-1.15.87,2,2,0,0,0-.68.84,20.56,20.56,0,0,0-.37,2.22,14.45,14.45,0,0,0,.26,4.45,15.7,15.7,0,0,0,.52,1.9c.19.72-.09,1.57.64,2.13,0,0,.06.15.06.22a9.87,9.87,0,0,0,.07,1.22,24.71,24.71,0,0,0,2,6c.63,1.41,1.37,2.77,2.06,4.15l.44,1c.18-.32.41-.62.56-1,.65-1.49,1.36-3,1.89-4.5s.84-3.13,1.26-4.7c.34-1.26.71-2.51,1.05-3.77.1-.36,0-.53-.4-.34s-1.17.42-1.76.61a10.25,10.25,0,0,0-3,2,2.16,2.16,0,0,1-.54.2c.06-.19.07-.44.2-.55a13.06,13.06,0,0,1,2.49-1.94c.93-.44,1.89-1.13,3.07-.83.1,0,.36-.21.39-.35a10.92,10.92,0,0,1,1.25-3.68.9.9,0,0,0,0-.37,1.42,1.42,0,0,0-.42.08c-1.56.75-3.13,1.5-4.67,2.3-.71.36-1.37.83-2.06,1.24a3.25,3.25,0,0,1-.7.26s-.17-.26-.13-.33a1.46,1.46,0,0,1,.44-.61c.52-.3,1.1-.51,1.64-.79,1.47-.74,3-1.45,4.38-2.27.85-.49,2.07-.6,2.28-1.89,0-.29.12-.57.19-.85a4.49,4.49,0,0,0-.9.18,5.8,5.8,0,0,0-.93.47c-.91.5-1.8,1.06-2.74,1.52s-2.18.93-3.27,1.39h0c0-.37.18-.47.5-.61a21.51,21.51,0,0,0,3.3-1.53,8.94,8.94,0,0,1,2.87-1.63,2,2,0,0,0,1.85-1.5,5.59,5.59,0,0,0,.31-1.64c0-.43.09-.54.43-.58s.84.08.94-.07c.41-.71,1.23-.7,1.79-1.15a11.3,11.3,0,0,1,2-1.11l3.42-1.81a4,4,0,0,1,.79-.41,1.28,1.28,0,0,0,1.1-1.23,2.14,2.14,0,0,1,.14-.72c.07-.17.31-.41.41-.38a.72.72,0,0,1,.48.43,1.65,1.65,0,0,1-.15.77c0,.17-.17.31-.24.48s0,.15,0,.23.14-.1.14-.14c0-.65.68-.43.92-.76.21.16.61.33.6.47a3.17,3.17,0,0,1-.36,1c-.31.73-.63,1.46-.93,2.21a.77.77,0,0,0,.29.22c.58-.46,1.57-.39,1.74-1.38,0-.1.22-.26.32-.24,1.07.19,1.81-.5,2.6-1s1.82-1.25,2.74-1.84,1.91-1.15,2.84-1.77,1.72-1.24,2.6-1.84c1.43-1,3-1.74,4.16-3.13a.61.61,0,0,1,.37-.17,2.83,2.83,0,0,0,2.22-1.34c.05-.09.24-.09.35-.16.83-.55,1.66-1.1,2.48-1.67.11-.08.14-.28.21-.42a2.36,2.36,0,0,0-.44-.07c-.33,0-.78.21-.95.06-.65-.58-1.05-.08-1.55.22S142,24.74,141.11,24.66ZM101.2,27.15l0-.13a14.25,14.25,0,0,0,2.38-.4c1.45-.5,2.87-1.13,4.29-1.72.45-.19.89-.41,1.32-.64.1-.05.14-.2.2-.3a1.59,1.59,0,0,0-.3-.06c-.52,0-1,.07-1.55.09-1.33,0-2.66.08-4,.08a3.5,3.5,0,0,1-.92-.25l.81-.44h.08l5.68.14a10.16,10.16,0,0,0,1.46,0,14.32,14.32,0,0,0,4.62-1.83c1.52-.77,3.05-1.53,4.54-2.37a30.7,30.7,0,0,0,2.82-1.88c.86-.61,1.65-1.33,2.53-1.9a18.54,18.54,0,0,1,2.5-1.31,14.72,14.72,0,0,1,1.51-.47c.1,0,.23-.25.2-.3a.5.5,0,0,0-.34-.25,18.19,18.19,0,0,0-2-.1c-1.6,0-3.2,0-4.79.08-2,.16-4.09.46-6.14.7-.64.08-1.3.12-1.94.22-1.45.24-2.82.89-4.34.88a7.5,7.5,0,0,0-1.74.32c-.16,0-.28.23-.42.35a28,28,0,0,1-2.65,2.12A25.53,25.53,0,0,1,100,20.36c-2.4.87-4.74,1.91-7.11,2.85-.15.06-.37-.05-.55-.08.08-.17.12-.39.25-.5a2.1,2.1,0,0,1,.65-.33c1.1-.4,2.21-.75,3.29-1.19,2.53-1,5.19-1.78,7.44-3.42.13-.09.31-.11.44-.2.86-.6,1.72-1.21,2.56-1.84.1-.08.11-.28.17-.42a1.78,1.78,0,0,0-.46,0c-1.9.53-3.81,1.08-5.71,1.63l-2,.57a1.11,1.11,0,0,0-.27.17c0,.06.09.17.12.17.51,0,1,.59,1.53.13.07-.06.28.06.43.1a3.39,3.39,0,0,1-.32.56c0,.05-.26,0-.39,0-1.39-.15-2.74-.71-4.16-.4-.5.11-1,.34-1.47.47a39.3,39.3,0,0,0-4.6,1.29c-1.23.48-2.54.79-3.8,1.21-2,.67-4,1.37-5.93,2.07a12.06,12.06,0,0,0-3.76,1.67c-.6.48-.66.73,0,1.19s1.29,1.07,2,1.52a1.49,1.49,0,0,0,1,.22c1.14-.21,2.25-.55,3.4-.75a42.67,42.67,0,0,1,8.67-.82c.89,0,1.78,0,2.67.05s1.94.12,2.91.25C98.33,26.67,99.76,26.92,101.2,27.15ZM48.65,69.05a8.18,8.18,0,0,0-3.13.93c-.57.22-.53.61-.05,1,.25.21.49.43.73.65C47.64,73,49.5,73.71,51,75.06a51.25,51.25,0,0,0,5,4.18,13.52,13.52,0,0,1,2.46,2.5c1.45,1.73,2.81,3.54,4.22,5.3a.91.91,0,0,0,.27.18,12.4,12.4,0,0,0,3.79,2c1.35.28,2.69.61,4.06.78,1.07.14,2.17,0,3.25.11a.94.94,0,0,0,.91-.37,2.52,2.52,0,0,1,.4-.4A37.91,37.91,0,0,0,81.86,84c1.07-1.18,2.08-2.41,3.11-3.63.09-.1.08-.28.12-.42a.91.91,0,0,0-.38-.07,14,14,0,0,0-2.61.85c-1.83,1-3.59,2.09-5.39,3.14-.08,0-.23,0-.34,0s0-.24.1-.29c.44-.32.89-.65,1.35-.93s.91-.47,1.34-.73.75-.58,1.15-.82,1.09-.6,1.62-.92a1.26,1.26,0,0,0,.29-.35,1.7,1.7,0,0,0-.39-.18c-1.58-.23-3.16-.47-4.74-.67a1.49,1.49,0,0,0-.72.11c-.63.26-1.25.58-1.88.85A22.65,22.65,0,0,1,71.76,81c-2.33.62-4.69,1.13-7,1.73-.78.2-1.7.1-2.24,1a.74.74,0,0,1-.71,0,.49.49,0,0,1,.13-.82,8.09,8.09,0,0,1,1.52-.59c1.4-.3,2.85-.42,4.22-.82,2.5-.73,5-1.62,7.44-2.44a1.54,1.54,0,0,0,.31-.21c-.13-.06-.26-.17-.39-.17a9.31,9.31,0,0,1-3-.51c-2.07-.73-4.2-1.3-6.3-2a16.25,16.25,0,0,1-2.92-1.1,35.56,35.56,0,0,1-3.36-2.23c-.86-.6-1.64-1.33-2.55-1.86a8.38,8.38,0,0,0-3.34-1.13C51.88,69.69,50.27,69.33,48.65,69.05ZM75.49,96.61c0,1.6.05,1.67,1.23,1.33s2.36-.66,3.54-1c.81-.21,1.63-.42,2.46-.59.18,0,.4.15.6.23-.16.13-.29.32-.47.37-.77.24-1.55.45-2.33.66L75.14,99a.3.3,0,0,0-.16.17c-.6,1.09-1.18,2.19-1.78,3.28a28.45,28.45,0,0,1-1.87,3.22,8.19,8.19,0,0,0-1.92,4.61,5.86,5.86,0,0,1-1.73,4.25,1,1,0,0,0-.17.35,2.51,2.51,0,0,0,.39,0,14.44,14.44,0,0,1,2.53-.64,8.94,8.94,0,0,0,4.09-1.48A62.85,62.85,0,0,0,82,107.58c1.75-1.46,3.54-2.86,5.15-4.48.4-.4.82-.79,1.22-1.2.07-.06.08-.18.12-.27s-.16-.07-.22,0c-.75.24-1.49.47-2.23.72-.33.12-.64.32-1,.41a2.33,2.33,0,0,1-.86,0c-.09-.46.27-.54.63-.66s1-.36,1.44-.56A24.29,24.29,0,0,1,89,100.39,3.2,3.2,0,0,0,90.83,99c.07-.1.12-.33.08-.36a.63.63,0,0,0-.42-.12c-.21,0-.4.17-.61.21-1,.19-1.87,1-3,.6-.11,0-.3.09-.45.16q-.45.18-.9.39c-.91.44-1.83.89-2.75,1.32a11.18,11.18,0,0,1-1.65.67c-.58.16-1.21.12-1.78.3-1.29.4-2.54.89-3.82,1.32a1,1,0,0,1-.62.05c-.15-.05-.23-.29-.35-.45a1.66,1.66,0,0,1,.41-.26c.28-.09.58-.11.86-.19,1.33-.39,2.64-.88,4-1.17a17.49,17.49,0,0,0,3.12-1c1.65-.73,3.28-1.52,4.92-2.27.51-.23,1.06-.39,1.59-.57a.37.37,0,0,1,.22,0,1.94,1.94,0,0,0,2.51-1c.13-.24.28-.47.4-.71s.13-.35.2-.52a2,2,0,0,0-.6,0c-1.66.75-3.52.88-5.16,1.74-1.15.6-2.42,1-3.62,1.46-.18.08-.43.25-.45.4-.09.58-.53.63-.94.74s-.64.14-1,.23c-1.82.51-3.63,1-5.45,1.53-.41.11-1,.13-1.08-.43s.53-.48.87-.54c1.48-.29,3-.51,4.47-.8a4.22,4.22,0,0,0,1.25-.55c.23-.13.35-.46.59-.56,2-.85,4-1.67,5.93-2.51a2.2,2.2,0,0,0,.38-.24,1.64,1.64,0,0,1-.39-.22,1.12,1.12,0,0,1-.27-.44s.15-.2.26-.24c1.12-.34,2.23-.69,3.36-1,.49-.13,1-.13,1.5-.27a1,1,0,0,0,.56-.48,1.6,1.6,0,0,0,0-.69c-.22.08-.44.17-.66.24-.82.26-1.63.56-2.47.77-1.13.28-2.29.42-3.41.74-1.32.38-2.61.89-3.91,1.34-.9.3-1.8.59-2.71.87-.11,0-.26-.08-.39-.13.27-.6-.12-.42-.41-.34-.91.25-1.82.52-2.75.75-.15,0-.35-.13-.53-.2.11-.18.19-.49.34-.53,1-.29,2-.54,3-.76,1.67-.35,3.36-.61,5-1,1.31-.33,2.57-.85,3.87-1.22,1.48-.42,3-.77,4.47-1.16a1.92,1.92,0,0,0,.68-.26c.11-.09.11-.33.17-.5a1.14,1.14,0,0,0-.42-.11c-.59.1-1.17.28-1.75.32-.9,0-1.77.66-2.7.1-.17-.1-.49,0-.72.06l-8.35,2.19c-.18,0-.43.11-.54,0-.51-.4-.86,0-1.23.22s-.49.44-.76.61A2.8,2.8,0,0,0,75.49,96.61ZM47.77,53.42a24.12,24.12,0,0,0,9.16-1.25c1.29-.5,2.53-1.13,3.79-1.71a1,1,0,0,0,.35-.32c.46-.73.92-1.46,1.37-2.21.11-.19.48-.47,0-.61-.26-.07-.69-.46-.78.23,0,.14-.16.27-.24.41-.55.82-1.09,1.65-1.67,2.45-.13.17-.41.23-.63.35a4.87,4.87,0,0,1-.05-.65c0-.1.13-.18.18-.27.49-.93,1-1.86,1.46-2.81.07-.13,0-.33,0-.5-.17.08-.42.11-.5.24-.49.79-.92,1.6-1.4,2.38a1.94,1.94,0,0,1-.47.43c0-.24-.13-.52-.06-.71.21-.52.53-1,.75-1.52A6.67,6.67,0,0,0,59.4,46c0-.17-.14-.37-.22-.57a1.86,1.86,0,0,0-.48.33c-.64.88-1.3,1.76-1.88,2.68-.4.65-.83.26-1.16.06s-.07-.63.09-.9.58-.78.84-1.18c.06-.09,0-.26,0-.4a2.15,2.15,0,0,0-.28.23,9.13,9.13,0,0,1-.84,1.08.78.78,0,0,1-.74,0c-.29-.23-.16-.42.16-.66a7.66,7.66,0,0,0,1.24-1.36A14.75,14.75,0,0,0,57,44.12a3.07,3.07,0,0,0,.25-.59,1.61,1.61,0,0,0-.61.26c-.87.89-1.7,1.81-2.55,2.72l-.36.36c-.11-.12-.28-.23-.3-.37a.68.68,0,0,1,.13-.49c.2-.25.46-.46.67-.7.51-.58,1-1.17,1.52-1.77.23-.28.67-.73.59-.88-.3-.59-.82-.31-1.27-.09a2.5,2.5,0,0,0-.35.21c-.85.67-1.69,1.36-2.57,2a3.75,3.75,0,0,1-1.16.55c-.13,0-.35-.2-.54-.31a4.14,4.14,0,0,1,.6-.52c.11-.06.35.09.45,0,.74-.54,1.46-1.1,2.17-1.67.09-.06.09-.23.13-.35a1.72,1.72,0,0,0-.32,0c-1.69.2-3.4.34-5.09.61-1.87.28-3.72.65-5.58,1-.89.18-1.77.47-2.64.73s-1.87.58-2.8.9c-.73.24-1.56.28-2.1,1-.06.08-.23.09-.36.1a4.27,4.27,0,0,0-1,.07c-1.4.53-2.79,1.1-4.18,1.67a1.46,1.46,0,0,0-.31.3,1.32,1.32,0,0,0,.3.24c.52.18,1.06.29,1.55.5,1.47.63,2.92,1.3,4.37,1.95a22.47,22.47,0,0,0,9.53,1.87ZM42,82.12c-.06.1-.15.29-.25.49-.18-.13-.51-.25-.53-.39a1.41,1.41,0,0,1,.18-1,35.08,35.08,0,0,1,2.57-2.46C45.44,77.5,47,76.27,48.52,75c.12-.1.14-.33.21-.5-.19,0-.41,0-.55.08-.43.28-.8.65-1.23.93-1.1.72-2.23,1.4-3.32,2.14-.53.36-1,.88-1.48,1.25s-.61.51-.52,1a1.22,1.22,0,0,1-.08.45,2,2,0,0,1-.51-.13.68.68,0,0,1-.37-.89,1.28,1.28,0,0,0,0-.55,1.51,1.51,0,0,0-.26.46c-.46,2.73-1,5.45-1.3,8.2a10.35,10.35,0,0,0,.3,4.74c.55,1.45.85,3,2.06,4.09.07.06.07.19.1.29a10.88,10.88,0,0,0,.38,1.14c.46,1,1,1.92,1.41,2.89.2.41.32.86.5,1.27.49,1.09,1,2.18,1.49,3.26.36.79.77,1.55,1.17,2.32a.74.74,0,0,0,.31.24s.14-.08.15-.13c.06-.53.13-1.06.16-1.59a11.29,11.29,0,0,1,.06-1.75,15.53,15.53,0,0,0,.48-5,15.67,15.67,0,0,1,.83-6.54c1-3.4,2.24-6.81,2.15-10.47A25.69,25.69,0,0,1,51,78.92a1.51,1.51,0,0,0,0-.3c-.12,0-.27,0-.35.11-.33.32-.63.67-1,1-1.36,1.41-2.76,2.8-4.09,4.24a10.4,10.4,0,0,0-1,1.63,3.57,3.57,0,0,1-.54.69s-.44-.13-.44-.18a1.5,1.5,0,0,1,.2-.86c1.64-1.93,3.28-3.87,5-5.75.74-.81,1.39-1.81,2.75-1.81.53,0,.59-.54.15-.92-.27-.22-.56-.42-.83-.65a5.67,5.67,0,0,0-.92-.79c-.54-.28-.73.34-1.06.56-1,.68-2.08,1.37-3,2.13a37.1,37.1,0,0,0-2.9,2.56C42.48,81,41.63,81.12,42,82.12Zm6.1,27.44-.14,0c.24,1,.48,1.92.74,2.88a.34.34,0,0,0,.29.05,1.9,1.9,0,0,0,.39-.41c.83-1.14,1.69-2.25,2.49-3.41.94-1.39,1.9-2.77,2.73-4.22s1.57-3.27,2.47-4.85a86.12,86.12,0,0,0,3.83-8.35,15.67,15.67,0,0,0,.69-2.43,1.85,1.85,0,0,0,0-.47,2.36,2.36,0,0,0-.33.29c-.65,1-1.29,2.06-2,3.08a2.41,2.41,0,0,1-.6.47c-.1-.14-.33-.36-.3-.42.43-.7.91-1.37,1.34-2.08s.91-1.52,1.32-2.31c.08-.15,0-.4,0-.6-.2.09-.47.13-.59.28a14.71,14.71,0,0,0-1,1.37c-.46.73-.9,1.48-1.38,2.2-.21.33-.66.72-.91.37s-.24-.93-.88-.93a1.09,1.09,0,0,1,.06-.45c.13-.26.33-.49.47-.75.61-1,1.22-2.11,1.82-3.17a2,2,0,0,0,.13-.43c-.14.07-.34.1-.43.21-.58.74-1.12,1.51-1.72,2.23-.11.14-.39.15-.59.21a4.88,4.88,0,0,1-.12-.55,1.4,1.4,0,0,1,0-.35c-.58,0-.51-.52-.67-.87a.63.63,0,0,0-.42-.33c-.12,0-.28.19-.38.32s-.1.25-.17.37-.2.62-.64.35-.21-.52,0-.75a1.84,1.84,0,0,0,.17-2.57c-.06-.08-.06-.21-.11-.31l-1.44-3.37a2.3,2.3,0,0,0-.21-.33c-.09.13-.25.25-.25.38-.06.89-.08,1.77-.12,2.66a12,12,0,0,1-.1,2c-.28,1.39-.63,2.76-1,4.12s-.78,3-1.31,4.37a9.58,9.58,0,0,0-.67,5.78,2.24,2.24,0,0,1,.06.73c-.18,1.73-.44,3.45-.54,5.18S48.06,108,48.06,109.56Zm35.67-70c-.31,0-.88.13-1.45.24-.09,0-.15.13-.23.2.07.08.13.2.21.22.45.08.9.14,1.35.21.14,0,.28.06.41.09,0,.18,0,.41-.13.52a.65.65,0,0,1-.5.09l-2.55-.56a1.35,1.35,0,0,0-.42.1,2.76,2.76,0,0,0,.29.3,6,6,0,0,0,.81.54c.49.24.86.81,1.53.56,0,0,.14.18.21.28-.21.13-.46.4-.61.35A13.87,13.87,0,0,1,81,42a6.85,6.85,0,0,0-.71-.37.57.57,0,0,0-.44.1c0,.18,0,.5.08.56.68.37,1.4.68,2.07,1,.21.12.32.38.48.58-.21.05-.46.2-.61.14a22.29,22.29,0,0,1-2.28-1.18c-.38-.24-.56-.16-.82.13s-.33.48,0,.78a5.87,5.87,0,0,1,1,1.15c.11.14.07.39.1.59a1.3,1.3,0,0,1-.46-.13c-.42-.38-.81-.79-1.23-1.16a1.69,1.69,0,0,0-.51-.23c-.06.18-.23.4-.18.54a5.78,5.78,0,0,0,.58,1.1c.13.23.34.42.46.65s0,.25-.06.38-.28,0-.36-.08A16.22,16.22,0,0,1,77,45.31c-.25-.29-.41-.52-.75-.12a.85.85,0,0,1-.35.19c-.54.2-.57.52-.24.94a2.48,2.48,0,0,1,.44.68,1.35,1.35,0,0,1-.09.58c-.17,0-.38-.06-.49-.18a3.59,3.59,0,0,1-.56-.78.8.8,0,0,0-1.15-.37,22.94,22.94,0,0,1-3.07,1.1,3.39,3.39,0,0,0-2.42,1.71c0,.08-.21.1-.25.19-.17.37-.33.76-.48,1.14s-.28.7-.44,1c0,0-.32,0-.32-.08a2.38,2.38,0,0,1-.08-1.08,15.41,15.41,0,0,1,.83-1.68.66.66,0,0,0,0-.44s-.26-.07-.37,0a1.16,1.16,0,0,0-.6.35c-.59.92-1.14,1.89-1.72,2.82-.1.16-.32.25-.48.37-.07-.25-.27-.57-.18-.75.42-.84.93-1.64,1.4-2.46a1.78,1.78,0,0,0,.09-.33,1.21,1.21,0,0,0-.39.14c-.39.33-.76.67-1.12,1-.66.69-1.56,1.23-1.47,2.39a.57.57,0,0,1-.15.35,5.62,5.62,0,0,0-1.67,2.87c0,.16-.32.29-.51.4s-.26-.12-.26-.2a1.62,1.62,0,0,1,0-.85c.31-.57.74-1.06,1.05-1.62a5.35,5.35,0,0,0,.43-1.2,1,1,0,0,0-.05-.37c-.11.06-.26.08-.33.17-.26.31-.47.66-.75,1s-.39.36-.55.33-.44-.27-.65-.42c0,.28,0,.57,0,.85a.51.51,0,0,1-.11.22c-.32.53-.68,1-1,1.59-.2.4-.31.85-.47,1.27a7.5,7.5,0,0,0,1.42,0c2.4-.41,4.8-.88,7.21-1.27.53-.08.62-.21.68-.72a3.34,3.34,0,0,1,1.25-2.46c.12-.09.34-.07.51-.1a1.49,1.49,0,0,1,0,.52c-.27.56-.58,1.1-.85,1.66a4.69,4.69,0,0,0-.17.67,5.43,5.43,0,0,0,.69.09c.73,0,1.47,0,2.2,0a7.18,7.18,0,0,0,1.54-.15c.33-.1.59-.46.91-.66a28.12,28.12,0,0,1,4.26-2.68c3.33-1.38,6.74-2.56,10.15-3.73a16.52,16.52,0,0,0,6.16-3.61,2.34,2.34,0,0,0,.24-.31,1.69,1.69,0,0,0-.45,0c-1.09.36-2.17.76-3.27,1.1a18.14,18.14,0,0,1-2.59.64,2.7,2.7,0,0,0-1.36.29,4.21,4.21,0,0,1-1.29.64c-1.35.39-2.73.67-4.08,1.08s-2.91,1-4.4,1.47A5.06,5.06,0,0,0,73.91,50c-.18.2-.63.16-1,.24.11-.3.12-.73.34-.88a8.51,8.51,0,0,1,2-1.09c2-.72,4-1.38,6-2,1.73-.54,3.5-1,5.24-1.5,3-.92,6-1.87,9-2.82a2.54,2.54,0,0,0,1.22-.63A1.46,1.46,0,0,1,98,40.76c.68.09,1.08-.32,1.54-.59.17-.11.22-.53.2-.79s-.33-.23-.52-.31a3.36,3.36,0,0,0-1.91,0,32.66,32.66,0,0,1-4.28.51c-1.53,0-3.07-.22-4.6-.34a1,1,0,0,0-.24,0ZM96,6.44A16.49,16.49,0,0,0,94,6.71c-.34.09-.6.42-.9.63a4.24,4.24,0,0,1-.93.63C90.5,8.55,88.77,9,87.1,9.67c-.72.28-1.67.47-1.7,1.58,0,.07-.16.12-.23.19-.54.59-1.08,1.18-1.63,1.76s-.8.86-1.22,1.27c-1,1.06-2.57,1.62-3.25,3.08-.11.23-.2.47-.3.71l.76-.11a1,1,0,0,0,.16-.06c1.65-.48,3.29-1.07,5-1.42a45.4,45.4,0,0,1,4.67-.54c.41,0,.91.23,1.22.08.94-.46,1.8.06,2.69.06s2,.57,3,.23q3.66-1.23,7.3-2.5c.18-.06.31-.25.46-.38-.17-.12-.33-.3-.52-.33-1.86-.29-3.71-.58-5.57-.83s-3.64-.41-5.44-.69a8.09,8.09,0,0,0-3.06-.12,2.94,2.94,0,0,1-1.2-.15c-.12,0-.19-.26-.29-.4.15-.09.29-.25.44-.26a7.91,7.91,0,0,1,1,.11c2.45.26,4.89.49,7.33.8,1.62.2,3.23.53,4.85.8.24,0,.49.06.72.12a11.94,11.94,0,0,0,4.68.44c.1,0,.29-.24.27-.3a3.8,3.8,0,0,0-1.2-2.15c-.37-.27-.72-.58-1.07-.89-.81-.69-1.56-1.46-2.43-2.07a2.43,2.43,0,0,0-2.54-.37,1,1,0,0,1-.76,0A10.09,10.09,0,0,0,96,6.44Zm-91,55.07c.38,0,1-.06,1.57-.13,1.46-.16,2.92-.31,4.37-.52,2.1-.32,4.21-.57,6.27-1.06A54.82,54.82,0,0,0,22.4,58a22.38,22.38,0,0,0,4.25-1.63,12.4,12.4,0,0,0,4.69-4.68c.46-.88.51-.93-.38-1.28a5.05,5.05,0,0,0-.55-.18l-2.82-.74a1.19,1.19,0,0,1-.43-.23c-.37-.32-.31-.65.16-.82s1.07-.39,1.62-.57c1.8-.6,3.61-1.17,5.41-1.8a7,7,0,0,0,1.42-.83c.06,0,0-.24,0-.37a1.49,1.49,0,0,0-.21,0c-.87.2-1,.2-1-.65s.11-1.94.15-2.92c0-.14-.12-.42-.19-.42a.72.72,0,0,0-.55.17,4.39,4.39,0,0,0-.3.84c-.41,1-.82,1.91-1.24,2.87,0,.1-.2.16-.3.23a3.21,3.21,0,0,1-.07-.43,2.92,2.92,0,0,1,.1-.4c.25-.91.51-1.83.75-2.75A2.16,2.16,0,0,0,33,41c-.18,0-.42-.07-.55,0a1.21,1.21,0,0,0-.45.55c-.35,1-.66,2.06-1,3.08a1.4,1.4,0,0,1-.31.56,1.5,1.5,0,0,1-.54.19c0-.17-.14-.37-.09-.52.31-1,.66-2.06,1-3.1a1.82,1.82,0,0,0,0-.57c-.13.13-.33.25-.39.42-.49,1.2-.93,2.42-1.44,3.61a2.3,2.3,0,0,1-.69.7c-.05,0-.22-.11-.31-.08a8.51,8.51,0,0,0-.85.29c0-.33,0-.67,0-1,0-.05,0-.1.05-.15s.07-.33.1-.49a2.66,2.66,0,0,0-.35.32c-1.26,1.51-2.53,3-3.76,4.56a34,34,0,0,1-4.95,4.65A33,33,0,0,1,11,58.45,44.54,44.54,0,0,1,3.25,61.2c-.08,0-.14.1-.22.15a.58.58,0,0,0,.22.08ZM96.13,78.44v-.07a5.44,5.44,0,0,0-.57,0l-5.87.86c-.46.07-.92.13-1.36.24-.07,0-.17.29-.13.33a2.24,2.24,0,0,0,2,.09,1.73,1.73,0,0,1,.64-.31,1.52,1.52,0,0,1,.53.11,1.88,1.88,0,0,1-.23.56c-.27.3-.61.53-.88.83-.83.93-1.63,1.89-2.46,2.82-.1.11-.31.13-.47.2a1.27,1.27,0,0,1,.11-.5c.51-.67,1-1.32,1.57-2,.36-.42.25-.66-.23-.84s-.76-.29-1.14-.44a1.43,1.43,0,0,0-1.66.19c-.8.77-1.58,1.55-2.37,2.33-1,1-2,2.18-3.15,3.13-1.43,1.21-3,2.27-4.47,3.4a1.06,1.06,0,0,0-.19.23,1.65,1.65,0,0,0,.32.18,7.9,7.9,0,0,1,1.45.46,4.78,4.78,0,0,0,3.32.65c1.81-.32,3.38-1.27,5.18-1.65a50.29,50.29,0,0,0,6.53-2.23,3,3,0,0,0,2.15-2A8.33,8.33,0,0,1,95.29,84a15.66,15.66,0,0,0,.8-2c.2-.72.25-1.48.39-2.22a2.75,2.75,0,0,1,.23-.56,4.6,4.6,0,0,1,.52.56c.35.53-.2,1-.2,1.44A9.06,9.06,0,0,1,96.26,84c-.17.53-.76,1.1-.08,1.7,0,0,0,.14-.06.21-.41.87-.81,1.74-1.22,2.62-.13.27-.06.37.23.24A1.43,1.43,0,0,0,96,88a27.12,27.12,0,0,1,3.75-6.1.64.64,0,0,0,.08-.51c-.25-.86-.5-1.72-.81-2.55a.78.78,0,0,0-.57-.42C97.7,78.41,96.91,78.44,96.13,78.44ZM48.62,54.22h-.41c-.45,0-.74,0-.34.56.16.23,0,.7,0,1.06-.86-.06-1,.38-.75,1.08,0,0-.06.14-.1.21a26.44,26.44,0,0,0-1.18,3.15,29.21,29.21,0,0,0-1.08,4.31.64.64,0,0,1-.4.33c-.06,0-.3-.22-.29-.33a6.31,6.31,0,0,1,.21-1.29c.47-1.69,1-3.37,1.44-5.07a3.61,3.61,0,0,0,0-.81c-.2.21-.41.41-.59.64a1,1,0,0,0-.17.37c-.33.83-.64,1.66-1,2.49a29.83,29.83,0,0,0-2.13,6.84c0,.14-.19.27-.29.4a1.81,1.81,0,0,1-.27-.43c0-.15,0-.4.05-.47.46-.38.32-.91.44-1.39a41,41,0,0,1,2.36-7.15,3.62,3.62,0,0,0,.14-1c-.26.24-.63.43-.77.73a45.28,45.28,0,0,0-1.93,4.47,41.33,41.33,0,0,0-.95,4.17c0,.09-.09.26-.12.25s-.31,0-.35-.12a1.09,1.09,0,0,1-.13-.6c.33-1.37.7-2.73,1-4.09a1.89,1.89,0,0,0,0-.53c-.13.11-.31.2-.37.34-.28.64-.51,1.31-.78,2-.59,1.39-1.19,2.78-1.79,4.16-.07.16-.16.31-.24.46a2.23,2.23,0,0,1-.16-.56,1.14,1.14,0,0,1,.13-.46c.66-1.69,1.29-3.38,2-5,.42-1,.91-2,1.34-3a1.61,1.61,0,0,0,0-.54,2.33,2.33,0,0,1-.38.26c-1.08.53-1.42,1.63-1.85,2.57-1.12,2.46-2.09,5-3.14,7.46-.05.14-.25.22-.38.33a1.46,1.46,0,0,1,0-.51c.27-.74.58-1.46.86-2.2a4.2,4.2,0,0,0,.17-.7c0-.07,0-.15-.07-.22s-.16.06-.19.12a16.06,16.06,0,0,0-1.07,2.16c-.54,1.56-1,3.16-1.44,4.75-.28,1-.55,2-.76,3s-.32,1.88-.44,2.83c-.05.32.14.37.4.22.93-.52,1.88-1,2.8-1.57a20.89,20.89,0,0,0,2-1.31A6.91,6.91,0,0,0,39.44,75,5,5,0,0,1,41,73.53l.06-.06,1.71-1.63c.36-.34,1-.64.14-1.14a.33.33,0,0,1-.11-.29c.31-.68-.21-1.24-.29-1.86s.11-.75.55-.75a20.16,20.16,0,0,1,2.18.16c.47.06.84.05,1.06-.47A8,8,0,0,1,47,66.28a11.22,11.22,0,0,0,1.5-5.91,1.36,1.36,0,0,0-.13-.42c-.13.07-.32.11-.38.23-.24.43-.43.9-.65,1.35a1.53,1.53,0,0,1-.29.38s-.14,0-.21,0a1,1,0,0,1,0-.14,11.87,11.87,0,0,1,.41-1.32c.71-1.66,1.44-3.32,2.18-5C50,54.19,50,54.18,48.62,54.22Zm4.53,13,0,.13a10.54,10.54,0,0,0,1.13-.09c.12,0,.31-.19.3-.23-.34-.91.36-1.4.86-1.83.91-.77,1.45-2,2.73-2.32.09,0,.15-.16.23-.23.49-.41.95-.88,1.48-1.24,1.07-.72,2.16-1.4,3.27-2.06s2.14-1.25,3.23-1.85,2.45-1.35,3.68-2l.25-.15-.3,0c-1.66-.33-3.27.17-4.9.3-1.41.11-2.8.4-4.19.65-1,.19-2.1.42-3.14.66-.25.06-.46.33-.7.34-1.47.08-2.57,1-3.84,1.6-.21.09-.33.39-.5.59s-.28.42-.38.41a.73.73,0,0,1-.54-.37,1.22,1.22,0,0,1,0-.92c.88-1.21,1.11-2.68,1.67-4,.21-.5,0-.66-.43-.53a.8.8,0,0,0-.49.41c-.34.82-.65,1.66-.94,2.5s-.46,1.56-.75,2.32c-.07.17-.4.25-.6.38-.09-.22-.27-.44-.24-.63a5.36,5.36,0,0,1,.37-1.22c.39-1,.82-2,1.19-3,.19-.51,0-.66-.48-.52-.19.06-.47.18-.51.33-.36,1.1-1.49,2-.79,3.39a.67.67,0,0,1-.06.55,6.68,6.68,0,0,0-.67,3.07A12,12,0,0,1,47.6,66.3c-.26.44-.42.94-.65,1.39s-.05.66.37.61c.94-.11,1.88-.27,2.81-.44S52.14,67.43,53.15,67.21Zm1.19.62V68a11.84,11.84,0,0,0-1.46,0c-.78.1-1.56.27-2.33.42-.08,0-.14.13-.2.2a.61.61,0,0,0,.21.11l.48.07a16.5,16.5,0,0,1,3.9.7,47.62,47.62,0,0,1,5.49,3.06,21.05,21.05,0,0,0,2.7,1.91A74.2,74.2,0,0,0,70.65,77a37.05,37.05,0,0,0,5.44.94c1.18.14,1.56-.37,1.14-1.33a21.64,21.64,0,0,0-1.66-3.21,28.29,28.29,0,0,0-2.39-2.86,1.91,1.91,0,0,0-.74-.41c-.35-.13-.73-.2-1.1-.3a22.9,22.9,0,0,0-2.42-.68c-1.44-.23-2.91-.4-4.37-.52C61.15,68.36,57.75,68.1,54.34,67.83Zm7-49.24v0a3.63,3.63,0,0,0-.57,0L57.24,19l-6.78.83c-.42,0-.53.21-.22.58.59.7,1.12,1.45,1.72,2.14a2.35,2.35,0,0,0,2.34.88c3.35-.56,6.76-.61,10.07-1.48A2.4,2.4,0,0,0,66,21c.08-.11.36-.14.53-.11s.32.2.3.27-.15.46-.3.52c-.84.34-1.7.65-2.58.91-2.86.85-5.85.82-8.76,1.3-.35.06-.69.1-1,.17-.08,0-.15.12-.23.18a1.5,1.5,0,0,0,.24.2,19.57,19.57,0,0,0,8.77,2.8,16,16,0,0,0,4.77-.14,10.42,10.42,0,0,0,3.79-1.78.52.52,0,0,0,.07-.48c-.77-.83-1.54-1.67-2.37-2.44-1.12-1-2.3-2-3.45-3-.56-.5-1.13-.85-1.89-.42a.84.84,0,0,1-.46,0c0-.74-.54-.45-.88-.45S61.72,18.56,61.34,18.59ZM35.69,60.17l0,.14c.9-.27,1.81-.5,2.68-.83,1-.39,2-1,3.08-1.27a1.66,1.66,0,0,0,1.34-1.49A13.26,13.26,0,0,0,43,55.18c.05-.8-.14-1.06-.81-1.08a.73.73,0,0,0-.55.28c-.37.68-.69,1.38-1,2.09-.1.23-.1.54-.26.74s-.54.08-.56,0a1.52,1.52,0,0,1-.13-.9,18.49,18.49,0,0,1,.81-1.68c.13-.26.25-.52.37-.78a8.48,8.48,0,0,0-1.13-.11c-.1,0-.22.19-.32.31a6,6,0,0,0-.6.73c-.37.64-1.07,1.12-.92,2,0,.06-.28.27-.39.25-.48-.12-.62-.5-.31-1,.41-.73.89-1.42,1.33-2.13.08-.12.18-.31.14-.39a.88.88,0,0,0-1.23,0c-.47.63-.94,1.26-1.37,1.91-.23.35-.37.77-.59,1.12-.09.14-.37.31-.44.26s-.41-.33-.39-.49a1.86,1.86,0,0,1,.38-.7l1.47-2.33a1.91,1.91,0,0,0,.13-.36,1.26,1.26,0,0,0-.45-.08,1.09,1.09,0,0,0-.53.31c-.7.9-1.36,1.82-2.06,2.72a1.46,1.46,0,0,1-.59.41c-.09,0-.38-.14-.37-.16a2.13,2.13,0,0,1,.29-.71c.6-.8,1.24-1.57,1.82-2.38.13-.17.19-.57.08-.68-.25-.27-.51-.12-.73.16-.64.84-1.29,1.66-2,2.45a1.45,1.45,0,0,1-.76.31c-.07,0-.29-.16-.28-.19a2.23,2.23,0,0,1,.31-.7c.58-.75,1.2-1.46,1.76-2.21.11-.14.05-.41.07-.61-.23,0-.58-.07-.66,0-.53.7-1,1.46-1.47,2.18a5.82,5.82,0,0,1-.91,1.17,11.8,11.8,0,0,1-1.65,1.14,15.46,15.46,0,0,1-2.65,1.56c-2,.77-4,1.41-6,2.05-1.71.54-3.45,1-5.17,1.5-.1,0-.18.14-.27.21a1.72,1.72,0,0,0,.29.11l2.87.37h.33c2.12,0,4.24,0,6.36-.06,1.38,0,2.76-.18,4.14-.31,1.15-.11,2.31-.2,3.44-.41s2.2-.1,3.13-.8C35.16,60.16,35.46,60.2,35.69,60.17Zm18,48a5.52,5.52,0,0,0,.75-.17c1.66-.67,3.33-1.33,5-2a6.5,6.5,0,0,0,1.88-.94,30.93,30.93,0,0,0,2.93-3,17.83,17.83,0,0,0,1.94-2.71c.72-1.26,1.31-2.61,1.93-3.93.07-.15.1-.45,0-.51-.57-.39-.24-.84-.1-1.24.27-.77.63-1.5.91-2.26a2.49,2.49,0,0,0,0-.72c-.34.09-.79-.32-1,.31-.52,1.39-1.6,2.55-1.7,4.12a.57.57,0,0,1-.44.33.72.72,0,0,1-.45-.45.89.89,0,0,1,.14-.61c.55-1.15,1.14-2.29,1.68-3.44.07-.15,0-.53-.09-.55-.3-.08-.79-.18-.91,0a6.23,6.23,0,0,0-.76,1.42c-.46,1.06-.88,2.15-1.33,3.21a1.82,1.82,0,0,1-.35.39c-.13-.15-.39-.32-.37-.45a4.57,4.57,0,0,1,.39-1.38c.59-1.12,1.25-2.19,1.86-3.3,0-.09-.13-.42-.15-.41-.28.07-.7.09-.81.28a27.4,27.4,0,0,0-1.6,3c-.19.42-.43.4-.76.38a1.89,1.89,0,0,1,0-.68c.5-1,1.07-2,1.55-3a.77.77,0,0,0-.11-.74c-.35-.29-.51.07-.65.34-.78,1.42-1.57,2.84-2.33,4.27-.22.4-.35.85-.56,1.26l-1.9,3.74c-.94,1.86-1.85,3.73-2.8,5.59-.59,1.16-1.22,2.3-1.82,3.46C53.61,107.77,53.67,108,53.67,108.13Zm56.42-51.71c.36,2.57.45,4.91,1.8,6.93.88,1.33,1.75,2.66,2.64,4a3.57,3.57,0,0,0,.55.55,2.85,2.85,0,0,0,.39-.67c.36-1.69.79-3.38,1-5.1a21.67,21.67,0,0,0,.21-6.58c-.19-1.09-.29-2.2-.5-3.29-.47-2.36-.66-4.82-2.47-6.69-.09-.09-.09-.26-.12-.39a16.15,16.15,0,0,0-.4-1.7,5.52,5.52,0,0,0-.62-1,10.22,10.22,0,0,0-.66,1c-.23.43-.58.93.23,1.19a.53.53,0,0,1,.25.4,8.1,8.1,0,0,1-.4,4.17,12.82,12.82,0,0,0-1.23,2.53C110.4,53.34,110.28,55,110.09,56.42Zm13.67,13.35a12.67,12.67,0,0,1-.63-1.64c-.15-.61-.45-.56-.8-.28-1,.79-2,1.6-3,2.43s-2.1,1.87-3.15,2.8a1.11,1.11,0,0,1-.52.23c-.16,0-.47,0-.48-.06a1.27,1.27,0,0,1,0-.67c0-.1.21-.14.32-.23.92-.67,1.85-1.33,2.73-2a27.29,27.29,0,0,1,3.4-2.75c1.09-.59,1.13-1.7,1.8-2.44,0,0,0-.14,0-.21s-.15,0-.2.07c-1.18,1-2.34,2.06-3.54,3.06-.83.69-1.71,1.3-2.56,2-.19.15-.32.41-.52.5a1.64,1.64,0,0,1-.66,0c0-.19,0-.43.16-.56a5.11,5.11,0,0,1,.77-.6c.71-.52,1.46-1,2.15-1.55,1.26-1,2.45-2.14,3.73-3.13a3.5,3.5,0,0,0,1.62-1.86c.1-.2.23-.37.34-.56a2.66,2.66,0,0,0,.23-.52c0-.08,0-.19-.08-.29s-.22,0-.28.12-.3.47-.37.45c-.68-.22-1,.33-1.35.65-1.48,1.35-2.9,2.75-4.36,4.12A1,1,0,0,1,118,67c-.08,0-.29-.21-.28-.3a.91.91,0,0,1,.29-.49c.41-.31.89-.53,1.27-.87.68-.6,1.28-1.29,2-1.89a21.54,21.54,0,0,0,2.86-2.71c.28-.37.15-.55-.11-.72-.56-.37-.67.09-.83.49a1.65,1.65,0,0,1-.34.42,3.24,3.24,0,0,0-.36-.38c-.19-.15.12-.75-.46-.52a2.61,2.61,0,0,0-.74.43c-.25.2-.41.5-.65.72a12.62,12.62,0,0,0-3.07,3.56c0,.07-.11.16-.16.15-.58,0-.54.48-.63.8-.25.8-.39,1.65-.67,2.44-.4,1.09-.88,2.15-1.34,3.22-.13.29-.29.63-.74.42s-.66-.38-.46-.87c0-.09,0-.24-.06-.36a2.94,2.94,0,0,0-.57.26c-.06,0-.07.28,0,.29.55.24.15.41,0,.63a9.53,9.53,0,0,0-.62.94.47.47,0,0,0,.32.76A7.15,7.15,0,0,1,115.34,75a.64.64,0,0,0,.55.12,6.88,6.88,0,0,0,1-.79c1.51-1.35,3-2.72,4.53-4.07a1.91,1.91,0,0,1,.74-.26c.06,0,.21,0,.21.08a.44.44,0,0,1-.08.28c-.59.53-1.19,1-1.76,1.57-1.37,1.29-3,2.33-4,4a.84.84,0,0,0,0,.74c.17.3.46.3.75,0,.56-.5,1.12-1,1.73-1.46s1.42-1,2.15-1.4c.11-.07.3,0,.46,0a3,3,0,0,1-.29.32c-.2.19-.41.35-.61.53-.4.35-.74.86-1.21,1-1.12.44-1.18,1.69-2,2.36,0,0,0,.2.09.29.38.8.75,1.6,1.16,2.39.08.16.28.26.43.39.14-.16.39-.31.4-.48,0-.92.69-1.42,1.25-2a3.17,3.17,0,0,0,1.14-2.59,7,7,0,0,1,.69-3.8C123.19,71.48,123.45,70.62,123.76,69.77Zm1.74-42v-.08l-4.16.63c-2,.32-4.11.64-6.16,1-1.57.28-3.13.63-4.7.93-1.09.22-2.18.41-3.28.6a1.17,1.17,0,0,0-.81.55,22.15,22.15,0,0,1-2.52,3.18c-1.19,1.17-2.56,2.17-3.84,3.25a1.68,1.68,0,0,0-.24.29c.11.06.22.17.33.17a18.36,18.36,0,0,0,3-.09,14.19,14.19,0,0,0,2.42-.9c2.55-.93,5.11-1.84,7.67-2.75,1.27-.46,2.6-.8,3.82-1.37,1.37-.64,2.65-1.45,4-2.21s2.88-1.73,4.32-2.58c.46-.27.82-.24.81.4,0,.33,0,.4.34.21.87-.51,1.76-1,2.64-1.5a2.34,2.34,0,0,0,.31-.24,2.06,2.06,0,0,0-.42,0C127.8,27.38,126.65,27.57,125.5,27.76Zm-14,19.33c-.05-.42-.09-.85-.15-1.28,0-.09-.12-.16-.19-.24a1.43,1.43,0,0,0-.2.23c-.08.13-.14.28-.22.43a25.25,25.25,0,0,0-1.89,5c-.58,1.91-1.18,3.81-1.74,5.72-.28,1-.45,2-.74,2.92-.52,1.74-1.09,3.46-1.66,5.18-.37,1.14-.78,2.26-1.18,3.39-.17.49-.18.78.54.77a20.06,20.06,0,0,1,2.65.29,36.62,36.62,0,0,1,3.78.56,4.26,4.26,0,0,0,2.38-.12,1.22,1.22,0,0,0,.79-2c-.7-1.19-1.48-2.33-2.17-3.53a11.86,11.86,0,0,1-1.45-2.89,17.17,17.17,0,0,1-.86-6.25,20.2,20.2,0,0,1,.28-2.34,7.17,7.17,0,0,1,1-2.87A3.91,3.91,0,0,0,111.54,47.09Zm-27,24.23L80.43,72c-.38.06-.38.26-.18.51A26.85,26.85,0,0,0,82,74.6c1.22,1.26,2.49,2.48,3.79,3.66a2,2,0,0,0,1.22.48c1,0,1.93-.28,2.89-.4,2.37-.31,4.73-.59,7.09-.9.25,0,.65-.14.68-.28a1.06,1.06,0,0,0-.22-.79,18.78,18.78,0,0,0-2.6-2.44,8.84,8.84,0,0,0-4.4-2.05C88.44,71.54,86.43,71.49,84.55,71.32ZM82,29.28v0a2,2,0,0,0-.48,0,2.27,2.27,0,0,0-.5.17,2.55,2.55,0,0,0,.43.3c1,.42,2,.82,2.93,1.23.15.06.38.14.4.25a1.63,1.63,0,0,1,0,.82.69.69,0,0,1-.58.07c-1.69-1-3.35-2-5-2.95a1,1,0,0,0-.52-.16,6.06,6.06,0,0,0-1.6.23c-1.43.51-2.81,1.16-4.25,1.64a6.38,6.38,0,0,0-2,1.52.44.44,0,0,0,0,.39c1.12.63,2.23,1.26,3.38,1.82a8.33,8.33,0,0,0,4.63.55,5.73,5.73,0,0,1,1.6.11c.48.08.86.1,1-.46a.57.57,0,0,1,.3-.31c1.69-.46,3.38-.89,5.07-1.36.94-.26,1.87-.56,2.79-.87a1.9,1.9,0,0,0,.5-.37,2.31,2.31,0,0,0-.34-.42,8.67,8.67,0,0,0-3.57-1.7A35.14,35.14,0,0,0,82,29.28Zm42.7-7c.84-.23,1.68-.46,2.52-.67s1.83-.42,2.72-.69c1.7-.51,3.38-1.11,5.09-1.59,1.12-.32,2.29-.45,3.41-.76,2-.54,3.9-1.13,5.84-1.74a15.11,15.11,0,0,0,2.26-.88c1.22-.61,2.41-1.3,3.61-2,1.38-.76,2.77-1.49,4.11-2.31a26.66,26.66,0,0,0,4.8-3.88c.15-.15.14-.45.21-.69-.27,0-.59-.17-.81-.08-1.45.66-2.87,1.39-4.32,2-1.88.84-3.78,1.64-5.68,2.44-2.28.95-4.26,2.47-6.67,3.22a65.05,65.05,0,0,0-6.35,2.66l-7.14,3.08L124.7,22a2.46,2.46,0,0,0-.27.17ZM90.49,48.31a5.94,5.94,0,0,0-1.08.18c-.18.07-.45.44-.42.49.54.73.05,1-.53,1.23-.09,0-.14.22-.18.35q-.91,2.86-1.82,5.73c-.47,1.47-.86,3-1.39,4.42a12.79,12.79,0,0,1-2.34,4.08c-.27.3-.38.56.15.78.85.37,1.63.91,2.5,1.19.62.2,1.36.67,2-.09s1.42-1.47,2.11-2.24c.33-.36.15-.82-.27-1.11a1.21,1.21,0,0,1-.4-.66c-.1-.46-.12-.93-.19-1.4a9.12,9.12,0,0,1-.22-1.34c0-2.3,1.19-4.18,2.3-6.1a29.3,29.3,0,0,0,1.72-3.57,1.29,1.29,0,0,0-.87-1.75A5.93,5.93,0,0,0,90.49,48.31ZM3.24,24.79c-1,0-1.1.06-.68,1A19.93,19.93,0,0,0,7,32.4a1.2,1.2,0,0,0,.85.34,12.18,12.18,0,0,0,2-.44c1.38-.36,2.75-.79,4.14-1.1s2.66-.45,4-.68c.13,0,.24-.16.36-.24-.09-.1-.15-.23-.26-.28-.54-.27-1.08-.51-1.62-.76-1.42-.66-2.82-1.34-4.26-2-1.07-.45-2.19-.76-3.26-1.22A16.86,16.86,0,0,0,3.24,24.79Zm2.16-1-1,.06c-.08,0-.16.08-.24.12.08.05.17.15.25.15a13.57,13.57,0,0,1,4.8,1.2c2.15.94,4.33,1.82,6.49,2.74,1,.42,1.92.88,2.89,1.31a1.79,1.79,0,0,0,.46.09,1.18,1.18,0,0,0-.19-.39c-.94-1-1.89-1.92-2.83-2.88a4.11,4.11,0,0,1-.57-.68.44.44,0,0,1,0-.43.52.52,0,0,1,.43,0,1,1,0,0,1,.38.31c1.11,1.16,2.2,2.35,3.33,3.5a12.12,12.12,0,0,0,3.58,2.55,25.38,25.38,0,0,1,2.72,1.46,1.69,1.69,0,0,0,1.6.23c.55-.19.54-.3.15-.76a16.17,16.17,0,0,1-1.89-2.51A6,6,0,0,0,24.33,28c-.12-.1-.28-.22-.32-.36-.2-.67-.76-.71-1.3-.87-1.16-.34-2.3-.71-3.44-1.1A14.15,14.15,0,0,0,17,24.82c-2.38-.39-4.77-.74-7.17-1C8.42,23.71,7,23.82,5.4,23.82Zm67,12.06v-.1c.33,0,.65,0,1,0a1,1,0,0,0,.35-.14,2.62,2.62,0,0,0-.25-.22l-1.18-.7C70.86,33.86,69.45,33,68,32.14a1.32,1.32,0,0,0-.3-.08A11.09,11.09,0,0,1,64.31,30a14.29,14.29,0,0,0-2.87-1.9c-.28-.15-.84.22-1.27.34-.21.05-.43.05-.65.1s-.5.07-.34-.34c0-.08,0-.21-.07-.31a1.5,1.5,0,0,0-.23.2c-.36.46-.68,1-1.08,1.38s-1,1-1.54,1.54c-.1.11-.1.32-.15.48a1.75,1.75,0,0,0,.46-.05c.6-.23,1.2-.48,1.8-.69a1.19,1.19,0,0,1,.49,0c-.12.14-.21.34-.36.42-.66.38-1.34.72-2,1.08a4.25,4.25,0,0,0-.43.31,2.56,2.56,0,0,0,.48.22c1.2.24,2.41.43,3.6.71,2.41.56,4.79,1.23,7.22,1.72C69,35.56,70.69,35.67,72.36,35.88ZM30.89,79.94c.54,0,.58-.3.64-.64a21,21,0,0,1,.5-2.89c1-3.28,2-6.56,3.23-9.78a31.29,31.29,0,0,1,2.19-4.27c.33-.59.78-1.1,1.14-1.67.07-.11,0-.3,0-.45a.73.73,0,0,0-.28.13c-.46.52-1,1-1.37,1.58a22.11,22.11,0,0,0-2.9,5.34c-.09.25-.12.52-.2.78a3.43,3.43,0,0,1-.23.52c-.14-.16-.35-.29-.4-.47a1.09,1.09,0,0,1,.05-.69c.4-.89.83-1.76,1.24-2.65a2.83,2.83,0,0,0,.14-.52,1.94,1.94,0,0,0-.37.32,10.13,10.13,0,0,0-.55.89c-1,1.7-2,3.41-3,5.1-.1.16-.35.22-.53.32,0-.17-.11-.39,0-.52.82-1.52,1.66-3,2.51-4.54.51-.89,1.07-1.76,1.6-2.65a1,1,0,0,0,0-.36A1.27,1.27,0,0,0,34,63a2.44,2.44,0,0,0-.23.33c-.71,1.12-1.41,2.25-2.15,3.34a26.08,26.08,0,0,0-3.95,8,4.93,4.93,0,0,0-.1.86,9.41,9.41,0,0,1-.1,1.77c-.23.84-.21,1,.57,1.39.2.09.37.22.57.31Zm63.05,13.4a7.53,7.53,0,0,1,.34,1.21A9.69,9.69,0,0,0,95.7,99a3.15,3.15,0,0,1,.25.69c.12-.26.25-.51.36-.78a3.48,3.48,0,0,0,.21-.62A21.15,21.15,0,0,1,99,92.77c.94-1.58,2-3.12,3-4.62a1.58,1.58,0,0,0,0-1.93,16.65,16.65,0,0,1-1.29-2.61c-.2-.54-.33-.42-.64-.17A7.73,7.73,0,0,0,98,85.89c-.84,1.51-1.72,3-2.59,4.49-.24.41-.37.76.29.87.11,0,.19.15.29.22a1.9,1.9,0,0,1-.33.31,1.77,1.77,0,0,1-.4.08C94.11,92.1,94,92.19,93.94,93.34ZM51.32,14.86A34.17,34.17,0,0,0,57.91,14l.21-.09c-.07-.1-.12-.23-.22-.29-1.11-.72-2.2-1.5-3.37-2.12a53,53,0,0,0-5.31-2.58,44.34,44.34,0,0,0-4.6-1.37c-.38-.11-.53,0-.37.39s.22.71.35,1.06c.58,1.49,1.12,3,1.77,4.45a2.19,2.19,0,0,0,2.32,1.4C49.56,14.81,50.44,14.86,51.32,14.86ZM83,17.57l-.07-.16c-.37.16-.73.34-1.1.48-.85.31-1.7.61-2.55.89-.28.09-.57.11-.85.18-.13,0-.3.09-.34.18-.6,1.33-1.18,2.67-1.76,4a1.51,1.51,0,0,0-.06.38,1.67,1.67,0,0,0,.39,0l3-1c1.54-.5,3.08-1,4.62-1.48.78-.24,1.58-.39,2.34-.65,1.25-.42,2.49-.86,3.7-1.36.69-.28,1.58-.26,1.93-1.15.05-.13.32-.19.49-.25.41-.15.83-.27,1.24-.41a.8.8,0,0,0,.19-.13c-.07-.06-.14-.16-.22-.17-.65-.05-1.31-.11-2-.13-1.15,0-2.3,0-3.44-.06a7.71,7.71,0,0,0-1.44,0c-1,.2-2.08.48-3.13.71C83.63,17.48,83.31,17.52,83,17.57Zm11.26,83.74.42.3c-.16.16-.29.38-.49.45-.85.31-1.73.56-2.59.86s-1.83.69-2.76,1c-.19.06-.44-.09-.66-.13.13-.19.24-.39.38-.57s.16,0,.22-.1a2,2,0,0,0,.36-.36.44.44,0,0,0-.12-.18,1.42,1.42,0,0,0-.46.23c-2.18,1.89-4.33,3.82-6.54,5.67-1.16,1-2.43,1.82-3.66,2.71-.52.38-1,.75-1.58,1.12-.08.06-.17.1-.25.15.11,0,.24.09.34.06.68-.18,1.34-.46,2-.57a12.38,12.38,0,0,0,3.45-1.14c1-.53,2.15-.91,3.16-1.48s2.16-.82,2.78-1.93a2.28,2.28,0,0,1,.84-.76c1.68-.93,3.39-1.82,5.08-2.72.43-.23.85-.48,1.29-.69a.58.58,0,0,0,.34-.8c-.3-.81-.58-1.63-.94-2.41-.08-.16-.53-.25-.76-.19a34.17,34.17,0,0,0-3.3.89,4.48,4.48,0,0,0-1.17.85.82.82,0,0,0-.17.32,1.27,1.27,0,0,0,.36.12,12.63,12.63,0,0,0,1.38-.12C92.19,101.73,93.15,101.53,94.25,101.31ZM115.41,24c.84-.23,1.72-.48,2.61-.71,1.41-.38,2.83-.7,4.22-1.13,1.06-.32,2.08-.76,3.12-1.14.73-.26,1.48-.45,2.19-.75,1.27-.53,2.51-1.13,3.77-1.7.58-.27,1.16-.57,1.76-.82,1.07-.44,2.16-.84,3.22-1.29.17-.08.39-.37.36-.52-.09-.5.22-.68.56-.88.88-.52,1.77-1,2.64-1.57a1.14,1.14,0,0,0,.26-.35,1.59,1.59,0,0,0-.38-.06c-1.57.16-3.18.07-4.65.84-.35.18-.82.13-1.16.31-.79.41-1.51.94-2.29,1.36-1.45.78-2.92,1.54-4.39,2.28-1.28.64-2.56,1.28-3.87,1.88a9.6,9.6,0,0,0-1.63,1.08,14.15,14.15,0,0,1-2.48,1c-1.36.58-2.69,1.22-4,1.85a1.06,1.06,0,0,0-.23.19Zm-40-1.6c-.23-.51-.43-.89-.58-1.29a3.17,3.17,0,0,0-1-1.51c-1.13-.9-2.19-1.87-3.34-2.74S68,15,66.65,14.09a3.26,3.26,0,0,0-.68-.32c0,.27,0,.53,0,.8a2.85,2.85,0,0,0,.11.39,22,22,0,0,1,.6,3.08,2.91,2.91,0,0,0,1.24,2.39c1.09.83,2.06,1.83,3.15,2.66.59.44,1.11,1.21,2.07.89.5-.18.84-.06.9.54,0,.36.24.38.38.09C74.79,23.87,75.12,23.1,75.45,22.38ZM61.6,17.89V18a9.2,9.2,0,0,0,1,0c.08,0,.21-.32.17-.36a9.85,9.85,0,0,0-1.57-1.65,6.63,6.63,0,0,0-2.43-1.22,9.66,9.66,0,0,0-2.82.18c-1.77.19-3.53.45-5.31.61-.93.08-1.87,0-2.81,0-.27,0-.41.05-.24.38.42.79.81,1.59,1.19,2.39a.91.91,0,0,0,.78.57,16,16,0,0,0,4-.17C56.31,18.51,59,18.16,61.6,17.89Zm26,8.9v.15c-.54,0-1.08.06-1.61.16-1.8.35-3.61.72-5.41,1.1a5.69,5.69,0,0,0-.65.24l.7.27h.08c1.68.15,3.36.24,5,.44A8.52,8.52,0,0,1,91,31.23a.78.78,0,0,0,.69.06c2.68-1,5.35-2.11,8-3.18.1,0,.17-.17.25-.25a1,1,0,0,0-.34-.13c-.84-.05-1.68,0-2.51-.15a8,8,0,0,1-1.41-.52c-1.46-.48-3-.16-4.45-.25C90,26.74,88.82,26.79,87.63,26.79Zm7.42,21.43c-.2-.94-.32-1.69-.53-2.42a4.92,4.92,0,0,0-.55-1l-.64.84c-.11.14-.23.26-.35.39-.09-.11-.24-.21-.27-.34-.1-.44-.27-.27-.5-.1a9.87,9.87,0,0,1-1.85,1.28c-1.22.52-2.51.87-3.77,1.29s-2.81.64-3.23,2.33c0,.17-.07.35-.11.52a2.31,2.31,0,0,0,.59-.14c1-.48,2-1,3-1.48a6.8,6.8,0,0,0,.84-.6,15,15,0,0,1,1.18-1,3.12,3.12,0,0,1,3.06-.07,2.06,2.06,0,0,1,1.26,2.92,16.6,16.6,0,0,1-1,2c-.82,1.59-1.76,3.12-2.45,4.76a4.1,4.1,0,0,0,0,3.92,3.19,3.19,0,0,0,.33.4c.1-.15.26-.28.29-.45a6.16,6.16,0,0,1,1.53-3.08c.6-.63,1.18-1.28,1.71-2A3.23,3.23,0,0,0,94.32,55a7.49,7.49,0,0,0-.14-1.81c-.92-.1-.44-.6-.31-1C94.29,50.77,94.69,49.42,95.05,48.22ZM84.43,79l.64-.16c-.13-.16-.24-.33-.37-.47-1.69-1.84-3.4-3.64-5-5.51-.74-.83-.85-.94-1.87-.57-.13,0-.25.12-.37.15-.63.19-1.32,0-1.41-.57-.14-1-.86-1-1.5-1.22a2.22,2.22,0,0,0-.45,0,3.54,3.54,0,0,0,.19.33c.46.53,1,1,1.37,1.59a14.73,14.73,0,0,1,1.75,2.59c.44,1,1.29,1.77,1.24,3,0,.11.23.31.37.33C80.77,78.63,82.58,78.82,84.43,79Zm32.65-26.58-.12,0a5.31,5.31,0,0,0,.11.8.4.4,0,0,0,.35.12c1.15-.65,2.28-1.34,3.44-2a2.72,2.72,0,0,1,.83-.15c0,.31,0,.61,0,.91s-.07.9.14,1.09c.47.45.52.52,0,1-.21.17-.49.49-.45.68a2.14,2.14,0,0,1-.21,1.47,1.78,1.78,0,0,0,0,.8c0,.38.23.5.51.18s.77-.89,1.12-1.35c.64-.84,1.22-1.71,1.89-2.53.24-.29.15-.35-.06-.56a16.76,16.76,0,0,1-1.21-1.31c-.41-.49-.83-1-1.21-1.51a.61.61,0,0,0-1-.15c-.69.52-1.39,1-2.1,1.52-.29.2-.66.44-.91,0-.1-.15.1-.63.3-.78a17.17,17.17,0,0,1,1.92-1.2c.39-.22,1.09-.31,1.16-.59s-.28-.88-.42-1.34-.37-.53-.69-.13a1,1,0,0,1-.23.22c-1,.56-2,1.1-3,1.65a1,1,0,0,0-.54,1.21C116.82,51.17,116.94,51.8,117.08,52.44Zm-80.34-24,1.79-.37,4.65-1,4.35-.94c1.27-.28,2.56-.48,3.8-.84,1.45-.41,1.44-.47.4-1.58-.84-.91-1.36-1-2.48-.37-.14.08-.34.22-.44.17-.86-.46-1.59.1-2.3.36-2.1.77-4.15,1.67-6.21,2.54-1.22.52-2.42,1.1-3.62,1.66-.1,0-.15.2-.22.3Zm.43,12.14c0,1.09.15,1.21.91,1.07,2.78-.5,5.56-1,8.34-1.46,2.2-.36,4.42-.63,6.62-1,.18,0,.33-.2.5-.31a1.69,1.69,0,0,0-.54-.23c-1.21-.11-2.42-.22-3.64-.27-1-.05-2.11,0-3.17,0-.81,0-1.62,0-2.42.06s-1.63.1-2.43.23a17.81,17.81,0,0,0-1.86.53,6.09,6.09,0,0,0-1.44.48A4.17,4.17,0,0,0,37.17,40.61ZM87.34,50.79c0-.41-.13-.6-.52-.47a9.2,9.2,0,0,0-1.73.65,12.27,12.27,0,0,0-2.36,1.67c-.36.35-.4,1-.61,1.53a2.26,2.26,0,0,1-.25.38c-.11-.1-.29-.19-.3-.29,0-.45-.28-.35-.47-.16-.38.38-.69.83-1.08,1.2a32.89,32.89,0,0,0-3.79,5.06,1,1,0,0,0-.08.3.94.94,0,0,0,.34-.07l6.11-4.43a8.91,8.91,0,0,0,2-1.85c.48-.64,1.16-1.12,1.66-1.75A16.88,16.88,0,0,0,87.34,50.79ZM84.09,37.47v-.11c-.54,0-1.09,0-1.63,0-.2,0-.39.19-.58.3.15.18.28.48.46.52a13.44,13.44,0,0,0,1.69.13c.18,0,.51,0,.53,0,.15.55.55.29.85.29,1,0,1.9,0,2.85,0,1.48.07,3,.26,4.44.26a27.92,27.92,0,0,0,3.4-.32c.11,0,.21-.13.32-.21a2.2,2.2,0,0,0-.23-.2,10.78,10.78,0,0,0-2.56-1.33,42.74,42.74,0,0,0-5.86-.9,10.9,10.9,0,0,0-2.8.41c-.13,0-.23.19-.34.3a1.49,1.49,0,0,0,.4.15l2.1.13a2.09,2.09,0,0,1,.43.11,1.76,1.76,0,0,1-.4.33,1,1,0,0,1-.47.09Zm-39-31.22-.55.26a2.66,2.66,0,0,0,.6.43,9.66,9.66,0,0,0,1.48.44c3.22.64,6,2.38,8.82,3.85,1,.5,1.85,1.12,2.78,1.68a1.28,1.28,0,0,0,.35.09c0-.08.07-.18,0-.23A28.33,28.33,0,0,0,56.94,10c-.14-.2-.31-.4-.46-.62-.27-.39-.15-1-.88-1.14-2-.41-3.93-1-5.92-1.42C48.23,6.53,46.73,6.45,45.07,6.25ZM67.29,30c-.12.75.29,1.1.91,1.35.43.17.84.37,1.26.57s.61.44.84-.18c.1-.27.54-.43.83-.63.49-.32,1.21-.41,1.17-1.25,0-.09.15-.23.27-.28A9,9,0,0,1,74.12,29c1-.22,2.08-.34,3.12-.51a1.76,1.76,0,0,0,.35-.15,1.57,1.57,0,0,0-.22-.38,6.05,6.05,0,0,0-3.06-1.65c-.35-.08-.48,0-.38.36s.3,1,.38,1.49c0,.18-.18.39-.28.59-.14-.12-.35-.22-.41-.38-.26-.67-.48-1.35-.71-2L72.8,26c-.15.05-.34.06-.44.16a.58.58,0,0,0-.16.43c0,.68.06,1.35.08,2,0,.15,0,.44-.11.45s-.51,0-.58-.08a2,2,0,0,1-.21-.78c0-.41-.06-.83-.11-1.25,0-.06-.09-.12-.15-.18S71,26.9,71,27a6.76,6.76,0,0,0,0,.9,3.53,3.53,0,0,1,.1.95c0,.23-.34.4-.52.6-.15-.19-.38-.36-.44-.58a6.56,6.56,0,0,1,0-.89,2.75,2.75,0,0,0-.23-.6c-.14.18-.39.35-.41.54-.06.64-.06,1.28-.06,1.93,0,.32.09.68-.41.71s-.53-.29-.52-.64,0-.92,0-1.38a2.73,2.73,0,0,0-.21-.65c-.26.15-.68.26-.74.47A9.2,9.2,0,0,0,67.29,30ZM121,36.67c-.11,0-.24-.06-.33,0-.61.29-1.2.63-1.82.92a44.16,44.16,0,0,0-5.34,2.75c-.54.36-.62.6-.36,1.14.36.78.64,1.6,1,2.38.08.15.42.34.54.29a3.08,3.08,0,0,0,1-.63q1.59-1.5,3.12-3.06A15.3,15.3,0,0,0,119.91,39c.07-.09,0-.24.07-.37a1.06,1.06,0,0,0-.4.08c-.35.2-.67.48-1,.65a2.47,2.47,0,0,1-.78.07c.14-.21.24-.49.44-.6a13.14,13.14,0,0,1,1.6-.78C120.27,37.89,121,37.14,121,36.67ZM149.18,22l.1-.06a32.53,32.53,0,0,0,3.29-.9c1-.4,2.1-.6,3.12-1,1.64-.68,3.37-1.13,5.05-1.74a11.22,11.22,0,0,0,1.95-1c.19-.12.25-.45.37-.68a2.19,2.19,0,0,0-.67-.07c-.63.11-1.27.25-1.9.42-2.27.62-4.54,1.27-6.81,1.9-.45.12-1.09.44-1.34.26-.56-.4-.69,0-1,.26s-.4.5-.63.73l-1.57,1.52a.84.84,0,0,0-.15.28S149.14,22,149.18,22Zm-26.7,14.2-.07-.26c-.09.07-.23.13-.28.22-.56,1-1,2.12-1.66,3.12a19.75,19.75,0,0,1-4.64,5.05,7.59,7.59,0,0,0-.68.57,1.34,1.34,0,0,0,.27,1.51.53.53,0,0,0,.3,0l4.35-1.49c.1,0,.28,0,.29-.09a5,5,0,0,0,.32-2c-.23-.91.34-1.67.21-2.51,0,0,0,0,0-.06C122.32,39.2,121.8,37.46,122.48,36.18Zm-91.79-4s.29,0,.31.13a.86.86,0,0,1-.12.51c-.23.43-.56.85.33.9.12,0,.36.46.3.54-.28.41,0,.4.27.45.48.11,1,.21,1.44.29a1.45,1.45,0,0,0,.45-.07c-.05-.12-.08-.25-.13-.37-.28-.66-.54-1.34-.87-2a4.67,4.67,0,0,0-1.07-1.74,19.23,19.23,0,0,0-5.73-2.9,1.22,1.22,0,0,0-.38,0,1.5,1.5,0,0,0,.11.36,11.44,11.44,0,0,0,.61,1.15A8,8,0,0,0,28.15,32c.49.32.94.6,1.56.28A3.78,3.78,0,0,1,30.69,32.13Zm6.94,11.41,1-.14c1.51-.19,3-.29,4.53-.58,2.12-.41,4.22-1,6.33-1.46,1.35-.31,2.7-.61,4-1a2.24,2.24,0,0,0,.59-.41,2.25,2.25,0,0,0-.71-.1c-.64.1-1.27.31-1.92.38a96.38,96.38,0,0,0-9.85,1.37,16.35,16.35,0,0,1-2.09.59,3.69,3.69,0,0,0-2,.94c-.07,0-.09.17-.14.25ZM76.55,91.76l.73.36a2,2,0,0,1-.58.34c-1.35.29-2.69.6-4,.81a6.06,6.06,0,0,0-3.08,1.14,2.36,2.36,0,0,0-.26.36,1.11,1.11,0,0,0,.42.08c.92-.23,1.84-.49,2.76-.73,1.09-.28,2.19-.53,3.27-.84.88-.25,1.9-.13,2.59-.93.15-.17.41-.29.06-.46-.58-.29-1.17-.55-1.76-.81a5.77,5.77,0,0,0-3.19,0,12.05,12.05,0,0,0-2.85.88c-.26.11-.36.6-.54.91a3.23,3.23,0,0,0,.74.11,13.2,13.2,0,0,0,1.37-.26ZM64,12.21a4.58,4.58,0,0,1-.46-.22c-.52-.3-1-.62-1.54-.92a2.84,2.84,0,0,0-.44-.15,2.11,2.11,0,0,0,0,.51c.27.77.61,1.52.84,2.3s.26,1.38.45,2.06a2.06,2.06,0,0,0,.57.95,21.67,21.67,0,0,0,1.87,1.4,3.25,3.25,0,0,0,.57.24,1.75,1.75,0,0,0,.06-.55c-.28-1.34-.56-2.69-.89-4a.81.81,0,0,0-.54-.51C64,13.2,63.31,13.33,64,12.21ZM99.22,59.72c-.22-.46-.3-.81-.52-1s-.51.08-.72.21c-1.32.85-2.67,1.66-3.92,2.59-.49.37-.76.45-1.17,0a.37.37,0,0,0-.34-.09c-.75.38-1.73.7-1.75,1.63a2.26,2.26,0,0,1-1,1.94.42.42,0,0,0-.16.19c-.07.15-.11.32-.17.48a1.85,1.85,0,0,0,.54-.1c.5-.3,1-.62,1.48-.94a13.85,13.85,0,0,0,1.74-1.16c1.2-1.06,2.33-2.18,3.51-3.27a1.38,1.38,0,0,1,1.77-.35C98.68,60,98.93,59.8,99.22,59.72ZM57,8.62l-.21.09A1.69,1.69,0,0,0,57,9a11.35,11.35,0,0,1,2.45,3.84c.16.52.31,1.08,1,1.05.08,0,.18.12.25.19.31.35.6.72.92,1.06a1.16,1.16,0,0,0,.32.2c0-.15.12-.31.08-.44-.31-1-.61-2.07-1-3.08-.15-.41-.44-.75-.21-1.22,0-.08-.1-.34-.21-.39-1.1-.51-2.21-1-3.32-1.49Zm60.21,54.86h-.08c0,.14,0,.28.07.42l.27-.28c1-1.11,1.93-2.23,2.91-3.33a1.87,1.87,0,0,1,.63-.45.81.81,0,0,0,.59-.86,4.2,4.2,0,0,0-1.6-1s-.08.08-.13.11c-.69.42-1.39.82-2.07,1.26a.68.68,0,0,0-.23.46C117.42,61,117.31,62.24,117.19,63.48ZM96.7,68l.28-.16c.48-.35,1-.69,1.44-1,.89-.68,1.63-1.6,2.9-1.6.05,0,.17-.19.15-.26a6,6,0,0,0-.31-.84c-.13-.32-.33-.38-.64-.18-.79.51-1.6,1-2.4,1.49-1,.65-2,1.31-3,2-.37.25-.66.68-1.06.84a7.24,7.24,0,0,0-2.93,2.55c-.11.14-.07.4-.1.6.25-.09.62-.11.74-.29A10.42,10.42,0,0,1,95.18,68c.36-.23.92-1,1.38,0C96.57,68,96.65,68,96.7,68Zm29-55.75v.12c1.29,0,2.59,0,3.88,0,.18,0,.48.18.51.32.14.56.46.33.73.2.44-.22.86-.5,1.31-.74a1.51,1.51,0,0,1,.44-.06,1.73,1.73,0,0,0-.51-.18q-1.43,0-2.85.06a5.33,5.33,0,0,1-2.93-.26,1,1,0,0,0-.55-.06l-6.76.86c-2.12.28-4.25.55-6.38.87a24.93,24.93,0,0,0-2.53.57c-.13,0-.23.16-.34.24a2.67,2.67,0,0,0,.4,0l5.22-.76c1.07-.16,2.14-.31,3.22-.43ZM33,81c.68-.19,1.31-.35,1.93-.55,1.38-.45,2.74-1,4.13-1.37.39-.11.64-.2.69-.63s.27-.76-.28-1c-.18-.1-.19-.54-.26-.83,0-.08.06-.18.09-.28L39,76.5l-3.14,2.09c-1,.65-1.92,1.31-2.87,2a.59.59,0,0,0-.2.32S32.91,81,33,81ZM97,51.16c-.12-.5-.23-.86-.29-1.23-.27-1.74-.59-3.47-.76-5.21a5.16,5.16,0,0,1,.44-1.79,5.54,5.54,0,0,1,.41-.85c-.36.07-.71.14-1.06.23a1.63,1.63,0,0,0-.53.21c-.28.16-.56.34,0,.59s.32.63,0,.68c-.72.11-.44.49-.33.85s.2.68.31,1a9.08,9.08,0,0,1,.55,1.85,10.33,10.33,0,0,1-.2,2.34c-.07.45.09.4.38.28l.31-.12a1.44,1.44,0,0,1-.1.37c-.3.42-.6.84-.91,1.24s-.34,1.46-.08,1.47.64-.33.92-.57a3.18,3.18,0,0,0,.57-.69A6.58,6.58,0,0,0,97,51.16Zm-7.51,18c.19.47.31.78.46,1.08,0,0,.29,0,.38,0,1-.71,1.89-1.43,2.83-2.15.14-.12.26-.27.41-.39s.57-.42.86-.64,1-.53,1-.8c0-.73.47-1,.89-1.43.06-.06.06-.17.09-.26s-.15,0-.21.07l-1.41.8c-.74.43-1.48.85-2.21,1.3-.36.22-.6.89-1.15.24,0,0-.17,0-.21,0C90.66,67.67,90.08,68.4,89.5,69.12Zm-8.87,2.06c.59-.06,1.23.06.94-.81,0-.08.09-.26.19-.33.61-.5,1.24-1,1.86-1.47.41-.32.38-.76-.06-1s-1.12-.52-1.69-.76c-.14-.06-.41-.1-.47,0-.81,1-1.59,2-2.36,2.94a9.68,9.68,0,0,0-.75,1.06c-.07.12,0,.33,0,.5.27,0,.66,0,.81-.14.91-1,1.76-2.06,2.66-3.08.14-.15.44-.16.67-.23a2.34,2.34,0,0,1-.26.58c-.56.66-1.15,1.29-1.7,2a2.21,2.21,0,0,0-.24.67Zm25.07-.61a2.59,2.59,0,0,0-.28-.2,2.63,2.63,0,0,0-3.17.94c-.32.63-1.06,1.14-.75,2a.27.27,0,0,1-.08.22c-.52.41-1,.8-1.58,1.21a1.11,1.11,0,0,0-.34.3,1.21,1.21,0,0,0,0,.46c.14,0,.32,0,.42-.09a8.09,8.09,0,0,0,1.28-1.12,3.69,3.69,0,0,1,2.09-1.3,1.39,1.39,0,0,0,.7-.36c.47-.53.9-1.12,1.35-1.68A5.23,5.23,0,0,1,105.7,70.57ZM76.26,94a1.81,1.81,0,0,0-.48,0L73,94.78c-1.22.36-2.46.67-3.68,1a2,2,0,0,0-.76.64c-.1.11-.06.35-.09.53a4.34,4.34,0,0,0,.52-.09c1.44-.36,2.87-.81,4.33-1.06.8-.13,1.58-.09,2.11-.82C75.67,94.7,75.93,94.37,76.26,94Zm17.4-4.86a1.84,1.84,0,0,0-.48-.08c-.86.25-1.72.51-2.56.78-.36.12-.85.27-.88-.17,0-.64-.38-.38-.6-.31-2.21.76-4.4,1.54-6.6,2.34-.13,0-.2.25-.3.38a1.63,1.63,0,0,0,.44,0c1.22-.27,2.44-.52,3.65-.82,1.55-.39,3.09-.79,4.63-1.22.75-.2,1.5-.47,2.24-.71C93.3,89.28,93.39,89.22,93.66,89.1ZM50.83,28.56a1.68,1.68,0,0,1,.27-.09c1.21-.17,2.42-.33,3.62-.51.8-.12,1.6-.28,2.4-.43a1,1,0,0,0,.26-.17c-.06-.07-.12-.17-.2-.2-.92-.4-1.84-.8-2.78-1.16a.75.75,0,0,0-.55.13c-1,.7-2,1.42-3,2.14a.33.33,0,0,0-.14.17S50.8,28.52,50.83,28.56ZM56.6,85l-.24.47A3.83,3.83,0,0,1,56,85c-.06-.11-.05-.27-.12-.38a1.93,1.93,0,0,0-.29-.35c-.1.11-.27.22-.29.35a1.22,1.22,0,0,0,.07.68c.16.39.39.76.58,1.15s.36.42.63.06A10.25,10.25,0,0,1,58,84.78a.82.82,0,0,0,.12-1.27,10.76,10.76,0,0,0-1-1.18c-.46-.5-.7-.47-1,.14a1.16,1.16,0,0,0-.05.69C56.25,83.74,56.42,84.3,56.6,85Zm61-30.72-.2-.16c-.06.1-.19.22-.17.31.13.72.32,1.44.44,2.16.07.4.21.42.53.23.58-.33,1.19-.6,1.74-1,.17-.12.2-.45.3-.68a5,5,0,0,0-.56.1c-.07,0-.12.13-.19.14-.27,0-.69.17-.78.05-.27-.33-.07-.67.25-.9a2,2,0,0,1,.5-.26c.77-.27,1.35-.68,1.36-1.59a1.6,1.6,0,0,1,.1-.42,1.56,1.56,0,0,0-.45.1c-.8.52-1.58,1-2.37,1.58ZM99.69,61.1c-.08-.15-.14-.33-.18-.32a1.61,1.61,0,0,0-.74.15c-.82.57-1.58,1.23-2.41,1.77S95,64,93.88,63.79c-.19,0-.65.43-.65.67,0,.58-.37.85-.68,1.21-.15.17-.29.35-.43.52.25,0,.5-.08.75-.14a.88.88,0,0,0,.28-.16l6.06-4.37A6.27,6.27,0,0,0,99.69,61.1ZM79.46,65.53a3.42,3.42,0,0,0-.72-.63.73.73,0,0,0-.65.21c-1,1.4-2,2.83-3,4.24-.06.09-.16.22-.13.29s.13.36.26.41a.91.91,0,0,0,.51,0c0-.74.72-.77,1-1.19.65-.87,1.4-1.65,2.1-2.48C79.07,66.1,79.23,65.85,79.46,65.53Zm41-19.81c-.34-.13-.52-.26-.63-.22a11.89,11.89,0,0,0-3.6,1.56c-.56.44-.13.9,0,1.31s.5.06.73,0a13.83,13.83,0,0,0,2.25-1.11A7.1,7.1,0,0,0,120.49,45.72ZM91.64,61.06c.41-.29,1-.52,1-.75,0-.85.62-1.15,1.09-1.59,1-1,2.12-1.91,3.17-2.88a7.94,7.94,0,0,0,.74-.89c-.36.13-.73.25-1.08.4-1.28.57-2.08,1.75-3.2,2.54a4.57,4.57,0,0,0-1.8,2.8A1.08,1.08,0,0,0,91.64,61.06ZM77.17,70.77s.12,0,.16-.07c.42-.42.84-.83,1.23-1.28.81-.93,1.6-1.88,2.39-2.82.07-.07.17-.16.16-.23s-1.06-.37-1.18-.24c-.9,1.06-1.82,2.12-2.71,3.2a7.75,7.75,0,0,0-.5.84C76.45,70.63,76.74,70.72,77.17,70.77Zm-36.39,6.7,0,.32a2.63,2.63,0,0,0,.33-.2c1.52-1.34,3-2.69,4.53-4a1.33,1.33,0,0,0,.14-.19c-.09,0-.19-.11-.27-.1a2.55,2.55,0,0,0-.62.15c-.66.31-1.33.59-2,1A3.71,3.71,0,0,0,40.78,77.47ZM58.35,52.69s-.08-.09-.12-.08c-.48.22-1.13.34-1.37.72a37.19,37.19,0,0,0-1.81,3.35,1.59,1.59,0,0,0-.06.39,1.13,1.13,0,0,0,.37,0c.62-.3,1.3-.49,1.53-1.29a9,9,0,0,1,.62-1.14C57.8,54,58.05,53.39,58.35,52.69ZM105.65,14l-.51.15c-2.31.8-4.61,1.58-6.92,2.39a5,5,0,0,0-.75.41,6.24,6.24,0,0,0,.88-.09q3.84-1.08,7.66-2.19a4.58,4.58,0,0,0,.66-.34l-.74-.31A1.1,1.1,0,0,0,105.65,14Zm-.27,24.25,0,.14,1.4-.47c1.05-.33,2.13-.59,3.16-1,1.36-.53,2.68-1.15,4-1.74.11,0,.17-.18.25-.28a1.19,1.19,0,0,0-.37-.06,3.82,3.82,0,0,0-.53.2c-1.85.69-3.69,1.4-5.54,2.07-1.16.42-2.33.78-3.48,1.18a1.18,1.18,0,0,0-.31.24,1.22,1.22,0,0,0,.38,0C104.72,38.45,105.05,38.33,105.38,38.22Zm21.16,16a4.13,4.13,0,0,0-.46-.38.69.69,0,0,0-1,.16c-1,1.22-1.93,2.44-2.87,3.68a1.4,1.4,0,0,0-.14.56l.53-.29a2.5,2.5,0,0,0,.24-.22l3.2-3C126.24,54.61,126.35,54.43,126.54,54.21ZM91.85,99.69c.74-.16,1.45-.31,2.16-.48.42-.1.48-.39.33-.76-.22-.54-.42-1.1-.64-1.64a2.48,2.48,0,0,0-.27-.47A5.5,5.5,0,0,0,93,97s.21.19.33.27a2.2,2.2,0,0,0,.26.15c-.08.09-.15.24-.24.25-.89.09-1.28.81-1.76,1.41a2.23,2.23,0,0,0-.24.49ZM56.15,53.44c-.13,0-.24-.14-.32-.12a5.08,5.08,0,0,0-1.3.42c-.16.11-.12.55-.18.83a.9.9,0,0,1-.08.23c-.4,1-.81,1.93-1.2,2.9a1.57,1.57,0,0,0,0,.44c.14,0,.32,0,.41-.14a5.65,5.65,0,0,0,.64-.9c.61-1.08,1.21-2.17,1.81-3.25A4.17,4.17,0,0,1,56.15,53.44Zm32.1,17.5.06-.19c.36.16.72.33,1.08.47.09,0,.3,0,.32-.1s0-.36,0-.39c-1-.49-1.92-1-2.92-1.39a1.13,1.13,0,0,0-.83.22,2.7,2.7,0,0,0-.51.63c-.21.27-.19.43.19.46Zm-6,.08a3.17,3.17,0,0,0,2.69-1.13,2.34,2.34,0,0,0,.43-.73c0-.17,0-.53-.09-.57-.28-.12-.72-.25-.88-.12a10.77,10.77,0,0,0-1.26,1.35c-.28.31-.57.6-.86.91-.06.07-.1.15-.16.22C82.2,71,82.3,71,82.24,71ZM98.55,57.46c-.12-.4-.19-.7-.29-1a2.24,2.24,0,0,0-.22-.4,2.51,2.51,0,0,0-.37.27q-1.53,1.71-3,3.45a2.2,2.2,0,0,0-.25.51,3.82,3.82,0,0,0,.54-.26c1.08-.72,2.15-1.43,3.21-2.16A3.25,3.25,0,0,0,98.55,57.46ZM45.77,54.22c-.26.08-.55.09-.64.22-.49.74-.93,1.52-1.37,2.28a.33.33,0,0,0,.06.29.31.31,0,0,0,.28,0A16.5,16.5,0,0,0,46,55.66c.24-.22.25-.73.28-1.11C46.3,54.45,46,54.32,45.77,54.22ZM88.94,67.63v.06c.19,0,.46,0,.58-.09.83-.77,1.62-1.57,2.42-2.36a.63.63,0,0,0,.1-.2c-.07,0-.15,0-.2,0a13.85,13.85,0,0,0-1.75,1c-.34.26-.53.47-.81,0a.32.32,0,0,0-.3,0c-.27.33-.51.68-.76,1s-.07.52.3.56A2.93,2.93,0,0,0,88.94,67.63Zm54-54.75V13a2.67,2.67,0,0,0-.48,0c-1.59.25-2.6,1.47-3.87,2.27,0,0,0,.07-.08.11a.92.92,0,0,0,.23,0c.7-.28,1.4-.54,2.09-.84s1.48-.68,2.21-1l.81-.41ZM65.39,28.31c-.3,0-.6,0-.89,0a1.27,1.27,0,0,0-.36.12c.06.11.08.26.16.33.47.41.94.82,1.43,1.2a5.24,5.24,0,0,0,.77.43,6,6,0,0,0,.11-.85C66.63,28.32,66.62,28.31,65.39,28.31Zm73.45,2.27v0l4.33-.53a1.83,1.83,0,0,0,.41-.18,1.9,1.9,0,0,0-.38-.13c-.24,0-.49,0-.73,0a5.88,5.88,0,0,0-3.41.44c-.15.09-.45-.06-.69-.1a1.21,1.21,0,0,0-.52-.06c-.14.06-.22.27-.33.41a2,2,0,0,0,.42.13C138.24,30.59,138.54,30.58,138.84,30.58ZM47.68,74l0-.2a4.33,4.33,0,0,0-.72.12c-1.8.64-2.94,2.15-4.32,3.34a.72.72,0,0,0-.14.26.84.84,0,0,0,.27-.08q2.36-1.57,4.7-3.16A1.73,1.73,0,0,0,47.68,74Zm93-61.72v.09c.37-.05.74-.08,1.11-.15.11,0,.2-.16.3-.24-.11-.09-.21-.26-.33-.27a9.26,9.26,0,0,0-1.29,0,7.49,7.49,0,0,0-3.24.55,1.29,1.29,0,0,0-.28.29,1.52,1.52,0,0,0,.36.12c.1,0,.2-.06.31-.07ZM41.87,74.41a.72.72,0,0,1,.18-.24c.79-.52,1.58-1,2.39-1.53s.82-.47,0-1c-.3-.2-.44-.2-.63.11a4.69,4.69,0,0,1-.63.63c-.48.48-1,.95-1.41,1.45a.83.83,0,0,0-.11.43S41.78,74.34,41.87,74.41Zm55.63-21c-.1-.32-.19-.57-.27-.82l-.55.4a1.1,1.1,0,0,0-.31.25c-.39.56-.78,1.13-1.15,1.71,0,.09,0,.25,0,.38a1.2,1.2,0,0,0,.35-.11c.54-.43,1.09-.86,1.61-1.32A1.69,1.69,0,0,0,97.5,53.42ZM55.1,83a8.83,8.83,0,0,0-.47-1.06c-.38-.62-.78-1.21-1.19-1.81-.06-.07-.22-.07-.33-.1s-.06.21,0,.3c.4.94.8,1.88,1.22,2.81.08.18.28.3.42.45Zm-.69-42.11a5.35,5.35,0,0,0-.64.06l-3.81,1c-.08,0-.15.13-.22.2a1,1,0,0,0,.37.07c1.41-.23,2.81-.46,4.21-.72.2,0,.37-.24.55-.37ZM29.65,68.49c.17-.2.27-.28.34-.39.56-.9,1.12-1.8,1.69-2.69.28-.45.61-.86.87-1.32.09-.14.05-.36.07-.55-.15.12-.34.2-.43.35-.86,1.36-1.7,2.73-2.54,4.11C29.6,68.09,29.65,68.24,29.65,68.49ZM40.29,44.08a2.16,2.16,0,0,0-.64-.17c-.47.08-.93.21-1.4.31a3.58,3.58,0,0,0-1.17.25,3.83,3.83,0,0,0-.8,1l.86-.26.32-.09c.75-.23,1.5-.45,2.25-.69A3,3,0,0,0,40.29,44.08ZM52.71,78.46c0,.43,0,.69.44.58a.94.94,0,0,1,.74.2,6.76,6.76,0,0,1,.76.92c.08.09.22.21.31.19a3,3,0,0,0,.54-.26,1.67,1.67,0,0,0-.25-.38c-.59-.51-1.18-1-1.79-1.51a.6.6,0,0,0-.51-.13C52.8,78.16,52.74,78.4,52.71,78.46ZM86,68.07c.09-.06.24-.13.23-.18a.43.43,0,0,0-.17-.3c-.34-.16-.7-.25-1-.41-.95-.43-1.9-.89-2.84-1.33a2.33,2.33,0,0,0-.38-.08,2.36,2.36,0,0,0,.22.38.92.92,0,0,0,.29.23c.46.23.91.45,1.38.66ZM35.34,43.54s0,.28.09.29a2.72,2.72,0,0,0,.63-.08,1.45,1.45,0,0,1-.06-.41c0-.28,0-.63.16-.81a.9.9,0,0,0,0-1.18,1.74,1.74,0,0,0-.34-.32c-.08.12-.23.24-.25.37C35.51,42.07,35.44,42.74,35.34,43.54ZM98,68.36c.14,0,.21,0,.25,0l2.53-1.93s.06-.21,0-.22-.23-.1-.28-.06c-.87.62-1.74,1.26-2.59,1.91C97.9,68.05,98,68.24,98,68.36Zm7.86,4.21a2.36,2.36,0,0,0,.53-.36,9.46,9.46,0,0,0,.69-1,5.74,5.74,0,0,0,.32-.53c-.25,0-.58,0-.75.09a11.93,11.93,0,0,0-1.13,1.12,4.67,4.67,0,0,0-.3.43Zm2.34-.15c.16,0,.37,0,.46-.1a8.29,8.29,0,0,0,.88-1c0-.06-.14-.39-.26-.41-.65-.11-1,.33-1.4.78-.11.14-.24.39-.19.49S108,72.34,108.2,72.42Zm4-1.3a7.73,7.73,0,0,0-1.12.18,4.84,4.84,0,0,0-.83.46l.37.51s0,.1,0,.15l.13.4a1.88,1.88,0,0,0,.52-.29c.32-.37.6-.78.9-1.18l.13-.18ZM57.3,90a1.72,1.72,0,0,0,.32-.28c.6-.88,1.2-1.75,1.78-2.63.06-.1,0-.31-.08-.47-.14.06-.34.09-.41.2-.36.57-.7,1.15-1,1.74-.2.32-.39.65-.56,1A1.47,1.47,0,0,0,57.3,90Zm31-21.94A.72.72,0,0,0,88,68c-.29.1-.58.22-.86.34a7,7,0,0,0,.57.52,3.49,3.49,0,0,0,.59.25c.27.12.4.08.52-.24C89.09,68.11,89.12,68.12,88.31,68.05Zm12.22-5.19a1.62,1.62,0,0,0-.13-.38c-.15-.16-.33-.41-.49-.4-.35,0-.32.24-.19.52,0,.1-.07.35-.19.45-.48.39-1,.75-1.49,1.13-.07,0-.08.18-.12.27s.21,0,.29,0c.69-.41,1.39-.83,2.07-1.26C100.4,63.1,100.46,62.94,100.53,62.86ZM43.87,69.45c.27,0,.44,0,.53,0a8.69,8.69,0,0,0,.75-.61c-.23-.09-.46-.18-.69-.25a1.84,1.84,0,0,0-.41,0c-.33,0-.63-.09-.66.44S43.67,69.47,43.87,69.45Zm-13.8-35.1.25-.08c0-.05,0-.13,0-.14a17.46,17.46,0,0,0-1.64-.65c-.13,0-.35.2-.53.3.16.13.31.32.48.36C29,34.24,29.5,34.27,30.07,34.35ZM94.25,91.12l.27.33A1.92,1.92,0,0,0,94.8,91a7.36,7.36,0,0,0,.25-.92,4,4,0,0,0,0-.49c-.18.1-.45.15-.51.29A8.36,8.36,0,0,0,94.25,91.12ZM120.16,57c-.25,0-.39-.12-.46-.08-.39.24-.76.5-1.13.77,0,0,0,.08,0,.13.36-.15.73-.29,1.09-.46A3,3,0,0,0,120.16,57ZM33.21,39.47l-.63.47c.12.07.28.21.36.18a3.17,3.17,0,0,0,.59-.39ZM60,85.43c-.15.24-.29.36-.29.47a2.56,2.56,0,0,0,.15.59c.12-.16.3-.29.35-.46S60.08,85.72,60,85.43Zm34.22,1.85-.49.33c.14.06.28.19.42.18s.22-.16.32-.25Z"/><path d="M18.81,68.5c2.29-.41,4.59-.8,6.88-1.23.88-.17,1.73-.49,2.61-.63.23,0,.53.3.8.47-.18.17-.35.46-.55.5-2.62.41-5.25.81-7.88,1.17-1.72.22-3.45.35-5.17.56-.23,0-.43.31-.65.46s-.45.34-.63.3a1,1,0,0,1-.62-.51c0-.15.2-.47.39-.62a1.44,1.44,0,0,1,.69-.22c1.36-.16,2.73-.29,4.1-.44Z"/><path d="M69.5,106.56a5.89,5.89,0,0,1-1,.34c-1.7.3-3.4.57-5.1.85a1.15,1.15,0,0,0-.33.17,2,2,0,0,0,.42.06l3.31-.31a2.26,2.26,0,0,1,.51.08c-.17.13-.33.35-.53.38-.82.15-1.67.22-2.5.35l-4.15.71a3.63,3.63,0,0,1-.56.09c-.07,0-.14,0-.2-.08s.05-.18.11-.2a11.9,11.9,0,0,1,1.15-.38c.31-.08.64-.11,1-.18.48-.11.85-.24.51-.89-.23-.44.22-.52.55-.56,1.24-.13,2.47-.27,3.7-.38,1-.08,1.95-.12,2.92-.16.06,0,.13.08.2.13Z"/><path d="M25.65,69.86l-2.72.41c-1.34.19-2.68.37-4,.58a.86.86,0,0,0-.55.35c-.16.25-.25.52-.6.33a3.57,3.57,0,0,1-.54-.42c.17-.22.31-.56.52-.61a25.79,25.79,0,0,1,3-.63c2.11-.31,4.24-.56,6.36-.84.14,0,.3-.06.4,0a2.84,2.84,0,0,1,.47.37c-.15.16-.28.43-.45.45-.62.08-1.25.08-1.87.12Z"/><path d="M48.79,36.08c-1.86.23-3.74.37-5.58.71a42,42,0,0,0-4.27,1.15c-.56.16-1.08.43-1.64.57-.2.05-.46-.15-.7-.23.07-.18.1-.42.23-.54a1.24,1.24,0,0,1,.59-.23c2.66-.51,5.32-1,8-1.51,1.12-.19,2.26-.23,3.39-.31a2.13,2.13,0,0,1,.62.17l-.59.37Z"/><path d="M23.61,72.28c-.92.07-1.83.12-2.75.2-.38,0-.82-.07-1,.53,0,.13-.67.18-1,.12-.17,0-.37-.36-.4-.58-.07-.41.26-.56.61-.6,1-.13,2-.3,3-.37,1.42-.11,2.84-.14,4.26-.18.15,0,.3.14.44.22-.11.09-.22.24-.34.27-.93.19-1.87.36-2.8.53Z"/><path d="M36.77,85.79a3.76,3.76,0,0,1,1,0c.16,0,.26.28.39.43-.15.09-.29.26-.45.28-.53.07-1.07.07-1.61.14-1.15.16-2.31.33-3.46.54-.27,0-.51.28-.79.34a2.2,2.2,0,0,1-.71-.07,2.15,2.15,0,0,1,.24-.58,1.09,1.09,0,0,1,.54-.33c1.3-.24,2.61-.47,3.91-.68A9,9,0,0,1,36.77,85.79Z"/><path d="M23.81,72.93A7,7,0,0,1,25,72.75a2.45,2.45,0,0,1,.76.23c-.23.18-.44.47-.7.52-1,.19-2,.26-2.94.46-.49.1-.91.43-1.39.58a2.6,2.6,0,0,1-1,0c-.08,0-.14-.4-.14-.61a.38.38,0,0,1,.22-.29l4-.94Z"/><path d="M31.53,94c-.18-.18-.49-.36-.49-.52a.85.85,0,0,1,.39-.66,11.37,11.37,0,0,1,1.84-.4,9.39,9.39,0,0,1,3-.4c.11,0,.25,0,.32,0a2.79,2.79,0,0,1,.44.4c-.15.09-.28.24-.44.27-1,.14-2,.27-3.07.36a1.64,1.64,0,0,0-1.29.57C32.13,93.76,31.84,93.81,31.53,94Z"/><path d="M34.62,90.19c-.75.3-1.9,0-2.84.73-.13.09-.6-.08-.73-.26s0-.57.36-.64A18.15,18.15,0,0,1,37,89.3c.15,0,.29.17.44.26-.15.12-.28.34-.44.36C36.32,90,35.6,90.09,34.62,90.19Z"/><path d="M23.63,76.23l-2.95.52c-.59.1-1.18.2-1.77.26-.12,0-.26-.1-.4-.16.12-.09.22-.24.35-.26,1.43-.31,2.86-.62,4.3-.89.74-.14,1.5-.21,2.25-.3a1.35,1.35,0,0,1,.49,0c.09,0,.16.12.24.19s-.12.19-.2.21c-.76.19-1.52.36-2.28.54Z"/><path d="M37.35,91c-.21.14-.32.27-.45.29-.67.11-1.33.21-2,.27a6,6,0,0,0-3.11.66c-.14.09-.4,0-.6,0a1.53,1.53,0,0,1,.1-.54.76.76,0,0,1,.41-.36,15.34,15.34,0,0,1,5.22-.5A2.6,2.6,0,0,1,37.35,91Z"/><path d="M126.38,67.94l.47.08a2,2,0,0,1-.33.43.9.9,0,0,1-.44.21c-.31,0-.64.07-1,.1.07-.37,0-.85.24-1.09.94-1,2-2,2.94-3a1.22,1.22,0,0,1,.48-.3,3.31,3.31,0,0,1,.63,0c-.12.14-.23.29-.36.42l-3,2.89a.77.77,0,0,0-.12.26l.38.1Z"/><path d="M42.63,105.11l1.06.34c-.32.17-.63.35-.95.5s-.76.37-1.15.51a3,3,0,0,1-.93.17c-.12,0-.36-.24-.34-.34s.13-.61.29-.67C41.27,105.4,42,105.27,42.63,105.11Z"/><path d="M128,68a1.46,1.46,0,0,1-.16.41c-.72.79-1.46,1.56-2.2,2.34a.24.24,0,0,1-.14,0,.33.33,0,0,1,0-.21,1.37,1.37,0,0,1,.2-.35L127.44,68a1,1,0,0,1,.39-.24S128,67.92,128,68Z"/><path d="M51.15,35.56l.32.18c-.29.09-.58.19-.87.25-.07,0-.16-.07-.24-.1Z"/><path d="M149.46,10.07c0-.11-.05-.21,0-.23a5.56,5.56,0,0,1,.54-.42l.13.12Z"/><path d="M109.69,40.73a2.45,2.45,0,0,1-.32.29,4.53,4.53,0,0,1-.59.28c-1.86.79-3.74,1.56-5.59,2.38-.59.26-1.12.65-1.69,1a1.94,1.94,0,0,1-.61.22c-.48.07-.91.14-1.07.71,0,.1-.31.14-.47.2,0-.15,0-.38.07-.45a4.24,4.24,0,0,1,1-.67,8.25,8.25,0,0,0,2.1-1,9.52,9.52,0,0,1,2.28-1.32c1.25-.64,2.49-1.29,3.75-1.91a1.31,1.31,0,0,1,.71-.09C109.37,40.39,109.5,40.58,109.69,40.73Z"/><path d="M126.3,32.93l-.27-.2c.15-.2.26-.48.46-.58.43-.21.93-.29,1.37-.48,2.1-.91,4.2-1.83,6.28-2.78.74-.34,1.42-.78,2.13-1.16.1-.06.25,0,.38,0-.08.12-.13.29-.24.35-1.62.86-3.25,1.7-4.88,2.55-.85.44-1.69.93-2.57,1.32S127.19,32.6,126.3,32.93Z"/><path d="M109.49,39.91a6,6,0,0,1,.67-.45c1-.49,2.15-.89,3.15-1.47,1.4-.83,2.74-1.77,4.08-2.7.68-.47,1.28-1,2-1.5a1.15,1.15,0,0,1,.81-.17c.17,0,.29.34.44.52-.17.08-.33.23-.5.23-1,0-1.65.88-2.42,1.37a28.56,28.56,0,0,1-4.22,2.44c-1,.45-2,1-3,1.52-.15.08-.23.29-.38.39a.54.54,0,0,1-.36,0C109.63,40.13,109.59,40,109.49,39.91Z"/><path d="M107.55,48.79c.17.13.37.27.57.4-.16.15-.3.39-.48.43-1.56.33-2.71,1.46-4.13,2-.18.07-.25.39-.41.56a.67.67,0,0,1-.43.25.55.55,0,0,1-.39-.3.59.59,0,0,1,.16-.48q2.07-1.32,4.16-2.59A4.6,4.6,0,0,1,107.55,48.79Z"/><path d="M102.53,46c.36-1,1.36-1.1,2.1-1.56A18.4,18.4,0,0,1,107.45,43a13.21,13.21,0,0,1,2.27-.56c.16,0,.36.09.54.14a2.07,2.07,0,0,1-.52.33c-.68.25-1.41.42-2.07.72-1.55.7-3.07,1.47-4.61,2.19a2,2,0,0,1-.56.1Z"/><path d="M141.11,24.66A13,13,0,0,1,140,25.78c-.62.48-1.28.91-1.94,1.34a1.25,1.25,0,0,1-.52.05,3.68,3.68,0,0,1,.33-.35c1-.68,1.91-1.36,2.88-2a1.13,1.13,0,0,1,.38-.12Z"/><path d="M122.43,33s-.15-.09-.14-.14.06-.44.16-.49a12.47,12.47,0,0,1,1.45-.51c.09,0,.23.1.34.16,0,.08-.09.2-.16.23C123.56,32.53,123,32.76,122.43,33Z"/><path d="M102.71,47.83c-.77.32-1.54.65-2.32,1-.11,0-.27,0-.4,0,.09-.09.16-.21.27-.26a16.5,16.5,0,0,1,1.63-.68,2.41,2.41,0,0,1,.84,0Z"/><path d="M102.5,46c-.07.14-.11.35-.22.41a4.5,4.5,0,0,1-.81.26l.57-.36.49-.29Z"/><path d="M104,25.38c-1.64.05-3.29.08-4.93.17-.8.05-1.59.23-2.39.32a1.44,1.44,0,0,1-.55-.16c.15-.16.29-.45.46-.47,1.09-.15,2.19-.29,3.3-.35.76,0,1.54.1,2.3.05,1.39-.08,2.77-.25,4.16-.35.16,0,.33.16.5.24-.14.11-.28.3-.43.32-.8.09-1.61.14-2.42.21Z"/><path d="M66.69,88.56c-.1-.07-.32-.14-.36-.26a.54.54,0,0,1,.12-.5,3.8,3.8,0,0,1,1.1-.51c.89-.23,1.81-.31,2.68-.59s1.94-.77,2.9-1.18c.66-.28,1.32-.57,2-.89a4.06,4.06,0,0,0,.6-.51A.86.86,0,0,1,76,84c0,.12,0,.3-.08.35a9.89,9.89,0,0,1-1.47,1c-1.45.71-2.92,1.39-4.4,2C69,87.8,67.88,88.14,66.69,88.56Z"/><path d="M81.54,104.26a4.52,4.52,0,0,1-.47.18c-1.08.31-2.16.57-3.22.92s-2.24.83-3.35,1.27c-.26.1-.55.37-.73-.08s.21-.53.52-.61l5.56-1.55c.44-.12.89-.25,1.33-.34.11,0,.24,0,.36.08Z"/><path d="M71.25,63c.27-1.85.51-3.53.77-5.2.09-.62.21-1.22.35-1.83a1.26,1.26,0,0,1,.23-.5c.05-.07.19-.07.29-.1a.69.69,0,0,1,0,.28c-.2,1.51-.42,3-.63,4.51-.13.91-.23,1.83-.39,2.74,0,.17-.27.31-.42.47Z"/><path d="M72.76,60.53c.31-1.28.58-2.46.88-3.65.19-.78.39-1.55.63-2.32,0-.17.26-.28.4-.42,0,.21.18.44.14.63-.39,1.83-.8,3.65-1.21,5.47a.94.94,0,0,1-.1.31,5.29,5.29,0,0,1-.41.41Z"/><path d="M50.87,76.5a4.4,4.4,0,0,1-.48.61c-1.08.85-2.2,1.64-3.25,2.53-.74.62-1.36,1.38-2.07,2a3.75,3.75,0,0,0-1.42,1.9c0,.09-.22.22-.28.2a1.3,1.3,0,0,1-.43-.34c0-.06,0-.26.09-.34,1.67-1.73,3.3-3.49,5-5.14a12.1,12.1,0,0,1,2.25-1.43A2.18,2.18,0,0,1,50.87,76.5Z"/><path d="M44.51,88.84c-.17-.34-.36-.54-.34-.72a1.43,1.43,0,0,1,.36-.7c.82-1,1.64-2.07,2.5-3.07.59-.68,1.23-1.31,1.86-1.94a2.15,2.15,0,0,1,.56-.3c.09,0,.19,0,.28-.08,0,.12,0,.27-.08.35-.64.76-1.31,1.51-2,2.27-.81.95-1.62,1.9-2.41,2.87-.14.17-.11.47-.22.68A4,4,0,0,1,44.51,88.84Z"/><path d="M49.53,85.42l-.34.5q-1.53,2.16-3,4.33c-.09.13-.11.31-.21.43a4.81,4.81,0,0,1-.48.42c0-.2-.14-.46-.06-.59,1.08-1.63,2.19-3.23,3.3-4.83a1.1,1.1,0,0,1,.45-.34C49.23,85.3,49.36,85.38,49.53,85.42Z"/><path d="M73.87,47.09a9.72,9.72,0,0,1-.85.75c-.26.18-.35.8-.87.38-.33.36-.69.7-1,1.09-.11.13-.05.4-.15.52a3.84,3.84,0,0,1-.64.45c-.14-.28-.39-.54-.41-.83,0-.59,1.5-2.12,2.12-2.18,0,0,.07,0,.08,0,.62.85.69-.23,1-.3.18,0,.36-.08.54-.1S73.81,47,73.87,47.09Z"/><path d="M63.66,54.22c.32-.48.56-.9.85-1.28a14.23,14.23,0,0,1,1.08-1.25c.09-.09.29-.08.43-.12a1.51,1.51,0,0,1,0,.52,3.43,3.43,0,0,1-.28.49,18.34,18.34,0,0,1-.8,1.67,1.73,1.73,0,0,1-.81.54C64.06,54.82,63.84,54.45,63.66,54.22Z"/><path d="M119.18,79.47c-.45,0-.73-.43-.44-.77A3.68,3.68,0,0,1,121,77.24c.13,0,.27.08.41.12-.09.09-.15.24-.26.27a1,1,0,0,0-.73,1C120.44,79.08,119.72,79.49,119.18,79.47Z"/><path d="M92.58,103.59a.94.94,0,0,1-.23.16c-1.5.61-3,1.23-4.49,1.82-.23.09-.55.41-.72-.07s.08-.59.46-.7l4.6-1.29a2,2,0,0,1,.35,0Z"/><path d="M100.24,72.22a4.74,4.74,0,0,0-.51.24,7.69,7.69,0,0,0-2.66,1.8s-.38,0-.38-.07c0-.23-.06-.59.08-.69a13.68,13.68,0,0,1,1.75-1.17,5.81,5.81,0,0,1,1.12-.48.94.94,0,0,1,.43.06Z"/><path d="M117.65,40l-1,.55c0-.08-.08-.22-.06-.23a7.85,7.85,0,0,1,.78-.49S117.45,39.87,117.65,40Z"/></g></g></svg>