<svg xmlns="http://www.w3.org/2000/svg" xmlns:xlink="http://www.w3.org/1999/xlink" viewBox="0 0 382.61 421.46"><defs><style>.cls-1,.cls-2{fill:none;}.cls-1{clip-rule:evenodd;}.cls-2,.cls-3,.cls-5,.cls-6{fill-rule:evenodd;}.cls-2{clip-path:url(#clip-path);}.cls-3{fill:#c89452;}.cls-4{clip-path:url(#clip-path-2);}.cls-5{fill:#ffdcb0;}.cls-6{fill:#72440a;}</style><clipPath id="clip-path"><path class="cls-1" d="M61.12,221c-3.28-21,34.44-19.84,39,7.43,4.29,25.74-41.45,36.79-59.4,30.8-10.46-3.48-20.22-16.45-25.85-25.3C3.91,216.71,0,191.79,0,171.74,0,82.68,83.53,21.18,163.35,3.44,225-10.27,282,18.08,316.26,69.44c10.54,15.81,17.85,36.53,25.3,53.9,3.5,8.17,14.47,25,3.09,45.45-7,12.5-27.75,26.55-42.66,19.92-18.09-8-34.86-32.07-13.29-47.9,4.26-3.13,11.95.6,16,.6.13,0-4.66-8.68-6.92-12.45-5-8.36-15.49-14.41-24.21-18.15-23.46-10.06-38.4,11.7-43.45,31.9-10.89,43.57,26,156.65,36.85,203.51,3,12.81,11,27.71,11,40.7,2-.91-4.13,1.49-5.94,2.7-4.94,3.29-10.46,3.85-15.95,6.05-17.77,7.11-65.08,19.13-70.4,20.9-2.55.85-13.82,2.2-12.65,2.2-1.21,1.29-.45-3.51-.8-5.24-1.21-6.08-31-160.27-47.3-205.16A193.24,193.24,0,0,0,113.42,182c-18.72-33.69-40.37-29.86-52.87-16-14.11,15.66.57,55,.57,55Z"/></clipPath><clipPath id="clip-path-2"><path class="cls-1" d="M44.37,260.12a25.86,25.86,0,0,1-3.67-.93c-10.46-3.48-20.22-16.45-25.85-25.3C3.91,216.71,0,191.79,0,171.74,0,82.68,83.53,21.18,163.35,3.44A137.29,137.29,0,0,1,232.4,5.49C278.88,10,319.84,35.58,347.16,74.23,358.34,90,366.1,110.76,374,128.13c3.71,8.16,15.34,25,3.27,45.45-7.37,12.5-30,22.89-46.84,20.59-17.59-2.39-24.62-2.84-29-5.73-17.86-8.3-34-32-12.69-47.63,4.26-3.13,11.95.6,16,.6.13,0-4.66-8.68-6.92-12.45-3.61-6-10-10.83-16.61-14.45-13.07,4.55-21.67,19.14-25.34,33C244.32,191.06,283.48,304.15,295,351c3.13,12.8,11.63,27.66,11.66,40.63a49,49,0,0,0-6.3,2.78c-5.24,3.29-11.09,3.85-16.92,6-18.84,7.1-69,19.13-74.65,20.9-1.94.61-19.44-1.64-29.25-3.6-3.57.55-7.1,1-6.42,1-1.21,1.29-.45-3.51-.8-5.24-1.21-6.08-31-160.27-47.3-205.16A193.24,193.24,0,0,0,113.42,182c-5.76-10.38-11.81-17.2-17.78-21.26-7.54.61-14.34,4.54-19.61,10.06-8.06,8.43-7.27,23.71-4.82,36a17.52,17.52,0,0,1,1.81-.27c12.2-3.39,41.72,8.45,44.94,26.66,4.55,25.74-44.08,37.16-63,30.8-4.14-1.39-7.64-2.67-10.61-3.86ZM306.61,391.63c.5-.17.6-.18,0,.07v-.07Z"/></clipPath></defs><g id="Warstwa_2" data-name="Warstwa 2"><g id="Warstwa_1-2" data-name="Warstwa 1"><path class="cls-3" d="M44.37,260.12a25.86,25.86,0,0,1-3.67-.93c-10.46-3.48-20.22-16.45-25.85-25.3C3.91,216.71,0,191.79,0,171.74,0,82.68,83.53,21.18,163.35,3.44A137.29,137.29,0,0,1,232.4,5.49C278.88,10,319.84,35.58,347.16,74.23,358.34,90,366.1,110.76,374,128.13c3.71,8.16,15.34,25,3.27,45.45-7.37,12.5-30,22.89-46.84,20.59-17.59-2.39-24.62-2.84-29-5.73-17.86-8.3-34-32-12.69-47.63,4.26-3.13,11.95.6,16,.6.13,0-4.66-8.68-6.92-12.45-3.61-6-10-10.83-16.61-14.45-13.07,4.55-21.67,19.14-25.34,33C244.32,191.06,283.48,304.15,295,351c3.13,12.8,11.63,27.66,11.66,40.63a49,49,0,0,0-6.3,2.78c-5.24,3.29-11.09,3.85-16.92,6-18.84,7.1-69,19.13-74.65,20.9-1.94.61-19.44-1.64-29.25-3.6-3.57.55-7.1,1-6.42,1-1.21,1.29-.45-3.51-.8-5.24-1.21-6.08-31-160.27-47.3-205.16A193.24,193.24,0,0,0,113.42,182c-5.76-10.38-11.81-17.2-17.78-21.26-7.54.61-14.34,4.54-19.61,10.06-8.06,8.43-7.27,23.71-4.82,36a17.52,17.52,0,0,1,1.81-.27c12.2-3.39,41.72,8.45,44.94,26.66,4.55,25.74-44.08,37.16-63,30.8-4.14-1.39-7.64-2.67-10.61-3.86ZM306.61,391.63c.5-.17.6-.18,0,.07v-.07Z"/><g class="cls-4"><path class="cls-5" d="M61.12,221c-3.28-21,34.44-19.84,39,7.43,4.29,25.74-41.45,36.79-59.4,30.8-10.46-3.48-20.22-16.45-25.85-25.3C3.91,216.71,0,191.79,0,171.74,0,82.68,83.53,21.18,163.35,3.44,225-10.27,282,18.08,316.26,69.44c10.54,15.81,17.85,36.53,25.3,53.9,3.5,8.17,14.47,25,3.09,45.45-7,12.5-27.75,26.55-42.66,19.92-18.09-8-34.86-32.07-13.29-47.9,4.26-3.13,11.95.6,16,.6.13,0-4.66-8.68-6.92-12.45-5-8.36-15.49-14.41-24.21-18.15-23.46-10.06-38.4,11.7-43.45,31.9-10.89,43.57,26,156.65,36.85,203.51,3,12.81,11,27.71,11,40.7,2-.91-4.13,1.49-5.94,2.7-4.94,3.29-10.46,3.85-15.95,6.05-17.77,7.11-65.08,19.13-70.4,20.9-2.55.85-13.82,2.2-12.65,2.2-1.21,1.29-.45-3.51-.8-5.24-1.21-6.08-31-160.27-47.3-205.16A193.24,193.24,0,0,0,113.42,182c-18.72-33.69-40.37-29.86-52.87-16-14.11,15.66.57,55,.57,55Z"/></g><g class="cls-4"><path class="cls-6" d="M106.13,185.85s4.37-57.65-29.3-49.54c-39.42,9.5-27.71,44.34-23.11,56,5.47,13.83,30.13-3.4,30.13-3.4l22.28-3Z"/><path class="cls-6" d="M224.29,155.29S219.1,100,247.36,91.78s48.21,20.5,49.35,32.15l-72.42,31.36Z"/></g></g></g></svg>