<svg xmlns="http://www.w3.org/2000/svg" viewBox="0 0 125.28 92.73"><g id="Warstwa_2" data-name="Warstwa 2"><g id="Ńëîé_1" data-name="Ńëîé 1"><path d="M117.86,68.76c-.58.56-1.16,1.1-1.72,1.66,0,0,0,.27.07.27.52.06,1.05.07,1.57.14a8.51,8.51,0,0,1,2.94.48,6.17,6.17,0,0,0,1.8.3,1.44,1.44,0,0,1,.56.13c.11.07.14.27.2.41a1,1,0,0,1-.35.11c-2.2-.18-4.41-.39-6.61-.56a5.28,5.28,0,0,0-1.48.14c-.48.1-.94.35-1.35-.17-.07-.09-.31,0-.47,0l-1.54-.09a3.65,3.65,0,0,0-.46.07l.21.35a1.24,1.24,0,0,1,.1.2,1,1,0,0,1-.36.1c-1.46-.12-2.92-.34-4.38-.35-1.74,0-3.48.13-5.22.25-1.44.11-2.86.31-4.3.44-.17,0-.36-.17-.55-.26.16-.18.3-.5.47-.52.71-.1,1.43-.1,2.14-.15l5-.32,1.33,0a1.61,1.61,0,0,0,.29-.09c-.06-.07-.11-.19-.19-.21a4.45,4.45,0,0,0-1.33-.38c-1.58,0-3.15.14-4.73.21-1.16,0-2.32,0-3.47.1a5.14,5.14,0,0,0-3.32.9c-.17.15-.58,0-.87,0L86,71.67a1.51,1.51,0,0,1-.41-.13c.1-.13.18-.33.31-.39A4.1,4.1,0,0,1,88.36,71c1,.18,2.1.37,3.15.54.38.06.67.16.89-.41.14-.35.77-.6,1.23-.71a22.79,22.79,0,0,1,5.28-.36c1.22,0,2.43,0,3.64,0a2.3,2.3,0,0,0,.61-.2,2.37,2.37,0,0,0-.55-.36,5.92,5.92,0,0,0-1.37-.26,60.29,60.29,0,0,0-9.21.27,28.47,28.47,0,0,1-3.06.25c-.21,0-.43-.19-.65-.3.17-.2.33-.55.53-.58.63-.11,1.27-.09,1.9-.14a1.06,1.06,0,0,0,.34-.12,1.4,1.4,0,0,0-.33-.19,5.3,5.3,0,0,0-3,.07c-.17.07-.43-.06-.65-.1.15-.18.27-.47.46-.53a4.78,4.78,0,0,1,3.17-.09,10.36,10.36,0,0,0,5.73.73,13.5,13.5,0,0,1,3,0c.37,0,.73,0,1.09,0,.09,0,.18-.1.27-.15a.9.9,0,0,0-.15-.18,2.34,2.34,0,0,0-1.7-.65,14.75,14.75,0,0,1-2.8-.18c-1.07-.09-2.14-.21-3.21-.26-2.43-.11-4.86-.19-7.28-.26-.34,0-.82-.18-.93.43,0,.06-.27.12-.42.11l-8.3-.35-6-.3h-.16c-1.38,0-1.45,0-.85,1.26.12.24.15.58.34.74s.52.14.78.2a1.6,1.6,0,0,0-.21-.5c-.32-.41-.23-.65.26-.78a2.08,2.08,0,0,1,.48-.11c2.6,0,5.2,0,7.8.08.86,0,1.72,0,2.58.09A12.88,12.88,0,0,1,85,68.6c.36.13.76.14,1.12.25.12,0,.2.21.3.32a1.35,1.35,0,0,1-.39,0,32.71,32.71,0,0,0-3.35-.6c-2.73-.21-5.47-.34-8.21-.45a22.75,22.75,0,0,0-2.72.19c-.11,0-.21.13-.32.2a1.55,1.55,0,0,0,.36.08c2.24.08,4.48.14,6.72.23,1.21,0,2.44.06,3.64.22a20,20,0,0,1,2.72.68c.09,0,.14.2.21.3a.8.8,0,0,1-.3,0c-3.58-.71-7.22-.61-10.84-.77a20.25,20.25,0,0,0-3.37.33c-.18,0-.32.33-.48.51.18.11.36.31.55.32,1.57,0,3.15.07,4.72.11,1.1,0,2.21,0,3.31.14s2.28.34,3.42.53a12.16,12.16,0,0,1,1.23.24,2.11,2.11,0,0,1,.51.31,2.34,2.34,0,0,1-.52.08l-2.88-.32a63,63,0,0,0-9.61-.29c-.71,0-.79.2-.73,1.06,0,.59.43.54.83.51a36.35,36.35,0,0,1,7.87.22c1.09.15,2.19.28,3.27.45.17,0,.32.21.47.32a2.2,2.2,0,0,1-.5.06,54.5,54.5,0,0,0-10.45-.36h-.17c-1.3.12-1.71.55-1.77,1.84,0,.13.16.37.26.38,1.26.06,2.53.09,3.8.15a1.91,1.91,0,0,1,.51.13c-.15.08-.29.22-.45.23-1.1.08-2.2.14-3.31.21a2.28,2.28,0,0,0-.57.1,4.07,4.07,0,0,0-.58.22c.24.08.53.29.72.22,1-.35,1.85.21,2.77.34.1,0,.19.13.29.21a1,1,0,0,1-.33.17c-.63,0-1.27.06-1.9.08-.17,0-.35-.09-.49,0-.41.13-.81.3-1.21.46a8.63,8.63,0,0,0,1.11.2l6.55.33a.8.8,0,0,1,.25.11c-.09.08-.18.23-.28.23-.94.06-1.88.1-2.82.13-1.27.06-2.54,0-3.8.18a6.82,6.82,0,0,0-1.71.55c-.09,0-.13.21-.2.33.13,0,.26.15.39.14.55,0,1.09-.17,1.64-.19,1,0,1.91,0,2.87,0s1.79,0,2.69,0c.66,0,1.32.13,2,.21a1,1,0,0,1,.28.13c-.1,0-.2.15-.31.16-1.49,0-3,0-4.49.13-1.79.14-3.57.41-5.35.62a.49.49,0,0,0-.24.08,6.08,6.08,0,0,0-.39.47,1.81,1.81,0,0,0,.53.14c1.05,0,2.1-.17,3.15-.16,2,0,3.91.12,5.87.2.14,0,.28.17.43.19a6.61,6.61,0,0,0,.89,0l-1,.07-8.87.54a9.74,9.74,0,0,1-1.08,0,1.63,1.63,0,0,0-1.5.71,6.19,6.19,0,0,0-.3.57,3.22,3.22,0,0,0,.6.13c1.63,0,3.25,0,4.88,0,1,0,2.08.19,3.12.3.08,0,.14.12.21.19A1.11,1.11,0,0,1,74,85c-1.55.08-3.1.16-4.64.21-1.84.06-3.68.12-5.5.36-.24,0-.46.27-.68.43a1,1,0,0,0-.19.26,1,1,0,0,0,.34.14l4.16,0c1.37,0,2.75-.07,4.12,0s2.48.34,3.71.53a1.81,1.81,0,0,1,.48.2,1.42,1.42,0,0,1-.48.1c-3.18-.46-6.36-.13-9.54-.08-1.51,0-3,.28-4.53.45-.17,0-.33.2-.49.31a1.79,1.79,0,0,0,.58.13,11.41,11.41,0,0,1,3.82.2c1,.12,2,.24,3,.32,1.86.15,3.73.26,5.6.39a1.42,1.42,0,0,1,.34.15,1.12,1.12,0,0,1-.34.11Q69,89,64.27,88.8c-.74,0-1.49-.12-2.23-.15-.16,0-.32.13-.48.19.13.09.26.24.39.25,1.82.19,3.63.36,5.44.52.89.07,1.78.1,2.67.16.07,0,.14.06.22.09-.08.06-.15.17-.23.17-1.49.06-3,.17-4.47.13s-2.86-.22-4.28-.39a13,13,0,0,1-1.95-.42A.58.58,0,0,1,59,89c0-.47-.35-.45-.64-.43-.94.09-1.88.2-2.81.32a1.13,1.13,0,0,0-.35.17,1.16,1.16,0,0,1,.28.1,1.89,1.89,0,0,1,.3.19c-.11,0-.23.13-.34.11-2.18-.21-4.35-.47-6.52-.65-1.55-.12-3.11-.12-4.66-.18-.3,0-.63,0-.32.45s0,.29-.18.24a34.83,34.83,0,0,0-7.35-.5c-.14,0-.3.06-.41,0a3.7,3.7,0,0,1-.54-.37c.17-.14.34-.4.5-.4,1.44,0,2.88,0,4.31.11.74,0,1.47.24,2.21.36.33,0,.77.28.76-.41,0-.1.45-.3.68-.29,1.08,0,2.15.14,3.22.21.72.05,1.44.11,2.16.11a.6.6,0,0,0,.43-.39c.06-.24.07-.53-.38-.54-1.61,0-3.21-.13-4.81-.17s-3.43,0-5.14-.07a4.73,4.73,0,0,1-1-.14c-.12,0-.21-.2-.32-.31.13-.07.26-.2.39-.2,1.3,0,2.6,0,3.91,0,1.56,0,3.13.12,4.7.21.63,0,1.24.18,1.87.24a2.34,2.34,0,0,0,.62-.12c-.14-.18-.25-.46-.43-.53a6.52,6.52,0,0,0-1.67-.43c-1.87-.17-3.75-.33-5.63-.37-1.42,0-2.85.14-4.28.18-.22,0-.44-.19-.66-.29a2.68,2.68,0,0,1,.63-.36,10.36,10.36,0,0,1,1.24-.1l.23,0a.85.85,0,0,0-.22-.09c-1.07-.06-2.14-.16-3.21-.18-1.27,0-2.53,0-3.8,0-.16,0-.31-.22-.47-.34.14-.13.28-.35.43-.36.57,0,1.15,0,1.73,0,1.33,0,2.66.06,4,0,1.55,0,3.09-.17,4.64-.25,1,0,2.08-.09,3.13-.09.19,0,.38.22.58.33-.19.13-.36.37-.55.38-1.19,0-2.38,0-3.56,0a1.15,1.15,0,0,0-.35.1,1.1,1.1,0,0,0,.25.19,4.36,4.36,0,0,0,.79.2c1.81.18,3.66,0,5.41.69a1.15,1.15,0,0,0,.32,0c0-.1-.06-.23-.13-.29-1-.75-1.52-2-3.11-2-2.55,0-5.1-.18-7.65-.31a2,2,0,0,1-.57-.23c.09-.18.17-.37.27-.55a1.94,1.94,0,0,1,.21-.29c-.1,0-.2-.06-.3-.07l-6.11-.55a3.57,3.57,0,0,0-.46,0l.32.33.36.35a2.36,2.36,0,0,1-.46,0,24.55,24.55,0,0,0-6.28-.53q-4.41,0-8.82,0a2.06,2.06,0,0,1-.57-.17c.15-.17.27-.45.45-.5a5.81,5.81,0,0,1,1.39-.17c2.07,0,4.14.12,6.22.15.35,0,.7-.27,1.07-.31.78-.08,1.58-.12,2.37-.15.41,0,.81,0,1.22,0,.19,0,.39,0,.58,0l2.88.23c1,.08,1.93.14,2.89.26a20.57,20.57,0,0,0,5-.42c1-.13,1.93-.09,2.9-.13h.91A2.84,2.84,0,0,0,43,80a2,2,0,0,0-.14-.34c-.81-1.11-1.62-2.23-2.44-3.33A.7.7,0,0,0,40,76c-1.48-.17-3-.32-4.46-.44-.35,0-.71.14-1.06.1-.19,0-.36-.25-.54-.39.15-.11.31-.32.46-.32,1.18.08,2.36.19,3.54.3.42,0,.83.06,1.25.11s.43-.15.27-.46c-.89-1.68-1.78-3.37-2.69-5-.08-.15-.25-.24-.38-.36-.09.13-.23.25-.26.4a7.1,7.1,0,0,1-2.33,3.74c-.64.61-1.28,1.23-1.94,1.82-.28.25-.63.43-.93.66a4.64,4.64,0,0,0-.39.38,1.78,1.78,0,0,0,.51.23c1,.15,2.08.26,3.12.41a3,3,0,0,1,.91.34.44.44,0,0,1,.08.42c-.11.12-.42.24-.47.19-.59-.61-1.36-.38-2-.48-1.24-.18-2.48-.26-3.73-.33-.29,0-.59.21-.89.29a17,17,0,0,1-2,.52,22.82,22.82,0,0,1-2.62.29,24.29,24.29,0,0,1-2.83,0c-1.12-.07-2.24-.32-3.37-.36-2.35-.1-4.71-.15-7.06-.14-1.77,0-3.54.12-5.31.24-.76.06-1.52.29-2.28.4A1.58,1.58,0,0,1,2,78.44c.14-.2.25-.52.43-.58a16.54,16.54,0,0,1,5.09-.63L15,77.15l.31,0L15,76.94c-1.73-1-3.62-.68-5.45-.64-2,0-4,.27-6,.39-.22,0-.64-.06-.65-.14a.59.59,0,0,1,.6-.73c1-.09,2-.21,3-.24,1.36,0,2.72,0,4.08,0a1.24,1.24,0,0,0,.36-.11,9.74,9.74,0,0,0-.54-1c-.07-.09-.31-.09-.48-.08-2.52.12-5,.23-7.56.4a10.93,10.93,0,0,0-1.59.46A2,2,0,0,1,0,75.18c.16-.22.3-.58.49-.62,1.49-.27,3-.53,4.5-.69s2.82-.18,4.23-.23c.45,0,.43-.24.32-.54a31.58,31.58,0,0,1-1.83-8.25c-.13-1.24-.21-2.48-.3-3.72-.24-3.26-.53-6.51-.67-9.77a52.7,52.7,0,0,1,.06-6.65,57.08,57.08,0,0,1,1-6.74c.49-2.5,1.09-5,1.78-7.43a12.79,12.79,0,0,1,3.07-5.46c1.2-1.25,2.44-2.46,3.74-3.6a21.49,21.49,0,0,1,2.71-1.89c1.37-.87,2.75-1.74,4.17-2.52a26.48,26.48,0,0,1,7-2.38,41.78,41.78,0,0,1,5.65-.9,22.74,22.74,0,0,1,8,1c.82.22,1.63.48,2.46.66a.74.74,0,0,0,.63-.2c1.12-1.2,2.13-2.52,3.34-3.63a38.27,38.27,0,0,1,3.95-3c1.16-.81,2.36-1.54,3.57-2.25A70.59,70.59,0,0,1,66,2.18,35,35,0,0,1,72.57.52,31,31,0,0,1,80.44.05,19.4,19.4,0,0,1,86,1.46c2.22.78,4.42,1.6,6.61,2.44a5.92,5.92,0,0,1,1.32.79,17.64,17.64,0,0,1,2.64,2.12,42.22,42.22,0,0,1,3.07,4.08,31,31,0,0,1,3.39,7,27,27,0,0,1,.92,3.7,19,19,0,0,1,.31,2.37c.1,1.54.16,3.08.22,4.62,0,.71,0,1.42,0,2.14a16.54,16.54,0,0,1-.77,5,6.05,6.05,0,0,0-.09,1.21,2.88,2.88,0,0,1-.07.89,1.15,1.15,0,0,0,.51,1.51c1.7,1.18,3.34,2.47,5.14,3.47a34.46,34.46,0,0,0,4.73,1.93c1.39.52,2.84.87,4.19,1.48a9.39,9.39,0,0,1,4.87,5.5c.13.33.3.65.43,1a1.12,1.12,0,0,1,.07.54c-.56,2.52-1.06,5-1.73,7.53a18.09,18.09,0,0,1-1.43,3.3c-.8,1.6-1.67,3.16-2.5,4.74ZM51.68,52.67a1,1,0,0,1,.29.13c.08.07.1.22.18.27a7.37,7.37,0,0,0,.68.37l-.92-.79s-.16,0-.24,0c.21-.63-.47-.73-.68-1.11,0,0-.25,0-.38,0a1,1,0,0,0,.16.3C51.07,52.18,51.38,52.42,51.68,52.67Zm5.11,4.59c-.32-.32-.63-.65-1-1,0,0-.17,0-.26,0s0,.23.11.28c.37.25.75.48,1.13.72l2.41,2.2s.2,0,.2-.06,0-.31-.09-.36C58.49,58.42,57.64,57.84,56.79,57.26Zm7.76,6.94c-.11-.21-.36-.49-.29-.61.39-.73-.18-1.06-.58-1.4-.79-.67-1.64-1.29-2.49-1.89a2.37,2.37,0,0,0-.73-.18,3.83,3.83,0,0,0,.3.65c.06.11.22.16.31.26.49.47,1,.95,1.46,1.44S63.48,63.53,64,64c.13.13.39.12.59.18.06.28,0,.67.21.82,1.22,1,1.42,2.8,2.78,3.74.2.13.15.66.16,1,0,.06-.31.22-.39.17a1.62,1.62,0,0,1-.67-.54,33.78,33.78,0,0,0-1.88-3.19c-1.18-1.52-2.53-2.92-3.82-4.36a10.2,10.2,0,0,0-1-1c-.55-.47-1.11-.92-1.69-1.35-.07-.06-.24,0-.37,0,0,.1,0,.22.08.3a13.91,13.91,0,0,0,3.18,3.44,9.32,9.32,0,0,1,2.49,2.9c1,1.5,1.88,3.11,2.8,4.67a.77.77,0,0,1,.06.3l.06.38a2,2,0,0,0,.4-.23c.43-.41.81-.89,1.28-1.26.65-.51.71-.6.28-1.34S67.54,67,67,66.14,66,64.06,64.55,64.2ZM50.6,81.11c-.86-1-1.7-2-2.58-3a37.05,37.05,0,0,1-3.09-3.44,51.17,51.17,0,0,1-3.32-5.62c-1.45-2.8-2.78-5.66-4.15-8.51-.57-1.19-1-2.43-1.66-3.6-.52-1-1.19-1.91-1.79-2.86Q32.69,52,31.39,49.94a1.79,1.79,0,0,1-.11-.35c.13.06.31.09.38.19A19.2,19.2,0,0,0,33,51.86a34.57,34.57,0,0,1,4.15,6.8c.72,1.45,1.36,3,2.1,4.4,1.17,2.3,2.42,4.55,3.59,6.85A23.68,23.68,0,0,0,46,75a25.13,25.13,0,0,0,4.73,4.43,5.78,5.78,0,0,1,1.29.89c.58.67,1.6.91,1.83,1.91a.78.78,0,0,0,.47-.06c.38-.27.71-.61,1.07-.9a7.31,7.31,0,0,1,.65-.43c0,.27,0,.54,0,.81a.23.23,0,0,1-.07.15c-.22.25-.15.39.16.44l.92.13c-.2-.71.46-.63.76-.72a8.36,8.36,0,0,0,4-2.45,8.52,8.52,0,0,0,1.73-3.45c0-.08,0-.19-.07-.29s-.22,0-.29.11c-.93.83-1.83,1.72-2.81,2.51a16.89,16.89,0,0,1-2,1.29c-.1.06-.26,0-.38,0,.05-.12.07-.27.16-.35.59-.51,1.19-1,1.8-1.51.77-.63,1.55-1.24,2.34-1.84,1-.74,1-1.37.17-2.23-.08-.08-.19-.13-.26-.21A8.76,8.76,0,0,1,61,71.63C60.3,70,60,68.27,58.71,67c-.05-.06-.05-.16-.09-.23A42.61,42.61,0,0,0,55.7,62,62,62,0,0,0,50.88,57c-1.22-1.22-2.52-2.35-3.77-3.53a1.41,1.41,0,0,1-.22-.4,1.69,1.69,0,0,1,.45.21c1,1,2.08,1.93,3.13,2.87s2.45,2,3.56,3.16a29.67,29.67,0,0,1,3,3.53c.94,1.29,1.72,2.7,2.54,4.07a15.89,15.89,0,0,1,1.2,2.17c.5,1.24.75,2.58,1.83,3.51.26.22.52.44.76.68s.43.5.64.75l.77-.75a.63.63,0,0,1,.12-.11c.74-.65.77-.91.21-1.73a4.72,4.72,0,0,1-.36-.55,56.85,56.85,0,0,0-3.79-6.3,51.33,51.33,0,0,0-6.4-7.18c-1-1-2-2-3.1-2.91a29.62,29.62,0,0,1-4.7-4.39,7.57,7.57,0,0,0-1.4-1.62A19.53,19.53,0,0,1,42,44.87c-.62-.72-1.21-1.46-1.83-2.18s-1.32-1.37-1.86-2.13-.75-1.45-1.17-2.15c-.69-1.16-1.43-2.3-2.14-3.45a2.47,2.47,0,0,1-.14-.41c.13.09.31.15.4.28.56.84,1.12,1.68,1.66,2.54.76,1.18,1.46,2.39,2.25,3.54A28,28,0,0,0,41,43.14a1.46,1.46,0,0,0,.35.2,1.73,1.73,0,0,0,0-.45,1.13,1.13,0,0,0-.2-.35c-.43-.67-.88-1.33-1.28-2s-.65-1.34-1-2-.93-1.21-1.37-1.83c-1.43-1.95-2.86-3.9-4.27-5.87a2,2,0,0,1-.19-.66c.22.05.52,0,.64.16a21.76,21.76,0,0,1,1.69,2c.75,1.09,1.42,2.23,2.13,3.34,1.16,1.8,2.45,3.54,3.47,5.42a29.12,29.12,0,0,0,3.56,5c1.16,1.36,2.45,2.62,3.71,3.91a6.63,6.63,0,0,0,1.12.83.47.47,0,0,0,.43,0,.51.51,0,0,0,.14-.43,3.11,3.11,0,0,0-.38-.63c-.8-1.26-2.06-2.12-2.8-3.45-.89-1.61-2.28-2.9-3-4.65-.17-.43-.45-1-1.16-.87-.13,0-.34-.27-.46-.46-.32-.47-.59-1-.9-1.44s-.51-.66-.76-1c-1.28-1.69-1.7-4-3.69-5.2a.5.5,0,0,1,0-.85,3.33,3.33,0,0,0,.25-.28c-.18-.05-.46-.19-.52-.13-.51.51-.59,0-.79-.29a1.48,1.48,0,0,0-.48-.45c-.54-.32-1.1-.6-1.63-.93-.13-.09-.3-.33-.26-.42a.62.62,0,0,1,.43-.3,1.1,1.1,0,0,1,.54.15c.81.34,1.62.67,2.42,1,.39.18.49.05.5-.33,0-.13.11-.35.21-.37a.57.57,0,0,1,.43.16c.33.36.62.75.94,1.13a1.28,1.28,0,0,0,2-.15c.15-.23.26-.39.55-.07a1.25,1.25,0,0,0,1.34.37,7.86,7.86,0,0,1,2.06-.07c.17,0,.33.27.5.41a3.23,3.23,0,0,1-.51.14c-.44,0-.88,0-1.32.05a1.76,1.76,0,0,0-.57.33c.2.06.38.15.58.19,1.44.24,2.9.43,4.34.71,1.14.22,2.26.52,3.38.83a7.53,7.53,0,0,1,4.35,3,12.4,12.4,0,0,1,1.94,4.08,13.71,13.71,0,0,1-.05,6.94A1.93,1.93,0,0,1,55.65,49a6.58,6.58,0,0,1-1.33,0,2.61,2.61,0,0,0-2.39,1,.57.57,0,0,0,0,.93,12.91,12.91,0,0,1,1.49,1.65,5,5,0,0,0,3.33,2A2,2,0,0,0,59,53.66c1.5-2.31,3-4.63,3-7.53a5.25,5.25,0,0,1,.47-1.54,8.11,8.11,0,0,0,.4-1,7.85,7.85,0,0,0,0-1.08,26.86,26.86,0,0,0-1.52-10.09,26,26,0,0,0-2-4.53c-1.71-2.81-3.57-5.55-6.33-7.47a43,43,0,0,0-4.19-2.67,24.5,24.5,0,0,0-6.39-1.95A19.54,19.54,0,0,0,39.17,15a52.19,52.19,0,0,0-5.45.13,13.74,13.74,0,0,0-2.79.43q-2.61.66-5.18,1.5a15.83,15.83,0,0,0-3.37,1.39,48.58,48.58,0,0,0-5.71,3.93c-1.52,1.26-3.23,2.41-4.15,4.3a26.53,26.53,0,0,0-2,4c-.85,3-1.46,6-2.1,9-.26,1.24-.32,2.52-.48,3.78S7.55,45.83,7.51,47s.1,2.59.17,3.88c.14,2.49.23,5,.45,7.47.26,2.87.6,5.73,1,8.59A16.12,16.12,0,0,0,11,73.24c.62,1,1.27,2.26,2.65,2.3a20.76,20.76,0,0,1,3.7.87c1.56.31,3,1.09,4.69.92a15.58,15.58,0,0,0,3.89-.53,10.4,10.4,0,0,1,1.7-.27,2.64,2.64,0,0,0,.79-.21,21.39,21.39,0,0,0,4.43-3A12.43,12.43,0,0,0,35.89,69a1.32,1.32,0,0,0,0-1.18c-.53-1.16-1-2.35-1.49-3.52-.69-1.59-1.34-3.21-2.11-4.76-.68-1.36-1.49-2.64-2.27-3.94-.08-.13-.28-.86-.53-.06-.27-.09-.66-.1-.79-.29-.72-1-1.38-2.13-2.07-3.2a3.07,3.07,0,0,0-.29-.34,1.57,1.57,0,0,0,.07.54,21.94,21.94,0,0,0,1.44,2.5c.69,1,1.08,2.32,2.59,2.45a.42.42,0,0,1,.28.27,4.91,4.91,0,0,1,.1.77c-.27,0-.54,0-.82,0a3.29,3.29,0,0,0-1.08,0,2.86,2.86,0,0,0-1.09.74,8,8,0,0,0-2.21,4.78A3.08,3.08,0,0,0,27,67.07c.45.24.58.55.36.93s-.7.21-.94,0c-.46-.35-.82-.82-1.24-1.21a2.42,2.42,0,0,0-.55-.3c0-.54,0-1.08,0-1.62,0,0-.55,0-.83,0a1,1,0,0,1-.51-.26c-.41-.4-.79-.83-1.19-1.23a1.85,1.85,0,0,0-.37-.25c0,.17-.08.39,0,.51a5.71,5.71,0,0,0,.9,1.16c.65.6,1.11,1.45,2.06,1.69,0,.18-.05.35-.07.53a3.33,3.33,0,0,1-1-.31c-.67-.52-1.27-1.12-1.91-1.68l-.37-.35c0,.21-.08.47,0,.6.41.58.88,1.11,1.31,1.67a2.8,2.8,0,0,0,2,1.19,1.87,1.87,0,0,1,.49.2c-.11.18-.19.42-.35.52a.88.88,0,0,1-.62.1c-.78-.18-1.54-.4-2.32-.61a2.83,2.83,0,0,0-.3,0c0,.09,0,.24.08.28,1,.55,1.92,1.31,3.08,1A21.87,21.87,0,0,0,28,68.24c.76-.36.71-.68.05-1.15a12.21,12.21,0,0,1-1.66-1.47A1.5,1.5,0,0,1,26.08,64a16.66,16.66,0,0,1,3.33-5.18.94.94,0,0,1,1.36,0,3,3,0,0,1,.76,1.06,1.59,1.59,0,0,1,0,1c-.47.13-.51-.29-.64-.64s-.41-.84-.92-.51a3.78,3.78,0,0,0-1.34,1.15c-.62,1.07-1,2.25-1.6,3.35a1,1,0,0,0,.39,1.41c.54.39,1.1.73,1.65,1.11a1.28,1.28,0,0,1,.62,1.19c0,.49-.38.61-.74.76s-.59.32-.88.47c-2,1-4,2-6.37,1a9.21,9.21,0,0,1-3.24-1.73A8.76,8.76,0,0,1,16.09,63a26.71,26.71,0,0,1,.12-2.82c.05-1.41.06-2.81.11-4.21a.8.8,0,0,1,.27-.52,1,1,0,0,0,.13-1.53c-.14-.17-.39-.28-.45-.46a1,1,0,0,1,.09-.59c.78,0,.69-.62.86-1.07.47-1.22,1-2.44,1.42-3.67a14.68,14.68,0,0,1,.78-2.23A7.47,7.47,0,0,0,20.3,41a7.39,7.39,0,0,1,0-1.33,1.9,1.9,0,0,1,.24-.5,1.8,1.8,0,0,1,.23.46c.1.46.13.94.23,1.39s-.05,1.13.8,1c.06,0,.15.08.21.13,1.22,1,2.47,2,3.64,3.1a30.93,30.93,0,0,1,2.25,2.47,20.88,20.88,0,0,1,2.93,3.81c1,2,2.25,3.85,3.25,5.84s1.78,4,2.67,6a36.62,36.62,0,0,0,1.94,4.33c1.68,2.81,3,5.83,5.26,8.28.44.47.71,1.09,1.12,1.6,1,1.19,2,2.34,3,3.52a2.22,2.22,0,0,1,.23.43,5.14,5.14,0,0,1-.55.06c-.61,0-.63-.63-.92-1a27.93,27.93,0,0,0-2.28-2.56c-.61-.52-.73-1.55-1.71-1.67,0,0-.07-.19,0-.24.33-.42,0-.62-.25-.88a8.15,8.15,0,0,1-1-1.18c-.54-.79-1-1.61-1.5-2.45-.71-1.26-1.46-2.51-2.06-3.82-.76-1.64-1.35-3.36-2.08-5-.82-1.86-1.71-3.7-2.6-5.53s-1.85-3.69-2.79-5.53a6.76,6.76,0,0,0-.81-1.38c-.43-.52-1-.93-1.46-1.43a24.33,24.33,0,0,0-3.07-3.36c-1.27-1-2.38-2.13-3.56-3.2a1.13,1.13,0,0,0-.26-.16c0,.12-.07.23-.09.36a18,18,0,0,1-.38,1.83c-.23.68-.59,1.32-.87,2a1.15,1.15,0,0,0,0,.48c.93-.4.16.3.27.44a1.88,1.88,0,0,1,.19.55,4.7,4.7,0,0,0,.37-.54c.08-.19,0-.47.17-.59a2.12,2.12,0,0,0,.4-2.43.55.55,0,0,1,.6-.78c.45,0,.51.34.56.68A2.53,2.53,0,0,0,23.74,46c1.23.87,2.84,1.41,3.25,3.16a2.38,2.38,0,0,0,.44.79c1.13,1.69,2.3,3.36,3.4,5.07.62,1,1.14,2,1.68,3,.63,1.19,1.27,2.38,1.82,3.61.45,1,.72,2.08,1.16,3.08.61,1.42,1.31,2.8,2,4.19s1.41,3.05,2.25,4.49,1.8,2.68,2.72,4a17.34,17.34,0,0,0,1.05,1.49c.7.84,1.44,1.66,2.18,2.46.43.47.9.89,1.35,1.33l3,2.84c.11.1.36.22.42.17a7.58,7.58,0,0,0,1.16-1.1c.27-.35,0-.68-.26-.93a7.56,7.56,0,0,1-1-.74,2.56,2.56,0,0,1-.36-.72l.7.34c.07,0,.11.14.17.18a11.85,11.85,0,0,0,1.33.78c.16.07.42-.11.64-.17-.1-.15-.23-.28-.31-.43a1,1,0,0,1-.07-.42c0-.13.1-.31,0-.36-.38-.4-.77-.78-1.19-1.15s-.55-.15-.74.18Zm24-16.32c.67-.05,1.33-.1,2-.17a1.28,1.28,0,0,0,.35-.14,1.43,1.43,0,0,0-.35-.3,8,8,0,0,1-1.88-.73,28.06,28.06,0,0,1-4.82-4.22c-.11-.14-.12-.57,0-.62.64-.33.29-.69.08-1.07a15.71,15.71,0,0,1-1-1.91,29.37,29.37,0,0,1-1.37-3.81,21,21,0,0,1-.42-3.54c0-.19.26-.41.4-.62a3.2,3.2,0,0,1,.22.66c.2,1.3.28,2.63.58,3.9A15.77,15.77,0,0,0,72,59.46a.38.38,0,0,1-.08.36c-.1.08-.27,0-.4.07l.36.27a9.32,9.32,0,0,1,.86.66,10.65,10.65,0,0,0,3.64,2.63c.49.18,1,.2,1.5.41a2.52,2.52,0,0,0,2.08,0l.38-.15a1.59,1.59,0,0,0-.37-.27,9.87,9.87,0,0,1-3.45-2.07c-1.06-1-2.1-2.1-3.09-3.21-.35-.4-.43-1-.79-1.41a12.82,12.82,0,0,1-2.37-3.16,7.65,7.65,0,0,1-1-3c0-.11,0-.21,0-.32a1.1,1.1,0,0,1,.34.18,1.25,1.25,0,0,1,.16.37,12.7,12.7,0,0,0,.85,2C71.27,54,72.08,55,72.86,56c.29.4.65.73.92,1.13a8.57,8.57,0,0,0,.65,1.2c.71.76,1.55,1.41,2.25,2.17a9.73,9.73,0,0,0,3,2,9.06,9.06,0,0,0,1.77.62c.2.05.46-.12.69-.18a2.86,2.86,0,0,0-.48-.32A13.19,13.19,0,0,1,76,58.18a1,1,0,0,1-.24-.61.69.69,0,0,1,.33-.48c.07-.05.35.08.42.2a10.58,10.58,0,0,0,4.79,4.31,7.93,7.93,0,0,0,2.5.49c.24,0,.52-.26.78-.41-.2-.14-.38-.3-.58-.42s-.5-.24-.75-.36a15.71,15.71,0,0,1-4.64-3.44,2.79,2.79,0,0,1-.61-.88c-.07-.2.09-.48.14-.72a1.77,1.77,0,0,1,.5.29c.55.58,1,1.22,1.62,1.77a12.62,12.62,0,0,0,5.23,3,3.26,3.26,0,0,0,1.12,0c.08,0,.15-.15.22-.22a2.4,2.4,0,0,0-.27-.16A7.11,7.11,0,0,1,85.16,60a42.47,42.47,0,0,1-3.57-2.37,11,11,0,0,1-2.34-2.28A27.48,27.48,0,0,0,76,51.61a1.87,1.87,0,0,1-.39-.41c-.06-.13-.06-.41,0-.44a.67.67,0,0,1,.52,0c.14,0,.25.2.35.32.73.83,1.44,1.68,2.2,2.49.23.24.69.29.88.55a17,17,0,0,0,5.82,5.14,4.45,4.45,0,0,0,2.27.85c.74-.08,1.42-.81,2.13-1.26l.06,0c.39-.28.41-.47,0-.8a37.58,37.58,0,0,1-3.4-2.89,13.66,13.66,0,0,1-1.81-2.55c-.13-.2,0-.58,0-.88.21.15.51.25.61.45A13.69,13.69,0,0,0,89.63,57c.38.3,1,.75,1.28.62a3.89,3.89,0,0,0,1.52-1.33c.36-.53-.25-.86-.59-1.12a20.32,20.32,0,0,1-3.47-3.65,17,17,0,0,1-1.08-1.67c-.08-.13,0-.35,0-.53.18.09.42.12.52.26.27.37.44.81.73,1.16A17.46,17.46,0,0,0,89.82,52c1,1,2,2,3,2.94.23.23.54.41.77,0s.68-.62.27-1.09c-1.06-1.2-2.15-2.38-3.2-3.59-.74-.85-1.44-1.72-2.13-2.61-.09-.12,0-.4.06-.6.18.07.41.09.53.22,1.69,1.89,3.38,3.78,5,5.69.34.4.55.39.8,0,.63-1,1.29-2,1.86-3a1.57,1.57,0,0,0,.07-1,14,14,0,0,0-2.38-5,8.1,8.1,0,0,0-3.31-3c-.15-.07-.23-.31-.34-.48a1.87,1.87,0,0,1,.63-.26,1.06,1.06,0,0,1,.7.24,28,28,0,0,1,3,3.16,11,11,0,0,1,2.1,4.55c0,.13.19.24.29.36.07-.17.23-.34.21-.5a8.8,8.8,0,0,0-.32-1.7,13.29,13.29,0,0,0-3.41-5.69c-1.54-1.45-3-3-5.13-3.68-.08,0-.12-.15-.19-.23.1,0,.19-.11.28-.11a4.61,4.61,0,0,1,2.7,1.27,15.14,15.14,0,0,1,2.82,2.55,23.07,23.07,0,0,1,1.72,1.87c.75,1.22,1.32,2.54,2,3.82a4,4,0,0,0,.27.44c.07-.18.21-.36.18-.52a16.21,16.21,0,0,0-.52-2.81,10,10,0,0,0-2.29-3.67c-.85-.91-1.72-1.79-2.57-2.69a27,27,0,0,0-2.1-2.17,12.06,12.06,0,0,0-5.7-3.05c-.13,0-.24-.17-.36-.26.14-.08.29-.26.4-.23a11.74,11.74,0,0,1,2.11.57,9.15,9.15,0,0,1,1.56,1l3.51,2.54a1,1,0,0,1,.24.23c.85,1.09,1.9,2,2.8,3a21.48,21.48,0,0,1,2,2.42,32.33,32.33,0,0,1,1.44,3c.07.14.26.35.29.33a1.56,1.56,0,0,0,.52-.43.85.85,0,0,0,.07-.51c-1.07-.32-.85-1.36-1.2-2.09a24.6,24.6,0,0,0-1.32-2.55C97,37.8,96.32,37,95.76,36.2a11.56,11.56,0,0,0-4.39-3.91c-.62-.33-1.23-.68-1.84-1a1.67,1.67,0,0,1-.28-.25,1.38,1.38,0,0,1,.43-.15.87.87,0,0,1,.37.13c.76.4,1.5.85,2.27,1.22a9.32,9.32,0,0,1,3.46,2.92c1.13,1.53,2.19,3.12,3.2,4.74a26.08,26.08,0,0,1,1.27,2.73s.12.12.17.11c.26-.05.48-1.23.32-1.46a6.84,6.84,0,0,1-.66-1.18,33,33,0,0,0-1.5-3.68A19,19,0,0,0,92,29.62a10.49,10.49,0,0,1-1.1-.73c-.12-.1-.14-.31-.21-.47a1.53,1.53,0,0,1,.54-.09,1.58,1.58,0,0,1,.49.3c.85.57,1.72,1.11,2.54,1.72a16.38,16.38,0,0,1,1.64,1.47c.21.21.27.56.48.77a16,16,0,0,1,1.4,1.32,23.58,23.58,0,0,1,2.92,5.47,6.71,6.71,0,0,0,.57.92,5.49,5.49,0,0,0,.1-1.27,14.24,14.24,0,0,0-3.33-6.75,35.11,35.11,0,0,0-4.14-4.13c-.63-.57-1.14-1.41-2.14-1.49-.06,0-.16-.16-.15-.23a.28.28,0,0,1,.23-.18,1.31,1.31,0,0,1,.7.14,32.57,32.57,0,0,1,4.8,4.05c.37.42.69.89,1,1.33a14.6,14.6,0,0,1,1.54,2c.71,1.3,1.28,2.68,1.9,4A2.14,2.14,0,0,0,102,38c.08-.06.19-.11.22-.19a3.51,3.51,0,0,0-.26-3.3,39.45,39.45,0,0,0-2.78-4.07,46.44,46.44,0,0,0-4-4.08c-.84-.78-1.84-1.39-2.75-2.1-.12-.08-.16-.26-.24-.4.17,0,.38-.09.5,0,.44.26.84.58,1.26.87A29.56,29.56,0,0,1,99,29.1,37,37,0,0,1,101.84,33a.79.79,0,0,0,.23.16c0-.06.11-.13.1-.2a2.05,2.05,0,0,0-.06-.49,12.76,12.76,0,0,0-2.48-5.21c-2-2.32-4-4.6-7.29-5-.16,0-.29-.25-.43-.39.16-.1.35-.33.47-.29a11.29,11.29,0,0,1,2.86.86,17.74,17.74,0,0,1,3.07,2.33,14.09,14.09,0,0,1,4.39,7.45c.1.39.26.77.39,1.16l.24-1.37a.51.51,0,0,0,0-.17l-.36-2a9.31,9.31,0,0,0-2.1-5.09Q99.19,23,97.39,21.39c-1.16-1-2.27-2.19-3.94-2.42-.15,0-.28-.22-.42-.34.17-.09.35-.28.49-.25a6.53,6.53,0,0,1,2.1.66,35.89,35.89,0,0,1,3.8,3c1.09,1,2.31,1.91,2.7,3.48.06.24.39.41.59.61,0-.26,0-.52,0-.77s0-.22-.07-.33a9.58,9.58,0,0,0-3.74-5.52c-.89-.71-1.85-1.34-2.67-2.11a2.39,2.39,0,0,0-1.6-.7c-.24,0-.46-.24-.7-.36a2.59,2.59,0,0,1,.7-.45,2.08,2.08,0,0,1,1.79.71c1.52,1.23,3,2.49,4.55,3.73l.71.6c0-.35-.06-.7-.1-1,0-.07-.1-.13-.14-.2a13.1,13.1,0,0,0-4.53-4.53,3.52,3.52,0,0,0-2.53-.84s-.13,0-.16,0-.31-.2-.31-.3a.6.6,0,0,1,.22-.47,1.24,1.24,0,0,1,.64-.06,6.11,6.11,0,0,1,3.06,1.38c1,.77,2,1.63,2.91,2.45l.32.24a3.55,3.55,0,0,0,0-.46,1.3,1.3,0,0,0-.13-.3,8.83,8.83,0,0,0-3.17-4.05,6.52,6.52,0,0,0-3.65-1.36c-.64-.05-1.27-.15-1.9-.25-.11,0-.21-.15-.31-.23a1.69,1.69,0,0,1,.31-.21.81.81,0,0,1,.4-.09,10.81,10.81,0,0,1,4.27.81,2.37,2.37,0,0,0,.61.15,1.91,1.91,0,0,0-.31-.54c-.75-.65-1.54-1.24-2.28-1.9a2.63,2.63,0,0,0-3-.51c-.38.19-.71.15-.82-.19-.06-.16.24-.61.44-.66a3.44,3.44,0,0,1,2.6,0A12.28,12.28,0,0,1,97.7,10.6a1.17,1.17,0,0,0,.34.22,2,2,0,0,0-.12-.34,15.17,15.17,0,0,0-4-4.44,4.31,4.31,0,0,0-4.69-.41,3.66,3.66,0,0,1-1,.13c.2-.26.39-.53.6-.78a2,2,0,0,1,.26-.25,1,1,0,0,0-.37-.09c-.82.13-1.63.32-2.45.41-.26,0-.54-.23-.81-.36.23-.21.44-.56.71-.62A10.32,10.32,0,0,1,87.71,4a2.41,2.41,0,0,0,.37-.07c-.09-.12-.17-.28-.29-.34C86.9,3.14,86,2.72,85.1,2.32,81.65.79,78,.93,74.39,1.24a58.46,58.46,0,0,0-5.82,1,9,9,0,0,0-2,.62c-1.78.81-3.55,1.64-5.3,2.52a30.82,30.82,0,0,0-3.37,1.88c-2.06,1.37-4.16,2.72-6.07,4.28a34.35,34.35,0,0,0-3.53,3.79c-.37.39-.29.67.21.86.18.07.34.17.52.26a29.81,29.81,0,0,1,5.75,3.73,1.17,1.17,0,0,0,.77.25c.43-.07.39.09.34.4a1.69,1.69,0,0,0,.11.57,5.84,5.84,0,0,0,.59-.2c.32-.15.63-.34,1-.46.12,0,.29.09.44.14-.05.15-.06.33-.16.42s-.52.33-.74.53a1.66,1.66,0,0,0-.26.45c.2,0,.45.16.6.09.42-.19.8-.48,1.22-.69a2.13,2.13,0,0,1,.58-.12c-.06.24-.06.56-.21.71a6.31,6.31,0,0,1-1,.62c-.56.35-.21.76,0,1.05s.55.16.83-.13a12.66,12.66,0,0,1,1.39-1.15c.11-.08.35,0,.53,0-.06.14-.08.31-.18.4a15.37,15.37,0,0,0-1.33,1.35c-.18.25-.1.7-.13,1l.75-.39L60,25c.53-.49,1-1,1.6-1.45.16-.13.45-.1.68-.14a1.94,1.94,0,0,1-.24.64c-.31.35-.73.61-1,1a12.35,12.35,0,0,0-.92,1.35c0,.06,0,.2.06.3a.79.79,0,0,0,.26-.13c.74-.73,1.45-1.49,2.22-2.19.21-.2.43-.82.82-.35s-.22.65-.47.9c-.06.06-.16.08-.21.14-.63.83-1.26,1.66-1.87,2.51-.07.09,0,.29,0,.44a1.92,1.92,0,0,0,.36-.14c.13-.1.21-.26.33-.37.73-.59,1.45-1.18,2.2-1.75.11-.09.35,0,.53,0a2.31,2.31,0,0,1-.19.52c-.06.1-.26.1-.35.19-.76.82-1.52,1.66-2.26,2.5-.07.08,0,.25,0,.38a1.69,1.69,0,0,0,.25-.2,9.21,9.21,0,0,1,2.93-2.73l.46-.28a3.29,3.29,0,0,1-.07.71c0,.1-.21.16-.32.24a10.28,10.28,0,0,0-2.72,3.22c-.09.17.08.49.13.73a2.09,2.09,0,0,0,.44-.25c.59-.5,1.14-1,1.75-1.51a12.85,12.85,0,0,1,1.67-1.08c.16-.08.44.06.66.09a3.41,3.41,0,0,1-.39.45,6.67,6.67,0,0,0-.64.37c-.91.84-1.81,1.68-2.69,2.55a1.4,1.4,0,0,0-.36.64c0,.15.08.35.13.52l.33-.29c1-.85,1.94-1.71,2.93-2.53.15-.13.45-.09.67-.12-.11.19-.17.46-.34.58A9.35,9.35,0,0,0,63.32,34a1.36,1.36,0,0,0,0,.5,1.59,1.59,0,0,0,.45-.15c.84-.7,1.67-1.43,2.51-2.13a2.62,2.62,0,0,1,.5-.26,2.48,2.48,0,0,1-.2.56c-.11.16-.31.24-.44.38-.8.87-1.65,1.72-2.37,2.66-.19.26,0,.82,0,1.25a5,5,0,0,0,.76-.5c.27-.24.46-.56.72-.81.59-.58,1.19-1.16,1.81-1.7.13-.12.37-.11.56-.16-.08.2-.1.44-.23.57-1.09,1.15-2.19,2.27-3.28,3.41a.7.7,0,0,0-.16.44,1.91,1.91,0,0,0,.14.52,2.65,2.65,0,0,0,.4-.24c.46-.44.88-.91,1.36-1.32s1.22-1,1.84-1.41c.09-.07.25,0,.38-.06,0,.15,0,.3-.08.44s-.13.1-.2.16a19.57,19.57,0,0,0-3.45,3.65,1.33,1.33,0,0,0-.25.72,28.61,28.61,0,0,1-.22,4,15.92,15.92,0,0,0,.32,6.34c0,.11.14.21.21.31a1.46,1.46,0,0,0,.09-.39,8.49,8.49,0,0,1-.17-1.4c.16-2.34.38-4.69.55-7,0-.39-.12-.78-.11-1.17a1.53,1.53,0,0,1,.23-.9c.88-.92,1.8-1.8,2.72-2.67a1.87,1.87,0,0,1,.64-.22A2.49,2.49,0,0,1,68,38c-.63.72-1.29,1.42-1.91,2.15a1.33,1.33,0,0,0-.2.68c-.06.43,0,.88-.14,1.3A27.17,27.17,0,0,0,65,50a25,25,0,0,0,1,5.22,1.07,1.07,0,0,1,0,.43c-.09-.11-.22-.2-.26-.32-.31-.94-.58-1.9-.88-2.84a1.85,1.85,0,0,0-.33-.42c0,.17-.11.35-.06.5.43,1.39.89,2.77,1.34,4.15a5.76,5.76,0,0,0,.47,1.2c.58.91,1.23,1.78,1.83,2.67A8.2,8.2,0,0,0,71,63.15c.62.34,1.49.48,1.85,1C73.32,64.91,73.94,64.74,74.59,64.79Zm41.7-3.73v.07l-.5,0h-.56a2.66,2.66,0,0,0,.51.34c.75.29,1.52.53,2.26.82.14.05.23.24.33.37-.14.08-.28.23-.43.24a1.4,1.4,0,0,1-.56-.11,27.29,27.29,0,0,1-6-2.73,11.94,11.94,0,0,0-1.07-.84c-1.63-.78-3.29-1.51-4.93-2.25l-.5-.19c.11.17.18.4.34.51.48.36,1,.66,1.51,1a41.38,41.38,0,0,0,5.76,3.54c1.91,1,3.71,2.15,5.54,3.27.64.39.85.36,1.19-.33a40,40,0,0,0,2.85-9.5c.63-2.93-.63-5.26-2.73-7.06a13.58,13.58,0,0,0-5.08-2.34,23,23,0,0,1-4.36-1.52c-2-1.08-3.86-2.45-5.78-3.69L103,40c-.3-.19-.44-.09-.52.24a1.51,1.51,0,0,0,1.44,1.86c.36,0,.59.11.53.43A.77.77,0,0,1,104,43a1.52,1.52,0,0,1-1.59-.67c-.1-.1-.33-.08-.5-.12,0,.18,0,.42.08.53.46.49.86,1.1,1.71.94.37-.07.52.2.37.53a5.93,5.93,0,0,1-.66,1.07,1.09,1.09,0,0,1-.57.27,1.62,1.62,0,0,1-.49,0c.12.15.22.34.37.42a2.58,2.58,0,0,0,1,.45c.48,0,.5.21.35.57a1.76,1.76,0,0,0-.07.4c-.06,1-.18,1.07-1.07.61s-1.65-1-2.48-1.49a1.5,1.5,0,0,0-.43-.09c0,.14.06.34.16.41.9.62,1.81,1.22,2.72,1.83.3.21.58.44.87.66a3,3,0,0,1-1.15,0c-.87-.41-1.69-.93-2.53-1.4a6.18,6.18,0,0,0-.64-.28c.12.17.21.4.37.5.89.6,1.82,1.15,2.71,1.75.19.13.28.41.41.63-.22,0-.48.11-.64,0-1-.52-1.92-1.07-2.87-1.61l-.61-.34a3.21,3.21,0,0,0,.38.62,13,13,0,0,0,4,2.46c.15.06.41.12.42.21.08.65.67.66,1.08.9,1.5.89,3,1.75,4.48,2.7a19.94,19.94,0,0,1,2.19,1.82c.1.1.09.33.13.5a1.17,1.17,0,0,1-.4-.12c-1.2-.87-2.33-1.84-3.58-2.61a40.78,40.78,0,0,0-3.86-1.92,2,2,0,0,0-.6,0c0,.27-.08.63.06.79a8.33,8.33,0,0,0,1.87,2c1.68,1,3.44,1.87,5.12,2.89a30.56,30.56,0,0,0,3.22,1.52,1,1,0,0,0,.29.08,1.23,1.23,0,0,0-.14-.25c-.45-.47-.93-.92-1.37-1.4a2.16,2.16,0,0,1-.29-.54,3.27,3.27,0,0,1,.5.24c.28.21.55.44.82.68a4.26,4.26,0,0,0,3.16,1.4,5.14,5.14,0,0,1,1.24.08c.19.05.34.29.51.44a1.72,1.72,0,0,1-.6.18A11.45,11.45,0,0,1,116.29,61.06Zm-14.08-3-.27.21a4.33,4.33,0,0,0,.41.69,15.51,15.51,0,0,0,4.45,3.21c2.14,1.27,4.43,2.31,6.67,3.42,1.18.58,2.4,1.1,3.61,1.63a.62.62,0,0,0,.5,0,1,1,0,0,0,0-1.71,6.14,6.14,0,0,0-.76-.49c-1.47-.82-3-1.6-4.41-2.47-1.89-1.14-3.75-2.33-5.58-3.55-1.33-.87-2.58-1.86-3.91-2.73-1-.66-2.14-1.15-3.15-1.81s-1.72-1.33-2.58-2l-.55-.4a7.19,7.19,0,0,0,.13.81c0,.08.17.12.25.2l2.7,2.54c.64.6,1.28,1.18,1.9,1.78C101.81,57.62,102,57.86,102.21,58.08Zm-14.6,5.33v-.1c1,.1,2,.18,2.95.32.7.1,1.4.27,2.1.42a1.44,1.44,0,0,1,.33.16c-.14.06-.28.18-.4.16-.36,0-.7-.2-1-.21-2.17-.1-4.35-.16-6.53-.24a4.34,4.34,0,0,1-1.4-.05,1.85,1.85,0,0,0-1.48.2,1.54,1.54,0,0,0-.39.34,4.24,4.24,0,0,0,.46.1c2,.1,4.08.16,6.12.28,2.78.17,5.56.39,8.34.58a1.67,1.67,0,0,0,.5-.15,2.4,2.4,0,0,0-.23-.42,23.24,23.24,0,0,0-6.09-4.5,1.57,1.57,0,0,0-1.89.22,21.11,21.11,0,0,1-2.35,1.4c-.58.32-1.19.58-1.77.9a2.74,2.74,0,0,0-.48.43,2.59,2.59,0,0,0,.61.15C85.85,63.42,86.73,63.41,87.61,63.41ZM53.67,39.86c0-.2.08-.47,0-.57a8.07,8.07,0,0,0-.93-.7,2.31,2.31,0,0,0-.18.79,17.5,17.5,0,0,0,.69,3.15c.23.61.23,1.5,1.16,1.73.1,0,.12.86.06.88-.87.21-.28.66-.16,1s.39.48.46.76-.08.49-.14.75a2.26,2.26,0,0,1-.67-.29,1.4,1.4,0,0,1-.51-.73,1.86,1.86,0,0,0-1.21-1.38A8.05,8.05,0,0,0,50,44.61c-.65-.1-1.79,1.19-1.75,1.86a.45.45,0,0,0,.1.3c.68.85,1.37,1.69,2.09,2.51.08.09.43,0,.58,0a7.84,7.84,0,0,1,1.28-.93c.48-.19.35-.23.11-.51a1.71,1.71,0,0,1-.24-.79s.37-.18.41-.14a1.22,1.22,0,0,1,.34.64c0,.46.12.54.58.47s1,.08,1.56,0,1.16.2,1.38-.42a5,5,0,0,0,.33-2.1,36.49,36.49,0,0,0-.82-4,2.79,2.79,0,0,0-1.11-1.68,2,2,0,0,0-.42-.19c0,.15-.14.32-.1.45.35,1.24.72,2.48,1.11,3.71,0,.11.23.19.36.23s.46,0,.46,0a2.26,2.26,0,0,1,0,.9c0,.1-.42.18-.58.11A1.22,1.22,0,0,1,55,44.6,14.2,14.2,0,0,1,53.67,39.86Zm60.74,27.78.33,0,.66-.08a5.86,5.86,0,0,0-.5-.37c-3.25-1.8-6.54-3.54-9.75-5.42a13,13,0,0,1-3.41-2.69,19.26,19.26,0,0,0-5.41-4.65,4.71,4.71,0,0,0-.65-.28c.08.25.14.51.23.76,0,.07.13.1.19.16.79.86,1.62,1.67,2.35,2.57a31.75,31.75,0,0,0,5.82,5.53,33.32,33.32,0,0,0,4.63,2.86A14.45,14.45,0,0,0,114.41,67.64ZM52.25,86.82H52l-.79.06a4.35,4.35,0,0,0,.69.73,1.37,1.37,0,0,0,.77.21c.63,0,1.26-.09,1.89-.14A21.79,21.79,0,0,0,58,87.34a12.77,12.77,0,0,0,5.54-2.79c.59-.52,1.14-1.08,1.71-1.64.2-.19.36-.42.57-.61s.35-.19.44-.34a12.87,12.87,0,0,0,1-1.74A13.25,13.25,0,0,0,68,78c.56-2.25,1.22-4.5.92-6.86,0-.13,0-.26-.07-.39a1,1,0,0,0-.37.14c-.39.34-.81.63-.67,1.3A8.42,8.42,0,0,1,67.94,74a5,5,0,0,1-.17,1.64,25.78,25.78,0,0,1-1.7,3.92,17.56,17.56,0,0,1-2.2,2.62,15.77,15.77,0,0,1-6.16,3.91A10.28,10.28,0,0,1,52.25,86.82Zm42.8-20.37h0c.72,0,1.44.08,2.16.1a4.17,4.17,0,0,0,.77-.1l-.8-.46c-.05,0-.11,0-.17,0-3-.22-6.08-.45-9.13-.66q-3.51-.23-7-.4a3.63,3.63,0,0,0-1.23.12,16.34,16.34,0,0,1-8.69.36c-.91-.22-1.82-.44-2.74-.63a4.32,4.32,0,0,0-1,0,3.88,3.88,0,0,0,.42.87,1,1,0,0,0,.61.25c.38,0,.77,0,1.16,0,1,.06,1.92.19,2.88.23,2.94.14,5.88.23,8.81.41a4.43,4.43,0,0,0,2.35-.22A5.5,5.5,0,0,1,85.83,66C88.91,66.14,92,66.3,95.05,66.45ZM62.65,52.56c.11.51.22.93.29,1.37a15.22,15.22,0,0,0,3.94,8.45,5.14,5.14,0,0,0,1.43,1.3,18.43,18.43,0,0,0,2.87.79,2.19,2.19,0,0,0,.51,0,2.3,2.3,0,0,0-.42-.35,11.31,11.31,0,0,1-4-3.51,14.81,14.81,0,0,1-2.11-4,32.26,32.26,0,0,1-1.89-7.55,5.62,5.62,0,0,0-.3-1,4.9,4.9,0,0,0-.33,1.14C62.62,50.35,62.65,51.49,62.65,52.56ZM114.2,70.13l.09.18a5.22,5.22,0,0,0,2.56-1.91c.05-.06,0-.35-.13-.37a4.49,4.49,0,0,0-.83-.12c0,.74-.51.63-1,.63a.28.28,0,0,0-.22.09c-.64.84-.66.94-1.55.71A30.41,30.41,0,0,1,108.73,68a11.15,11.15,0,0,1-4.5-2.8c-1.08-.05-1.53-1.05-2.3-1.56-1.41-.94-2.72-2-4.08-3a1.34,1.34,0,0,0-.37-.12c0,.15,0,.33.06.44.22.31.48.6.73.89a13.47,13.47,0,0,0,1.4,1.61c.92.78,1.89,1.5,2.89,2.19a27.58,27.58,0,0,0,3.35,2.09c1.53.74,3.16,1.3,4.74,2a1.91,1.91,0,0,0,1.32.27c.1,0,.36.17.36.26,0,.54.32.43.62.35S113.78,70.26,114.2,70.13ZM54.11,86l1.31-.18a14.44,14.44,0,0,0,5.52-2.17,12.35,12.35,0,0,0,4.81-4.73,12,12,0,0,0,1.42-4A8.5,8.5,0,0,0,67,72.87c0-.13-.18-.25-.27-.38a1.78,1.78,0,0,0-.24.39c-.33,1.24-.62,2.5-1,3.74a7.7,7.7,0,0,1-.78,2.07,34.52,34.52,0,0,1-2.55,3.36,3.92,3.92,0,0,1-1.49,1.06,36,36,0,0,1-3.92,1.31c-1.35.36-2.53,1.66-4.14.86-.06,0-.29.26-.43.4.13.09.25.24.4.26C53.05,86,53.49,86,54.11,86ZM95.67,56.2c0,.15-.14.29-.11.35A1.56,1.56,0,0,0,96,57a9.82,9.82,0,0,1,2.12,2.83,3,3,0,0,0,.6.83c.84.66,1.72,1.29,2.6,1.9C103,63.71,104.68,65,106.48,66A41.34,41.34,0,0,0,111,68.06c.13.07.34,0,.52,0a5.5,5.5,0,0,0-.34-.5c-.07-.07-.2-.08-.31-.12a25.42,25.42,0,0,1-6-3,38.59,38.59,0,0,1-5.76-5.08c-.94-1-2-1.88-3-2.82A2.81,2.81,0,0,0,95.67,56.2ZM48.82,34.58c.26,1,.47,1.84.77,2.69,0,.14.51.2.78.18.08,0,.22-.38.2-.57,0-.41-.21-.8-.24-1.21,0-.22.16-.45.25-.68a2.79,2.79,0,0,1,.45.46,2.44,2.44,0,0,1,.28.69c.25.9.69,1.54,1.75,1.49a.84.84,0,0,1,.51.24c.43.37.52.18.59-.27,0-.2.21-.5.37-.52.48-.08.33-.29.13-.47a7.23,7.23,0,0,0-1.78-1.44,25.2,25.2,0,0,0-3.65-1C49.13,34.15,49,34.43,48.82,34.58Zm60.55,35.66,0-.16a6.85,6.85,0,0,0-.69-.4,29.43,29.43,0,0,1-6.21-3.38A16.57,16.57,0,0,0,100,64.36a6.14,6.14,0,0,1-2.2-2.09,4,4,0,0,0-1.61-1.41,1.35,1.35,0,0,0-.35,0c0,.1,0,.24.07.3.27.28.56.53.84.79l3,2.81a42.83,42.83,0,0,0,3.52,3.36,8,8,0,0,0,3.39,1.59c.72.13,1.51,0,2.07.65C108.8,70.42,109.15,70.28,109.37,70.24Zm-48-16.48c.16.86.36,1.86.55,2.86a11.42,11.42,0,0,0,1.28,3.25,8.26,8.26,0,0,0,.59,1.1A12.34,12.34,0,0,0,65,62.19a15.46,15.46,0,0,0,1.29,1.14c.11.09.35,0,.54,0a2.7,2.7,0,0,0-.25-.4,29.89,29.89,0,0,1-2-2.41,13,13,0,0,1-2-5.28c-.18-1.26-.33-2.51-.51-3.77a1.34,1.34,0,0,0-.14-.36,1.16,1.16,0,0,0-.19.34C61.61,52.18,61.51,52.89,61.39,53.76Zm-44.2,8.6a1.44,1.44,0,0,0-.16.34,4.66,4.66,0,0,0,0,1,10.53,10.53,0,0,0,1.62,3.75,6.22,6.22,0,0,0,1,1c.08.07.24.06.36.08a1.53,1.53,0,0,0,0-.37c-.23-1-.52-2-.68-3a3.37,3.37,0,0,0-1.78-2.59Zm2.6-11.21c-.2.16-.38.22-.42.34a.68.68,0,0,0,0,.54c.21.31.52.55.76.85.84,1,1.67,2.08,2.5,3.12.15.18.32.36.48.53.11-.2.23-.39.33-.6s.07-.35.17-.46c.33-.37.16-.68-.1-.95-.67-.73-1.34-1.47-2.07-2.15A19.59,19.59,0,0,0,19.79,51.15ZM44.68,39l1.1-.36c-.11-.3-.19-.61-.33-.9-.56-1.11-1.13-2.21-1.7-3.31a13,13,0,0,0-.68-1.21c-.08-.12-.33-.13-.5-.19a1.21,1.21,0,0,0-.08.44c.21,1,.42,1.91.69,2.84a17.19,17.19,0,0,0,.84,2.2C44.13,38.77,44.47,38.89,44.68,39Zm-.91,43.19v0a2.74,2.74,0,0,0,.5,0,5.18,5.18,0,0,0,.66-.14,5.94,5.94,0,0,0-.55-.57c-.09-.08-.27,0-.4-.07-.35-.07-.7-.12-1-.21s-.46-.27-.69-.28c-1.24-.07-2.48-.12-3.72-.14a7.33,7.33,0,0,0-1.14.11,2.2,2.2,0,0,0-.36.13l.3.14c.07,0,.2.08.19.12,0,.75.57.57.94.6C40.23,82.05,42,82.13,43.77,82.23ZM59.56,56.34l-.18,0a8.43,8.43,0,0,0,.76,1.76,4.88,4.88,0,0,0,1.32,1,1.72,1.72,0,0,0,.4.14,1.7,1.7,0,0,0,0-.39c-.23-.93-.49-1.85-.69-2.79-.16-.75-.26-1.52-.39-2.28a1.08,1.08,0,0,0-.15-.28,1,1,0,0,0-.22.2A3.61,3.61,0,0,0,59.56,56.34Zm-39.62,6c.09-1.24-1.51-2.89-2.51-3.23-.08,0-.29.07-.29.12-.08.6-.14,1.2-.17,1.8a.47.47,0,0,0,.17.35c.74.56,1.5,1.1,2.24,1.66.32.24.44.07.52-.21A2.7,2.7,0,0,0,19.94,62.31Zm5.87-9.53c-.06.1-.15.19-.14.27a1.58,1.58,0,0,0,.16.72c.46.75,1,1.46,1.44,2.21a3,3,0,0,1,.24.72,7.86,7.86,0,0,1-.84-.19c-.09,0-.15-.15-.22-.24-.38-.51-.75-1-1.14-1.53a1.34,1.34,0,0,0-.3-.21,1.06,1.06,0,0,0-.06.39,4.27,4.27,0,0,0,1.19,2.3c.26.28.51.72.82.78s.7-.29,1.06-.43c.15-.06.34,0,.47-.12s.49-.09.12-.48a12,12,0,0,1-1.47-2c-.42-.64-.79-1.32-1.18-2Zm-3.88,6c-.09-.16-.15-.28-.21-.4-.67-1.56-2.14-2.27-3.41-3.19a.48.48,0,0,0-.4,0c-.05.2-.11.48,0,.6,1,1.13,2,2.23,3,3.34a4.28,4.28,0,0,0,.45.4ZM18.87,53a1.93,1.93,0,0,0-.2.17,1,1,0,0,0,.16,1.37,14.49,14.49,0,0,1,3.36,3.18.4.4,0,0,0,.31.16c.07,0,.19-.15.19-.23a1.11,1.11,0,0,0-.1-.55,16.54,16.54,0,0,0-3.44-3.93A1.89,1.89,0,0,0,18.87,53ZM47.15,38.54l.63-.22c-.12-.21-.25-.42-.36-.63-.51-1-1-2-1.51-2.95a7.65,7.65,0,0,1-.43-1.33c-.13-.54-.56-.36-.88-.35a.75.75,0,0,0-.15.56A11.6,11.6,0,0,0,45,35a12.14,12.14,0,0,1,1.25,2.74A.82.82,0,0,0,47.15,38.54ZM20.56,49.59c-.11.1-.31.19-.32.3a.79.79,0,0,0,.17.52Q22,52,23.56,53.62a2.79,2.79,0,0,0,.57.37c0-.35.24-.86.09-1-1-1.07-2.11-2.07-3.18-3.08A3.77,3.77,0,0,0,20.56,49.59ZM48,34.81c.33-.86,0-1.09-.55-1.23a3.44,3.44,0,0,1-.53-.21c-.39-.2-.55,0-.46.33s.36.87.44,1.32a6.47,6.47,0,0,0,1.67,2.87,3.13,3.13,0,0,0,.39.31,3.19,3.19,0,0,0-.07-.54C48.56,36.65,48.24,35.64,48,34.81ZM24.87,48.88A1.81,1.81,0,0,0,24,47.13c-.29-.2-.57-.43-.87-.63a3.91,3.91,0,0,0-.59-.26,3.11,3.11,0,0,0-.32,1c0,.26.29.52.5.74.42.43.87.83,1.31,1.25l.72.65Zm-.14,2.31a3.79,3.79,0,0,0-.53-.75c-.7-.66-1.45-1.27-2.15-1.93-.22-.21-.34-.55-.7-.21a.54.54,0,0,0,0,.87l2.53,2.41a5.52,5.52,0,0,0,.55.4Zm-7.49,6.24c-.08.49.22.65.56.91.86.64,1.64,1.37,2.44,2.08a1.84,1.84,0,0,1,.28.39,5.05,5.05,0,0,0,.12-.56.52.52,0,0,0-.1-.31c-.78-1-1.33-2.23-2.5-2.91a4.6,4.6,0,0,0-.59-.29ZM42.94,39c.11-.33.24-.51.2-.63-.45-1.4-.92-2.79-1.42-4.16-.06-.15-.36-.2-.55-.3-.07.17-.23.38-.19.52.39,1.27.79,2.53,1.23,3.78C42.3,38.48,42.59,38.65,42.94,39Zm4.83.45c-.43,0-.7.36-.58.82a17.36,17.36,0,0,0,.63,2.13,5.15,5.15,0,0,0,.85,1.2c.08.09.3.05.45.06s.06-.33,0-.43a8.7,8.7,0,0,1-1.2-3.48A1,1,0,0,0,47.77,39.47ZM98.65,51.63l-.08,0c.05.11.07.26.15.33.93.74,1.87,1.47,2.81,2.2.1.08.26.22.34.19s.39-.18.43-.32,0-.57-.08-.63c-.81-.46-1.65-.87-2.48-1.28C99.4,52,99.05,51.81,98.65,51.63ZM56.5,83.5c0-.06,0-.14-.07-.15a12.23,12.23,0,0,0-1.66-.42c-.21,0-.5.21-.68.4s-.36.6-.31.65c.22.2.58.46.8.4a12,12,0,0,0,1.74-.72C56.39,83.63,56.44,83.55,56.5,83.5Zm4.34-1.6a4.07,4.07,0,0,0,.53-.28,5.44,5.44,0,0,0,1.72-2c.54-1,1.11-2,1.65-2.94.05-.11,0-.26,0-.4-.09.09-.21.16-.25.26a14.67,14.67,0,0,1-3.35,4.68,1.58,1.58,0,0,0-.29.39C60.81,81.7,60.84,81.79,60.84,81.9ZM51.25,39.13l-.08,0c.1.42.21.85.32,1.27.21.8.39,1.6.65,2.39.07.21.36.34.54.51,0-.23,0-.46-.1-.69-.27-1.06-.55-2.12-.81-3.19-.06-.24-.07-.5-.13-.74,0-.08-.14-.13-.22-.2s-.17.14-.19.22A1.88,1.88,0,0,0,51.25,39.13ZM22.8,59.6c0,.32-.11.56,0,.7a23.28,23.28,0,0,0,1.29,2.08c.12.17.46.17.7.26,0-.28,0-.62-.14-.83-.44-.62-.95-1.19-1.44-1.78Zm75.56-9.89c-.09.06-.21.13-.2.14.11.18.19.42.36.53,1.2.77,2.42,1.51,3.65,2.26.09.06.23,0,.35.07,0-.14,0-.31,0-.39A1.08,1.08,0,0,0,102,52a9,9,0,0,1-3.27-2A1.84,1.84,0,0,0,98.36,49.71ZM39.21,33c-.48.05-.91,0-.5.61.52.78.95,1.6,1.44,2.39.06.09.22.13.33.19a.85.85,0,0,0,0-.38c-.35-.9-.7-1.8-1.07-2.69C39.41,33.05,39.24,33,39.21,33ZM49,39.49c-.09.22-.18.33-.17.44a3.82,3.82,0,0,0,.82,2.67,1.94,1.94,0,0,0,.62.27c-.09-.17-.17-.33-.25-.5a1.92,1.92,0,0,1-.14-.29c-.21-.69-.41-1.37-.62-2A3.49,3.49,0,0,0,49,39.49Zm6.09-2.11c-.06.11-.16.21-.17.32a2.3,2.3,0,0,0,1.23,1.88c.07,0,.26-.2.25-.23-.33-.62-.69-1.23-1-1.84C55.32,37.46,55.22,37.44,55.09,37.38Zm-4.8,2.09.12,0a1,1,0,0,0,0-.25c0-.15-.09-.3-.13-.45a1.22,1.22,0,0,0-.14.42,11.63,11.63,0,0,0,.2,1.88,7.81,7.81,0,0,0,.7,1.46,1.08,1.08,0,0,0,.21.22.83.83,0,0,0,0-.31,4.93,4.93,0,0,0-.19-.54C50.81,41.06,50.55,40.26,50.29,39.47Zm45,19.16c0-.19,0-.34,0-.42q-.39-.52-.81-1A2,2,0,0,0,94,56.7c-.12-.06-.33,0-.5.08,0,.15,0,.34.12.43.46.44.94.85,1.41,1.27A1.84,1.84,0,0,0,95.31,58.63ZM24.16,64.06l.37-.2c-.05-.08-.09-.2-.17-.22A3.75,3.75,0,0,1,22.65,62c-.08-.1-.24-.14-.36-.21,0,.16-.08.38,0,.47.49.56,1,1.1,1.51,1.63A1.09,1.09,0,0,0,24.16,64.06Zm1-2.68c.24-.42.4-.68.52-1,0,0-.18-.17-.29-.23a8.32,8.32,0,0,0-.93-.5c-.13-.06-.31,0-.47,0C24.36,60.22,24.72,60.75,25.16,61.38ZM46.68,41.71c0,.14-.1.24-.07.3.31.79.63,1.57,1,2.35,0,.1.24.13.37.19a1.36,1.36,0,0,0,0-.45c-.34-.71-.7-1.42-1.06-2.12A3,3,0,0,0,46.68,41.71Zm12.2,14.75c-.1-.15-.22-.53-.36-.54a6.35,6.35,0,0,0-1.2.23c.31.26.61.52.92.76.15.11.32.18.48.28C58.76,57,58.8,56.79,58.88,56.46ZM26.75,58.74c-.1,0-.19-.07-.2-.05-.49.66-.92.46-1.33-.08,0,0-.14-.06-.22-.1s-.09.26-.05.3c.29.35.61.68.93,1a.25.25,0,0,0,.22,0C26.32,59.49,26.51,59.13,26.75,58.74Zm75.82-38.4c-.23-.73-.46-1.46-.7-2.18,0-.09-.18-.15-.27-.22,0,.13-.17.3-.14.4.24.69.52,1.37.79,2,0,.08.14.13.22.19A2.29,2.29,0,0,1,102.57,20.34Zm-.19,34.71c0,.09-.11.22-.09.22.61.44,1.23.87,1.86,1.28,0,0,.18,0,.27-.09a1.14,1.14,0,0,0-.15-.16l-1.46-1.07A2.79,2.79,0,0,0,102.38,55.05Zm-37,19.09-.06-.35s-.12,0-.15,0c-.16.19-.43.37-.45.57s.18.5.28.75c.08-.17.18-.32.25-.49A4.93,4.93,0,0,0,65.34,74.14ZM100,66l-1.31-1.23s-.12,0-.13,0,0,.18,0,.22c.36.33.72.64,1.1,1C99.65,66,99.74,66,100,66ZM19.81,48.88a.94.94,0,0,0-.13-.23s-.13,0-.15,0c-.21.37-.42.75-.62,1.13.06,0,.16.08.17.07C19.33,49.54,19.57,49.21,19.81,48.88Zm92.77,19.34-.25.12a1.32,1.32,0,0,0,.25.16,4.29,4.29,0,0,0,.77.24,1,1,0,0,0,.37-.09c-.08-.09-.15-.22-.25-.25C113.21,68.32,112.94,68.29,112.58,68.22Zm-9.8-46.47-.12-.54a2.66,2.66,0,0,0-.11.47,1.63,1.63,0,0,0,.08.44C102.69,22,102.75,21.84,102.78,21.75Zm.36,1.65-.26-.57c-.07.09-.22.21-.21.29a4.42,4.42,0,0,0,.24.6Zm7.39,47.18a5.16,5.16,0,0,0-.59-.33s-.15.1-.23.16a1.37,1.37,0,0,0,.33.31C110.13,70.75,110.27,70.66,110.53,70.58Z"/><path d="M51.5,90.51c-1.88,0-3.77,0-5.65,0l-2.39,0a3.62,3.62,0,0,1-1,0c-.22-.06-.4-.29-.59-.44.23-.14.46-.37.7-.38.63,0,1.27.07,1.9.09l6.19.2c2.76.1,5.52.2,8.29.34.2,0,.38.28.59.41a4.74,4.74,0,0,0,.51.24c0-.06,0-.14,0-.18a2,2,0,0,0-.2-.3c.13,0,.27,0,.4,0a17.9,17.9,0,0,1,3.88.89,18.6,18.6,0,0,0,3.37.41c.74.09,1.48.18,2.21.29a1.11,1.11,0,0,1,.35.16,1.87,1.87,0,0,1-.32,0c-.45,0-.89,0-1.33-.06l-4-.16a16.58,16.58,0,0,1-1.73-.14c-2.38-.36-4.73.16-7.08.27-2.08.1-4.15.26-6.22.4-.3,0-.6.14-.9.15a2.94,2.94,0,0,1-.62-.15c.16-.1.31-.27.48-.3A21.39,21.39,0,0,1,50.55,92c1.43-.1,2.87-.16,4.3-.22.3,0,.5,0,.51-.41,0-.17.45-.34.7-.49a4.1,4.1,0,0,1,.48-.21,2.74,2.74,0,0,0-.55-.13H51.5Z"/><path d="M10.58,78.69c1.83-.09,3.21-.24,4.58-.2,2,.06,4,.27,6,.38a6.81,6.81,0,0,0,1.56-.13,22.46,22.46,0,0,1,5.37-.18c1.6.12,3.2.09,4.81.14.3,0,.61,0,.91.07a1.66,1.66,0,0,0,1.2-.25A3.44,3.44,0,0,1,37,78.18c1.22.07,2.43.29,3.64.45a1.18,1.18,0,0,1,.46.14c.1.06.13.22.19.33-.1,0-.2.1-.29.09-1-.09-2-.2-3-.3-.5,0-1-.1-1.49-.12s-.68.06-.51.57-.1.44-.44.41c-2.25-.2-4.49-.46-6.75-.56-1.76-.07-3.53,0-5.3.11-2.12.12-4.23-.12-6.35-.13-2,0-3.93.11-5.89.22-1,.06-2,.26-3,.35a1.9,1.9,0,0,1-.7-.22c.19-.13.36-.33.57-.37C9,79,10,78.78,10.58,78.69Z"/><path d="M114.81,74.46c.94.18,1.88.38,2.82.53.51.09,1,.1,1.55.16.09,0,.17.1.25.16-.08,0-.17.12-.25.12l-3,0c-2,0-3.93-.07-5.89-.13-.42,0-1,.09-.77-.68a.82.82,0,0,0-.47-.21c-1.32.07-2.65.2-4,.27A5.81,5.81,0,0,1,104,74.5c.32-.2.63-.55,1-.58a32.13,32.13,0,0,1,3.8-.19c1.65,0,3.31.14,5,.24a10.05,10.05,0,0,1,1.2.21l-1.19.17c-.13,0-.27,0-.41,0s-.1.1-.15.15.12.11.18.11c.47,0,.94,0,1.41,0Z"/><path d="M113.45,73.47c-1.51-.08-3-.21-4.54-.22s-2.76.13-4.14.16a4.39,4.39,0,0,1-1.3-.18.5.5,0,0,1-.25-.42c0-.09.26-.25.39-.25l6.94.14a4.68,4.68,0,0,0,2.26-.28,4.49,4.49,0,0,1,2.34-.2c1.8.2,3.59.54,5.38.81.36,0,.73,0,1.07.11.16,0,.29.24.43.36a2.09,2.09,0,0,1-.49.08c-2.53-.19-5.07-.39-7.61-.57-.17,0-.71-.06-.12.29l-.24.38Z"/><path d="M117.84,68.78a4.86,4.86,0,0,1,3.52.15.11.11,0,0,0,.07,0c1.29-.26,2.3.68,3.51.79.12,0,.23.16.34.24a1.72,1.72,0,0,1-.44.06c-1.64-.2-3.27-.43-4.91-.62a7.42,7.42,0,0,0-1.49,0c-.79.07-.79.09-.58-.67Z"/><path d="M36.75,76.61c1,.3,2,.61,3,.9.39.11.81.15,1.21.27.14,0,.23.24.35.37-.17,0-.35.13-.5.09a14.37,14.37,0,0,0-4.92-.65c-.1,0-.32-.14-.33-.23a.47.47,0,0,1,.21-.39,6.42,6.42,0,0,1,1-.24Z"/><path d="M25.18,84.31c-1.65,0-3.31,0-5,0a3.19,3.19,0,0,1-.6-.12c.17-.09.33-.25.51-.26.68,0,1.36,0,2.05,0,.46,0,.92,0,1.39,0,1,0,2,.09,3.05.16.05,0,.1.14.16.21-.09,0-.18.14-.27.14-.44,0-.88-.06-1.32-.1Z"/><path d="M99.5,73.77a5,5,0,0,1-1,.23A10.13,10.13,0,0,1,97,73.91c-.13,0-.24-.21-.36-.32.12-.11.26-.33.36-.32.84.15,1.68.34,2.52.52Z"/><path d="M99.48,73.79,102,74a.94.94,0,0,1,.22.07c-.06,0-.12.13-.17.12-.83,0-1.65-.05-2.47-.11,0,0-.08-.18-.11-.27Z"/><path d="M26.65,43.14a1.73,1.73,0,0,1,.3.25c.34.45.68.91,1,1.37a1.31,1.31,0,0,1,.12.35c-.11,0-.26,0-.32-.13-.42-.5-.82-1-1.21-1.55a.32.32,0,0,1-.05-.22Z"/><path d="M22.51,39.26l1.54,1.23c-.09.06-.23.19-.26.17-.45-.35-.9-.71-1.34-1.08C22.42,39.55,22.47,39.44,22.51,39.26Z"/><path d="M48.13,80c.12.05.19.06.22.1.3.38.61.75.9,1.14,0,.06,0,.18,0,.27s-.22,0-.26-.06c-.31-.38-.6-.78-.88-1.19C48.09,80.17,48.13,80.07,48.13,80Z"/><path d="M50.57,81.13c.41.29.82.58,1.22.88a2.2,2.2,0,0,1,.27.26c-.16,0-.38,0-.46,0-.35-.35-.67-.75-1-1.13Z"/><path d="M20.29,37.21l.87,1.09-.09.07L20,37.54s.06-.14.09-.21Z"/><path d="M25.17,41.89c-.28-.31-.57-.62-.85-.94,0,0,.05-.08.08-.12.25.19.52.36.75.57a1.09,1.09,0,0,1,.18.41Z"/><path d="M28.19,45.62l.94.65s-.06.08-.07.08-.35-.06-.45-.17a3.83,3.83,0,0,1-.36-.63l.08-.09Z"/><path d="M88.13,58.74c.08.62-.14.72-.46.58a8.28,8.28,0,0,1-1.62-.84,9.52,9.52,0,0,1-3-3.24c-.47-.93-1.46-1.2-2.09-1.89-1-1.13-2.34-2.05-3-3.5-.12-.25-.43-.54,0-.76s.44.17.61.41c.79,1.06,1.6,2.1,2.44,3.12.11.13.43.08.66.12-.08-.41,1-.35.36-1.05a14.39,14.39,0,0,1-1.47-2c-.1-.15,0-.41-.07-.62a2.08,2.08,0,0,1,.6.36c.41.48.76,1,1.17,1.5s1,1.14,1.53,1.73a2.2,2.2,0,0,1,.22.64c-.21,0-.42-.08-.63-.15a4.71,4.71,0,0,1-.52-.21,1.57,1.57,0,0,0,.07.54,12.11,12.11,0,0,0,4.55,4.94Z"/><path d="M65.26,48.72c.1-1.3.21-3,.38-4.73a2.72,2.72,0,0,1,.45-1c.06-.1.28-.11.44-.16a1.5,1.5,0,0,1,.09.45c-.18,1.23-.43,2.45-.57,3.68a16.86,16.86,0,0,0,2,10.42c.36.62.75,1.21,1.12,1.82.09.15.14.33.22.49-.19-.08-.45-.12-.56-.27a15.43,15.43,0,0,1-1.37-2,17.53,17.53,0,0,1-1.89-5.29C65.37,51.14,65.36,50.13,65.26,48.72Z"/><path d="M82.3,47.3a3.64,3.64,0,0,1,.56.38c.9.89,1.76,1.81,2.68,2.69.31.3.8.42,1.09.73.5.54.83,1.25,1.36,1.75,1,1,2.11,1.84,3.18,2.74.33.27.83.38.75,1a4,4,0,0,1-1.11-.3,17.26,17.26,0,0,1-4-3.64c-1.06-1.29-2.3-2.42-3.47-3.62-.36-.37-.75-.73-1.11-1.11a.57.57,0,0,1-.14-.35C82.05,47.47,82.19,47.41,82.3,47.3Z"/><path d="M96,50.13a1.72,1.72,0,0,1-.07.56c-.06.11-.25.16-.39.24,0-.11-.15-.22-.14-.33a7,7,0,0,0-1.63-4.31,19.24,19.24,0,0,0-3.53-3.9,1,1,0,0,1-.16-.34c.14-.06.3-.19.41-.16a1.61,1.61,0,0,1,.74.36,21.81,21.81,0,0,1,3.58,4.2A9.17,9.17,0,0,1,96,50.13Z"/><path d="M95.07,51.65l-.19.55c-.1-.1-.26-.18-.3-.31A18,18,0,0,0,91,46.1a15.71,15.71,0,0,1-1-1.39c-.07-.11,0-.29,0-.43.17,0,.4,0,.49.08,1.62,1.73,3.25,3.45,4,5.76C94.65,50.66,94.88,51.18,95.07,51.65Z"/><path d="M72.18,52l.31-.52c.14.14.34.25.41.42a9.23,9.23,0,0,0,2.77,3.65c.18.15.23.44.33.67-.2,0-.47,0-.6-.1A12.25,12.25,0,0,1,72.56,53,9.15,9.15,0,0,1,72.18,52Z"/><path d="M84.14,45.83a4.6,4.6,0,0,1,.45.54c.56.91,1.11,1.82,1.65,2.75a1.6,1.6,0,0,1,.13.5c-.19-.07-.45-.09-.56-.23-.33-.44-.61-.91-.91-1.38s-.7-1-1-1.61c-.07-.13,0-.35,0-.53Z"/></g></g></svg>