<svg xmlns="http://www.w3.org/2000/svg" viewBox="0 0 151.53 118.74"><g id="Warstwa_2" data-name="Warstwa 2"><g id="Ńëîé_1" data-name="Ńëîé 1"><path d="M54.29,83.33c2.05,0,4.08.23,6.12.36A3.33,3.33,0,0,0,62.75,82c0-.11-.23-.4-.36-.4-1.33,0-2.67.09-4,.15-.08,0-.16.07-.24.11a1.54,1.54,0,0,0,.29.23l1.24.5c-.43,0-.86.09-1.29.1l-6.92.13c-.3,0-.6,0-.9,0s-.61,0-.65.16c-.39,1-1.17.52-1.85.63-1.47.25-2.92.66-4.37,1-1.06.28-2.12.61-3.17,1-.49.17-.94.47-1.42.68a2.84,2.84,0,0,1-.66.1c.1-.22.14-.58.3-.65,2-.78,4-1.53,6-2.29.34-.13.68-.27,1-.43.08,0,.12-.13.18-.2s-.14-.15-.22-.15a7.38,7.38,0,0,0-1.49,0c-1.73.35-3.46.75-5.18,1.13l-.1,0-1.73.15c.46-.16.92-.35,1.4-.49,1.6-.47,3.2-.92,4.8-1.4a3.35,3.35,0,0,0,.63-.37c-.22-.18-.43-.5-.65-.5-1.9,0-3.82-.2-5.56.91a14.94,14.94,0,0,1-2.38,1c-.12,0-.29,0-.44-.06.1-.12.17-.28.29-.35l4.77-2.49a2.17,2.17,0,0,0,.3-.23,1.47,1.47,0,0,0-.31-.15,3.87,3.87,0,0,0-2.15.16c-1.56.48-3.16.82-4.75,1.21-.12,0-.27-.08-.41-.12a2.22,2.22,0,0,1,.39-.23l4.73-1.63a2.3,2.3,0,0,0,.33-.21c-.12-.08-.23-.23-.36-.24a9.33,9.33,0,0,0-2.56-.21c-1.86.31-3.81.23-5.54,1.18a1.54,1.54,0,0,1-.48.12,2.55,2.55,0,0,1-.39,0,1.72,1.72,0,0,1,.26-.33c1.3-1,2.91-1.12,4.43-1.46l2.55-.57a1.25,1.25,0,0,0,.39-.24c-.14,0-.29-.12-.41-.1l-5.62.92a2.57,2.57,0,0,1-.48,0,1.69,1.69,0,0,1,.46-.31c.67-.21,1.35-.37,2-.58a2,2,0,0,0,.44-.3c-.18-.07-.37-.22-.54-.21-.76.08-1.51.21-2.27.31a2.25,2.25,0,0,1-.44,0,1.8,1.8,0,0,1,.36-.32c.2-.11.44-.16.65-.25s.49-.2.74-.3c-.28-.09-.56-.29-.82-.27-2.05.18-4.1.36-6.15.62a12.3,12.3,0,0,0-1.91.58,2.84,2.84,0,0,1-.42,0c.1-.12.18-.3.31-.35A22.79,22.79,0,0,1,25.2,76a36.8,36.8,0,0,1,4.06-.61c1.19-.12,2.41-.11,3.61-.18.15,0,.3-.16.45-.24-.13-.08-.25-.22-.39-.24a15.16,15.16,0,0,0-3-.31c-2.06.13-4.12.43-6.17.68-.43.06-.84.23-1.27.32-.09,0-.21-.08-.32-.13.06-.09.11-.26.2-.28,1.39-.36,2.77-.74,4.18-1,.91-.18,1.86-.19,2.8-.29a1.65,1.65,0,0,0,.42-.21,1.27,1.27,0,0,0-.4-.17c-.5,0-1-.07-1.49-.06-1.95.06-3.9.05-5.83.23a25,25,0,0,0-3.58.81c-.19,0-.37.14-.57.18a1.23,1.23,0,0,1-.38,0c.09-.09.17-.23.28-.25,1.72-.4,3.43-.89,5.17-1.16,2-.33,4.11-.46,6.17-.7A2.26,2.26,0,0,0,29.8,72c-.24-.16-.46-.45-.71-.47a13.32,13.32,0,0,0-2.6-.1c-1.69.14-3.37.41-5.06.6-1,.11-2.05.18-3.08.25-.11,0-.23-.09-.35-.14.11-.09.2-.25.32-.27.89-.18,1.78-.33,2.67-.5,1.41-.26,2.82-.54,4.23-.79.62-.11,1.25-.16,1.87-.27.12,0,.21-.17.32-.26-.12-.1-.31-.31-.35-.28-.78.51-1.38-.3-2.09-.29a12.86,12.86,0,0,0-2.56,0c-2.25.53-4.46,1.2-6.69,1.82-.19,0-.38.13-.57.17a1,1,0,0,1-.34-.07.8.8,0,0,1,.23-.18c1.85-.67,3.69-1.38,5.56-2,1.21-.39,2.46-.62,3.69-1,.13,0,.24-.16.36-.25-.12-.15-.21-.42-.35-.44a4.66,4.66,0,0,0-1.29,0c-3.19.4-6.37.82-9.56,1.24-.16,0-.32.09-.49.1s-.59,0-.89,0a8.76,8.76,0,0,1,.85-.47c2.06-1,4.34-.69,6.5-1.13,1-.21,2-.34,3-.52.11,0,.2-.15.29-.23a1.4,1.4,0,0,1-.28-.06c-2-1-4-.17-6-.2a17.44,17.44,0,0,0-1.9.18.72.72,0,0,1-.28-.07c.06-.1.11-.27.2-.29a17.3,17.3,0,0,1,1.76-.41c1.41-.24,2.83-.44,4.25-.69a.63.63,0,0,0,.21-.52A1,1,0,0,0,19.3,64a8.64,8.64,0,0,1-2.05.38c-1.38.23-2.77.41-4.15.69-.94.19-1.86.52-2.8.77a2.31,2.31,0,0,1-.58,0,1.52,1.52,0,0,1,.43-.3l5.59-1.9c.29-.1.81,0,.72-.61s-.49-.46-.9-.5c-3.3-.38-6.55.47-9.84.31a6,6,0,0,1-.61-.1,3.72,3.72,0,0,1,.64-.22c1-.1,2.07-.16,3.1-.28,2-.24,4-.5,6-.8.18,0,.42-.36.44-.56.22-2.53.46-5.06.59-7.6.08-1.64,0-3.28,0-4.92a12.46,12.46,0,0,1,.06-1.5,21,21,0,0,0-.19-5.6c-.21-1.66-.34-3.32-.41-5-.18-4.11-.35-8.22-.45-12.34-.1-4.32-.2-8.64-.11-13A10.51,10.51,0,0,1,15.8,6.44c.52-1,1.14-2.24,2.49-2.6.1,0,.24-.07.26-.14.37-1.3,1.53-1,2.39-1.09C24.4,2,27.87,1.41,31.35,1c3.89-.45,7.8-.83,11.71-1a68,68,0,0,1,8.43.4c4.25.37,8.49.92,12.74,1.32,1.43.13,2.88,0,4.32.07A68,68,0,0,1,80,3.09c2.44.57,4.95.85,7.39,1.41,1.78.41,3.5,1.07,5.26,1.62a19.83,19.83,0,0,1,6.2,3.18,6.89,6.89,0,0,0,1.89.63,13.57,13.57,0,0,1,3,1.09c2.08,1.32,4.62,1.56,6.67,2.92a26.78,26.78,0,0,1,2.6,1.67q2.58,2.13,5,4.44A26,26,0,0,1,121.16,24a22.32,22.32,0,0,1,2.36,4.48,47.33,47.33,0,0,1,3.09,13.26c.33,3.32.36,6.67.52,10,0,.32-.12.7.43.69a25.71,25.71,0,0,1,6.36.73c.22.05.48,0,.69,0s.32.23.48.36c-.15.07-.31.21-.47.21-1.13-.07-2.26-.21-3.4-.23s-2.39.05-3.59.09a.69.69,0,0,0-.38.12,3,3,0,0,0-.34.44,1.4,1.4,0,0,0,.5.14c1.29-.09,2.58-.25,3.87-.31a11.26,11.26,0,0,1,2.09.16c.19,0,.35.23.52.36a1.59,1.59,0,0,1-.55.25c-1,.08-2,.09-3,.18a17.9,17.9,0,0,0-1.78.31c-.08,0-.14.12-.21.17a.58.58,0,0,0,.25.09c2,0,4,0,6,.07,1.7.06,3.4.21,5.09.36.22,0,.62.29.6.38-.13.72.36.63.79.7a15.19,15.19,0,0,1,1.65.38c.13,0,.2.27.29.41-.11.06-.24.17-.35.16a51.34,51.34,0,0,0-8.59-.26,28.36,28.36,0,0,0-6.75.84c-.25.06-.44.36-.66.55.26.12.52.35.77.33,2.9-.21,5.8-.53,8.71-.65a54,54,0,0,1,5.68.24c.24,0,.47.3.7.46a3.1,3.1,0,0,1-.88.28c-2.64,0-5.29-.17-7.93,0-2.39.12-4.77.53-7.15.88-.25,0-.42.57-.62.86.24.09.48.28.71.27,3.07-.2,6.14-.49,9.21-.63,1.8-.08,3.6.06,5.4.12a4,4,0,0,1,1.09.18,4.55,4.55,0,0,1,.76.39,3.12,3.12,0,0,1-.87.2,57.88,57.88,0,0,0-9.31.13,31,31,0,0,0-6.36.88c-.33.1-.87.39-1.14-.23a.52.52,0,0,0-.33.09c-.13.19-.18.44-.3.64-.33.54.07.65.44.64s.91-.17,1.37-.19c2.76-.14,5.53-.34,8.3-.37,2.4,0,4.82.16,7.23.25.06,0,.14,0,.19,0,.33.18,1,.42.93.53-.13.62-.57.14-.88.14-3.85,0-7.7,0-11.55.1-1.83,0-3.66.32-5.48.52a2.14,2.14,0,0,0-.68.33,5.92,5.92,0,0,0,.68.42,5.14,5.14,0,0,0,3.13.19,44.75,44.75,0,0,1,5.3-.45c2.24-.09,4.48-.12,6.72-.13a17.51,17.51,0,0,1,2.7.19c.3,0,.57.33.85.52a3.17,3.17,0,0,1-.84.15,69.74,69.74,0,0,0-12.43.47,2.56,2.56,0,0,0-.64.22l.51.32c.32.19.63.39,1,.55a.78.78,0,0,0,.55.08c1.95-.81,4-.61,6-.57,1.84,0,3.68.14,5.51.23a20.74,20.74,0,0,1,2.1.18c.17,0,.3.3.44.46-.18.09-.36.26-.54.26-2.67-.06-5.33-.19-8-.2-1.3,0-2.59.21-3.89.33a1.66,1.66,0,0,0-.33.16c.09.07.19.13.27.2a3.17,3.17,0,0,0,2.83.53,26.83,26.83,0,0,1,9.16,0,1.56,1.56,0,0,1,.66.21c.12.08.13.33.19.51a1.54,1.54,0,0,1-.44.1,25.5,25.5,0,0,0-8.36.19c-.4.06-.79.16-1.19.25a5.2,5.2,0,0,0,1.53.76,18.93,18.93,0,0,0,2.61,0c2,0,4,0,6,0a.91.91,0,0,1,.48.13c.12.07.18.24.28.36-.13.08-.26.21-.4.21-.93,0-1.87,0-2.8.06-1.48,0-3,.08-4.42.14-.16,0-.31.14-.47.21a1.49,1.49,0,0,0,.46.31,1.61,1.61,0,0,0,.69,0,25.32,25.32,0,0,1,6.68,0c.12,0,.22.18.33.28-.12.09-.23.25-.35.26-.5,0-1,0-1.51,0-1.1,0-2.2.1-3.3.19a2,2,0,0,0-.65.32c.19.16.37.45.58.46.93.07,1.87.06,2.81.08s1.66,0,2.49,0c.15,0,.28.22.42.35a1.25,1.25,0,0,1-.4.23c-.76.1-1.53.18-2.29.26-.1,0-.22-.06-.3,0-.33.15-.65.33-1,.5a3.05,3.05,0,0,0,.92.49c1.29.17,2.59.25,3.88.39a2,2,0,0,1,.61.35,1.88,1.88,0,0,1-.56.29,18.52,18.52,0,0,1-2.11.11c-.75,0-.73.51-.45.84,1.77,2.12,1.64,4.75,1.92,7.24a7.9,7.9,0,0,1-.67,3.09,29.84,29.84,0,0,1-1.2,2.8c-.07.15-.18.28-.26.42-.19.32-.38.64-.58,1,.35.09.7.15,1,.25,1.38.4,2.76.78,4.12,1.22.23.07.4.37.59.56a4,4,0,0,1-.86-.09A15.29,15.29,0,0,0,145,94.3c-.19,0-.37.21-.55.32.19.15.36.37.57.41,1.87.34,3.75.64,5.63,1a1.54,1.54,0,0,1,.56.18,1.51,1.51,0,0,1,.35.4,1.48,1.48,0,0,1-.5.1c-2.16-.23-4.32-.49-6.48-.71a7.47,7.47,0,0,0-1.7.09c-.22,0-.4.25-.6.38.18.12.36.31.55.33,1.09.1,2.18.13,3.27.23,1.58.14,3.16.32,4.74.49.12,0,.22.18.33.28-.15.07-.31.22-.46.21-1.56-.07-3.12-.19-4.68-.26-1.27-.06-2.54-.13-3.81-.09a4.65,4.65,0,0,0-1.58.48c-.15.05-.21.31-.31.48a2,2,0,0,0,.51.21l4,.32c1.33.1,2.66.21,4,.34a1.38,1.38,0,0,1,.62.3c.1.08.13.26.19.4a1.61,1.61,0,0,1-.37.07l-8.52-.5a19.64,19.64,0,0,0-2.17,0c-.16,0-.31.27-.47.42a2,2,0,0,0,.51.17l7.19.56a1,1,0,0,1,.56.17,1.89,1.89,0,0,1,.27.61,5.28,5.28,0,0,1-.55,0c-3.11-.17-6.21-.37-9.31-.5a6.87,6.87,0,0,0-1.73.4,9.57,9.57,0,0,0,1.53.46c1.59.19,3.19.32,4.79.47l3.11.27a2.16,2.16,0,0,1,.76.17c.1,0,.12.28.17.42a1,1,0,0,1-.35.1c-3.42-.27-6.85-.6-10.28-.81-1-.07-2.06-.46-3,.16a1.8,1.8,0,0,0-.36.41,2.23,2.23,0,0,0,.43.16c1.67.18,3.33.34,5,.54,1.2.14,2.39.32,3.57.52.21,0,.38.27.56.42a3.07,3.07,0,0,1-.72.11l-5.91-.48c-1.46-.12-2.94-.19-4.39-.38-1.27-.16-2.35.45-3.5.74-.08,0-.15.11-.22.16.1.08.2.21.31.22.66,0,1.32.07,2,.11l7.19.45a.74.74,0,0,1,.38.08,3.54,3.54,0,0,1,.39.54,2.35,2.35,0,0,1-.57.13c-.82,0-1.64-.09-2.47-.13-1.83-.1-3.67-.23-5.51-.27s-3.54,0-5.31.09a1.71,1.71,0,0,0-.5.19c.14.06.28.18.43.18,2.63.16,5.26.28,7.89.46,1.13.07,2.25.25,3.37.43.18,0,.32.33.48.5-.18.1-.36.28-.52.27-1.56-.14-3.11-.36-4.66-.47-2.34-.15-4.69-.24-7-.35a13.76,13.76,0,0,0-2.4,0,10.88,10.88,0,0,0-2,.71c-.06,0-.12.21-.1.21a.71.71,0,0,0,.34.18c1,.11,1.93.24,2.9.29,2.8.14,5.6.24,8.4.38.19,0,.36.27.54.42-.18.12-.36.35-.54.34-1.1,0-2.2-.16-3.29-.16-.51,0-1.34-.27-1.23.8,0,0-.25.18-.39.18-2.13,0-4.26-.1-6.39-.1-1.74,0-3.49,0-5.22.15a8.2,8.2,0,0,0-2.21.81.24.24,0,0,0-.13.22.32.32,0,0,0,.22.14,9.45,9.45,0,0,0,1.3.18c1.37,0,2.74,0,4.11,0s2.73.17,4.09.29c.22,0,.41.27.62.41a2.29,2.29,0,0,1-.61.16c-3.61-.09-7.22-.22-10.84-.24a9.68,9.68,0,0,0-2.6.59c-.18,0-.29.34-.43.52a2.07,2.07,0,0,0,.61.25c1.8.09,3.6.13,5.4.23,1.07.06,2.13.17,3.19.29.16,0,.3.19.46.29a2,2,0,0,1-.57.16c-2.43-.08-4.87-.2-7.3-.25-1.3,0-2.6.08-3.9.14-.14,0-.27.15-.4.23.14.1.27.27.42.29.7,0,1.4.06,2.1.1a5.37,5.37,0,0,1,.88.14c.09,0,.16.17.24.25-.1,0-.21.14-.31.14a37.19,37.19,0,0,1-4.08.15c-1.76-.1-3,.93-4.2,1.86-.54.41-.84.83-1.6.3-.46-.33-1.23-.19-1.75-.48a18.38,18.38,0,0,1-1.8-1.42c-1.32-.94-2.65-1.89-4-2.76-1.69-1.06-3.46-2-5.13-3.07a63,63,0,0,1-6.14-4.35c-1-.86-2.09-1.65-3.1-2.52a12.79,12.79,0,0,0-1.77-1.1l-1.11-.65c-1.76-1.09-3.57-2.1-5.26-3.28-1.44-1-2.7-2.24-4.11-3.29s-2.64-1.8-4-2.72a2.1,2.1,0,0,1-.77-.8,6,6,0,0,1,0-5.11c0-.06-.15-.33-.26-.36a8.17,8.17,0,0,0-1.39-.2c-2.37-.11-4.74-.19-7.12-.3-.43,0-.87,0-1-.61,0-.13-.53-.3-.75-.24-1.71.48-3.4,1-5.09,1.51a3.65,3.65,0,0,1-.66.12c.13-.21.21-.5.4-.63a5.91,5.91,0,0,1,1.09-.48A18.5,18.5,0,0,1,49,84.18c.13,0,.31,0,.39-.06C50.89,82.89,52.63,83.28,54.29,83.33Zm78.84,17.58c-1.19-.3-1.39-.67-.95-1.74a3,3,0,0,0,.19-.46,1.71,1.71,0,0,0,0-.45l-.38.08c-1.1.23-1.46,1.15-1.84,2a5.73,5.73,0,0,0-.21.84c.28,0,.57,0,.85,0s.43-.1.58,0a1.58,1.58,0,0,0,1.75-.35c.3-.17.78-.28.88-.53.34-.93.56-1.9.81-2.86,0-.1,0-.23-.07-.34a.61.61,0,0,0-.26.08,4.07,4.07,0,0,0-.52.58A4.48,4.48,0,0,0,133.13,100.91ZM146.9,84A9.65,9.65,0,0,0,145.84,80a10.64,10.64,0,0,0-3.91-3.75c-.58-.36-1.44-.28-1.48-1.29,0-.16-.4-.32-.62-.46l-3-1.84c-1.46-.91-2.89-1.9-4.41-2.7-.52-.28-1.33-.71-1.94,0s-.8.31-1-.17c-.16-.32-.15-.73-.31-1.05a1.42,1.42,0,0,0-.64-.72c-1.78-.57-3.55-1.19-5.38-1.58-3.12-.66-6.27-1.24-9.43-1.69a47.8,47.8,0,0,0-9.79-.37c-3.2.21-6.49-.18-9.49,1.38a6,6,0,0,0-3.59.47.16.16,0,0,1-.1,0c-.79-.52-1.46,0-2.17.24-1.42.5-2.85,1-4.27,1.45a2.51,2.51,0,0,0-.46.16l-2.92,1.51a42.45,42.45,0,0,0-4,2.07c-1.77,1.14-3.44,2.43-5.13,3.69-1.06.8-2.11,1.61-3.11,2.48s-2.07,1.9-3.06,2.89-1.74,1.82-2.58,2.76a.86.86,0,0,0-.22.68c.18.47-.07.49-.41.56a1.25,1.25,0,0,0-.71.31,30.24,30.24,0,0,0-2,2.39A1.19,1.19,0,0,0,60,89.12c1,.92,2.06,1.88,3.16,2.74a51.15,51.15,0,0,0,7.09,4.64c1.4.76,2.68,1.72,4,2.59.8.52,1.62,1,2.41,1.54,1.67,1.15,3.32,2.31,5,3.48,3.08,2.16,6.15,4.35,9.24,6.51q2.66,1.88,5.36,3.7a1.25,1.25,0,0,0,.88.28,4,4,0,0,0,1.49-.78,35.71,35.71,0,0,1,5.24-3.83,34.46,34.46,0,0,1,6-3.56c2.6-1,5-2.59,7.65-3.42,1.68-.52,3.28-1.29,5-1.79a29.19,29.19,0,0,0,4-1.64c2.74-1.24,5.46-2.54,8.24-3.67A23.61,23.61,0,0,0,145,88.51,8.21,8.21,0,0,0,146.9,84ZM103.09,63.17v.1c.47,0,.94,0,1.41,0s.84-.18,1-.78c.81-2.22,1.7-4.41,2.6-6.59.33-.8,1-1.47.69-2.44,0-.09.07-.27.16-.34a2.4,2.4,0,0,0,.7-2.2,10,10,0,0,1-.07-1.1c0-.2.15-.55.27-.57a.94.94,0,0,1,.69.25c.61.6.56.61,1-.2a10.78,10.78,0,0,1,1.66-3,2.66,2.66,0,0,0,.85-2,27.54,27.54,0,0,0-.19-3.26c-.05-.49-.35-.48-.55-.08-.3.59-.53,1.21-.79,1.83a23.89,23.89,0,0,1-.89,2.22c-.78,1.46-1.75,2.83-2.43,4.34a19.85,19.85,0,0,0-1.93,6.5c0,.64-.77.87-1,.36s-.4-.2-.5,0q-.87,2.25-1.71,4.51a2,2,0,0,0-.08.59c0,.41,0,.84-.49,1a3.51,3.51,0,0,1-.56,0,3,3,0,0,1,0-1.15c1.13-2.8,1.65-5.92,4.08-8.07a.6.6,0,0,0,.14-.26c.41-1.2.74-2.43,1.24-3.59s1.23-2.47,1.89-3.69c.55-1,1.25-2,1.7-3,.65-1.49,1.14-3.06,1.67-4.6.13-.4.4-1,.24-1.23-.44-.68,0-1.14.2-1.65a8.18,8.18,0,0,0,.81-1.51c.45-1.83,2-2.94,2.89-4.48.09-.16.35-.23.53-.35a1.93,1.93,0,0,1-.13.65c-.78,1.35-1.59,2.68-2.36,4a3.62,3.62,0,0,0-.38,1c-.15.67-.18,1.38-.39,2-.28.86-.7,1.68-1,2.53a.9.9,0,0,0,.05.79,3.55,3.55,0,0,1,1,2.93,2.14,2.14,0,0,0,.2.67,2.37,2.37,0,0,0,.47-.48c.19-.35.31-.74.48-1.1.4-.88.8-1.76,1.22-2.63,0-.09.19-.12.29-.18a1,1,0,0,1,0,.29c-.24.79-.46,1.59-.74,2.38-.54,1.5-1.12,3-1.68,4.5-.19.53-.42.83-1,.33-.26-.22-.5-.19-.66.23q-2.15,5.5-4.34,11a1,1,0,0,1-.41.31c-.64-.67-.74,0-.92.37-.3.67-.63,1.34-.86,2a18.75,18.75,0,0,0-.59,2.23c-.12.53.32.59.67.66s.61,0,.71-.46a9.23,9.23,0,0,1,.64-1.65,5.77,5.77,0,0,0,.76-1.72c.09-1.37,1-2.31,1.57-3.42,0-.09.19-.14.29-.21,0,.14.1.31.06.43-.33,1-.66,2-1,2.94s-.85,2.18-1.22,3.29c-.07.21.12.51.19.76a2.52,2.52,0,0,0,.91-.32,1.22,1.22,0,0,0,.34-.82c0-2.06,1.39-3.63,2-5.49a37.38,37.38,0,0,1,1.72-3.83c.76-1.63,1.52-3.27,2.29-4.89.06-.13.28-.18.43-.27.09.17.25.33.26.49a1.67,1.67,0,0,1-.22.55c-1,2.46-2.08,4.92-3.1,7.39-.34.83.07,1.35.94,1.12A1.72,1.72,0,0,0,116.16,56a30.44,30.44,0,0,1,1.5-3.81,14.13,14.13,0,0,1,1.39-2.07c.06-.08.24-.07.36-.1a.91.91,0,0,1,0,.33c-.89,2.09-1.8,4.16-2.68,6.25a.89.89,0,0,0-.06.67c.73,1.22,0,2.08-.66,3s-1.53,1.3-1.61,2.45c0,.16-.53.45-.77.4s-.52-.53-.46-.71c.33-1-.22-1-1-1s-1.09.5-1,1.37c0,.69.53.63,1,.68,1.79.19,3.58.35,5.35.64,1.24.2,1.83-.06,2.13-1.26a1,1,0,0,0,0-.28,1.79,1.79,0,0,1-.22.13c-.2.05-.43.16-.58.1s-.16-.37-.12-.53a24.7,24.7,0,0,1,1-3c.77-1.66,1.68-3.27,2.52-4.91.23-.45.35-.94,1-.84.12,0,.36-.38.45-.62.24-.62.39-1.28.68-1.88.1-.21.5-.27.77-.4a2.61,2.61,0,0,1,0,.92,15.28,15.28,0,0,1-1.06,2.33A6.9,6.9,0,0,1,123.05,55c-.11.12-.31.17-.38.3-.81,1.53-1.6,3.06-2.39,4.6-.07.13,0,.32,0,.48a4.13,4.13,0,0,0,.42-.31c.11-.11.19-.25.29-.37.07.17.21.35.2.51a5.26,5.26,0,0,1-.24,1.18,20,20,0,0,1-1,2.51c-.26.54-.13.73.36.84.82.18,1.64.35,2.47.49a.53.53,0,0,0,.41-.28c.46-1.1.91-2.21,1.32-3.34a2.22,2.22,0,0,0,0-.81c-.31.09-.73.08-.92.29a8.94,8.94,0,0,0-.84,1.29,1.5,1.5,0,0,1-.37.28,1.06,1.06,0,0,1-.15-.43c0-.19,0-.47.16-.56a2.74,2.74,0,0,0,.94-2.11,6.47,6.47,0,0,1,.41-1.34,1.49,1.49,0,0,1,.36-.4,1.94,1.94,0,0,1,.31.56c0,.18-.08.38-.09.58s0,.41.07.62c.22-.13.61-.23.64-.4a17.49,17.49,0,0,0,.21-2.18c.13-2.54.39-5.08.34-7.62-.06-2.7-.47-5.38-.63-8.07a46.36,46.36,0,0,0-2.64-12,23.24,23.24,0,0,0-6.37-9.4,30,30,0,0,0-3.64-3.14,33.86,33.86,0,0,0-5.18-3,26.84,26.84,0,0,0-4.13-1,25.89,25.89,0,0,0-7.75-.45c-2.13.07-4.25.39-6.38.5a3.92,3.92,0,0,0-3,1.57,29.17,29.17,0,0,0-2.46,3.75c-1.24,2.2-2.43,4.44-3.58,6.69-.65,1.27-1.2,2.6-1.75,3.92-.83,2-1.62,4-2.44,6.06,0,.14-.2.24-.3.36a1.91,1.91,0,0,1,0-.48c.55-1.53,1.08-3.08,1.66-4.6.46-1.17,1-2.32,1.48-3.49a1.36,1.36,0,0,0,0-.45c-.08,0-.21,0-.25.09-.5.71-1.27.64-2,.72-.27,0-.69.15-.75.33-.54,1.66-2.07,3.16-1,5.14a1.36,1.36,0,0,1,.06.29c.19.7,0,1.08-.78,1.2a1,1,0,0,0-.64.46c-1.5,3.36-3,6.73-4.41,10.12-.47,1.1-.81,2.26-1.19,3.4a1.78,1.78,0,0,0,0,.46,1.59,1.59,0,0,0,.38-.06c.7-.31,1.4-.62,2.08-1a.88.88,0,0,0,.38-.43c.33-.88.59-1.79,1-2.65.66-1.59,1.38-3.16,2.1-4.72.09-.19.3-.32.46-.48a4.41,4.41,0,0,1-.11.65c-.81,2.16-1.61,4.31-2.45,6.45-.28.73-.53,1.38.33,1.91.16.1.22.4.31.61s.19.44.28.66c.13-.23.27-.45.4-.69.39-.73.78-1.47,1.19-2.19.06-.11.26-.15.39-.22a1.88,1.88,0,0,1,.12.45,1.07,1.07,0,0,1-.12.37c-.6,1.42-1.22,2.83-1.81,4.25-1,2.46-2,4.93-3,7.42a11.89,11.89,0,0,0-.3,1.91c-.06.31-.11.72-.32.89a3.86,3.86,0,0,0-1.1,2.3c-.11.45-.3.88-.45,1.33-.74,2.15-1.48,4.29-2.21,6.44-.11.33-.35.64.25.85.44.16.44.54-.11.76-.3.11-.71.29-.82.54-.31.73-.46,1.52-.73,2.27-.07.2-.31.33-.47.49-.15-.18-.4-.36-.41-.55a2,2,0,0,1,.2-.85c.13-.34.28-.68.43-1,.29-.66,0-.85-.63-.75a.87.87,0,0,0-.53.2,5,5,0,0,0-1,1.31,43,43,0,0,0-1.46,4.27c-.29,1,0,1.25,1,1.14a1.58,1.58,0,0,1,1.53.39c.47.47,1.45.18,1.93-.31.67-.69,1.4-1.32,2.11-2,.49-.45,1-.85,1.47-1.33a1.81,1.81,0,0,0,.36-.89A9.07,9.07,0,0,1,68.45,75c.17-.54.5-1,.69-1.56.62-1.73,1.19-3.48,1.84-5.2a7.61,7.61,0,0,1,.9-1.56c.07-.12.34-.1.51-.14,0,.15.1.33,0,.46-.19.54-.42,1.05-.62,1.58-.84,2.22-1.68,4.43-2.5,6.65,0,.09.11.23.16.35.58-.46,1.36-.82,1.69-1.42A45.87,45.87,0,0,0,73,69.84a9.48,9.48,0,0,1,.27-1c.49-1,.82-2.24,1.61-2.91s.62-1.53,1.1-2.2c.06-.09-.11-.47-.27-.58-.59-.4-.5-.91-.27-1.42a9.24,9.24,0,0,1,.87-1.57C76.91,59.42,78,59,78,57.78c0-.07.13-.15.17-.23l1.13-2.24c.42-.83.83-1.67,1.25-2.49,0-.09.22-.13.33-.19a1.19,1.19,0,0,1,0,.38c-.28.71-.58,1.42-.86,2.14-.21.53-.64,1.12-.53,1.56s.92.43,1.42.63l.18.1c.4.29.62.2.81-.27.47-1.18,1-2.34,1.51-3.49a4.32,4.32,0,0,1,.64-.8,3.31,3.31,0,0,1,0,1c-.84,2.13-1.75,4.23-2.59,6.36-.62,1.59-1.16,3.21-1.77,4.8a2.47,2.47,0,0,1-.57.65,2.77,2.77,0,0,1-.2-.91,3.51,3.51,0,0,1,.41-.88c.15-.33.29-.67.41-1a1.21,1.21,0,0,0,0-.38,2.12,2.12,0,0,0-.36.1,7.35,7.35,0,0,1-1.72.73c-.53.08-.64.32-.9.71-.8,1.18-.57,3-2.14,3.7-.07,0-.06.19-.1.28q-1,2.49-2,5a.91.91,0,0,0,0,.37,1.22,1.22,0,0,0,.43-.08c1.76-.93,2.15-2.83,3-4.38.56-1,1-2,1.48-3a2.3,2.3,0,0,1,.36-.41,5.35,5.35,0,0,1,.15.64c0,.13-.09.26-.14.38-.5,1.2-1,2.39-1.51,3.59,0,.12-.05.25-.08.37a1.39,1.39,0,0,0,.46,0c.53-.25,1.06-.52,1.59-.78A2.67,2.67,0,0,0,79.83,68a1.54,1.54,0,0,1,.29-.62,1.87,1.87,0,0,1,.53-.26,3.5,3.5,0,0,1,0,.56c0,.24-.1.47-.15.71a4.85,4.85,0,0,0,.76-.14c2.77-1.09,5.49-2.31,8.3-3.24a23.67,23.67,0,0,1,4.85-.74.89.89,0,0,0,.88-.74c.51-1.53,1.08-3,1.66-4.53.42-1.07.87-2.14,1.36-3.19a16.67,16.67,0,0,1,1-1.74c0-.07.2-.09.3-.14a.75.75,0,0,1,0,.29,1.56,1.56,0,0,1-.14.48c-.69,1.7-1.42,3.37-2.08,5.08-.41,1.09-.73,2.22-1.07,3.34a.74.74,0,0,0,.08.61,1.43,1.43,0,0,0,1.78-.5c.78-2,1.53-4,2.33-6.05.39-1,.87-1.95,1.34-2.91.08-.16.34-.24.52-.36a2.14,2.14,0,0,1,0,.57c-.39,1.07-.83,2.12-1.18,3.2a5.82,5.82,0,0,0-.41,2.11,2.25,2.25,0,0,1-.57,1.63,4.29,4.29,0,0,0-.7,1.38c-.15.56.06.88.77.73C101.22,63.36,102.16,63.29,103.09,63.17ZM16.58,59h.05a8.17,8.17,0,0,0,0,1.31,1.23,1.23,0,0,0,.4.74,9.24,9.24,0,0,0,1.53.94,17.26,17.26,0,0,1,5,3.69c.49.51.85.89,1.63.7.24-.06.87.44.84.59-.14.78.44.94.87,1.27s.9.7,1.33,1.07c1.18,1,2.3,2.11,3.53,3.07s2.69,1.87,4,2.84a3.66,3.66,0,0,0,2.12,1.11c.3,0,.82.36.85.61.12.94.89,1,1.49,1.25s1.28.53,1.88.86c1.18.63,2.34,1.29,3.49,2,.52.31.8.27.83-.4.06-1,.2-1.92.17-2.88a18.67,18.67,0,0,1-.11-3.83c.57-3.39.71-6.86,1-10.3a28.63,28.63,0,0,0,.16-3.21q-.16-5.93-.4-11.85c-.14-3.27-.41-6.54-.5-9.82s0-6.63,0-9.94c0-2.41.08-4.81.16-7.22,0-.37.18-1,.33-1.06.57-.07.77.41.79.93,0,.3,0,.6,0,.9,0,.9-.09,1.8-.12,2.71a1.58,1.58,0,0,0,.15.43,2.06,2.06,0,0,0,.23-.37c.49-1.45,1-2.9,1.46-4.36a1.34,1.34,0,0,0,0-.35c-.12,0-.28,0-.38,0-.55.33-1.05.18-1.23-.36-.39-1.22-1.5-1.71-2.4-2.22a27.57,27.57,0,0,1-4.54-3.55c-.08-.07-.28,0-.41-.05a1.61,1.61,0,0,1-.55-.29c-.27-.23-.46-.6-.76-.76-1-.54-2.09-1.05-3.16-1.5-1.36-.57-2.72-1.13-4.12-1.57-.86-.27-1.62-1.11-2.71-.56a1.59,1.59,0,0,1-1.15-.2c-.31-.14-.71-.49-.17-.82s.24-.36-.05-.51C26.07,6.9,24,5.8,21.79,4.76a3.05,3.05,0,0,0-3.23.33A4.91,4.91,0,0,0,16.43,8c-.33,1.7-.59,3.42-.84,5.14a8.13,8.13,0,0,0,0,1.56c.05.84.18,1.68.19,2.52,0,1.83,0,3.66,0,5.49s0,3.61.07,5.41A35.77,35.77,0,0,0,16,32.43,29.13,29.13,0,0,1,16.23,39a2.5,2.5,0,0,0,.12.58c.19,1.23.43,2.46.52,3.7.08,1-.05,2-.06,3,0,1.5,0,3,0,4.48,0,.66-.07,1.33-.07,2,0,1.4,0,2.8,0,4.19C16.7,57.61,16.63,58.28,16.58,59Zm32.29-2.67h0c0,.41,0,.81,0,1.21,0,.1.13.18.21.27a1.18,1.18,0,0,0,.17-.22c.66-1.71,1.32-3.43,2-5.14,1-2.46,1.92-4.92,2.91-7.37.09-.21.37-.35.57-.53,0,.25.16.54.08.76-.26.78-.58,1.55-.91,2.31s-.68,1.29-1,2c-.37.89-.66,1.81-1,2.72-.71,2-1.41,4-2.12,6-.07.2-.24.51-.37.51-.7,0-.59.48-.56.93a11.29,11.29,0,0,1,0,1.3c-.13,2.24-.26,4.48-.43,6.72-.07,1-.21,1.93-.31,2.9s-.22,1.85-.28,2.78,0,1.67,0,2.51-.17,1.42-.2,2.14c0,.52.07,1,0,1.57-.1,1.56-.12,1.52,1.51,1.63.72,0,1.08-.11,1.31-.85.51-1.58,1.11-3.14,1.74-4.68A1.68,1.68,0,0,0,52,73.74a6,6,0,0,1-.81-1.59c-.06-.17.11-.42.17-.63.17,0,.39,0,.51.16.31.28.57.61.86.91.13.15.27.28.41.42a3.28,3.28,0,0,0,.25-.44c.32-.77.61-1.56.95-2.31.1-.21.35-.35.53-.52a2.14,2.14,0,0,1,.06.7c-.25.84-.58,1.65-.8,2.49a1.39,1.39,0,0,0,0,1,1.72,1.72,0,0,0,1.17.62c.23,0,.44-.65.65-1,0,0,0-.13,0-.19.33-1.38.56-2.8,2-3.62A1,1,0,0,0,58,68.16a1,1,0,0,1-.22-.73c.27-1.36.59-2.71.88-4.07a45.07,45.07,0,0,1,3.21-8.71,2.88,2.88,0,0,1,.43-.66,1,1,0,0,1,.33-.2,1.33,1.33,0,0,1,0,.44,11.83,11.83,0,0,1-.42,1.13c-.51,1.15-1.12,2.25-1.52,3.44-.63,1.86-1.16,3.76-1.68,5.66-.24.9-.36,1.84-.51,2.76a1.31,1.31,0,0,0,.12.45,3.11,3.11,0,0,0,.4-.22,2.8,2.8,0,0,0,.24-.33c.14-.16.28-.33.43-.49a2.55,2.55,0,0,1-.07.74c-.42,1.12-.89,2.21-1.32,3.33-.55,1.42-1.06,2.86-1.61,4.28a2.5,2.5,0,0,0-.29,1.81c.09.31-.26.88-.57,1.16a1,1,0,0,1-1-.13,1.4,1.4,0,0,1-.16-1.06c.23-1.09.26-1.07-.78-1.43-.51-.18-.83-.09-1,.45-.52,1.54-1.07,3.08-1.58,4.62a2,2,0,0,0,.08.76c.22,0,.45,0,.67-.1,1.09-.26,2.18-.58,3.28-.77s1.94-.13,2.9-.24a.9.9,0,0,0,.65-.43c.57-1.53,1.07-3.09,1.61-4.63a6.17,6.17,0,0,0,.47-1.1.86.86,0,0,0-.45-.68c-.22-.1-.74,0-.81.13A18.25,18.25,0,0,0,58,78.6a1.35,1.35,0,0,1-.26.69c-.07.09-.5,0-.53,0a3.34,3.34,0,0,1-.11-.84.35.35,0,0,1,.06-.19c1-2.37,1.53-4.89,2.73-7.21a49.55,49.55,0,0,0,2.31-6.39c.89-2.56,1.77-5.12,2.68-7.68.21-.57.33-1-.42-1.26-.17-.06-.41-.38-.37-.51a1.27,1.27,0,0,1,.51-.52c.16-.11.38-.14.55-.25a1.23,1.23,0,0,0,.24-1.89c-1.34-1.22-1.22-2.24.4-3.06a2.22,2.22,0,0,0,1.18-1.4q.72-2.19,1.56-4.35c.19-.46.3-.83-.2-1.11-.67-.36-1.42-.24-1.63.29-.45,1.1-.88,2.22-1.27,3.35-.46,1.32-.86,2.67-1.32,4,0,.16-.3.25-.46.38,0-.21-.18-.45-.12-.62.64-1.78,1.3-3.55,2-5.33.12-.3.26-.61.41-.9.52-.95-.14-1.8-.26-2.69,0,0-.28-.07-.43-.07-1.21,0-1.38,1-1.65,1.76-.71,1.79-1.19,3.67-1.79,5.51,0,.15-.25.25-.38.37-.13-.13-.33-.26-.36-.41a1.35,1.35,0,0,1,.1-.68c.71-1.83,1.4-3.66,2.17-5.47.68-1.61,1.57-3.16,1.43-5a1.23,1.23,0,0,1,1.12-1.49c.23,0,.47-.34.59-.58.48-1,.89-2,1.39-3,.11-.24.43-.39.68-.55.06,0,.18,0,.27,0a1.1,1.1,0,0,1-.06.26c-.48,1-1,1.95-1.44,3-.51,1.18-.46,1.18.58,1.82.47.29.85.22,1.09-.24s.23-.78.43-1.12c.63-1,1.29-2.07,2-3.1a1.37,1.37,0,0,1,.36-.31,1.39,1.39,0,0,1-.07.46c-.64,1.2-1.31,2.39-2,3.58s-.62,1.26.24,2.28c.56.67.66.64,1-.19.55-1.18,1.16-2.32,1.69-3.51.16-.36.27-1.08.12-1.17-.8-.48-.45-1.28-.64-1.91a.59.59,0,0,1,.69-.76c.78.07,1.1-.26,1.18-1a7.21,7.21,0,0,1,.32-.84c.19-.74,1.08-1.47,0-2.25-.06,0,0-.18,0-.28a2.73,2.73,0,0,1,2.15-2.82,1.19,1.19,0,0,0,.65-.52c.52-.88,1-1.82,1.49-2.7.73-1.18,1.51-2.33,2.29-3.48.11-.16.35-.23.54-.34a5.89,5.89,0,0,1-.24.58q-1.19,2-2.38,4c-.12.2-.31.36-.41.56a7.93,7.93,0,0,0-.68,1.63c0,.1.69.36,1.07.55l.26.16c.48.33.71.21,1-.33,1.07-2.19,2.12-4.4,3.36-6.49a29.34,29.34,0,0,1,2.79-3.44l.16-.23a1.41,1.41,0,0,0-.42-.12,50.92,50.92,0,0,0-5.24.79c-.92.23-2.2,0-2.6,1.5-.23.84-1.09,1.49-1.58,2.28a48.05,48.05,0,0,0-3.7,6.28c-1,2.35-2.72,4.4-3,7.05,0,.15-.22.27-.35.41-.07-.19-.24-.39-.21-.56a7.74,7.74,0,0,1,.46-1.73c.32-.69.79-1.31,1.13-2,.58-1.19,1.06-2.44,1.68-3.62.7-1.35,1.58-2.62,2.23-4a18,18,0,0,1,2.72-4.45c.08-.09.16-.3.12-.35a.51.51,0,0,0-.39-.18c-.94.18-2.06,0-2.44,1.29a2.16,2.16,0,0,1-.41.57,29.34,29.34,0,0,0-2,2.72C71.56,20.43,71,21.77,70.35,23a23,23,0,0,0-2.77,7.23.72.72,0,0,1-.31.48,5.21,5.21,0,0,0-2.2,2.67c-.65,1.57-1.29,3.15-2,4.71-.57,1.26-1.27,2.47-1.81,3.75-.76,1.81-1.44,3.65-2.13,5.49-.1.28-.14.88-.06.9,1.11.39,1.25,1.51,1.79,2.31a1.84,1.84,0,0,1-.12,2.63c-.29.38-.57.76-.87,1.11a14.92,14.92,0,0,0-1.65,1.93,21.38,21.38,0,0,0-1.38,3.22c-.1.26.08.65.19,1,.05.13.26.21.35.34.74,1.1.05,3.75-1.16,4.32-.2.09-.68,0-.76-.1-.41-.71-.57-.21-.68.13-.38,1.25-.74,2.51-1.07,3.77-.18.71-.24,1.46-.46,2.16-.08.25-.46.41-.7.61a3.55,3.55,0,0,1,0-.73,26.48,26.48,0,0,1,1.22-4.63c.88-1.94.49-4.29,2-6a1.07,1.07,0,0,0,.16-.36c.6-1.34,1.21-2.68,1.78-4a.75.75,0,0,0,0-.66c-.87-.79-1.5-.66-2,.38-.22.45-.47.89-.65,1.35-.87,2.24-1.69,4.5-2.59,6.72a10.39,10.39,0,0,0-1.19,4.4c0,.14-.25.43-.38.42a.68.68,0,0,1-.49-.36,1.27,1.27,0,0,1,0-.69c.4-1.39.72-2.8,1.24-4.14,1-2.48,1.92-5,3.12-7.36.66-1.3,1-2.32-.18-3.41a1.82,1.82,0,0,1-.26-.5,3.41,3.41,0,0,0-.36.57q-1,2.43-2,4.88c-.37.93-.8,1.83-1.08,2.79s-.4,2-.62,3c0,.14-.21.26-.32.39-.16-.15-.42-.29-.44-.46a2.07,2.07,0,0,1,.13-.88c.63-1.87,1.22-3.76,1.92-5.6s1.6-3.68,2.34-5.54c1.13-2.91,2.21-5.84,3.29-8.77a2.91,2.91,0,0,0,0-.89c-.35.05-.79,0-1,.19a7.4,7.4,0,0,0-1.21,1.46,1.81,1.81,0,0,1-2,1c-.88-.24-1.12.23-1.37.84-.82,2-1.61,4.09-2.49,6.1-.31.71.3,1.32.07,1.93s-.74,1.17-.5,1.95A5.31,5.31,0,0,1,48.87,56.28ZM46.69,3.63v0c-.37,0-.74,0-1.11,0a1.13,1.13,0,0,0-.28.12,2,2,0,0,0,.26.07c.86.1,1.73.19,2.59.3,2.33.29,4.67,0,7,.16,1.55.07,3.1.24,4.65.35.17,0,.33.17.49.26-.18.07-.39.23-.55.2a16.43,16.43,0,0,0-2.45-.51c-2.3-.06-4.62,0-6.93,0-1.35,0-2.7.07-4,0s-3-.22-4.48-.19c-3.11.07-6.21.25-9.32.36a18.52,18.52,0,0,0-5.35.55c-.26.09-.54.15-.8.22a5.49,5.49,0,0,0,.78.51,2.37,2.37,0,0,0,.76.06c.33,0,.66,0,1,0a14.41,14.41,0,0,0,2,.36c1.18,0,2.37-.14,3.56-.15,4.15,0,8.3,0,12.45,0,.77,0,1.54,0,2.31,0a.91.91,0,0,1,.33.13c-.1.09-.18.23-.28.24a5.59,5.59,0,0,1-1,0c-.74,0-1.48-.11-2.21-.07-2.93.14-5.87.35-8.8.48-2.14.1-4.27.13-6.41.21-.16,0-.33.14-.49.21.13.14.23.36.39.4a4.92,4.92,0,0,0,1.36.24c1.79,0,3.58-.18,5.37-.19,2.16,0,4.31.09,6.47.15,1.63,0,3.25.1,4.88.15.4,0,.79.05.72.59s-.54.39-.86.35c-1.15-.18-2.29-.45-3.45-.57a37.56,37.56,0,0,0-9-.15l-1,.11.93.07c.6.06,1,.34,1.09,1,0,.11-.61.26-.94.38h-.1l-.31.17.24.15c1.67.68,3.32,1.45,5.21,1.27a6.72,6.72,0,0,1,2.1,0c2.35.57,4.73.08,7.08.31,2.67.25,5.36.41,8,.71a59.59,59.59,0,0,1,6.24,1c1.21.27,2.69-.17,3.59,1.14,0,.06.26,0,.38,0,.63-.1,1.26-.22,1.88-.34a1.07,1.07,0,0,0,.32-.2c-.11-.09-.21-.23-.34-.26-.88-.2-1.75-.39-2.63-.55-3.12-.58-6.25-1.15-9.37-1.74a7.22,7.22,0,0,1-1-.36,3.05,3.05,0,0,1,1.07-.24c2.36.32,4.72.6,7,1.06,2.6.51,5.29.66,7.77,1.75a.48.48,0,0,0,.29,0c.86-.14,1.72-.28,2.57-.45a1.54,1.54,0,0,0,.46-.27A2.91,2.91,0,0,0,76.4,13c-1-.27-1.93-.58-2.91-.77-2.79-.52-5.58-1-8.39-1.46-2.44-.38-4.91-.6-7.34-1a27.19,27.19,0,0,0-6.55-.54.7.7,0,0,1-.57-.42c-.07-.41.17-.55.63-.48.84.14,1.69.18,2.54.27,2.2.22,4.41.4,6.6.7,2,.26,3.93.65,5.9,1s4.16.64,6.23,1,3.89.68,5.83,1a2.89,2.89,0,0,1,.71.34c.17.09.34.29.49.27,1.26-.13,2.52-.29,3.78-.47.11,0,.2-.14.29-.22a1,1,0,0,0-.32-.19c-1.6-.43-3.2-.87-4.81-1.26-.68-.17-1.38-.23-2.06-.37-2.2-.43-4.38-1-6.59-1.31-4.19-.68-8.4-1.25-12.59-1.91-.23,0-.42-.37-.63-.57.27-.06.56-.23.79-.16a6.77,6.77,0,0,0,2,.42,33.38,33.38,0,0,1,4.84.69c1.32.22,2.63.49,4,.71,2.73.45,5.46.83,8.17,1.32,1.64.29,3.25.75,4.86,1.13a19.09,19.09,0,0,1,3.59.92,6.57,6.57,0,0,0,3.13.21c.11,0,.22-.12.33-.18-.1-.09-.19-.23-.31-.26-1.23-.34-2.45-.69-3.69-1-3-.66-6-1.29-9-1.94-.77-.17-1.53-.4-2.3-.56s-1.38-.2-2.07-.31l-4.82-.75c-.57-.08-1.14-.12-1.69-.25-.16,0-.25-.34-.37-.53a2.75,2.75,0,0,1,.56-.25,3.55,3.55,0,0,1,.8.06c2.77.36,5.5.92,8.24,1.49,3.49.72,7,1.2,10.44,2.23a27.92,27.92,0,0,0,6.14,1.2,11,11,0,0,1,1.33.3,11.3,11.3,0,0,0,1.42.21c.17,0,.35-.13.53-.21a1.86,1.86,0,0,0-.45-.3c-1.6-.52-3.19-1.11-4.82-1.52-3.34-.84-6.68-1.67-10.05-2.35-2.8-.56-5.65-.9-8.48-1.32-.39,0-.64-.14-.61-.59s.47-.39.75-.34c1.88.28,3.75.57,5.62.9,1.67.3,3.35.62,5,1q3.8.86,7.58,1.79c1.75.43,3.48.92,5.22,1.38a8.87,8.87,0,0,1,2.86.79,3.2,3.2,0,0,0,2.62.5l.64-.14a3.91,3.91,0,0,0-.43-.61.81.81,0,0,0-.43-.22c-2.64-.8-5.26-1.66-7.93-2.36C88,7.06,85.47,6.54,82.92,6c-1.44-.29-2.91-.43-4.36-.71-.32-.06-.59-.39-.89-.6a2.93,2.93,0,0,1,1-.31,24,24,0,0,1,2.67.45c2.66.55,5.31,1.13,8,1.7a2.86,2.86,0,0,0,.42,0,1.94,1.94,0,0,0-.4-.22c-1.92-.53-3.83-1.11-5.77-1.55C82,4.47,80.41,4.31,78.84,4s-3.34-.75-5-.88c-2.66-.21-5.34-.2-8-.28-.63,0-1.26,0-1.89,0-2.49-.22-5-.45-7.46-.71s-5-.64-7.58-.83c-2.06-.16-4.14-.16-6.21-.16-1.9,0-3.81,0-5.7.16s-3.83.57-5.74.87a2.37,2.37,0,0,0-.34.08,1.32,1.32,0,0,0,.35.15,4.12,4.12,0,0,0,.7.05l8.62.14c2.74.05,5.48.09,8.22.18A15.7,15.7,0,0,1,51,3.14c.12,0,.2.17.3.26a1.32,1.32,0,0,1-.35.12c-.43,0-.86-.12-1.28-.1C48.68,3.47,47.68,3.56,46.69,3.63ZM48.52,49.3h0c0,.27,0,.54,0,.81a1,1,0,0,0,.16.33c.11-.09.27-.16.32-.28.61-1.56,1.23-3.11,1.78-4.69.43-1.19.74-2.42,1.15-3.62a7.59,7.59,0,0,1,.63-1.1c.15-.29.43-.65.36-.89a2.62,2.62,0,0,1,.25-1.8c.87-2.51,1.59-5.08,2.45-7.6.59-1.71,1.27-3.4,2-5.06a21.82,21.82,0,0,1,1.59-2.93c.92-1.47,1.89-2.91,2.86-4.35.13-.19.42-.28.63-.42,0,.27.07.6,0,.8a18.9,18.9,0,0,1-1.77,2.63c-1.62,1.87-2.44,4.17-3.48,6.35a26,26,0,0,0-1,2.72c0,.12.06.28.09.43a3.37,3.37,0,0,0,.31-.21c.46-.38.87-.81,1.36-1.14a2.1,2.1,0,0,0,1.16-1.62,3.22,3.22,0,0,1,.36-1.14c1-1.93,1.91-3.89,3-5.78a23.45,23.45,0,0,1,1.84-2.63c.11-.14.38-.17.58-.26,0,.21.07.46,0,.63a9.89,9.89,0,0,1-.85,1.35,33.66,33.66,0,0,0-3.93,7.06,11.67,11.67,0,0,0-.36,1.32c.39-.14.79-.29,1.19-.42.15-.05.33,0,.49-.1s.49-.14.59-.31c.29-.51.49-1.07.75-1.59,1.31-2.59,2.6-5.18,4-7.73a5.32,5.32,0,0,1,1.4-1.4c.15-.13.47-.07.72-.1-.1.26-.11.61-.29.75-1.55,1.17-2.34,2.88-3.29,4.48a6.83,6.83,0,0,0-.48,1.26,5.19,5.19,0,0,1,1.17-.1c1.23.19,1.7-.63,2.13-1.53.56-1.18,1.09-2.37,1.74-3.49a10,10,0,0,1,1.53-1.86c.13-.14.52-.05.79-.06a3.33,3.33,0,0,1-.27.57c-.37.48-.79.92-1.12,1.41C70.2,19,69.6,20,69,21.05s-.68,2.14-1.3,3.14A27.72,27.72,0,0,0,66,27.63a2.11,2.11,0,0,0-.21,1.17c.06.34.41.63.63.95.17-.22.35-.43.51-.66a1.91,1.91,0,0,0,.23-.45,33.76,33.76,0,0,1,3.49-7.84c.94-1.53,1.74-3.15,2.6-4.73l.37-.67a2.63,2.63,0,0,0-.82-.12c-1.76.35-3.53.72-5.29,1.1-2.41.52-4.83,1-7.23,1.59a2,2,0,0,0-1,.68,15.68,15.68,0,0,0-1.2,1.84C57.39,21.76,56.63,23,56,24.33c-.73,1.53-1.34,3.12-2,4.7-.51,1.3-1,2.61-1.45,3.93-.92,2.71-1.81,5.44-2.74,8.16-.07.21-.31.36-.47.54-.08-.22-.27-.48-.22-.66.55-1.86,1.07-3.73,1.73-5.55.82-2.28,1.75-4.53,2.67-6.79.77-1.91,1.53-3.84,2.41-5.7.7-1.47,1.6-2.85,2.39-4.28.07-.12.09-.4,0-.44-.26-.18-1.73.41-1.88.71-.63,1.29-1.27,2.57-1.88,3.86C53.82,24.54,53,26.26,52.27,28c-.83,2-1.57,4.12-2.3,6.2-.41,1.16-.77,2.35-1.08,3.54-.13.52-.09,1.06-.76,1.28-.17.05-.34.43-.33.65.05,1.57.13,3.14.25,4.71S48.36,47.67,48.52,49.3Zm48.19,68.32c.11-.23.29-.44.25-.52a4.36,4.36,0,0,0-.94-1.5c-2.07-1.52-4.21-2.94-6.33-4.4-3-2.07-6-4.13-8.94-6.21-2.39-1.66-4.72-3.4-7.15-5-2.08-1.38-4.28-2.58-6.39-3.91-1.55-1-3.08-2-4.57-3-1-.68-1.85-1.48-2.77-2.22-.29-.23-.6-.42-.9-.63a6.34,6.34,0,0,0,.14,1.16,1.22,1.22,0,0,0,.47.59c1.24.95,2.52,1.86,3.75,2.82.81.63,1.5,1.42,2.35,2,2.76,1.86,5.57,3.64,8.36,5.45.69.44,1.43.83,2.09,1.33,1.39,1,2.72,2.2,4.12,3.25,1,.79,2.17,1.5,3.28,2.22,2.19,1.41,4.36,2.83,6.59,4.18a29.54,29.54,0,0,1,5.68,4A3.92,3.92,0,0,0,96.71,117.62Zm-38.9-82.2.35,0a2.72,2.72,0,0,1,2.43,1.12,1.88,1.88,0,0,1-.31,2.75,5.59,5.59,0,0,0-.92,1,22.91,22.91,0,0,0-1.59,2.46,17.24,17.24,0,0,0-1.1,2.67c-.53,1.58-1,3.18-1.46,4.78a3.5,3.5,0,0,0,0,1A10.41,10.41,0,0,0,56.3,51c.12,0,.23-.19.29-.32a4.54,4.54,0,0,1,.62-1.31A10,10,0,0,0,59,46.23c.24-.5.37-1.06.59-1.57.61-1.4,1.26-2.78,1.86-4.19,1.14-2.67,2.25-5.35,3.39-8,.33-.79.29-.89-.58-.89s-1.47.09-2.2,0-1.11.44-1.26,1.11c0,.22,0,.47,0,.7s-.16.24-.25.36c-.11-.1-.29-.2-.3-.32a9.16,9.16,0,0,1,0-1.05c0-.13,0-.25,0-.38s-.38,0-.45,0c-.44.53-1.31.74-1.23,1.69,0,.17-.28.37-.43.55-.15-.14-.4-.27-.43-.44a.92.92,0,0,0-.89-.87c-.2,0-.39-.32-.53-.53-.33-.51-.56-.4-.72.1-.35,1.1-.69,2.2-1,3.31a4.94,4.94,0,0,0-.12.77c.27-.11.55-.19.81-.32C56,35.91,56.78,35.19,57.81,35.42Zm4.89,36.9c1,.07,1.48-.15,1.74-1,.63-2,1.37-3.9,2.12-5.82.54-1.4,1.31-2.73,1.28-4.31a1.24,1.24,0,0,1,.11-.49c.44-1.07.9-2.14,1.33-3.21.27-.68.53-1.37.77-2.07.11-.31,0-.4-.34-.31-1,.24-2.1.4-3.13.67a1.39,1.39,0,0,0-.89.66c-.81,2-1.59,4.1-2.31,6.18-.64,1.86-1.17,3.75-1.78,5.62-.29.89-.64,1.76-1,2.63A.89.89,0,0,0,61,72.17c.55.25.74-.27.94-.64a6.71,6.71,0,0,0,.36-.83c.92-2.48,1.82-5,2.75-7.43a3.25,3.25,0,0,1,.58-.77.85.85,0,0,1,.14-.11c0,.09.09.19.06.26-.46,1.29-.92,2.58-1.4,3.86-.64,1.76-1.3,3.51-1.92,5.28C62.44,72,62.67,72.23,62.7,72.32ZM47.49,15.81v.1c.67,0,1.34,0,2,0,.17,0,.32.18.48.28a1.59,1.59,0,0,1-.49.17c-.84,0-1.67,0-2.5,0-.15,0-.29.12-.44.19.09.15.15.4.28.45a7.56,7.56,0,0,0,1.68.5,14.46,14.46,0,0,1,2,.08,8.17,8.17,0,0,0,4.72.06A7.09,7.09,0,0,1,58.46,17c.12,0,.29-.2.44-.31a2.68,2.68,0,0,0-.54-.31c-.84-.21-1.68-.42-2.52-.59A28.64,28.64,0,0,0,51.47,15c-2.08-.09-4.17.11-6.26.19a2.42,2.42,0,0,0-.5.16c.16.14.31.39.48.4C46,15.83,46.72,15.81,47.49,15.81Zm.69-2.56c3.54.41,6.85.79,10.15,1.2,1.5.18,3,.34,4.47.65.71.14,1.54-.31,2.17.47.14.17.81-.06,1.23-.15,0,0,.1-.4,0-.44a1.6,1.6,0,0,0-.64-.24c-2.68-.51-5.35-1.08-8-1.48a63.83,63.83,0,0,0-6.47-.64c-2.7-.14-5.41-.13-8.12-.16a3.67,3.67,0,0,0-1,.17c-.11,0-.2.14-.3.21.11.1.21.25.34.3a1.66,1.66,0,0,0,.59.1Zm-.57,18.93a4.21,4.21,0,0,0,0,.5,4.82,4.82,0,0,0,.11.52c.14-.13.36-.23.41-.39.61-1.73,1.16-3.48,1.78-5.2.86-2.35,1.78-4.68,2.64-7a3.94,3.94,0,0,0,0-1.09c-.44.13-1.06.12-1.28.41A10,10,0,0,0,50,22.39c-.57,1.57-1,3.18-1.47,4.79-.15.54,0,1.24-.34,1.65C47.39,29.88,47.66,31,47.61,32.18Zm.17,5s0,.1.09.24c.11-.1.28-.19.33-.32.26-.64.51-1.3.74-2,.78-2.27,1.44-4.59,2.34-6.81,1.17-2.88,2.52-5.7,3.79-8.54a3.11,3.11,0,0,0,.12-.69c-.3.09-.68.09-.87.28a3.85,3.85,0,0,0-.67,1.08c-.59,1.27-1.17,2.54-1.71,3.84-.68,1.65-1.37,3.31-2,5-.47,1.38-.75,2.82-1.18,4.22a11.1,11.1,0,0,1-.72,1.36,2.39,2.39,0,0,0-.29.81A14.25,14.25,0,0,0,47.78,37.19ZM67.06,23.91s-.18-.13-.29-.11c-.46.09-1,.4-1.35.29-1.18-.32-1.36.58-1.75,1.26-.28.48-.56,1-.82,1.46s-.11.92.56,1a4.68,4.68,0,0,1,1.33.36c.42.19.65.06.8-.27.32-.7.61-1.4.89-2.11S66.83,24.6,67.06,23.91ZM58.32,86.05l.16.15c.39-.35.79-.69,1.16-1a3.1,3.1,0,0,0,.37-.57,3.42,3.42,0,0,0-.7-.24c-2-.13-4.05-.27-6.07-.32-.39,0-.8.3-1.2.47a4.66,4.66,0,0,0,1.09.63c1.49.32,3,.56,4.5.83ZM69.43,51.21l.2-.06c0-.27,0-.54,0-.8a3,3,0,0,0-.09-.43,1.67,1.67,0,0,0-.34.31,3.67,3.67,0,0,0-.73,2.82c.05.21-.2.49-.31.73-.24-.13-.56-.21-.69-.42a1.18,1.18,0,0,1-.16-.84,11.61,11.61,0,0,1,.52-1.61c.1-.28.22-.55.31-.83a1.15,1.15,0,0,0,0-.37c-.12,0-.33,0-.36.07a4.57,4.57,0,0,0-.7,1.44,9.58,9.58,0,0,1-.56,3.08c-.18.35,0,.54.32.46a11.36,11.36,0,0,0,2.56-.69c.33-.17.54-.9.54-1.37A4.85,4.85,0,0,0,69.43,51.21Zm10.06,6.91c-.11.08-.44.2-.57.44a18.93,18.93,0,0,0-1,2.25,13.75,13.75,0,0,0-.41,1.56,8.17,8.17,0,0,0,1.44-.83,3.84,3.84,0,0,0,1.66-2.27C80.69,58.58,80.4,58.19,79.49,58.12Zm58.29,40.39c.65,0,.72-.16.44-.79a1.43,1.43,0,0,1-.08-.74c0-.37.18-.72.21-1.08,0-.11-.33-.36-.36-.33-.81.56-1.92.8-2.11,2a15.13,15.13,0,0,1-.55,1.69,2.07,2.07,0,0,0,0,.61,2.94,2.94,0,0,0,.73-.22s-.06-.31-.06-.48a2.15,2.15,0,0,1,0-.84c.05-.09.46-.07.7-.05S137.42,98.44,137.78,98.51Zm-5.7-42.26c-1.64.15-3.12.28-4.6.43a2.35,2.35,0,0,0-.6.24,2.06,2.06,0,0,0,.64.23c.8,0,1.6-.13,2.4-.15l9.39-.25a2,2,0,0,0,.35,0,1.59,1.59,0,0,0-.38-.07L136,56.46ZM33.39,3.79v0c1.07,0,2.14,0,3.21,0,.36,0,.71-.06,1.07-.09a5.13,5.13,0,0,0-1.13-.26q-4.41.07-8.82.2c-1.09,0-2.18.12-3.26.23-.17,0-.32.27-.47.42.34.21.67.43,1,.61,0,0,.17-.37.33-.48a1.54,1.54,0,0,1,.76-.34C28.53,4,31,3.87,33.39,3.79Zm26,46.31-.43-.51c-.17.24-.42.45-.48.71-.15.59.12,1.3-.6,1.7-.05,0,0,.43.08.46.45.17.38.49.13.68a.92.92,0,0,1-.78,0c-.23-.12-.35-.44-.54-.66a2.72,2.72,0,0,0-.38-.29c-.08.18-.25.38-.22.54a2.23,2.23,0,0,0,2.06,1.42c.16,0,.39-.18.42-.31C58.87,52.7,59.09,51.52,59.36,50.1Zm65.48,52.69a3.33,3.33,0,0,0,.29,1c.1.16.51.2.77.17s.46-.32.43-.37a1.92,1.92,0,0,1,.49-2.36c.07-.08,0-.31,0-.46s-.17-.08-.25-.07A2.2,2.2,0,0,0,124.84,102.79Zm-9.92,4.9.13.4,1.17-.42a1.86,1.86,0,0,1-.17-.41,1.23,1.23,0,0,1-.06-.65c.25-.64.57-1.25.84-1.88a2.26,2.26,0,0,0,.09-.53,1.91,1.91,0,0,0-.51.17A4.68,4.68,0,0,0,114.92,107.69ZM128.64,103c.09-.11.54-.53.49-.6a2,2,0,0,1,.11-2.35c.06-.09,0-.24,0-.36s-.27,0-.35,0a2.19,2.19,0,0,0-.62.59,14.62,14.62,0,0,0-.73,1.42C127.15,102.57,127.4,103,128.64,103ZM56.76,40.38c.51,0,.53-.06.52-.53,0-.84,0-1.69.08-2.54,0-.21,0-.41.08-.62-.23.14-.59.24-.68.44A18.34,18.34,0,0,0,56,39.29C55.78,40.1,56,40.32,56.76,40.38Zm63.16,65.38c.94,0,1.19-.45,1.18-1.08,0-.36,0-.73,0-1.09v-.67c-.3.11-.74.14-.87.36a5.51,5.51,0,0,0-.71,1.74C119.43,105.26,119.81,105.59,119.92,105.76Zm-7-45.31c1.11-.11,1.28-.24,1.73-1.6a.72.72,0,0,0-.17-.64.68.68,0,0,0-.66,0,15,15,0,0,0-1.25,1.38,4.34,4.34,0,0,0-.38.66Zm9.93,44.29c.64,0,1,0,.87-.73a11.2,11.2,0,0,1,0-1.64c0-.15-.21-.43-.3-.42-.56.07-.8.49-1,1s-.57,1-.08,1.47A2,2,0,0,0,122.86,104.74ZM114.24,106c-.1-.06-.24-.2-.3-.18-.25.14-.59.26-.68.49a19.74,19.74,0,0,0-.8,2.23,2.14,2.14,0,0,0,.05.75c.27-.15.69-.25.78-.48C113.65,107.91,113.91,107,114.24,106Zm-5.9,5.83a8.35,8.35,0,0,0,1-1.49,11.41,11.41,0,0,0,.41-2,1.33,1.33,0,0,0-.11-.5c-.14.11-.33.2-.41.35a9.84,9.84,0,0,0-.7,1.42,14.43,14.43,0,0,0-.46,1.68C108,111.35,108.15,111.47,108.34,111.82ZM59,36.52c-.28.14-.48.18-.49.25-.18.79-.35,1.59-.48,2.39,0,.13.14.29.21.43.16-.1.38-.17.45-.32a10.31,10.31,0,0,0,.78-1.92C59.5,37.14,59.15,36.82,59,36.52Zm51.22,73.26c.24.29.4.57.45.55.33-.14.8-.07.84-.67.07-.83.25-1.64.37-2.47a3,3,0,0,0,0-.42c-.14.07-.36.11-.41.22C111,107.91,110.6,108.83,110.19,109.78ZM59.7,16.07c.3,0,.57-.06.83-.12s.2-.13.29-.2c-.07-.07-.14-.17-.22-.19l-5-.75c-.06,0-.14.1-.22.16s.09.11.14.12Zm45.8,94.81a1.81,1.81,0,0,0-.6-.14c-.53.1-1.05,1.1-1,2,0,.25.25.49.39.73.21-.14.54-.24.61-.43C105.14,112.38,105.27,111.73,105.5,110.88ZM54,41.93a2.18,2.18,0,0,0,.07.41s.22,0,.25,0a8.82,8.82,0,0,0,1-1.66,6.69,6.69,0,0,0,.22-1.74,1.49,1.49,0,0,0-.11-.44c-.12.09-.31.15-.35.27C54.66,39.8,54.31,40.87,54,41.93ZM40,3.32v.05c-.4,0-.8,0-1.2,0a1.36,1.36,0,0,0-.42.13c.12.07.24.21.36.22,1.7.09,3.4.16,5.1.22.08,0,.17-.16.26-.24a1.15,1.15,0,0,0-.32-.15Zm66.25,107.5c.24.26.43.58.54.55a.91.91,0,0,0,.6-.45,11.23,11.23,0,0,0,.38-1.74,1.07,1.07,0,0,0-.1-.41c-.11,0-.29,0-.34.13C106.93,109.5,106.6,110.12,106.21,110.82Zm37.35-18.74c.07,0,0,0,0,0-.22.12-.52.22-.63.41a15.25,15.25,0,0,0-.79,1.69,1.39,1.39,0,0,0,0,.46,2.73,2.73,0,0,0,.51-.14C143.54,94,143.61,93.12,143.56,92.08ZM77.83,24.47c-.78,0-1.66.71-1.65,1.27,0,.11.23.29.37.3.54.06,1.73-.81,1.66-1.23C78.19,24.64,77.89,24.52,77.83,24.47ZM55.73,62.9l.33.83a4,4,0,0,0,.58-.73,2.19,2.19,0,0,0,.22-1c0-.22-.22-.43-.34-.65-.17.15-.42.26-.51.45A6.29,6.29,0,0,0,55.73,62.9Zm84,34.08a4.83,4.83,0,0,0,.85-.93,2.3,2.3,0,0,0,.06-.88c0-.33,0-.65,0-1a5.62,5.62,0,0,0-.85.92,4,4,0,0,0-.37,1.24C139.39,96.47,139.53,96.63,139.68,97Zm-21.07,7h.2c0-.07-.08-.19-.14-.2a.28.28,0,0,0-.25.11c-.34.71-.66,1.42-1,2.15,0,.06.29.32.46.35s.46-.15.47-.26C118.51,105.36,118.55,104.64,118.61,103.93ZM64,29.12c-.26-.13-.44-.3-.56-.27a1.21,1.21,0,0,0-.69.39,2.81,2.81,0,0,0-.29.93c0,.15-.06.31-.09.46.19,0,.48.09.56,0C63.34,30.17,63.65,29.68,64,29.12ZM54.78,82v0a6.62,6.62,0,0,0,1.09,0c.19,0,.35-.22.53-.34-.2-.13-.39-.36-.59-.37a3.34,3.34,0,0,0-1.08.17c-.43.11-.85.28-1.28.42Zm45,33.06-.24-.44-1.22,1.15c.24.21.47.6.71.61C99.85,116.42,99.59,115.68,99.77,115.08Zm3.14-2.14c0-.16,0-.23,0-.3s0-.35-.06-.53c-.12.14-.29.25-.34.41-.19.57-.34,1.15-.49,1.73,0,.12-.06.29,0,.36a.35.35,0,0,0,.34,0,3.1,3.1,0,0,0,.58-.92A2,2,0,0,0,102.91,112.94ZM67.68,41.46c.16-.31.22-.42.28-.52.31-.6.63-1.2.93-1.8a1.09,1.09,0,0,0,.12-.47.41.41,0,0,0-.19-.3.34.34,0,0,0-.32.12c-.32.78-.62,1.58-.91,2.38C67.55,41,67.62,41.13,67.68,41.46ZM100.33,115l.27.44c.16-.15.38-.28.46-.47a2.83,2.83,0,0,0,.13-.78c0-.29,0-.58.06-.87a1.83,1.83,0,0,0-.92,1.68ZM67.2,38.94a4.28,4.28,0,0,0,.71-.87c0-.08-.27-.44-.43-.45-.38,0-.86,0-.78.61C66.72,38.41,66.92,38.56,67.2,38.94ZM64.6,30.8l.8-.57-.55-.78a9,9,0,0,0-.63.89C64.19,30.39,64.42,30.58,64.6,30.8Zm-30.18-22a4.47,4.47,0,0,0-.94-.11,2.56,2.56,0,0,0-.62.26,2.86,2.86,0,0,0,.84.45C33.85,9.44,34.06,9.13,34.42,8.81ZM69.3,41.36c.08-.09.14-.13.16-.19q.32-.72.6-1.47l-.2-.09c-.26.46-.52.93-.75,1.41C69.08,41.09,69.22,41.23,69.3,41.36ZM49.81,19l.95-.53-.82-.21a.17.17,0,0,0-.1,0l-.63.21Zm8,11.59a12,12,0,0,0-.6,1.19c0,.08.13.23.2.35a9.23,9.23,0,0,0,.63-.91C58.13,31.15,58,31,57.86,30.59Zm58.26,78.74-.77.25a3.69,3.69,0,0,0,.72.15,3.06,3.06,0,0,0,.73-.15Zm6.8.42,0,.11a.74.74,0,0,0-.29,0,2.13,2.13,0,0,0-.42.1,3.84,3.84,0,0,0,.4.14,1.41,1.41,0,0,0,.29,0l1,0ZM66,40.49l.26,0c.12-.34.24-.68.35-1,0-.06,0-.15-.07-.23-.24.29-.5.57-.72.88C65.74,40.19,65.89,40.37,66,40.49ZM61.62,15.68l-.33.28a2.34,2.34,0,0,0,.66.38c.18,0,.39-.18.58-.27Zm-2,36,.31.77c.1-.18.27-.37.26-.56a1.45,1.45,0,0,0-.26-.57Zm-14.12-37,.6-.5c-.12-.1-.27-.3-.34-.28a3.4,3.4,0,0,0-.59.37ZM118.1,109.8l.78-.1-.77-.14a2.63,2.63,0,0,0-.49-.06,2.33,2.33,0,0,0-.35.06,1.74,1.74,0,0,0,.37.21A2,2,0,0,0,118.1,109.8ZM65.32,51.24l.37.35a1.28,1.28,0,0,0,.24-.48c0-.11-.15-.24-.23-.36ZM47,14.47l.54-.1a1.72,1.72,0,0,0-.45-.29c-.14,0-.31.05-.47.08Z"/><path d="M51.71,87.68c1.14.2,2.29.38,3.43.6.17,0,.3.26.45.4a1.62,1.62,0,0,1-.56.19c-1.56-.08-3.12-.17-4.67-.28-.18,0-.35-.17-.52-.27.15-.18.28-.48.46-.51a9.19,9.19,0,0,1,1.39,0Z"/><path d="M.77,62.94l1.71-.09.28,0a1.71,1.71,0,0,1-.3.09c-.65.07-1.31.15-2,.19A1.51,1.51,0,0,1,0,63c.17,0,.34-.1.52-.13A.81.81,0,0,1,.77,62.94Z"/><path d="M88.46,95.16c.7-.18,1.4-.34,2.1-.53a5.85,5.85,0,0,1,1.15-.36A2.9,2.9,0,0,0,93.86,93c.66-.79,1.18-.69,2.47,0a2.06,2.06,0,0,1,.74,3.14,2.19,2.19,0,0,1-1,.74,26.41,26.41,0,0,1-8.58.88c-.22,0-.48.16-.67.1-.39-.13-.93-.27-1.07-.57A1.54,1.54,0,0,1,85.85,96C86.41,95,87.46,95.09,88.46,95.16Zm.77,1.78,0-.09c1.66-.14,3.32-.24,5-.42a2.89,2.89,0,0,0,1.37-.51,1.8,1.8,0,0,0,.68-1.07,1.05,1.05,0,0,0-.54-.89,1.49,1.49,0,0,0-1.23.26,4.53,4.53,0,0,1-2.63,1.25c-1.36.24-2.71.55-4.06.84a.89.89,0,0,0-.23.13c.06.07.11.17.19.19C88.26,96.75,88.74,96.84,89.23,96.94Z"/><path d="M97.64,103.32l-.71-.26c.1-.21.21-.41.31-.62a1.3,1.3,0,0,0,.2-.45c.06-.57.41-.52.86-.54a2.71,2.71,0,0,0,1.41-.42c1.66-1.26,3.05-2.89,5.14-3.54a2.54,2.54,0,0,1,.65-.23c.61,0,1.47-.23,1.63.58a2.4,2.4,0,0,1-.6,1.65,7.68,7.68,0,0,1-3.93,2.26c-1.46.42-2.9.91-4.35,1.38Zm7.8-4.68-.17,0c-1.35.28-2.26,1.28-3.32,2,0,0,0,.12,0,.18s.27.06.36,0c.79-.35,1.58-.7,2.35-1.09a5,5,0,0,0,1-.68.41.41,0,0,0,.1-.35C105.66,98.71,105.5,98.67,105.44,98.64Z"/><path d="M105.24,88.91c-.5-.36-1.12-.59-1.38-1a13.39,13.39,0,0,1-.76-2.21,8.8,8.8,0,0,0-.59-1.09c-.19-.34-.42-.66-.58-1,0,0,.38-.38.45-.34a8.85,8.85,0,0,0,4.27.8c.83,0,1.67.08,2.51.18s1.83.49,1.84,1.24a2.7,2.7,0,0,1-1.31,2A35.1,35.1,0,0,1,105.24,88.91Zm1.37-4V85h-1.1c-1.11,0-1.26.22-1,1.29s.69,1.42,1.75,1.15a26,26,0,0,0,3.16-1.15.84.84,0,0,0,.39-.6c0-.13-.28-.38-.46-.42C108.45,85.13,107.53,85,106.61,84.89Z"/><path d="M79.65,87.3c1.26.3,2.5.56,3.71.91.26.07.43.48.64.73-.36.27-.71.55-1.08.82,0,0-.1,0-.14-.07-.27-.29-.49-.75-.81-.83a7.84,7.84,0,0,0-4.72-.08A2.67,2.67,0,0,0,76,90.89a.92.92,0,0,0,.72.53,11.62,11.62,0,0,0,2.63-.4,11.87,11.87,0,0,0,2-1.07,1,1,0,0,1,.47-.16,2.45,2.45,0,0,1,.64.18c-.1.22-.14.56-.31.65-1,.52-2,.95-3,1.48a4,4,0,0,1-3.2.18,1.41,1.41,0,0,1-1.08-2c.14-.43.12-.92.29-1.34s.4-.76.69-.83C77.06,87.75,78.34,87.55,79.65,87.3Z"/><path d="M91.88,82c-.76.23-1.53.43-2.28.7-.36.14-.4.4,0,.67.81.58,1.6,1.17,2.4,1.76.61.46,1-.11,1.38-.36a14,14,0,0,1,1.2-.87c.21-.1.56.09.85.14-.09.28-.11.66-.31.81-.78.57-1.61,1.06-2.43,1.58a1,1,0,0,1-1.5-.27,4.75,4.75,0,0,0-3-2.32c-.29-.07-.78-.52-.73-.64a1.67,1.67,0,0,1,.73-1,14.58,14.58,0,0,1,2.62-1,6.48,6.48,0,0,1,4.11.47,11.66,11.66,0,0,1,2.06,1c.19.13.15.6.22.91-.28,0-.77,0-.8,0-.29-.85-1.13-.81-1.72-1A17,17,0,0,0,91.88,82Z"/><path d="M110.27,76.74l-5.49-.35a1.12,1.12,0,0,1-.57-.14,2,2,0,0,1-.35-.6,1.47,1.47,0,0,1,.57-.21c.5,0,1.11.28.66-.69-.2-.4.08-.75.59-.82,1.74-.24,3.48-.49,5.12.36a10.27,10.27,0,0,1,1.87,1.27c.39.32.09,1-.5,1.08a17.15,17.15,0,0,1-1.9,0Zm-2.12-2,0,0a14.71,14.71,0,0,0-1.49.1c-.2,0-.36.29-.54.45.21.16.42.46.64.47,1.1,0,2.2,0,3.3-.06a2,2,0,0,0,.68-.31c-.2-.16-.38-.42-.6-.47C109.47,74.88,108.81,74.84,108.15,74.77Z"/><path d="M119.49,73.79a18,18,0,0,1-2.2-.34,1.37,1.37,0,0,1-.81-.74c-.15-.41.09-.76.6-.83.1,0,.19-.15.28-.23-.11-.1-.21-.25-.33-.27-.35-.06-.76-.12-.57-.58a1,1,0,0,1,.77-.45,7.14,7.14,0,0,1,1.75.39,16.81,16.81,0,0,1,2.57,1,1.37,1.37,0,0,1,.69,1.06c0,.3-.62.61-1,.74A9.65,9.65,0,0,1,119.49,73.79Zm-.2-.73.13-.18a5.8,5.8,0,0,0,.6-.06,3.52,3.52,0,0,0,.45-.18c-.12-.14-.22-.34-.38-.4a14.13,14.13,0,0,0-1.7-.57c-.42-.11-.64.17-.36.48A6.87,6.87,0,0,0,119.29,73.06Z"/><path d="M121.72,87.57a5,5,0,0,1-2.91,3.74.89.89,0,0,1-.73,0c-.1,0-.11-.46,0-.63.21-.41.2-.63-.27-.85a.5.5,0,0,1,0-.92c.93-.15,1.12-1,1.62-1.51a3.46,3.46,0,0,1,1.15-.91C121.27,86.15,121.79,86.62,121.72,87.57Z"/><path d="M137,86.11a4.38,4.38,0,0,1-.4.69,17.64,17.64,0,0,1-1.78,1.88,31.21,31.21,0,0,1-2.63,1.79c-.08,0-.23,0-.34,0s0-.21,0-.28a1.44,1.44,0,0,1,.27-.42c1.19-1.25,2.39-2.51,3.61-3.74a1.29,1.29,0,0,1,.76-.31C136.67,85.71,136.83,86,137,86.11Z"/><path d="M92.2,74.79a2.75,2.75,0,0,1-.17-.67,1.52,1.52,0,0,1,.24-.58s.12-.05.18-.06a12.76,12.76,0,0,1,5.25-.37,1.74,1.74,0,0,1,.45.23c-.16.11-.3.28-.46.31-.43.1-.87.12-1.3.18l-3.87.59Z"/><path d="M132.43,79.07c0,1.31-1.66,2.58-2.66,2.17a1.68,1.68,0,0,1-.8-1c-.14-.5.28-.71.74-.47.89.47,1.32.28,1.66-.69a2.87,2.87,0,0,1,.46-.71Z"/><path d="M125.92,93.64l.73.24a3.61,3.61,0,0,1-.72.51c-.76.31-1.53.62-2.32.86-.32.09-.92.14-1,0-.31-.5.11-.83.55-1C124,94,125,93.86,125.92,93.64Z"/><path d="M76.38,81.25a2.37,2.37,0,0,1,1.72-2.12,1.88,1.88,0,0,1,.54.17c-.1.18-.18.37-.29.54l-.84,1.29L77,82C76.76,81.66,76.5,81.38,76.38,81.25Z"/><path d="M138,76.52a18.59,18.59,0,0,1,2,1.29c.18.15.07.64.09,1a3.74,3.74,0,0,1-1-.23,10.67,10.67,0,0,1-1.41-1,.82.82,0,0,1-.31-.55C137.43,76.86,137.72,76.75,138,76.52Z"/><path d="M70.86,87.75c-.41.2-.62.41-.82.39-.55,0-1.6-1.8-1.4-2.32a.9.9,0,0,1,.55-.29C69.72,86.19,70.22,86.88,70.86,87.75Z"/><path d="M96.1,52.23A27,27,0,0,0,97,49.52c.08-.34,1-1.23-.4-1.13-.11,0-.25-.21-.36-.33-.27-.3-.48-.2-.58.13-.37,1.17-1.16,2.42-1,3.51.3,1.86-.53,3.21-1.16,4.73s-1,2.81-1.51,4.21a2.13,2.13,0,0,1-.14.38c-.16.23-.34.45-.52.67a2.81,2.81,0,0,1,0-.87c.61-1.7,1.29-3.38,1.84-5.09a7.71,7.71,0,0,0,.17-1.93c0-.13-.08-.26-.09-.39,0-.34,0-.69,0-1a5.1,5.1,0,0,0-1.18.18,8.88,8.88,0,0,1-3.93.36.48.48,0,0,1-.31-.34,2.08,2.08,0,0,1,.3-1c.54-.69.17-1.22-.16-1.79-.19-.31-.33-.65-.52-1a2.93,2.93,0,0,0-.36-.43,1.86,1.86,0,0,0-.3.47c-.32,1.2-.59,2.4-.92,3.59-.06.24-.3.42-.46.63-.09-.22-.28-.46-.25-.67a21.59,21.59,0,0,1,.56-2.63c.8-2.58,1.61-5.16,2.51-7.7.65-1.82,1.44-3.59,2.23-5.35a19.32,19.32,0,0,1,1.23-2.16c.07-.11.25-.16.38-.24a2.2,2.2,0,0,1,0,.37c-.69,1.62-1.42,3.23-2.06,4.88s-1.18,3.38-1.79,5.06c-.19.53,0,.72.48.82a3.13,3.13,0,0,1,.83.33c1,.56,1,.55,1.39-.6s.84-2.09,1.22-3.16c.27-.74.39-1.54.69-2.27.55-1.32,1.18-2.6,1.8-3.89.06-.13.22-.22.33-.34a1.5,1.5,0,0,1,0,.52c-.7,1.84-1.43,3.67-2.14,5.51-.62,1.62-1.25,3.25-1.81,4.9a2.53,2.53,0,0,0,.14,1.13c.1.56.22,1.12.35,1.67a1.77,1.77,0,0,0,.21.41c.11-.11.27-.2.32-.33.47-1.25.9-2.51,1.37-3.75.74-2,1.46-3.93,2.25-5.86a2,2,0,0,0,0-1.9c-.27-.46-.26-.7.43-.86A2.11,2.11,0,0,0,97.8,34.6c0-.13-.1-.27-.16-.41-.1.1-.22.19-.31.3s-.31.4-.47.59a4.37,4.37,0,0,1-.34-.73,2.37,2.37,0,0,1-.08-.8c.06-.75.41-1,1.06-.62s1,.13,1.23-.58c.66-1.68,1.41-3.32,2.19-4.94a11.2,11.2,0,0,1,1.75-3.08c1.64-1.66,2.28-4,3.88-5.61a28.77,28.77,0,0,1,2.85-2.43c.16-.13.52,0,.79,0a3.58,3.58,0,0,1-.47.55,17.2,17.2,0,0,0-4.85,5.74c-.51,1-1,2-1.44,2.94-.05.11-.2.27-.27.26-.89-.23-.94.52-1.2,1a27.1,27.1,0,0,0-2,4c-.53,1.62-1.44,3.29-.51,5.09,0,.08,0,.25.1.27,1.1.43.24.94.08,1.43-.53,1.61-1.55,3-1.93,4.68a31,31,0,0,1-1.19,3.3,4.15,4.15,0,0,0-.23.76,2.41,2.41,0,0,0-.05,1c.05.17,1.5-.35,1.62-.63.44-1.11.86-2.24,1.3-3.35.55-1.39,1.1-2.77,1.66-4.15.14-.35.36-.68-.26-.82-.12,0-.26-.44-.22-.64a23.56,23.56,0,0,1,.67-2.63,53.3,53.3,0,0,1,4-8.62c.35-.64.46-1.38,1.52-1.44.39,0,.74-.92,1.1-1.43,1.25-1.83,2.15-3.92,4.09-5.21a1.66,1.66,0,0,1,.42-.25,1.49,1.49,0,0,1,.47,0c0,.15,0,.33-.15.43-.39.45-.85.85-1.21,1.32-1.28,1.66-2.57,3.32-3.75,5A27.06,27.06,0,0,0,106,27.74c-.09.15-.42.35-.5.3-.57-.36-.66.05-.84.43a44.26,44.26,0,0,0-3.64,9.21,3.62,3.62,0,0,0,0,.47,2.76,2.76,0,0,1,.37-.31,3.39,3.39,0,0,1,.51-.2c0,.18.13.39.07.53-.84,2.22-1.7,4.43-2.56,6.64-.26.68-.52,1.37-.79,2s.36.73.66.93c.82.54.82.5,1.15-.4,1-2.81,2.11-5.61,3.14-8.43.15-.43,0-1,.16-1.41.6-1.8,1.23-3.6,1.93-5.37.15-.37.33-.54-.15-.75-.12-.05-.22-.41-.17-.58a2.46,2.46,0,0,1,1.87-1.16c.68.11.94.64,1.1,1.26a5.48,5.48,0,0,0,.47,1.18,5.11,5.11,0,0,0,.57.75,7.64,7.64,0,0,0,.68-.72,1.11,1.11,0,0,0,.24-.65c-.15-1.51.89-2.59,1.35-3.88a3.53,3.53,0,0,1,.77-1.27c.57-.62,0-.88-.31-1.19-.7-.6-1-.62-1.48.13-.74,1.17-1.35,2.43-2,3.64a3.62,3.62,0,0,1-.54.57c-.05-.29-.24-.64-.14-.85.51-1.08,1.08-2.13,1.67-3.18.29-.52.87-.91.48-1.66-.06-.12.39-.68.43-.66,1,.46,1.27-.56,1.85-.92l.38-.26a2.18,2.18,0,0,1-.08.53c-.07.14-.24.23-.35.35-.53.58-.43,1.06.22,1.48a1.05,1.05,0,0,0,1.69-.31,15.29,15.29,0,0,1,1.25-1.54,1.29,1.29,0,0,1,.56-.36,1.46,1.46,0,0,1,.54.05c-.09.12-.18.25-.28.37-.65.75-1.3,1.49-1.94,2.25-.14.16-.36.47-.31.54a17.32,17.32,0,0,0,1.49,1.72c.06.05.48-.26.72-.41s.33-.23.5-.32a3.75,3.75,0,0,1,.47-.17c0,.18,0,.42-.12.54a20.71,20.71,0,0,0-3.41,5.09c-1,2-1.82,4.12-2.75,6.18-.44,1-.93,1.9-1.39,2.85a4.28,4.28,0,0,0-.34.72,43.24,43.24,0,0,1-2.55,5.73c-1,2.31-1.71,4.76-2.56,7.13a4.41,4.41,0,0,1-.49.83,2.86,2.86,0,0,1-.2-1,21.17,21.17,0,0,1,1.73-5.08c1.56-3,2.91-6.14,4.31-9.23a66.82,66.82,0,0,0,2.73-6.42,23.16,23.16,0,0,1,2.59-5,1.3,1.3,0,0,0,0-1.18,3.94,3.94,0,0,0-1.25-.92s-.3.2-.39.35c-.55.88-1.08,1.76-1.6,2.66a.85.85,0,0,0-.16.46c.27,1.63-.89,2.74-1.47,4.06-.71,1.62-1.44,3.23-2.11,4.87-.33.83-.54,1.71-.84,2.55-.07.19-.27.32-.41.48-.14-.19-.43-.4-.4-.56a7.51,7.51,0,0,1,.41-1.76c.35-.93.8-1.82,1.19-2.74a.93.93,0,0,0,0-.5c-1-.19-.93-1.11-1.2-1.79a5.85,5.85,0,0,0-.38-.63,2.45,2.45,0,0,0-.46.57,15.63,15.63,0,0,0-1.27,4.29c-.13,1.11-.92,2.13-1.32,3.23-.79,2.19-1.55,4.39-2.26,6.61-.08.26.3.66.47,1,.24-.2.59-.34.7-.59.48-1.06.88-2.15,1.32-3.23a4.73,4.73,0,0,1,.35-.56c.05.24.2.51.13.71-.33.94-.75,1.85-1.09,2.78a7.35,7.35,0,0,0-.91,3.35c0,.5-.56,1.07-.91,1.58,0,0-.67-.25-.68-.4-.07-1.47-1.3-2.09-2.12-3-.29-.32-.54-.18-.64.21-.16.61-.28,1.23-.44,1.84a1.88,1.88,0,0,1-.31.69.55.55,0,0,1-.44.05,3.39,3.39,0,0,1-.1-.65Zm-4.23-.3.15-.21a10.41,10.41,0,0,0,1.48,0,.82.82,0,0,0,.5-.5c.87-2.37,1.72-4.74,2.57-7.12l1.74-5c0-.13.08-.35,0-.43a1.42,1.42,0,0,0-1.77.29c-.71,1.61-1.42,3.21-2,4.85-.8,2.08-1.52,4.2-2.29,6.31-.16.46-.39.9-.54,1.37C91.63,51.6,91.8,51.78,91.87,51.93Zm16.51-18.54c-.2-.43-.44-1-.7-1.5a4.8,4.8,0,0,0-.39-.53c-.19.18-.52.34-.54.54a2.52,2.52,0,0,0,.21,1c.12.3.3.58.45.87s.34.67.5,1l.44-1.14A1.76,1.76,0,0,0,108.38,33.39ZM87.88,47.26c.34.73.62,1.36.94,2,.05.09.47.1.47.08.15-.52.49-1.14.33-1.56s-.83-.64-1.3-.91C88.27,46.82,88.05,47.1,87.88,47.26ZM98.82,36.58c-.16-.35-.29-.66-.43-1a6.11,6.11,0,0,0-.7.84,1.07,1.07,0,0,0-.08.69c0,.17.16.44.28.45a.73.73,0,0,0,.59-.2A3.13,3.13,0,0,0,98.82,36.58ZM90.06,50.47h0c0-.3,0-.6,0-.9,0-.1-.09-.2-.14-.31-.09.09-.25.17-.25.26,0,.78,0,1.56,0,2.34,0,.06.2.11.31.17.05-.12.16-.25.16-.38C90.14,51.26,90.09,50.87,90.06,50.47Zm8.57-2.12c-.12.23-.29.43-.25.49a10,10,0,0,0,.89,1.06c.06.07.32.08.34,0s.23-.45.17-.52A13.85,13.85,0,0,0,98.63,48.35Z"/><path d="M88.94,26.84A9.32,9.32,0,0,0,88,28.12a.83.83,0,0,0,.12.78c.68.38.33.62,0,1.07a25.42,25.42,0,0,0-1.53,2.87c-.61,1.26-1.19,2.53-1.72,3.82-.67,1.62-1.27,3.26-1.9,4.9,0,.13-.11.28-.07.39.43,1.16-.4,1.8-.92,2.66a14,14,0,0,0-1.26,3.33c-.27,1-.34,2-.55,3,0,.22-.27.4-.41.59-.11-.24-.34-.5-.3-.71.17-.81.43-1.6.66-2.39,0-.1.13-.19.11-.27a4,4,0,0,1,.54-2.4c.07-.14,0-.35,0-.54l-.3.35c-.11.12-.25.34-.34.32-1.37-.29-1.64.76-2,1.65a.38.38,0,0,0,0,.1c0,.15-.06.3-.08.44a3,3,0,0,0,.41-.17c.14-.08.26-.18.4-.27,0,.19.06.42,0,.56A6.42,6.42,0,0,1,78,49.31c-.12.14-.46.28-.57.21a.8.8,0,0,1-.36-.61,12.87,12.87,0,0,1,.34-1.36,1.32,1.32,0,0,0,0-.44c-.1.08-.24.14-.28.24-.78,1.8-1.54,3.61-2.31,5.42-.17.38-.39.75-.56,1.14a7.52,7.52,0,0,0-.28.84c-.36,1.13-.69,2.27-1.06,3.4-.41,1.29-.87,2.57-1.27,3.86-.25.79-.43,1.6-.65,2.4a.6.6,0,0,1-.19.35c-1.23.64-1.13,2-1.72,3-.06.1,0,.28,0,.43a1.45,1.45,0,0,0,.32-.2c.13-.14.21-.42.36-.46a4.64,4.64,0,0,1,1,0c-.08.25-.09.57-.25.73A8.54,8.54,0,0,1,69,69.67a2.87,2.87,0,0,0-1.29,1.89c-.51,2.07-1.16,4.1-1.76,6.15a2.13,2.13,0,0,1-.27.64c-.08.11-.32.23-.39.19a.84.84,0,0,1-.31-.43,1.12,1.12,0,0,1,.08-.5q.77-2.48,1.55-5c.16-.53.33-1.07.48-1.61.06-.19.06-.4.13-.59a44.12,44.12,0,0,1,2.22-5.56c2-3.49,2.86-7.31,4.11-11,.37-1.12,1-2.15,1.42-3.24.32-.77.54-1.57.86-2.33.21-.49.62-.9.78-1.4a16.12,16.12,0,0,0,.54-2.5c.12-.86.12-1.73.18-2.6a2.13,2.13,0,0,1,.1-.58c.28-.7.63-1.37.88-2.07s.45-1.58,1.35-2c.32-.15.5-.69.66-1.09.73-1.82,1.42-3.66,2.14-5.49.14-.37.38-.67-.12-1s-.17-.67.23-.85a3.28,3.28,0,0,0,1.92-1.92c0-.12.29-.18.44-.27a3.29,3.29,0,0,1-.08.47,3.07,3.07,0,0,1-.26.43c-.22.41-.22.69.36.74s1.11.18,1.67.25,1.08.21,1.31-.63c.1-.36.7-.6,1.07-.89Zm-3.67,2.23c-1.12-.26-1.74.42-2.18,1.58-.58,1.49-1.33,2.91-2,4.39a11.9,11.9,0,0,0-.66,2.1c0,.25.22.57.35.86.16-.19.38-.34.46-.55.46-1.22.83-2.46,1.33-3.66a26.14,26.14,0,0,1,1.32-2.44c0-.09.21-.11.32-.17a1.82,1.82,0,0,1-.06.35c-.22.52-.48,1-.68,1.56-.58,1.56-1.07,3.16-1.72,4.7A2,2,0,0,0,82,40.27c.57.64.55.69.89-.12,1.31-3.1,2.71-6.16,3.86-9.31C87.34,29.25,87.24,29.06,85.27,29.07ZM82,42.76l-.13-.64c-.15.14-.36.26-.44.44A12.56,12.56,0,0,0,81,43.9c.08,0,.22.06.24,0C81.5,43.51,81.78,43.09,82,42.76ZM81,40.9c0-.08-.08-.16-.12-.17a.23.23,0,0,0-.16.08c-.18.38-.35.77-.52,1.17,0,0,.12.07.18.11Z"/><path d="M93.41,25.11c-.45-.1-.79.12-1.1.76a39.3,39.3,0,0,1-2.64,4.7A10.25,10.25,0,0,0,88.59,33c0,.1,0,.25,0,.37a1.33,1.33,0,0,0,.31-.18c.26-.26.49-.55.76-.79.11-.09.3-.08.45-.12a1.65,1.65,0,0,1-.11.45c-.49,1-1,1.86-1.48,2.83a47.81,47.81,0,0,0-2.72,7c-.63,2.4-1.44,4.75-2.14,7.14-.36,1.21-.66,2.44-1,3.66a2.38,2.38,0,0,1-.23.41c-.11-.16-.31-.34-.29-.48a16.36,16.36,0,0,1,.37-1.85c.33-1.18.69-2.35,1-3.52.06-.19.06-.4.13-.59,1.23-3.2,1.79-6.63,3.33-9.73a13,13,0,0,0,.8-2.27,2.28,2.28,0,0,0-.09-.88c0-.31-.22-.68-.12-.93.46-1.06,1-2.12,1.52-3.14,1.36-2.51,2.77-5,4.14-7.52.28-.52.4-1.13.69-1.66a13.61,13.61,0,0,1,.94-1.25c.57-.8,1.16-1.6,1.69-2.42.67-1,1.28-2.1,1.93-3.14a.38.38,0,0,1,.13-.15l.91-.48a7.45,7.45,0,0,1-.38.86c-.79,1.27-1.62,2.52-2.38,3.8-.14.23-.07.58-.1.87.35-.1.81-.09,1-.32.93-1,1.77-2,2.66-3a2.18,2.18,0,0,1,.49-.32,1.91,1.91,0,0,1-.18.57c-.42.56-.87,1.1-1.32,1.64-.08.1-.24.15-.3.26-.24.47-.77,1.19-.62,1.39a2.87,2.87,0,0,0,1.52.8c.22,0,.6-.27.81-.51.92-1.05,1.79-2.14,2.71-3.2a1.85,1.85,0,0,1,.61-.31,3,3,0,0,1-.27.69c-.62.78-1.28,1.52-1.9,2.3-.22.28-.34.65-.56.94-.4.53-.58.93.31,1.1.17,0,.32.24.43.4a1.31,1.31,0,0,1,.12.41c-.13,0-.29.13-.37.09-.63-.38-.77.13-1,.51a21.53,21.53,0,0,0-2.67,5c-.33.9-.9,1.71-1.24,2.6-.48,1.24-.83,2.53-1.27,3.79a1.81,1.81,0,0,1-.4.53c-.1-.23-.31-.49-.27-.68a15.53,15.53,0,0,1,.71-2.19c.59-1.45,1.25-2.87,1.87-4.31a5.16,5.16,0,0,0,.27-1,.34.34,0,0,0-.11-.29,10.82,10.82,0,0,0-1.67-.36c-.17,0-.46.26-.56.47a23.31,23.31,0,0,0-2.15,5.9,1.44,1.44,0,0,1-.19.55c-.09.11-.29.12-.44.18a1.69,1.69,0,0,1-.1-.35,2.66,2.66,0,0,1,.09-.8c.5-1.39,1-2.78,1.53-4.16.17-.44.37-.86.55-1.29.41-1,.28-1.16-.79-1.21Zm3.82-3-.17,0c0-.48,0-1-.09-1.45a.47.47,0,0,0-.16-.24,1.65,1.65,0,0,0-2.19.59l-.72,1.84c-.13.34-.28.67-.42,1,.34.08.7.14,1,.24.6.2,1.18.53,1.62-.3A19.86,19.86,0,0,1,97.23,22.12Zm.52-.31a.69.69,0,0,1,0,.18c-.22.45-.43.91-.66,1.35-.68,1.25-.64,1.18.55,2,.63.42.8.15,1.06-.3a7.26,7.26,0,0,0,1-3.08c0-.72-.4-1.19-1.47-1.24C97.43,20.68,97.63,21.25,97.75,21.81Z"/><path d="M119.08,44a2,2,0,0,0-.08-.5c-.39-.7-.69-1.33.53-1.46.12,0,.24-.3.3-.48.13-.38,0-1,.78-.67.06,0,.29-.24.39-.4.24-.4.44-.83.69-1.22a3,3,0,0,1,.47-.47,1.61,1.61,0,0,1,0,.66A11.12,11.12,0,0,1,120.88,42a3.6,3.6,0,0,0-.42,3.08c0,.11.12.27.21.28a.38.38,0,0,0,.31-.19c.28-.63.5-1.3.8-1.92a8.84,8.84,0,0,1,.73-1.11c0,.47.17,1.05-.05,1.37-.67,1-.35,2.37-1.35,3.22-.12.1,0,.51,0,.77a1.41,1.41,0,0,1-.23.41,1.74,1.74,0,0,1-.3-.31c-.17-.27-.32-.55-.47-.83s-.39-.72-.58-1.08c-.23.36-.43.74-.67,1.09a7.7,7.7,0,0,1-.63.76,1.5,1.5,0,0,1-.33.23c0-.15,0-.36.08-.45C118.89,46.35,118.6,45,119.08,44Z"/><path d="M73,65.31c0-.18-.16-.38-.11-.53.72-2.17,1.47-4.32,2.19-6.49.49-1.49.84-3,1.41-4.48s1.3-2.82,2-4.21c.07-.14.28-.2.42-.31a1.56,1.56,0,0,1,0,.52c-1.48,4-3,8-4.46,12-.33.9-.54,1.86-.83,2.78a4.36,4.36,0,0,1-.39.74Z"/><path d="M116.27,62c.26-.84.41-1.46.65-2q1.78-4.27,3.61-8.54a6.07,6.07,0,0,1,.59-.93,4.75,4.75,0,0,1,.42-.49c.06.27.26.59.18.81a16,16,0,0,1-1,2.28,17,17,0,0,0-2.13,6,16,16,0,0,1-1.09,3.4c0,.1-.44.21-.56.13A4,4,0,0,1,116.27,62Z"/><path d="M88.84,14.71c-.41.62-.8,1.2-1.18,1.79-1.42,2.19-3,4.33-4.22,6.61s-2.39,5-3.57,7.46c-.34.72-.65,1.46-1,2.17-.07.13-.3.17-.46.25,0-.15-.06-.34,0-.46,1.46-3,2.49-6.28,4.43-9.1,1.2-1.74,2.08-3.7,3.15-5.54.67-1.15,1.41-2.26,2.13-3.38.08-.12.26-.19.39-.29Z"/><path d="M97,57.09c-.38.39-.76.76-1.12,1.15s-.66.57-.78.93c-.36,1-.61,2-.91,3.07-.12.4.49.94-.24,1.22-.24.09-.48.21-.71.31-.06-.26-.23-.56-.16-.79.25-1,.57-2,.88-3,.45-1.46.9-2.93,1.36-4.39a1.4,1.4,0,0,1,.24-.54,8.42,8.42,0,0,1,.73-.61,7.38,7.38,0,0,1,0,.82c0,.37-.38.75.27,1C96.67,56.3,96.76,56.73,97,57.09Z"/><path d="M83.83,65.7c-.08-.3-.28-.62-.22-.88.13-.55.43-1,.61-1.59.58-1.84,1.06-3.71,1.72-5.52A36.48,36.48,0,0,1,87.72,54c.07-.14.27-.22.41-.32,0,.18.15.39.1.54a19.47,19.47,0,0,1-.72,2,45.59,45.59,0,0,0-3.12,9c0,.15-.19.28-.29.41Z"/><path d="M86.34,19.75c1.32.62,2,0,2.53-1a32.77,32.77,0,0,1,2.19-3.06,1.11,1.11,0,0,1,.19-.23l1-.74c-.23.3-.47.58-.67.9-1,1.53-2,3-2.9,4.61a7.7,7.7,0,0,1-1.15,1.93,14.7,14.7,0,0,0-1.68,2.77,10.83,10.83,0,0,1-.82,1.1,8.61,8.61,0,0,1,.42-1.24c.27-.53.63-1,.94-1.52.63-1,.53-1.52-.37-2.33a.89.89,0,0,1-.22-.7C85.88,20,86.16,19.91,86.34,19.75Z"/><path d="M85.81,55.52a2.67,2.67,0,0,0-.21.41c-.95,2.41-1.93,4.82-2.83,7.25-.37,1-.57,2.11-.9,3.15-.07.23-.32.39-.49.59-.13-.27-.42-.6-.35-.8.6-1.83,1.25-3.65,1.91-5.46.31-.87.63-1.74,1-2.59s.73-1.62,1.14-2.4c.09-.18.34-.28.53-.38C85.62,55.28,85.74,55.44,85.81,55.52Z"/><path d="M91.13,54.12c-.36.74-.75,1.44-1,2.19-.55,1.45-1,2.93-1.54,4.41-.46,1.32-.89,2.64-1.36,4-.08.22-.33.37-.51.56-.13-.26-.43-.57-.37-.76.34-1,.78-2,1.16-3,.48-1.24.9-2.52,1.41-3.75s1.06-2.37,1.63-3.53c.07-.16.35-.23.54-.34Z"/><path d="M120.63,31.75c-.14.23-.22.37-.31.5-.85,1.15-1.72,2.28-2.55,3.44-.32.45-.52,1-.82,1.45-.11.17-.34.25-.52.37a5.89,5.89,0,0,1-.21-.68.59.59,0,0,1,.16-.36Q118,34.22,119.63,32a1.3,1.3,0,0,1,.56-.38C120.28,31.58,120.44,31.69,120.63,31.75Z"/><path d="M118.37,40.38c-.09-.34-.36-.77-.24-1,.72-1.56,1.52-3.09,2.33-4.6.11-.22.42-.34.63-.51,0,.33.22.73.1,1-.65,1.35-1.37,2.67-2,4-.14.25-.23.53-.35.8a3.21,3.21,0,0,1-.19.31Z"/><path d="M74.26,45.3a1.21,1.21,0,0,1,0-.49q.47-1.43,1-2.82c.56-1.45,1.09-2.91,1.71-4.32a26.41,26.41,0,0,1,1.46-2.59c0-.07.16-.08.24-.12a.92.92,0,0,1,0,.37c-.38.84-.81,1.67-1.16,2.53-1,2.31-1.86,4.63-2.79,7-.06.17-.17.33-.25.5Z"/><path d="M90.68,23.81c0-.2-.07-.44,0-.58.69-1.19,1.4-2.36,2.13-3.52a28,28,0,0,1,1.7-2.58,6.35,6.35,0,0,1,1.29-1c-.26.41-.52.81-.79,1.21l-3.88,5.79c-.15.22-.33.43-.49.64Z"/><path d="M64.88,77.29c-.33.82-.58,1.54-.93,2.21-.09.19-.47.23-.72.33a3,3,0,0,1,.07-.68c.23-.66.48-1.31.76-1.94.08-.19.29-.32.44-.48Z"/><path d="M124,48.41c-.29.71-.57,1.45-.9,2.17,0,.11-.31.13-.48.19,0-.15-.13-.32-.08-.45.24-.71.5-1.42.77-2.13a4.25,4.25,0,0,1,.35-.58C123.71,47.84,123.8,48.07,124,48.41Z"/><path d="M90.66,23.79c-.58,1-1.15,2-1.72,3.05h0c-.06-.22-.24-.51-.17-.66.39-.8.83-1.58,1.29-2.34.06-.09.39,0,.59,0Z"/><path d="M44.34,42.37a10.14,10.14,0,0,1-.44,1.41c-.36.77-.82.8-1.36.17s-1.24-1.37-1.82-2.08a1.2,1.2,0,0,1-.28-.79,10.47,10.47,0,0,1,.41-1.74,2.63,2.63,0,0,0-.67-2.83c-.38-.38-.38-1.16-.48-1.77,0-.14.24-.47.36-.46a.76.76,0,0,1,.62.33,4.71,4.71,0,0,0,2.56,2.46,1.14,1.14,0,0,1,.68,1.09C44,39.52,44.18,40.88,44.34,42.37Zm-1-.77c-.12-.79-.2-1.45-.34-2.1,0-.15-.23-.37-.36-.37a.81.81,0,0,0-.6.24,2,2,0,0,0,.13,2.52,10.21,10.21,0,0,0,.95.91Z"/><path d="M42.17,66.48a1.76,1.76,0,0,1-1.62,1.79A3.3,3.3,0,0,1,37,66.19,5.5,5.5,0,0,1,36.79,63c.29-1.13.9-1.33,1.9-.79a5.72,5.72,0,0,1,3,3Zm-1.1-.16a3.13,3.13,0,0,0-2.4-2.76c-.69-.23-1,.16-.88.64.18.89.15,1.93,1,2.52a2.9,2.9,0,0,0,1.63.47C40.6,67.2,40.83,66.63,41.07,66.32Z"/><path d="M25,43.82c.39,1.45-.82,2.42-1.1,3.65,0,.07-.33.14-.36.1-.25-.37-.66-.76-.67-1.15,0-1.72,0-3.44.08-5.16A5.17,5.17,0,0,1,23.33,40c.43.38,1.08.68,1.25,1.15A14.37,14.37,0,0,1,25,43.82Z"/><path d="M31,25.6c-.61,0-.69-.4-.6-.74a4.57,4.57,0,0,1,1.39-2.7c1-.72,1.82-1.58,3.16-1.45.21,0,.54.08.57.19a.9.9,0,0,1-.07.74,15.42,15.42,0,0,1-3.56,3.56A7.83,7.83,0,0,1,31,25.6Zm1.29-1.69c.59-.59,1-1,1.46-1.5a1.31,1.31,0,0,0-.2-.21c-.47.38-.93.76-1.38,1.17C32.08,23.41,32.17,23.58,32.24,23.91Z"/><path d="M45.05,51c-.19.52-.52,1.53-.94,2.5-.1.23-.53.36-.83.41-.1,0-.32-.36-.38-.59-.24-.9-.48-1.81-.63-2.72-.06-.32,0-.91.19-1,.5-.14.8.19.83.72a.7.7,0,0,0,.06.19c.14.3.3.6.45.89a3.71,3.71,0,0,0,.22-1.1,1.44,1.44,0,0,0-1.9-1.11,3.11,3.11,0,0,1-.69.07c0-.28,0-.64.11-.81a1.5,1.5,0,0,1,.91-.51C43.55,47.84,45,49.32,45.05,51Z"/><path d="M33,39.9a4.36,4.36,0,0,1,.48-1.33,1.14,1.14,0,0,1,1.09,0,9.35,9.35,0,0,1,1.58,2c.46.82-.53,3.09-1.4,3.45-.51.21-.89.25-1-.45C33.55,42.41,33.3,41.24,33,39.9ZM34.21,39c-.06,0-.16.08-.15.11.13,1,.26,2.08.42,3.12a1,1,0,0,0,.39,0,3.66,3.66,0,0,0,.35-1.56,6,6,0,0,0-.86-1.62S34.26,39,34.21,39Z"/><path d="M29,30.1c-.21.94-.39,1.71-.56,2.49a1.53,1.53,0,0,0,0,.37,1.64,1.64,0,0,0,.33-.14c.5-.44.62-.2.57.32a1.93,1.93,0,0,1-.21,1,1.43,1.43,0,0,1-.89.48.85.85,0,0,1-.62-.47,19.67,19.67,0,0,1-.84-2.45c-.14-.48-.15-1,.65-.82.14,0,.33-.23.5-.36a4.19,4.19,0,0,0-.51-.52,2.75,2.75,0,0,0-.55-.23c.12-.25.18-.67.35-.72a1.56,1.56,0,0,1,1.18,0C28.75,29.23,28.85,29.76,29,30.1Z"/><path d="M41.37,30.16a4,4,0,0,1-.5-.05c-.53-.09-1.2-.18-1.18-.82a1.9,1.9,0,0,1,.76-1.13,7.5,7.5,0,0,1,1.4-.75c.41-.21.88-.57,1.22,0s.8,1.24.19,1.83a9.19,9.19,0,0,1-1.78,1.11Zm.92-1.28c-.22-.14-.34-.28-.42-.26a3.14,3.14,0,0,0-.58.29c.09.08.2.24.28.22A3.66,3.66,0,0,0,42.29,28.88Z"/><path d="M28.52,50.11a4,4,0,0,1,.54.69c.32.66.57,1.35.92,2s.57,1.47,1.41,1.84a.65.65,0,0,1,.21,1.09c-.48.54-1,.59-1.45.11a3.21,3.21,0,0,1-.32-.61c-.5-1.12-1-2.23-1.49-3.35a3,3,0,0,1-.21-1.07C28.13,50.62,28.33,50.44,28.52,50.11Z"/><path d="M44.62,60.85a7.16,7.16,0,0,1-.65.67c-.27.2-.52.33-.84-.06-.51-.61-1.15-1.1-1.68-1.7-.16-.18-.12-.53-.17-.81a2.5,2.5,0,0,1,.64.29c.45.4.69.44.85-.25.1-.39.42-.52.69-.06Z"/><path d="M29.18,15a1.05,1.05,0,0,1,.32,0c.3.2.59.42.89.63a3.36,3.36,0,0,1-.95.36,5.46,5.46,0,0,0-2.92,1.15,2.77,2.77,0,0,1-.93.24c.06-.32,0-.73.21-1C26.66,15.37,28,15.24,29.18,15Z"/><path d="M20,16.89c.25-.53.52-1.11.8-1.69a4.17,4.17,0,0,1,.56-1,7.26,7.26,0,0,1,1.36-1c.1-.06.48.12.54.27A.73.73,0,0,1,23,14c-.67.65-1.42,1.21-2,1.91-.27.31-.22.88-.39,1.3-.05.13-.31.18-.47.27Z"/><path d="M18.91,46.39l.41-.44c.15.15.38.27.45.45.4,1.09.66,2.24,1.72,3,.14.1.09.49.12.74-.23-.05-.54,0-.67-.16A6,6,0,0,1,18.91,46.39Z"/><path d="M19.54,26.27c-.32-.37-.62-.6-.59-.71.37-1,.45-2.16,1.43-2.84.16-.11.41-.07.62-.1,0,.17-.08.35-.13.53-.19.66-.35,1.33-.59,2A7.82,7.82,0,0,1,19.54,26.27Z"/><path d="M21.85,55.17A15.25,15.25,0,0,1,22,56.79c0,.21-.22.42-.33.63-.2-.16-.56-.3-.58-.48C21,56,20.93,55,20.91,54c0-.11.34-.34.45-.31a.86.86,0,0,1,.51.46A4,4,0,0,1,21.85,55.17Z"/><path d="M24.32,61c.18-.27.3-.62.44-.63a.78.78,0,0,1,.62.36c.36.7.66,1.44.95,2.17.05.13-.1.46-.19.47-.24,0-.63,0-.71-.12C25,62.5,24.7,61.74,24.32,61Z"/><path d="M28.55,44.39c.21-.26.34-.55.46-.55a.87.87,0,0,1,.63.31A11.28,11.28,0,0,1,30.45,46c.06.18-.14.49-.29.67a.52.52,0,0,1-.5-.05C29.27,45.9,28.93,45.16,28.55,44.39Z"/><path d="M20.55,35.92c0,.2,0,.4,0,.6s-.12.42-.18.63c-.2-.2-.52-.37-.57-.6a19.65,19.65,0,0,1-.36-2.28c0-.16.13-.33.2-.5.19.1.51.15.56.3a18.19,18.19,0,0,1,.48,1.83Z"/><path d="M38.15,55.59a4,4,0,0,1-.24.71.61.61,0,0,1-.42.3c-.14,0-.31-.23-.36-.38a5.82,5.82,0,0,1-.29-1.35,2,2,0,0,1,.25-.74c.28.15.67.22.84.46A2.79,2.79,0,0,1,38.15,55.59Z"/><path d="M31.05,64.75l.92.78-.63.67a4.73,4.73,0,0,1-.56-.79C30.73,65.31,30.9,65.09,31.05,64.75Z"/><path d="M47.92,77.55c.31-1.08.59-2.18.95-3.25s.87-2.3,1.31-3.45c.06-.15.09-.36.2-.45a9.36,9.36,0,0,1,.92-.63,5.77,5.77,0,0,1-.24.93,24.59,24.59,0,0,0-2.25,7.54c0,.18-.27.35-.41.52a2.41,2.41,0,0,1-.4-.58,1.76,1.76,0,0,1,0-.6Z"/><path d="M51.45,10.49l-6.19-.05c-1.92,0-3.84,0-5.77,0a4.87,4.87,0,0,1-1.08-.08c-.17,0-.3-.26-.45-.39.23-.1.6-.35.65-.29.62.67,1.36.22,2,.18a36.66,36.66,0,0,1,7.18.15c1,.13,2,.09,3,.16a2.29,2.29,0,0,1,.66.3Z"/><path d="M51.43,10.51c.15-.06.32-.19.46-.17,1.55.2,3.11.43,4.66.65a1.53,1.53,0,0,1,.48.11c.1.06.23.26.2.3a.52.52,0,0,1-.34.25c-.49-.05-1-.13-1.48-.21-1.13-.19-2.27-.38-3.39-.6a1.91,1.91,0,0,1-.57-.35Z"/><path d="M63.88,3.42c1.38.21,2.63.39,3.87.59.13,0,.23.18.34.27a1.13,1.13,0,0,1-.42.13c-1.35-.11-2.7-.22-4.05-.35-.1,0-.19-.18-.29-.28Z"/><path d="M53.14,3.14c.73,0,1.45.07,2.18.14.1,0,.18.2.27.3a1,1,0,0,1-.32.12c-.94,0-1.88-.07-2.82-.14-.15,0-.3-.18-.45-.27a3.54,3.54,0,0,1,.45-.08l.69,0Z"/><path d="M52.56,7.11,50.8,6.87c-.07,0-.14-.1-.21-.15s.14-.15.21-.16c.52,0,1.05,0,1.57,0a2.08,2.08,0,0,1,.66.31Z"/><path d="M62.12,4c-.63,0-1.27-.06-1.9-.11-.11,0-.22-.12-.33-.18.11-.06.23-.17.33-.17.85,0,1.69.11,2.53.18,0,0,.1.08.15.12s-.12.18-.18.19-.4,0-.6,0Z"/><path d="M58.5,3.23l.62.35c-.1.06-.22.17-.32.16-.34,0-.68-.12-1-.18Z"/><path d="M61.77,33l-.56,1.32c0,.06-.1.09-.14.13s-.08-.13-.07-.17q.26-.74.54-1.47c0-.06.09-.09.14-.13Z"/></g></g></svg>