<svg xmlns="http://www.w3.org/2000/svg" viewBox="0 0 181.27 94.72"><g id="Warstwa_2" data-name="Warstwa 2"><g id="Ńëîé_1" data-name="Ńëîé 1"><path d="M82.6,85.8c-2.64.15-5.29.28-7.94.48-1.48.11-3,.35-4.44.56-.17,0-.33.18-.49.28a1.89,1.89,0,0,0,.47.11c3.47,0,6.94,0,10.41,0a17.29,17.29,0,0,1,2.16.15c.2,0,.37.26.55.41-.19.13-.37.38-.56.38-.91,0-1.81,0-2.72,0l-10.79.12a1.24,1.24,0,0,0-.43.05c-.43.14-.85.3-1.27.46.4,0,.8,0,1.2,0,2.35.14,4.7.27,7.06.43a21.06,21.06,0,0,1,2.24.27c.19,0,.32.31.48.47-.18.09-.36.26-.53.26-1,0-2-.1-3-.12-2.39,0-4.79,0-7.19,0-.63,0-1.26,0-.87-.94,0-.08-.22-.4-.34-.4a4.9,4.9,0,0,0-1.06.18c-.63.15-1.24.36-1.87.49-.17,0-.37-.17-.56-.26s-.37-.23-.46-.18c-3,1.66-6.4,1.88-9.75,2.2-3.68.35-7.35.79-11,1.17-.5.05-1.29.4-1.1-.72a.93.93,0,0,0-.63-.25c-1.39.39-2.76.84-4.14,1.27l-.57.16c.11-.2.17-.51.33-.59,1-.46,2.13-.87,3.19-1.32a4.31,4.31,0,0,0,.74-.49,2.21,2.21,0,0,0-.82-.14c-2.7.72-5.39,1.46-8.09,2.2-.17,0-.33.2-.49.21a2.45,2.45,0,0,1-.65-.15c.15-.21.26-.55.46-.61.81-.25,1.66-.42,2.48-.63s1.68-.44,2.51-.69a2.77,2.77,0,0,0,.63-.42,2.18,2.18,0,0,0-.72-.32,14.25,14.25,0,0,0-5.08,1c-1.45.47-2.88,1-4.32,1.45a1.51,1.51,0,0,1-.59,0c.1-.2.14-.5.31-.59a9.88,9.88,0,0,1,1.12-.4l4.44-1.72a2,2,0,0,0,.24-.16.85.85,0,0,0-.25-.17A2.73,2.73,0,0,0,29.73,89c-1.1.21-2.18.53-3.27.8a2.43,2.43,0,0,1-.62.15.5.5,0,0,1-.41-.26.53.53,0,0,1,.23-.42c.35-.19.74-.31,1.1-.48a1.48,1.48,0,0,0,.28-.28c-.14-.06-.29-.19-.42-.17a23,23,0,0,0-3,.54c-1.24.38-2.42.94-3.64,1.39-.16.07-.4-.06-.6-.09a2.18,2.18,0,0,1,.36-.38A9.42,9.42,0,0,1,24,88.09c.14,0,.25-.2.38-.31-.2-.12-.41-.37-.58-.35a15,15,0,0,0-3.51.61c-1.63.65-3.14,1.62-4.71,2.43a2.34,2.34,0,0,1-.66.11,2.11,2.11,0,0,1,.27-.63,9.87,9.87,0,0,1,4.36-2.57,5.66,5.66,0,0,0,1.13-.56,2.88,2.88,0,0,0,.45-.41c-.22-.1-.44-.31-.64-.29a12.24,12.24,0,0,0-2.58.35c-1.7.51-3.36,1.15-5,1.71a3.17,3.17,0,0,1-.82.08c.18-.28.3-.72.56-.82,1.64-.68,3.32-1.28,5-1.93a6.52,6.52,0,0,0,.93-.58c-.39-.12-.8-.38-1.16-.32-1.84.26-3.65.65-5.48.93-1.37.21-2.74.31-4.11.5a11.35,11.35,0,0,0-1.14.32,1.49,1.49,0,0,1-.47,0c.06-.2.07-.5.19-.57a4.58,4.58,0,0,1,1-.29c2.75-.53,5.5-1,8.24-1.58.32-.06.59-.39.88-.6-.37-.24-.75-.71-1.1-.69-1.7.13-3.39.39-5.08.6l-4.61.56a1.48,1.48,0,0,0-.21,0c-.29.06-.58.14-.87.22a2.85,2.85,0,0,1,.79-.54c.86-.25,1.75-.42,2.62-.62l6-1.38a1.85,1.85,0,0,0,.37-.19,8.29,8.29,0,0,0-.58-1,.51.51,0,0,0-.52,0c-.62.6-1.29.28-1.95.18a4.93,4.93,0,0,0-1.16-.22c-1.86.24-3.72.54-5.57.81l-2.59.34-.21,0c0-.79-.54-.74-1.09-.68.07-.16.1-.43.2-.47.9-.28,1.82-.5,2.71-.79,1.16-.38,2.3-.81,3.44-1.23.13,0,.21-.24.31-.36a2.29,2.29,0,0,0-.5-.09l-5.5.59a1.7,1.7,0,0,1-.84,0c-.25-.11-.41-.4-.61-.62.23-.16.43-.42.68-.46C2.11,77,3.55,76.82,5,76.6c.1,0,.19-.15.28-.22-.12-.07-.23-.19-.36-.21-.61-.08-1.22-.11-1.82-.22s-1-.3-.82-1,.77-.48,1.2-.36a16.75,16.75,0,0,0,6.27.25c.26,0,.71-.24.72-.39a.7.7,0,0,0-.8-.8c-.94,0-1.88.14-2.82.16-1.45,0-2.9,0-4.35,0-.41,0-.81-.12-.77-.7s.4-.6.84-.59c2.25,0,4.5,0,6.75.18.77,0,.93-.15.8-.8-.66-3.24-.48-6.52-.52-9.79a1.74,1.74,0,0,1,0-.32c.49-2.59.95-5.18,1.47-7.76s2.58-4,4.76-5.13c1.45-.75,2.91-1.49,4.41-2.11s3.12-1.13,4.69-1.67c.85-.29,1.72-.56,2.58-.81.12,0,.28.08.42.13-.09.09-.18.22-.29.26-1.85.64-3.72,1.2-5.53,1.92a29,29,0,0,0-8.2,4.62c-1.51,1.27-1.8,3.13-2,4.93a15.77,15.77,0,0,0,.6,6A7.21,7.21,0,0,0,16,66.58c1.1.63,2.18,1.28,3.31,1.84a6.44,6.44,0,0,0,1.53.36c.1,0,.28,0,.3,0,.88,1.63,2.68,1.68,4.1,2.24a34.48,34.48,0,0,1,6.57,3.07A10.86,10.86,0,0,0,37.6,75.7c1.48,0,3,.14,4.46.17,1.19,0,2.39,0,3.58,0,4.25,0,8.5,0,12.75-.16,2.58-.07,5.15-.33,7.73-.54a1.05,1.05,0,0,0,.76-.43c.4-.77.89-.51,1.47-.29a2.05,2.05,0,0,0,1.26.2c.92-.33,2.09-.07,2.73-1.09,0,0,.13,0,.2,0,2.17.5,4-.87,6-1.11a.45.45,0,0,0,.27-.17c.49-.87,1.12-1.14,2-.52a.26.26,0,0,0,.21,0A24.27,24.27,0,0,0,85,70.3a20.45,20.45,0,0,0,3.36-2.54c1.4-1.18,2.8-2.38,4.09-3.69,1-1,2.26-1.95,2.23-3.57a9.29,9.29,0,0,0-.45-2.44,15.92,15.92,0,0,0-4.49-6.66,26,26,0,0,0-3.57-2.61,17.64,17.64,0,0,0-2.62-1.72A30.73,30.73,0,0,0,79,45.37c-2.68-.76-5.39-1.42-8.12-2-2.44-.53-4.9-1-7.38-1.33-2.18-.28-4.4-.29-6.59-.49-2-.19-4.07-.27-6.09-.37a52.26,52.26,0,0,0-7.7.37c-2.12.21-4.23.63-6.33,1-2.56.48-5.11,1-7.66,1.54l-.28,0c.09-.05.26-.1.27-.16.14-1.14,1-1.18,1.87-1.36,1.39-.3,2.74-.72,4.11-1.09a46.73,46.73,0,0,1,11-1.53c1.49-.05,3-.12,4.47-.13.46,0,.6-.1.49-.55-.58-2.36.06-4.59.7-6.84a11.3,11.3,0,0,0,.36-2.9,6.89,6.89,0,0,1,1.36-3.82c.71-1.09,1.21-2.33,2-3.37,1.35-1.84,2.83-3.58,4.27-5.34a37.23,37.23,0,0,1,5.86-5.5A52.5,52.5,0,0,1,76.39,5.36a35.38,35.38,0,0,1,4.85-1.62,5.9,5.9,0,0,1,1.4-.08c.14,0,.31,0,.43,0,3.17-1.45,6.57-1.74,10-2,1.13-.07,2.25-.08,3.38-.14.5,0,1-.12,1.49-.2C101.85.71,105.75-.32,109.78.1c2,.21,4.08.66,6.14.83a78,78,0,0,1,13.93,2.73,113.12,113.12,0,0,1,11.47,3.62c2,.75,3.76,1.87,5.67,2.74a81,81,0,0,1,10.48,6,42.23,42.23,0,0,1,5.44,3.74,41,41,0,0,1,4.3,5.13c.9,1.17,1.75,2.39,2.53,3.64a30.06,30.06,0,0,1,4.35,11.83,13.61,13.61,0,0,1-.5,5c-.75,3.27-2.51,6.14-3.69,9.23a.75.75,0,0,1-.1.2c-.79,1.41-.79,1.37.83,1.43,3.11.1,6.23.25,9.34.42.27,0,.52.34.78.52a2.53,2.53,0,0,1-.79.29c-1.74,0-3.48,0-5.22-.09-1.24,0-2.48-.13-3.7,0a13.81,13.81,0,0,0-2.75.61,1.54,1.54,0,0,0-.64.56c-.21.27-.3.55.24.51,1.65-.11,3.31-.3,5-.3,2.36,0,4.71.13,7.06.2a2.12,2.12,0,0,1,.43.06c.31.08.62.18.93.28a3.11,3.11,0,0,1-1,.47c-2,0-3.92,0-5.87,0-1.75,0-3.49.11-5.23.29a14.18,14.18,0,0,0-2.51.69c-.14,0-.25.22-.37.33a2,2,0,0,0,.42,0c1.19-.12,2.38-.34,3.57-.35,2.57,0,5.15.08,7.71.17.24,0,.47.28.71.43a2.82,2.82,0,0,1-.82.3c-1.75,0-3.49-.19-5.23-.07s-3.36.51-5,.77c-.58.08-1.17.07-1.74.17a1.65,1.65,0,0,0-.8.43c-.15.15-.16.45-.23.69.21,0,.42.06.64.06,2.79,0,5.57-.1,8.36-.12a7.66,7.66,0,0,1,1.72.23,2.49,2.49,0,0,1,.7.44,2.48,2.48,0,0,1-.82.33c-.79,0-1.59,0-2.38,0a40.86,40.86,0,0,0-9.11.64,2.06,2.06,0,0,0-.71.24c-.13.08-.18.29-.26.44a2.39,2.39,0,0,0,.46.12c2.3,0,4.6.08,6.9.16a13.07,13.07,0,0,1,2.15.29c.2,0,.36.28.54.43-.23.12-.45.35-.68.35-2.35,0-4.71-.17-7.06-.16a25.41,25.41,0,0,0-3.57.44c-.16,0-.28.27-.42.41.17.09.33.25.51.26,2.06.08,4.12.13,6.18.22a2.26,2.26,0,0,1,.69.29c-.22.1-.42.28-.64.29-1.56,0-3.12.07-4.67.09-1,0-2,0-3.05,0-.58,0-1.13.28-.83,1s-.11.67-.49.65c-1.4-.08-2.17.87-3,1.74-.11.11-.12.31-.17.46l.41,0c1.12,0,2.23.06,3.35.11.16,0,.3.14.45.21-.14.12-.27.33-.42.35-.51,0-1,0-1.53,0l-10.3.38c-1.89.07-3.78.13-5.67.25-.74,0-1.46.3-2.2.35-2.27.17-4.55.29-6.82.41-2.46.14-4.93.2-7.38.42-1.66.16-3.31.56-5,.84a6,6,0,0,1-.84.1,1.39,1.39,0,0,1-.42-.14,1.84,1.84,0,0,0,.4-.19,2.51,2.51,0,0,0,.63-.63c.21-.37.07-.49-.38-.44-1.39.18-2.8.29-4.2.42-2.53.25-5.06.5-7.59.71-.65.06-1.31,0-2,0a2.17,2.17,0,0,0-.61.23,2.16,2.16,0,0,0,.66.2c1.82-.09,3.62-.22,5.43-.3,2.1-.08,4.19-.14,6.29-.17.23,0,.47.21.7.32a2.7,2.7,0,0,1-.66.22c-5.25.29-10.51.55-15.76.87-1.46.1-2.91.42-4.38.56-.67.06-1.37-.13-2.06-.1-3.29.16-6.59.28-9.87.57a36.16,36.16,0,0,0-4.68.92,2,2,0,0,0-.73.41c-.13.1-.16.31-.23.47.18,0,.36,0,.54,0,1.1-.19,2.2-.46,3.31-.57,2.38-.25,4.76-.52,7.15-.58a25.75,25.75,0,0,1,4.16.48c.13,0,.25.19.38.29a2.22,2.22,0,0,1-.44.38.78.78,0,0,1-.43,0,39.62,39.62,0,0,0-10.2.48c-2.08.3-4.14.73-6.2,1.11a1.26,1.26,0,0,0-.49.21c-.26.19-.48.41-.72.61a6.71,6.71,0,0,0,.89.09l9.81-.37a18.29,18.29,0,0,1,4.43-.06c1.52.35,2.9-.27,4.36-.14s3,0,4.47,0,2.79.3,4.19.46c.28,0,.57,0,.85,0s.66-.18.51-.58c-.09-.23-.36-.54-.56-.54-1.49,0-3,0-4.47,0-1.23,0-2.46.14-3.7.16-.28,0-.78-.21-.8-.37-.06-.49.13-1,.77-1s1.09,0,1.63,0c2.89.13,5.78.32,8.66.39,1.67,0,3.34-.16,5-.14,2.36,0,4.71.2,7.06.26,1.34,0,2.67,0,4,0a1.35,1.35,0,0,1,.61.1,2.64,2.64,0,0,1,.55.46,3,3,0,0,1-.67.21c-3.34,0-6.68-.11-10,0-2.38.09-4.75.5-7.13.77a1.4,1.4,0,0,0-.33.19c.12,0,.24.15.36.15.83,0,1.67,0,2.5.11.17,0,.34.19.5.29-.14.13-.27.36-.42.38a9.9,9.9,0,0,1-1.72.07c-3-.2-6-.52-9.08-.6a51.62,51.62,0,0,0-5.53.41c-.36,0-.63.21-1-.25C93,82.91,92.18,83,91.61,83c-4.5.27-9,.53-13.49.88a33.85,33.85,0,0,0-4.07.76c-.17,0-.32.24-.47.37a2.59,2.59,0,0,0,.55.13l10.3-.27A24.93,24.93,0,0,1,87,85c.18,0,.34.2.5.3-.14.11-.29.3-.44.31-1.49.12-3,.2-4.47.29Zm17.8-12.33c1.23,0,2.33,0,3.41,0,2.31-.1,4.3-1.25,6.4-2,2.27-.84,4.41-2.07,6.92-2.22a1.72,1.72,0,0,0,.85-.43c1.79-1.42,3.56-2.86,5.33-4.3a16.29,16.29,0,0,0,4.06-4.91c1.32-2.41,2.56-4.87,3.85-7.3s2.48-5.1,2.07-8.11a11,11,0,0,1,.09-2.92,23.33,23.33,0,0,0,0-6.93,31.13,31.13,0,0,0-2.64-9c-1.09-2.15-1.49-4.64-3.42-6.4a35.53,35.53,0,0,1-3.29-4,6.19,6.19,0,0,0-1-1.11c-1.45-1.06-3-2-4.41-3.1a32.65,32.65,0,0,0-7.68-4.56,36.84,36.84,0,0,0-6.35-1.87,34.45,34.45,0,0,0-11-1.21c-1.3.1-2.59.33-3.89.38a12.46,12.46,0,0,0-5.09,1.42c-.65.31-1.24.64-1.88,0a.72.72,0,0,0-.61-.13,43.81,43.81,0,0,0-4.66,1.39A42.72,42.72,0,0,0,72.1,8.67a51.16,51.16,0,0,0-6.35,4.13c-1.78,1.42-3.23,3.25-4.88,4.83a37.52,37.52,0,0,0-5.67,7.82,15.75,15.75,0,0,0-.9,1.73c-.7,1.59-1.65,3.09-1.55,4.93a4,4,0,0,1-.18,1.29,10.34,10.34,0,0,0-.29,4.6c.28,1.76.88,2,2.4,2.16,4.09.32,8.19.59,12.25,1.1a63.42,63.42,0,0,1,6.77,1.49c2,.48,4,.88,6,1.5A36.66,36.66,0,0,1,85,46.4c1.2.62,2.19,1.65,3.33,2.39A22,22,0,0,1,93.88,54a11.26,11.26,0,0,1,1.21,2.18,7.79,7.79,0,0,1,.84,5,8.44,8.44,0,0,1-1.51,3.52c-1.58,2-3,4.08-4.51,6.08-.84,1.08-1.82,2-2.73,3.08a2.06,2.06,0,0,0-.23.47,1.19,1.19,0,0,0,.38.12l3.58-.26a1.31,1.31,0,0,0,.28-.09A1.24,1.24,0,0,0,91,74c-.44-.33-.9-.63-1.3-1-.19-.17-.41-.49-.36-.69s.42-.36.66-.38a2.54,2.54,0,0,1,.92.2c.45.14.87.34,1.32.47A21.52,21.52,0,0,0,100.4,73.47Zm6.49-72.34c-1.58.21-3.23.43-4.87.67-.12,0-.24.15-.36.23a1.43,1.43,0,0,0,.39.23c1.7.36,3.42.69,5.12,1a11.32,11.32,0,0,1,2.64.63c2.26,1.1,4.51,2.24,6.65,3.55a44.33,44.33,0,0,1,7.69,5.69,28.92,28.92,0,0,1,7,9.81c.8,1.94,1.43,4,2.22,5.91a29.38,29.38,0,0,1,1.74,10.58c0,2.23-.15,4.47-.25,6.7a3.94,3.94,0,0,1-.16,1.29c-.62,1.51-1.25,3-2,4.47-1.09,2.16-2.22,4.31-3.43,6.41A23.82,23.82,0,0,1,126,63.4a87.14,87.14,0,0,1-7.07,6.06,5.23,5.23,0,0,1-1.64.93c-2,.64-4,1.17-5.91,1.8-1.06.34-2.08.85-3.15,1.18-1.66.5-3.35.91-5,1.36a1.72,1.72,0,0,0-.29.11,1.1,1.1,0,0,0,.31.12c2,0,4,0,6-.1a6.51,6.51,0,0,0,2-.26c1-.4,1.93-1.12,3-1.47a26,26,0,0,0,10.7-7.37,100.32,100.32,0,0,0,6.3-8.39,17.32,17.32,0,0,0,1.49-2.23c.42-.8,1.42-1.48.71-2.63-.09-.13.18-.51.33-.74s.52-.45.64-.73a22.68,22.68,0,0,0,2.35-6.86c.05-.55.28-1,.8-1,.16,0,.45.78.38,1.15a21.82,21.82,0,0,1-.81,2.69c-.61,1.82-1.19,3.64-1.87,5.44a25.29,25.29,0,0,1-3.48,5.73c-1.13,1.58-2.24,3.18-3.37,4.76-.92,1.29-1.86,2.56-2.79,3.85a3.54,3.54,0,0,0-.19.33c.17,0,.4,0,.49,0a10.69,10.69,0,0,0,.75-.89c1.5-1.82,3-3.6,4.47-5.45a47.23,47.23,0,0,0,3.13-4.34c1.18-1.9,2.51-3.75,2.75-6.08,0-.14.08-.37.16-.39.24-.06.71-.13.74-.05.61,1.32.81.15.91-.19.51-1.62.94-3.26,1.41-4.9a4.21,4.21,0,0,1,.28-.66,8,8,0,0,0,.56-1.24c.19-.78.25-1.59.44-2.36a3.79,3.79,0,0,1,.57-1,.29.29,0,0,1,.52.25,66.51,66.51,0,0,1-1.22,6.62,28.25,28.25,0,0,1-2.09,4.8c-.32.67-.48,1.6-1.59,1.52-.13,0-.3.27-.41.44-1,1.54-1.9,3.14-3,4.63-1.57,2.21-3.22,4.35-4.85,6.51-.77,1-1.52,2-2.37,3A24.81,24.81,0,0,1,125,69.05a1.15,1.15,0,0,0-.2.36,1.06,1.06,0,0,0,.46,0,9.94,9.94,0,0,0,4.34-3.2c1.12-1.33,2.3-2.61,3.43-3.94a15.27,15.27,0,0,0,1.43-1.88c1.05-1.71,2.08-3.45,3.07-5.21.76-1.34,1.43-2.74,2.17-4.09a1.54,1.54,0,0,1,.7-.66.76.76,0,0,1,.66.36,1.64,1.64,0,0,1-.09,1,7.75,7.75,0,0,1-.71,1c-.83,1.31-1.64,2.64-2.47,3.94s-1.69,2.68-2.59,4a33.32,33.32,0,0,1-2.16,2.85c-.85,1-1.91,1.76-2.68,2.79a12,12,0,0,1-3.16,3.06c-1.08.67-2.08,1.45-3.1,2.2a2.09,2.09,0,0,0-.37.5,1.85,1.85,0,0,0,.54-.12,16.6,16.6,0,0,0,2-1.23,50.91,50.91,0,0,0,5.27-4.3c2-2,3.76-4.31,5.6-6.51a29.57,29.57,0,0,0,3.89-6,7.41,7.41,0,0,0,.56-2c.12-.77,0-1.58.18-2.34.23-1.17.57-2.32.89-3.46a7,7,0,0,1,.45-1c.16-.33.35-.66.48-1,.44-1.23.84-2.46,1.3-3.68.06-.17.37-.25.57-.38a1.76,1.76,0,0,1,.07.59,16.14,16.14,0,0,1-.55,2.33c-.36,1,.07,2.36-1.27,2.94,0,0,0,.13,0,.2-.29,1.26-.58,2.52-.85,3.78-.07.34-.21.87,0,1,.88.81.31,1.62-.06,2.26-1.25,2.11-2.61,4.15-4,6.2a10.74,10.74,0,0,1-1,1.16,18.74,18.74,0,0,0-2.25,2.48c-1.59,2.51-3.94,4.32-5.89,6.49a13.88,13.88,0,0,1-2.63,1.84,2.47,2.47,0,0,0-.37.42,3.88,3.88,0,0,0,.45-.14c.09,0,.17-.12.27-.16a19,19,0,0,0,6.15-4c1.48-1.49,2.88-3.07,4.27-4.65a35.93,35.93,0,0,0,3.45-4.18c1.47-2.31,3.1-4.58,3.36-7.45a.64.64,0,0,1,.14-.41c1-1,.83-2.25,1-3.45a7.05,7.05,0,0,1,.55-1.74c.2-.47.58-.86.75-1.34.23-.68.33-1.41.5-2.11a19.76,19.76,0,0,1,.56-2c.08-.2.43-.29.65-.44a1.81,1.81,0,0,1,.23.74,8.64,8.64,0,0,1-.33,1.59c-.42,1.46-.34,3.1-1.59,4.26-.14.14-.09.48-.14.73-.41,2-.72,4.06-1.28,6a10.67,10.67,0,0,1-1.56,2.94c-1.39,2.06-2.79,4.11-4.31,6.07a41.45,41.45,0,0,1-8.19,8.28c-.18.13-.26.43-.38.65a1.88,1.88,0,0,0,.69-.14c1.13-.77,2.27-1.53,3.36-2.37A27.21,27.21,0,0,0,142,61.93c2-3.12,4.62-5.9,5.2-9.77.07-.42.13-.85.71-.72s.95.46.74,1.1a11.14,11.14,0,0,1-.91,2.44c-1.25,2.07-2.53,4.14-3.93,6.11a32.77,32.77,0,0,1-3.7,4.51c-2.07,2-4.32,3.85-6.49,5.76a4.12,4.12,0,0,0-.28.31,1,1,0,0,0,.37,0c1-.36,1.94-.79,2.94-1.1a6.91,6.91,0,0,0,2.75-1.74c1-1,2.08-1.94,3-3,.72-.84,1.25-1.86,1.9-2.77,1-1.45,2.16-2.82,3.12-4.3a26.54,26.54,0,0,0,3.19-6.53c.17-.53.52-.94,1-.68a1.25,1.25,0,0,1,.3,1.21,39.48,39.48,0,0,1-4.59,8c-1.38,1.8-2.79,3.57-4.19,5.35-.4.51-.85,1-1.24,1.5-.08.11,0,.32,0,.49a1.09,1.09,0,0,0,.38-.16,25.56,25.56,0,0,0,3.23-3.18c2.23-3,4.31-6.17,6.39-9.32.61-.92,1-2,1.51-3,.14-.26.47-.42.71-.63.19.3.59.64.54.89a4.6,4.6,0,0,1-.68,1.67c-1,1.54-2.15,3-3.15,4.53A43.22,43.22,0,0,1,144,67.54a2.75,2.75,0,0,0-.39.59c.23,0,.52,0,.68-.16a48.24,48.24,0,0,0,4.26-3.52A34.11,34.11,0,0,0,155.7,54a5.39,5.39,0,0,1,.67-1.36c.24-.26.73-.28,1.11-.41,0,.36.16.79,0,1.06-1,1.88-2.06,3.76-3.21,5.57-.95,1.48-2.06,2.85-3.1,4.28a4,4,0,0,0-.31.58,2.16,2.16,0,0,0,.54-.29,36.11,36.11,0,0,0,4.08-4.21,17.49,17.49,0,0,0,3.4-5.87,4.18,4.18,0,0,1,.55-1.17.84.84,0,0,1,.7-.33.59.59,0,0,1,.37.94c-.48.94-.87,1.91-1.36,2.84a16.09,16.09,0,0,1-2.79,4.07c-1.21,1.19-2.23,2.57-3.45,3.74-1,1-2.14,1.73-3.2,2.61-.16.13-.19.43-.28.65.27,0,.61.11.79,0a33.32,33.32,0,0,0,3.06-2.37A44.23,44.23,0,0,0,162,53.6a13.78,13.78,0,0,1,1.33-2c.17-.2.63-.17.95-.25a2.47,2.47,0,0,1-.15,1c-1.23,1.86-2.5,3.71-3.78,5.53-.52.74-1.12,1.41-1.68,2.12a3.39,3.39,0,0,0-.23.34c.14-.05.35-.06.43-.16a28.57,28.57,0,0,1,2.27-2.73,11.84,11.84,0,0,0,3.39-5,.81.81,0,0,1,.65-.41.77.77,0,0,1,.5.54,3.32,3.32,0,0,1-.4,1.64c-1.62,2-3.26,4.08-5,6-1.44,1.53-3.07,2.88-4.64,4.28a19.68,19.68,0,0,1-2.43,1.94,6,6,0,0,1-1.53.4c-.19.06-.33.27-.49.42a1.89,1.89,0,0,0,.58,0l6.17-2.12a1,1,0,0,0,.37-.23c1.34-1.32,2.7-2.63,4-4,.41-.42.73-.9,1.42-.7a6.13,6.13,0,0,1-.6,1.38c-.53.68-1.18,1.27-1.75,1.92-.07.08,0,.29,0,.45,1-.45,2.32-.42,2.9-1.69s1.27-2.46,1.89-3.69c1.12-2.23,2.25-4.46,3.35-6.7q.74-1.52,1.35-3.09c.92-2.33,1.9-4.66,1.71-7.24a16.51,16.51,0,0,0-.49-2.88,34,34,0,0,0-1.58-5.41,39,39,0,0,0-4.91-8.16c-1.6-2-3.12-4.18-5.32-5.65s-4.33-2.64-6.43-4A75.69,75.69,0,0,0,143,9.49a59.74,59.74,0,0,0-6.55-2.64c-3.59-1.13-7.24-2.08-10.87-3.07a36.26,36.26,0,0,0-4.33-1c-2.51-.36-5-.56-7.56-.84ZM37.53,76.65c-.31.24-1-.38-1.2.56a27.6,27.6,0,0,0-.41,7c0,1.07-.05,2.43,1.49,2.82a.61.61,0,0,1,.2.53.77.77,0,0,1-.56.34c-.74,0-1.15-.47-1.52-1a6.07,6.07,0,0,1-.75-3.75c.08-2,.25-4.06.38-6.08,0-.37.06-.82-.49-.76a.9.9,0,0,0-.58.52,12.93,12.93,0,0,0-.77,6.73c.25,1.35.27,3,1.84,3.73a.41.41,0,0,1,.05.39c-.13.16-.36.38-.5.35a1.7,1.7,0,0,1-.93-.48,7.4,7.4,0,0,1-1.53-3.83,21.35,21.35,0,0,1,.48-7.13c.13-.51.08-.94-.43-1-.21,0-.67.39-.73.67a29,29,0,0,0-.7,4.79c0,2.18,0,4.42,1.44,6.3.07.08-.13.41-.24.59s-.22.06-.33.08l.28.11a6.08,6.08,0,0,0,.74.16l6.45.83a.85.85,0,0,0,.31-.06l-.21-.28a8.71,8.71,0,0,1-.74-1.19,16,16,0,0,1-.9-7.07,13.29,13.29,0,0,1,.52-3.19C38.41,76.53,38.14,76.54,37.53,76.65ZM23,78h.1a6.43,6.43,0,0,1,0,.76,12.55,12.55,0,0,0,1,5.93c.56,1.4.61,1.38,2,1.27a2.2,2.2,0,0,1,.76,0c.82.25.88,0,.74-.77A23.18,23.18,0,0,1,28,74.43c.12-.45.41-1.1.22-1.34s-.9-.4-1.39-.49a.67.67,0,0,0-.56.38,25,25,0,0,0-.55,3.32c-.19,2.77-.72,5.58.72,8.23.08.14-.09.42-.14.64-.27-.15-.67-.23-.78-.46a5.79,5.79,0,0,1-.68-1.93,24.84,24.84,0,0,1-.25-5.08c.2-1.74-.18-3.68,1.16-5.18,0,0,0-.2-.06-.27a1.05,1.05,0,0,0-1.74,0,3.88,3.88,0,0,0-.58,1.5C23.15,75.13,23.07,76.54,23,78ZM47.91,89c.55-.12,1.45.41,1.71-.68.48-2,1-3.93,1.38-5.92.3-1.56.19-3.24.71-4.7.44-1.23-.2-.9-.77-.93-.29,0-.58,0-.87,0-.61,0-.81.37-.79.94A27.73,27.73,0,0,1,48,87.24c-.15.47-.18,1.21-.86,1s-.24-.9-.11-1.29a36.14,36.14,0,0,0,1.26-9.48c0-.38.06-.83-.49-.73a2.38,2.38,0,0,0-.89.56c-.08.07,0,.28-.05.42-.2,3.23-.4,6.45-.58,9.67C46.23,89,46.26,89,47.91,89Zm-9.36-7.72.15,0a11,11,0,0,0,0,1.41c.23,1.68.09,3.43,1.11,4.93.27.4.5.83.75,1.25-.06-.52-.11-1-.18-1.54a43.28,43.28,0,0,1,.28-9,1.54,1.54,0,0,1,.39-.87c.16-.16.51-.14.78-.2a2.82,2.82,0,0,1,.1.75,8.58,8.58,0,0,0-.25.93c-.06,2.71-.83,5.41-.14,8.13a7.55,7.55,0,0,0,.74,1.76c.07.14.51.15.75.08s.27-.39.22-.55a15.09,15.09,0,0,1-.61-5.93c.15-1.68.18-3.41,1.14-4.92.32-.49.11-.75-.43-.76-.91,0-1.82,0-2.73,0-.73,0-1.5-.35-1.44,1A14.78,14.78,0,0,1,38.55,81.26Zm111-8.34v-.11c1.28,0,2.55,0,3.82,0a2.35,2.35,0,0,0,1.94-.79c.34-.36.63-.76.93-1.14-.44,0-.88.11-1.33.14-4,.3-8.05.56-12.07.92-1.65.15-3.29.49-4.94.75-.63.09-1.34,1.25-1.87-.14,0,0-.29-.06-.41,0a8,8,0,0,0-1.28.53c-.62.36-1.19.88-1.91.15-.11-.11-.42-.09-.62,0-.78.16-1.56.36-2.33.56-.12,0-.21.16-.32.25a1.27,1.27,0,0,0,.36.12l1.85,0a21.21,21.21,0,0,0,4.87-.28,21.8,21.8,0,0,1,4.91-.62C143.91,73.05,146.71,73,149.51,72.92ZM56.83,76.74a2.48,2.48,0,0,0-.76,0,.73.73,0,0,0-.46.43c-.49,2.08-.89,4.18-1.44,6.23-.33,1.26-.91,2.44-1.32,3.68a7,7,0,0,0-.21,1.6.48.48,0,0,0,.19.35,2.62,2.62,0,0,0,2.69-.67,22.88,22.88,0,0,0,2.6-10.47C58.15,76.72,58.1,76.69,56.83,76.74ZM66,76.22c-1.56.06-1.52.06-1.44,1.64a12.81,12.81,0,0,1-1.75,6.7c-.58,1.09-1.23,2.13-1.83,3.2a1.59,1.59,0,0,0-.11.49,2.15,2.15,0,0,0,.51,0c.78-.27,1.57-.56,2.35-.86a1,1,0,0,0,.45-.27,15.47,15.47,0,0,0,2-4.93c.31-1.56.53-3.14.8-4.71C67.24,76.17,67.24,76.18,66,76.22Zm-45.9,0c.12,2.92.14,5.4,1,7.77a1.11,1.11,0,0,0,.34.6c.53.29,1.09.51,1.65.75a1.54,1.54,0,0,0,.38,0,2.13,2.13,0,0,0-.08-.27,11,11,0,0,1-1.32-5.93c.12-2.55-.42-5.18.9-7.59.07-.11,0-.42,0-.45a15.17,15.17,0,0,0-1.7-.64c-.09,0-.32.18-.36.31a15.38,15.38,0,0,0-.55,2.3C20.19,74.31,20.18,75.51,20.14,76.25Zm-3.25,1.64.22,0c.07.65.14,1.3.23,2a4.48,4.48,0,0,0,1.29,2.8,2.59,2.59,0,0,0,.73.34,4.15,4.15,0,0,0,.22-.65,1.45,1.45,0,0,0,0-.55,25.61,25.61,0,0,1,.32-11c.14-.51.14-1-.53-1.22s-.86.31-1,.77C17.88,72.85,17.39,75.37,16.89,77.89Zm85.45-1.37v0c.65,0,1.31,0,2,0,.31,0,.61,0,.92-.08l-.9-.42a1.13,1.13,0,0,0-.32,0c-2.27-.1-4.55-.07-6.8-.33a34.39,34.39,0,0,0-11.67.53,4,4,0,0,0-1.19.71c-.11.07-.14.24-.21.36a1.38,1.38,0,0,0,.46.15c1.62-.13,3.24-.38,4.87-.4,2.19,0,4.39.11,6.59.14a4.1,4.1,0,0,0,1.24-.22,6.6,6.6,0,0,1,1.46-.49C100,76.36,101.14,76.47,102.34,76.52ZM70.06,78c-.07-.67-.15-1.24-.2-1.82s-.42-.64-.72-.32a4,4,0,0,0-1,1.52c-.24.83-.14,1.75-.39,2.57-.62,2.09-1.36,4.14-2,6.21a2.32,2.32,0,0,0-.06.38c.13,0,.31.06.4,0a7.42,7.42,0,0,0,1.71-1.28C69.38,83.08,69.73,80.48,70.06,78Zm-6.57.71a5.78,5.78,0,0,0-.26-1.56c-.12-.28-.65-.44-1-.55-.12,0-.45.24-.48.41-.18,1.13-.34,2.27-.44,3.41a16.56,16.56,0,0,1-1.95,6.18,18.74,18.74,0,0,1-1.5,2.1,7,7,0,0,0-.41.64,4.49,4.49,0,0,0,.83-.09c.19-.06.31-.28.48-.41,1.59-1.16,2.37-2.92,3.23-4.58A11.14,11.14,0,0,0,63.49,78.68ZM45.34,76.61c-.29.19-.8.34-.84.57a30.84,30.84,0,0,0-.83,8.5,12.12,12.12,0,0,0,.81,2.7c.06.16.39.22.6.33a2.51,2.51,0,0,0,.18-.57c.1-1.67.12-3.34.27-5a46.26,46.26,0,0,1,.66-5.27C46.41,76.8,46.52,76.75,45.34,76.61Zm-16.07-2.8a1.71,1.71,0,0,0-.24.45,9.06,9.06,0,0,0-.23,1.06,21.56,21.56,0,0,0-.09,9.59,3.43,3.43,0,0,0,1,1.56c.26.24.65.21.45.74,0,.11.35.41.59.56s.32,0,.48,0c-.11-.21-.23-.42-.32-.64a6.65,6.65,0,0,1-.67-1.59,22.89,22.89,0,0,1,.18-10.25C30.58,74.74,29.85,73.77,29.27,73.81ZM14.76,74c.21,1.56.36,2.85.6,4.12.05.29.43.51.65.77a3.45,3.45,0,0,0,.21-.87,23.4,23.4,0,0,1,1.4-8.28,1.18,1.18,0,0,0-.78-1.53c-.79-.29-.88.43-1,.82C15.42,70.72,15.09,72.45,14.76,74Zm138.17-3.69v.06c1.23-.08,2.47-.11,3.69-.25a4,4,0,0,0,1.35-.57c.14-.07.21-.31.31-.47a1.49,1.49,0,0,0-.49-.13l-5.86.14c-.32,0-.81.06-.91-.1-.34-.54-.68-.24-1-.13l-4.85,1.6a2.2,2.2,0,0,0-.49.28,2.33,2.33,0,0,0,.53.06C147.76,70.62,150.35,70.45,152.93,70.28ZM53.7,76.79c-.71-.06-1.31,0-.88,1,.09.2,0,.5-.08.75-.24,1.36-.44,2.72-.74,4.06-.4,1.84-.88,3.65-1.33,5.48a2,2,0,0,0-.08.64c0,.14.18.26.28.39a1,1,0,0,0,.25-.31,14.83,14.83,0,0,1,.59-1.74,36.74,36.74,0,0,0,2.84-9.33C54.69,77,54.61,76.54,53.7,76.79Zm6.89,1.53a2.68,2.68,0,0,0-.08-.86,2.87,2.87,0,0,0-.6-.71,4.64,4.64,0,0,0-.65.68,1.42,1.42,0,0,0-.08.63,31.6,31.6,0,0,1-1.42,7.64c-.13.41-.41.77-.53,1.19a2.69,2.69,0,0,0,0,.89,7.51,7.51,0,0,0,.65-.5,1.77,1.77,0,0,0,.3-.45A20.15,20.15,0,0,0,60.59,78.32Zm19-4.37c-.15-.33-.19-.64-.33-.7-.63-.25-1.77.58-1.78,1.28,0,.54.06,1.09.06,1.63a9.7,9.7,0,0,1-2.23,6,2.09,2.09,0,0,0-.21.64l.54-.26c.13-.07.22-.21.35-.25.64-.18.49-.67.61-1.14s.92-.48,1.2-.87a5.25,5.25,0,0,0,.55-1.62C78.73,77.05,79.14,75.48,79.55,74ZM158.29,68l.11.2a6.46,6.46,0,0,0,1.81-.87,25.51,25.51,0,0,0,2.23-2.64,1.63,1.63,0,0,0,.17-.38,1.84,1.84,0,0,0-.41,0,13.45,13.45,0,0,0-5,2.66c-.35.33-.75.71-1-.12a.36.36,0,0,0-.32-.15,14,14,0,0,0-1.54.53c-.12,0-.19.25-.28.38a1.54,1.54,0,0,0,.37.14ZM72.73,76.83l-.11,0c0-.25-.06-.51-.06-.76,0-.87-.47-.88-1.12-.73s-.47.62-.43,1a14.24,14.24,0,0,1-1.8,8.33,3.5,3.5,0,0,0-.2.74c.21-.18.49-.32.6-.55.69-1.38,1.42-2.75,2-4.19C72.08,79.43,72.36,78.11,72.73,76.83ZM12.84,75.27l.23,0c-.18.41-.27.79.35.87s.32-.48.42-.74a2.07,2.07,0,0,0,.05-.75,18,18,0,0,1,.88-5.55,4.09,4.09,0,0,0,.29-1.36c0-.26-.31-.52-.52-.74,0,0-.36.1-.39.2a26,26,0,0,0-.8,3.12C13.11,72,13,73.62,12.84,75.27Zm62.25-.14c-.29-.18-.5-.42-.71-.43-.41,0-.94,0-.91.63a5.43,5.43,0,0,1,.08,1.83c-.71,2.27-1.53,4.5-2.31,6.74-.07.22-.18.43-.27.64a4.61,4.61,0,0,0,.81-.38c.12-.08.14-.31.21-.47.53-1.22,1.13-2.4,1.57-3.65C74.12,78.48,74.55,76.87,75.09,75.13ZM11.19,71c.08.38.11.63.19.88s.18.5.27.75a4.43,4.43,0,0,0,.4-.78q.69-2.56,1.32-5.15c.05-.22-.1-.48-.15-.73-.25.15-.62.24-.72.46a13.31,13.31,0,0,0-.63,1.84C11.61,69.22,11.39,70.17,11.19,71Zm65.22,5.23c0-.28-.07-.56-.11-.85a5.91,5.91,0,0,0-.41.79c-.49,1.35-.93,2.72-1.44,4.06-.31.8-.72,1.55-1.08,2.33a1.24,1.24,0,0,0,0,.39,1.12,1.12,0,0,0,.39-.13,1.27,1.27,0,0,0,.35-.41C75.16,80.48,76.54,78.64,76.41,76.23Zm12.79-6a1.72,1.72,0,0,0,.27-.2c1.21-1.39,2.42-2.77,3.61-4.18.13-.15.11-.44.15-.67a2.63,2.63,0,0,0-.74.32c-.92.92-1.86,1.82-2.7,2.82a5.25,5.25,0,0,0-.65,1.57C89.11,70,89.17,70.1,89.2,70.24Zm-5.58,3.1a1.24,1.24,0,0,0,0-.43,4.22,4.22,0,0,0-.37-.6c-.17.19-.49.37-.49.56a7.57,7.57,0,0,1-1.21,4,1.32,1.32,0,0,0-.07.5c.18-.07.43-.08.53-.21A6.36,6.36,0,0,0,83.62,73.34Zm-1.91,0c-.14-.18-.26-.47-.46-.54a.64.64,0,0,0-.56.31c-.34,1.48-.64,3-.93,4.47,0,.1.11.23.17.34.1-.09.24-.17.28-.28.25-.56.49-1.12.69-1.7C81.18,75.14,81.42,74.31,81.71,73.36Zm37.83.82.08-.12h.43c1.33-.15,1.34-.23.79-1.35-.28-.57-.53-.47-.9-.23a3.8,3.8,0,0,0-.69.5,6.48,6.48,0,0,0-.53.73Zm28.29-5.47a5,5,0,0,0-.74-1.06c-.13-.1-.49,0-.66.09-.82.52-1.61,1.08-2.41,1.64a.87.87,0,0,0-.19.23c.08,0,.17.13.24.11l3.23-.88Zm-137-3.25c0,.45,0,1,0,1.46a1.07,1.07,0,0,0,.11.33.76.76,0,0,0,.19-.25c.47-1.38.85-2.77,0-4.15-.08-.12-.14-.25-.21-.37-.08.14-.22.29-.22.44C10.7,63.75,10.75,64.57,10.8,65.46ZM46.63,90.78v.12c.78-.12,1.56-.23,2.33-.36a4,4,0,0,0,.49-.16c-.17-.09-.35-.25-.52-.25-1.19,0-2.37-.09-3.55-.09a2.29,2.29,0,0,0-.72.25c.23.22.43.59.69.63A4.34,4.34,0,0,0,46.63,90.78Zm40-19.5-.12,0c.12.28.23.55.35.82a4.17,4.17,0,0,0,.63-.63,1.61,1.61,0,0,0,.19-.73,5.63,5.63,0,0,0,0-.71,4.63,4.63,0,0,0-1,.58C86.56,70.75,86.63,71.07,86.62,71.28Zm28.12,3.07c.72-.08,1.34-.12,1.94-.24.17,0,.36-.3.42-.49s-.08-.38-.13-.57c-.19.07-.39.13-.58.22-.52.22-1,.46-1.56.7a3.5,3.5,0,0,0-.42.24ZM11,78.72v.06a5.24,5.24,0,0,0,1,0c.16,0,.28-.22.42-.34a1.26,1.26,0,0,0-.48-.21,7.08,7.08,0,0,0-1.13.09c-.61.08-1.21.16-1.81.27-.11,0-.2.18-.3.28a1.18,1.18,0,0,0,.39.1ZM85.5,72.19l-.36-.63c-.16.21-.4.4-.45.63a10.54,10.54,0,0,0-.07,1.38c.09,0,.25,0,.27,0C85.1,73.13,85.29,72.67,85.5,72.19Zm45.17.07,0-.28c-.2-.06-.45-.23-.58-.16a13,13,0,0,0-1.3.84c.46,0,.92,0,1.37-.1C130.32,72.54,130.49,72.37,130.67,72.26Zm9-1.49c.52-.14,1-.24,1.5-.4.12,0,.19-.25.28-.39-.15,0-.32-.19-.43-.15-.51.19-1,.42-1.49.65-.07,0-.1.17-.15.25ZM16.5,81a5.28,5.28,0,0,0-.06-.93,3.73,3.73,0,0,0-.3-.6c-.19.21-.56.55-.53.6a8,8,0,0,0,.89,1C16.52,81,16.55,80.89,16.5,81ZM9.57,76.54l-1,.61c.12.11.26.32.34.3.43-.13.84-.32,1.25-.49Zm76.61-2.73c.25-.44.46-.75.61-1.08,0,0-.2-.2-.31-.3-.2.32-.42.63-.61,1C85.85,73.44,86,73.58,86.18,73.81Zm-71.88,4c-.15-.23-.31-.49-.46-.74-.09.09-.27.24-.25.27.16.31.36.6.55.9Z"/><path d="M153.49,76.1c-3.69.13-7.39.23-11.08.4-1.77.08-3.53.4-5.3.45-3.66.12-7.33.11-11,.22a37.48,37.48,0,0,0-3.78.46c-.18,0-.47,0-.51.14-.39,1-1.33.77-2,.74a108.71,108.71,0,0,0-13.86.61c-1.42.12-2.83.18-4.25.29-.9.07-1.8.15-2.68.29-.54.09-.85-.1-.77-.57a1.09,1.09,0,0,1,.7-.73,23,23,0,0,1,2.5-.14L107,78a38,38,0,0,1,5.62-.25c2.27.23,4.51-.38,6.76,0,.18,0,.57-.15.59-.29.14-.75.7-.69,1.24-.79,4-.77,8-.63,12-.64,1.69,0,3.38.25,5.07.38.16,0,.42,0,.47-.1.59-1.15,1.7-.79,2.6-.84,2.39-.13,4.78-.18,7.16-.19,2.63,0,5.26,0,7.89.1.16,0,.31.2.47.3-.17.11-.34.31-.52.32-.94,0-1.89,0-2.83,0Z"/><path d="M61.72,93.67c-1.78.24-3.56.45-5.34.71-.53.08-.91.17-.9-.6s-.57-.62-1-.57c-2.13.23-4.27.43-6.4.72-1.5.21-3,.54-4.5.78a2.79,2.79,0,0,1-.87-.17c.22-.29.4-.79.66-.85,1.64-.32,3.29-.55,4.94-.79,1-.14,1.94-.17,2.9-.36,2.74-.53,5.49-.16,8.24-.17a13.44,13.44,0,0,1,1.67.46c.75.1,1.51.07,2.26.12a5.47,5.47,0,0,1,.68.14c-.19.16-.36.42-.57.47-.56.13-1.14.18-1.71.26Z"/><path d="M127.12,80.47c-2.17,0-4.77,0-7.37,0-.25,0-.5-.26-.75-.4.25-.26.46-.71.74-.76.9-.15,1.83-.16,2.75-.24,3.32-.28,6.64-.68,10-.83a53.67,53.67,0,0,1,6.06.35,2,2,0,0,1,.55.21c-.19.11-.38.31-.57.32-1.67,0-3.33-.08-5,0s-3.18.18-4.77.29c-.14,0-.27.15-.4.22a1.31,1.31,0,0,0,.47.12c.5,0,1-.1,1.51-.09.19,0,.37.17.56.26-.17.1-.33.26-.5.28C129.43,80.26,128.49,80.34,127.12,80.47Z"/><path d="M50.35,65.65c-1,0-2,0-3,0a2.16,2.16,0,0,1-2.1-.82l-.37-.5a2.63,2.63,0,0,1,.87-.21c.61.08,1.19.34,1.79.37,1.94.08,3.89.08,5.84.13a1.56,1.56,0,0,1,.45.14c-.15.17-.27.46-.44.49-1,.21-2,.36-3,.53Z"/><path d="M73.7,68.71l-.53-.24a1.47,1.47,0,0,1,.34-.32q3.9-2,7.81-4a1.35,1.35,0,0,1,.5,0c0,.2.09.45,0,.6a1.41,1.41,0,0,1-.56.49c-2.08,1.07-4.17,2.13-6.27,3.16A6.24,6.24,0,0,1,73.7,68.71Z"/><path d="M142.52,78.15c.94,0,1.88-.07,2.81,0a4.53,4.53,0,0,1,1.49.6.64.64,0,0,1,.19.56c0,.12-.32.26-.48.25-1.8-.1-3.6-.22-5.39-.36a2,2,0,0,1-.65-.27c.18-.2.33-.49.55-.57a10.21,10.21,0,0,1,1.45-.35Z"/><path d="M30.17,48.93a10.65,10.65,0,0,1-1.06.65c-1.12.49-2.27.91-3.37,1.44-.55.26-1,.72-1.53,1a2.49,2.49,0,0,1-.88.08c.05-.33,0-.74.17-1a3.25,3.25,0,0,1,1.2-.88c1.52-.56,3.06-1,4.6-1.53C29.48,48.7,29.71,48.83,30.17,48.93Z"/><path d="M67.09,48.16l1.59.48c1.44.42,2.88.84,4.31,1.3.22.07.38.35.57.53a2.38,2.38,0,0,1-.69.09c-1.84-.32-3.69-.64-5.52-1-.33-.07-.58-.52-.87-.79Z"/><path d="M59.84,71.43c-1-.1-1.7-.15-2.41-.26-.15,0-.25-.29-.38-.44.16-.11.32-.29.49-.31,1.47-.1,3-.16,4.42-.25.54,0,1.07-.15,1.6-.17.17,0,.34.15.51.23-.12.13-.23.35-.38.39C62.33,70.92,61,71.2,59.84,71.43Z"/><path d="M19.89,61a3.2,3.2,0,0,1,.73.63c.87,1.31,1.45,2.84,2.75,3.85.1.08.05.36.06.54-.23,0-.56,0-.69-.11-.72-.73-1.44-1.48-2.09-2.27a15.89,15.89,0,0,1-1.4-2C19,61.14,19.15,60.94,19.89,61Z"/><path d="M42.47,47.29c-1,.15-1.92.34-2.89.44a2.76,2.76,0,0,1-.92-.25c.23-.26.42-.7.68-.74a15.67,15.67,0,0,1,2.9-.29,15.68,15.68,0,0,1,2.36.29c.14,0,.26.2.4.3-.15.13-.29.36-.44.36-.69,0-1.38,0-2.07,0Z"/><path d="M40,69.7c1.42.29,2.83.56,4.24.86.13,0,.34.28.32.33s-.25.43-.39.43a9.82,9.82,0,0,1-4.91-1,.47.47,0,0,1-.2-.34c0-.07.19-.17.3-.2S39.78,69.73,40,69.7Z"/><path d="M54.42,55.85a3.75,3.75,0,0,0-.71.29c-.79.54-1.54,1.12-2.34,1.65-.29.19-.79.46-1,.35-.54-.37-.09-.78.18-1.08a23.06,23.06,0,0,1,1.94-1.89,1.37,1.37,0,0,1,1-.11C53.75,55.11,53.93,55.4,54.42,55.85Z"/><path d="M52.79,60.5a11.56,11.56,0,0,1-1.48-.16c-.19,0-.32-.33-.47-.51a2.09,2.09,0,0,1,.62-.22c1.24-.06,2.49-.09,3.74-.14.49,0,1.1-.76,1.36.22a2.78,2.78,0,0,1-1.2.55C54.51,60.39,53.64,60.42,52.79,60.5Z"/><path d="M107.5,86.94c-.9,0-1.8,0-2.7,0-.23,0-.44-.33-.67-.51.23-.14.45-.39.67-.38,1.3,0,2.6.08,3.9.16.2,0,.38.22.57.33-.19.14-.37.35-.58.39a7.87,7.87,0,0,1-1.19,0Z"/><path d="M74.28,62.07c0-.27-.16-.54-.07-.66.67-.93,1.36-1.85,2.11-2.72.14-.17.57-.1.86-.14,0,.29.06.68-.1.86-.72.83-1.5,1.62-2.28,2.41A2.51,2.51,0,0,1,74.28,62.07Z"/><path d="M85.43,61.76c.25.22.49.34.56.53s-.13.37-.26.5a22.12,22.12,0,0,1-1.82,1.54c-.21.16-.58.08-.88.11a3.72,3.72,0,0,1,.26-.71,6.79,6.79,0,0,1,.93-1.19A7.66,7.66,0,0,1,85.43,61.76Z"/><path d="M80.69,56.23c.22-.13.49-.4.65-.35a10.66,10.66,0,0,1,1.86.83.72.72,0,0,1,.17.62c-.23.19-.61.44-.82.36A7.21,7.21,0,0,1,81,56.85C80.87,56.77,80.84,56.54,80.69,56.23Z"/><path d="M37.29,56.65A18.11,18.11,0,0,1,38.58,55c.13-.13.53,0,.81,0-.08.24-.1.59-.27.7a1.4,1.4,0,0,0-.63,1.17c0,.35-.38.68-.58,1Z"/><path d="M21.82,92c0-.37-.13-.68-.07-.72,1-.55,2-1.07,3.05-1.58,0,0,.2.08.23.16s0,.26,0,.3C24,90.78,23,91.35,21.82,92Z"/><path d="M60.66,57.51c-.43.24-.72.52-1,.52s-.47-.48-.44-.71a.8.8,0,0,1,.65-.48C60.1,56.86,60.31,57.2,60.66,57.51Z"/><path d="M80.82,35.65c.57-1.53,1.05-3.11,1.74-4.59.57-1.21,2.9-2.15,4.25-1.93.13,0,.23.14.35.22-.12.11-.21.27-.35.34-.62.27-1.26.5-1.88.79A5,5,0,0,0,82.14,34c-.19.72-.35,1.44-.58,2.15-.06.19-.32.32-.49.48,0-.28-.07-.57-.1-.85Z"/><path d="M107.55,51.8a12.26,12.26,0,0,1-1.43,2.5A25,25,0,0,1,103,56.8c-.15.11-.44,0-.67,0,.12-.2.18-.48.35-.59a7.76,7.76,0,0,0,3.45-4.92,1.06,1.06,0,0,1,.54-.45A8.71,8.71,0,0,1,107.55,51.8Z"/><path d="M121.46,34.1c-.39,1.19-.76,2.39-1.2,3.57-.09.23-.48.35-.73.52a3.09,3.09,0,0,1-.07-.85,7.72,7.72,0,0,0,.08-4.49c-.06-.16,0-.49.08-.55a.7.7,0,0,1,.6,0c.65.38,1.2.85,1,1.74Z"/><path d="M61.84,38.44l-.26.5c-.21-.17-.56-.31-.61-.51-.3-1.32-.58-2.65-.78-4a.74.74,0,0,1,.85-.88c.19,0,.42.55.46.87C61.64,35.68,61.72,36.94,61.84,38.44Z"/><path d="M80.26,12.54c-.36.33-.48.51-.65.59-.52.24-1.08.41-1.6.67-1,.48-1.87,1-2.83,1.49a2.94,2.94,0,0,1-.91.17,2.16,2.16,0,0,1,.2-.83,3.81,3.81,0,0,1,2.28-1.55c.87-.21,1.73-.5,2.61-.71A3.35,3.35,0,0,1,80.26,12.54Z"/><path d="M110.86,16c.46.21.86.37,1.23.58.78.43,1.56.86,2.3,1.36.19.12.21.48.3.73-.2,0-.42.15-.59.09-1.18-.41-2.36-.83-3.5-1.34-.27-.13-.43-.62-.5-1C110.09,16.39,110.59,16.19,110.86,16Z"/><path d="M105.06,67a2,2,0,0,1-.29-.8.81.81,0,0,1,.47-.58c1.66-.46,3.34-.89,5-1.31a.42.42,0,0,1,.28,0,.59.59,0,0,1,0,.38,1,1,0,0,1-.42.32q-2.22.81-4.46,1.59a.78.78,0,0,1-.21,0Z"/><path d="M89.79,36.76c.3.2.58.3.59.42a.62.62,0,0,1-.28.51,10.06,10.06,0,0,0-3.26,1.62c-.07,0-.6-.26-.58-.31.1-.36.2-.87.47-1C87.72,37.52,88.78,37.16,89.79,36.76Z"/><path d="M67.59,19.26a1.34,1.34,0,0,1,.48.3c.05.07-.08.37-.2.45a3.54,3.54,0,0,0-1.37,2.72.8.8,0,0,1-.35.46c-.09,0-.36-.09-.43-.21a2.85,2.85,0,0,1,1.39-3.59C67.25,19.34,67.39,19.31,67.59,19.26Z"/><path d="M68.78,29.54a27.9,27.9,0,0,1,.8-2.72c.1-.27.59-.38.9-.57.06.31.24.64.17.92a16.18,16.18,0,0,1-.75,2.36c-.1.24-.47.38-.71.57Z"/><path d="M92.74,11c.89.5,1.76,1,2.61,1.47.11.06.1.31.15.47A1.19,1.19,0,0,1,95,13a22,22,0,0,1-2.56-.54c-.29-.1-.48-.53-.72-.81Z"/><path d="M68,36.4a5.29,5.29,0,0,1,.63.22,6.27,6.27,0,0,1,.61,2.62.69.69,0,0,1-.6.16,2.11,2.11,0,0,1-1.17-2A3.72,3.72,0,0,1,68,36.4Z"/><path d="M88.22,18.08a4.18,4.18,0,0,1-.86.05,2.92,2.92,0,0,1-.67-.32c.14-.22.22-.53.42-.65a2.21,2.21,0,0,1,2.45.07c.16.1.39.38.35.45a.88.88,0,0,1-.51.44,7.71,7.71,0,0,1-1.18,0Z"/><path d="M116.13,57.54c-.68,0-1-.4-.7-.88a7.13,7.13,0,0,1,1-1.44c.2-.21.65-.18,1-.25a3,3,0,0,1-.08,1,5.92,5.92,0,0,1-.73,1.2A2.25,2.25,0,0,1,116.13,57.54Z"/><path d="M115.48,48.4c-.42.75-.81,1.48-1.24,2.17-.08.12-.39.1-.59.15,0-.2-.15-.41-.1-.59a7.33,7.33,0,0,1,.61-1.72c.16-.27.62-.38,1-.5C115.18,47.89,115.35,48.2,115.48,48.4Z"/><path d="M108.52,28.81a6.88,6.88,0,0,1,.82-.8c.07,0,.55.28.55.41a7.31,7.31,0,0,1-.3,2c-.15.4-.56.29-.69-.13a10.7,10.7,0,0,1-.23-1.28Z"/><path d="M123.59,49.47a2.39,2.39,0,0,1-.09.72A5.35,5.35,0,0,1,123,51a3.93,3.93,0,0,1-.38-.77,6.17,6.17,0,0,1-.18-1.28,3.3,3.3,0,0,1,.1-.76c.3.15.69.22.87.46S123.55,49.23,123.59,49.47Z"/><path d="M100.59,39.28c-.2.4-.43.92-.72,1.41-.05.08-.35.1-.46,0a.55.55,0,0,1-.21-.44c.08-.66.18-1.32.32-2,0-.17.22-.4.36-.42a.56.56,0,0,1,.45.3A5.84,5.84,0,0,1,100.59,39.28Z"/><path d="M115.63,33.93a1.23,1.23,0,0,1,0,.43c-.16.36-.35.7-.53,1a11.68,11.68,0,0,1-.63-1.08.59.59,0,0,1,0-.52,10.29,10.29,0,0,1,.76-.87l.57.89Z"/><path d="M95.16,38.25a3.81,3.81,0,0,1-.06.77,9.1,9.1,0,0,1-.48.93c-.19-.31-.39-.62-.56-.94a.86.86,0,0,1-.09-.42c0-.29,0-.67.11-.85a.79.79,0,0,1,.79-.08C95.07,37.8,95.12,38.17,95.16,38.25Z"/><path d="M168,52.33c-.27.67-.51,1.31-.78,1.94a17.55,17.55,0,0,1-4.29,5.56c-1.68,1.64-3.39,3.25-5.09,4.86a1.27,1.27,0,0,1-.63.36.93.93,0,0,1-.72-.22.79.79,0,0,1,.1-.74c.38-.37.88-.63,1.28-1a45.84,45.84,0,0,0,5.67-5.39,16.23,16.23,0,0,0,2.95-4.53,3.62,3.62,0,0,1,.7-1.09c.1-.12.39-.12.6-.1S167.87,52.2,168,52.33Z"/><path d="M151.71,41.8c-.2,1.22-.35,2.29-.56,3.36-.28,1.44-.59,2.89-.92,4.32a3.3,3.3,0,0,1-.53,1.06c-.11.16-.46.34-.55.28a1,1,0,0,1-.32-.6.9.9,0,0,1,.12-.52A19.34,19.34,0,0,0,150.2,44,10.76,10.76,0,0,1,151,41.7c0-.14.34-.2.52-.3Z"/><path d="M155.84,43.12c-.4,1.77-.76,3.3-1.1,4.84-.07.31,0,.69-.09,1a6.13,6.13,0,0,1-.79,1,3.46,3.46,0,0,1-.56-.79,2.86,2.86,0,0,1,.38-2.42,17.51,17.51,0,0,0,1-3.53c.11-.38-.07-1,.58-.92C155.52,42.29,155.7,42.88,155.84,43.12Z"/><path d="M140.49,39.62a14.82,14.82,0,0,1-1.26,5.66c-.11.25-.55.36-.84.53a2.29,2.29,0,0,1-.09-.81,17.39,17.39,0,0,0,.67-2.28c.17-1.46.18-2.93.28-4.4a5.19,5.19,0,0,1,.19-.87c.27.22.67.4.79.69A7,7,0,0,1,140.49,39.62Z"/><path d="M160.07,43.87c-.4.93-.79,1.82-1.16,2.72a1.86,1.86,0,0,0-.09.48c.13,0,.25-.12.38-.16l.87-.16c-.09.26-.18.51-.27.78a4.22,4.22,0,0,1-.34,1,1.86,1.86,0,0,1-.83.66c-.11,0-.4-.34-.58-.55s-.21-.47-.34-.49c-1-.12-.73-.39-.28-1a13.78,13.78,0,0,0,1.14-2.31c.2-.42.38-.86.62-1.26.09-.16.31-.25.47-.37C159.78,43.43,159.91,43.62,160.07,43.87Z"/><path d="M137.08,41.74c.09-1.94.18-3.89.31-5.83a1.66,1.66,0,0,1,.39-.85.66.66,0,0,1,.56-.11c.1,0,.21.3.2.44q-.22,2.7-.51,5.4a3.11,3.11,0,0,1-.3,1,5.39,5.39,0,0,1-.56.79l-.26-.86Z"/><path d="M164.24,44.38c-.49,1-1,2.07-1.49,3.09-.08.16-.28.27-.33.43-.16.53-.54.92-1,.63-.19-.12-.09-.92.07-1.33s.71-1,1-1.54a15.81,15.81,0,0,0,.49-1.66,5.33,5.33,0,0,1,.37-.76c.25.28.5.55.74.84,0,0,0,.14,0,.21Z"/><path d="M168.67,45.69c-.46.75-.91,1.52-1.41,2.26a3.55,3.55,0,0,1-.87.94c-.23.16-.61.1-.92.15,0-.23,0-.52.11-.68.34-.45.78-.83,1.14-1.27.21-.26.32-.6.51-.88a6.58,6.58,0,0,1,.73-.94.6.6,0,0,1,.48,0C168.52,45.27,168.56,45.46,168.67,45.69Z"/><path d="M53.54,89c-.1-.39-.23-.6-.17-.72.7-1.54,1.4-3.08,2.18-4.57.11-.22.6-.23.92-.34,0,.34.14.74,0,1-.61,1.29-1.27,2.56-2,3.81C54.37,88.46,54,88.61,53.54,89Z"/></g></g></svg>