<svg xmlns="http://www.w3.org/2000/svg" xmlns:xlink="http://www.w3.org/1999/xlink" viewBox="0 0 500.02 449.03"><defs><style>.cls-1{fill:none;clip-rule:evenodd;}.cls-2{fill:#4e4018;}.cls-2,.cls-3,.cls-5,.cls-6{fill-rule:evenodd;}.cls-3{fill:#7b5b00;}.cls-4{clip-path:url(#clip-path);}.cls-5{fill:#d9a309;}.cls-6{fill:#302400;}.cls-7{clip-path:url(#clip-path-2);}.cls-8{clip-path:url(#clip-path-3);}</style><clipPath id="clip-path"><path class="cls-1" d="M229.11,129.12c-13.29,31.83-52.38,51.46-95.81,45.46-50.84-7-88.48-46.59-84-88.27S98.69,16.5,149.54,23.53c41.5,5.75,74.2,33.15,82.39,65.69-3.27,4.19-5.76,10.68-6.56,18.19-.94,8.73.61,16.76,3.74,21.71Z"/></clipPath><clipPath id="clip-path-2"><path class="cls-1" d="M114.41,170.31c6.25,34.49,40.13,64.08,83.57,69.92,50.87,6.84,95.7-21.46,100.06-63.16S264.63,96,213.77,89.13c-41.52-5.58-79,12.25-93.77,41.66,2.3,5,3.36,11.92,2.57,19.43-.91,8.74-4.09,16.12-8.16,20.09Z"/></clipPath><clipPath id="clip-path-3"><path class="cls-1" d="M182.49,242.91c-10.71,33-48.1,56.58-91.82,55C39.48,296.1-1.14,260.54,0,218.57S43.7,144,94.9,145.84c41.79,1.5,76.52,25.46,87.25,57-2.93,4.5-4.89,11.22-5.1,18.78-.24,8.8,1.94,16.63,5.44,21.25Z"/></clipPath></defs><g id="Warstwa_2" data-name="Warstwa 2"><g id="Warstwa_1-2" data-name="Warstwa 1"><path class="cls-2" d="M439.05,301.72c32.65.1,62.69.38,59.05,46.82-2,25.68-33.89,46.46-59.26,46.46-25.95,0-57.9-21.1-59-46.82-2.18-48.75,26.61-46.56,59.26-46.46Zm.41,24.59c13.77,0,24.92,8.17,24.9,18.13s-11.22,18-25,18-24.93-8.17-24.91-18.14,11.22-18,25-18Z"/><path class="cls-3" d="M441,283.92c32.65.1,59.11,21.08,59,46.82S473.4,377.3,440.75,377.2s-59.11-21.08-59.05-46.82,26.62-46.55,59.27-46.46Zm.4,24.59c13.77.05,24.93,8.17,24.91,18.14s-11.22,18-25,18-24.92-8.17-24.9-18.13,11.22-18,25-18Z"/><path class="cls-2" d="M415.56,22.77C445.7,37,473.36,50.33,454.34,91.65c-10.52,22.85-47,28.23-70.43,17.21-24-11.26-46.38-44.62-38.77-68.88,14.43-46,40.29-31.47,70.42-17.21Zm-7.91,22.9c12.7,6,20.27,18.36,16.89,27.56S408.1,85,395.39,79,375.12,60.64,378.5,51.44s16.44-11.78,29.15-5.77Z"/><path class="cls-3" d="M423.33,7.16C453.47,21.42,470.84,52.28,462.11,76s-40.3,31.47-70.43,17.21-47.5-45.13-38.77-68.89S393.2-7.1,423.33,7.16Zm-7.91,22.89c12.71,6,20.27,18.37,16.89,27.56s-16.44,11.79-29.15,5.78S382.89,45,386.27,35.83,402.71,24,415.42,30.05Z"/><path class="cls-2" d="M207,355.79c32.6-2.05,62.6-3.74,61.34,42.86-.7,25.76-31.46,48.61-56.8,50.27-25.9,1.7-58.88-17.26-61.34-42.86-4.66-48.53,24.2-48.23,56.8-50.27Zm1.66,24.52c13.75-.86,25.3,6.52,25.78,16.47s-10.28,18.73-24,19.59-25.3-6.52-25.79-16.47,10.28-18.73,24-19.59Z"/><path class="cls-3" d="M208,337.89c32.6-2,60.09,17.16,61.34,42.86S245.17,429,212.57,431s-60.08-17.16-61.33-42.86,24.19-48.23,56.79-50.28Zm1.66,24.52c13.75-.86,25.3,6.52,25.79,16.47s-10.28,18.73-24,19.59S186.15,392,185.67,382s10.28-18.73,24-19.6Z"/><path class="cls-2" d="M281.22,307c31.89-8,61.26-15.13,66.62,31.1,3,25.56-24.15,53.72-48.92,60-25.32,6.41-60.56-6.28-66.62-31.1-11.49-47,17-52,48.92-60Zm5.12,23.9c13.44-3.36,25.89,1.81,27.79,11.54s-7.49,20.36-20.94,23.73-25.89-1.81-27.78-11.55,7.49-20.36,20.93-23.72Z"/><path class="cls-3" d="M279.67,289.16c31.89-8,61.74,6,66.62,31.09s-17,52-48.92,60-61.74-6-66.62-31.09,17-52,48.92-60Zm5.12,23.89c13.44-3.36,25.89,1.81,27.78,11.55s-7.48,20.36-20.93,23.72-25.89-1.81-27.78-11.54,7.49-20.36,20.93-23.73Z"/><path class="cls-2" d="M414.88,174c31.5,9.74,60.44,18.88,46.26,62.64-7.84,24.2-43.39,34.85-67.89,27.35-25.05-7.67-51.06-37.47-46.26-62.65,9.09-47.71,36.39-37.09,67.89-27.34Zm-5.26,23.86c13.29,4.1,22.19,15.24,19.88,24.86s-15,14.09-28.25,10-22.19-15.25-19.88-24.86,15-14.09,28.25-10Z"/><path class="cls-3" d="M420.81,157.41c31.5,9.74,52.23,37.81,46.26,62.64s-36.38,37.09-67.88,27.35S347,209.59,352.92,184.75s36.39-37.08,67.89-27.34Zm-5.25,23.86c13.28,4.11,22.19,15.25,19.88,24.86s-15,14.09-28.25,10S385,200.86,387.31,191.25s15-14.09,28.25-10Z"/><path class="cls-3" d="M229.11,129.12c-13.29,31.83-52.38,51.46-95.81,45.46-50.84-7-88.48-46.59-84-88.27S98.69,16.5,149.54,23.53c41.5,5.75,74.2,33.15,82.39,65.69-3.27,4.19-5.76,10.68-6.56,18.19-.94,8.73.61,16.76,3.74,21.71Z"/><g class="cls-4"><polygon class="cls-5" points="92.05 58.59 92.06 58.6 92.07 58.61 92.06 58.6 92.07 58.62 92.08 58.63 92.08 58.62 92.09 58.63 92.1 58.64 92.09 58.63 92.1 58.64 92.11 58.65 92.11 58.65 92.11 58.66 92.13 58.66 92.12 58.66 92.13 58.67 92.14 58.67 92.13 58.67 92.14 58.67 92.15 58.68 92.14 58.68 92.16 58.69 92.15 58.68 92.16 58.69 92.15 58.68 92.17 58.69 92.16 58.69 92.17 58.69 92.16 58.69 92.17 58.69 92.17 58.69 92.17 58.7 92.18 58.7 92.18 58.7 92.19 58.7 92.19 58.7 92.19 58.7 92.2 58.7 92.2 58.7 92.2 58.7 92.2 58.7 92.21 58.71 92.21 58.71 92.21 58.71 92.22 58.71 92.22 58.71 92.22 58.71 92.22 58.71 92.23 58.71 92.23 58.71 92.23 58.71 92.25 58.71 92.27 58.71 92.26 58.71 92.27 58.7 92.26 58.71 92.28 58.7 92.27 58.7 92.28 58.7 92.27 58.7 92.28 58.7 92.28 58.7 92.3 58.7 92.29 58.7 92.31 58.69 92.3 58.7 92.31 58.69 92.32 58.69 92.31 58.69 92.32 58.69 92.33 58.68 92.33 58.69 92.34 58.68 92.35 58.68 92.34 58.68 92.35 58.68 92.36 58.67 92.36 58.67 92.37 58.67 92.38 58.66 92.38 58.66 92.39 58.66 92.4 58.65 92.39 58.66 92.4 58.65 92.42 58.64 92.41 58.65 92.42 58.64 92.43 58.63 92.43 58.63 92.44 58.63 92.46 58.61 92.48 58.6 92.48 58.6 92.5 58.59 92.52 58.57 92.55 58.55 92.57 58.53 92.59 58.52 92.61 58.5 92.64 58.48 92.66 58.45 92.69 58.43 92.71 58.41 92.74 58.38 92.76 58.36 92.79 58.33 92.81 58.3 92.84 58.28 92.87 58.25 92.89 58.22 92.92 58.19 92.95 58.16 92.97 58.13 93 58.1 93.03 58.06 93.06 58.03 93.08 58 93.11 57.97 93.14 57.93 93.17 57.9 93.23 57.82 93.28 57.75 93.34 57.68 93.4 57.6 93.46 57.53 93.52 57.45 93.64 57.29 93.7 57.21 93.76 57.13 93.82 57.05 93.89 56.97 93.95 56.89 94.01 56.81 94.08 56.74 94.11 56.7 94.14 56.66 94.17 56.62 94.2 56.58 94.24 56.54 94.27 56.5 94.3 56.47 94.33 56.43 94.37 56.39 94.4 56.35 94.44 56.32 94.47 56.28 94.5 56.25 94.53 56.21 94.57 56.18 94.61 56.14 94.64 56.11 94.67 56.08 94.71 56.04 94.74 56.01 94.78 55.98 94.81 55.95 94.85 55.92 94.89 55.89 94.92 55.86 94.96 55.83 95 55.8 95.04 55.77 95.07 55.74 95.09 55.73 95.11 55.72 95.13 55.71 95.15 55.69 95.17 55.68 95.19 55.67 95.21 55.66 95.23 55.65 95.25 55.63 95.27 55.62 95.4 55.55 95.53 55.48 95.65 55.42 95.78 55.35 95.91 55.28 96.03 55.21 96.16 55.15 96.29 55.08 96.41 55.01 96.54 54.95 96.67 54.88 96.8 54.81 96.92 54.75 97.05 54.69 97.18 54.62 97.31 54.55 97.44 54.49 97.57 54.43 97.69 54.36 97.82 54.3 97.95 54.24 98.08 54.17 98.21 54.11 98.34 54.05 98.47 53.99 98.6 53.92 98.73 53.86 98.86 53.8 98.99 53.74 99.12 53.68 99.25 53.62 99.38 53.56 99.51 53.5 99.64 53.44 99.77 53.38 99.9 53.32 100.03 53.26 100.16 53.2 100.29 53.14 100.42 53.09 100.55 53.03 100.68 52.97 100.81 52.91 100.94 52.85 101.07 52.8 101.2 52.74 101.33 52.68 101.47 52.63 101.59 52.57 101.73 52.52 101.86 52.46 101.99 52.41 102.12 52.35 102.25 52.29 102.38 52.24 102.51 52.19 102.65 52.13 102.78 52.08 102.91 52.02 103.04 51.97 103.17 51.91 103.3 51.86 103.43 51.81 103.57 51.76 103.78 51.67 103.99 51.58 104.21 51.5 104.42 51.41 104.63 51.33 104.85 51.25 105.06 51.17 105.28 51.08 105.49 51 105.71 50.92 105.92 50.84 106.14 50.76 106.36 50.68 106.57 50.6 106.78 50.52 107 50.44 107.22 50.37 107.43 50.29 107.65 50.21 107.87 50.13 108.08 50.06 108.3 49.98 108.52 49.91 108.73 49.84 108.95 49.76 109.17 49.69 109.39 49.62 109.6 49.54 109.82 49.47 110.04 49.4 110.26 49.33 110.47 49.26 110.69 49.19 110.91 49.12 111.13 49.05 111.35 48.98 111.57 48.92 111.79 48.85 112 48.78 112.22 48.72 112.44 48.65 112.66 48.59 112.88 48.52 113.1 48.46 113.32 48.4 113.37 48.38 113.54 48.33 113.76 48.27 113.98 48.21 114.2 48.15 114.42 48.09 114.64 48.03 114.86 47.97 115.08 47.91 115.31 47.85 115.53 47.8 115.75 47.74 115.97 47.68 116.19 47.63 116.41 47.57 116.63 47.52 116.86 47.46 117.08 47.41 117.3 47.35 117.52 47.3 117.74 47.25 117.97 47.2 118.19 47.15 118.41 47.09 118.63 47.04 118.86 46.99 119.08 46.95 119.3 46.9 119.52 46.85 119.74 46.8 119.97 46.76 120.19 46.71 120.41 46.66 120.64 46.62 120.86 46.57 121.08 46.53 121.31 46.48 121.39 46.47 121.53 46.44 121.75 46.4 121.98 46.36 122.2 46.32 122.43 46.28 122.65 46.24 122.88 46.2 123.1 46.16 123.32 46.12 123.55 46.08 123.77 46.05 124 46.01 124.22 45.97 124.44 45.94 124.67 45.9 124.89 45.87 125.12 45.84 125.34 45.8 125.57 45.77 125.8 45.74 126.02 45.7 126.24 45.67 126.47 45.64 126.69 45.61 126.92 45.59 127.15 45.56 127.37 45.53 127.6 45.5 127.82 45.47 128.05 45.45 128.27 45.42 128.5 45.4 128.72 45.37 128.95 45.35 129.18 45.32 129.4 45.3 129.63 45.28 129.85 45.26 129.88 45.25 130.08 45.23 130.31 45.22 130.53 45.2 130.76 45.18 130.99 45.16 131.21 45.14 131.44 45.12 131.66 45.11 131.89 45.09 132.05 45.08 132.22 45.07 132.38 45.06 132.54 45.05 132.7 45.04 132.87 45.03 133.03 45.02 133.19 45.01 133.36 45 133.52 44.99 133.68 44.99 133.85 44.98 134.01 44.97 134.18 44.96 134.34 44.96 134.51 44.95 134.67 44.94 134.84 44.94 135 44.93 135.17 44.93 135.34 44.92 135.5 44.92 135.67 44.91 135.83 44.91 136 44.91 136.16 44.9 136.33 44.9 136.5 44.9 136.67 44.9 136.83 44.89 137 44.89 137.17 44.89 137.34 44.89 137.5 44.89 137.67 44.89 137.84 44.89 138 44.89 138.17 44.89 138.34 44.89 138.51 44.89 138.51 44.89 138.68 44.89 138.85 44.9 139.02 44.9 139.19 44.9 139.36 44.91 139.52 44.91 139.69 44.91 139.86 44.92 140.03 44.92 140.2 44.93 140.37 44.93 140.54 44.94 140.71 44.94 140.88 44.95 141.05 44.96 141.22 44.96 141.4 44.97 141.57 44.98 141.74 44.98 141.91 44.99 142.08 45 142.25 45.01 142.42 45.02 142.59 45.03 142.76 45.04 142.94 45.05 143.11 45.06 143.28 45.07 143.45 45.08 143.63 45.09 143.8 45.1 143.97 45.11 144.14 45.13 144.32 45.14 144.49 45.15 144.66 45.16 144.83 45.18 145.01 45.19 145.18 45.2 145.35 45.22 145.53 45.23 145.7 45.25 145.87 45.26 146.05 45.28 146.22 45.3 146.39 45.31 146.57 45.33 146.74 45.35 146.91 45.36 146.95 45.37 147.09 45.38 147.26 45.4 147.44 45.42 147.61 45.44 147.78 45.46 147.96 45.48 148.13 45.5 148.31 45.52 148.48 45.54 148.66 45.56 148.83 45.58 149.01 45.6 149.18 45.62 149.36 45.65 149.53 45.67 149.71 45.69 149.88 45.72 150.06 45.74 150.23 45.76 150.41 45.79 150.58 45.81 150.76 45.84 150.93 45.86 151.11 45.89 151.28 45.91 151.46 45.94 151.64 45.96 151.81 45.99 151.99 46.02 152.16 46.05 152.34 46.07 152.52 46.1 152.69 46.13 152.87 46.16 153.04 46.19 153.22 46.22 153.4 46.24 153.57 46.27 153.75 46.3 153.93 46.34 154.1 46.37 154.28 46.4 154.45 46.43 154.63 46.46 154.81 46.49 154.98 46.52 155.16 46.56 155.34 46.59 155.51 46.62 155.69 46.66 155.87 46.69 156.04 46.73 156.22 46.76 156.4 46.79 156.57 46.83 156.7 46.86 156.75 46.87 156.93 46.9 157.1 46.94 157.28 46.98 157.46 47.01 157.63 47.05 157.81 47.09 157.99 47.13 158.16 47.16 158.34 47.2 158.52 47.24 158.69 47.28 158.87 47.32 159.05 47.36 159.22 47.4 159.4 47.44 159.58 47.48 159.75 47.52 159.93 47.56 160.11 47.61 160.28 47.65 160.46 47.69 160.64 47.73 160.82 47.78 160.99 47.82 161.17 47.86 161.34 47.91 161.52 47.95 161.7 48 161.88 48.04 162.05 48.09 162.23 48.13 162.41 48.18 162.58 48.23 162.76 48.27 162.94 48.32 163.11 48.37 163.29 48.41 163.47 48.46 163.64 48.51 163.82 48.56 164 48.6 164.17 48.65 164.35 48.7 164.52 48.75 164.7 48.8 164.88 48.85 165.05 48.9 165.23 48.95 165.41 49.01 165.58 49.06 165.76 49.11 165.93 49.16 166.11 49.21 166.29 49.27 166.46 49.32 166.64 49.37 166.81 49.43 166.99 49.48 167.17 49.53 167.34 49.59 167.52 49.64 167.69 49.7 167.87 49.75 168.04 49.81 168.18 49.85 168.22 49.87 168.4 49.92 168.57 49.98 168.75 50.04 168.92 50.09 169.1 50.15 169.27 50.21 169.45 50.27 169.62 50.33 169.8 50.39 169.97 50.45 170.15 50.51 170.32 50.57 170.5 50.63 170.67 50.69 170.84 50.75 171.02 50.81 171.19 50.87 171.37 50.94 171.54 51 171.72 51.06 171.89 51.12 172.06 51.19 172.24 51.25 172.41 51.31 172.59 51.38 172.76 51.44 172.93 51.51 173.11 51.57 173.28 51.64 173.45 51.7 173.63 51.77 173.8 51.84 173.97 51.9 174.15 51.97 174.32 52.04 174.49 52.1 174.66 52.17 174.84 52.24 175.01 52.31 175.18 52.38 175.35 52.45 175.52 52.52 175.7 52.59 175.87 52.66 176.04 52.73 176.21 52.8 176.38 52.87 176.55 52.94 176.73 53.01 176.9 53.08 177.07 53.15 177.24 53.23 177.41 53.3 177.58 53.37 177.75 53.45 177.92 53.52 178.09 53.59 178.26 53.67 178.44 53.74 178.6 53.82 178.77 53.89 178.94 53.97 179.11 54.05 179.28 54.12 179.45 54.2 179.62 54.27 179.79 54.35 179.96 54.43 180.13 54.51 180.3 54.58 180.47 54.66 180.64 54.74 180.8 54.82 180.97 54.9 181.14 54.98 181.31 55.06 181.48 55.14 181.65 55.22 181.81 55.3 181.98 55.38 182.15 55.46 182.32 55.54 182.48 55.63 182.65 55.71 182.82 55.79 182.98 55.87 183.15 55.96 183.32 56.04 183.48 56.12 183.65 56.21 183.81 56.29 183.98 56.38 184.15 56.46 184.31 56.55 184.47 56.63 184.64 56.72 184.81 56.81 184.97 56.89 185.13 56.98 185.3 57.07 185.46 57.15 185.63 57.24 185.79 57.33 185.95 57.42 186.12 57.51 186.28 57.6 186.44 57.69 186.61 57.77 186.77 57.87 186.93 57.95 187.1 58.05 187.26 58.14 187.42 58.23 187.58 58.32 187.74 58.41 187.91 58.5 188.07 58.59 188.23 58.69 188.39 58.78 188.55 58.87 188.71 58.97 188.87 59.06 189.03 59.16 189.19 59.25 189.35 59.34 189.51 59.44 189.67 59.53 189.83 59.63 189.99 59.73 190.15 59.82 190.31 59.92 190.47 60.02 190.63 60.11 190.78 60.21 190.94 60.31 191.1 60.41 191.26 60.51 191.38 60.58 191.41 60.6 191.57 60.7 191.73 60.8 191.88 60.9 192.04 61 192.2 61.1 192.35 61.2 192.51 61.31 192.66 61.41 192.82 61.51 192.97 61.61 193.13 61.71 193.28 61.82 193.44 61.92 193.59 62.02 193.75 62.13 193.9 62.23 194.05 62.33 194.21 62.44 194.36 62.54 194.51 62.65 194.66 62.75 194.82 62.86 194.97 62.96 195.12 63.07 195.27 63.18 195.42 63.28 195.57 63.39 195.72 63.5 195.88 63.61 196.03 63.71 196.18 63.82 196.33 63.93 196.48 64.04 196.63 64.15 196.78 64.26 196.92 64.37 197.07 64.48 197.22 64.59 197.37 64.7 197.52 64.81 197.67 64.92 197.81 65.03 197.96 65.14 198.11 65.26 198.25 65.37 198.4 65.48 198.55 65.6 198.69 65.71 198.84 65.82 198.98 65.94 199.13 66.05 199.27 66.17 199.42 66.28 199.56 66.4 199.71 66.51 199.85 66.63 199.99 66.74 200.14 66.86 200.28 66.98 200.42 67.09 200.56 67.21 200.71 67.33 200.85 67.45 200.99 67.56 201.13 67.68 201.27 67.8 201.41 67.92 201.55 68.04 201.69 68.16 201.83 68.28 201.97 68.4 202.11 68.52 202.25 68.64 202.39 68.76 202.53 68.89 202.67 69.01 202.8 69.13 202.94 69.25 203.08 69.37 203.21 69.5 203.35 69.62 203.49 69.74 203.62 69.87 203.76 69.99 203.9 70.12 204.03 70.24 204.16 70.37 204.3 70.49 204.43 70.62 204.57 70.74 204.7 70.87 204.84 71 204.97 71.12 205.1 71.25 205.23 71.38 205.36 71.51 205.5 71.63 205.63 71.76 205.76 71.89 205.89 72.02 206.02 72.15 206.15 72.28 206.28 72.41 206.41 72.54 206.54 72.67 206.67 72.8 206.79 72.93 206.92 73.06 207.05 73.19 207.18 73.33 207.31 73.46 207.43 73.59 207.56 73.72 207.69 73.86 207.81 73.99 207.85 74.04 207.94 74.12 208.06 74.26 208.19 74.39 208.31 74.53 208.43 74.66 208.56 74.8 208.68 74.93 208.8 75.07 208.93 75.2 209.05 75.34 209.17 75.48 209.29 75.61 209.41 75.75 209.53 75.89 209.65 76.03 209.77 76.17 209.9 76.31 210.01 76.44 210.13 76.58 210.25 76.72 210.37 76.86 210.49 77 210.61 77.14 210.72 77.28 210.84 77.42 210.96 77.56 211.07 77.71 211.19 77.85 211.3 77.99 211.42 78.13 211.53 78.28 211.65 78.42 211.76 78.56 211.88 78.7 211.99 78.85 212.1 78.99 212.21 79.14 212.32 79.28 212.44 79.43 212.55 79.57 212.66 79.72 212.77 79.86 212.88 80.01 212.99 80.16 213.1 80.3 213.21 80.45 213.27 80.54 213.32 80.6 213.42 80.75 213.53 80.89 213.53 80.94 213.47 80.94 213.36 80.79 213.25 80.65 213.21 80.59 213.14 80.5 213.03 80.36 212.92 80.21 212.8 80.07 212.69 79.93 212.57 79.78 212.46 79.64 212.35 79.5 212.23 79.36 212.12 79.21 212 79.07 211.88 78.93 211.77 78.79 211.65 78.65 211.53 78.51 211.42 78.37 211.3 78.23 211.18 78.09 211.06 77.95 210.94 77.81 210.82 77.67 210.71 77.54 210.59 77.4 210.47 77.26 210.34 77.13 210.22 76.99 210.1 76.85 209.98 76.72 209.86 76.58 209.74 76.44 209.61 76.31 209.49 76.17 209.37 76.04 209.24 75.9 209.12 75.77 209 75.64 208.87 75.5 208.75 75.37 208.62 75.24 208.5 75.11 208.37 74.97 208.24 74.84 208.12 74.71 207.99 74.58 207.86 74.45 207.73 74.32 207.65 74.23 207.61 74.19 207.48 74.06 207.35 73.93 207.22 73.8 207.09 73.67 206.96 73.54 206.83 73.41 206.7 73.28 206.57 73.15 206.44 73.03 206.31 72.9 206.18 72.77 206.05 72.64 205.92 72.52 205.78 72.39 205.65 72.27 205.52 72.14 205.38 72.02 205.25 71.89 205.12 71.77 204.98 71.64 204.85 71.52 204.71 71.39 204.58 71.27 204.44 71.15 204.31 71.03 204.17 70.9 204.03 70.78 203.9 70.66 203.76 70.54 203.63 70.42 203.49 70.3 203.35 70.17 203.21 70.06 203.07 69.94 202.93 69.81 202.8 69.7 202.66 69.58 202.52 69.46 202.38 69.34 202.24 69.22 202.1 69.1 201.96 68.99 201.82 68.87 201.68 68.75 201.53 68.64 201.39 68.52 201.25 68.4 201.11 68.29 200.97 68.17 200.82 68.06 200.68 67.94 200.54 67.83 200.39 67.72 200.25 67.6 200.11 67.49 199.96 67.37 199.82 67.26 199.67 67.15 199.53 67.04 199.38 66.92 199.24 66.81 199.09 66.7 198.94 66.59 198.8 66.48 198.65 66.37 198.5 66.26 198.36 66.15 198.21 66.04 198.06 65.93 197.91 65.82 197.76 65.71 197.62 65.61 197.47 65.5 197.32 65.39 197.17 65.28 197.02 65.18 196.87 65.07 196.72 64.96 196.57 64.86 196.42 64.75 196.27 64.64 196.12 64.54 195.97 64.44 195.82 64.33 195.67 64.23 195.51 64.12 195.36 64.02 195.21 63.91 195.06 63.81 194.91 63.71 194.75 63.61 194.6 63.51 194.45 63.4 194.29 63.3 194.14 63.2 193.99 63.1 193.83 63 193.68 62.9 193.52 62.8 193.37 62.7 193.21 62.6 193.06 62.5 192.9 62.4 192.75 62.3 192.59 62.21 192.43 62.11 192.28 62.01 192.12 61.91 191.97 61.82 191.81 61.72 191.65 61.62 191.49 61.53 191.34 61.43 191.18 61.34 191.02 61.24 190.98 61.22 190.86 61.15 190.71 61.05 190.55 60.96 190.39 60.87 190.23 60.77 190.07 60.68 189.91 60.58 189.75 60.49 189.59 60.4 189.43 60.31 189.27 60.22 189.11 60.12 188.95 60.03 188.79 59.94 188.63 59.85 188.47 59.76 188.31 59.67 188.15 59.58 187.99 59.49 187.83 59.4 187.66 59.31 187.5 59.23 187.34 59.14 187.18 59.05 187.02 58.96 186.85 58.87 186.69 58.79 186.53 58.7 186.37 58.62 186.2 58.53 186.04 58.44 185.88 58.36 185.71 58.27 185.55 58.19 185.38 58.1 185.22 58.02 185.06 57.94 184.89 57.85 184.73 57.77 184.56 57.69 184.4 57.6 184.23 57.52 184.07 57.44 183.9 57.36 183.74 57.27 183.57 57.19 183.4 57.11 183.24 57.03 183.07 56.95 182.91 56.87 182.74 56.79 182.57 56.71 182.41 56.63 182.24 56.56 182.07 56.48 181.91 56.4 181.74 56.32 181.57 56.24 181.4 56.17 181.24 56.09 181.07 56.02 180.9 55.94 180.73 55.86 180.56 55.79 180.4 55.71 180.23 55.64 180.06 55.56 179.89 55.49 179.72 55.41 179.55 55.34 179.38 55.27 179.22 55.19 179.05 55.12 178.88 55.05 178.71 54.98 178.54 54.91 178.37 54.83 178.2 54.76 178.03 54.69 177.86 54.62 177.69 54.55 177.52 54.48 177.35 54.41 177.18 54.34 177.01 54.27 176.84 54.2 176.67 54.13 176.49 54.07 176.32 54 176.15 53.93 175.98 53.86 175.81 53.8 175.64 53.73 175.47 53.66 175.3 53.6 175.13 53.53 174.95 53.47 174.78 53.4 174.61 53.34 174.44 53.27 174.26 53.21 174.09 53.14 173.92 53.08 173.75 53.02 173.58 52.95 173.4 52.89 173.23 52.83 173.06 52.77 172.89 52.71 172.71 52.65 172.54 52.58 172.37 52.52 172.19 52.46 172.02 52.4 171.85 52.34 171.68 52.28 171.5 52.22 171.33 52.16 171.16 52.11 170.98 52.05 170.81 51.99 170.63 51.93 170.46 51.88 170.29 51.82 170.11 51.76 169.94 51.7 169.77 51.65 169.59 51.59 169.42 51.54 169.24 51.48 169.07 51.43 168.9 51.37 168.72 51.32 168.55 51.26 168.37 51.21 168.2 51.16 168.02 51.1 167.85 51.05 167.81 51.04 167.68 51 167.5 50.95 167.33 50.89 167.15 50.84 166.98 50.79 166.8 50.74 166.63 50.69 166.45 50.64 166.28 50.59 166.1 50.54 165.93 50.49 165.75 50.44 165.58 50.39 165.41 50.34 165.23 50.29 165.06 50.24 164.88 50.2 164.71 50.15 164.53 50.1 164.36 50.05 164.18 50.01 164.01 49.96 163.83 49.91 163.66 49.87 163.48 49.82 163.31 49.78 163.13 49.73 162.96 49.69 162.78 49.65 162.61 49.6 162.43 49.56 162.25 49.51 162.08 49.47 161.9 49.43 161.73 49.39 161.55 49.34 161.38 49.3 161.2 49.26 161.03 49.22 160.85 49.18 160.68 49.14 160.5 49.1 160.33 49.06 160.15 49.02 159.98 48.98 159.8 48.94 159.63 48.9 159.45 48.86 159.28 48.83 159.1 48.79 158.93 48.75 158.75 48.71 158.58 48.68 158.4 48.64 158.22 48.6 158.05 48.57 157.88 48.53 157.7 48.5 157.53 48.46 157.35 48.43 157.18 48.39 157 48.36 156.83 48.33 156.65 48.29 156.48 48.26 156.43 48.25 156.3 48.23 156.13 48.19 155.95 48.16 155.78 48.13 155.6 48.1 155.43 48.06 155.25 48.03 155.08 48 154.9 47.97 154.73 47.94 154.56 47.91 154.38 47.88 154.21 47.85 154.03 47.82 153.86 47.79 153.69 47.77 153.51 47.74 153.34 47.71 153.16 47.68 152.99 47.65 152.81 47.63 152.64 47.6 152.47 47.57 152.29 47.55 152.12 47.52 151.94 47.5 151.77 47.47 151.6 47.45 151.42 47.42 151.25 47.4 151.08 47.37 150.9 47.35 150.73 47.33 150.56 47.3 150.38 47.28 150.21 47.26 150.04 47.24 149.87 47.21 149.69 47.19 149.52 47.17 149.35 47.15 149.17 47.13 149 47.11 148.83 47.09 148.66 47.07 148.48 47.05 148.31 47.03 148.14 47.01 147.97 46.99 147.79 46.98 147.63 46.96 147.45 46.94 147.28 46.92 147.11 46.91 146.94 46.89 146.8 46.88 146.76 46.88 146.59 46.86 146.42 46.84 146.25 46.83 146.08 46.81 145.91 46.8 145.74 46.78 145.57 46.77 145.4 46.75 145.23 46.74 145.06 46.72 144.88 46.71 144.72 46.7 144.54 46.68 144.38 46.67 144.21 46.66 144.03 46.65 143.87 46.63 143.69 46.62 143.53 46.61 143.36 46.6 143.19 46.59 143.02 46.58 142.85 46.57 142.68 46.56 142.51 46.55 142.34 46.54 142.17 46.53 142 46.53 141.84 46.52 141.67 46.51 141.5 46.5 141.33 46.5 141.16 46.49 141 46.48 140.83 46.48 140.66 46.47 140.49 46.47 140.33 46.46 140.16 46.45 139.99 46.45 139.82 46.45 139.66 46.44 139.49 46.44 139.32 46.44 139.16 46.43 138.99 46.43 138.83 46.43 138.66 46.42 138.5 46.42 138.49 46.42 138.33 46.42 138.16 46.42 138 46.42 137.83 46.42 137.67 46.42 137.5 46.42 137.34 46.42 137.17 46.42 137.01 46.42 136.84 46.42 136.68 46.42 136.52 46.42 136.35 46.42 136.19 46.42 136.03 46.43 135.86 46.43 135.7 46.43 135.53 46.44 135.37 46.44 135.21 46.44 135.05 46.45 134.88 46.45 134.72 46.46 134.56 46.46 134.4 46.47 134.24 46.47 134.07 46.48 133.91 46.48 133.75 46.49 133.59 46.5 133.43 46.51 133.27 46.51 133.11 46.52 132.95 46.53 132.79 46.54 132.63 46.55 132.47 46.56 132.31 46.57 132.15 46.58 131.99 46.59 131.77 46.6 131.54 46.62 131.32 46.63 131.1 46.65 130.88 46.66 130.66 46.68 130.43 46.7 130.21 46.72 130.01 46.74 129.99 46.74 129.77 46.76 129.54 46.78 129.32 46.8 129.1 46.82 128.88 46.84 128.65 46.86 128.43 46.88 128.21 46.91 127.99 46.93 127.77 46.96 127.54 46.98 127.32 47.01 127.1 47.03 126.88 47.06 126.66 47.09 126.43 47.11 126.21 47.14 125.99 47.17 125.77 47.2 125.55 47.23 125.32 47.26 125.1 47.29 124.88 47.32 124.66 47.36 124.44 47.39 124.22 47.42 124 47.45 123.77 47.49 123.55 47.52 123.33 47.56 123.11 47.6 122.89 47.63 122.67 47.67 122.45 47.71 122.23 47.74 122.01 47.78 121.78 47.82 121.65 47.85 121.57 47.86 121.34 47.9 121.12 47.94 120.9 47.98 120.68 48.03 120.46 48.07 120.24 48.11 120.02 48.15 119.8 48.2 119.58 48.24 119.36 48.29 119.14 48.33 118.92 48.38 118.7 48.42 118.48 48.47 118.26 48.52 118.04 48.57 117.82 48.62 117.6 48.66 117.38 48.71 117.16 48.76 116.94 48.81 116.72 48.87 116.51 48.92 116.29 48.97 116.07 49.02 115.85 49.08 115.63 49.13 115.41 49.18 115.19 49.24 114.97 49.29 114.76 49.35 114.54 49.41 114.32 49.46 114.1 49.52 113.88 49.58 113.71 49.63 113.67 49.64 113.45 49.7 113.23 49.76 113.01 49.81 112.8 49.88 112.58 49.94 112.36 50 112.14 50.06 111.92 50.12 111.71 50.18 111.49 50.25 111.27 50.31 111.06 50.37 110.84 50.44 110.62 50.5 110.41 50.57 110.19 50.64 109.97 50.7 109.76 50.77 109.54 50.84 109.33 50.91 109.11 50.98 108.89 51.05 108.68 51.12 108.46 51.19 108.25 51.26 108.03 51.33 107.82 51.4 107.6 51.47 107.39 51.55 107.17 51.62 106.96 51.69 106.74 51.77 106.53 51.84 106.32 51.92 106.1 51.99 105.89 52.07 105.67 52.15 105.46 52.22 105.25 52.3 105.03 52.38 104.82 52.46 104.61 52.54 104.39 52.62 104.18 52.7 103.97 52.78 103.84 52.83 103.7 52.88 103.57 52.93 103.44 52.98 103.31 53.03 103.18 53.08 103.05 53.13 102.92 53.19 102.79 53.24 102.66 53.29 102.53 53.34 102.4 53.39 102.27 53.45 102.13 53.5 102 53.55 101.87 53.6 101.74 53.66 101.61 53.71 101.48 53.77 101.35 53.82 101.22 53.87 101.09 53.93 100.96 53.98 100.83 54.04 100.7 54.09 100.57 54.15 100.44 54.2 100.31 54.26 100.18 54.32 100.18 54.32 100.05 54.37 99.92 54.43 99.79 54.48 99.66 54.54 99.53 54.6 99.41 54.66 99.28 54.71 99.15 54.77 99.02 54.83 98.89 54.89 98.76 54.95 98.63 55.01 98.5 55.06 98.38 55.12 98.25 55.18 98.12 55.24 97.99 55.3 97.86 55.36 97.73 55.42 97.61 55.48 97.48 55.55 97.35 55.61 97.22 55.67 97.09 55.73 96.97 55.79 96.84 55.85 96.71 55.92 96.59 55.98 96.46 56.04 96.33 56.11 96.21 56.17 96.08 56.24 95.95 56.3 95.83 56.37 95.7 56.43 95.69 56.44 95.68 56.44 95.67 56.45 95.66 56.46 95.65 56.46 95.63 56.47 95.62 56.48 95.61 56.48 95.6 56.49 95.59 56.5 95.56 56.52 95.53 56.53 95.51 56.55 95.48 56.57 95.45 56.59 95.43 56.62 95.4 56.64 95.37 56.66 95.34 56.68 95.32 56.71 95.29 56.73 95.26 56.76 95.23 56.79 95.2 56.81 95.17 56.84 95.15 56.87 95.11 56.9 95.09 56.93 95.06 56.96 95.03 56.99 95 57.03 94.97 57.06 94.94 57.09 94.91 57.13 94.88 57.16 94.85 57.2 94.82 57.23 94.78 57.27 94.75 57.3 94.69 57.37 94.63 57.45 94.57 57.52 94.51 57.6 94.45 57.67 94.39 57.75 94.32 57.83 94.2 57.98 94.14 58.06 94.07 58.14 94.01 58.21 93.95 58.29 93.89 58.37 93.82 58.44 93.79 58.48 93.76 58.51 93.73 58.55 93.7 58.59 93.67 58.62 93.64 58.66 93.6 58.69 93.57 58.73 93.54 58.76 93.51 58.79 93.48 58.83 93.44 58.86 93.41 58.89 93.38 58.92 93.35 58.95 93.32 58.99 93.28 59.02 93.25 59.05 93.22 59.08 93.18 59.1 93.15 59.13 93.12 59.16 93.08 59.19 93.05 59.21 93.02 59.24 92.98 59.26 92.95 59.28 92.93 59.3 92.91 59.31 92.89 59.32 92.87 59.33 92.86 59.34 92.84 59.35 92.82 59.36 92.8 59.37 92.78 59.38 92.76 59.39 92.74 59.4 92.72 59.41 92.7 59.42 92.69 59.43 92.67 59.44 92.65 59.45 92.63 59.45 92.61 59.46 92.59 59.47 92.56 59.47 92.54 59.48 92.52 59.49 92.5 59.49 92.48 59.5 92.48 59.5 92.46 59.5 92.44 59.51 92.42 59.51 92.39 59.51 92.37 59.52 92.35 59.52 92.33 59.52 92.3 59.52 92.28 59.52 92.26 59.52 92.23 59.52 92.21 59.52 92.19 59.52 92.17 59.52 92.14 59.52 92.12 59.52 92.1 59.51 92.07 59.51 92.05 59.5 92.03 59.5 92.01 59.49 92 59.49 91.98 59.49 91.96 59.48 91.94 59.47 91.91 59.46 91.89 59.46 91.87 59.45 91.85 59.44 91.83 59.43 91.81 59.42 91.78 59.4 91.76 59.39 91.74 59.38 91.72 59.37 91.7 59.35 91.68 59.34 91.66 59.33 91.64 59.31 91.63 59.3 91.61 59.28 91.59 59.27 91.57 59.25 91.55 59.23 91.53 59.22 91.52 59.2 91.5 59.18 91.48 59.16 91.47 59.15 91.45 59.13 91.44 59.11 91.44 59.11 91.34 58.82 91.48 58.55 91.48 58.54 91.77 58.45 92.05 58.59 92.05 58.59 92.05 58.59"/><path class="cls-6" d="M77.57,71.07c7.28,1,12,13,10.51,26.78S79.49,122,72.2,121s-12-13-10.51-26.78,8.59-24.12,15.88-23.12Z"/></g><path class="cls-3" d="M114.41,170.31c6.25,34.49,40.13,64.08,83.57,69.92,50.87,6.84,95.7-21.46,100.06-63.16S264.63,96,213.77,89.13c-41.52-5.58-79,12.25-93.77,41.66,2.3,5,3.36,11.92,2.57,19.43-.91,8.74-4.09,16.12-8.16,20.09Z"/><g class="cls-7"><polygon class="cls-5" points="262.21 138.71 262.2 138.71 262.21 138.7 262.2 138.71 262.21 138.7 262.22 138.7 262.22 138.7 262.23 138.7 262.24 138.69 262.23 138.69 262.24 138.69 262.25 138.68 262.25 138.69 262.26 138.68 262.27 138.67 262.26 138.68 262.27 138.67 262.29 138.66 262.28 138.67 262.29 138.66 262.31 138.65 262.61 138.58 262.86 138.74 262.87 138.75 262.93 139.04 262.77 139.3 262.77 139.31 262.75 139.32 262.73 139.33 262.71 139.34 262.69 139.36 262.67 139.37 262.65 139.38 262.63 139.4 262.61 139.41 262.59 139.42 262.56 139.43 262.54 139.44 262.52 139.45 262.5 139.46 262.48 139.47 262.45 139.47 262.43 139.48 262.41 139.49 262.38 139.5 262.36 139.5 262.34 139.51 262.31 139.51 262.29 139.52 262.27 139.52 262.24 139.52 262.22 139.53 262.19 139.53 262.17 139.53 262.15 139.53 262.13 139.53 262.11 139.53 262.1 139.53 262.08 139.53 262.05 139.53 262.03 139.53 262.01 139.52 261.98 139.52 261.96 139.51 261.94 139.51 261.92 139.5 261.89 139.5 261.87 139.49 261.85 139.49 261.83 139.48 261.81 139.47 261.79 139.46 261.76 139.46 261.74 139.45 261.72 139.44 261.7 139.43 261.7 139.43 261.69 139.42 261.66 139.41 261.65 139.4 261.63 139.39 261.61 139.38 261.59 139.36 261.57 139.35 261.55 139.34 261.54 139.33 261.52 139.31 261.5 139.3 261.48 139.29 261.47 139.28 261.45 139.26 261.43 139.25 261.42 139.23 261.4 139.22 261.39 139.21 261.37 139.19 261.36 139.18 261.34 139.16 261.32 139.15 261.31 139.13 261.3 139.12 261.26 139.09 261.24 139.05 261.21 139.02 261.18 138.99 261.15 138.95 261.13 138.92 261.1 138.88 261.07 138.85 261.05 138.81 261.02 138.77 261 138.74 260.97 138.7 260.95 138.66 260.92 138.62 260.9 138.58 260.87 138.54 260.85 138.5 260.82 138.46 260.8 138.42 260.78 138.38 260.75 138.34 260.73 138.29 260.71 138.25 260.69 138.21 260.66 138.17 260.64 138.12 260.62 138.08 260.59 138.03 260.55 137.95 260.5 137.86 260.46 137.77 260.41 137.68 260.37 137.58 260.32 137.49 260.24 137.31 260.19 137.22 260.15 137.13 260.11 137.03 260.06 136.94 260.01 136.85 259.97 136.77 259.93 136.68 259.9 136.64 259.88 136.59 259.86 136.55 259.84 136.51 259.82 136.47 259.79 136.43 259.77 136.39 259.75 136.35 259.73 136.31 259.7 136.27 259.68 136.23 259.66 136.19 259.63 136.16 259.61 136.12 259.59 136.09 259.57 136.05 259.55 136.01 259.52 135.98 259.5 135.95 259.48 135.92 259.46 135.89 259.44 135.86 259.41 135.83 259.39 135.8 259.37 135.77 259.35 135.74 259.32 135.72 259.3 135.69 259.28 135.67 259.26 135.65 259.25 135.64 259.24 135.63 259.23 135.62 259.22 135.61 259.21 135.6 259.2 135.59 259.19 135.58 259.18 135.57 259.07 135.47 258.96 135.37 258.85 135.28 258.74 135.18 258.63 135.09 258.52 134.99 258.41 134.89 258.3 134.8 258.19 134.7 258.08 134.61 257.97 134.51 257.86 134.42 257.75 134.32 257.64 134.23 257.52 134.14 257.41 134.04 257.3 133.95 257.19 133.86 257.08 133.76 256.96 133.67 256.85 133.58 256.74 133.49 256.63 133.4 256.51 133.3 256.4 133.21 256.29 133.12 256.17 133.03 256.06 132.94 255.95 132.85 255.83 132.76 255.72 132.67 255.61 132.58 255.49 132.49 255.48 132.48 255.38 132.4 255.26 132.31 255.15 132.22 255.03 132.13 254.92 132.04 254.81 131.95 254.69 131.86 254.57 131.78 254.46 131.69 254.34 131.6 254.23 131.51 254.11 131.42 254 131.34 253.88 131.25 253.77 131.16 253.65 131.08 253.53 130.99 253.42 130.9 253.3 130.82 253.19 130.73 253.07 130.65 252.95 130.56 252.84 130.47 252.72 130.39 252.61 130.31 252.49 130.22 252.37 130.13 252.25 130.05 252.14 129.97 252.02 129.88 251.9 129.8 251.71 129.66 251.52 129.53 251.33 129.39 251.14 129.26 250.95 129.12 250.76 128.99 250.57 128.86 250.38 128.72 250.19 128.59 249.99 128.46 249.8 128.33 249.61 128.2 249.42 128.07 249.22 127.94 249.03 127.81 248.84 127.68 248.64 127.55 248.45 127.42 248.25 127.3 248.06 127.17 247.86 127.04 247.67 126.91 247.47 126.79 247.28 126.66 247.08 126.54 246.89 126.41 246.69 126.29 246.5 126.17 246.3 126.04 246.1 125.92 245.91 125.8 245.71 125.68 245.51 125.56 245.31 125.43 245.12 125.31 244.92 125.19 244.72 125.08 244.52 124.96 244.32 124.84 244.13 124.72 243.93 124.6 243.73 124.48 243.65 124.44 243.53 124.37 243.33 124.25 243.13 124.14 242.93 124.02 242.73 123.91 242.53 123.79 242.33 123.68 242.13 123.56 241.93 123.45 241.73 123.34 241.53 123.23 241.32 123.11 241.13 123 240.92 122.89 240.72 122.78 240.52 122.67 240.32 122.56 240.11 122.45 239.91 122.35 239.71 122.24 239.51 122.13 239.3 122.03 239.1 121.92 238.9 121.81 238.69 121.71 238.49 121.6 238.28 121.5 238.08 121.39 237.88 121.29 237.67 121.19 237.47 121.09 237.26 120.98 237.06 120.88 236.85 120.78 236.65 120.68 236.5 120.61 236.44 120.58 236.23 120.48 236.03 120.39 235.82 120.29 235.62 120.19 235.41 120.09 235.2 119.99 235 119.9 234.79 119.8 234.58 119.71 234.38 119.61 234.17 119.52 233.96 119.42 233.75 119.33 233.54 119.24 233.34 119.14 233.13 119.05 232.92 118.96 232.71 118.87 232.5 118.78 232.29 118.69 232.08 118.6 231.88 118.51 231.66 118.42 231.45 118.34 231.25 118.25 231.03 118.16 230.82 118.08 230.62 117.99 230.4 117.91 230.19 117.82 229.98 117.74 229.77 117.66 229.56 117.57 229.35 117.49 229.14 117.41 228.93 117.33 228.77 117.27 228.72 117.25 228.5 117.17 228.29 117.08 228.08 117 227.87 116.93 227.66 116.85 227.44 116.77 227.23 116.69 227.02 116.61 226.81 116.54 226.59 116.46 226.38 116.39 226.17 116.31 225.95 116.24 225.8 116.19 225.65 116.13 225.5 116.08 225.34 116.03 225.19 115.98 225.03 115.93 224.88 115.88 224.73 115.83 224.57 115.77 224.42 115.72 224.26 115.67 224.11 115.62 223.95 115.57 223.79 115.53 223.64 115.48 223.48 115.43 223.33 115.38 223.17 115.33 223.01 115.28 222.86 115.23 222.7 115.19 222.54 115.14 222.38 115.09 222.22 115.05 222.07 115 221.91 114.95 221.75 114.91 221.59 114.86 221.43 114.81 221.27 114.77 221.11 114.72 220.95 114.68 220.79 114.64 220.71 114.61 220.63 114.59 220.47 114.55 220.31 114.5 220.15 114.46 219.99 114.42 219.83 114.37 219.67 114.33 219.51 114.29 219.34 114.24 219.18 114.2 219.02 114.16 218.86 114.12 218.7 114.08 218.53 114.03 218.37 113.99 218.21 113.95 218.04 113.91 217.88 113.87 217.72 113.83 217.55 113.79 217.39 113.75 217.22 113.71 217.06 113.67 216.9 113.64 216.73 113.6 216.57 113.56 216.4 113.52 216.24 113.48 216.07 113.45 215.91 113.41 215.74 113.37 215.57 113.34 215.41 113.3 215.24 113.26 215.07 113.23 214.91 113.19 214.74 113.16 214.57 113.12 214.41 113.09 214.24 113.05 214.07 113.02 213.9 112.99 213.74 112.95 213.57 112.92 213.4 112.89 213.23 112.85 213.06 112.82 212.89 112.79 212.72 112.76 212.63 112.74 212.56 112.73 212.39 112.69 212.22 112.66 212.05 112.63 211.88 112.6 211.71 112.57 211.54 112.54 211.37 112.51 211.2 112.48 211.03 112.45 210.86 112.42 210.69 112.39 210.52 112.36 210.35 112.33 210.18 112.3 210 112.28 209.83 112.25 209.66 112.22 209.49 112.19 209.32 112.17 209.15 112.14 208.97 112.11 208.8 112.09 208.63 112.06 208.46 112.03 208.28 112.01 208.11 111.98 207.94 111.96 207.77 111.94 207.59 111.91 207.42 111.89 207.25 111.86 207.07 111.84 206.9 111.82 206.73 111.79 206.55 111.77 206.38 111.75 206.2 111.73 206.03 111.71 205.86 111.68 205.68 111.66 205.51 111.64 205.33 111.62 205.16 111.6 204.98 111.58 204.81 111.56 204.63 111.54 204.46 111.52 204.28 111.5 204.11 111.49 203.93 111.47 203.76 111.45 203.58 111.43 203.4 111.42 203.23 111.4 203.05 111.38 203.02 111.38 202.88 111.36 202.7 111.35 202.52 111.33 202.35 111.32 202.17 111.3 202 111.28 201.82 111.27 201.64 111.25 201.47 111.24 201.29 111.23 201.11 111.21 200.94 111.2 200.76 111.19 200.58 111.17 200.4 111.16 200.22 111.15 200.05 111.13 199.87 111.12 199.69 111.11 199.51 111.1 199.34 111.09 199.16 111.08 198.98 111.07 198.8 111.06 198.63 111.05 198.45 111.04 198.27 111.03 198.09 111.02 197.91 111.01 197.73 111 197.55 110.99 197.38 110.99 197.2 110.98 197.02 110.97 196.84 110.97 196.66 110.96 196.48 110.95 196.3 110.95 196.13 110.94 195.94 110.94 195.77 110.93 195.59 110.92 195.41 110.92 195.23 110.92 195.05 110.91 194.87 110.91 194.69 110.91 194.51 110.9 194.33 110.9 194.15 110.9 193.97 110.9 193.79 110.89 193.61 110.89 193.43 110.89 193.25 110.89 193.07 110.89 192.89 110.89 192.71 110.89 192.53 110.89 192.35 110.89 192.17 110.89 191.99 110.89 191.81 110.89 191.63 110.9 191.45 110.9 191.34 110.9 191.27 110.9 191.09 110.91 190.91 110.91 190.73 110.91 190.55 110.91 190.37 110.92 190.19 110.92 190.01 110.93 189.83 110.93 189.65 110.94 189.47 110.94 189.29 110.95 189.11 110.95 188.93 110.96 188.75 110.97 188.57 110.97 188.39 110.98 188.21 110.99 188.03 111 187.84 111 187.66 111.01 187.48 111.02 187.3 111.03 187.12 111.04 186.94 111.05 186.76 111.06 186.58 111.07 186.4 111.08 186.22 111.09 186.04 111.1 185.86 111.11 185.68 111.13 185.5 111.14 185.32 111.15 185.14 111.16 184.96 111.18 184.78 111.19 184.59 111.2 184.41 111.22 184.23 111.23 184.05 111.25 183.87 111.26 183.69 111.28 183.51 111.29 183.33 111.31 183.15 111.33 182.97 111.34 182.79 111.36 182.61 111.38 182.43 111.39 182.25 111.41 182.07 111.43 181.89 111.45 181.71 111.47 181.53 111.49 181.35 111.51 181.17 111.53 180.99 111.55 180.81 111.57 180.63 111.59 180.45 111.61 180.27 111.63 180.09 111.66 179.91 111.68 179.73 111.7 179.55 111.72 179.37 111.75 179.19 111.77 179.01 111.79 178.83 111.82 178.65 111.84 178.47 111.87 178.29 111.89 178.11 111.92 177.93 111.94 177.75 111.97 177.57 112 177.4 112.02 177.22 112.05 177.04 112.08 176.86 112.11 176.68 112.14 176.5 112.16 176.32 112.19 176.14 112.22 175.96 112.25 175.78 112.28 175.61 112.31 175.43 112.34 175.25 112.37 175.07 112.4 174.89 112.44 174.71 112.47 174.54 112.5 174.36 112.53 174.18 112.57 174 112.6 173.82 112.63 173.65 112.67 173.47 112.7 173.29 112.73 173.11 112.77 172.94 112.81 172.76 112.84 172.58 112.88 172.4 112.91 172.23 112.95 172.05 112.99 171.87 113.02 171.7 113.06 171.52 113.1 171.34 113.14 171.17 113.18 170.99 113.22 170.81 113.25 170.64 113.3 170.46 113.33 170.28 113.38 170.11 113.42 169.93 113.46 169.76 113.5 169.58 113.54 169.4 113.58 169.23 113.63 169.05 113.67 168.88 113.71 168.7 113.75 168.53 113.8 168.35 113.84 168.18 113.89 168 113.93 167.83 113.98 167.65 114.02 167.48 114.07 167.31 114.11 167.13 114.16 166.96 114.21 166.78 114.26 166.61 114.3 166.44 114.35 166.33 114.38 166.26 114.4 166.09 114.45 165.91 114.5 165.74 114.55 165.57 114.6 165.4 114.65 165.22 114.7 165.05 114.75 164.88 114.8 164.7 114.85 164.53 114.9 164.36 114.95 164.19 115.01 164.01 115.06 163.84 115.11 163.67 115.17 163.5 115.22 163.33 115.27 163.16 115.33 162.99 115.38 162.81 115.44 162.64 115.49 162.47 115.55 162.3 115.61 162.13 115.66 161.96 115.72 161.79 115.78 161.62 115.83 161.45 115.89 161.28 115.95 161.11 116.01 160.94 116.07 160.77 116.13 160.6 116.19 160.44 116.25 160.27 116.31 160.1 116.37 159.93 116.43 159.76 116.49 159.59 116.56 159.43 116.62 159.26 116.68 159.09 116.74 158.92 116.81 158.75 116.87 158.59 116.93 158.42 117 158.25 117.06 158.09 117.13 157.92 117.19 157.75 117.26 157.59 117.33 157.42 117.39 157.26 117.46 157.09 117.53 156.93 117.6 156.76 117.67 156.59 117.73 156.43 117.8 156.27 117.87 156.1 117.94 155.94 118.01 155.77 118.08 155.61 118.15 155.44 118.22 155.28 118.3 155.12 118.37 154.96 118.44 154.79 118.51 154.63 118.59 154.47 118.66 154.31 118.73 154.14 118.81 153.98 118.88 153.82 118.96 153.66 119.03 153.5 119.11 153.34 119.18 153.17 119.26 153.01 119.34 152.85 119.41 152.69 119.49 152.53 119.57 152.37 119.65 152.21 119.73 152.05 119.81 151.89 119.89 151.73 119.96 151.58 120.05 151.42 120.13 151.26 120.21 151.1 120.29 150.94 120.37 150.78 120.45 150.63 120.53 150.47 120.62 150.31 120.7 150.16 120.78 150 120.87 149.84 120.95 149.69 121.04 149.53 121.12 149.38 121.21 149.22 121.29 149.06 121.38 148.91 121.47 148.75 121.55 148.6 121.64 148.45 121.73 148.29 121.82 148.14 121.9 147.98 121.99 147.83 122.08 147.68 122.17 147.53 122.26 147.37 122.35 147.22 122.44 147.07 122.53 146.92 122.63 146.92 122.63 146.76 122.72 146.61 122.81 146.46 122.9 146.31 123 146.16 123.09 146.01 123.18 145.86 123.28 145.71 123.37 145.56 123.47 145.41 123.56 145.26 123.66 145.11 123.75 144.97 123.85 144.82 123.95 144.67 124.05 144.52 124.14 144.37 124.24 144.22 124.34 144.08 124.44 143.93 124.54 143.78 124.64 143.64 124.74 143.49 124.84 143.35 124.94 143.2 125.04 143.06 125.14 142.91 125.25 142.77 125.35 142.62 125.45 142.48 125.55 142.34 125.66 142.19 125.76 142.05 125.86 141.91 125.97 141.76 126.08 141.62 126.18 141.48 126.29 141.34 126.39 141.19 126.5 141.05 126.61 140.91 126.72 140.77 126.82 140.63 126.93 140.49 127.04 140.35 127.15 140.21 127.26 140.07 127.37 140 127.43 139.94 127.48 139.8 127.59 139.66 127.7 139.61 127.7 139.61 127.65 139.75 127.53 139.88 127.42 139.95 127.37 140.02 127.3 140.16 127.19 140.29 127.08 140.43 126.97 140.57 126.85 140.71 126.74 140.84 126.63 140.98 126.52 141.12 126.41 141.26 126.3 141.4 126.19 141.54 126.08 141.68 125.97 141.82 125.86 141.96 125.75 142.1 125.64 142.24 125.53 142.39 125.43 142.53 125.32 142.67 125.22 142.81 125.11 142.96 125 143.1 124.9 143.24 124.79 143.38 124.69 143.53 124.58 143.67 124.48 143.82 124.38 143.96 124.27 144.11 124.17 144.25 124.07 144.4 123.97 144.54 123.86 144.69 123.76 144.84 123.66 144.99 123.56 145.13 123.46 145.28 123.36 145.43 123.26 145.57 123.17 145.72 123.07 145.87 122.97 146.02 122.87 146.17 122.77 146.32 122.68 146.47 122.58 146.62 122.48 146.77 122.39 146.92 122.29 147.07 122.2 147.22 122.1 147.37 122.01 147.52 121.92 147.67 121.82 147.83 121.73 147.98 121.64 148.13 121.54 148.28 121.45 148.44 121.36 148.59 121.27 148.74 121.18 148.9 121.09 149.05 121 149.21 120.91 149.36 120.82 149.51 120.73 149.67 120.64 149.83 120.55 149.98 120.47 150.14 120.38 150.29 120.29 150.45 120.2 150.61 120.12 150.76 120.03 150.92 119.94 151.08 119.86 151.23 119.78 151.39 119.69 151.55 119.61 151.71 119.52 151.87 119.44 152.03 119.36 152.18 119.27 152.34 119.19 152.5 119.11 152.66 119.03 152.82 118.95 152.98 118.87 153.14 118.79 153.3 118.71 153.46 118.63 153.62 118.55 153.78 118.47 153.94 118.39 154.11 118.31 154.27 118.23 154.43 118.16 154.59 118.08 154.75 118 154.92 117.93 155.08 117.85 155.24 117.77 155.41 117.7 155.57 117.62 155.73 117.55 155.9 117.47 156.06 117.4 156.22 117.33 156.39 117.25 156.56 117.18 156.72 117.11 156.88 117.04 157.05 116.97 157.21 116.89 157.38 116.82 157.54 116.75 157.71 116.68 157.88 116.61 158.04 116.54 158.21 116.47 158.38 116.41 158.54 116.34 158.71 116.27 158.88 116.2 159.04 116.14 159.21 116.07 159.38 116 159.55 115.94 159.72 115.87 159.88 115.8 160.05 115.74 160.22 115.67 160.39 115.61 160.56 115.55 160.73 115.48 160.9 115.42 161.07 115.36 161.24 115.29 161.41 115.23 161.58 115.17 161.75 115.11 161.92 115.05 162.09 114.98 162.26 114.92 162.43 114.86 162.6 114.8 162.77 114.74 162.94 114.69 163.12 114.63 163.29 114.57 163.46 114.51 163.63 114.45 163.8 114.39 163.97 114.34 164.15 114.28 164.32 114.22 164.49 114.17 164.67 114.11 164.84 114.06 165.01 114 165.18 113.95 165.36 113.89 165.53 113.84 165.71 113.79 165.88 113.73 166.05 113.68 166.12 113.66 166.23 113.63 166.4 113.58 166.57 113.53 166.75 113.47 166.93 113.42 167.1 113.37 167.27 113.32 167.45 113.27 167.63 113.22 167.8 113.18 167.97 113.13 168.15 113.08 168.33 113.03 168.5 112.98 168.68 112.94 168.85 112.89 169.03 112.84 169.21 112.8 169.38 112.75 169.56 112.7 169.74 112.66 169.91 112.61 170.09 112.57 170.27 112.53 170.44 112.48 170.62 112.44 170.8 112.39 170.97 112.35 171.15 112.31 171.33 112.27 171.51 112.23 171.69 112.18 171.86 112.14 172.04 112.1 172.22 112.06 172.4 112.02 172.58 111.98 172.75 111.94 172.93 111.9 173.11 111.86 173.29 111.83 173.47 111.79 173.65 111.75 173.83 111.71 174.01 111.68 174.19 111.64 174.36 111.6 174.54 111.57 174.72 111.53 174.9 111.5 175.08 111.46 175.26 111.43 175.44 111.39 175.62 111.36 175.8 111.32 175.98 111.29 176.16 111.26 176.34 111.22 176.52 111.19 176.7 111.16 176.88 111.13 177.06 111.1 177.24 111.07 177.42 111.04 177.6 111.01 177.78 110.98 177.96 110.95 178.15 110.92 178.32 110.89 178.5 110.86 178.69 110.83 178.87 110.8 179.05 110.78 179.23 110.75 179.41 110.72 179.59 110.69 179.77 110.67 179.95 110.64 180.13 110.62 180.32 110.59 180.5 110.57 180.68 110.54 180.86 110.52 181.04 110.49 181.22 110.47 181.41 110.45 181.59 110.42 181.77 110.4 181.95 110.38 182.13 110.36 182.31 110.33 182.5 110.31 182.68 110.29 182.86 110.27 183.04 110.25 183.22 110.23 183.41 110.21 183.59 110.19 183.77 110.17 183.95 110.15 184.13 110.13 184.32 110.12 184.5 110.1 184.68 110.08 184.86 110.06 185.04 110.05 185.23 110.03 185.41 110.01 185.59 110 185.77 109.98 185.96 109.97 186.14 109.95 186.32 109.94 186.5 109.92 186.69 109.91 186.87 109.89 187.05 109.88 187.23 109.87 187.42 109.86 187.6 109.84 187.78 109.83 187.96 109.82 188.15 109.81 188.33 109.8 188.51 109.79 188.69 109.78 188.88 109.77 189.06 109.76 189.24 109.75 189.42 109.74 189.6 109.73 189.79 109.72 189.97 109.71 190.15 109.7 190.33 109.69 190.52 109.69 190.7 109.68 190.88 109.67 191.06 109.67 191.24 109.66 191.31 109.66 191.43 109.66 191.61 109.65 191.79 109.65 191.97 109.64 192.16 109.64 192.34 109.63 192.52 109.63 192.7 109.63 192.88 109.62 193.07 109.62 193.25 109.62 193.43 109.62 193.61 109.62 193.79 109.61 193.97 109.61 194.16 109.61 194.34 109.61 194.52 109.61 194.7 109.61 194.88 109.61 195.07 109.61 195.25 109.61 195.43 109.62 195.61 109.62 195.79 109.62 195.97 109.62 196.15 109.63 196.34 109.63 196.52 109.63 196.7 109.64 196.88 109.64 197.06 109.64 197.24 109.65 197.42 109.65 197.6 109.66 197.78 109.66 197.97 109.67 198.15 109.67 198.33 109.68 198.51 109.69 198.69 109.69 198.87 109.7 199.05 109.71 199.23 109.72 199.41 109.72 199.59 109.73 199.77 109.74 199.95 109.75 200.13 109.76 200.31 109.77 200.49 109.78 200.67 109.79 200.85 109.8 201.03 109.81 201.21 109.82 201.39 109.83 201.57 109.85 201.75 109.86 201.93 109.87 202.11 109.88 202.28 109.9 202.46 109.91 202.64 109.92 202.82 109.94 203 109.95 203.14 109.96 203.18 109.97 203.36 109.98 203.54 110 203.71 110.01 203.89 110.03 204.07 110.04 204.25 110.06 204.43 110.08 204.61 110.09 204.78 110.11 204.96 110.13 205.14 110.15 205.32 110.17 205.49 110.19 205.67 110.2 205.85 110.22 206.02 110.24 206.2 110.26 206.38 110.28 206.55 110.3 206.73 110.33 206.91 110.35 207.08 110.37 207.26 110.39 207.44 110.41 207.61 110.43 207.79 110.46 207.96 110.48 208.14 110.5 208.32 110.53 208.49 110.55 208.67 110.57 208.84 110.6 209.01 110.62 209.19 110.65 209.37 110.67 209.54 110.7 209.71 110.72 209.89 110.75 210.06 110.77 210.24 110.8 210.41 110.83 210.59 110.86 210.76 110.88 210.93 110.91 211.11 110.94 211.28 110.97 211.45 111 211.63 111.02 211.8 111.05 211.97 111.08 212.14 111.11 212.32 111.14 212.49 111.17 212.66 111.2 212.83 111.23 212.91 111.25 213 111.27 213.18 111.3 213.35 111.33 213.52 111.36 213.69 111.39 213.86 111.43 214.03 111.46 214.2 111.5 214.37 111.53 214.54 111.56 214.71 111.6 214.88 111.63 215.05 111.67 215.22 111.7 215.39 111.74 215.56 111.78 215.73 111.81 215.9 111.85 216.07 111.88 216.24 111.92 216.4 111.96 216.57 112 216.74 112.03 216.91 112.07 217.07 112.11 217.24 112.15 217.41 112.19 217.58 112.23 217.74 112.27 217.91 112.31 218.08 112.35 218.24 112.39 218.41 112.43 218.57 112.47 218.74 112.51 218.91 112.55 219.07 112.59 219.24 112.64 219.4 112.68 219.57 112.72 219.73 112.76 219.9 112.81 220.06 112.85 220.22 112.89 220.39 112.94 220.55 112.98 220.72 113.03 220.88 113.07 221.04 113.12 221.12 113.14 221.21 113.16 221.37 113.21 221.53 113.25 221.69 113.3 221.85 113.35 222.02 113.39 222.18 113.44 222.34 113.49 222.5 113.54 222.66 113.58 222.82 113.63 222.98 113.68 223.14 113.73 223.3 113.78 223.46 113.83 223.62 113.88 223.78 113.93 223.94 113.98 224.1 114.03 224.25 114.08 224.41 114.13 224.57 114.18 224.73 114.23 224.89 114.29 225.04 114.34 225.2 114.39 225.36 114.44 225.51 114.5 225.67 114.55 225.83 114.6 225.98 114.66 226.14 114.71 226.29 114.77 226.45 114.82 226.67 114.9 226.88 114.97 227.1 115.05 227.31 115.13 227.53 115.21 227.75 115.29 227.96 115.37 228.18 115.45 228.39 115.53 228.61 115.61 228.82 115.69 229.04 115.77 229.25 115.86 229.3 115.88 229.47 115.94 229.68 116.03 229.9 116.11 230.11 116.2 230.32 116.28 230.53 116.37 230.75 116.46 230.96 116.55 231.17 116.63 231.39 116.72 231.6 116.81 231.81 116.9 232.02 116.99 232.24 117.08 232.45 117.17 232.66 117.27 232.87 117.36 233.08 117.45 233.29 117.55 233.5 117.64 233.71 117.74 233.92 117.83 234.13 117.93 234.34 118.02 234.56 118.12 234.76 118.22 234.97 118.32 235.18 118.41 235.39 118.51 235.6 118.61 235.81 118.71 236.02 118.81 236.23 118.91 236.44 119.02 236.64 119.12 236.85 119.22 237.06 119.32 237.12 119.35 237.27 119.43 237.47 119.53 237.68 119.64 237.89 119.74 238.09 119.85 238.3 119.95 238.5 120.06 238.71 120.17 238.92 120.28 239.12 120.39 239.33 120.5 239.53 120.61 239.74 120.72 239.94 120.83 240.15 120.94 240.35 121.05 240.56 121.16 240.76 121.27 240.96 121.39 241.17 121.5 241.37 121.61 241.57 121.73 241.77 121.84 241.98 121.96 242.18 122.07 242.38 122.19 242.58 122.31 242.78 122.42 242.99 122.54 243.19 122.66 243.39 122.78 243.59 122.9 243.79 123.02 243.99 123.14 244.19 123.26 244.31 123.33 244.39 123.38 244.59 123.5 244.79 123.63 244.99 123.75 245.19 123.87 245.38 124 245.58 124.12 245.78 124.25 245.98 124.37 246.17 124.5 246.37 124.62 246.57 124.75 246.77 124.88 246.96 125 247.16 125.13 247.36 125.26 247.55 125.39 247.75 125.52 247.94 125.65 248.14 125.78 248.33 125.91 248.53 126.04 248.72 126.17 248.92 126.31 249.11 126.44 249.3 126.57 249.5 126.71 249.69 126.84 249.88 126.97 250.07 127.11 250.27 127.25 250.46 127.38 250.65 127.52 250.84 127.65 251.03 127.79 251.23 127.93 251.42 128.07 251.61 128.21 251.8 128.34 251.99 128.48 252.18 128.62 252.37 128.76 252.56 128.9 252.67 128.99 252.79 129.08 252.91 129.16 253.02 129.25 253.14 129.34 253.26 129.43 253.37 129.52 253.49 129.6 253.6 129.69 253.72 129.78 253.84 129.87 253.95 129.96 254.07 130.05 254.18 130.14 254.3 130.23 254.41 130.32 254.53 130.41 254.65 130.5 254.76 130.59 254.88 130.68 254.99 130.77 255.1 130.86 255.22 130.95 255.34 131.04 255.45 131.13 255.56 131.23 255.68 131.32 255.79 131.41 255.91 131.5 256.02 131.59 256.13 131.68 256.13 131.69 256.25 131.78 256.36 131.88 256.47 131.97 256.59 132.06 256.7 132.16 256.81 132.25 256.93 132.35 257.04 132.44 257.15 132.54 257.26 132.63 257.38 132.73 257.49 132.82 257.6 132.92 257.71 133.02 257.82 133.11 257.93 133.21 258.05 133.31 258.15 133.4 258.27 133.5 258.38 133.6 258.49 133.7 258.6 133.79 258.71 133.89 258.82 133.99 258.93 134.09 259.04 134.19 259.15 134.29 259.25 134.39 259.36 134.49 259.47 134.59 259.58 134.69 259.69 134.79 259.8 134.89 259.81 134.91 259.83 134.92 259.85 134.94 259.87 134.96 259.88 134.97 259.9 134.99 259.91 135.01 259.93 135.03 259.96 135.06 259.99 135.09 260.02 135.13 260.05 135.17 260.08 135.21 260.11 135.24 260.14 135.28 260.17 135.32 260.2 135.36 260.22 135.4 260.25 135.44 260.28 135.48 260.31 135.53 260.33 135.57 260.36 135.61 260.38 135.65 260.41 135.69 260.43 135.74 260.46 135.78 260.48 135.83 260.51 135.87 260.53 135.92 260.56 135.96 260.58 136.01 260.6 136.05 260.63 136.1 260.65 136.14 260.67 136.19 260.69 136.24 260.72 136.28 260.76 136.38 260.81 136.47 260.85 136.56 260.9 136.66 260.94 136.75 260.98 136.84 261.02 136.94 261.11 137.12 261.15 137.22 261.19 137.31 261.23 137.4 261.27 137.48 261.32 137.57 261.36 137.65 261.38 137.69 261.4 137.74 261.42 137.78 261.44 137.82 261.46 137.86 261.48 137.9 261.5 137.93 261.52 137.97 261.54 138.01 261.56 138.04 261.58 138.08 261.6 138.12 261.62 138.15 261.64 138.18 261.66 138.22 261.68 138.25 261.69 138.28 261.71 138.31 261.73 138.34 261.75 138.37 261.77 138.39 261.79 138.42 261.81 138.44 261.83 138.47 261.85 138.49 261.86 138.51 261.88 138.53 261.9 138.56 261.9 138.55 261.91 138.56 261.92 138.57 261.92 138.58 261.93 138.59 261.94 138.6 261.94 138.59 261.95 138.6 261.96 138.61 261.95 138.61 261.96 138.62 261.97 138.63 261.97 138.62 261.98 138.63 261.99 138.64 261.99 138.64 261.99 138.64 262 138.65 262 138.65 262.01 138.66 262.02 138.66 262.01 138.66 262.02 138.67 262.03 138.67 262.02 138.67 262.04 138.68 262.05 138.68 262.04 138.68 262.05 138.68 262.06 138.69 262.05 138.68 262.06 138.69 262.07 138.69 262.06 138.69 262.07 138.69 262.08 138.7 262.07 138.7 262.08 138.7 262.07 138.7 262.09 138.7 262.08 138.7 262.09 138.71 262.08 138.7 262.1 138.71 262.1 138.71 262.11 138.71 262.11 138.71 262.11 138.71 262.12 138.71 262.12 138.72 262.12 138.72 262.13 138.72 262.13 138.72 262.13 138.72 262.13 138.72 262.14 138.72 262.14 138.72 262.14 138.72 262.15 138.72 262.16 138.72 262.17 138.72 262.18 138.71 262.19 138.71 262.19 138.71 262.2 138.71 262.19 138.71 262.21 138.71 262.21 138.71"/><path class="cls-6" d="M273.76,154.67c-7.29-1-14.38,9.4-15.81,23.18s3.31,25.75,10.59,26.73,14.37-9.41,15.81-23.18-3.31-25.75-10.59-26.73Z"/></g><path class="cls-3" d="M182.49,242.91c-10.71,33-48.1,56.58-91.82,55C39.48,296.1-1.14,260.54,0,218.57S43.7,144,94.9,145.84c41.79,1.5,76.52,25.46,87.25,57-2.93,4.5-4.89,11.22-5.1,18.78-.24,8.8,1.94,16.63,5.44,21.25Z"/><g class="cls-8"><polygon class="cls-5" points="40.41 186.61 40.42 186.62 40.43 186.63 40.42 186.62 40.44 186.63 40.45 186.64 40.44 186.64 40.45 186.65 40.46 186.66 40.46 186.65 40.47 186.66 40.48 186.67 40.47 186.66 40.48 186.67 40.49 186.68 40.48 186.67 40.49 186.68 40.5 186.68 40.5 186.68 40.51 186.68 40.52 186.69 40.51 186.69 40.52 186.69 40.51 186.69 40.53 186.69 40.52 186.69 40.53 186.7 40.52 186.69 40.53 186.69 40.53 186.7 40.54 186.7 40.54 186.7 40.55 186.7 40.55 186.7 40.55 186.7 40.55 186.71 40.56 186.71 40.56 186.71 40.56 186.71 40.57 186.71 40.57 186.71 40.57 186.71 40.58 186.71 40.58 186.71 40.58 186.71 40.59 186.71 40.6 186.71 40.61 186.71 40.62 186.7 40.63 186.7 40.62 186.7 40.63 186.7 40.63 186.7 40.64 186.7 40.63 186.7 40.64 186.7 40.64 186.7 40.65 186.69 40.64 186.7 40.66 186.69 40.65 186.69 40.67 186.69 40.67 186.69 40.67 186.68 40.68 186.68 40.68 186.68 40.69 186.68 40.7 186.67 40.69 186.68 40.7 186.67 40.71 186.66 40.71 186.67 40.72 186.66 40.73 186.66 40.72 186.66 40.73 186.65 40.74 186.65 40.74 186.65 40.75 186.64 40.76 186.63 40.76 186.64 40.77 186.63 40.78 186.62 40.77 186.63 40.78 186.62 40.8 186.61 40.79 186.61 40.8 186.6 40.82 186.59 40.82 186.59 40.84 186.57 40.86 186.56 40.88 186.54 40.9 186.52 40.92 186.5 40.94 186.48 40.97 186.45 40.99 186.43 41.01 186.41 41.03 186.38 41.05 186.35 41.08 186.33 41.1 186.3 41.13 186.27 41.15 186.24 41.17 186.21 41.2 186.18 41.22 186.15 41.25 186.12 41.27 186.08 41.3 186.05 41.32 186.01 41.34 185.98 41.37 185.94 41.4 185.91 41.42 185.87 41.45 185.84 41.47 185.8 41.52 185.72 41.57 185.64 41.63 185.56 41.68 185.48 41.73 185.4 41.78 185.31 41.89 185.15 41.95 185.06 42 184.98 42.06 184.89 42.11 184.8 42.17 184.72 42.23 184.63 42.28 184.55 42.31 184.51 42.34 184.47 42.37 184.42 42.4 184.38 42.43 184.34 42.46 184.3 42.49 184.26 42.52 184.22 42.55 184.18 42.58 184.14 42.61 184.1 42.64 184.06 42.67 184.02 42.7 183.98 42.73 183.94 42.76 183.91 42.79 183.87 42.83 183.83 42.86 183.8 42.89 183.76 42.92 183.72 42.95 183.69 42.99 183.66 43.02 183.62 43.05 183.59 43.09 183.56 43.13 183.53 43.16 183.49 43.2 183.46 43.23 183.43 43.25 183.42 43.27 183.4 43.29 183.39 43.31 183.38 43.33 183.36 43.34 183.35 43.36 183.34 43.38 183.32 43.5 183.24 43.62 183.16 43.74 183.08 43.86 183 43.99 182.92 44.11 182.84 44.23 182.76 44.35 182.68 44.47 182.6 44.59 182.52 44.71 182.44 44.84 182.36 44.96 182.28 45.08 182.21 45.2 182.13 45.33 182.05 45.45 181.97 45.57 181.9 45.7 181.82 45.82 181.75 45.94 181.67 46.06 181.59 46.19 181.52 46.31 181.44 46.43 181.37 46.56 181.29 46.68 181.22 46.81 181.14 46.93 181.07 47.05 181 47.18 180.92 47.3 180.85 47.43 180.78 47.55 180.7 47.58 180.69 47.68 180.63 47.8 180.56 47.93 180.49 48.05 180.41 48.18 180.34 48.3 180.27 48.43 180.2 48.55 180.13 48.68 180.06 48.81 179.99 48.93 179.92 49.06 179.85 49.19 179.78 49.31 179.71 49.44 179.64 49.56 179.57 49.69 179.5 49.81 179.43 49.94 179.37 50.07 179.3 50.19 179.23 50.32 179.16 50.45 179.09 50.57 179.03 50.7 178.96 50.83 178.89 50.95 178.83 51.08 178.76 51.2 178.69 51.33 178.63 51.54 178.52 51.74 178.41 51.95 178.31 52.16 178.2 52.36 178.1 52.57 177.99 52.78 177.89 52.98 177.78 53.19 177.68 53.4 177.58 53.61 177.47 53.82 177.37 54.02 177.27 54.23 177.17 54.44 177.07 54.65 176.97 54.86 176.87 55.07 176.77 55.28 176.67 55.49 176.57 55.7 176.48 55.91 176.38 56.12 176.28 56.33 176.19 56.54 176.09 56.75 176 56.96 175.9 57.17 175.81 57.38 175.72 57.59 175.62 57.8 175.53 58.01 175.44 58.23 175.35 58.44 175.26 58.65 175.16 58.86 175.07 59.08 174.99 59.29 174.9 59.5 174.81 59.71 174.72 59.93 174.63 60.14 174.54 60.35 174.46 60.57 174.37 60.59 174.37 60.78 174.29 60.99 174.2 61.21 174.12 61.42 174.04 61.64 173.95 61.85 173.87 62.07 173.79 62.28 173.71 62.5 173.63 62.71 173.54 62.93 173.47 63.15 173.39 63.36 173.31 63.58 173.23 63.79 173.15 64.01 173.07 64.22 173 64.44 172.92 64.66 172.84 64.88 172.77 65.09 172.69 65.31 172.62 65.53 172.55 65.74 172.47 65.96 172.4 66.18 172.33 66.4 172.26 66.61 172.19 66.83 172.12 67.05 172.05 67.27 171.98 67.49 171.91 67.71 171.84 67.92 171.77 68.14 171.7 68.35 171.64 68.36 171.64 68.58 171.57 68.8 171.51 69.02 171.44 69.24 171.38 69.46 171.31 69.68 171.25 69.9 171.19 70.12 171.13 70.34 171.06 70.56 171 70.78 170.94 71 170.88 71.22 170.82 71.44 170.77 71.66 170.71 71.88 170.65 72.11 170.59 72.33 170.54 72.55 170.48 72.77 170.43 72.99 170.37 73.21 170.32 73.43 170.26 73.66 170.21 73.88 170.16 74.1 170.1 74.32 170.05 74.55 170 74.77 169.95 74.99 169.9 75.21 169.85 75.43 169.8 75.66 169.76 75.88 169.71 76.1 169.66 76.33 169.62 76.55 169.57 76.64 169.55 76.77 169.52 77 169.48 77.22 169.44 77.44 169.39 77.67 169.35 77.89 169.31 78.11 169.27 78.34 169.23 78.56 169.19 78.79 169.15 79.01 169.11 79.17 169.08 79.33 169.05 79.49 169.03 79.65 169 79.82 168.97 79.98 168.95 80.14 168.92 80.3 168.9 80.46 168.87 80.63 168.84 80.79 168.82 80.95 168.8 81.11 168.77 81.28 168.75 81.44 168.72 81.61 168.7 81.77 168.68 81.93 168.66 82.1 168.63 82.26 168.61 82.43 168.59 82.59 168.57 82.76 168.55 82.92 168.53 83.09 168.51 83.25 168.49 83.42 168.47 83.58 168.45 83.75 168.43 83.92 168.41 84.08 168.39 84.25 168.37 84.42 168.35 84.58 168.34 84.75 168.32 84.92 168.3 85.08 168.28 85.18 168.28 85.25 168.27 85.42 168.25 85.59 168.24 85.75 168.22 85.92 168.21 86.09 168.19 86.26 168.18 86.43 168.16 86.6 168.15 86.77 168.14 86.94 168.13 87.11 168.11 87.28 168.1 87.44 168.09 87.61 168.08 87.78 168.06 87.95 168.05 88.13 168.04 88.3 168.03 88.47 168.02 88.64 168.01 88.81 168 88.98 167.99 89.15 167.98 89.32 167.97 89.49 167.97 89.67 167.96 89.84 167.95 90.01 167.94 90.18 167.94 90.35 167.93 90.52 167.92 90.7 167.91 90.87 167.91 91.04 167.9 91.21 167.9 91.39 167.89 91.56 167.89 91.73 167.88 91.91 167.88 92.08 167.88 92.25 167.87 92.43 167.87 92.6 167.87 92.78 167.86 92.95 167.86 93.12 167.86 93.3 167.85 93.47 167.85 93.6 167.85 93.65 167.85 93.82 167.85 94 167.85 94.17 167.85 94.34 167.85 94.52 167.85 94.69 167.86 94.87 167.86 95.05 167.86 95.22 167.86 95.4 167.87 95.57 167.87 95.75 167.87 95.92 167.87 96.1 167.88 96.27 167.88 96.45 167.89 96.63 167.89 96.8 167.9 96.98 167.9 97.16 167.91 97.33 167.91 97.51 167.92 97.68 167.93 97.86 167.93 98.04 167.94 98.22 167.95 98.39 167.96 98.57 167.96 98.75 167.97 98.92 167.98 99.1 167.99 99.28 168 99.45 168.01 99.63 168.02 99.81 168.03 99.99 168.04 100.17 168.05 100.34 168.06 100.52 168.07 100.7 168.08 100.88 168.1 101.06 168.11 101.23 168.12 101.41 168.13 101.59 168.15 101.77 168.16 101.94 168.18 102.13 168.19 102.3 168.2 102.48 168.22 102.66 168.23 102.84 168.25 103.02 168.26 103.19 168.28 103.38 168.3 103.43 168.3 103.55 168.31 103.73 168.33 103.91 168.35 104.09 168.37 104.27 168.39 104.45 168.41 104.63 168.42 104.81 168.44 104.98 168.46 105.16 168.48 105.34 168.5 105.52 168.52 105.7 168.54 105.88 168.56 106.06 168.59 106.24 168.61 106.42 168.63 106.6 168.65 106.78 168.68 106.95 168.7 107.14 168.72 107.31 168.75 107.49 168.77 107.67 168.79 107.85 168.82 108.03 168.84 108.21 168.87 108.39 168.89 108.57 168.92 108.75 168.95 108.93 168.97 109.11 169 109.29 169.03 109.47 169.05 109.65 169.08 109.83 169.11 110.01 169.14 110.19 169.17 110.37 169.2 110.55 169.22 110.73 169.25 110.91 169.28 111.09 169.31 111.27 169.34 111.44 169.38 111.63 169.41 111.8 169.44 111.98 169.47 112.16 169.5 112.34 169.53 112.52 169.57 112.7 169.6 112.88 169.63 113.06 169.67 113.24 169.7 113.42 169.74 113.6 169.77 113.78 169.81 113.96 169.84 114.14 169.88 114.32 169.91 114.5 169.95 114.68 169.98 114.86 170.02 115.04 170.06 115.14 170.08 115.22 170.09 115.39 170.13 115.57 170.17 115.75 170.21 115.93 170.25 116.11 170.29 116.29 170.33 116.47 170.37 116.65 170.41 116.83 170.45 117.01 170.49 117.19 170.53 117.36 170.57 117.54 170.62 117.72 170.66 117.9 170.7 118.08 170.74 118.26 170.78 118.44 170.83 118.61 170.87 118.79 170.92 118.97 170.96 119.15 171 119.33 171.05 119.51 171.09 119.69 171.14 119.86 171.19 120.04 171.23 120.22 171.28 120.4 171.33 120.58 171.37 120.75 171.42 120.93 171.47 121.11 171.52 121.29 171.57 121.46 171.61 121.64 171.66 121.82 171.71 122 171.76 122.17 171.81 122.35 171.86 122.53 171.91 122.71 171.96 122.88 172.02 123.06 172.07 123.24 172.12 123.41 172.17 123.59 172.22 123.77 172.28 123.94 172.33 124.12 172.38 124.3 172.44 124.47 172.49 124.65 172.55 124.83 172.6 125 172.66 125.18 172.71 125.35 172.77 125.53 172.82 125.7 172.88 125.88 172.94 126.06 172.99 126.23 173.05 126.41 173.11 126.58 173.17 126.76 173.22 126.93 173.28 127.11 173.34 127.28 173.4 127.46 173.46 127.63 173.52 127.81 173.58 127.98 173.64 128.16 173.7 128.33 173.76 128.5 173.82 128.68 173.89 128.85 173.95 129.03 174.01 129.2 174.07 129.37 174.14 129.54 174.2 129.72 174.26 129.89 174.33 130.07 174.39 130.24 174.46 130.41 174.52 130.58 174.59 130.76 174.65 130.93 174.72 131.1 174.78 131.27 174.85 131.44 174.92 131.62 174.99 131.79 175.05 131.96 175.12 132.13 175.19 132.3 175.26 132.47 175.33 132.65 175.4 132.82 175.46 132.99 175.53 133.16 175.6 133.33 175.67 133.5 175.75 133.67 175.82 133.84 175.89 134.01 175.96 134.18 176.03 134.35 176.1 134.52 176.18 134.69 176.25 134.86 176.32 135.03 176.4 135.19 176.47 135.36 176.54 135.53 176.62 135.7 176.69 135.87 176.77 136.04 176.84 136.21 176.92 136.37 177 136.54 177.07 136.71 177.15 136.88 177.23 137.04 177.3 137.21 177.38 137.38 177.46 137.54 177.54 137.71 177.62 137.88 177.7 138.04 177.78 138.21 177.86 138.38 177.94 138.54 178.02 138.71 178.1 138.87 178.18 139.03 178.26 139.2 178.34 139.25 178.37 139.37 178.42 139.53 178.51 139.69 178.59 139.86 178.67 140.02 178.75 140.19 178.84 140.35 178.92 140.51 179.01 140.68 179.09 140.84 179.18 141 179.26 141.16 179.35 141.33 179.44 141.49 179.52 141.65 179.61 141.81 179.69 141.97 179.78 142.13 179.87 142.3 179.96 142.46 180.05 142.62 180.13 142.78 180.22 142.94 180.31 143.1 180.4 143.26 180.49 143.42 180.58 143.58 180.67 143.74 180.76 143.9 180.86 144.05 180.95 144.21 181.04 144.37 181.13 144.53 181.22 144.69 181.32 144.84 181.41 145 181.5 145.16 181.6 145.32 181.69 145.47 181.79 145.63 181.88 145.79 181.98 145.94 182.07 146.1 182.17 146.25 182.26 146.41 182.36 146.57 182.46 146.72 182.56 146.88 182.65 147.03 182.75 147.18 182.85 147.34 182.95 147.49 183.05 147.65 183.15 147.8 183.24 147.95 183.34 148.11 183.44 148.26 183.54 148.41 183.65 148.56 183.75 148.72 183.85 148.87 183.95 149.02 184.05 149.17 184.15 149.32 184.26 149.47 184.36 149.62 184.46 149.77 184.57 149.92 184.67 150.07 184.78 150.22 184.88 150.37 184.98 150.52 185.09 150.67 185.19 150.81 185.3 150.96 185.41 151.11 185.51 151.26 185.62 151.4 185.73 151.55 185.84 151.7 185.94 151.84 186.05 151.99 186.16 152.14 186.27 152.28 186.38 152.43 186.49 152.57 186.6 152.72 186.71 152.86 186.82 153 186.93 153.15 187.04 153.29 187.15 153.44 187.26 153.58 187.38 153.72 187.49 153.86 187.6 154.01 187.72 154.15 187.83 154.29 187.94 154.43 188.06 154.57 188.17 154.71 188.28 154.85 188.4 154.99 188.52 155.13 188.63 155.27 188.75 155.41 188.86 155.55 188.98 155.69 189.1 155.83 189.22 155.97 189.33 156.1 189.45 156.24 189.57 156.38 189.69 156.51 189.81 156.65 189.93 156.79 190.05 156.91 190.16 156.92 190.17 157.06 190.29 157.19 190.41 157.33 190.53 157.46 190.65 157.6 190.77 157.73 190.9 157.87 191.02 158 191.14 158.13 191.26 158.26 191.39 158.4 191.51 158.53 191.63 158.66 191.76 158.79 191.88 158.92 192.01 159.05 192.13 159.18 192.26 159.31 192.39 159.44 192.51 159.57 192.64 159.7 192.77 159.83 192.89 159.96 193.02 160.09 193.15 160.21 193.28 160.34 193.41 160.47 193.53 160.59 193.66 160.72 193.79 160.84 193.92 160.97 194.06 161.1 194.19 161.22 194.32 161.34 194.45 161.47 194.58 161.59 194.71 161.72 194.84 161.84 194.98 161.96 195.11 162.09 195.24 162.21 195.38 162.33 195.51 162.45 195.65 162.57 195.78 162.69 195.91 162.81 196.05 162.88 196.13 162.93 196.19 163.05 196.32 163.17 196.46 163.17 196.51 163.12 196.51 162.99 196.37 162.87 196.24 162.82 196.18 162.75 196.11 162.63 195.97 162.5 195.84 162.38 195.71 162.25 195.58 162.13 195.45 162 195.32 161.88 195.19 161.75 195.06 161.63 194.93 161.5 194.8 161.38 194.67 161.25 194.54 161.12 194.41 160.99 194.29 160.87 194.16 160.74 194.03 160.61 193.91 160.48 193.78 160.35 193.65 160.22 193.53 160.09 193.4 159.96 193.28 159.83 193.15 159.7 193.03 159.57 192.9 159.44 192.78 159.3 192.66 159.17 192.53 159.04 192.41 158.91 192.29 158.77 192.17 158.64 192.04 158.51 191.92 158.37 191.8 158.24 191.68 158.1 191.56 157.97 191.44 157.83 191.32 157.7 191.2 157.56 191.09 157.43 190.97 157.29 190.85 157.15 190.73 157.01 190.61 156.88 190.5 156.74 190.38 156.73 190.37 156.6 190.26 156.46 190.15 156.32 190.03 156.19 189.91 156.05 189.8 155.91 189.68 155.77 189.57 155.63 189.46 155.49 189.34 155.35 189.23 155.21 189.12 155.07 189 154.92 188.89 154.78 188.78 154.64 188.67 154.5 188.55 154.36 188.44 154.21 188.33 154.07 188.22 153.93 188.11 153.78 188 153.64 187.89 153.49 187.78 153.35 187.68 153.21 187.57 153.06 187.46 152.92 187.35 152.77 187.24 152.62 187.14 152.48 187.03 152.33 186.92 152.19 186.82 152.04 186.71 151.89 186.6 151.74 186.5 151.59 186.4 151.45 186.29 151.3 186.19 151.15 186.08 151 185.98 150.85 185.88 150.7 185.77 150.56 185.67 150.4 185.57 150.25 185.47 150.1 185.37 149.95 185.27 149.8 185.16 149.65 185.06 149.5 184.97 149.35 184.87 149.2 184.76 149.05 184.67 148.9 184.57 148.74 184.47 148.59 184.37 148.44 184.27 148.28 184.18 148.13 184.08 147.98 183.98 147.82 183.89 147.67 183.79 147.51 183.69 147.36 183.6 147.2 183.5 147.05 183.41 146.9 183.31 146.74 183.22 146.58 183.13 146.43 183.03 146.27 182.94 146.12 182.85 145.96 182.76 145.8 182.66 145.65 182.57 145.49 182.48 145.33 182.39 145.17 182.3 145.01 182.21 144.86 182.12 144.7 182.03 144.54 181.94 144.38 181.85 144.22 181.76 144.06 181.67 143.91 181.59 143.75 181.5 143.59 181.41 143.43 181.32 143.27 181.24 143.11 181.15 142.94 181.06 142.78 180.98 142.62 180.89 142.46 180.81 142.3 180.72 142.14 180.64 141.98 180.55 141.82 180.47 141.65 180.39 141.49 180.3 141.33 180.22 141.17 180.14 141 180.06 140.84 179.97 140.68 179.89 140.51 179.81 140.35 179.73 140.19 179.65 140.02 179.57 139.86 179.49 139.7 179.41 139.53 179.33 139.37 179.25 139.2 179.17 139.04 179.09 138.93 179.04 138.87 179.02 138.71 178.94 138.54 178.86 138.38 178.78 138.21 178.71 138.05 178.63 137.88 178.56 137.71 178.48 137.55 178.4 137.38 178.33 137.21 178.25 137.05 178.18 136.88 178.1 136.72 178.03 136.55 177.96 136.38 177.88 136.21 177.81 136.04 177.74 135.88 177.67 135.71 177.59 135.54 177.52 135.37 177.45 135.2 177.38 135.03 177.31 134.87 177.24 134.7 177.17 134.53 177.1 134.36 177.03 134.19 176.96 134.02 176.89 133.85 176.82 133.68 176.75 133.51 176.69 133.34 176.62 133.17 176.55 133 176.49 132.83 176.42 132.66 176.35 132.49 176.29 132.32 176.22 132.15 176.16 131.98 176.09 131.81 176.03 131.63 175.96 131.47 175.9 131.29 175.84 131.12 175.77 130.95 175.71 130.78 175.65 130.61 175.59 130.43 175.52 130.26 175.46 130.09 175.4 129.92 175.34 129.74 175.28 129.57 175.22 129.4 175.16 129.23 175.1 129.05 175.04 128.88 174.98 128.71 174.92 128.53 174.86 128.36 174.8 128.19 174.75 128.01 174.69 127.84 174.63 127.67 174.57 127.49 174.52 127.32 174.46 127.14 174.41 126.97 174.35 126.8 174.29 126.62 174.24 126.45 174.19 126.27 174.13 126.1 174.08 125.92 174.02 125.75 173.97 125.57 173.92 125.4 173.86 125.22 173.81 125.05 173.76 124.87 173.71 124.7 173.66 124.52 173.6 124.35 173.55 124.17 173.5 124 173.45 123.82 173.4 123.65 173.35 123.47 173.31 123.29 173.26 123.12 173.21 122.94 173.16 122.77 173.11 122.59 173.06 122.41 173.02 122.24 172.97 122.06 172.92 121.88 172.88 121.71 172.83 121.53 172.78 121.36 172.74 121.18 172.69 121 172.65 120.83 172.6 120.65 172.56 120.47 172.52 120.3 172.47 120.12 172.43 119.94 172.39 119.76 172.34 119.59 172.3 119.41 172.26 119.23 172.22 119.06 172.18 118.88 172.13 118.7 172.09 118.52 172.05 118.35 172.01 118.17 171.97 117.99 171.94 117.81 171.9 117.64 171.86 117.46 171.82 117.28 171.78 117.1 171.74 116.93 171.7 116.75 171.67 116.57 171.63 116.39 171.59 116.22 171.56 116.04 171.52 115.86 171.49 115.68 171.45 115.5 171.41 115.33 171.38 115.15 171.34 114.97 171.31 114.89 171.3 114.79 171.28 114.61 171.24 114.44 171.21 114.26 171.18 114.08 171.14 113.9 171.11 113.72 171.08 113.55 171.05 113.37 171.01 113.19 170.98 113.01 170.95 112.84 170.92 112.66 170.89 112.48 170.86 112.3 170.83 112.13 170.8 111.95 170.77 111.77 170.74 111.59 170.71 111.41 170.69 111.23 170.66 111.06 170.63 110.88 170.6 110.7 170.57 110.52 170.55 110.34 170.52 110.17 170.5 109.99 170.47 109.81 170.44 109.63 170.42 109.45 170.39 109.28 170.37 109.1 170.34 108.92 170.32 108.74 170.3 108.57 170.27 108.39 170.25 108.21 170.23 108.03 170.21 107.86 170.18 107.68 170.16 107.5 170.14 107.32 170.12 107.15 170.1 106.97 170.08 106.79 170.06 106.61 170.04 106.44 170.02 106.26 170 106.08 169.98 105.9 169.96 105.73 169.94 105.55 169.92 105.37 169.91 105.19 169.89 105.02 169.87 104.84 169.85 104.66 169.84 104.49 169.82 104.31 169.8 104.13 169.79 103.96 169.77 103.78 169.76 103.6 169.74 103.43 169.73 103.31 169.72 103.25 169.71 103.07 169.7 102.9 169.69 102.72 169.67 102.55 169.66 102.37 169.65 102.19 169.63 102.02 169.62 101.84 169.61 101.66 169.6 101.49 169.58 101.31 169.57 101.14 169.56 100.96 169.55 100.78 169.54 100.61 169.53 100.43 169.52 100.26 169.51 100.08 169.5 99.91 169.49 99.73 169.48 99.56 169.48 99.38 169.47 99.21 169.46 99.03 169.45 98.86 169.44 98.68 169.44 98.51 169.43 98.33 169.43 98.16 169.42 97.98 169.41 97.81 169.41 97.64 169.4 97.46 169.4 97.29 169.4 97.11 169.39 96.94 169.39 96.77 169.38 96.59 169.38 96.42 169.38 96.25 169.38 96.07 169.37 95.9 169.37 95.73 169.37 95.55 169.37 95.38 169.37 95.21 169.37 95.03 169.37 94.86 169.37 94.69 169.37 94.52 169.37 94.34 169.37 94.17 169.37 94 169.37 93.83 169.37 93.66 169.37 93.61 169.37 93.48 169.37 93.31 169.38 93.14 169.38 92.97 169.38 92.8 169.38 92.63 169.38 92.46 169.39 92.28 169.39 92.11 169.4 91.94 169.4 91.77 169.4 91.6 169.41 91.43 169.41 91.26 169.42 91.09 169.43 90.92 169.43 90.75 169.44 90.58 169.44 90.41 169.45 90.24 169.46 90.08 169.47 89.91 169.47 89.74 169.48 89.57 169.49 89.4 169.5 89.23 169.51 89.06 169.52 88.89 169.53 88.73 169.53 88.56 169.54 88.39 169.56 88.22 169.57 88.06 169.58 87.89 169.59 87.72 169.6 87.56 169.61 87.39 169.62 87.22 169.64 87.05 169.65 86.89 169.66 86.72 169.68 86.56 169.69 86.39 169.7 86.22 169.72 86.06 169.73 85.89 169.75 85.73 169.76 85.56 169.78 85.4 169.79 85.32 169.8 85.23 169.81 85.07 169.82 84.9 169.84 84.74 169.86 84.57 169.87 84.41 169.89 84.25 169.91 84.08 169.93 83.92 169.94 83.76 169.96 83.59 169.98 83.43 170 83.27 170.02 83.11 170.04 82.94 170.06 82.78 170.08 82.62 170.1 82.46 170.12 82.3 170.14 82.13 170.16 81.97 170.18 81.81 170.2 81.65 170.22 81.49 170.25 81.33 170.27 81.17 170.29 81.01 170.31 80.85 170.34 80.69 170.36 80.53 170.38 80.37 170.41 80.21 170.43 80.05 170.46 79.89 170.48 79.74 170.51 79.58 170.53 79.42 170.56 79.26 170.59 79.04 170.62 78.82 170.66 78.6 170.7 78.38 170.74 78.16 170.78 77.94 170.82 77.72 170.86 77.5 170.9 77.28 170.94 77.06 170.99 76.93 171.01 76.84 171.03 76.62 171.07 76.4 171.11 76.18 171.16 75.96 171.2 75.74 171.25 75.52 171.29 75.3 171.34 75.08 171.39 74.86 171.43 74.64 171.48 74.42 171.53 74.2 171.58 73.99 171.63 73.77 171.68 73.55 171.73 73.33 171.78 73.11 171.83 72.89 171.89 72.67 171.94 72.46 171.99 72.24 172.05 72.02 172.1 71.8 172.16 71.58 172.21 71.37 172.27 71.15 172.32 70.93 172.38 70.71 172.44 70.5 172.5 70.28 172.56 70.06 172.62 69.84 172.68 69.63 172.74 69.41 172.8 69.19 172.86 68.98 172.92 68.76 172.98 68.75 172.99 68.55 173.05 68.33 173.11 68.11 173.17 67.89 173.24 67.68 173.3 67.46 173.37 67.25 173.43 67.03 173.5 66.82 173.57 66.6 173.63 66.38 173.7 66.17 173.77 65.95 173.84 65.74 173.91 65.52 173.98 65.31 174.05 65.09 174.12 64.88 174.19 64.66 174.27 64.45 174.34 64.23 174.41 64.02 174.49 63.81 174.56 63.59 174.63 63.38 174.71 63.17 174.79 62.95 174.86 62.74 174.94 62.52 175.02 62.31 175.09 62.1 175.17 61.89 175.25 61.67 175.33 61.46 175.41 61.25 175.49 61.05 175.57 61.04 175.57 60.82 175.65 60.61 175.74 60.4 175.82 60.19 175.9 59.98 175.98 59.76 176.07 59.55 176.15 59.34 176.24 59.13 176.32 58.92 176.41 58.71 176.49 58.5 176.58 58.29 176.67 58.08 176.75 57.87 176.84 57.66 176.93 57.45 177.02 57.23 177.11 57.02 177.2 56.82 177.29 56.61 177.38 56.4 177.47 56.19 177.56 55.98 177.66 55.77 177.75 55.56 177.84 55.35 177.94 55.15 178.03 54.94 178.13 54.73 178.22 54.52 178.32 54.31 178.41 54.11 178.51 53.9 178.61 53.69 178.71 53.48 178.81 53.28 178.9 53.07 179 52.86 179.1 52.66 179.2 52.45 179.31 52.24 179.41 52.04 179.51 51.83 179.61 51.71 179.67 51.58 179.74 51.45 179.8 51.33 179.86 51.2 179.93 51.08 179.99 50.95 180.06 50.82 180.12 50.7 180.19 50.57 180.25 50.44 180.32 50.32 180.38 50.19 180.45 50.06 180.51 49.94 180.58 49.81 180.64 49.69 180.71 49.56 180.78 49.44 180.84 49.31 180.91 49.19 180.98 49.06 181.05 48.94 181.11 48.81 181.18 48.68 181.25 48.56 181.32 48.44 181.39 48.31 181.46 48.19 181.52 48.08 181.58 48.06 181.59 47.94 181.66 47.81 181.73 47.69 181.8 47.56 181.87 47.44 181.94 47.31 182.01 47.19 182.08 47.06 182.15 46.94 182.22 46.82 182.3 46.69 182.37 46.57 182.44 46.45 182.51 46.32 182.59 46.2 182.66 46.08 182.73 45.95 182.8 45.83 182.88 45.71 182.95 45.59 183.02 45.47 183.1 45.34 183.17 45.22 183.25 45.1 183.32 44.98 183.4 44.86 183.47 44.73 183.55 44.61 183.63 44.49 183.7 44.37 183.78 44.25 183.85 44.13 183.93 44.01 184.01 43.89 184.09 43.88 184.09 43.87 184.1 43.86 184.11 43.84 184.12 43.83 184.12 43.82 184.13 43.81 184.14 43.8 184.15 43.77 184.17 43.75 184.19 43.73 184.21 43.7 184.23 43.68 184.25 43.65 184.28 43.63 184.3 43.6 184.32 43.58 184.35 43.55 184.38 43.52 184.41 43.5 184.43 43.47 184.46 43.45 184.49 43.42 184.52 43.39 184.55 43.37 184.59 43.34 184.62 43.31 184.65 43.28 184.69 43.26 184.72 43.23 184.76 43.2 184.79 43.17 184.83 43.15 184.86 43.12 184.9 43.09 184.94 43.06 184.98 43.04 185.01 43.01 185.05 42.95 185.13 42.9 185.21 42.84 185.29 42.79 185.37 42.73 185.46 42.68 185.54 42.62 185.62 42.51 185.79 42.45 185.87 42.4 185.96 42.34 186.04 42.28 186.12 42.23 186.2 42.17 186.28 42.14 186.32 42.12 186.36 42.09 186.4 42.06 186.44 42.03 186.48 42 186.52 41.97 186.55 41.94 186.59 41.92 186.63 41.89 186.66 41.86 186.7 41.83 186.74 41.8 186.77 41.77 186.81 41.74 186.84 41.71 186.88 41.68 186.91 41.65 186.94 41.62 186.97 41.59 187.01 41.56 187.04 41.53 187.07 41.5 187.1 41.46 187.13 41.43 187.16 41.4 187.18 41.37 187.21 41.33 187.24 41.31 187.25 41.3 187.26 41.28 187.28 41.26 187.29 41.25 187.3 41.23 187.31 41.21 187.32 41.19 187.34 41.17 187.35 41.16 187.36 41.14 187.37 41.12 187.38 41.1 187.39 41.08 187.4 41.06 187.41 41.04 187.42 41.02 187.43 41 187.44 40.98 187.44 40.96 187.45 40.94 187.46 40.92 187.47 40.9 187.47 40.88 187.48 40.86 187.49 40.84 187.49 40.82 187.5 40.8 187.5 40.77 187.51 40.75 187.51 40.73 187.51 40.7 187.52 40.68 187.52 40.66 187.52 40.63 187.52 40.61 187.52 40.59 187.52 40.56 187.52 40.54 187.52 40.52 187.52 40.49 187.52 40.47 187.51 40.46 187.51 40.45 187.51 40.42 187.51 40.4 187.5 40.38 187.5 40.35 187.49 40.33 187.49 40.31 187.48 40.29 187.47 40.27 187.46 40.24 187.45 40.22 187.44 40.2 187.44 40.18 187.42 40.16 187.41 40.13 187.4 40.11 187.39 40.09 187.38 40.07 187.37 40.05 187.35 40.03 187.34 40.01 187.32 39.99 187.31 39.98 187.3 39.95 187.28 39.94 187.26 39.92 187.25 39.9 187.23 39.88 187.22 39.86 187.2 39.85 187.18 39.85 187.18 39.73 186.9 39.84 186.62 39.84 186.61 40.12 186.5 40.41 186.61 40.41 186.61 40.41 186.61"/><path class="cls-6" d="M27,200.51c7.33.27,13,11.74,12.59,25.6s-6.66,24.9-14,24.64S12.6,239,13,225.16s6.65-24.91,14-24.65Z"/></g></g></g></svg>