<svg xmlns="http://www.w3.org/2000/svg" viewBox="0 0 94.19 115.91"><defs><style>.cls-1{fill:#7c5640;}</style></defs><g id="Warstwa_2" data-name="Warstwa 2"><g id="Ńëîé_1" data-name="Ńëîé 1"><path d="M51.41,86.49c1.33,0,2.66,0,4,0,.15,0,.29.17.44.26-.17.07-.34.21-.51.21l-6.4.21a1.17,1.17,0,0,0-.35.14c.17.11.33.29.5.31,1,.1,2.08.15,3.11.24a2.27,2.27,0,0,1,.54.22c-.19.09-.38.26-.56.26-1.44,0-2.87-.08-4.31-.09-.93,0-1.85,0-2.78.07a1.4,1.4,0,0,0-.56.17c-.11,0-.18.19-.27.29a1.26,1.26,0,0,0,.34.15c.5,0,1,.07,1.5.1,1,0,2,.1,3,.13.25,0,.51,0,.76-.06a2.46,2.46,0,0,1,.46.08c-.13.12-.25.31-.4.33-.44.08-.89.08-1.34.14a2.56,2.56,0,0,0-.48.22,2.66,2.66,0,0,0,.47.11c.28,0,.56,0,.84,0,.11,0,.21.12.32.18-.09.08-.19.22-.29.23-.78.06-1.57.1-2.35.13a42.13,42.13,0,0,0-5,.22,8.93,8.93,0,0,1-2.45-.2c-.47,0-.93-.14-1.39-.16-1.12-.05-2.24-.07-3.36-.11-.36,0-.72-.14-.86.39,0,.11-.37.19-.58.2-1.54.06-3.07.1-4.61.14a1.94,1.94,0,0,1-.34,0c-.38-.07-.89-.06-.81-.63s.56-.23.87-.23c1.13,0,2.26,0,3.38.09.36,0,.71.08,1.06.1a1.28,1.28,0,0,0,.33-.06c-.07-.08-.14-.24-.21-.24-1,0-1.64-1-2.75-.75a20.59,20.59,0,0,1-3.85.1c-.22,0-.61-.2-.62-.33,0-.45.33-.39.65-.4,1,0,2-.08,3-.14a1.23,1.23,0,0,0,.32-.07c-.06-.09-.1-.23-.18-.27a1.91,1.91,0,0,0-.8-.36c-.81,0-1.63,0-2.44,0-.3,0-.55,0-.53-.44s.22-.47.55-.45a12.16,12.16,0,0,0,1.35,0,2.16,2.16,0,0,0,.57-.2,2,2,0,0,0-.61-.16c-.9,0-1.8.12-2.7.17a5.78,5.78,0,0,1-1.1,0,.68.68,0,0,1-.47-.38c-.07-.29.08-.39.44-.38,1.12.06,2.24,0,3.36,0,.4,0,.57-.15.45-.58-.19-.71-.4-.83-1.18-.79a12.4,12.4,0,0,1-2,0c-.23,0-.61-.26-.61-.41,0-.41.33-.41.67-.39.64,0,1.29.06,1.93,0,.17,0,.34-.2.51-.31a1.55,1.55,0,0,0-.51-.2c-.87,0-1.74.07-2.6,0-.24,0-.65-.22-.67-.39-.08-.49.33-.48.69-.47.73,0,1.46.06,2.19,0,.17,0,.33-.19.5-.3-.14-.14-.27-.4-.42-.4-.82,0-1.65,0-2.47,0a6.93,6.93,0,0,1-1,.06c-.15,0-.27-.24-.41-.38.14-.13.26-.37.42-.39a14,14,0,0,1,1.59-.05c.53,0,1.06.05,1.58.05a2.33,2.33,0,0,0,.56-.15c-.1-.19-.17-.49-.31-.54a20.18,20.18,0,0,0-2-.47,4.5,4.5,0,0,1-.83-.07c-.22-.09-.37-.35-.55-.53.23-.11.46-.31.69-.3a8.6,8.6,0,0,1,1.32.2,2.63,2.63,0,0,0,.67.07c.2,0,.54-.16.56-.27,0-.36-.11-.65-.57-.63s-1.19,0-1.78,0a2.73,2.73,0,0,1-.75,0c-.2,0-.36-.23-.53-.36.17-.18.33-.5.52-.52.66-.06,1.34,0,2,0a3.93,3.93,0,0,0,.81-.18c-.24-.08-.47-.18-.72-.24-.41-.1-.83-.13-1.23-.26a1,1,0,0,1-.54-.43.56.56,0,0,1,.16-.5c.17,0,.39.07.59.1l1.72.29c.05-.54.12-1.09.14-1.63.08-1.8.06-3.61.22-5.4a29.65,29.65,0,0,1,.77-5.33c.58-2.1,1.49-4.11,2.26-6.16a.86.86,0,0,1,.22-.25c1.28-1.35,2.57-2.67,3.82-4a13.54,13.54,0,0,1,3.67-3,.41.41,0,0,0,.16-.24s-.12-.1-.2-.13-.17,0-.24,0-.32-.2-.48-.29c.17-.11.35-.3.53-.3.9,0,1.8,0,2.7.07.08,0,.16.07.25.06.3,0,.75.24.79-.31s-.43-.3-.71-.33-.47-.08-.5-.19c-.21-.65-.58-.33-.93-.19s-.56.24-.86.33a1.28,1.28,0,0,1-.44,0c0-.18,0-.46,0-.54a3.24,3.24,0,0,1,.87-.44c.55-.19,1.25,0,1.58-.71.06-.12.41-.1.63-.14a57,57,0,0,1,7.38-.52,1.74,1.74,0,0,0,.53-.23c-.19-.09-.38-.25-.56-.25-1.84,0-3.69.1-5.52.21-.75,0-1.49.23-2.23.32a2.14,2.14,0,0,1-.58-.12c.1-.21.15-.55.31-.61a4,4,0,0,1,1.32-.26q3.36-.12,6.72-.15c.54,0,.88,0,.7-.7,0-.15,0-.43.05-.47.76-.43.21-.82,0-1.23-.7-1.27-1.49-2.51-2.06-3.84a15.87,15.87,0,0,1-.82-3.08,28.1,28.1,0,0,1-.62-3.65A27.42,27.42,0,0,1,44.73,29c.09-1.37.25-2.74.37-4.12a1.76,1.76,0,0,0-.06-.38,1.9,1.9,0,0,0-.33.22c-.56.54-1.11,1.07-1.65,1.62-.24.24-.65.47-.07.84a.69.69,0,0,1,.11.69c-.53.59-1.14,1.11-1.71,1.67-.3.29-.56.62-.88.89-1.18,1-2.37,2-3.56,2.95-1.41,1.14-2.85,2.25-4.22,3.42-.43.37-.61,1.15-1.06,1.31a4.6,4.6,0,0,0-1.49.77c-1.69,1.35-3.43,2.62-5.2,3.87s-3.33,2.37-5.09,3.39C16.75,48,13.64,49.87,10,50.57a6.5,6.5,0,0,1-3.45-.4c-1.08-.4-2.2-.66-3.3-1-.53-.16-1-.36-1.57-.56-.15-.06-.36-.17-.39-.3a1.22,1.22,0,0,0-1-1c-.36-.1-.36-.6-.07-.93a29.9,29.9,0,0,1,4.64-4.7c1.88-1.37,3.74-2.77,5.67-4.08a61,61,0,0,1,5.21-3.24,47.3,47.3,0,0,1,4.61-2c.85-.36,1.72-.65,2.59-1,.58-.21,1.2,0,1.8-.46a14.17,14.17,0,0,1,2.62-1.29c.74-.32,1.5-.62,2.27-.87,1.93-.6,3.86-1.2,5.81-1.74a23,23,0,0,1,2.63-.47c.5-.08,1-.14,1.51-.19s.47-.34.17-.58a17.55,17.55,0,0,0-2.16-1.61c-2.78-1.57-5.62-3-8.37-4.65-1.66-1-3.21-2.15-4.81-3.23-1-.7-2.11-1.37-3.14-2.09-.62-.43-1.18-.95-1.8-1.37-.33-.22-.75-.3-1.1-.49a1,1,0,0,1-.47-.5c-.21-.88-1-1.12-1.61-1.63-.15-.13-.34-.24-.49-.38s-.33-.38-.52-.54c-2-1.73-4.06-3.43-6-5.19A28.42,28.42,0,0,1,7.28,1.93a8.22,8.22,0,0,1-.66-.66c-.3-.39-.42-.89,0-1.2a1,1,0,0,1,1,.13c1.06,1,2.44,1.08,3.69,1.5,2.63.88,5.32,1.61,7.9,2.61a62.44,62.44,0,0,1,9.34,4.81,38.3,38.3,0,0,1,5.65,4.17,38.24,38.24,0,0,1,4.08,3.49,19.11,19.11,0,0,1,3.51,5.3,7.68,7.68,0,0,1,.68,3.11,1.44,1.44,0,0,0,.14.43c.15-.06.35-.08.45-.19a4.58,4.58,0,0,0,.86-1.13c.42-1,1.25-1.9,1.2-3.11a.25.25,0,0,1,0-.16c1.2-1.12,1-2.7,1.29-4.08.37-1.53.66-3.08,1-4.61.16-.74.32-1.48.5-2.21a.73.73,0,0,1,.17-.26,1.13,1.13,0,0,1,.06.31c-.19,1.5-.4,3-.6,4.5-.11.86-.21,1.72-.35,2.58-.21,1.33-.45,2.66-.66,4-.07.46-.06.93-.11,1.4-.14,1.36-.3,2.72-.43,4.09a1.73,1.73,0,0,0,.11.52,2.13,2.13,0,0,0,.29-.47,2.28,2.28,0,0,0,.17-1,3.36,3.36,0,0,1,.58-2.39,1.8,1.8,0,0,0,.3-.77A23.33,23.33,0,0,1,48.64,17c.36-1.21.58-2.47,1-3.65.69-2,1.5-3.93,2.24-5.89a10.57,10.57,0,0,0,.31-1.1l-1,0c-.81,0-1.21.53-1.57,1.09A16.69,16.69,0,0,0,48.77,9c-.05.1-.18.17-.28.26-.06-.13-.21-.28-.18-.38.32-1,.65-2,1-3,.05-.16.28-.29.46-.35a6.68,6.68,0,0,1,3.54-.38c.51.11.66.63.39,1.14C53,7.65,52.16,9,51.53,10.43A25.9,25.9,0,0,0,50,15.17c-.22,1-.64,1.92-.88,2.89a13.38,13.38,0,0,0-.54,3.05c0,1.58-.86,2.88-1.21,4.34a4.8,4.8,0,0,0-.22,1.39c.1,1.46.27,2.91.4,4.37a3.86,3.86,0,0,1,0,.76,14.1,14.1,0,0,0,.81,6c.22.64.52.7.93.17a6,6,0,0,0,.82-1.46,12.92,12.92,0,0,1,3.2-4.14,12.16,12.16,0,0,1,3.31-1.88,6.44,6.44,0,0,1,2.26-.43,28.45,28.45,0,0,1,4-.36,21.64,21.64,0,0,1,6.35,1.6c2.17.74,3.31,2.46,4.53,4.19a16.66,16.66,0,0,1,2.43,5.15,11.08,11.08,0,0,1,0,5.66c-.18.81-.14,1,.71,1,2,0,4-.13,6.07-.21.14,0,.28,0,.42,0a2.3,2.3,0,0,1,.42.14c-.12.08-.23.22-.36.24-1.5.18-3,.32-4.51.53-.83.12-1.64.34-2.46.53-.09,0-.15.13-.23.19a1.14,1.14,0,0,0,.3.09c.87,0,1.74,0,2.61.06,1.36.05,2.73.12,4.09.19a.84.84,0,0,1,.31.16c-.09.05-.18.14-.27.14-1.09.06-2.19.11-3.28.15l-1.59,0a.88.88,0,0,0-.22.1c.07.05.14.15.22.16l5,.44a1.38,1.38,0,0,1,.45.2c-.14.09-.28.27-.42.26-1.29,0-2.58-.13-3.86-.13-1.5,0-3,.06-4.5.11-.12,0-.23.12-.34.19.13,0,.26.17.38.16a56.67,56.67,0,0,1,8.74.12c.52,0,1,0,1.57,0a1.42,1.42,0,0,1,.29.1c-.09.08-.19.23-.29.23-.73,0-1.46,0-2.19,0-1.69,0-3.38.05-5.07.05a22.94,22.94,0,0,0-4.44.48,1.54,1.54,0,0,0-.42.22,2.87,2.87,0,0,0,.41.05l2.53,0,4.84.19c.7,0,1.4.06,2.1.11a.42.42,0,0,1,.26.13c-.08.73.53.54.86.61.66.16,1.34.19,2,.33.18,0,.31.28.46.43a2.55,2.55,0,0,1-.54.06,60,60,0,0,0-7.81-.42,3,3,0,0,0-.58.11l-.62.17c.2.18.38.47.61.5a17.71,17.71,0,0,0,2.3.21c2.06.08,4.11.12,6.17.19.1,0,.21.17.31.26-.12.13-.22.35-.36.38a11.76,11.76,0,0,1-1.18.11,1.29,1.29,0,0,0-.26.08L85,56l2.51.3a2.74,2.74,0,0,1,.57.11c.09,0,.14.15.21.22s-.15.19-.24.21a2.89,2.89,0,0,1-.66,0L83,56.76a4.68,4.68,0,0,0-.84.05,2.53,2.53,0,0,0-.51.22,1.56,1.56,0,0,0,.49.16c1.4,0,2.8,0,4.2.05.61,0,1.22,0,1.82.12a2.17,2.17,0,0,1,.62.29,2.49,2.49,0,0,1-.62.2c-1.87.09-3.75.15-5.62.22a1.18,1.18,0,0,0-.42,0c-.09,0-.16.12-.24.19.07.07.14.21.22.21a4.81,4.81,0,0,0,.85,0c1.76,0,3.52,0,5.29-.08.25,0,.5-.12.74-.11a1.67,1.67,0,0,1,.48.21c-.13.11-.25.31-.39.32-.67.09-1.34.12-2,.17-1.22.11-2.44.21-3.66.34-.18,0-.34.19-.52.3a2,2,0,0,0,.57.16,35.81,35.81,0,0,1,7.32.18,4.3,4.3,0,0,1,.69.23,2.51,2.51,0,0,1-.72.23c-1.32,0-2.64-.11-4-.08a18.8,18.8,0,0,0-2.67.36c-.12,0-.22.24-.32.37.21.18.43.51.64.51,1,0,2-.09,3-.14s2.07-.07,3.11-.07c.21,0,.41.19.61.29a1.79,1.79,0,0,1-.58.3c-1.79.19-3.58.35-5.37.53a1.31,1.31,0,0,0-.38.18,1.07,1.07,0,0,0,.38.1l4.7-.18c.08,0,.18,0,.25,0l.87.36a5.85,5.85,0,0,1-.8.2c-1.45.16-2.9.3-4.35.48-.19,0-.35.24-.53.36a1.67,1.67,0,0,0,.58.2c1.26-.07,2.52-.2,3.78-.24a14.43,14.43,0,0,1,2.18.14c.15,0,.28.22.43.34a2.22,2.22,0,0,1-.47.17L86.63,65c-.35,0-.72,0-.64.54s.45.4.77.39c1.44-.05,2.87-.13,4.3-.16a7.09,7.09,0,0,1,1.51.19c.14,0,.25.23.37.36a1.84,1.84,0,0,1-.43.15l-3.94.1a9.61,9.61,0,0,0-1.51.12c-.18,0-.32.26-.49.4.17.1.35.28.52.28,1.15,0,2.31-.08,3.46-.1.65,0,1.3,0,1.94.07.14,0,.26.18.39.29-.15.07-.29.21-.45.22-1.48.08-3,.1-4.44.22-.33,0-.64.37-1,.57a4.18,4.18,0,0,0,1,.16c1.54-.09,3.08-.2,4.62-.36.35,0,.61,0,.6.34,0,.15-.3.31-.49.43a.52.52,0,0,1-.33,0c-1.56-.29-3.07.27-4.61.34-.15,0-.29.24-.44.37a3.15,3.15,0,0,0,.52.09l4.3-.11a1,1,0,0,1,.5,0c.22.11.62.32.6.41-.09.43-.43.3-.79.3-1.43,0-2.86.08-4.29.14-.06,0-.13.1-.19.15s.11.15.18.16a3.66,3.66,0,0,0,.66,0l3.3-.13a1.1,1.1,0,0,1,.41,0,7.86,7.86,0,0,1,.71.36,3.8,3.8,0,0,1-.8.28c-1.42.15-2.85.25-4.27.4-.18,0-.34.22-.5.33a1.69,1.69,0,0,0,.51.2q1.72.07,3.45.12c.71,0,1.41,0,2.12,0,.14,0,.28.2.42.31-.15.08-.3.22-.45.23-1.79.07-3.58.13-5.38.15-.49,0-.69.12-.51.64a1.64,1.64,0,0,1,0,.5c.05,1.32.05,1.3,1.33,1.18.87-.09,1.73-.15,2.6-.18.17,0,.35.16.52.25l-.46.17-.43.17c.1.1.21.19.3.3a2.74,2.74,0,0,1,.23.36,1.56,1.56,0,0,1-.46.24l-3.12.21a1.36,1.36,0,0,0-.39.18c.13.09.26.25.39.25.53,0,1.06-.07,1.6-.06.17,0,.35.16.52.25-.17.14-.32.35-.5.39-.5.09-1,.08-1.51.17-.14,0-.25.21-.38.32.15.12.31.34.45.34.54,0,1.07-.13,1.6-.15.18,0,.36.15.54.24-.14.14-.27.36-.43.4-.55.12-1.11.17-1.67.26a.71.71,0,0,0-.21.11c.08,0,.15.14.22.15.65,0,1.3,0,1.94.12.19,0,.36.25.55.39a2.12,2.12,0,0,1-.61.29c-.69.06-1.39,0-2.09.08a1.37,1.37,0,0,0-.62.2c-.09,0-.08.24-.12.37a1.11,1.11,0,0,0,.3.08c1,0,2-.08,2.93-.09a1.18,1.18,0,0,1,.46.21,1.85,1.85,0,0,1-.42.33,5.41,5.41,0,0,1-.58.07,1.74,1.74,0,0,0-.39.23c.14.09.26.23.41.25s.5,0,.75,0,.21.14.31.22c-.1.07-.2.2-.3.21-.89.09-1.78.15-2.67.23a1.84,1.84,0,0,0-.44.13,1.3,1.3,0,0,0,.4.18c.56,0,1.12,0,1.67.09a1.56,1.56,0,0,1,.46.24c-.17.1-.33.27-.5.29-1.21.09-2.42.12-3.62.22a3.61,3.61,0,0,0-.89.34,8.66,8.66,0,0,0,.87.12c1.1,0,2.2,0,3.3.08.19,0,.37.29.56.44a2.51,2.51,0,0,1-.57.18l-4.29.23c-.09,0-.18.08-.27.12a.68.68,0,0,0,.28.12c.93,0,1.86,0,2.79,0,.19,0,.38.16.58.24-.19.12-.37.33-.57.35-1.32.11-2.64.18-4,.27a4.07,4.07,0,0,0-.5,0c-.09,0-.17.11-.25.16a1,1,0,0,0,.24,0c1.38,0,2.75,0,4.12.09a1.72,1.72,0,0,1,.54.24c-.17.11-.33.3-.51.31-1,0-1.9,0-2.86.09a8.43,8.43,0,0,0-1.22.22c.41.06.83.14,1.25.18s.62,0,.92,0c.11,0,.21.14.32.21-.09.13-.16.32-.28.37a1.83,1.83,0,0,1-.58,0c-1.42,0-2.83,0-4.25,0-.14,0-.28.13-.41.2a1.2,1.2,0,0,0,.38.18c1.12.11,2.24.18,3.35.29.5,0,1,.17,1.47.25a13.45,13.45,0,0,1-1.41.26c-.58,0-1.18,0-1.76,0-.13,0-.25.13-.37.2.51.76-.22.48-.45.49-1.37,0-2.75,0-4.12.06a8,8,0,0,0-1,.25c-.11,0-.24-.08-.36-.13.06-.1.11-.25.21-.3.38-.23.79-.43,1.18-.65.09,0,.14-.16.2-.24s-.19-.14-.29-.14c-.66,0-1.33,0-2,.06s-1.5.14-2.26.18c-1.29.07-2.58.13-3.88.14-.56,0-1.25.27-1.58-.55,0-.09-.42-.08-.64-.07-.53,0-1.07.08-1.6.13-.31,0-.64,0-.55-.39a.83.83,0,0,1,.59-.5,11.8,11.8,0,0,1,1.68.06,2.36,2.36,0,0,0,.59,0c.32-.05.62-.14.93-.21a3,3,0,0,0-1-.43c-1.43,0-2.87,0-4.31,0-.17,0-.34-.17-.51-.27.12-.18.24-.49.38-.5.7,0,1.4,0,2.1,0,.49,0,1-.06,1.46-.1-.48-.1-1-.24-1.45-.3s-1.3,0-1.94-.11c-.16,0-.29-.28-.43-.43.17-.13.34-.38.51-.38.62,0,1.24.09,1.86.13a1.3,1.3,0,0,0,.37-.08,3.78,3.78,0,0,0-.22-.33,2,2,0,0,0-2.35-.44,1.24,1.24,0,0,1-.55.16c-1.4-.11-2.8-.24-4.2-.41a.5.5,0,0,1-.28-.43c.13-.37.09-.48-.35-.47-2.49.09-5,.14-7.48.23a13.67,13.67,0,0,0-1.67.23,1,1,0,0,0-.26.17c.1.07.19.2.29.2l3.63-.07c.92,0,1.84,0,2.75,0,.4,0,.78-.13,1.17-.15.14,0,.28.12.42.19-.12.09-.23.24-.35.25-1.77.13-3.54.23-5.31.38-1.21.11-2.43.27-3.64.42-.09,0-.16.11-.24.17a1.26,1.26,0,0,0,.28,0h3.66ZM73.67,37.93a7.16,7.16,0,0,0-.19-.8c0-.09-.2-.15-.3-.22,0,.12-.05.26,0,.35a7.51,7.51,0,0,0,.5.65c.23.65.46,1.3.7,1.94,0,.11.17.18.25.27,0-.13,0-.28,0-.38C74.33,39.13,74,38.53,73.67,37.93ZM37,52a2.2,2.2,0,0,0,.58-.09,9.39,9.39,0,0,1,4-.7c.67,0,1.33.09,2,.13a.82.82,0,0,0,.28-.11c0-.06-.08-.17-.13-.18a6.81,6.81,0,0,0-2-.39,34.67,34.67,0,0,0-4,.82c-.25.06-.45.36-.67.54A3.16,3.16,0,0,0,35,53a1.22,1.22,0,0,0-.18.34c.13,0,.28.08.38,0a1.87,1.87,0,0,0,.49-.34c.18-.16.31-.38.49-.53S36.72,52.16,37,52Zm1.06,27.83c.28.19.55.54.85.56,1.6.14,2.85,1.14,4.23,1.78a15,15,0,0,1,2.64,2,1.71,1.71,0,0,0,.27.14,1.27,1.27,0,0,0-.11-.36,13.49,13.49,0,0,0-4.23-3.15,12.44,12.44,0,0,0-2.5-.92,5,5,0,0,0-1.17,0c0-1.13-.12-1.27-1.35-1.41a12.16,12.16,0,0,0-4.65.54,5.1,5.1,0,0,0-3.7,3.21,1.84,1.84,0,0,0,0,.41,1.37,1.37,0,0,0,.51-.14A1.12,1.12,0,0,0,29,82a3.55,3.55,0,0,1,2-1.72,15.41,15.41,0,0,1,3.71-.82A17.71,17.71,0,0,1,38.05,79.79ZM79.78,84.1l-1,.39a9.26,9.26,0,0,1-1.34.47,1.38,1.38,0,0,1-1.58-.5,1.69,1.69,0,0,1,.1-1.69,5,5,0,0,1,3.52-2.65c.11,0,.19-.14.29-.2-.07,0-.15-.1-.22-.08a6.62,6.62,0,0,0-3.6,1.63c-.68.64-1.15,1.5-1.79,2.18a1.55,1.55,0,0,0-.14,1.8c.22.6.91.55,1.4.45a23.1,23.1,0,0,0,3.37-1c.35-.14,1-.17,1-.87a1.81,1.81,0,0,0,1.49-1.17,2.66,2.66,0,0,0,.18-1.44c-.06-.25-.56-.49-.9-.56a2.42,2.42,0,0,0-1,.2c.17.19.33.38.49.58s.05.16.1.23A1.64,1.64,0,0,1,79.78,84.1Zm-20.3-.32c-.27.66,0,.86.65.9s1.1.22,1.56-.3c.09-.1.36-.1.54-.07.5.06,1,.19,1.49.24a3.07,3.07,0,0,0,.73-.11,6.41,6.41,0,0,0-.69-.78c-.07-.08-.27,0-.41,0l-3.89.17c.11-.63.59-.74,1.12-.78s1.34-.1,2-.13c.45,0,.47-.2.26-.52-.72-1.1-1.47-2.19-2.13-3.32a2.07,2.07,0,0,0-2.47-1.27c-1.82.35-3.69.38-5.54.58-.21,0-.39.24-.58.37a4.88,4.88,0,0,0,.64.23c.1,0,.22,0,.33,0l6.65,0c.13,0,.25.14.38.21-.12.09-.24.25-.37.26-.47,0-.94,0-1.41,0l-4.61.09c-.13,0-.26.14-.39.22a2.68,2.68,0,0,0,.35.1c1.43,0,2.86.07,4.29.14a20.39,20.39,0,0,1,2.06.28,1.59,1.59,0,0,1,.43.22,1.92,1.92,0,0,1-.46.11c-1.1,0-2.19,0-3.28,0a1.68,1.68,0,0,0-.58.23c-.18-.06-.36-.2-.54-.19-1.25.08-2.5.19-3.75.29a.88.88,0,0,0-.22.1,1.41,1.41,0,0,0,.32.09c.89,0,1.79-.06,2.68-.12.51,0,1-.12,1.52-.18.15.09.29.26.45.28a9.79,9.79,0,0,0,2.55.29c.89-.12,1.44.72,2.27.57.13,0,.28.12.42.19-.12.09-.23.25-.35.26-1.58.19-3.17.39-4.76.53-1.14.1-2.3.11-3.44.18-.95,0-1.9.12-2.85.2a1.06,1.06,0,0,0-.35.18c.12.07.25.2.38.21.42,0,.84,0,1.26,0Zm-24-63.43c-.37.71.48,1.08.48,1.69,0,0,.13,0,.2.05s.06-.16,0-.22c-.24-.5-.49-1-.74-1.5s-.48-1.13-.66-1.72c-.06-.2.08-.46.12-.69.16.13.38.23.46.4.67,1.38,1.32,2.77,2,4.16a3.74,3.74,0,0,0,.27.42,2.07,2.07,0,0,0,0-.56c-.19-.56-.42-1.1-.59-1.66,0-.11.09-.28.14-.42.14.08.34.11.4.23a12,12,0,0,1,1.3,2.7c.16.72.63.91,1.05,1.26.09.07.27.05.4.07a1.58,1.58,0,0,0-.11-.37,4.07,4.07,0,0,1-.44-.7c-.22-.69-.38-1.4-.56-2.11-.08-.3-.14-.6-.21-.9l.64.64s0,.06,0,.08l.59.73a3,3,0,0,0-.23-.92,26.45,26.45,0,0,0-1.9-2.76,24.07,24.07,0,0,0-2.32-2.42c-.83-.77-1.74-1.47-2.63-2.19s-1.87-1.6-2.88-2.3S28,9.87,26.76,9.14a42.94,42.94,0,0,0-8.71-4.28c-1.79-.59-3.59-1.12-5.39-1.67-1-.31-2-.61-3-.89-.13,0-.3.09-.45.14.26.26.6.81.76.75.9-.28,1.29.3,1.77.82.3.33.55.86,1.14.4a.35.35,0,0,1,.31.08c.44.37.74,1,1.51.75,0,0,.11.11.15.18l2.27,3.4c.43.64.87,1.26,1.32,1.88,0,.07.19.07.29.1s0-.21,0-.29c-.52-.92-1.08-1.83-1.59-2.76a20.19,20.19,0,0,1-.91-1.87c-.05-.12.07-.32.11-.48a1.42,1.42,0,0,1,.4.24c.32.42.61.86.92,1.29.09.13.2.25.3.38,0-.16,0-.31,0-.47s.07-.31.1-.46a1.23,1.23,0,0,1,.36.26c1.42,2.42,2.83,4.85,4.26,7.27.09.14.29.21.44.31a1.13,1.13,0,0,0,0-.44,7.88,7.88,0,0,0-.51-1.15c-1-1.81-2.07-3.61-3.09-5.42a1.65,1.65,0,0,1-.07-.6c.22.07.53.07.65.22a8.75,8.75,0,0,1,.73,1.22c1,1.84,2.06,3.67,3.08,5.52a2.36,2.36,0,0,1,.42,1,.92.92,0,0,0,.65,1l.5.22a1.78,1.78,0,0,0-.1-.53C24.25,13,23,10.79,21.85,8.55a1.93,1.93,0,0,1-.27-.61c0-.13.11-.29.18-.44a1.19,1.19,0,0,1,.33.19,6,6,0,0,1,.81,1c.88,1.63,1.74,3.26,2.56,4.92.49,1,.9,2,1.35,3a.38.38,0,0,0,.15.2,4,4,0,0,0,.52.17,2.11,2.11,0,0,0-.08-.45c-.61-1.23-1.25-2.45-1.85-3.69-.48-1-.93-2-1.37-3-.06-.14,0-.34,0-.51a2,2,0,0,1,.41.36c.28.42.52.87.81,1.28a.46.46,0,0,0,.44.07,3.21,3.21,0,0,0,.48-.55,2.67,2.67,0,0,1,.56.61q1.5,3.08,2.95,6.17c.16.33.24.66-.23.82s-.42-.32-.55-.6c-.86-1.84-1.75-3.67-2.64-5.5-.08-.16-.3-.24-.45-.37a2.41,2.41,0,0,0,.11.72c.18.35.49.63.64,1,.59,1.32,1.15,2.66,1.68,4,.23.58.58.88,1.21.76.08.21.1.49.24.61a5.46,5.46,0,0,0,1,.58,2.85,2.85,0,0,0,.52.15,3.3,3.3,0,0,0-.09-.63c-.2-.57-.44-1.13-.67-1.7-.06-.15-.11-.4-.22-.44-.51-.17-.48-.63-.62-1a3.14,3.14,0,0,0-.18-.46c-.56-1-1.14-2.08-1.68-3.14-.08-.15,0-.4.07-.6.17.11.42.17.51.33.31.5.51,1.08.85,1.55a21.3,21.3,0,0,1,2.3,5c.21.51.33,1.06.56,1.56.08.16.41.21.62.32,0-.19.13-.4.07-.55-.42-1-.86-2-1.32-2.92-.37-.78-.81-1.53-1.17-2.31-.09-.18,0-.46.06-.69.18.14.45.24.55.42.7,1.37,1.37,2.75,2,4.14.41.86.77,1.74,1.18,2.59.06.13.3.18.45.27a1.37,1.37,0,0,0,0-.46c-.27-.62-.57-1.22-.86-1.83s-.75-1.44-1-2.19a3.36,3.36,0,0,1,0-1.18,5.92,5.92,0,0,1,.61.81C34,17.6,34.56,18.8,35.12,20,35.19,20.14,35.38,20.23,35.51,20.35ZM29.69,61.1c.75-.29,1.5-.62,2.26-.88a12.92,12.92,0,0,1,4.84-.91,3.79,3.79,0,0,0,1,0,6.22,6.22,0,0,1,3.61.57,10.08,10.08,0,0,1,1.6.9c.07,0,.07.22.11.34a1.07,1.07,0,0,1-.31,0,15,15,0,0,0-2.6-.88,23.15,23.15,0,0,0-4.16-.19,11.84,11.84,0,0,0-3,.59,4.89,4.89,0,0,0-2.46,1.16,1.18,1.18,0,0,0-.12.28,1,1,0,0,0,.3,0,19.87,19.87,0,0,1,2.4-.45c1.78-.12,3.57-.13,5.36-.21a9.21,9.21,0,0,1,4.12,1c.2.08.31.35.47.54-.22,0-.44,0-.65-.08a18.27,18.27,0,0,0-3.56-.81,43.22,43.22,0,0,0-6.23.35,11.84,11.84,0,0,0-2.85,1,3.63,3.63,0,0,0-.86.67c-.07.06-.07.19-.1.29a1.48,1.48,0,0,0,.3,0c1.21-.34,2.4-.73,3.62-1A15.9,15.9,0,0,1,35,63.26a19.14,19.14,0,0,1,5,.29c.52.1,1.05.17,1.56.32s1.17.27,1.46.65c.55.7.88-.51,1.31,0,0,0,.1.05.15.08.94.49,1.91,1,2.82,1.48S49,67.16,49.84,67.7a1.31,1.31,0,0,0,.41.12c0-.15,0-.35-.12-.45a4.71,4.71,0,0,0-.82-.73c-.46-.3-1.17-.43-1.4-.84a3.6,3.6,0,0,0-1.7-1.4c-.85-.44-1.67-.94-2.49-1.44-.14-.08-.23-.26-.34-.39.16-.09.31-.24.47-.25a1,1,0,0,1,.54.18c1.8,1.12,3.58,2.27,5.38,3.39a1.92,1.92,0,0,0,.56.14c-.06-.2,0-.5-.18-.59a16.72,16.72,0,0,0-1.72-1c-.33-.18-.63-.29-.34-.75a.48.48,0,0,0-.07-.48c-.91-.64-1.84-1.26-2.79-1.84-.17-.1-.47,0-.71.05a1.51,1.51,0,0,1-.42,0,.9.9,0,0,1,0-.56c.2-.51.79-.6,1.46-.21s1.4.93,2.15,1.28a3,3,0,0,0,1.27,0s.06-.26,0-.32a2.1,2.1,0,0,0-.54-.4c-1.25-.62-2.51-1.22-3.75-1.87-.23-.11-.38-.38-.56-.59.26,0,.58-.15.79-.06,1,.42,1.87.89,2.79,1.37.4.2.74.44,1.09-.07,0-.07.33-.07.43,0a5.69,5.69,0,0,1,.91.86c1,1.32,2,2.67,3,4a1.39,1.39,0,0,0,.34.2,2.71,2.71,0,0,0,.13-.3c.28-1-.39-1.54-.91-2.11a20.65,20.65,0,0,0-2.65-2.56c-1.22-.93-2.56-1.69-3.86-2.51-.66-.42-1.35-.78-2-1.21-.14-.09-.18-.34-.27-.52.19,0,.43-.12.57-.05.81.43,1.61.89,2.39,1.37a4.9,4.9,0,0,0,2.46,1c.09,0,.19,0,.29,0a.73.73,0,0,0-.09-.22A9.78,9.78,0,0,0,47.82,56,26.84,26.84,0,0,0,43.88,54a8.6,8.6,0,0,0-4.24-.41,14.14,14.14,0,0,0-5,.92,7,7,0,0,0-1.3,1c-.05,0-.05.15-.07.23a.75.75,0,0,0,.29,0,1,1,0,0,0,.4-.14c1.14-.76,2.46-.43,3.69-.62.19,0,.41.15.61.24a2.69,2.69,0,0,1-.57.27c-.27.07-.57.05-.83.12-.79.22-1.57.44-2.34.71-.17.06-.28.29-.42.45.18,0,.37,0,.55-.06A6.4,6.4,0,0,1,36,56.56c.25,0,.46.4.69.62-.22.11-.45.31-.67.3a10.45,10.45,0,0,0-4.1.81,4.88,4.88,0,0,0-.87.58,8.52,8.52,0,0,1,1-.27c.88-.15,1.76-.3,2.64-.37.16,0,.36.35.53.54-.18.09-.37.28-.56.27a6.49,6.49,0,0,0-4,1.21,12,12,0,0,0-1,.87c-.9.1-1.1.77-1.24,1.49,0,.25-.12.49-.17.73a4.32,4.32,0,0,0,.69-.58,3,3,0,0,0,.24-.7C29.37,61.74,29.54,61.42,29.69,61.1ZM61,60c.46-.33.92-.67,1.39-1,.83-.57,1.65-1.16,2.5-1.69.16-.1.45,0,.68,0a1.91,1.91,0,0,1-.21.65,2.18,2.18,0,0,1-.77.65,7.6,7.6,0,0,0-3.26,2.94c-.58.91-1.13,1.85-1.69,2.79,0,.07,0,.19,0,.29.07-.07.16-.13.23-.21a30.39,30.39,0,0,1,2.45-3.17A6.63,6.63,0,0,1,65,59.22c.21-.06.47.07.71.11-.14.2-.23.48-.42.59a12,12,0,0,0-3.85,3.57c-.16.23-.25.5-.4.74a26.13,26.13,0,0,0-1.37,2.26A12.42,12.42,0,0,0,59,68.58c0,.11,0,.26.07.4a2,2,0,0,0,.27-.32,30.08,30.08,0,0,1,2-3.78,47.77,47.77,0,0,1,3.55-4.13,2.06,2.06,0,0,1,1-.38s.28.29.25.34a5.23,5.23,0,0,1-.66.83,10,10,0,0,0-.93.77,28,28,0,0,1-2,2.49,7.72,7.72,0,0,0-1.29,2.09c-.06.11,0,.29,0,.44.36-.15.93-.2,1-.46a20.46,20.46,0,0,1,3.54-4.68,1.1,1.1,0,0,1,.61-.23.39.39,0,0,1,.35.65c-.36.42-.76.81-1.14,1.22a27.34,27.34,0,0,0-1.82,2.06,10.65,10.65,0,0,0-1,1.89c-.24.53-.36,1.11-.59,1.64s-.59,1.15-.87,1.73a3.1,3.1,0,0,0-.13.62,4.94,4.94,0,0,0,.35-.45c1-1.61,1.94-3.27,3-4.83a27,27,0,0,1,2.6-3c.15-.16.54-.1.82-.14a2.36,2.36,0,0,1-.12.86,2.74,2.74,0,0,1-.83.83,7.73,7.73,0,0,0-2.34,2.77c-.15.23-.34.44-.5.66-.49.65-1.19,1.23-.73,2.21a.82.82,0,0,1,0,.41,2.7,2.7,0,0,1-.08.39,2.07,2.07,0,0,0,.32-.35,27.18,27.18,0,0,1,1.31-2.44,30.25,30.25,0,0,1,2.15-2.67,1.27,1.27,0,0,1,.72-.38c.19,0,.42.11.64.18-.11.2-.17.48-.33.6a8.15,8.15,0,0,0-2.48,2.71,33,33,0,0,0-2.26,4.38,3.45,3.45,0,0,0-.12.46l.35-.26c.24-.17.5-.32.74-.5s.56-.31.67-.55a20,20,0,0,1,3.33-5,2.57,2.57,0,0,1,.71-.4,2.6,2.6,0,0,1,0,.88,2,2,0,0,1-.55.61,5.7,5.7,0,0,0-.65.65c-1.19,1.72-2.38,3.44-3.53,5.2a3.17,3.17,0,0,0-.41,1.26,4.5,4.5,0,0,0,.09,1,3.36,3.36,0,0,0,.64-.83,9.61,9.61,0,0,1,3.89-4.19A24.33,24.33,0,0,1,72,70.07a14.59,14.59,0,0,1,2.46-.75,6.36,6.36,0,0,0,2.09-.55,2.58,2.58,0,0,1,1.7-.52,19.53,19.53,0,0,1,5.88.78c.21.07.5-.09.75-.15-.15-.18-.28-.46-.47-.53a14.55,14.55,0,0,0-3.38-1,35.85,35.85,0,0,0-4.61.27c-.27,0-.69.27-.72-.23,0-.17.34-.49.56-.52,2.19-.29,4.39-.65,6.57.07a2.74,2.74,0,0,0,.57.11s.11-.26.1-.27A8.22,8.22,0,0,0,81,65.53a18.31,18.31,0,0,0-3.69.13c-.43,0-.85.1-1.27.1-.13,0-.27-.21-.4-.32.12-.1.23-.29.36-.31,1.14-.14,2.28-.33,3.43-.37a5,5,0,0,1,3.45.83,4.19,4.19,0,0,0,1.23.62c.49.17.58.36.28.81a2.9,2.9,0,0,0-.19.29l1,.27a1.58,1.58,0,0,0,0-.64c-.29-.76-.6-1.51-1-2.25,0-.12-.32-.17-.49-.21a4.61,4.61,0,0,1-1.28-.27,5.76,5.76,0,0,0-3.23-.71c-1.23,0-2.46.22-3.69.3-.23,0-.47-.18-.7-.27.15-.21.27-.5.48-.61a1.72,1.72,0,0,1,.9-.16c2,.21,4-.3,6,.38.07,0,.19,0,.29-.08-.07-.07-.13-.2-.21-.22a18,18,0,0,0-1.88-.4,17.81,17.81,0,0,0-6.05-.14c-.22.05-.66,0-.69-.15-.13-.44.22-.59.58-.61a29.54,29.54,0,0,1,3.11-.14c1.37.07,2.74.27,4.11.38.07,0,.25-.24.22-.29s-.21-.39-.37-.43a14.92,14.92,0,0,0-3.55-1,49.65,49.65,0,0,0-6.33.2c-1.17.09-2.32.44-3.48.64a1.61,1.61,0,0,1-.56-.12,3.69,3.69,0,0,1,.33-.62c0-.07.21-.06.32-.07,2-.23,4.06-.47,6.09-.66,1.12-.1,2.24-.16,3.36-.16a9.19,9.19,0,0,1,1.53.3,1.78,1.78,0,0,0,.46,0c-.12-.13-.22-.31-.37-.36a10.74,10.74,0,0,0-3-.67,24.62,24.62,0,0,0-5.29,0,24.49,24.49,0,0,1-3.1.34c-.16,0-.35-.15-.52-.24.16-.16.29-.44.48-.48A19.34,19.34,0,0,1,70,57.89c1.31-.07,2.64,0,4-.1a19.63,19.63,0,0,1,5.56.69c.31.06.62.16.93.24-.22-.34-.43-.68-.66-1a.4.4,0,0,0-.22-.12,25.51,25.51,0,0,0-3.15-.89,28.86,28.86,0,0,0-3.36-.17,17.53,17.53,0,0,0-6,.87,1.92,1.92,0,0,1-.58,0c.08-.2.11-.45.25-.58a1.26,1.26,0,0,1,.61-.27,30.67,30.67,0,0,1,5.73-.73c.5,0,1-.06,1.5,0,.81.07,1.61.19,2.41.27a1.74,1.74,0,0,0,.45-.06c-.12-.1-.23-.25-.37-.29-.44-.13-.9-.22-1.35-.31a17.2,17.2,0,0,0-7.35-.28c-1.12.25-2.22.58-3.34.87a1.68,1.68,0,0,1-.39,0,1.24,1.24,0,0,1,.1-.45.85.85,0,0,1,.43-.25c1.17-.32,2.33-.66,3.51-.91.84-.17,1.72-.16,2.57-.3.26,0,.48-.32.71-.49-.2-.05-.41-.08-.61-.14a2.47,2.47,0,0,1-.36-.19,2.77,2.77,0,0,0-.72-.34,7,7,0,0,0-5.09,1.52,5,5,0,0,1-.68.45,13.87,13.87,0,0,0-3.61,3.26c-.06.06,0,.2,0,.3a.94.94,0,0,0,.28-.1c.64-.49,1.26-1,1.91-1.5a2.25,2.25,0,0,1,.61-.28c.08,0,.19,0,.29.07a.6.6,0,0,1-.1.23c-.11.12-.26.21-.38.32A8.29,8.29,0,0,0,61,60.05l-.17.28-.51.92s0,0,.09.08l.58-1A.54.54,0,0,0,61,60Zm1.44-29.11c-1.18.19-2.12.31-3,.5a15.32,15.32,0,0,0-3.83.92,6.86,6.86,0,0,0-3,2.31c-.4.65-.79,1.29-1.17,2a1.78,1.78,0,0,0-.09.48,1.83,1.83,0,0,0,.38-.23c.66-.51,1.3-1.07,2-1.55A5.4,5.4,0,0,1,55,34.66c.14,0,.37.14.55.22-.11.14-.2.34-.34.41a9.9,9.9,0,0,0-3.74,3.14,1.61,1.61,0,0,0-.15.36,1.11,1.11,0,0,0,.37,0c1-.48,2.06-1,3.11-1.45a2,2,0,0,1,.8,0,3.11,3.11,0,0,1-.56.48,13.11,13.11,0,0,0-3.88,2.61c-.17.16-.14.53-.2.81a2.85,2.85,0,0,0,.8-.21c.72-.43,1.4-.92,2.11-1.36.41-.25.84-.41.92-1,0-.21.41-.46.67-.52,1.47-.31,2.66.45,3.8,1.17s2,1.56,3,2.31a1.43,1.43,0,0,1,.69,1.56,1.17,1.17,0,0,0,.14.72c.38.75.23,1.74,1,2.32.12.08.06.43.08.65,0-.24.06-.48.07-.72a3.67,3.67,0,0,0,0-.74c-.15-1-.31-2-.47-3.07a.68.68,0,0,0-.15-.38c-.53-.51-1.08-1-1.64-1.5-.31-.28-.66-.52-.95-.83a1.86,1.86,0,0,1-.25-.61,1.88,1.88,0,0,1,.63,0c1.42.61,2.2,1.95,3.28,2.94.23.21,0,.88,0,1.33,0,.06,0,.11,0,.17.11.77.21,1.55.32,2.32,0,.19,0,.43.15.55a1.7,1.7,0,0,0,.58.25,2.36,2.36,0,0,0,0-.46c-.15-.79-.31-1.58-.45-2.38a3.62,3.62,0,0,1-.09-1.08c0-.15.3-.28.45-.41.1.14.25.26.29.41s.07.56.13.83c.18.93.38,1.86.58,2.79l.18.76a3.19,3.19,0,0,0,.6-.62,1,1,0,0,0,.1-.63c-.14-.83-.34-1.65-.47-2.48a2.2,2.2,0,0,1,.15-.68c.22.16.55.28.62.48a10.5,10.5,0,0,1,.49,2.12A13.12,13.12,0,0,1,68.27,47c0,.14.15.28.23.42.22-.25.63-.5.63-.75,0-.95-.13-1.9-.19-2.84a8.84,8.84,0,0,1,0-2.35,2.66,2.66,0,0,0-.55-2.5,16.38,16.38,0,0,0-5.1-4.23c-.6-.31-1.22-.58-1.8-.92-.15-.09-.18-.39-.27-.6.21,0,.44-.18.6-.12a8.6,8.6,0,0,1,1.17.6,32,32,0,0,1,3,1.67c.64.43,1.08,1.14,1.68,1.64A8.12,8.12,0,0,1,70,41.06a.62.62,0,0,1-.07.54c-.57.53-.37,1.19-.31,1.79s.31,1.2.4,1.81a3,3,0,0,1-.32,2.09,7.69,7.69,0,0,0-.56,1.2,10.18,10.18,0,0,0-.48,1.41,14.06,14.06,0,0,0-.26,1.58c0,.07.11.16.17.24a1.75,1.75,0,0,0,.3-.23c-.39-.76.27-1.27.45-1.89.27-1,.59-1.93.92-2.88.06-.15.25-.25.37-.38.07.19.21.39.19.57,0,.42-.2.82-.26,1.23a1.73,1.73,0,0,0,.08.54,2.48,2.48,0,0,0,.32-.5,5.73,5.73,0,0,1,.24-1,4,4,0,0,0,.3-2.54c-.19-1.46-1.26-2.73-.91-4.31A.58.58,0,0,0,70.5,40c-.26-.65-.55-1.29-.79-1.95a7.08,7.08,0,0,0-2.86-3.5,17.8,17.8,0,0,0-3.92-2.21c-.14-.05-.25-.23-.38-.35.18,0,.37-.13.53-.09a16.54,16.54,0,0,1,1.83.51,5.53,5.53,0,0,1,1.68.73c.94.76,1.78,1.66,2.66,2.49a2.32,2.32,0,0,0,.38.21,1.3,1.3,0,0,0-.09-.46c-.18-.28-.45-.5-.62-.78a3.78,3.78,0,0,1-.2-.77,6.91,6.91,0,0,1,.68.28,1,1,0,0,1,.37.35c.77,1.16,1.55,2.32,2.29,3.5s.8,2.67,1.45,3.94a6.48,6.48,0,0,1,.42,2.73,13.47,13.47,0,0,1-.28,2.68,1,1,0,0,1-.74.49c-.51,0-.21-.35-.18-.6.11-.72.24-1.44.3-2.16.23-2.51-.76-4.75-1.67-7a9.35,9.35,0,0,0-1.19-1.73,1.18,1.18,0,0,0-.25-.19,2.25,2.25,0,0,0,.06.36q.73,2.28,1.46,4.56c.23.74.4,1.51.66,2.24A6,6,0,0,1,72,47.87a16.09,16.09,0,0,0-.72,2.44c-.22.86-.22.94-1.2,1-.16,0-.31.17-.46.26a1.63,1.63,0,0,0,.38.22c.16.05.35,0,.5.06.69.24.92,0,1.1-.71a12.29,12.29,0,0,1,1-2.24c.08-.17.38-.23.58-.34a2.14,2.14,0,0,1,0,.62c-.3.86-.64,1.71-1,2.57a1.89,1.89,0,0,0,0,.58c.23-.11.54-.15.67-.33a8.83,8.83,0,0,0,.45-1,18.05,18.05,0,0,0,2-9.12,2.21,2.21,0,0,0-.16-.65,1.85,1.85,0,0,0-.22-.29c0,.11,0,.22,0,.33a13.84,13.84,0,0,1,0,1.58c0,.14-.29.25-.46.37a2,2,0,0,1-.23-.54A8.09,8.09,0,0,0,74,41.17c-.45-1.32-1-2.61-1.5-3.91-.21-.52-.22-.58.26-.72a.27.27,0,0,0,.07-.23,11,11,0,0,0-3.28-3.51A12.21,12.21,0,0,0,66,31.65C64.75,31.31,63.48,31.13,62.41,30.92ZM37.48,64.82a7.72,7.72,0,0,1,1.18,0,21.89,21.89,0,0,1,2.69.62c.23.07.34.51.5.79a4.91,4.91,0,0,1-.86-.07,11.57,11.57,0,0,0-1.49-.45,15.63,15.63,0,0,0-4.82.18,19.35,19.35,0,0,0-4.95,1.77c-.79.37-1.2,1.36-2.23,1.38-.12,0-.24.5-.33.78,0,.07.09.17.13.26.18-.14.36-.26.52-.41a8.28,8.28,0,0,1,4.58-2.27c.55-.09,1.1-.15,1.64-.19,1.26-.1,2.52-.16,3.78-.28a7.1,7.1,0,0,1,4.11.92c.13.07.21.27.31.41a2.43,2.43,0,0,1-.54,0,10.36,10.36,0,0,0-3.87-.65c-1.16.16-2.34.16-3.51.26a9.81,9.81,0,0,0-4.47,1.32A10.88,10.88,0,0,0,28,71,8.34,8.34,0,0,0,27.16,72a8.72,8.72,0,0,0,1.28-.42A22.39,22.39,0,0,1,31,70.2a24.92,24.92,0,0,1,7.92-1,3.49,3.49,0,0,1,2.54.91.36.36,0,0,0,.36,0c.6-.44,1.14-.11,1.66.14.69.33,1.33.75,2,1a15.3,15.3,0,0,1,4.51,2.53,1.92,1.92,0,0,0,.35.18,2.38,2.38,0,0,0-.2-.39,11,11,0,0,0-4-3.17,21.19,21.19,0,0,0-3.35-.94c-.35-.11-1-.41-.94-.49.14-.53.63-.34,1-.26,1.11.28,2.21.62,3.31.93.2,0,.54.17.6.09.47-.58.9-.22,1.33,0a9.12,9.12,0,0,0,.83.41.9.9,0,0,0,.39,0,1.25,1.25,0,0,0-.23-.23,10.13,10.13,0,0,0-1.9-1c-1.67-.47-3.11-1.59-4.9-1.68-.11,0-.31-.22-.29-.3a.57.57,0,0,1,.28-.42,1.2,1.2,0,0,1,.75,0c1.11.44,2.19.93,3.29,1.4l2.32.94a.58.58,0,0,0,.32,0s.06-.17,0-.19A5.19,5.19,0,0,1,47.55,67c0-.06-.14-.07-.22-.11-.29-.16-.58-.33-.88-.48-.65-.33-1.3-.92-1.94-.91a8.51,8.51,0,0,1-2.88-.75,17,17,0,0,0-3.49-.82,17.39,17.39,0,0,0-3.53.09,16.81,16.81,0,0,0-3.54.61A5,5,0,0,0,29,66c-.28.31-.46.69-.89.88a1.11,1.11,0,0,0-.39.33s.1.26.11.26a2.62,2.62,0,0,0,.53-.2,17,17,0,0,1,2.24-1.16A21.57,21.57,0,0,1,37.48,64.82Zm40.66,11V76c-.43,0-.85,0-1.27,0-.2,0-.52-.17-.54-.29,0-.33.13-.58.55-.57s.79,0,1.18,0a31.76,31.76,0,0,1,3.78.05,17.42,17.42,0,0,1,2.81.86A1.21,1.21,0,0,0,85,76a2.21,2.21,0,0,0-.18-.34,3.45,3.45,0,0,0-3-1c-2.15.07-4.31.25-6.46.37-.15,0-.42-.09-.44-.18a.57.57,0,0,1,.14-.51,1.3,1.3,0,0,1,.63-.19c1.73-.14,3.46-.3,5.2-.4a6,6,0,0,1,5.14,1.75c.07.09.16.22.24.22s.31-.09.33-.17a3.71,3.71,0,0,0-1.16-2.4,8.43,8.43,0,0,0-4.73-.94L77,72.82a10.93,10.93,0,0,1-2.37.38,1.75,1.75,0,0,0-1.32.35c-1.12.91-2.25,1.81-3.34,2.77-1.4,1.22-2,3-2.7,4.59a.67.67,0,0,0,0,.2,6.89,6.89,0,0,0,.92-.24c.13-.05.23-.22.31-.36.79-1.19,1.52-2.42,2.36-3.57a13.31,13.31,0,0,1,1.71-1.73,1,1,0,0,1,.61-.26,2.28,2.28,0,0,1,.68.23,3.47,3.47,0,0,1-.4.45,13.74,13.74,0,0,0-4.57,6.59,1.4,1.4,0,0,0,0,.41c.14-.08.33-.12.41-.23a19,19,0,0,0,1.17-1.79,9.53,9.53,0,0,1,4.73-4.45,2.19,2.19,0,0,1,1,0c.1,0,.2.17.29.27a1.73,1.73,0,0,1-.35.31,8.27,8.27,0,0,0-1.6.71c-.71.53-1.3,1.21-2,1.8-1.25,1.09-1.69,2.62-2.24,4.09a.85.85,0,0,0,0,.5,2,2,0,0,0,.29.45c.14-.11.35-.19.42-.33.2-.41.27-.88.5-1.25.82-1.3,1.68-2.57,2.55-3.83a2,2,0,0,1,.67-.63c1.74-.94,3.53-1.75,5.61-1.42a8.36,8.36,0,0,0,1.5.13,2.18,2.18,0,0,1,1.8.73c.25.29.45.71.94.26.06-.06.5.16.64.35a4.51,4.51,0,0,1,.41.92,3.7,3.7,0,0,0,.21.33,1.65,1.65,0,0,0,.31-.34,3.43,3.43,0,0,0,.21-.64c.19-.88.14-1-.72-1.28l-2.95-1a4.94,4.94,0,0,0-1.29-.35C80.36,75.83,79.25,75.86,78.14,75.86ZM38,70.7c.81.26,1.63.51,2.43.81.18.07.28.36.42.55a3.82,3.82,0,0,1-.68,0,12,12,0,0,0-2.44-.52,25.25,25.25,0,0,0-5.52.67A14.17,14.17,0,0,0,29,73.57a2.17,2.17,0,0,0-.5.54.74.74,0,0,0-.1.22,1.22,1.22,0,0,0,.27-.09,11.42,11.42,0,0,1,5.22-1.78c.87,0,1.74-.19,2.61-.15a28.16,28.16,0,0,1,3.43.41c.21,0,.35.44.52.68a2.26,2.26,0,0,1-.65.15c-.78-.08-1.56-.21-2.34-.32a10.85,10.85,0,0,0-9.1,2.54,3.54,3.54,0,0,0-.35.42,1.85,1.85,0,0,0,.54-.09,21.42,21.42,0,0,1,7.81-2,3.64,3.64,0,0,1,2.71.3c.53.42,1.5.36,1.57,1.33,0,0,.14.06.22.1.63.27,1.28.51,1.88.83a30.12,30.12,0,0,1,2.8,1.64c.85.59,1.6,1.32,2.41,2a2.25,2.25,0,0,0,.41.21c0-.15-.09-.3-.14-.44a3.68,3.68,0,0,0-2-2.14c-.12,0-.32-.19-.3-.25.2-.79-.53-.85-.92-1-1.23-.53-2.5-1-3.75-1.43-.18-.07-.31-.26-.46-.39a2.6,2.6,0,0,1,.58-.23.93.93,0,0,1,.48.1c1.55.65,3.13,1.23,4.63,2a7.75,7.75,0,0,1,3.15,2.7c.07.11.22.16.33.24.08-.14.25-.3.22-.41a1.19,1.19,0,0,0-.35-.63c-.84-.67-1.67-1.37-2.57-2-1.24-.81-2.53-1.55-3.83-2.27a5,5,0,0,0-1.3-.38,4.26,4.26,0,0,0-.5-.06,1.45,1.45,0,0,1,.24-.58c.53-.5,1-.18,1.52.11L49,76.89a4.71,4.71,0,0,0,.65.28c0-.27,0-.55-.1-.82a.37.37,0,0,0-.13-.2,12.37,12.37,0,0,0-2.59-2.1,38.62,38.62,0,0,0-4.67-1.38,3.67,3.67,0,0,1-.82-.45c.31-.1.62-.22.94-.3a.57.57,0,0,1,.33.06c1.3.42,2.61.82,3.88,1.31a18.43,18.43,0,0,1,1.92,1,1.41,1.41,0,0,0,.31.1c0-.13.08-.32,0-.38A5.42,5.42,0,0,0,47.59,73a17.8,17.8,0,0,0-2.41-1.16c-.94-.38-1.92-.68-2.89-1-.47-.15-1-.2-1.44-.33a7.76,7.76,0,0,0-2-.54c-1.36,0-2.73.21-4.09.34a10.66,10.66,0,0,0-4.91,1.52,1.34,1.34,0,0,0-.28.37,1.75,1.75,0,0,0,.4,0A37.44,37.44,0,0,1,38,70.7ZM66.38,76a3.06,3.06,0,0,0-.1.41s.14.09.16.07c.48-.45,1-.9,1.43-1.37a15.51,15.51,0,0,1,1.66-1.68,31.33,31.33,0,0,1,3.12-2c.2-.11.54,0,.82,0-.17.24-.3.64-.52.7a9.79,9.79,0,0,0-3.53,2.2c-.84.68-1.39,1.72-2.19,2.49a2.09,2.09,0,0,0-.78,2c0,.16-.13.36-.19.53-.16-.11-.31-.24-.48-.34a.43.43,0,0,0-.24,0c-.15.91-.3,1.81-.42,2.72,0,.11.14.26.22.39a2.11,2.11,0,0,0,.3-.37c.35-.73.68-1.48,1-2.21a9.13,9.13,0,0,1,.53-.84A27.76,27.76,0,0,1,69,76.16,12.11,12.11,0,0,1,71,74.32a9.12,9.12,0,0,1,2.41-1.47,27.68,27.68,0,0,1,4.26-1,20.92,20.92,0,0,1,4.09-.4,8.65,8.65,0,0,1,4.28,1.28c.08,0,.24,0,.36-.07-.12-.33-.13-.8-.36-1a6.59,6.59,0,0,0-4-1.14c-.94.07-1.88.24-2.83.28a16.6,16.6,0,0,0-4.74.71,1.88,1.88,0,0,1-.58,0,2.61,2.61,0,0,1,.46-.42,10.33,10.33,0,0,1,4.7-1,31.61,31.61,0,0,1,3.77,0,11.18,11.18,0,0,1,2,.4c.14,0,.26.14.39.14a2.29,2.29,0,0,0,.52-.11c-.07-.15-.11-.35-.23-.42a4,4,0,0,0-.85-.33,7.08,7.08,0,0,0-.8-.16l-3-.47a12,12,0,0,0-5.88.64,15.71,15.71,0,0,0-4.56,2c-.65.49-1.4.85-2,1.38C67.57,74,66.51,74.65,66.38,76ZM45.75,33.59l-.15,0c.23,1.18.44,2.37.7,3.55a12.4,12.4,0,0,0,.9,3.37c.47.86.67,2.06,1.85,2.43a.34.34,0,0,1,.15.18,11.22,11.22,0,0,0,1.93,2.92c.8.91,1.63,1.78,2.43,2.69.2.23.29.58.51.8.77.79,1.58,1.53,2.35,2.32,1.23,1.23,2.45,2.47,3.64,3.73.8.85,1,.5,1.73-.09a.65.65,0,0,0,0-.62,10.84,10.84,0,0,0-1.36-1.35,1,1,0,0,0-.79-.09c-.61.22-.75.19-.61-.45s-.29-1-.73-1.33c-.12-.1-.34-.1-.44-.21-1.47-1.63-3.17-3.05-4.15-5.09-.2-.39-.51-1.14-1.33-.88-.07,0-.32-.18-.32-.28C52,44,50.93,43.44,50.48,42.48a7.76,7.76,0,0,0-1.69-2,5.4,5.4,0,0,1-1.61-2.59,43.87,43.87,0,0,1-.71-5.25,1.41,1.41,0,0,0-.49-1,1,1,0,0,0-.25-.13c0,.09-.13.19-.12.28C45.65,32.38,45.7,33,45.75,33.59ZM36.48,76.31c-1,.15-2.16.3-3.34.53A3.87,3.87,0,0,0,30.47,78a.53.53,0,0,1-.23.09,3,3,0,0,0-2.44,2.31,1.38,1.38,0,0,0,0,.35,2.15,2.15,0,0,0,.24-.18,15.9,15.9,0,0,1,2.06-1.81c1.83-1.12,3.94-1.19,6-1.28a4.5,4.5,0,0,1,1.2.2c.46.12.91.53,1.34-.08,0-.07.35,0,.53.06a21.21,21.21,0,0,0,3,1,7.8,7.8,0,0,1,4.42,2.22c.51.51,1,1,1.57,1.49.11.09.31.08.47.12,0-.25,0-.5,0-.75a1,1,0,0,1-.41,0,.81.81,0,0,1-.45-.28,7.74,7.74,0,0,0-2.3-2.26,11.69,11.69,0,0,0-2.21-1.51c-1.14-.53-2.23-1.33-3.63-1-.11,0-.24-.06-.37-.09,0-.1,0-.25.1-.29.72-.47.34-.76-.17-1a7.84,7.84,0,0,0-1.82-.51,13.29,13.29,0,0,0-4.47.58,9.47,9.47,0,0,0-4.31,1.74,2.56,2.56,0,0,0-.48.45c-.06.08,0,.26,0,.39a3,3,0,0,0,.32-.08c.5-.24,1-.47,1.51-.74a14.51,14.51,0,0,1,5.88-1.51,6.77,6.77,0,0,1,2,.2c.29.07.5.45.75.69-.08.07-.17.2-.23.19C37.87,76.61,37.3,76.48,36.48,76.31Zm39.2,10.54,0-.15-.76,0a1.94,1.94,0,0,1-1.82-2.69,7.45,7.45,0,0,1,3.8-4.15,7.09,7.09,0,0,1,3.07-1c1,0,2,.13,3,.22a1.27,1.27,0,0,1,.43.25c-.13.12-.25.3-.4.35a7.9,7.9,0,0,1-1.08.2c-.35,0-.51.21-.21.47a1.92,1.92,0,0,1,.39,2.52,2.34,2.34,0,0,0-.09.54c.16-.09.38-.15.46-.29a16.09,16.09,0,0,0,1.21-2.28c.58-1.54-.1-2.88-1.78-3a9.11,9.11,0,0,1-1.18-.08,7,7,0,0,0-5.5,1.44,2.5,2.5,0,0,0-.73.68,22.3,22.3,0,0,0-2,3.38c-.53,1.32-1.68,2.64-.66,4.24a.47.47,0,0,1,0,.33c-.14.7.3.8.82.83.26,0,.5.09.76.1a1.6,1.6,0,0,0,.42-.07,2,2,0,0,0-.36-.3c-.36-.16-.74-.26-1.1-.43a.59.59,0,0,1-.31-.9c.22-.34.55-.24.89,0a3.9,3.9,0,0,0,1.21.51c1.47.27,2.66-.54,3.92-1.07,0,0,0-.12.08-.19a.88.88,0,0,0-.23,0C77.18,86.48,76.43,86.67,75.68,86.85ZM41.4,51.62c-1.31.22-2.56.39-3.78.66a3.78,3.78,0,0,0-1.1.68c-.06,0-.08.14-.12.21s.2.1.29.09l3.48-.36a7.6,7.6,0,0,1,4,.56c.2.09.42.11.63.19a15.65,15.65,0,0,1,1.61.61c.52.26,1,.6,1.5.89.08.05.19,0,.28.05a1.08,1.08,0,0,0,0-.32c-.1-.21-.38-.5-.32-.59.42-.65.07-.53-.37-.45a.6.6,0,0,1-.47-.16,5.33,5.33,0,0,1-.5-.63,3,3,0,0,1,.71-.36,2,2,0,0,1,1.73.7,24.77,24.77,0,0,1,3.46,3.91,1,1,0,0,0,.23.22c0-.11,0-.25,0-.34-.59-1-1.21-2-1.77-3.09a3.8,3.8,0,0,0-2.34-1.91c-1.26-.38-2.55-.64-3.83-.94a1.11,1.11,0,0,0-.4,0c.08.13.13.31.25.39.37.25.77.45,1.14.7.09.05.11.21.17.32a1.14,1.14,0,0,1-.32,0l-1.67-.44Zm-29-11.31v0c-.51,0-1,0-1.52,0a1.39,1.39,0,0,1-.65-.11.64.64,0,0,1-.17-.5.46.46,0,0,1,.33-.25c1.83.07,3.65.13,5.47.24a5.61,5.61,0,0,0,3.38-.73.92.92,0,0,0,.19-.24c-.09-.06-.17-.15-.26-.15-.66,0-1.33,0-2-.05a46.5,46.5,0,0,1-4.88-.21,2.69,2.69,0,0,0-1.93.49c-.59.37-1.16.78-1.72,1.19a3.93,3.93,0,0,0-.61.54c-.05,0,.06.32.1.33,1.51.09,3,.2,4.53.21a14.12,14.12,0,0,0,2.23-.26c.12,0,.22-.21.32-.32a1.14,1.14,0,0,0-.38-.13C14,40.3,13.22,40.31,12.4,40.31ZM34.77,80l-.2.06c-.92.25-1.85.44-2.74.75a3.29,3.29,0,0,0-2.25,2.31,1.19,1.19,0,0,0,0,.32,1,1,0,0,0,.2-.14,6.81,6.81,0,0,1,4.56-2,11.89,11.89,0,0,1,4.66.46,21.59,21.59,0,0,1,3.89,2,4.84,4.84,0,0,0,.49.18,4.48,4.48,0,0,0-.16-.52.78.78,0,0,0-.22-.26A8.21,8.21,0,0,0,38.42,81c-.31,0-.88-.21-.87-.3,0-.57-.4-.49-.68-.52C36.24,80.08,35.6,80.07,34.77,80ZM57.84,45.68a.84.84,0,0,0-.78-1,2.08,2.08,0,0,0-1.84.35c-.17.14-.5.06-.76.08a2.87,2.87,0,0,1,.3-.74c.15-.18.43-.25.63-.4s.18-.24.15-.32a.8.8,0,0,0-1.34-.35c-.2.19-.37.42-.58.61a.59.59,0,0,0,0,1c.44.5.79,1.07,1.21,1.6s.95,1.17,1.42,1.76c.25.31.43.34.73,0A4.66,4.66,0,0,0,57.84,45.68Zm-22,37.8a12.48,12.48,0,0,0-4.37,1.18c-.74.41-.91.79-.53,1.46a2.24,2.24,0,0,0,.34.35l.3-.33a5.11,5.11,0,0,1,.52-.52,7.79,7.79,0,0,1,3-1c.21,0,.52-.08.6-.22.37-.62.87-.46,1.32-.23,1.76.9,3.88,1.23,5.11,3a.84.84,0,0,0,.29.18l.63.26a2.86,2.86,0,0,0,0-.77,1.06,1.06,0,0,0-.38-.55c-.54-.39-1.11-.74-1.65-1.12-1.44-1-3.17-1.16-4.76-1.69A1.27,1.27,0,0,0,35.8,83.48ZM22.55,38.1a8.26,8.26,0,0,0-1.93,1.37,18.43,18.43,0,0,0-1.25,2.47c-.8,1.47-1.65,2.91-2.48,4.36a2.65,2.65,0,0,0-.11.3,1.43,1.43,0,0,0,.37-.06c.8-.36,1.55-.75,1.69-1.76,0-.22.36-.61.46-.59.51.15.58-.26.71-.52q1.29-2.55,2.53-5.11C22.58,38.48,22.55,38.36,22.55,38.1ZM9.44,49.41l.07.12a3.4,3.4,0,0,0,1-.53,15.44,15.44,0,0,0,3.19-4.67c.2-.52.51-1,.74-1.51.15-.33.24-.69.36-1a7.36,7.36,0,0,0-1,.25,1,1,0,0,0-.48.42c-.81,1.35-1.59,2.72-2.41,4.07-.52.86-1.08,1.69-1.63,2.53-.06.11-.11.23-.17.35Zm51.16-1.3c-.16.62,0,1.82-1,2.65a.48.48,0,0,0-.14.42c0,.12.23.2.36.3a1.66,1.66,0,0,0,.28-.39c.36-1,.69-2.07,1-3.09a4.15,4.15,0,0,0-.08-2.56c-.07-.27-.22-.65-.11-.8.45-.6.07-.9-.33-1.19a11.67,11.67,0,0,0-1.86-1.29c-.8-.37-1.59-1.06-2.6-.5-.07,0-.32,0-.34-.13-.16-.49-.37-.37-.67-.13s-.5.26-.73.42c-.62.41-1.24.84-1.84,1.28-.05,0,0,.19,0,.29l.2-.09a17,17,0,0,1,2-1c.6-.21,1.29-.42,1.86.26a.6.6,0,0,0,1,.08.79.79,0,0,1,.65-.06c1.07.32,1.45,1.42,2.27,2,.06,0,.07.16.07.24C60.6,45.76,60.6,46.71,60.6,48.11ZM11.66,49.19c.68-.47,1.51-.32,1.67-1.17,0-.13.11-.33.2-.35.87-.2,1-1.06,1.27-1.63.92-1.63,1.7-3.33,2.54-5a1.55,1.55,0,0,0,.07-.31,2.32,2.32,0,0,0-.37,0c-.7.07-1,.68-1.25,1.15-1.09,1.82-2.11,3.68-3.19,5.51-.27.46-.63.85-.93,1.29C11.61,48.75,11.66,48.92,11.66,49.19ZM56.53,38.72c-.28.21-.54.31-.54.42,0,.49-.45.51-.74.7-1,.63-1.92,1.28-2.87,1.92-.07,0-.11.12-.16.17a.81.81,0,0,0,.27,0l2.83-1.48a.59.59,0,0,1,.31-.09c.57.1,1.13.22,1.7.31a7.6,7.6,0,0,1,3.48,2,.94.94,0,0,0,1.14.21.33.33,0,0,0,.06-.3,11.85,11.85,0,0,0-2.94-2.17,8.34,8.34,0,0,1-1.21-.74C57.41,39.34,57,39,56.53,38.72ZM9.27,44.47s0-.11-.07-.1a.81.81,0,0,0-.31.1,11.33,11.33,0,0,1-1.07.9A12.06,12.06,0,0,1,3,46.94a5.52,5.52,0,0,0-.54.16c.14.16.25.39.42.47.78.38,1.58.73,2.38,1.07a.48.48,0,0,0,.39,0c.63-.48,1.4-.75,1.83-1.52A22.79,22.79,0,0,1,9,45C9.06,44.81,9.16,44.64,9.27,44.47Zm75.86,36c-.08-.35-.14-.7-.24-1a1.8,1.8,0,0,0-.23-.4,1.33,1.33,0,0,0-.12.42A5.12,5.12,0,0,1,83,83.26a14.44,14.44,0,0,1-5.54,4.33.62.62,0,0,0-.21.15A3.61,3.61,0,0,0,77,88a1.53,1.53,0,0,0,.36,0,6.39,6.39,0,0,0,3.57-1.68c1.13-1.16,2.51-2.09,3.32-3.55A4.85,4.85,0,0,0,85.13,80.48ZM19.4,34.88v0c1.88.09,3.75.24,5.63.26a17,17,0,0,0,2.84-.32c.18,0,.32-.33.48-.5a2.47,2.47,0,0,0-.53-.1c-2.13,0-4.25,0-6.38,0a11.46,11.46,0,0,1-1.78-.36,1.07,1.07,0,0,0-.53,0,14,14,0,0,0-1.4.55c-.09,0-.15.15-.22.22.1.07.2.18.31.2C18.34,34.79,18.87,34.83,19.4,34.88Zm16,47a8.86,8.86,0,0,0-3.48,1c-.17.09-.39.11-.53.24a6.48,6.48,0,0,0-.6.68,6.14,6.14,0,0,0,.84-.23c.17-.07.31-.28.48-.32a30.35,30.35,0,0,1,3.12-.66,4.13,4.13,0,0,1,1.36.32l.4.12a8.59,8.59,0,0,1,1.78.29c.9.35,1.75.85,2.63,1.26a.68.68,0,0,0,.4,0s0-.17,0-.21c-.32-.34-1.07-.4-.75-1.15a8.09,8.09,0,0,0-1.86-.93C37.94,82.11,36.65,82.05,35.39,81.91ZM31.86,32.72a1.94,1.94,0,0,0-.33-.07c-1,0-2.05.11-3.08.12s-1.9-.09-2.85-.07a4.5,4.5,0,0,1-2.46-.26.83.83,0,0,0-.56,0c-.54.15-1.08.33-1.6.51a1.89,1.89,0,0,0-.38.27,1.19,1.19,0,0,0,.43.16c1.37.08,2.74.17,4.11.2s2.74,0,4.11,0c.3,0,.63.16.89.07a16.07,16.07,0,0,0,1.69-.78S31.84,32.82,31.86,32.72ZM7,49c.58-.27,1.36.09,1.76-.61q1.34-2.32,2.62-4.68a3.5,3.5,0,0,0,.2-.74,3,3,0,0,0-.92.36,2.49,2.49,0,0,0-.47.85,4.93,4.93,0,0,1-.36.77c-.37.49-.8.93-1.2,1.39-.6.69-1.2,1.39-1.79,2.09a2.63,2.63,0,0,0-.21.41ZM21.05,38l1.86-.72c.05,0,.08-.11.12-.17a.77.77,0,0,0-.27-.11c-1.85,0-3.69.07-5.54.06a11.08,11.08,0,0,1-2.64-.21c-.61-.14-1-.14-1.39.34a2.2,2.2,0,0,1-.27.26,1.68,1.68,0,0,0,.38.12c1,.1,2,.21,3.06.26C17.83,37.86,19.31,37.89,21.05,38Zm1.17-1.49,3.11-.33c.08,0,.15-.13.22-.2-.08-.07-.16-.19-.23-.19-.37,0-.73.06-1.09,0-1.57,0-3.14,0-4.7-.14a3.91,3.91,0,0,1-2.15-.47.79.79,0,0,0-1.12-.09c-.34.2-.67.4-1,.62A1.68,1.68,0,0,0,15,36a1.31,1.31,0,0,0,.37.15c.64,0,1.29,0,1.93.06ZM28.76,30l-1,.51-.46.26c.17.1.35.29.53.3,1.08.06,2.17.09,3.25.09A15.71,15.71,0,0,0,33.27,31c.42-.06.84-.45,1,.32,0,.06.21.16.25.13.56-.31,1.11-.64,1.65-1,.07-.05.08-.19.11-.29A1.07,1.07,0,0,0,36,30.1c-1.1.13-2.19.3-3.29.4A5,5,0,0,1,29.17,30C29.09,30,29,30,28.76,30ZM59.91,47.68c-.1-.78-.19-1.55-.3-2.32a1.45,1.45,0,0,0-.26-.42c-.06.16-.13.31-.19.47A29.55,29.55,0,0,1,57.82,49c-.28.56-.21.82.19,1.1a.73.73,0,0,0,1.15-.21A3.53,3.53,0,0,0,59.91,47.68ZM20.8,44.36c.28-.22.63-.35.65-.53.12-.87.85-1.35,1.22-2l1.2-2.24c.31-.58.63-1.17.92-1.77a1.17,1.17,0,0,0,.05-.46l-.38.08c-1,.21-1.18,1.2-1.57,1.85a32.3,32.3,0,0,0-1.76,4c-.1.25-.3.45-.41.7C20.68,44,20.76,44.17,20.8,44.36ZM54.49,61.51c-.32-.92-.69-1.95-1.08-3,0-.05-.35-.05-.38,0-.28.62-.49.19-.69,0s-.13-.32-.23-.44c-.5-.65-1-1.28-1.52-1.91-.06-.07-.2-.08-.31-.09s-.09.14-.07.19a2.93,2.93,0,0,0,.68,1.46,15.6,15.6,0,0,1,3.17,4.09,3.3,3.3,0,0,0,.28.35Zm-5.62,9.27-.14.14-.15,0a.52.52,0,0,0,.07.2,27.6,27.6,0,0,0,2.72,2.69,1.08,1.08,0,0,1,.37,1.2,5,5,0,0,1-.44,1.27c-.07.16-.34.3-.31.4a1.9,1.9,0,0,0,.37.55c.08-.18.15-.36.23-.53s.1-.23.18-.27c.74-.37.69-1.18,1-1.79,0-.07-.07-.31-.09-.31-.7.13-.46-.39-.54-.73a8.81,8.81,0,0,0-.45-1.31.51.51,0,0,0-.3.08,3.39,3.39,0,0,0-.41.44,3.75,3.75,0,0,0-.36-.5C50,71.82,49.45,71.3,48.87,70.78ZM57.67,76c.21,0,.28,0,.32,0,.3-.12.83-.22.84-.37.05-.57-.31-.72-.88-.66-1.28.15-2.56.24-3.84.33-.48,0-.78.27-.7.73,0,.12.49.24.75.23C55.38,76.18,56.6,76.06,57.67,76Zm-19,2.27c-.09.09-.3.21-.29.29a.63.63,0,0,0,.29.45,19.2,19.2,0,0,1,2.07.65c1.13.53,2.21,1.17,3.31,1.77l.91.5c-.19-.3-.36-.6-.57-.89a4.73,4.73,0,0,0-1.06-1.34,5.13,5.13,0,0,0-1.62-.38c-.11,0-.19-.11-.3-.15ZM15.8,46.41a2.79,2.79,0,0,0,.35-.3c.34-.49.63-1,1-1.46.79-1,.9-2.41,2-3.25.07,0,.06-.19.08-.29.06-.27.09-.53.16-.79a4.17,4.17,0,0,1,.24-.58,2.44,2.44,0,0,0-.68.2,1.25,1.25,0,0,0-.45.49q-1.14,2.15-2.24,4.32a7.94,7.94,0,0,0-.44,1.18A1.43,1.43,0,0,0,15.8,46.41ZM31.39,34.47l-.09-.24a2,2,0,0,0-.35.21,8,8,0,0,0-2,2.87c-.2.45-.46.87-.67,1.32-.05.11,0,.27,0,.4.13,0,.29,0,.38-.1a5.85,5.85,0,0,0,1.09-1.14c.54-1,1-2,1.44-3Zm4,53.15a11.57,11.57,0,0,0,1.37-.09c.15,0,.27-.23.41-.35a1.61,1.61,0,0,0-.39-.31c-.23-.1-.5-.11-.73-.21s-.31-.23-.29-.3c.28-1-.5-.73-.91-.69a7.21,7.21,0,0,0-1.7.44.86.86,0,0,0-.47.54.94.94,0,0,0,.3.65c.06.06.38,0,.52-.15.41-.33.78-.72,1.22-1,.17-.1.49,0,.74,0a5.72,5.72,0,0,1-.12.83c0,.1-.26.14-.32.25a.36.36,0,0,0,.07.32A.68.68,0,0,0,35.39,87.62ZM26.72,36.87s-.1-.14-.14-.13a.46.46,0,0,0-.28.13c-.35.51-.73,1-1,1.53a20.85,20.85,0,0,0-2,3.93c-.05.14.05.32.08.49a1.74,1.74,0,0,0,.53-.32c.08-.1,0-.32,0-.48a1.09,1.09,0,0,1,.21-.45,5.7,5.7,0,0,0,.58-.63c.58-1,1.13-2.06,1.68-3.1C26.48,37.54,26.58,37.22,26.72,36.87ZM68.8,86.23c.25.45-.1,1.2.67,1.24.6,0,1.13,0,1.1.84,0,.06.21.15.33.19s.16-.12.14-.15c-.17-.41-.05-1-.66-1.15s-.52-.35-.55-.7c-.1-1-.19-1.94-.31-2.91,0-.06-.16-.11-.25-.16a12.49,12.49,0,0,0-.57,1.3c0,.15.21.36.3.56a.56.56,0,0,1,0,.36A5.39,5.39,0,0,1,68.8,86.23Zm-4-37.52-.47-.53a3.06,3.06,0,0,0-.29.53c-.16.45-.26.92-.42,1.37-.32.89-.64,1.79-1,2.67-.16.38-.46.7-.9.23a.34.34,0,0,0-.27,0s-.07.15-.06.21a.75.75,0,0,0,1,.27C63.87,52.22,64,50.39,64.81,48.71ZM9.14,42.3v0a12.83,12.83,0,0,0,1.52,0A10.45,10.45,0,0,0,12.1,42c.07,0,.11-.12.17-.18s-.12-.07-.18-.07L6.9,41.58a1,1,0,0,0-.51.23c-.1.07-.14.22-.21.33.12,0,.23.15.35.15Zm16.39-1a4.13,4.13,0,0,0,.75-.65c.41-.65.77-1.33,1.12-2s.65-1.36,1-2a6.61,6.61,0,0,0,.29-.89c-.26.19-.55.36-.79.57s-.13.3-.2.45c-.34.71-.67,1.41-1,2.11s-.69,1.35-1,2A1.88,1.88,0,0,0,25.53,41.32ZM54,77.53v-.1c1.68-.07,3.36-.14,5.05-.19.33,0,.43-.06.35-.42s-.34-.58-.78-.41a3.09,3.09,0,0,1-.8.24c-1.28.17-2.56.31-3.84.5a6.74,6.74,0,0,0-1.06.31ZM9.67,43.16c-.21-.07-.3-.14-.39-.13L6,43.28c-.18,0-.48.11-.53,0-.52-.81-.75,0-1.06.2-.08.06-.07.24-.1.37a1.28,1.28,0,0,0,.32.06l4.59-.53C9.35,43.4,9.45,43.29,9.67,43.16ZM54.36,65.38c-.68-.12-.8,0-.68.5.08.31.13.78,0,1-.46.51-.32.87,0,1.31a1.83,1.83,0,0,1,.2.54A2.39,2.39,0,0,0,54,69c.07-.11.2-.21.21-.33.12-1,.23-2,.3-3C54.56,65.53,54.36,65.38,54.36,65.38Zm-1,17v.06l4.7-.38a1.24,1.24,0,0,0,.28-.11c-.11,0-.22-.06-.33-.07l-1.25,0c-1,0-2.07-.08-3.1,0a17.24,17.24,0,0,0-2.14.31.91.91,0,0,0-.28.17,1.09,1.09,0,0,0,.28.08Zm3.85-19.8c.11,0,.27,0,.32-.09.21-.29.39-.61.58-.91-.21-.07-.42-.16-.63-.21a12.21,12.21,0,0,0-1.32-.24,2,2,0,0,0-.65.15c.11.32.12.8.34.93A5.34,5.34,0,0,0,57.25,62.6Zm5.09,10.63c0-.18,0-.24,0-.29s0-.36-.08-.54a3.12,3.12,0,0,0-.29.45,16.53,16.53,0,0,0-.7,4.79c0,.09.16.19.24.29a1.29,1.29,0,0,0,.18-.32c.07-.39.09-.79.15-1.17C62,75.33,62.18,74.22,62.34,73.23Zm14.8,11.08c.84-.4,1.63-.75,2.39-1.16.1-.06.12-.42,0-.58-.26-.53-.72-.46-1.2,0a12.71,12.71,0,0,1-1.35,1c-.12.1-.23.23-.35.34ZM45,48.73l-3.22.18a1.22,1.22,0,0,0-.34.14,1.31,1.31,0,0,0,.28.12c1.34.12,2.68.26,4,.3.27,0,.55-.42.83-.65-.23,0-.46-.07-.68-.08S45.28,48.73,45,48.73ZM29.65,32.11v.06a1.11,1.11,0,0,0,.26,0c.15,0,.29-.1.44-.15a1.88,1.88,0,0,0-.48-.18c-.72-.06-1.44-.08-2.16-.13s-1.54-.13-2.31-.15c-.18,0-.36.19-.54.3a2,2,0,0,0,.62.24C26.87,32.12,28.26,32.11,29.65,32.11Zm26.1,41.77V73.8c-.51,0-1,0-1.52,0-.16,0-.3.23-.44.36a1.57,1.57,0,0,0,.48.18c1.23,0,2.46-.09,3.69-.17.12,0,.24-.19.35-.29-.12-.08-.26-.25-.38-.24C57.19,73.71,56.47,73.8,55.75,73.88ZM45,48v-.07c.68,0,1.35,0,2,0,.16,0,.31-.23.46-.35a1.35,1.35,0,0,0-.45-.16c-.87,0-1.74,0-2.61,0a8.23,8.23,0,0,0-1.31.16c-.12,0-.22.16-.33.25a1.23,1.23,0,0,0,.37.12ZM56.56,66.51v0h.33c.37,0,.75.06.72-.53s-.37-.57-.76-.53a5.55,5.55,0,0,0-1.15.21.77.77,0,0,0-.35.48c0,.08.23.28.38.32A4.47,4.47,0,0,0,56.56,66.51ZM56,71.67v-.06c.44,0,.89.09,1.33.08.13,0,.31-.21.36-.35s-.14-.36-.22-.36c-.91,0-1.83.08-2.74.16-.11,0-.21.23-.31.36a1.52,1.52,0,0,0,.4.16C55.21,71.68,55.6,71.67,56,71.67ZM67.92,82.13l0-.25a1.55,1.55,0,0,0-.22.12,1.58,1.58,0,0,0-.53,1.74.85.85,0,0,1-.07,1,.72.72,0,0,0-.16.47,1.09,1.09,0,0,0,.27.52c.08.1.24.13.37.19,0-.19,0-.38,0-.57,0-.83.09-1.66.16-2.49A4.58,4.58,0,0,1,67.92,82.13Zm.39-33.93-.18-.28a1.54,1.54,0,0,0-.22.3c-.41,1.28-.82,2.55-1.21,3.83-.08.29,0,.46.35.32a5.47,5.47,0,0,0,.69-.33c.06,0,.09-.26.08-.26-.75-.31-.35-.83-.23-1.28C67.81,49.75,68.06,49,68.31,48.2ZM56.39,72.93V73c.37,0,.73,0,1.09-.06a1.73,1.73,0,0,0,.46-.21c-.17-.15-.34-.44-.5-.43-1,0-1.94.15-2.91.26-.13,0-.25.17-.38.26.14.07.27.22.41.21C55.17,73,55.78,73,56.39,72.93ZM21.27,12.62l-.16-.29c-.64-1.05-1.27-2.1-1.91-3.14a1.61,1.61,0,0,0-.3-.28,1.17,1.17,0,0,0,0,.46c.52,1,1.05,2,1.6,2.94a1.32,1.32,0,0,0,.43.38C21,12.72,21.14,12.65,21.27,12.62ZM63.74,78a6.28,6.28,0,0,0-.22-.69,2.82,2.82,0,0,0-.24-.36,2.41,2.41,0,0,0-.42,2.33,1.59,1.59,0,0,0,.14.26c.09,0,.22-.09.25-.17C63.44,78.85,63.59,78.38,63.74,78ZM56.62,64.16a2.38,2.38,0,0,0,.72-.15c.16-.07.24-.31.36-.47-.15-.1-.28-.26-.44-.28a9.81,9.81,0,0,0-1.09-.07c-.38,0-.46.22-.45.54C55.74,64.36,56.2,64.11,56.62,64.16ZM32.9,29.47l2.29-.2c.09,0,.16-.09.24-.13-.09-.05-.18-.14-.28-.15-.77-.09-1.55-.19-2.33-.22A2.6,2.6,0,0,0,32,29c.28.15.56.3.85.44A.08.08,0,0,0,32.9,29.47ZM56.48,68.33a4.76,4.76,0,0,0-1,0c-.15,0-.26.29-.39.45.14.08.28.22.42.22A11.61,11.61,0,0,0,57.18,69c.14,0,.26-.28.39-.42a1.27,1.27,0,0,0-.43-.25A3.71,3.71,0,0,0,56.48,68.33Zm-5-2c-.08.08-.24.15-.26.25a.74.74,0,0,0,.07.52c.48.53,1,1,1.5,1.53a.41.41,0,0,0,.15.07c0-.06.08-.15.06-.19-.41-.68-.82-1.36-1.25-2C51.71,66.42,51.6,66.41,51.47,66.34Zm10.76-18c-.08-.26-.11-.37-.15-.48-.07.11-.2.21-.22.33A13.74,13.74,0,0,1,60.58,52a1.06,1.06,0,0,0,0,.44c.11-.11.27-.2.32-.34C61.35,50.79,61.81,49.5,62.23,48.31ZM53.12,66.18c-.35-.48-.71-1-1.09-1.49-.07-.09-.22-.13-.33-.2-.06.15-.19.31-.16.43a1.7,1.7,0,0,0,.31.65c.25.3.55.55.83.83a2.11,2.11,0,0,1,.19.23Zm13-18.13L65.93,48a2.83,2.83,0,0,0,0-.5,2.35,2.35,0,0,0-.13-.43,3,3,0,0,0-.15.38c-.15.77-.26,1.54-.43,2.31-.11.49-.31.95-.45,1.44a.77.77,0,0,0,0,.3c.06,0,.16-.09.18-.16C65.37,50.23,65.74,49.14,66.11,48.05ZM45.49,80.83l-.19.06a.93.93,0,0,0,.1.37c.33.55.66,1.09,1,1.62a2.53,2.53,0,0,0,.37.36c.06-.19.21-.44.14-.57a13.77,13.77,0,0,0-1-1.53A1.6,1.6,0,0,0,45.49,80.83ZM36.58,28.19v0c.36,0,.73,0,1.09,0A.89.89,0,0,0,38,28l-.2-.24c-.46-.49-1-.26-1.48-.11a5.34,5.34,0,0,0-.87.42l1,.11Zm3.12,1.55c-.15,0-.29,0-.36,0l-2,1.76a.49.49,0,0,0-.11.2c.08,0,.19,0,.23,0,.73-.61,1.44-1.23,2.16-1.84A.68.68,0,0,0,39.7,29.74ZM56.44,53.12c-.27-.23-.43-.46-.65-.53a.66.66,0,0,0-.54.24A8.38,8.38,0,0,0,54.63,54a.87.87,0,0,0,0,.4,1,1,0,0,1,.21-.28c.39-.25.78-.47,1.17-.71C56.1,53.36,56.21,53.27,56.44,53.12ZM38.35,28.84c-.47.06-.92.11-1.36.2-.07,0-.15.22-.15.34a6.14,6.14,0,0,0,.15.72l.69-.43c.25-.18.5-.36.74-.55.07-.05.1-.15.15-.23ZM60,71.45h-.09a3.69,3.69,0,0,0,0-.58,4.43,4.43,0,0,0-.06-.51c0,.18-.09.37-.12.56-.05.35,0,.79-.17,1a1.66,1.66,0,0,0-.16,1.66,2.41,2.41,0,0,0,.15.33c.07-.1.2-.2.21-.31C59.88,72.89,59.94,72.17,60,71.45ZM51,68c-.14.08-.31.13-.31.2a.49.49,0,0,0,.12.34,5.3,5.3,0,0,0,.57.59c.28.24.59.46.89.69-.14-.33-.25-.68-.41-1a2.65,2.65,0,0,0-.47-.58A2,2,0,0,0,51,68Zm-20-30.89a3.91,3.91,0,0,0,.25-.32L33,34.08s0-.14,0-.22-.1.06-.13.1c-.6.91-1.2,1.81-1.79,2.72C31,36.75,31.05,36.88,31.08,37.13Zm23.05,33s-.15-.2-.27-.35c0,.15-.1.31-.16.46l-.37.79c-.09.18-.16.37-.24.55.15,0,.34.18.44.13a.8.8,0,0,0,.4-.43A8.58,8.58,0,0,0,54.13,70.09Zm1.9-.23v-.08c-.36,0-.72.08-1.07.14-.07,0-.12.16-.16.25s.12.12.18.11c.75,0,1.5-.06,2.25-.12.13,0,.24-.18.35-.27-.12-.07-.25-.2-.38-.19A11.54,11.54,0,0,0,56,69.86ZM45.54,86.36c.23-.33.43-.61.62-.91,0,0-.08-.08-.12-.08-.64.11-.78-.39-1-.8-.05-.09-.22-.11-.33-.16a1,1,0,0,0,0,.3c.19.48.39,1,.59,1.43C45.33,86.2,45.41,86.24,45.54,86.36ZM47,84.18l.1.12,0,.4c.08,0,.19,0,.23,0,.31-.36.62-.72.89-1.1,0-.07,0-.26-.09-.37a.29.29,0,0,0-.27,0C47.6,83.49,47.31,83.84,47,84.18Zm6-22.78c-.37-.48-.76-1-1.16-1.47,0,0-.23.08-.23.13,0,.21,0,.49.07.62a10.68,10.68,0,0,0,1.08.92s.14,0,.21,0S53.05,61.48,53.06,61.4Zm-.57-8.18c-.07.22-.23.45-.17.55a14.44,14.44,0,0,0,1,1.26,1,1,0,0,0,.36.23,3.11,3.11,0,0,1-.07-.44c0-.58-1-.66-.75-1.42A2.07,2.07,0,0,0,52.49,53.22Zm1.43-2.66c-.06-.07-.11-.17-.16-.17a.25.25,0,0,0-.21.1c-.24.46-.49.92-.69,1.41a1.75,1.75,0,0,0,0,.61,5.87,5.87,0,0,0,.39-.52c.18-.32.32-.65.48-1Zm12.66-.47-.13-.15c-.11.08-.26.16-.3.27-.21.6-.4,1.21-.59,1.83a.91.91,0,0,0,0,.23c.08,0,.22-.07.25-.13C66.08,51.47,66.32,50.79,66.58,50.09ZM40.72,86.93c0-.13,0-.21-.08-.23l-1.8-.93s-.14,0-.13.08,0,.18.07.21c.54.32,1.09.64,1.65.94C40.49,87,40.62,87,40.72,86.93ZM46,50.18v-.06l-.37.1a2.43,2.43,0,0,0,.37.16c.45.12.9.24,1.36.32.09,0,.21-.13.31-.2-.09-.11-.18-.3-.28-.31C46.92,50.16,46.46,50.18,46,50.18Zm3.69,30.7c-.16-.34-.37-.81-.6-1.27,0,0-.13,0-.2-.07a.91.91,0,0,0,0,.23c.13.56.26,1.11.4,1.67,0,.06.09.11.13.17s.16-.08.18-.15A3.38,3.38,0,0,0,49.69,80.88Zm13-35.22c-.08-.23-.1-.43-.21-.53a6.76,6.76,0,0,0-.74-.55,1.57,1.57,0,0,0,.12.67,2.25,2.25,0,0,0,.63.5S62.68,45.69,62.73,45.66ZM65.5,77.51l-.15-.37c-.09.06-.22.1-.26.19-.21.48-.4,1-.58,1.47,0,.06,0,.14,0,.22s.19,0,.21-.07C65,78.47,65.27,78,65.5,77.51ZM50.34,46.07c-.32.31-.57.54-.81.8a1.37,1.37,0,0,0,.26.28c.3-.2.59-.43.88-.66Zm3.91,6.73c.32-.4.59-.68.79-1,0-.06-.19-.28-.29-.43-.21.35-.42.69-.61,1C54.12,52.46,54.17,52.54,54.25,52.8Zm8.92,1.73c.27-.24.57-.47.84-.74,0,0-.06-.24-.1-.36a1.11,1.11,0,0,0-.27.12,6.2,6.2,0,0,0-.62.53.47.47,0,0,0-.12.27S63,54.44,63.17,54.53ZM34.56,88.63v.16a2.27,2.27,0,0,0,.66.13,1.94,1.94,0,0,0,.57-.26c-.07-.1-.17-.3-.23-.29C35.23,88.43,34.9,88.54,34.56,88.63Zm14-39.56c-.28-.13-.48-.27-.52-.23a5.54,5.54,0,0,0-.54.64c.09.07.23.22.26.2C48,49.52,48.18,49.33,48.52,49.07ZM51.9,70.6a4.31,4.31,0,0,1-.55-.38c-.09-.09-.11-.27-.21-.34a1.56,1.56,0,0,0-.48-.14c.17.27.34.55.52.81a.62.62,0,0,0,.28.17C51.53,70.74,51.61,70.68,51.9,70.6Zm-3-23.29a4,4,0,0,0-.4.57s.27.27.3.25a3.89,3.89,0,0,0,.52-.48Zm9,7.54.2-.29c-.23-.11-.45-.23-.68-.32,0,0-.2.21-.18.3a1.05,1.05,0,0,0,.28.49S57.7,54.91,57.83,54.85ZM49.9,45.71l.16-.25L49.31,45c-.05.14-.18.32-.13.41a1.24,1.24,0,0,0,.43.42S49.8,45.74,49.9,45.71ZM73,54.14l.56-.14a7,7,0,0,0-.86-.34c-.07,0-.19.14-.29.22ZM29.11,72.57c-.08,0-.15-.1-.18-.08-.4.25-.79.5-1.17.77,0,0,.07.14.1.22ZM31.7,57.18a1.63,1.63,0,0,0-.14-.31.2.2,0,0,0-.14.06c-.23.28-.46.57-.68.87,0,0,0,.09,0,.13a.33.33,0,0,0,.14,0ZM32.94,56c-.23-.13-.41-.27-.44-.25a6.33,6.33,0,0,0-.57.69s.11.16.11.15Zm3.91,29.11,0-.16a6.47,6.47,0,0,0-.69-.36c-.08,0-.22.07-.33.11a5.55,5.55,0,0,0,.63.45C36.58,85.23,36.73,85.16,36.85,85.15ZM50.51,39.41l-.4-.47a1.82,1.82,0,0,0-.29.55c0,.07.21.3.26.28A1.64,1.64,0,0,0,50.51,39.41ZM53,71.86c-.16.19-.37.33-.35.41a1.9,1.9,0,0,0,.35.55s.25-.11.24-.14C53.21,72.43,53.12,72.19,53,71.86ZM44.58,89.72v0l-.77.14c.28.07.57.14.86.19a.74.74,0,0,0,.32-.07.85.85,0,0,0,.19-.14.93.93,0,0,0-.26-.1A1.84,1.84,0,0,0,44.58,89.72ZM64.06,81c-.1-.07-.2-.19-.26-.17a1.68,1.68,0,0,0-.38.23l.39.5ZM58.64,58.44c-.26,0-.38-.08-.42,0a4.56,4.56,0,0,0-.48.5l.18.18C58.13,58.9,58.32,58.73,58.64,58.44Zm-27-26.64v0a1.87,1.87,0,0,0-.4.07c-.06,0-.1.12-.12.19s.08.09.12.09c.35,0,.7-.12,1-.18,0,0,0-.09-.07-.1ZM50.24,75.15c-.11.13-.2.2-.19.23.09.21.19.42.29.64.06,0,.18-.1.17-.12A7.16,7.16,0,0,0,50.24,75.15Zm-.65-11.8-.13.06a.68.68,0,0,0,.12.12l.37.3.28.22c0-.14,0-.33-.13-.41A1.69,1.69,0,0,0,49.59,63.35ZM46.08,90l.9-.14c-.29,0-.58-.09-.87-.1a1.42,1.42,0,0,0-.42.15Z"/><path d="M31.16,92.32h4.2c1.9,0,3.79.06,5.69.09.85,0,1.7,0,2.56,0a1.15,1.15,0,0,1,.4.17,1.3,1.3,0,0,1-.42.19c-2,.08-4,.2-6,.21-1.1,0-2.19-.24-3.29-.25-1.42,0-2.84.11-4.26.16-.87,0-1.73,0-2.59,0-.12,0-.25-.16-.37-.25.1-.15.17-.35.31-.42a1.39,1.39,0,0,1,.58,0h3.2Z"/><path d="M44.45,91.9c-2.27,0-4.55,0-6.83,0-.27,0-.78-.24-.77-.36,0-.43.32-.63.81-.59q4.16.27,8.31.51c.39,0,.79,0,1.18,0,.12,0,.24.14.35.22-.12.09-.23.26-.35.27-.9.07-1.8.1-2.7.14Z"/><path d="M71.93,90.55c.56,0,1.12,0,1.68,0,.15,0,.29.16.43.24-.12.12-.24.35-.37.36-1.2.11-2.4.17-3.6.26-.3,0-.54-.08-.44-.4s.3-.49.47-.5a16,16,0,0,1,1.83.06Z"/><path d="M61.93,87.16c-1,0-1.87,0-2.76,0-.17,0-.34-.19-.51-.29.16-.15.32-.41.49-.42a12.43,12.43,0,0,1,1.83,0c.59,0,1.17.12,1.74.21.11,0,.2.13.3.2-.09.06-.17.15-.27.16A8.19,8.19,0,0,1,61.93,87.16Z"/><path d="M75,91a1.22,1.22,0,0,1-.33,0,1.3,1.3,0,0,1-.26-.14c.06-.08.11-.2.19-.23a1.18,1.18,0,0,1,.42,0l.93.08-.92.37Z"/><path class="cls-1" d="M58.18,34.8l-.25,0c-.31,0-.73.17-.73-.4s.32-.53.75-.52a8.35,8.35,0,0,1,4.84,1.72A33.53,33.53,0,0,0,66,38.19c.69.38.78.92,1.1,1.42.08.13,0,.4,0,.6-.24-.05-.65,0-.72-.18A10.62,10.62,0,0,0,63.37,37a10.86,10.86,0,0,0-4.43-2.13,3.12,3.12,0,0,0-.75,0Z"/><path class="cls-1" d="M58.6,32.42c.51.13,1.26.29,2,.49.13,0,.21.22.31.33-.14.06-.3.2-.42.17a14.36,14.36,0,0,0-4.39.05,1.7,1.7,0,0,1-.87-.14c0-.57.44-.51.82-.56Z"/><path class="cls-1" d="M36.13,114.19v-.93c-.3.16-.61.3-.91.47-.68.38-1.35.78-2,1.13-.13.07-.46,0-.52-.06-.16-.28-.55-.65,0-.93,1.37-.75,2.78-1.45,4.15-2.2a2.08,2.08,0,0,0,.76-.65,32.93,32.93,0,0,1,6.29-6.41A15.37,15.37,0,0,1,48.1,102a.92.92,0,0,1,1.2.22c.36.45.05.83-.2,1.13a22.11,22.11,0,0,1-3.7,3.6c-.22.17-.38.4-.59.57-1.19.93-2.37,1.87-3.58,2.77-.94.69-1.94,1.31-2.87,2a3.3,3.3,0,0,0-.79,1,.87.87,0,0,0,0,.72.73.73,0,0,0,.64.25c1.52-.37,3-.75,4.53-1.21a12.84,12.84,0,0,0,2.45-1c.85-.48,1.62-1.11,2.43-1.66a1.86,1.86,0,0,1,.67-.39,1.76,1.76,0,0,1,.87.14,1,1,0,0,1-.11.63,8,8,0,0,1-.93,1.16c-.47.49-1,.93-1.47,1.41a1.14,1.14,0,0,0-.37.59c-.11,1-1,1.28-1.69,1.66-.11.06-.47-.11-.51-.24-.14-.46-.28-1,.2-1.37.11-.08.14-.26.21-.39a2.5,2.5,0,0,0-.49.09c-1.63.64-3.25,1.33-4.9,1.92a6,6,0,0,1-1.86.24C36.69,115.92,36.09,114.93,36.13,114.19Z"/></g></g></svg>