<svg xmlns="http://www.w3.org/2000/svg" viewBox="0 0 154.63 132.51"><g id="Warstwa_2" data-name="Warstwa 2"><g id="Ńëîé_1" data-name="Ńëîé 1"><path d="M143.54,97.68c3.06.2,6.12.4,9.18.62.15,0,.28.21.42.31-.17.09-.34.24-.5.24-.78,0-1.56,0-2.34,0-2,0-4-.18-6-.13-2.41,0-4.8.25-7.2.43-.21,0-.4.3-.61.47.2.13.39.37.59.37,1.84,0,3.68-.07,5.51,0,2.84.14,5.67.4,8.5.61a.69.69,0,0,1,.39.11,5.11,5.11,0,0,1,.48.55c-.23,0-.5.2-.7.14-2.1-.65-4.25-.37-6.38-.42-2.44-.06-4.88,0-7.32.13a10.13,10.13,0,0,0-2.27.26c-.31.08-.52.56-.77.85.14.09.29.24.44.25,1,0,1.94,0,2.91,0,3.1,0,6.21,0,9.32,0,1.35,0,2.7.2,4,.34a1.94,1.94,0,0,1,.57.26,2,2,0,0,1-.61.2c-1.06,0-2.12-.05-3.18-.05l-8.23,0c-1.23,0-2.47-.07-3.7,0a14.79,14.79,0,0,0-2.34.5c-.08,0-.14.11-.21.17.09,0,.18.15.28.16.67,0,1.34.11,2,.13,2.51.07,5,.12,7.53.2,1.62,0,3.23.12,4.84.19.07,0,.2.09.2.14s-.07.22-.14.23a3.72,3.72,0,0,1-.87.17c-2.87,0-5.75.09-8.62.09-2.28,0-4.56-.07-6.84-.1-.2,0-.46-.09-.59,0-.49.38-.93.81-1.39,1.22.44,0,.89.12,1.34.14,1.84.08,3.68.15,5.52.2.9,0,1.8,0,2.69,0,2.06.15,4.11.34,6.16.53.09,0,.17.15.26.24-.14.06-.28.18-.41.18-.94-.06-1.87-.17-2.8-.2-1.27,0-2.53,0-3.79,0-1.06,0-2.12-.14-3.18-.09-2.53.12-5.06.3-7.58.48a2.36,2.36,0,0,0-.76.26c-.1.05-.15.2-.23.3a1.69,1.69,0,0,0,.35.1c1.81.14,3.62.23,5.42.4,3.1.3,6.19.64,9.28,1,.15,0,.29.16.43.24a1.47,1.47,0,0,1-.53.16c-3.2-.22-6.39-.5-9.59-.67-1.63-.08-3.26,0-4.89.08a1.75,1.75,0,0,0-.38.09,1.69,1.69,0,0,0,.43.15c1.77.15,3.54.25,5.3.46,1.23.14,2.45.43,3.67.69.17,0,.31.27.46.42a1.57,1.57,0,0,1-.62.15c-1.92-.22-3.84-.56-5.77-.69-2.17-.15-4.37-.11-6.55-.14-.86,0-1.72,0-2.57.06a1.14,1.14,0,0,0-.57.16c-.14.07-.22.24-.33.36.15.11.3.28.46.31.67.09,1.34.1,2,.2q4.08.57,8.14,1.17a2.41,2.41,0,0,1,.42.16c-.15.08-.31.23-.46.22-2.33-.16-4.67-.44-7-.48-1.89,0-3.78-.59-5.68,0a1.34,1.34,0,0,1-1.66-.57c-.28-.48-.67-.29-.75,0-.18.67-.61.36-1,.34-1.49-.1-3-.25-4.47-.33-1,0-1.94,0-2.91,0a2.26,2.26,0,0,0-.6.17c.17.09.34.25.52.26,1.37,0,2.74,0,4.11.08a27,27,0,0,1,2.69.31c.12,0,.22.18.33.28-.11.05-.21.15-.32.15-2.43.07-4.85.08-7.28.2a22.93,22.93,0,0,0-2.4.53,21,21,0,0,1-2.24.14c-3.07.15-6.13.34-9.2.43-1.87.06-3.74,0-5.61,0a25.35,25.35,0,0,0-2.58.35,3.4,3.4,0,0,1-1.38,0c-.31-.09-.53-.53-.74-.86a1.7,1.7,0,0,1-.13-.57c-.26.12-.65.16-.75.37a9.9,9.9,0,0,0-.69,1.76,1.32,1.32,0,0,0,.64.28c1.17-.05,2.34-.21,3.51-.22,1.53,0,3.06.12,4.58.08s3.07-.31,4.6-.31c3,0,6.07.15,9.11.19.19,0,.55-.26.56-.41,0-.55.33-.73.76-.76,2.24-.12,4.47-.28,6.71-.31s4.49,0,6.72.19c2.08.18,4.22.19,6.14,1.17a2.93,2.93,0,0,1,.52.48,2.44,2.44,0,0,1-.75.07c-1.7-.34-3.38-.81-5.1-1a27.79,27.79,0,0,0-3.87,0c-2.56,0-5.13,0-7.7.11a10.55,10.55,0,0,0-1.76.27c-.12,0-.21.23-.32.35l.46,0c1,0,2,0,3,.1.18,0,.35.18.53.28a2.72,2.72,0,0,0-.49,0c-1.74.55-3.5.07-5.25,0-2,0-4-.15-6-.17a9.55,9.55,0,0,0-3.56.21c-1.7.69-3.28-.09-4.91.07-2.89.28-5.79.5-8.68.77a.9.9,0,0,0-.6.31,7.23,7.23,0,0,0-.55,1,3.77,3.77,0,0,0,1,.23c1.34-.1,2.68-.33,4-.36,2.4-.06,4.81,0,7.22,0a4.35,4.35,0,0,1,1.29,0c2.75.94,5.47-.18,8.2,0,2.11.13,4.21.18,6.31.28a1.78,1.78,0,0,1,.5.21c-.18.1-.35.28-.53.28-2,.05-4,0-5.92.11s-4,.42-6.07.66c-.66.08-1.35.38-1.64-.59,0-.11-.34-.18-.52-.19q-1.86-.06-3.72-.06c-.16,0-.32.15-.48.23a4.25,4.25,0,0,0,.46.27c.09,0,.21,0,.3,0a1.61,1.61,0,0,1,.36.24c-.14.08-.27.24-.4.23-.83,0-1.66-.09-2.49-.12-2-.08-3.94-.16-5.91-.22a13.51,13.51,0,0,1-2,0c-1.15-.2-1.79.51-2.48,1.17-.28.28-.2.49.21.49.64,0,1.27,0,1.91,0,3.34,0,6.69,0,10,.06a12.27,12.27,0,0,1,4.36.78,1.84,1.84,0,0,1,.39.25c-.14,0-.29.16-.42.14-1.72-.19-3.44-.47-5.16-.58-1.49-.09-3,0-4.5.05-.7,0-1.4,0-2.1.06q-3.11.18-6.2.39a1,1,0,0,0-.49.12,2.36,2.36,0,0,0-.35.41,1.77,1.77,0,0,0,.44.11c4.11.08,8.23.08,12.34.25a33.83,33.83,0,0,1,4.53.79,1.38,1.38,0,0,1,.38.25c-.16.06-.33.19-.47.18-1-.14-2.06-.37-3.09-.44-2.1-.13-4.21-.17-6.32-.25-1.3,0-2.61-.17-3.9-.12-2.19.07-4.38.22-6.57.41-.37,0-.71.41-1.06.63a8.84,8.84,0,0,0,1.15.16l8.1.19c1.13,0,2.25.11,3.37.18a1,1,0,0,1,.34.16,1.4,1.4,0,0,1-.35.1c-1.61,0-3.23.1-4.84.12-2.11,0-4.21-.07-6.32,0-1.66,0-3.31.33-5,.41-1.29.07-2.58,0-3.87,0-1,0-2,.25-3.06.32-1.7.11-3.4.15-5.11.27-2.87.2-5.74.43-8.6.66-.27,0-.52.16-.78.18a2.32,2.32,0,0,1-.58-.08c.09-.23.12-.6.29-.67a4.52,4.52,0,0,1,1.44-.43c1.59-.18,3.18-.32,4.78-.43s3.34-.19,5-.28a1.65,1.65,0,0,0,.36-.11l-.3-.27a2,2,0,0,0-2-.14c-.75.23-1.7-.28-2.55-.25-3.24.11-6.48.29-9.72.48-.39,0-.76.28-1.15.34a2.47,2.47,0,0,1-.79-.13c.16-.21.29-.54.5-.62a11.77,11.77,0,0,1,4.27-1c2.23,0,4.47-.15,6.71-.26.23,0,.45-.22.67-.33a3.58,3.58,0,0,0-.77-.23c-.56,0-1.12,0-1.68,0-1.63-.1-3.27-.27-4.9-.34s-3.14-.08-4.71-.06a18.59,18.59,0,0,0-6,.77c-.14,0-.45,0-.5-.15a.58.58,0,0,1,.07-.55,2.09,2.09,0,0,1,1-.47c3.11-.17,6.22-.31,9.32-.44,1.57-.07,3.14-.11,4.7-.17.11,0,.22-.11.32-.17a1.07,1.07,0,0,0-.22-.25,3.79,3.79,0,0,0-2.15-.63c-3.09,0-6.17-.19-9.25-.13-2.24,0-4.47.36-6.71.54a7,7,0,0,1-1.12-.09,3.69,3.69,0,0,1,1.05-.49c2.69-.32,5.38-.66,8.08-.85,1.62-.11,3.27,0,4.9,0a8.11,8.11,0,0,0,1.21,0c.06,0,.16-.38.12-.41a1.52,1.52,0,0,0-.69-.33c-2.63-.22-5.26-.48-7.9-.59a68.28,68.28,0,0,0-12.13.33c-.63.08-1.24.3-1.86.4-.18,0-.38-.16-.57-.25.13-.15.24-.42.4-.45,1.58-.28,3.15-.61,4.74-.73,1.86-.15,3.74-.14,5.61-.13,1.4,0,2.81.13,4.21.14,1.66,0,3.33,0,5-.06a1.06,1.06,0,0,0,.32-.16l-.29-.23a2.39,2.39,0,0,0-2-.39,8.92,8.92,0,0,1-2.65-.19,5.29,5.29,0,0,0-.78-.13c-3.57,0-7.15.07-10.72.15s-6.94.2-10.41.32c-.81,0-1.62.14-2.44.19-.12,0-.25-.12-.38-.18.1-.07.2-.19.3-.2,1.32-.18,2.63-.36,4-.49s2.75-.27,4.12-.3c2.37,0,4.74,0,7.11,0,2.14,0,4.28-.18,6.41-.25,1.11,0,2.21,0,3.31,0a2.44,2.44,0,0,0,.44-.13,1.66,1.66,0,0,0-.39-.32c-.65-.25-1.31-.49-2-.7-.51-.16-1-.32-1.41.3-.14.2-.68.17-1,.15-1.27-.06-2.54-.25-3.8-.24-5.66.08-11.32.21-17,.34-.66,0-1.32.21-2,.27a2,2,0,0,1-.84-.11c-.08,0-.12-.29-.1-.44s.21-.13.32-.14c2.86-.17,5.73-.52,8.58-.43,2.47.07,4.91-.08,7.36-.18,1.49-.05,3-.07,4.46-.13.18,0,.37-.18.55-.27a1.47,1.47,0,0,0-.56-.25c-3.87,0-7.74-.06-11.61,0-2.65,0-5.29.26-7.92.43a5.28,5.28,0,0,0-1.46.35c-.34.12-.54.18-.67-.26s0-.55.38-.59c1-.1,2.05-.21,3.08-.35.55-.07,1.1-.26,1.66-.28,2.57-.08,5.15-.12,7.73-.18a4.38,4.38,0,0,0,.5,0,1.82,1.82,0,0,0,.29-.08c-.11-.06-.21-.17-.32-.17-.54,0-1.09,0-1.63,0-1.29-.07-2.57-.25-3.86-.23-1.87,0-3.73.23-5.6.33l-7.59.39c-.14,0-.27.06-.4.06s-.45,0-.67-.08c.22-.13.42-.35.65-.38,1.26-.18,2.52-.34,3.79-.46,2.53-.24,5.06-.44,7.6-.67a2.7,2.7,0,0,0,.64-.22c-.18-.13-.34-.34-.53-.39a10.39,10.39,0,0,0-2.25-.43c-2.71,0-5.42,0-8.13.07-.9,0-1.79,0-2.69,0-.22,0-.42-.24-.63-.36a3,3,0,0,1,.63-.17c2.86-.1,5.73-.18,8.6-.27a2.31,2.31,0,0,0,.69-.11,6.92,6.92,0,0,0,.84-.37,3.18,3.18,0,0,0-.85-.45,25.31,25.31,0,0,0-6.27-.36c-1.49.17-3,.23-4.51.32a2.86,2.86,0,0,1-.78-.19c.2-.17.39-.45.62-.48,2-.23,4-.45,6-.61,1.1-.09,2.21-.07,3.32-.09.44,0,.53-.25.33-.59a1.58,1.58,0,0,0-1.39-1c-2.38,0-4.75,0-7.13,0a9.05,9.05,0,0,0-1,.21,3.08,3.08,0,0,1-.66-.09c.15-.25.24-.62.45-.71a3.29,3.29,0,0,1,1.18-.2c2-.1,4.08-.18,6.12-.29a2.59,2.59,0,0,0,.74-.25c-.47-.31,0-1.26-.86-1.3a15,15,0,0,0-5.08.31,1.93,1.93,0,0,1-.53,0,4.28,4.28,0,0,1,.38-.26,8.82,8.82,0,0,1,4.46-.9c.24,0,.49-.2.74-.31-.22-.25-.42-.7-.66-.72a8.23,8.23,0,0,0-2.16,0c-.65.09-1.27.36-1.92.49a1.53,1.53,0,0,1-.64-.15c.13-.18.23-.47.4-.52.86-.27,1.75-.46,2.62-.7a2.7,2.7,0,0,0,.5-.27,4,4,0,0,0-.48-.07l-4-.18A1.74,1.74,0,0,1,.89,100c.13-.13.26-.35.39-.36,1.52-.1,3.05-.21,4.57-.22.25,0,.5.42.76.63a2.24,2.24,0,0,0,.4.22.86.86,0,0,0,.09-.34c-.1-1.06-.27-2.12-.33-3.18,0-.54-.23-.69-.72-.69A10.53,10.53,0,0,1,4.46,96c-.17,0-.3-.27-.45-.41.16-.12.3-.3.47-.33C5,95.13,5.47,95.1,6,95a.6.6,0,0,0,.25-.15c-.09-.06-.16-.18-.26-.2-.39-.08-.8-.09-1.18-.2s-.66-.29-.66-.45c0-.46.34-.55.77-.5a6.94,6.94,0,0,0,1.51,0c.2,0,.54-.29.54-.45,0-3.57,1.16-6.93,2-10.33.77-3,1.31-6.1,2.83-8.85,1-1.9,2.2-3.74,3.42-5.53,2.16-3.18,5.06-5.68,7.9-8.23a37.25,37.25,0,0,1,9.63-5.91c3-1.38,6-2.77,9-4.3,2.48-1.29,4.87-2.77,7.29-4.18a24.64,24.64,0,0,1,8.34-3.32c.89-.15,1.75-.43,2.64-.57a8.11,8.11,0,0,1,4.86.57c.15.07.24.26.35.4-.16.07-.32.22-.48.21-.83,0-1.66-.15-2.49-.15A23.13,23.13,0,0,0,52,45.53a18,18,0,0,0-3.57,1.91c-2.85,2.25-6.15,3.57-9.43,5-1.77.75-3.45,1.73-5.18,2.59-1.07.54-2.18,1-3.23,1.55-2.06,1.13-4.24,2.07-5.95,3.8-1.38,1.4-3,2.58-4.4,3.94a20.47,20.47,0,0,0-4,4.56c-1,1.74-2.17,3.36-3.18,5.09a22.91,22.91,0,0,0-2.31,6.5c-.43,1.85-.92,3.69-1.42,5.53A31.17,31.17,0,0,0,8.26,98.69c.35,2.34.88,4.77,2.77,6.58.7.67,1.08,1.66,1.76,2.35a10.36,10.36,0,0,0,5.65,3c3,.54,5.94,1,8.91,1.49s5.95.76,8.86,1.42a24.43,24.43,0,0,1,5.59,2.17c2.81,1.44,5.49,3.13,8.27,4.65,2.55,1.39,5.13,2.72,7.72,4a10.31,10.31,0,0,0,6.43,1.07c1.4-.21,2.8-.34,4.19-.53.27,0,.7-.18.75-.37.27-.89,1-.95,1.68-.95,1.17,0,2.21-.13,2.79-1.31a.53.53,0,0,1,.33-.2,4.37,4.37,0,0,0,3.14-2.5.52.52,0,0,1,.27-.26c1.1-.27,1.39-1.23,1.85-2.07.31-.57.75-1.06,1.07-1.63A48,48,0,0,0,84,106.12a75.89,75.89,0,0,0,2.14-8.36,36.27,36.27,0,0,0,.78-9.3,15.74,15.74,0,0,0-2.42-6.92,30.45,30.45,0,0,1-3.89-8.87,19.65,19.65,0,0,1-.18-6.58A21.2,21.2,0,0,0,80,58.52a22.72,22.72,0,0,0-1.6-3.87,15.89,15.89,0,0,0-3.89-5.28c-2-1.74-4.1-3.43-6.87-3.8-1.09-.14-2.21,0-3.31-.08-.77,0-1.54,0-2.31-.06a1.82,1.82,0,0,1-.5-.22c.11-.19.17-.46.33-.54a4.24,4.24,0,0,1,1.24-.38,19.58,19.58,0,0,1,6.39.15,8.07,8.07,0,0,1,2,.87c.67.34.92,0,1.07-.56.27-1,.59-2,.76-3a12.17,12.17,0,0,1,4.26-7.13,36.05,36.05,0,0,1,5.77-4.47,31.06,31.06,0,0,1,9.46-3.74,1,1,0,0,0,.53-.37c.78-1.07,1.53-2.16,2.31-3.23a1.15,1.15,0,0,1,.51-.28A7.85,7.85,0,0,1,100.2,22a7.19,7.19,0,0,0,4-.63A24.9,24.9,0,0,1,112,18.72a17.12,17.12,0,0,1,6.38.16c1.36.36,1.55.21,1.58-1.17a7.11,7.11,0,0,0-2.69-6.05c-.87-.69-1.92-1.16-2.85-1.78A16.39,16.39,0,0,1,112,8a1.91,1.91,0,0,1-.46-1.46,26.55,26.55,0,0,1,.78-3.4c.26-1,1.3-1.16,2-1.7A12.53,12.53,0,0,1,116.41.28a3,3,0,0,1,3.19.5,15.33,15.33,0,0,1,6.19,8.47c.48,1.68,1.41,3.25,1.49,5.05s.16,3.79.14,5.68c0,.62.13.88.73,1q2.26.6,4.5,1.32a13.53,13.53,0,0,1,4.6,2.74c1.63,1.42,3.17,2.94,4.76,4.41A6.56,6.56,0,0,1,143.88,33a1.42,1.42,0,0,0,1.34,1.26,7.57,7.57,0,0,1,5.26,2.94,10.54,10.54,0,0,1,2.69,5.4c.37,2.48.91,4.93,1.25,7.41a25.62,25.62,0,0,1,0,3.39,5,5,0,0,0,.09,1.28,5.93,5.93,0,0,1-.12,3.26,25.74,25.74,0,0,0-.55,2.64c-.22,1.08-.38,2.18-.67,3.24-.77,2.87-1.61,5.71-2.39,8.57-1.2,4.35-3.41,8.29-5.14,12.41-.66,1.58-1.47,3.1-2.25,4.63-.24.46-.16.54.32.58,1.65.16,3.31.34,5,.55.19,0,.35.3.52.45-.21.13-.43.36-.64.36-1.4,0-2.8-.07-4.19,0a6.74,6.74,0,0,0-1.74.44c-.16.05-.28.23-.43.35.14.12.27.31.43.34a9.55,9.55,0,0,0,1.69.23c2.87,0,5.75,0,8.62.06a1.77,1.77,0,0,1,.44.11c-.14.11-.27.32-.41.32-1.83.08-3.66.12-5.49.19-.44,0-.87.22-1.31.24-1.2.07-2.41.08-3.61.14a2.11,2.11,0,0,0-.51.19,1.6,1.6,0,0,0,.48.19c2.07.09,4.13.14,6.19.26,1,.06,2,.27,3,.38.59.07,1.19.07,1.78.12.11,0,.21.12.31.18-.1.08-.19.2-.3.22a3,3,0,0,1-.6,0c-2.75,0-5.5.06-8.23-.14a38,38,0,0,0-4.42.25,2.06,2.06,0,0,0-.61.23,2.26,2.26,0,0,0,.6.14,69.34,69.34,0,0,1,10.59.18c.86.06,1.72.22,2.57.36.1,0,.19.13.28.2-.12.08-.25.22-.38.21-.73,0-1.47-.13-2.2-.14-2.6,0-5.21-.15-7.81-.07a32.37,32.37,0,0,0-4.46.64c-.17,0-.3.27-.45.41a1.77,1.77,0,0,0,.51.19h4.72Zm6.92-51,.09,0a16.71,16.71,0,0,0-.59-3.09,27.09,27.09,0,0,0-1.67-3c-.74-1.38-1.49-2.75-2.13-4.17-.3-.67-.7-.34-1.07-.29a.92.92,0,0,0-.07.67c.63,1.17,1.28,2.34,2,3.46a12.77,12.77,0,0,1,2.3,5.44,10.35,10.35,0,0,1,.13,2,3.92,3.92,0,0,1-.57,1.32c-.07.13-.32.16-.49.24a2.19,2.19,0,0,1-.14-.53c0-.61.11-1.21.13-1.81a7.36,7.36,0,0,0-1.05-4.5c-.56-.83-1-1.74-1.53-2.57a17,17,0,0,0-2.65-3.55c-.42-.39-.77-.86-1.18-1.26a.79.79,0,0,0-.53-.15,17.44,17.44,0,0,0-7.6,1.87c-1.35.59-2.64,1.3-4,1.92-.24.11-.66.2-.81.08-.53-.44-.87,0-1.26.17-.13.06-.21.24-.31.36a2.34,2.34,0,0,0,.46.09A3.24,3.24,0,0,1,131,42.24a3.61,3.61,0,0,1-.21.83c-.16-.22-.41-.41-.47-.64a2.64,2.64,0,0,0-1.84-1.85c-.18-.06-.43.06-.65.09a2.08,2.08,0,0,0,.28.58c.5.53,1.06,1,1.56,1.55a1.36,1.36,0,0,1,0,1.82,1.61,1.61,0,0,1-.3.21c-.07-.13-.15-.25-.22-.39-.24-.47-.46-1-.73-1.43-.08-.12-.34-.14-.51-.21a3.78,3.78,0,0,1,.06.47,20.63,20.63,0,0,1,0,2.08c0,.24-.31.46-.47.69a2.11,2.11,0,0,1-.12-.8,2.27,2.27,0,0,0-.72-2.29,6.71,6.71,0,0,0-1.47-.94,1.65,1.65,0,0,0-.52-.11,1.78,1.78,0,0,0,.11.54,3.83,3.83,0,0,1,.33,3.2,1.54,1.54,0,0,1-.3.48c-.07-.19-.22-.39-.2-.57A3.6,3.6,0,0,0,122.76,42a4.32,4.32,0,0,0-1.61-.3c.14.35.27.7.44,1s.31.3.36.48c.34,1.17.67,2.36,1,3.55,0,.11-.26.29-.41.44a2.29,2.29,0,0,1-.28-.41c-.31-.95-.55-1.93-.95-2.84a4.14,4.14,0,0,0-1.07-1.15c-.07-.07-.28,0-.42,0,0,.12,0,.28.13.35a2.32,2.32,0,0,1,.8,1.94,5.65,5.65,0,0,0,.42,2.53,5.91,5.91,0,0,1,.41,3.69c-.35,2.2-.76,4.4-1.25,6.57s-1.09,4.34-1.68,6.5c-.18.66-.55,1.27-.73,1.93-.66,2.4-1.27,4.81-1.91,7.22,0,.08-.12.14-.18.2s-.11-.15-.1-.22a2.81,2.81,0,0,1,.09-.49c.77-2.87,1.56-5.73,2.29-8.6.53-2.08,1-4.17,1.44-6.26s.9-3.88,1.25-5.84a13.11,13.11,0,0,0,0-2.51c0-.21-.09-.59-.18-.59-.61-.07-.54-.54-.55-.91a9,9,0,0,0-.92-3.65c-.57-1.2-.63-1.26-2-1.09-.2,0-.6-.12-.61-.24a1.2,1.2,0,0,1,.24-.69c0-.08.24-.07.37-.11a.55.55,0,0,0,.23-1,8.31,8.31,0,0,0-2.73-1.77c-3.07-.8-6.14-1.7-9.38-1.46-.59,0-1,.16-1,.82,0,.48-.3.64-.76.39a2.46,2.46,0,0,0-.66-.23c-2.64-.58-4.92.48-7.13,1.68-1.86,1-2.94,2.79-4.06,4.48-1,1.52-1.93,3.09-2.89,4.64-1.16,1.87-2.34,3.75-3.49,5.63,0,.06.09.34.13.34,1.26,0,.63.61.36,1.05-1,1.6-2.15,3.15-3.09,4.81A7.38,7.38,0,0,0,82,64.46a30.12,30.12,0,0,0-.22,3.16,1.63,1.63,0,0,0,.08.43,2,2,0,0,0,.24-.4,46.15,46.15,0,0,1,1.43-4.5,40.78,40.78,0,0,1,2.33-4.31,16.91,16.91,0,0,0,1.07-1.63c.73-1.65,1.34-3.35,2-5a5.43,5.43,0,0,1,.93-1.12c-.17.48-.31,1-.51,1.44a44.8,44.8,0,0,0-2,4.75c-.51,1.78-1.14,3.53-1.69,5.3-.41,1.34-.78,2.69-1.16,4a1.31,1.31,0,0,0,0,.39c.08-.08.2-.16.23-.26.3-.78.53-1.58.87-2.35.55-1.24,1.15-2.47,1.76-3.68.08-.15.36-.19.55-.28.07.2.24.43.2.61a4,4,0,0,1-.42.79,15.65,15.65,0,0,0-1,2c-.54,1.56-1,3.15-1.46,4.73-.19.6-.46,1.18-.59,1.79-.29,1.4-.59,2.81-.77,4.22a5.9,5.9,0,0,0,.63,3.9c0,.08.13.14.19.22a1.27,1.27,0,0,0,.15-.31c.37-1.93.67-3.88,1.11-5.8A27.79,27.79,0,0,1,88.66,66c.15-.29.59-.43.89-.63a5.69,5.69,0,0,1-.2.91A60.39,60.39,0,0,0,87,72.46a51.65,51.65,0,0,0-1.16,7,6.4,6.4,0,0,0,.31,2c0,.12.22.21.34.31a2.86,2.86,0,0,0,.15-.41c.12-.52.18-1.06.32-1.57.42-1.51.87-3,1.31-4.52.29-1,.54-2,.9-3,.1-.25.52-.39.79-.59a2.91,2.91,0,0,1,0,.84c-.31.91-.75,1.77-1,2.69-.36,1.39-.55,2.82-.89,4.21a14.22,14.22,0,0,0-.06,6.52,1.15,1.15,0,0,0,.17.33,1.82,1.82,0,0,0,.2-.36.57.57,0,0,0,0-.29c-.26-2.5.65-4.74,1.58-7,.11-.27.42-.45.63-.66a2.83,2.83,0,0,1,.07.86c-.31,1.3-.73,2.58-1,3.89s-.31,2.38-.5,3.57c0,.23-.28.62-.43.62-.57,0-.45.33-.44.67a18.46,18.46,0,0,1,.17,3.7c-.49,3.45-1.16,6.87-1.75,10.3-.08.47-.69,1.41.62.77.11-.05.29.07.44.11a2.59,2.59,0,0,1-.31.35c-.33.28-.8.47-1,.82a13.58,13.58,0,0,0-1.73,5,1,1,0,0,0,.21.54s.26,0,.35-.08.36-.34.55-.51.47-.29.59-.51c.64-1.13,1.24-2.29,1.85-3.44a20.23,20.23,0,0,1,1.14-2.1c.14-.2.62-.16.94-.24a3,3,0,0,1-.13.86c-.25.51-.57,1-.86,1.46-.76,1.28-1.5,2.57-2.29,3.84a7.28,7.28,0,0,1-1,1.09,3.38,3.38,0,0,1-.47.35c.33.14.78.5,1,.39a3.53,3.53,0,0,0,1.26-1.14c1.17-1.75,2.29-3.54,3.39-5.33.35-.56.58-1.2.92-1.77.11-.17.43-.22.65-.32,0,.22.16.47.1.66a15.15,15.15,0,0,1-2.69,5c-.75,1-1.52,1.93-2.27,2.9-.29.37-.27.58.28.59s1.27.13,1.9.16a9.75,9.75,0,0,0,1.71,0c.2,0,.4-.34.52-.56s0-.38,0-.57c-.23.09-.45.19-.68.27a8.35,8.35,0,0,1-1.51.5c-.3.06-.64-.14-1-.22a4.49,4.49,0,0,1,.54-1c.47-.5,1.17-.83,1.48-1.39,1.25-2.25,2.37-4.56,3.55-6.85a7,7,0,0,1,.53-.81c.07-.09.21-.12.31-.18,0,.14.13.3.09.42-.25.68-.52,1.35-.82,2-.63,1.39-1.28,2.78-1.93,4.17-.26.53-.55,1-.83,1.58.55-.37,1.11-.71,1.63-1.12a13.73,13.73,0,0,0,2.86-4,5.41,5.41,0,0,0,.54-1c.34-1.12.6-2.26,1-3.37.08-.25.39-.44.59-.65a2,2,0,0,1,.15.82,28.17,28.17,0,0,1-2.44,6.4,18.89,18.89,0,0,1-2.21,2.75,1.86,1.86,0,0,0-.19.81c.23,0,.52,0,.69-.08a4,4,0,0,0,1-.86,16.72,16.72,0,0,0,3-5.27c.42-1.4,1-2.75,1.51-4.13.28-.78.48-1.58.76-2.36a2.22,2.22,0,0,1,.46-.57c.07.25.15.49.21.74a.76.76,0,0,1,0,.3c-.38,1.16-.68,2.36-1.14,3.49-.9,2.16-1.89,4.28-2.83,6.42a1.34,1.34,0,0,0-.07.27.94.94,0,0,0,.37,0,.82.82,0,0,0,.39-.26c.62-1,1.3-1.92,1.82-3a36.74,36.74,0,0,0,1.73-4,14,14,0,0,0,1.29-5.29,2,2,0,0,1,.07-.89.72.72,0,0,1,.56-.39c.18,0,.41.29.48.5a1.52,1.52,0,0,1-.07.69c-.39,1.72-.77,3.44-1.18,5.16a5.83,5.83,0,0,1-.4,1c-.54,1.25-1.12,2.48-1.63,3.74a12.83,12.83,0,0,1-3,4.35c-.51.5-.82.41-1.18-.2a.39.39,0,0,0-.37-.08c-.78.67-1.55,1.36-2.31,2a1.11,1.11,0,0,0-.18.32c.12,0,.25.12.35.09a6.78,6.78,0,0,0,1.83-.51c1.46-.86,2.89-1.79,4.27-2.78.29-.21.29-.82.44-1.24a.42.42,0,0,1,.1-.17,6.71,6.71,0,0,0,1.73-3.06c.37-1.37,1-2.66,1.51-4,.22-.63.21-1.34.48-1.94a7.93,7.93,0,0,0,.7-5.11c0-.12,0-.32,0-.39.61-.63.29-1.47.5-2.18a2.71,2.71,0,0,1,.45-.65c.18.24.5.48.51.73a13.57,13.57,0,0,1-.12,1.79,32.44,32.44,0,0,1-2.06,8.75c-.63,1.73-1.39,3.41-2.08,5.11a1.14,1.14,0,0,0,0,.37c.12,0,.27,0,.35,0a9.78,9.78,0,0,0,1.77-1.61,27.49,27.49,0,0,0,3.63-10c.28-1.44.33-2.92.54-4.38,0-.24.33-.45.51-.68a3.08,3.08,0,0,1,.53.7,1.22,1.22,0,0,1,0,.7c-.23,1-.57,2-.72,3a54.72,54.72,0,0,1-2.32,8.7,3.8,3.8,0,0,0,0,1.12c.35-.24.7-.46,1-.71.09-.07.09-.25.14-.37a11.43,11.43,0,0,1,.68-1.65c1.52-2.45,1.75-5.31,2.61-8a31.57,31.57,0,0,0,.65-3.54c0-.2.28-.36.43-.54.09.24.31.5.27.72-.18,1-.4,2.1-.64,3.14-.42,1.81-.76,3.66-1.32,5.43a45.55,45.55,0,0,1-2,4.75,21.34,21.34,0,0,1-1.4,2.63c-.14.22-.53.3-.83.39-.06,0-.3-.26-.29-.38,0-.45.17-.89.26-1.33l-1,.9c-.51.46-1,.92-1.55,1.39a1.11,1.11,0,0,0-.18.32,2.33,2.33,0,0,0,.38,0c1.27,0,2.53.09,3.8.12.18,0,.45,0,.55-.14a8.75,8.75,0,0,0,1.14-1.64c.73-1.58,1.37-3.19,2-4.79.44-1,1-2.06,1.32-3.14.59-1.91,1-3.86,1.56-5.8,1.21-4.49,2.6-8.94,2.69-13.65,0-.14.12-.27.19-.4.12.1.33.19.35.31a5.56,5.56,0,0,1,.08,1.57c-.44,2.52-.93,5-1.4,7.55-.12.62-.21,1.25-.39,1.85-.27.91-.62,1.8-.91,2.71,0,.13,0,.3.09.45.14-.1.36-.17.42-.31.71-1.73,1.43-3.45,2.06-5.2.38-1.07.52-2.22.92-3.27a29.64,29.64,0,0,0,2.2-8.52,123.29,123.29,0,0,1,1.92-14.33,1.41,1.41,0,0,1,.21-.38c.08.13.23.25.25.39a3.38,3.38,0,0,1-.1.69c-.3,2-.66,4-.9,6-.37,3.22-.61,6.45-1,9.67a30,30,0,0,1-1,4.57c-.51,1.79-1.2,3.53-1.79,5.3-.42,1.26-.77,2.55-1.23,3.81-.28.77-.73,1.48-1,2.24a1.76,1.76,0,0,0,0,.69c.22-.14.54-.23.65-.43.46-.93.92-1.87,1.29-2.84.89-2.3,1.82-4.6,2.56-7A66.83,66.83,0,0,0,122.78,74c.81-4.64,1.43-9.33,1.93-14,.33-3.09.3-6.22.44-9.33a4.21,4.21,0,0,1,.19-.67,1.9,1.9,0,0,1,.23.61c-.1,3.33-.16,6.67-.34,10-.12,2.1-.43,4.19-.65,6.28-.19,1.76-.3,3.53-.56,5.29-.2,1.34-.57,2.67-.86,4-.34,1.48-.64,3-1,4.44-.26,1-.67,2-1,3-.47,1.53-.82,3.11-1.39,4.6s-1.55,3-2.05,4.53c-.41,1.27-1.47,2.71.15,4,.31.25.26.35.49-.12a78.27,78.27,0,0,0,4-10.49,19.07,19.07,0,0,1,1.48-3c.07-.13.32-.17.49-.25a2,2,0,0,1,0,.55c-.54,1.72-1.07,3.44-1.67,5.14-.33.94-.8,1.83-1.19,2.75-.26.61-.51,1.24-.74,1.87-.47,1.23-.87,2.5-1.39,3.71-.64,1.47-1.37,2.9-2,4.35a1.32,1.32,0,0,0,0,.53,1.56,1.56,0,0,0,.5-.25c.14-.14.17-.36.28-.53.44-.7.88-1.41,1.36-2.09.35-.5.81-.94,1.15-1.45s.66-1.16,1-1.75c.59-1.12,1.25-2.21,1.75-3.38,1.1-2.57,2.12-5.18,3.17-7.78a1.66,1.66,0,0,0,0-.45,2.17,2.17,0,0,0-.38.16c-.13.09-.24.21-.36.31a2.57,2.57,0,0,1,0-.48,1.52,1.52,0,0,1,.18-.46c1.2-2.07,2.38-4.15,3.61-6.2a13.06,13.06,0,0,0,1.71-4.21c.57-2.85,1.06-5.71,1.61-8.56a8.82,8.82,0,0,1,.49-1.42c0-.12.23-.18.34-.27a1.23,1.23,0,0,1,0,.38c-.15.65-.37,1.28-.49,1.94-.39,2.26-.65,4.54-1.16,6.77a17,17,0,0,1-1.86,5.33c-1.17,1.9-2.3,3.81-3.42,5.73a1.71,1.71,0,0,0-.12.65c1,.14.47.85.31,1.19-1.43,3.26-2.17,6.81-4.08,9.88-1,1.53-1.79,3.13-2.71,4.68-.55.94-1.15,1.86-1.72,2.8-.32.51-.62,1-.92,1.55l-1.32,2.24c-.75,1.29-1.51,2.57-2.27,3.87a3.35,3.35,0,0,0-.14.38c.17,0,.37,0,.49-.1a6.67,6.67,0,0,0,1.8-2.31c1-1.74,2.1-3.48,3.16-5.21a2.27,2.27,0,0,1,.41-.41,9.1,9.1,0,0,0,1.28-1.36q1.8-3,3.49-6.06.94-1.69,1.74-3.48c.37-.83.58-1.74.93-2.59,1.28-3.11,2.6-6.2,3.89-9.3a13.71,13.71,0,0,0,.47-1.41c.84-2.67,1.66-5.35,2.5-8a9.12,9.12,0,0,1,.45-1c-.08.35-.13.7-.22,1-.63,2.59-1.12,5.22-1.93,7.75s-1.94,5-2.94,7.55a34,34,0,0,0-1.82,4.66,25.31,25.31,0,0,1-2.28,5.41,55.06,55.06,0,0,1-2.89,5c-.79,1.26-1.67,2.46-2.54,3.66-.73,1-1.52,2-2.27,2.94a4.09,4.09,0,0,0-.33.7,4.48,4.48,0,0,0,.66-.32,22.51,22.51,0,0,0,6-7.72c1-1.82,2.14-3.53,2.95-5.45.68-1.58,1.45-3.13,2.12-4.73.75-1.78,1.49-3.58,2.13-5.41,1.14-3.27,2.21-6.57,3.32-9.85.59-1.76,1.19-3.52,1.82-5.26a22.23,22.23,0,0,0,1.22-4.93c.22-1.73.52-3.44.8-5.15.17-1,.47-1.94.54-2.92a22.86,22.86,0,0,0-.18-2.59c-.05-1.13,0-2.26-.09-3.37-.05-.72-.31-1.43-.43-2.14a1.68,1.68,0,0,1,.16-.62c.14.12.35.22.41.37a6.27,6.27,0,0,1,.75,2.06,67.66,67.66,0,0,1-.23,7.12c-.22,2.36-.7,4.69-1.11,7a44.32,44.32,0,0,1-1,4.58c-.85,2.95-1.81,5.88-2.73,8.81-.86,2.71-1.68,5.43-2.62,8.11-.5,1.43-1.26,2.77-1.85,4.17s-1.17,3.11-1.88,4.61c-.92,2-2,3.83-2.95,5.75a14.42,14.42,0,0,1-.9,1.9c-1.11,1.54-2.26,3-3.47,4.5a10,10,0,0,1-1.93,1.73c-1.15.82-2.52,1.35-3.17,2.75,0,.1-.18.15-.28.23a1.39,1.39,0,0,0,.33.1,5.76,5.76,0,0,0,3.82-1.29,20.34,20.34,0,0,0,3-3.62c1.17-1.7,2.24-3.48,3.29-5.26q1.41-2.36,2.68-4.8c.72-1.39,1.35-2.82,2-4.25,1.05-2.34,2.15-4.67,3.07-7.07.87-2.25,1.54-4.58,2.28-6.88q.89-2.75,1.71-5.52c.37-1.24.69-2.49,1-3.74l.75-2.69a4,4,0,0,0,.26-.86,22.87,22.87,0,0,1,1.42-7.32,4.43,4.43,0,0,0,.08-1c.12-1.29.24-2.58.4-3.86,0-.16.29-.29.45-.44a2.17,2.17,0,0,1,.37.52,2.07,2.07,0,0,1,0,.6,24.06,24.06,0,0,1-1.29,6.61,25.74,25.74,0,0,0-.6,4.34A47.38,47.38,0,0,1,139,70.45c-.75,2.76-1.59,5.5-2.42,8.23-.45,1.46-.94,2.92-1.45,4.36-.46,1.27-1,2.53-1.47,3.78-.66,1.67-1.28,3.35-2,5-1,2.18-2,4.35-3.13,6.47-1,1.93-2.15,3.82-3.29,5.68-1,1.62-2.09,3.19-3.13,4.78a2.26,2.26,0,0,0-.17.43c.18,0,.41,0,.53-.14a11.2,11.2,0,0,0,1.61-1.62c1.08-1.54,2.14-3.09,3.07-4.72,1.42-2.49,2.77-5,4.05-7.59,1-2,1.84-4,2.74-6.09,1-2.21,1.93-4.44,2.9-6.65a3.84,3.84,0,0,0,.28-.53c.35-1.4.62-2.82,1-4.2.57-2,1.24-3.93,1.85-5.89.18-.57.3-1.16.46-1.74.22-.77.43-1.54.66-2.3.43-1.43.92-2.85,1.29-4.29.26-1,.32-2,.55-3,.46-2.08.89-4.17,1.49-6.2.5-1.73-.1-3.75,1.36-5.21.52-2.22.85-4.41-.27-6.57a13.39,13.39,0,0,1-.7-2c0-.09.07-.23.11-.34.1.06.26.1.3.2a18.19,18.19,0,0,1,1.61,4.58,13.47,13.47,0,0,1-.16,4c-.1.7-.07,1.21-.91,1.31-.13,0-.28.36-.31.57a12.81,12.81,0,0,1-.57,3.11,15.1,15.1,0,0,0-.51,2.35c-.67,2.92-1.35,5.85-2,8.77-.5,2.19-.85,4.43-1.56,6.55-1.17,3.42-1.6,7-3.16,10.36a56.33,56.33,0,0,0-1.95,5.42,22.76,22.76,0,0,1-.78,2.14c-1.2,2.64-2.53,5.23-3.64,7.91a56,56,0,0,1-4.92,8.44,4.35,4.35,0,0,0-.37,1,6.79,6.79,0,0,0,1-.69,25.38,25.38,0,0,0,3.9-6.16c1.32-2.51,2.52-5.08,3.73-7.64.85-1.81,1.7-3.62,2.41-5.49.63-1.63,1-3.36,1.6-5,.86-2.54,1.84-5,2.64-7.59.58-1.82.89-3.73,1.42-5.57s1.18-3.61,1.76-5.41c.47-1.49,1-3,1.35-4.47s.5-2.84.7-4.27c.16-1.08.26-2.17.4-3.25a11.9,11.9,0,0,1,.27-1.69c0-.19.37-.31.56-.46a1.61,1.61,0,0,1,.15.59q-.37,2.09-.78,4.17c-.27,1.33-.54,2.65-.83,4-.2.93-.43,1.85-.66,2.77s-.4,1.6-.6,2.4c-.47,1.88-.95,3.76-1.41,5.64-.3,1.25-.53,2.54-.9,3.77-.53,1.75-1.16,3.46-1.75,5.18-.26.79-.5,1.6-.8,2.38a18.16,18.16,0,0,0-1.11,3.56A14.58,14.58,0,0,1,138,86c-.17.42-.38.83-.52,1.26a13.81,13.81,0,0,1-.37,1.44c-1,2.35-2.07,4.68-3.13,7-.6,1.3-1.21,2.6-1.89,3.87-.52,1-1.15,1.86-1.72,2.8a1.72,1.72,0,0,0-.11.46,4.09,4.09,0,0,0,.47-.23.67.67,0,0,0,.21-.2c.83-1.37,1.71-2.69,2.45-4.1,1.28-2.46,2.47-4.95,3.67-7.44,1-2,1.9-3.95,2.8-5.95a38.22,38.22,0,0,0,2-5c.66-2.23,1.47-4.42,2-6.69.71-2.88,1.64-5.71,2.47-8.56a1.48,1.48,0,0,1,.21-.3c0,.14.17.28.14.4-.3,1.39-.58,2.79-1,4.16a14.08,14.08,0,0,0-.91,2.48,12.89,12.89,0,0,1-.72,3.28c-.54,1.61-.88,3.3-1.49,4.88-1.18,3.1-2.46,6.17-3.77,9.22-1,2.35-2.21,4.62-3.19,7a36.8,36.8,0,0,1-4,7c-.06.09,0,.24,0,.37a1.37,1.37,0,0,0,.38-.2c.88-.87,1.7-1.81,2.62-2.62s.73-2.45,2.06-3c0,0,.06-.06.05-.08-.31-.92.5-1,1-1.4a1.93,1.93,0,0,0,.52-.94c.29-.93,1.23-1.57,1.19-2.66,0-.08.25-.18.39-.28s.44-.24.54-.43c1.16-2,2.76-3.82,3.65-6.07,1.18-3,2.62-5.82,4-8.71.37-.81.94-1.53,1.23-2.36.62-1.74,1.1-3.53,1.66-5.29a17.2,17.2,0,0,0,1-4,32.78,32.78,0,0,1,1-4.39c.26-1.22.43-2.46.63-3.7,0-.08,0-.17-.07-.26s-.18.1-.22.18c-.31.73-.58,1.47-.92,2.19-.45,1-.94,1.91-1.41,2.86a.86.86,0,0,1-.18.2c0-.08-.06-.17,0-.24a30.85,30.85,0,0,1,1.42-3.84A12.84,12.84,0,0,0,153.53,51a80,80,0,0,0-1.63-8.77A5.59,5.59,0,0,0,151,40c-.87-1.15-1.91-2.18-2.9-3.25a1.62,1.62,0,0,0-.51-.25c0,.21-.09.46,0,.63.73,1.47,1.44,3,2.24,4.38a11.28,11.28,0,0,1,1,7c0,.1,0,.23-.09.28a1.86,1.86,0,0,1-.42.22,1.63,1.63,0,0,1-.11-.42C150.3,48,150.39,47.32,150.46,46.66ZM100.38,23.22c-.44,0-.87,0-1.31,0a3.89,3.89,0,0,0-3.8,2.07c-.2.36-.38.74-.57,1.11.46-.05.93-.08,1.39-.14.08,0,.14-.16.23-.18a1.18,1.18,0,0,1,.37,0c-.06.13-.07.32-.17.38a1.85,1.85,0,0,1-.65.26c-1,.25-2.06.42-3.06.72a31.49,31.49,0,0,0-8.5,3.69,38.35,38.35,0,0,0-6.72,5.27,10.57,10.57,0,0,0-3,5.27c-.25,1.14-.67,2.24-.95,3.38a2,2,0,0,0,1,2.55,7.45,7.45,0,0,1,1.52,1.33c1.1,1.38,2.16,2.79,3.13,4.26a12.66,12.66,0,0,1,2,4.36c.23,1.18.48,2.35.73,3.53a2.86,2.86,0,0,0,.2.44,1.24,1.24,0,0,0,.18-.22c.65-1.31,1.31-2.62,1.94-3.94.25-.54.38-1.14.62-1.69s.89-1.19.78-1.66c-.18-.78.4-.81.67-1.15a.56.56,0,0,0,.05-.08c.53-1,1-2,1.61-3.06,1.31-2.33,2.65-4.64,4-7a2.44,2.44,0,0,0,.14-.34c-.14,0-.34,0-.41.14a29.29,29.29,0,0,0-2.64,3.59c-1.06,1.93-1.88,4-2.8,6a2,2,0,0,1-.24.28c0-.14-.08-.3,0-.41.53-1.26,1-2.54,1.61-3.76A56.84,56.84,0,0,1,90.37,43c.69-1.08,1.81-1.87,2.61-2.88A14,14,0,0,1,97.59,36a5.4,5.4,0,0,1,3.68-.51c.63.12,1.28.17,1.92.25-.13-.71-.25-1.42-.4-2.12a1.08,1.08,0,0,0-.24-.43,10.64,10.64,0,0,0-4-3.45,1.05,1.05,0,0,1-.51-.31,4.45,4.45,0,0,1-.37-.83c.32,0,.69-.22.94-.11a9.58,9.58,0,0,1,1.64,1,8.69,8.69,0,0,1,4,5.13,1.51,1.51,0,0,0,.12.26c.06-.1.17-.21.15-.3a11.15,11.15,0,0,0-.66-3.38,32.45,32.45,0,0,0-2.9-3.89,3,3,0,0,1-.3-.88,5.71,5.71,0,0,1,1.1.06c.16,0,.3.25.42.41.77,1,1.56,2,2.29,3a4.15,4.15,0,0,1,.54,1.28c.18.67.26,1.37.44,2a1.22,1.22,0,0,0,.44.54c.34-.19.92-.47.91-.69a12.23,12.23,0,0,0-.5-3,8.77,8.77,0,0,0-2.71-3.88c-.27-.23-.69-.52-.26-.87a1,1,0,0,1,1,.05c2.12,1.91,3.57,4.16,3.37,7.17,0,.22.2.46.31.69.12-.21.37-.43.34-.62a38.39,38.39,0,0,0-.76-4.54,16.46,16.46,0,0,0-1.29-2.68,3.51,3.51,0,0,1-.16-.73c.28,0,.67-.07.83.09a4,4,0,0,1,1,1.25,14.45,14.45,0,0,1,1.41,6.41,2.46,2.46,0,0,0,.09.44c.14-.11.38-.2.4-.33a8.07,8.07,0,0,0,.27-2.55c-.32-1.7-.88-3.35-1.33-5a4.68,4.68,0,0,1-.06-.84,5.88,5.88,0,0,1,.87.52c.1.08.07.32.14.47.45,1,.91,1.91,1.4,2.85.1.19.39.28.59.41a3.05,3.05,0,0,0,.14-.77c0-.66-.14-1.32-.17-2,0-.15.19-.3.3-.45.14.11.32.2.39.34a4.73,4.73,0,0,1,.45,3.2,2.93,2.93,0,0,0,.17,1c.25-.27.66-.52.7-.82a10.34,10.34,0,0,0,0-2.36c-.08-.93-.29-1.84-.42-2.76a1.08,1.08,0,0,1,.1-.45c.08,0,.21,0,.24.1a5.57,5.57,0,0,1,.81,1.69,30.84,30.84,0,0,1,0,3.47c0,.32,0,.52.43.37,1-.34,1.19-.6,1-1.69-.09-.63-.28-1.24-.36-1.86a2.23,2.23,0,0,1,.19-.77c.18.17.44.31.53.52a11,11,0,0,1,.34,1.25,2,2,0,0,0,.25.39c.12-.1.28-.19.34-.32.73-1.82,1.44-3.65,2.17-5.48.2-.49.06-.73-.49-.81a21.47,21.47,0,0,0-10.77,1c-1.81.66-3.43,1.85-5.44,2ZM117.29,1.63c-1.6-.06-3.78,1.54-4,3-.15,1-.71,2.13.39,3a16.61,16.61,0,0,0,1.59,1,11.22,11.22,0,0,1,4.07,3.12c.24.36.5.7.73,1.07a6.76,6.76,0,0,1,1,5.29c-.54,2.1-1.58,4.07-1.61,6.3a1,1,0,0,1-.07.29,23,23,0,0,1-3.28,5.72,38.56,38.56,0,0,1-3.29,3.6,9.16,9.16,0,0,1-1.33,1.07c-.08.06-.28,0-.43-.06.08-.09.14-.19.22-.28,1.06-1.2,2.13-2.39,3.18-3.61a9.57,9.57,0,0,0,.71-1.08,9.71,9.71,0,0,0-1.28.35,2.25,2.25,0,0,1-2.18,0,3.46,3.46,0,0,1-.31-.22,1.54,1.54,0,0,0-.1.44,2.05,2.05,0,0,1-.58,2.11,12.64,12.64,0,0,1-1.29,1.15c-.75.52-.78.7,0,1.19.43.27.85.55,1.24.85a1.56,1.56,0,0,1,.28.45,1.9,1.9,0,0,1-.54-.07c-.36-.16-.7-.38-1.06-.55a3.37,3.37,0,0,0-3.68.2,1,1,0,0,0-.31.72c0,.13.37.33.58.35,2,.22,4.07.31,6.06.64a11.87,11.87,0,0,1,5,1.81,3.9,3.9,0,0,0,1.76.57c1.47.19,3,.26,4.44.41.49,0,.75,0,.56-.57a19.12,19.12,0,0,0-1-2.63,9.89,9.89,0,0,1-.85-6.05c.06-.56.08-1.13.17-1.68.27-1.81.55-3.62.86-5.42.06-.37.26-.67.51-.06,0,0,.38-.06.41-.16a8.58,8.58,0,0,0,.38-1.34c.19-.91.4-1.83.5-2.76a1,1,0,0,0-.4-.83c-.59-.26-.53.3-.55.62a9,9,0,0,0,0,1.37c0,.39.06.73-.47.82s-.72-.29-.69-.72a7.38,7.38,0,0,1,.28-1.46,10.56,10.56,0,0,0-.34-7.64,1.12,1.12,0,0,1,.1-.82c1.18-.21.59-1.06.41-1.45a40.82,40.82,0,0,0-2-3.6A16.37,16.37,0,0,0,120,4.57a9,9,0,0,1-1.45-2C118.25,1.8,117.94,1.52,117.29,1.63Zm25.07,32.23c.29-.13.74-.19.83-.4s-.11-.62-.26-.91-.41-.44-.57-.69c-1.64-2.58-4.17-4.18-6.54-6-.11-.09-.37-.05-.54,0-1.66.49-2.75,1.79-3.93,2.93a6.17,6.17,0,0,0-1.1,1.88c-.16.36-.05.87.48.68a4.43,4.43,0,0,0,1.47-1c.16-.15,0-.58.06-.88a1.17,1.17,0,0,1,.28-.69c.75-.56,1.52-1.06,2.31-1.55.12-.08.34,0,.51,0,0,.19.06.43,0,.56s-.36.23-.55.35c-.55.35-1.11.7-1.65,1.07-.08.06-.08.22-.11.33a1.43,1.43,0,0,0,.35-.06,8.13,8.13,0,0,1,1.42-.7c.32-.09.72.13,1.08.22-.23.24-.41.61-.69.7a5.55,5.55,0,0,0-2.46,2c-.16.19.16.81.26,1.23.19-.1.39-.18.57-.29,1.05-.69,2.1-1.41,3.17-2.08.15-.09.41,0,.62,0-.06.21-.07.48-.2.61s-.63.38-.9.62c-.59.51-1.17,1-1.71,1.6-.3.31-.19.58.12.93s.48.47.89.24a4.38,4.38,0,0,1,.74-.29A13.32,13.32,0,0,1,142.36,33.86Zm-19.74-1c.09.65.21,1.3.28,2a11.53,11.53,0,0,0,1.57,4.49c.16.29.63.4,1,.59.14-.23.26-.47.4-.7a4.79,4.79,0,0,1,.54-.79,4.88,4.88,0,0,1,2.33-1.29,15.44,15.44,0,0,0,2.68-1.07c1.56-.79,1.53-.81.65-2.32-.24-.42-.43-.74-1-.46-.4.2-.53,0-.66-.43s-1.4-.81-1.83-.43c-.07.07,0,.34,0,.47a3,3,0,0,0,2,1.48c.46.12.8.4.61,1s-.63.49-1.07.3c-.15-.07-.29-.17-.44-.24-.37-.18-.66-.34-.61.35,0,.2-.45.45-.71.66s-.32.07-.4.17c-.73.82-1.46,1-2.14.26a6.68,6.68,0,0,1-2.2-4.16c-.08-1.7-.13-3.4-.22-5.1a1.51,1.51,0,0,0-.17-.49,2.73,2.73,0,0,0-.19.52C122.92,29.37,122.77,31.13,122.62,32.91ZM84.25,113.85v-.06l-.59.17a3.57,3.57,0,0,0,.61.19c.26,0,.53,0,.8,0l6.27.1c1.93,0,3.86.1,5.79.12.24,0,.64-.1.69-.25.29-.83,1-.74,1.58-.7,1.3.09,2.6.26,3.89.39.19,0,.45.1.56,0a3.81,3.81,0,0,1,2.64-.77c.08,0,.17-.14.25-.22-.08,0-.17-.14-.24-.13-1.32.14-2.66.51-3.87-.39a.17.17,0,0,0-.1,0,12.91,12.91,0,0,0-3.67,0c-.81.23-1.73.39-2.33-.56-.07-.1-.36-.11-.53-.08-.89.19-1.77.39-2.65.6a2,2,0,0,0-.46.27c.15,0,.3.1.45.13,1,.19,2,.37,2.93.58.17,0,.29.22.43.34a1.47,1.47,0,0,1-.49.12c-1-.07-1.91-.23-2.86-.26-2.08,0-4.16-.09-6.23,0A23.17,23.17,0,0,0,84.25,113.85Zm23.92-3.93v.15c.7,0,1.4,0,2.1,0,.11,0,.22-.17.34-.26-.34-.28-.67-.79-1-.8-1.66-.07-3.33,0-5,0-.53,0-1,.16-1.58.2-.14,0-.39-.09-.4-.16a.66.66,0,0,1,.12-.53,1.16,1.16,0,0,1,.65-.25c.93-.1,1.86-.15,2.78-.27a3.18,3.18,0,0,0,.85-.37c-.27-.12-.54-.38-.8-.36a8.45,8.45,0,0,0-3,.36c-1.87.9-3.61,2.1-5.4,3.19,0,0,.07.26.11.26.87.07,1.74.12,2.6.14a.48.48,0,0,0,.33-.33c0-.79.49-1,1.13-1Zm8.77-13-.19-.33c-.37.25-.91,0-1.17.69a45.63,45.63,0,0,1-1.9,4.15c-.84,1.67-1.72,3.32-2.59,5a2.91,2.91,0,0,1-.46.47c-.18.19-.35.4-.52.6a3,3,0,0,0,.68.53,2.82,2.82,0,0,0,1.18.16c.28,0,.53-.31.79-.5,0,0-.09-.24-.15-.25-.87-.11-1-.4-.47-1.13.67-1,1.37-1.88,2-2.84A17.94,17.94,0,0,0,116.94,97Zm9.19-82.21.09,0c-.17-.74-.31-1.5-.54-2.22s-.6-1.4-.86-2.11c-1-2.71-2.14-5.33-4.42-7.26a5.75,5.75,0,0,0-1-.59,1,1,0,0,0-.36-.06,1.5,1.5,0,0,0,.14.36c.56.7,1.14,1.39,1.7,2.08a14.66,14.66,0,0,1,2.66,4.75c.59,1.91,1.07,3.84,1.63,5.76a5.19,5.19,0,0,0,.53,1c.15-.39.32-.77.45-1.17A1.23,1.23,0,0,0,126.13,14.74Zm.29,4.1-.17,0c0-.1,0-.2,0-.3s0-.35-.08-.52a2.18,2.18,0,0,0-.17.53,9.33,9.33,0,0,1,0,1.59c-.3,1.18-.74,2.32-1.06,3.5a10.52,10.52,0,0,0-.54,2.63c0,1.87.11,3.73.22,5.6a6.58,6.58,0,0,0,.28,1.36c.12.44.29.87.4,1.31.19.77,1,1.71,1.61,1.76.16,0,.33-.11.5-.17l-.3-.33c-.49-.53-1-1-1.46-1.59-.12-.15,0-.48,0-.73.31.07.68,0,.9.22.41.33.69.83,1.11,1.16a3.33,3.33,0,0,0,1,.38c-.18-.28-.3-.66-.56-.82-1.25-.76-1.7-2.1-2.41-3.25a3,3,0,0,1-.27-2.68,1,1,0,0,0,0-.58c-.57-1.65,0-3.25.2-4.85C125.74,21.61,126.13,20.23,126.42,18.84Zm5,4.43c-1.54,0-3.88,2.06-4.17,3.4a1.22,1.22,0,0,0,0,.27c.13-.05.32-.06.4-.15a7.17,7.17,0,0,1,3.08-2.31,4.27,4.27,0,0,1,1.11-.26c.22.58-.37.54-.65.75a.91.91,0,0,0-.16.31,1.18,1.18,0,0,0,.27,0c.57-.18,1.14-.38,1.72-.54a3.29,3.29,0,0,1,.7,0,2.54,2.54,0,0,1-.51.48,8.5,8.5,0,0,0-4.72,5.28,1.84,1.84,0,0,0,0,.57,2.24,2.24,0,0,0,.45-.42,9.39,9.39,0,0,1,1.31-2.06c1.31-1.15,2.78-2.13,4.17-3.2a.67.67,0,0,0,.11-.52C133.4,24.27,132.27,23.71,131.38,23.27ZM115.44,94.52l-.15-.08-.11-.44c-.11.1-.27.17-.34.3-.22.41-.38.85-.61,1.26A24.44,24.44,0,0,0,112.79,98c-.91,2.21-1.72,4.46-2.56,6.7a1.35,1.35,0,0,0,0,.45c.13-.08.32-.11.39-.23.43-.7.87-1.41,1.24-2.14.73-1.46,1.46-2.91,2.11-4.4C114.51,97.14,115,95.82,115.44,94.52Zm-33-21.89c.09.37.27,1.08.45,1.79a.86.86,0,0,0,.1.16,1.48,1.48,0,0,0,.1-.27c.14-.83.22-1.66.41-2.46.24-1,.59-2,.83-3a5.32,5.32,0,0,0,0-1.2c-.7.25-.4-.26-.33-.49.48-1.72,1-3.44,1.48-5.16a1.45,1.45,0,0,0,0-.36c-.1.05-.25.08-.3.16a13.33,13.33,0,0,0-.76,1.51A31.69,31.69,0,0,0,82.41,72.63Zm18.91-34.85c.58-.11,1.16-.2,1.74-.34.14,0,.24-.24.35-.37-.22-.17-.41-.45-.66-.49a5.69,5.69,0,0,0-1.07.1,17.13,17.13,0,0,0-2.48,0c-1.88.27-3.06,1.75-4.49,2.8a2.56,2.56,0,0,0-.46.64c.26-.1.52-.18.77-.29s.38-.26.59-.37A14.42,14.42,0,0,1,101.32,37.78Zm4.33,74v-.16c1.57,0,3.13,0,4.7,0,.16,0,.32-.21.48-.33a1.82,1.82,0,0,0-.58-.28c-1.72-.1-3.44-.21-5.16-.26-.86,0-1.72.07-2.58.13-.14,0-.27.17-.4.25a1.12,1.12,0,0,0,.4.24C103.56,111.53,104.6,111.66,105.65,111.8Zm20.94-86.87.09.47c.1-.15.21-.29.32-.43a2.67,2.67,0,0,1,.38-.44c.48-.4,1-.77,1.46-1.19.15-.14.16-.43.23-.64a9.7,9.7,0,0,0-1.82-.29c-.17,0-.4.59-.48.94A11.68,11.68,0,0,0,126.59,24.93Zm-13.11,83.72c.22-.18.36-.24.42-.35,1-1.68,2-3.36,3-5,.06-.1,0-.29-.08-.44-.14.07-.34.1-.41.22-.38.58-.73,1.18-1.08,1.78-.64,1.09-1.27,2.18-1.88,3.29C113.39,108.21,113.46,108.39,113.48,108.65Zm-28.26,3.19v.06a4,4,0,0,0-1.09,0,3.84,3.84,0,0,0-.91.57c.1.11.21.33.3.32,1.15-.12,2.3-.27,3.45-.42.11,0,.22-.08.34-.11-.11-.1-.2-.25-.32-.27C86.4,111.94,85.81,111.9,85.22,111.84Zm44.48-6.49-.07-.27c-.17-.06-.44-.22-.49-.17-.47.51-.91,1.06-1.34,1.6,0,0,.09.14.14.21Zm-5.62-87.86.25.65c.25-.24.66-.48.68-.75s-.27-.65-.43-1C124.41,16.76,124.25,17.12,124.08,17.49Zm.77,90.76c.7,0,.8-.07.76-.6a1.56,1.56,0,0,0-.21-.48l-1,.9ZM129,27.17l.69-.76s-.1-.11-.15-.17l-.67.64S128.94,27,129,27.17Z"/><path d="M81.76,95.55c.38,2.44-.35,4.85-1,7.28-.22.83-.41,1.68-.59,2.53a27.24,27.24,0,0,1-3.56,8.84,26.18,26.18,0,0,1-3,3.7A16.31,16.31,0,0,1,71.06,120a4.27,4.27,0,0,1-2.6,1c-1.17,0-2.34.19-3.51.29a2.42,2.42,0,0,1-.89,0,47.54,47.54,0,0,1-5.16-1.93A25.7,25.7,0,0,1,55,116.79c-2.33-1.68-4.63-3.41-6.92-5.14-.72-.54-1.38-1.15-2-1.74-.09-.07-.11-.2-.17-.31a1.28,1.28,0,0,1,.35.06c1,.51,2.12,1,3.14,1.55a2.58,2.58,0,0,0,2.51,0c2.47-1.18,4.93-2.38,7.37-3.62a12.11,12.11,0,0,0,2-1.44c.16-.14.12-.51.17-.78-.23,0-.53-.19-.7-.1-1.15.58-2.28,1.22-3.43,1.82-1.76.91-3.5,1.86-5.31,2.67a10.84,10.84,0,0,1-2.44.56c-.13,0-.4,0-.43-.1-.38-1.1-1.51-1.41-2.22-2.16-.29-.3-.57-.47-.37-1a2.21,2.21,0,0,0-.12-1.15,4.28,4.28,0,0,1,.79-4.06c.32-.38.62-.59.94.08s.59.47.86-.11c.47-1,1-1.31,1.67-1a2.91,2.91,0,0,1,1,1.23c.15.26.06.65.12,1s-.46.83.3.93a1,1,0,0,0,1.31-.88,2.83,2.83,0,0,0,0-.3,1.52,1.52,0,0,0-.67-1.28,3.48,3.48,0,0,1-1-1.27c-.09-.2.2-.57.3-.87s.13-.48.19-.72c-.45,0-.88-.63-1.34,0a7.1,7.1,0,0,1-1,1.13,1.77,1.77,0,0,1-2.8-.35c-.24-.54,0-1,.54-1.08a13.14,13.14,0,0,1,1.37.17c.29,0,.72,0,.85-.21s.07-.61-.38-.74c-.16,0-.27-.31-.4-.48a4,4,0,0,1,.65-.34c.48-.16,1-.3,1.46-.44a7.79,7.79,0,0,1,1.9-.52c.31,0,.63.53,1,.82-.29.27-.56.56-.87.81-.08.07-.33,0-.38,0a2.78,2.78,0,0,0-.21.57c.15,0,.32.15.43.11.68-.29,1.44-.35,1.5-1.47s1.7-1.73,2.69-1.38a1.51,1.51,0,0,1,.94,2c-.56,1.24-1.48,2-2.77,1.24-.71-.4-.52-.07-.6.36-.12.6-.38,1.18-.56,1.77a.83.83,0,0,0,0,.44c0,.05.25.06.37,0a2.87,2.87,0,0,0,2.51-1.67.76.76,0,0,1,.29-.4,8.1,8.1,0,0,0,1.46-.66c.38-.31.51-.91.87-1.24s.34-.57,0-.91a2.2,2.2,0,0,1-.52-.83c-.37-1.43.39-2.25,1.82-2,.2,0,.39.08.59.1a1,1,0,0,0,.29,0l-.2-.17c-1.31-.85-1.63-1.51-1.22-3,.08-.3.57-.6.93-.69a2.84,2.84,0,0,1,1.11.2c-.14.19-.27.51-.44.54-.66.1-.68.59-.66,1.05,0,.62.54.83,1,.44a3.33,3.33,0,0,0,1-1c.17-.3,1.08-.91-.21-1.1-.4,0-.19-2,.21-2.32s.79-.7,1.22-1a12.34,12.34,0,0,1,1.2-.62A5.27,5.27,0,0,1,67,85.33c2.07-.52,4.14-1.1,6.24-1.43.77-.12,1.62.27,2.42-.17.1,0,.36.13.51.24.46.35.93.69,1.36,1.07A13.62,13.62,0,0,1,78.8,86.3a11.05,11.05,0,0,1,3,8.22C81.79,94.82,81.79,95.12,81.76,95.55ZM64.5,91.49a2.2,2.2,0,0,0,.26-.15A2.4,2.4,0,0,1,67,90.65c.82.23.93.86.81,1.6,0,0,.23.09.31.06a3.61,3.61,0,0,0,.6-.35c.52-.37.49-.87.12-1.46a1.07,1.07,0,0,1,.06-1c1.09-.86.88-2.09,1-3.22,0-.17-.07-.49-.16-.51a.9.9,0,0,0-.64.13c-.09.05-.08.34,0,.5A3.78,3.78,0,0,1,67.92,90c-.39.3-.73.37-1-.12s-.31-.84-.5-1.24a.52.52,0,0,0-.36-.16,5.4,5.4,0,0,0-1.56,3.06,8,8,0,0,0-.72.71c-.07.09,0,.29,0,.44.18,0,.47,0,.51-.14A7.26,7.26,0,0,0,64.5,91.49ZM65.15,120c1.32-.16,2.35-.32,3.38-.41a4.41,4.41,0,0,0,2.74-1.29c.53-.53,1.09-1,1.58-1.62,1-1.18,2-2.4,2.94-3.61.06-.08,0-.22,0-.33a1,1,0,0,0-.24.15c-.56.61-1.08,1.27-1.69,1.83A10.21,10.21,0,0,1,72.12,116c-.18.1-.51-.08-.78-.13a2.72,2.72,0,0,1,.43-.65c.67-.58,1.34-1.16,2.06-1.68,1.29-.92,2-2.5,3.43-3.22a.7.7,0,0,0,.28-.4c.24-.73.46-1.47.67-2.21a1.31,1.31,0,0,0,0-.39,1.31,1.31,0,0,0-.41.2c-.35.35-.65.75-1,1.1q-2.57,2.63-5.15,5.23a1.71,1.71,0,0,1-.47.23,1.58,1.58,0,0,1-.12-.62c0-.17.23-.31.36-.46,1-1.08,2-2.16,2.95-3.25a1.46,1.46,0,0,0,.19-.42c-.15,0-.37-.18-.44-.13-.75.54-1.35,0-2-.19a9.79,9.79,0,0,1-3.52-1.9,1.39,1.39,0,0,0-.42-.14c0,.13,0,.28,0,.38.26.47.25.86-.33,1a6.29,6.29,0,0,0-2.35,1.72c-.5.42-1.18.64-1.67,1.08-.27.23-.31.72-.46,1.1a2.86,2.86,0,0,0,.74-.15c1-.47,1.9-.94,2.8-1.5s1.7-1.17,2.54-1.76a3.12,3.12,0,0,1,.42-.18c0,.18.2.4.14.52a1.66,1.66,0,0,1-.54.66c-1.66,1.06-3.31,2.13-5,3.12a7,7,0,0,0-3.06,2.91,5.59,5.59,0,0,0-.26.82,2.16,2.16,0,0,0,.75,0,20.8,20.8,0,0,0,4.31-1.53,22.27,22.27,0,0,0,5.21-4.13,2.23,2.23,0,0,1,.71-.34c-.09.28-.1.63-.29.82-.43.45-1,.8-1.43,1.22a31.6,31.6,0,0,1-3.18,2.85,16.86,16.86,0,0,1-3.86,1.89c-.89.31-1.9.75-2.9.1-.12-.09-.39.06-.6.1.11.17.19.42.35.48,1,.44,2.1.86,3.16,1.24C64,119.68,64.71,119.86,65.15,120Zm15.4-23.86-.13-.07c0-.26,0-.54-.06-.8a1.92,1.92,0,0,0-.18-.45c-.13.1-.35.18-.38.3-.23,1-1.16,1.56-1.63,2.46-1.78,3.45-5,5.47-8,7.81-.15.12-.62,0-.79-.15a.77.77,0,0,1,.1-.74,7.11,7.11,0,0,1,1.53-1.09,16.72,16.72,0,0,0,5.63-5.2,17,17,0,0,0,3.16-6.09,1.7,1.7,0,0,0-.1-1.3,5.68,5.68,0,0,0-.81.9c-.49.83-.85,1.75-1.39,2.54a39,39,0,0,1-5.94,7.32c-.74.67-1.27,1.57-2,2.31a1.1,1.1,0,0,1-.94.28c-.44-.21-.14-.53.1-.8.65-.72,1.28-1.45,1.93-2.17,1.39-1.57,2.83-3.08,4.15-4.7a20.73,20.73,0,0,0,3.82-6.65,2.48,2.48,0,0,0,0-1.15.55.55,0,0,0-.4-.35.66.66,0,0,0-.43.34c-.4.88-.78,1.76-1.12,2.65a20.33,20.33,0,0,1-3.62,5.94c-.63.73-1.17,1.54-1.79,2.28-.76.91-1.64,1.73-2.31,2.71a2.19,2.19,0,0,1-1.25,1.08c-.65.16-.62.48-.28.82.86.87,1.75,1.71,2.67,2.51.13.11.56,0,.74-.12A32.85,32.85,0,0,0,74.47,104,33.86,33.86,0,0,0,80,97.36,12,12,0,0,0,80.55,96.14ZM70.61,93l.31.15a12.18,12.18,0,0,1-.8,1.89,1.36,1.36,0,0,1-2.13.51c-.08-.05-.21,0-.32-.05s0,.23,0,.28a2.24,2.24,0,0,0,.57.54c.59.3.46.59.1,1-.67.76-1.3,1.56-1.92,2.36-.09.11,0,.38,0,.54a.47.47,0,0,0,.42,0,14.82,14.82,0,0,0,2.21-2c1.27-1.61,2.43-3.32,3.62-5A14.65,14.65,0,0,0,74.12,91a19.94,19.94,0,0,0,1.07-3,5.64,5.64,0,0,0,.28-2.06c0-.34-.58-.63-.9-.94-.07.29-.16.59-.23.89a10.18,10.18,0,0,1-.64,2.88,26.59,26.59,0,0,1-2.47,3.18A9.55,9.55,0,0,0,70.61,93ZM49,107.19a22.26,22.26,0,0,0,2.67-.65q3.39-1.25,6.74-2.61c.63-.26,1.41-.55,1.06-1.57-.05-.13.24-.54.36-.54a2.8,2.8,0,0,1,1.43.25c.57.39.83,0,1.08-.29a.84.84,0,0,0,0-.8c-.34-.42-.67-.16-1,.14-.16.15-.48.13-.73.18,0-.22-.16-.47-.09-.66.34-1-.8-.41-.91-.9-.18.21-.46.39-.53.63A3.21,3.21,0,0,1,56.92,103a1.42,1.42,0,0,0-.74.61,1.84,1.84,0,0,1-1.89.83,3.14,3.14,0,0,0-1,.24L48.13,106c-.52.13-.49.51-.23.73A3.74,3.74,0,0,0,49,107.19ZM80.1,100,80,99.62a3.7,3.7,0,0,0-.42.37c-.86.93-1.65,1.92-2.58,2.78a22.09,22.09,0,0,1-5.26,4.11.64.64,0,0,0-.09.6,2.28,2.28,0,0,0,2.87.28c1.43-1.28,3-2.4,3.78-4.29.1-.25.42-.65.55-.62.93.2.87-.55,1-1A13.67,13.67,0,0,0,80.1,100Zm-2.61-13-.79-.71a5.12,5.12,0,0,0-.39.73,26.9,26.9,0,0,1-1.19,3.48c-.94,1.81-2.05,3.55-3.14,5.28-.61,1-1.32,1.83-2,2.72s-1.24,1.56-1.92,2.28a3.09,3.09,0,0,1-1,.45c-.19.09-.52.24-.51.33a10.91,10.91,0,0,0,.33,1.34,7.52,7.52,0,0,1,.29-.71,1.19,1.19,0,0,1,.32-.35,20.42,20.42,0,0,0,2-1.59,32.44,32.44,0,0,0,3.31-3.74,41,41,0,0,0,3-5.09C76.45,90.11,76.89,88.63,77.49,87.06Zm-27.9,22.27a31.82,31.82,0,0,0,3.78-1.19c1.85-.83,3.61-1.83,5.41-2.77.62-.33,1.24-.67,1.84-1,.1-.06.13-.27.19-.41a1.53,1.53,0,0,0-.43,0c-2.3,1-4.55,2.06-6.9,2.87-1.29.44-2.49,1.29-4,1.15-.16,0-.53.4-.5.54S49.36,109,49.59,109.33Zm7.78,6.7c-.28-.21-.6-.33-.62-.5a.79.79,0,0,1,.34-.63c1.58-.92,3.18-1.8,4.76-2.72a1.43,1.43,0,0,0,.46-.59c.07-.12,0-.31,0-.47-.14.07-.29.11-.42.19-1.76,1.08-3.53,2.14-5.27,3.25a1.46,1.46,0,0,0-.65.9c-.06.45,1.83,1.71,2.28,1.53a4,4,0,0,0,2.56-1.88c.14-.32,0-.76-.07-1.15a4.23,4.23,0,0,0-.88.24,7.25,7.25,0,0,0-.75.62C58.56,115.22,58,115.6,57.37,116Zm5.3-6.4c-.15-.52-.23-.83-.32-1.15a3.94,3.94,0,0,0-.9.36c-.88.64-1.71,1.37-2.61,2-1.14.79-2.32,1.53-3.49,2.28-.31.2-.66.34-1,.56a3.45,3.45,0,0,0-.46.54,4,4,0,0,0,.83.21c.14,0,.31-.1.45-.18l2.6-1.53c1.38-.82,2.77-1.62,4.14-2.45A5.6,5.6,0,0,0,62.67,109.63Zm-10.24,3.46A18.87,18.87,0,0,0,55,112c2.11-1.26,4.18-2.6,6.25-3.94a2.36,2.36,0,0,0,.7-.8c.08-.13,0-.38-.06-.57a4.09,4.09,0,0,0-.47.23c-.83.55-1.63,1.14-2.49,1.63-1.63.94-3.3,1.82-5,2.73-.61.33-1.23.64-1.83,1-.14.08-.2.3-.3.46Zm14.85-6.79c-.13-.53-.39-.8-.87-.5-.92.58-1.82,1.18-2.7,1.82-.16.12-.16.46-.23.7.21,0,.48.1.64,0,1-.56,2-1.16,3-1.76C67.2,106.52,67.24,106.37,67.28,106.3Zm5.14-20.25.24.08c-.07.42-.13.85-.21,1.27-.13.72-.28,1.43-.39,2.15,0,.12.12.27.19.4.08-.09.2-.16.25-.27a6.4,6.4,0,0,0,.91-3.57,4.35,4.35,0,0,0-.51-1Zm-10,18.57c.17,0,.32.1.4,0s.42-.33.64-.47a1.55,1.55,0,0,1,.67-.3c.36,0,.72.1,1.09.1a2,2,0,0,0,.6-.19,11.78,11.78,0,0,0-.45-1.17s-.34,0-.5.09a5.36,5.36,0,0,1-1.37.58C62.64,103.37,62.7,104,62.38,104.62Zm2.3-6.24c.12.12.34.5.63.57.48.12,1.49-.91,1.36-1.36a.92.92,0,0,0-.68-.52A1.16,1.16,0,0,0,64.68,98.38ZM48,105.1l1.53-.37a7.85,7.85,0,0,0-1-1.11c-.22-.17-.82-.23-.87-.14a2.75,2.75,0,0,0-.29,1.23C47.3,104.85,47.74,105,48,105.1Zm23.62-18c0-.43,0-.86,0-1.29,0-.13-.22-.25-.34-.38-.12.12-.33.23-.35.36-.07.76-.12,1.53-.12,2.29,0,.15.2.3.31.45.15-.15.37-.27.42-.44A4.68,4.68,0,0,0,71.58,87.05ZM61.73,97.12a1.31,1.31,0,0,0-1.3,1.24c0,.18.1.56.17.56A1.36,1.36,0,0,0,62,98a3.84,3.84,0,0,1,.18-.35C62.39,97.19,62.17,97.07,61.73,97.12Zm1.54,9.39,2.74-1.4c.11-.06.26-.18.26-.28a.57.57,0,0,0-.2-.33c-1,.49-2,1-3,1.53-.07,0-.09.23-.07.34S63.15,106.45,63.27,106.51Zm15.82-1.69-.12-.3a1.77,1.77,0,0,0-.32.21c-1,1-2,2-3,3.08-.12.12-.14.33-.21.49a1.42,1.42,0,0,0,.48-.15c.95-.83,1.9-1.66,2.81-2.53C78.94,105.43,79,105.08,79.09,104.82ZM65,101c0-.37-.07-.61-.1-.86-.2.19-.4.38-.58.58-.41.46-.82.93-1.22,1.4l-.12.15s.11.1.14.08a11.79,11.79,0,0,0,1.64-.68C65,101.57,65,101.17,65,101Zm-4.9-6c.39.33.6.64.76.62.44-.06,1-.12.94-.8s-.43-.61-.77-.52S60.53,94.7,60.12,95Zm4.43-.73c-.36-.14-.62-.34-.76-.28s-.66.43-.63.59.38.53.59.79Zm-10.13,8.54.43.63a9.26,9.26,0,0,0,.84-.94s-.27-.33-.41-.51Zm9.1-5.76.2,0c0-.06-.08-.14-.15-.17s-.13,0-.16.09c-.33.63-.65,1.27-1,1.91,0,.07.08.19.13.29.31-.25.77-.44.91-.76A3.92,3.92,0,0,0,63.52,97.07Zm-7.72.3c.33.19.55.36.6.33.31-.24.59-.52.87-.78-.14-.14-.39-.43-.43-.41A13.22,13.22,0,0,0,55.8,97.37Zm9.4-1.3a10.9,10.9,0,0,0,1-.73,2.75,2.75,0,0,0-.3-.51l-1,.83S65,95.84,65.2,96.07Zm-.75-7.41c.39-.38.67-.63.93-.91.06-.07,0-.23.07-.35a5.71,5.71,0,0,1-.67.3c-.08,0-.2,0-.29,0s-.35.15-.52.22C64.09,88.13,64.22,88.32,64.45,88.66Zm-13.58,13.8-.51-.5c-.12.25-.33.5-.32.75s.23.49.36.74Zm17.36-15L68.05,87c-.09.19-.19.37-.26.56a3.7,3.7,0,0,0-.09.48c0,.17-.07.34-.11.51a2.66,2.66,0,0,0,.55-.44C68.23,88,68.19,87.75,68.23,87.44ZM57.47,101.66c.27-.51.48-.87.66-1.24,0,0-.14-.16-.22-.24-.21.36-.42.73-.61,1.1C57.28,101.32,57.36,101.41,57.47,101.66ZM71.19,90.15c-.09-.1-.28-.27-.46-.43a2.11,2.11,0,0,1,.17.52c0,.14-.14.28-.17.42a2.92,2.92,0,0,0,0,.5,1.72,1.72,0,0,0,.45-.34A2,2,0,0,0,71.19,90.15Zm-5.36,3.53.55-.7c-.11-.08-.29-.26-.33-.23a1.21,1.21,0,0,0-.43.44C65.58,93.26,65.71,93.43,65.83,93.68Zm.74-2.12c-.08.27-.18.42-.14.53s.2.2.31.3c.07-.13.2-.26.19-.39S66.76,91.78,66.57,91.56Z"/><path d="M34.17,75.09A14.06,14.06,0,0,0,35,76.3a.5.5,0,0,0,.49,0c.53-.34,1-.72,1.54-1.09a1.07,1.07,0,0,0,.37-.33c.27-.45.77-.93.29-1.41-.12-.13-.84.29-1.25.52-.22.13-.35.42-.56.58a3,3,0,0,1-.63.27c0-.25-.16-.61,0-.73a10.4,10.4,0,0,1,2.09-1.9c.71-.4,1.62.4,1.44,1.22a6.21,6.21,0,0,1-.82,1.91c-.27.43-.59.75-.14,1.22a.48.48,0,0,1,.15.37c-.27,1,.26,1,1.08,1,1.2,0,2,1.61,1.42,2.9a8.3,8.3,0,0,1-.64,1c-.26.42-.49.84.24,1.06.15,0,.26.21.39.31,1.13.81,1.24,1.53.29,2.56-.42.45-.65.74-.16,1.31s0,1.91-.71,2.38-1.33,1.52-2.5,1.2c0,0-.16.17-.16.26,0,.61-.33,1.26.55,1.69.56.27.55,1.43,0,2A7.39,7.39,0,0,1,36.09,96c-.68.4-2.38-.24-2.48-.95-.06-.43.32-.91.43-1.39a1.53,1.53,0,0,0,0-1.05c-.32-.51-.68-1-.32-1.55a2.26,2.26,0,0,1,2.4-1.08,3.24,3.24,0,0,0,3.25-1.3,1.69,1.69,0,0,0,.16-1,.88.88,0,0,0-.69-.13,1.45,1.45,0,0,0-.49.77c-.11.38.08.8-.58,1-.82.22-1.28,0-1.52-.74-.15-.51-.22-1-.36-1.54a4.49,4.49,0,0,0-.44-1.26c-.18-.31-.88-.46-.47-.9a3.55,3.55,0,0,1,1.65-1c.3-.06.9.41,1.07.78a1.64,1.64,0,0,1,0,1.89c-.06.08,0,.23,0,.35s.21,0,.28,0c.71-.5,1.44-1,2.11-1.52a.66.66,0,0,0,0-1.12,2.31,2.31,0,0,0-.82-.56,7.81,7.81,0,0,1-2.56-1.33A1.52,1.52,0,0,1,36.06,81c.46-1-.3-1.57-.7-2.26,0,0-.16-.06-.17-.1-.15-1.63-.88-.5-1.33-.25a1.49,1.49,0,0,1-2.08-.23c-.45-.41-.72-.35-.86.16A23.29,23.29,0,0,0,30.33,81a1.09,1.09,0,0,0,.53,1,2,2,0,0,1,.63,2.68c-.34.77.09,1.3.26,1.91,0,.1.39.09.59.15a6.29,6.29,0,0,1,1.45.46c.56.33.53.87.21,1.41a.94.94,0,0,1-1.32.36,2.86,2.86,0,0,1-2-2.38c0-.5-.14-.75-.73-.57a1.23,1.23,0,0,1-.83-.19c-2.88-1.71-2.64-3.37-1.52-6.18.24-.61.49-1.22.77-1.82.62-1.28,1.28-2.56,1.9-3.84a1.7,1.7,0,0,0,.08-.51c-.21,0-.52,0-.61.09a6.9,6.9,0,0,0-1.09,1.66c-.86,2.1-1.73,4.2-2.4,6.36a27.33,27.33,0,0,0-.64,4.05c-.07.46.1.53.51.35a1.1,1.1,0,0,1,.67-.07c.11,0,.24.32.21.44-.09.31-.3.59-.4.9,0,.11.11.27.18.41.13-.07.32-.1.39-.21s.16-.55.34-.72a2.27,2.27,0,0,1,.77-.28,4.32,4.32,0,0,1,.05.62c0,.19-.16.39-.14.57.06.41.07,1,.32,1.15s.86.11,1.3.09c.14,0,.28-.18.43-.25.44-.22.64-.07.57.42a4.21,4.21,0,0,1-.12.48c.78.09.9.42.35,1a1.27,1.27,0,0,0,.38,0c.51-.15,1-.7,1.51,0a1.66,1.66,0,0,1,0,2.13c-.67.76-1.32,1.5-2.57,1.06-.61-.21-1.37,0-2-.08s-1.13-.53-1.44.38a.63.63,0,0,1-.5.28c-.83-.06-.74.37-.59.93.22.83.3,1.69.57,2.5a14.55,14.55,0,0,0,3.72,5.7,13.82,13.82,0,0,0,1.69,1.34c.11.08.31,0,.46,0a1.89,1.89,0,0,0-.18-.41,14.27,14.27,0,0,1-2.49-4.26c-.28-.95-.48-1.93-.67-2.9-.1-.5.06-1-.72-1.18-.54-.12-.5-.64,0-.93a1.73,1.73,0,0,1,2.62,1.18c.29,1.37.29,1.35,1.63,1.42.43,0,.84.19,1.26.25a14.32,14.32,0,0,0,1.45.17c.32,0,.82-.49.83.33,0,0,.17.06.21,0,.56-.5.53,0,.66.35a4.36,4.36,0,0,0,.42.72,4.33,4.33,0,0,0,.73-.6,3.63,3.63,0,0,0,.5-1,3.33,3.33,0,0,0,.08-.84c-.28.09-.55.2-.84.28s-.5.21-.68.14-.33-.47-.26-.57c.22-.34.51-.82.84-.87a2,2,0,0,1,1.54.32,1.73,1.73,0,0,1,.28,1.54,7.12,7.12,0,0,1-1.51,2.17c-.67.66-1.36.42-1.74-.46a3.85,3.85,0,0,0-.2-.57c-.07-.11-.25-.15-.38-.22-.05.14-.17.28-.16.41A7.41,7.41,0,0,0,37,103c.4.55,1,.46,1.57.28.25-.08.49-.22.74-.28s.29.06.43.1c-.07.1-.12.25-.22.3-.83.39-1.67.75-2.5,1.14-.19.09-.34.26-.53.37s-.46.37-.64.33c-.43-.1-.71,0-.89.39a.36.36,0,0,1-.23.17c-2.52.19-4.8,1.5-7.28,1.69a17.16,17.16,0,0,1-4.65-.52,32.54,32.54,0,0,1-4.6-1.41c-2.44-.92-4.74-2.14-6.16-4.45a5.61,5.61,0,0,1-.71-2.49,35.47,35.47,0,0,1,.29-8.29,48.66,48.66,0,0,1,2.69-8.88A21.75,21.75,0,0,0,14.71,79a4.75,4.75,0,0,1,.73-1.39c.09-.14.4-.12.61-.18,0,.19,0,.37,0,.55l0,.39a2,2,0,0,0,.3-.21c1-1,1.89-2.08,2.94-3a15.54,15.54,0,0,1,2.59-1.68c.54-.31,1.17-.45,1.73-.72A4.8,4.8,0,0,0,24.81,72c.45-.46.81-.68,1.36-.19a.64.64,0,0,0,.46.08,12.67,12.67,0,0,1,3.93.35,2.71,2.71,0,0,1,2.38,1.42c.23.41.87.59,1.29.91.26.19.51.47-.08.59A.71.71,0,0,0,34,75Q33.5,75,33,75a1.26,1.26,0,0,0,0,.26l.87,0A1.33,1.33,0,0,0,34.17,75.09Zm-13,13.77-.21.72a2.41,2.41,0,0,1-.72-.41,5.22,5.22,0,0,1-1.29-3,25.06,25.06,0,0,1,1.42-9.12,5.13,5.13,0,0,0,.11-1.12c-.29.26-.59.52-.87.79-.07.06-.07.19-.1.28a28,28,0,0,0-1.1,8.13c0,1.81-.12,3.83,1.95,4.92.42.22,1.81.26,1.78,0s-.47-.67-.74-1a1.08,1.08,0,0,0-.24-.18,9.41,9.41,0,0,1-.25-4.65c.64-3.14,1.34-6.26,2-9.4a2.42,2.42,0,0,0,0-.47l-.34.29A5.58,5.58,0,0,0,21,77.77a29.45,29.45,0,0,0-1.15,6.48,10.1,10.1,0,0,0,.56,3.81C20.56,88.38,20.94,88.59,21.2,88.86Zm-8.64,7.78h.14a8.21,8.21,0,0,0,0,1.11c.21,1.57.5,3.12,2,4.07.43.28.85.51.9-.34a2.75,2.75,0,0,1,.28-1.16c.35-.59.15-.89-.35-1.21a4.25,4.25,0,0,1-1.58-4.53c.06-.21.45-.32.7-.48a4.64,4.64,0,0,1,.17.64A10.22,10.22,0,0,0,15,97.31a3.18,3.18,0,0,0,1.41,1.4c.16.1.75-.4,1.08-.7.62-.55,1.17-1.19,1.81-1.71.3-.25.32-.38.18-.73-.36-.85-.64-1.74-1-2.61a3.07,3.07,0,0,0-.44-.6c-.14.25-.44.54-.39.74.19.72.54,1.4.76,2.12a4.78,4.78,0,0,1,.09,1.08c-.28-.18-.69-.29-.83-.54-.39-.73-.66-1.52-1-2.27-.14-.31-.3-.79-.54-.84a4,4,0,0,1-2.62-2.43,1.3,1.3,0,0,0-.3-.32,1.57,1.57,0,0,0-.11.35C13,92.38,12.76,94.51,12.56,96.64Zm9.16-11.33a5.19,5.19,0,0,0,.54,3.22c.23.33.72.52.54,1.07,0,0,.25.22.33.19.63-.22,1.26-.44,1.87-.72.25-.11.46-.35-.07-.47A2.06,2.06,0,0,1,23.47,87a8.05,8.05,0,0,1-.17-4.56c.81-2.83,1.71-5.62,2.57-8.43.05-.16.17-.32.16-.47s-.22-.3-.26-.28c-.44.21-1.09.35-1.24.7a28.16,28.16,0,0,0-1.85,5C22.19,81,22,83.16,21.72,85.31Zm3.28,11c.33-.93-.05-1.36-.63-1.47s-1.08.43-.9,1.28a15.78,15.78,0,0,0,1.14,4,26.49,26.49,0,0,0,3.16,4.63,2.26,2.26,0,0,0,2.5.88c.54-.19.59-.26.15-.67a16,16,0,0,1-4.15-5.31C25.77,98.45,25.37,97.26,25,96.26ZM15.38,83.32a46.76,46.76,0,0,0,1,4.58,15.23,15.23,0,0,0,1.52,2.8c.32.54.76.21,1.16.1a5.71,5.71,0,0,0-.3-.67c-.22-.36-.54-.68-.73-1.07a9,9,0,0,1-.58-5.21c.22-1.69.43-3.39.64-5.08a1.64,1.64,0,0,0,0-.44c-.13.08-.32.12-.4.24-.4.58-.76,1.18-1.15,1.76A4.81,4.81,0,0,0,15.38,83.32Zm8.4.7.26.06a5.33,5.33,0,0,0,0,.8c.13.82.27,1.64.47,2.45.05.2.35.33.53.49a3.75,3.75,0,0,0,0-.67c-.09-.52-.25-1-.3-1.57a11.94,11.94,0,0,1,1-5.27c.82-2.26,1.68-4.51,2.5-6.77a2.32,2.32,0,0,0,.05-.65,2.15,2.15,0,0,0-.77.08,1,1,0,0,0-.4.52c-.61,1.48-1.3,2.94-1.78,4.46C24.78,80,24.32,82,23.78,84Zm-6.21,15.8.17.15a8.65,8.65,0,0,0,.1.89c.13.59.26,1.17.43,1.75a2.87,2.87,0,0,0,2.59,2.24c.45.05.57-.15.38-.52a16.79,16.79,0,0,1-.86-1.69c-.44-1.25-.8-2.54-1.22-3.8-.05-.16-.27-.26-.41-.39Zm3.75-2.51a8,8,0,0,0,3.07,5.81,5,5,0,0,0,1,.52c-.16-.29-.32-.59-.47-.89a.36.36,0,0,1,0-.09,22.2,22.2,0,0,1-2.21-6.17,2.9,2.9,0,0,0-.31-.67c-.27.18-.64.29-.79.54A2.71,2.71,0,0,0,21.32,97.31Zm-1.36,1a3.75,3.75,0,0,0,.1.8c.62,1.52,1.19,3.06,1.91,4.52A3.72,3.72,0,0,0,25,106c.81.07,1.63,0,2.44.06.08,0,.15-.08.22-.13l-.25-.09a14.73,14.73,0,0,1-1.88-.75c-.54-.31-1-.82-1.5-1.17a8.35,8.35,0,0,1-3.55-5.56c-.07-.31-.14-.62-.2-.93Zm4.93-7.53c.46.64.9,1.28,1.38,1.89.07.09.31,0,.47.06a2.37,2.37,0,0,1,0-.46c.08-.28.18-.56.27-.83a5.15,5.15,0,0,1,.93.41c.15.09.15.4.3.5a1.33,1.33,0,0,0,.79.32c.39,0,.6-.31.51-.79a3,3,0,0,1,.1-1.07A5.82,5.82,0,0,1,30,90c-.35,0-.71,0-1.06.09a.48.48,0,0,0-.26.12c-.58.69-1.08.42-1.59-.1a1.9,1.9,0,0,0-.59-.37C25.87,89.5,25.06,90.05,24.89,90.81Zm9.42,13.69a6.76,6.76,0,0,1-.42-.6,36.21,36.21,0,0,1-1.68-3.5c-.34-.92-.69-1.68-1.73-1.9a3,3,0,0,1-.59-.3A2.4,2.4,0,0,0,30,99c.68,1.33,1.34,2.68,2.11,4a7.65,7.65,0,0,0,1.44,1.52C33.63,104.56,33.92,104.48,34.31,104.5ZM29.07,81.79l.22.23a2.29,2.29,0,0,0,.15-.6A9.6,9.6,0,0,1,30.9,76.2c.28-.54.61-1,.89-1.57a1.2,1.2,0,0,0,.05-.47c-.14.08-.33.12-.43.24a21.43,21.43,0,0,0-3.71,7.35c0,.08.13.32.17.31C28.27,82,28.67,81.89,29.07,81.79Zm-12,9.29c-.13-.18-.25-.34-.35-.51a9.51,9.51,0,0,1-.89-1.66c-.39-1.2-.66-2.44-1-3.66a4.13,4.13,0,0,0-.17-.45c-.08,0-.22.08-.24.15-.33,1-1,2.06-.46,3.17a5.88,5.88,0,0,0,1.3,1.49c.24.23.59.32.28.77-.07.1.1.51.26.59a5,5,0,0,0,1.11.34S17,91.17,17.07,91.08Zm17,8.41c-1,0-1.33.38-1,1a31.49,31.49,0,0,0,2.18,3.31c.1.14.53,0,.8,0a2,2,0,0,0-.08-.66c-.51-1.14-1-2.28-1.59-3.4A1,1,0,0,0,34.09,99.49ZM39.71,80c0-.88-.29-1.19-1.07-1.13-.29,0-.58,0-.87,0a4.21,4.21,0,0,0-.5,0,1.48,1.48,0,0,0,.13.53c.31.46.66.9,1,1.35.2.29.38.59.57.88a11.84,11.84,0,0,0,.63-1.09A1.82,1.82,0,0,0,39.71,80ZM19.34,93.24c.28.57.6,1.29,1,2,.05.1.38.12.53.06a.58.58,0,0,0,.33-.42A2.61,2.61,0,0,0,21,94a13.54,13.54,0,0,0-.53-1.38c-.13-.31-.3-.6-.45-.9-.18.32-.37.63-.53,1A3,3,0,0,0,19.34,93.24Zm4.07-2.79c-.17.34-.4.59-.36.79A6.92,6.92,0,0,0,23.62,93c.09.17.63.18.94.13a.67.67,0,0,0,.36-.53,11.07,11.07,0,0,0-.8-1.71C24,90.76,23.78,90.69,23.41,90.45Zm-2.23,1.32a2.22,2.22,0,0,0,.08.41c.2.53.39,1.06.62,1.57.11.24,0,.8.59.51.39-.19.76-.4.38-1s-.4-1-.65-1.55a2.66,2.66,0,0,0-.56-.55ZM35.32,95c.85,0,1.77-.73,1.69-1.19,0-.17-.39-.4-.61-.41-.8-.06-1.82.63-1.66,1.1C34.83,94.72,35.22,94.88,35.32,95ZM30.75,83.63c-.06-.08-.19-.44-.37-.46a1,1,0,0,0-.67.4c-.18.22-.2.58-.39.78-.43.44-.45.48.09.74C30.1,85.44,30.76,84.82,30.75,83.63Zm2.1-5.87c.92,0,1.39-.33,1.32-.92a.85.85,0,0,0-.62-.52c-.7-.07-.83.54-1,1C32.56,77.49,32.8,77.69,32.85,77.76Zm3.45,1c.33-.57.61-1,.82-1.44,0-.11-.19-.33-.29-.51A15.87,15.87,0,0,0,35.64,78,6.33,6.33,0,0,0,36.3,78.79Zm.16,12.68c-.46-.2-.77-.42-.87-.35a1.9,1.9,0,0,0-.5.72s.26.34.3.32C35.69,92,36,91.8,36.46,91.47Zm-19.52,11.9h.22c0-.09.15-.21.13-.29-.09-.31-.22-.61-.33-.92-.08.1-.25.22-.24.31A9.08,9.08,0,0,0,16.94,103.37Z"/><path d="M70.87,69.2c.12-.17.35-.35.34-.52a39.27,39.27,0,0,0-1.5-10c-.22-.68-.63-1.3-.91-2a3.41,3.41,0,0,1-.09-.85,2.09,2.09,0,0,1,.9.19,1.68,1.68,0,0,1,.6.9c.49,2.12.92,4.26,1.39,6.39a12.21,12.21,0,0,0,.34,1.18,8.51,8.51,0,0,0,.17-1.11,13.22,13.22,0,0,0-.53-5.76c-.08-.19.16-.5.25-.75.16.18.39.32.47.53a8.82,8.82,0,0,1,.63,5c-.2,1.21-.06,2.57-.56,3.63-.6,1.27-.19,2.59-.62,3.81,0,.11.07.27.11.41A1.26,1.26,0,0,0,72,70a9.64,9.64,0,0,0,.45-1.63c.4-2.72.79-5.43,1.1-8.16a4.31,4.31,0,0,0-.6-3c-.69-1.06-1-2.37-1.81-3.39a12.06,12.06,0,0,0-2.72-2.46,7.54,7.54,0,0,0-3.79-1.44,24.15,24.15,0,0,0-7.49.39A14.86,14.86,0,0,0,52,52.58a2.94,2.94,0,0,0-.3.31l.45-.14,6-2a1.3,1.3,0,0,1,.48-.14,7.73,7.73,0,0,1,.8.19c-.21.15-.41.38-.64.43a27,27,0,0,0-5.71,2.11,45.27,45.27,0,0,0-5.82,3.35,19.36,19.36,0,0,0-4.3,4c-.08.09-.08.23-.12.35a1.8,1.8,0,0,0,.43-.13c1.16-.75,2.29-1.58,3.5-2.25A57.94,57.94,0,0,1,52.05,56c1.85-.79,3.79-1.39,5.7-2.06.71-.25,1.08,0,1.1.78a11.7,11.7,0,0,1-1.64,5.73c-.53,1-1.18,2-1.72,3a.93.93,0,0,0,0,.86,1.35,1.35,0,0,1,0,2c-.29.38-.44.57.17.85A2.59,2.59,0,0,1,56.8,68.3a1.88,1.88,0,0,1,.13,1.46,1.17,1.17,0,0,1-1.59.46.93.93,0,0,0-1.39.51,1.61,1.61,0,0,1-1.13,1c-1.22.26-1.5,1.52-2.38,2.14a1.57,1.57,0,0,1-1.76.29,1.67,1.67,0,0,1-1.06-1.66,2.32,2.32,0,0,1,.28-.57c.22.12.53.19.63.37.54,1,.76,1.11,1.43.75,1-.52,1-1,.62-1.94-.3-.71-.62-.73-1.35-.65-1.23.14-1.77,1-2.51,1.75a2.23,2.23,0,0,1-2.06.52,1.55,1.55,0,0,1-.95-2.55c.54-.8.57-.91-.36-1.17a5.79,5.79,0,0,1-3.18-2.43,3.09,3.09,0,0,0-.92-1c-.94-.49-.78-1.47-1.1-2.22,0-.12,0-.27,0-.4-.31-1.47-.25-1.39,1-2.3s2.44-2.05,3.67-3.06c1-.86,2.11-1.72,3.23-2.49a59.75,59.75,0,0,1,5.51-3.59,30.25,30.25,0,0,1,6-2.58,10.17,10.17,0,0,1,4.64-.35c1.72.33,3.54.31,5.22.78a9.71,9.71,0,0,1,4.87,3.5,20.24,20.24,0,0,1,1.89,2.37,5.54,5.54,0,0,1,.74,2.33,30.7,30.7,0,0,1-.11,4.6c-.18,1.94-.57,3.85-.76,5.78a7.85,7.85,0,0,1-1.3,3.41,10.18,10.18,0,0,0-1.22,2.53A5.81,5.81,0,0,1,68,77.65a37.13,37.13,0,0,0-3.89,2.18c-.87.54-1.67.94-2.68.27a1.79,1.79,0,0,1-.54-2.61.94.94,0,0,1,.54-.15c.3.82.8.33,1.23.2.26-.08.49-.21.74-.31a1.05,1.05,0,0,0,.39-1.55c-.07-.08-.4,0-.55.09-.78.49-1.19.44-1.56-.4a3,3,0,0,1-.24-1.66c.2-.93.16-2,1.15-2.66.25-.17.3-.72.32-1.1a2.28,2.28,0,0,0-.28-.79,3,3,0,0,1-.49.57,2,2,0,0,1-.83.41c-.52.07-.82.06-.67.81a2.26,2.26,0,0,1-1.93,2.38,2.15,2.15,0,0,0-1.54.78A2,2,0,0,1,54,73.53,1.33,1.33,0,0,1,54,73a2,2,0,0,1,.35.28,1.27,1.27,0,0,0,1.53.66,1.94,1.94,0,0,0,1.45-1.84.59.59,0,0,0-.23-.45c-.58-.29-.44-.6-.16-1,.59-.93,1.48-.89,2.4-.88a2.46,2.46,0,0,0,.69-.16c-.53-.25.26-1.28-.75-1.25-.09,0-.19,0-.29,0-1.79,0-1.8,0-2.17-1.64.45.18.9.39,1.37.54a.67.67,0,0,0,.49-.1c0-.26,0-.63-.09-.77a1.15,1.15,0,0,0-1.75.35c-.2-.06-.56-.13-.56-.19a3.67,3.67,0,0,1,.18-1.14.57.57,0,0,1,.49-.28c1.42.34,1.63-.57,1.91-1.62a4.84,4.84,0,0,1,1.12-1.75c.78-.9,1.61-1.76,2.47-2.58a1,1,0,0,0,.36-1.23c-.06-.16,0-.37,0-.55.18.07.47.09.53.21.36.82.73.56,1.28.15a2.23,2.23,0,0,1,3.48,1.11c.56,1.47,1.27,2.87,1.77,4.35a16.88,16.88,0,0,1,1,6.1c-.07.49-.15,1-.2,1.48,0,.13.09.27.13.4a1,1,0,0,0,.15-.42C71,70.19,70.91,69.69,70.87,69.2ZM56.08,58.08l.07.21c1.42.06,1.47,0,1.52-1.46,0-.5,0-1,0-1.49s-.31-.69-.81-.5a39.87,39.87,0,0,0-3.74,1.4c-2.19,1.06-4.38,2.15-6.45,3.42-1.89,1.16-3.84,2.36-4.39,4.8-.1.45-.44.42-.66.15a1.35,1.35,0,0,1-.29-.9,29.37,29.37,0,0,1,.82-3.23A5.49,5.49,0,0,1,43,59.24c0-.07,0-.18,0-.26s-.14,0-.17,0c-1.18,1.28-2.81,2.21-3.22,4.06a2.35,2.35,0,0,0,.12,1.34c.82,2,2.52,3.2,4.28,4.32a5.83,5.83,0,0,1,1.24,1c.47.54.12,1-.34,1.35-.07,0,.15.62.19.61a3.24,3.24,0,0,0,1.23-.32c.16-.1.15-.59.08-.88-.1-.48-.17-.87.48-1,.12,0,.29-.12.31-.2.12-.64.53-.86,1.12-1,.14,0,.28-.38.31-.6a2.82,2.82,0,0,0-.1-.75l-.6.3c-.69.39-1.36.84-2.08,1.16a1.68,1.68,0,0,1-1-.11c-.12,0-.17-.31-.26-.48.3-.13.59-.28.9-.38s.42,0,.59-.08a4.26,4.26,0,0,0,1.2-.67c.48-.43.35-.8-.25-1A3,3,0,0,0,43.3,67a3.5,3.5,0,0,1-.44.51,1.94,1.94,0,0,1-.09-.81,1.41,1.41,0,0,1,.58-.63,12.55,12.55,0,0,0,2.35-1.45,16.36,16.36,0,0,1,3.54-2.88c1.47-.83,2.8-1.9,4.27-2.73A13.42,13.42,0,0,1,56.08,58.08ZM69.2,69.69c-.34,2.08-.68,4.19-1,6.29a5.12,5.12,0,0,0,0,.56,4.42,4.42,0,0,0,.6-.24A.57.57,0,0,0,69,76a28.64,28.64,0,0,0,1-4.23,21,21,0,0,0-.11-5.38A46.65,46.65,0,0,0,68,60.08a7.67,7.67,0,0,0-1.12-1.88c-.11-.16-.45-.14-.69-.21a2.53,2.53,0,0,0,0,.62c.43,1.29.9,2.56,1.31,3.85.32,1,.61,2.08.86,3.14C68.65,66.93,68.91,68.26,69.2,69.69Zm-.89.37-.23,0a13.34,13.34,0,0,0,0-2,34.43,34.43,0,0,0-2.72-9,.82.82,0,0,0-.72-.33.52.52,0,0,0-.38.83,20.21,20.21,0,0,1,.91,2.43A15.49,15.49,0,0,0,66,64.68a4.85,4.85,0,0,1,.68,2.66,1.34,1.34,0,0,0,.11.48A9.88,9.88,0,0,1,67.21,73a14.5,14.5,0,0,0-.08,2.09,1.09,1.09,0,0,0,.13.41c.09-.12.24-.23.26-.36C67.8,73.42,68.05,71.74,68.31,70.06Zm-1.64,2.59A32.88,32.88,0,0,0,63.57,60c-.08-.16-.31-.24-.47-.36-.14.27-.45.59-.4.82a4.16,4.16,0,0,0,.72,1.81,7.18,7.18,0,0,1,1.47,3.21,17.66,17.66,0,0,1,.24,8.24c-.16.71-.17.7.5.74a.33.33,0,0,1,.19.06c.77.61.7,0,.74-.5S66.64,73,66.67,72.65Zm-2-2a13.26,13.26,0,0,0-1.34-6.72,19.09,19.09,0,0,0-1.23-2.27c-.48-.71-.82-.68-1.19.08a1.14,1.14,0,0,0,.08,1,14.88,14.88,0,0,1,2.85,7.91c0,.2.1.5,0,.58-.77.69,0,1.18.19,1.74,0,.11.16.19.24.28.07-.13.19-.26.2-.39C64.62,72,64.68,71.1,64.72,70.65ZM56.8,59.34l-.06-.3c-.19,0-.41-.14-.58-.09-.63.19-1.25.42-1.87.65a17.45,17.45,0,0,0-6.45,4.33,5.69,5.69,0,0,0-.61.9c.44-.07.88-.12,1.31-.22.11,0,.19-.18.29-.26a37.37,37.37,0,0,1,3-2.33,9.32,9.32,0,0,1,4-1.81C56.17,60.17,56.47,59.64,56.8,59.34Zm-4.2,9.1.2-.18a9.74,9.74,0,0,0-.39-1.19.86.86,0,0,0-.53-.39c-.07,0-.33.27-.33.41a.75.75,0,0,0,.25.6c.55.28.45.52.11.92a3.46,3.46,0,0,0-.7,1.27,1.08,1.08,0,0,0,.31,1,1.37,1.37,0,0,0,1.19.1,3.32,3.32,0,0,0,1-1.3c.16-.33.08-.72-.49-.75C53,68.86,52.8,68.6,52.6,68.44Zm-1.31-3.5c.06-.06.35-.22.35-.39,0-.68.47-.82.94-.78,1.08.08,1.63-.62,2.2-1.33.22-.28.45-.57.65-.87a1.93,1.93,0,0,0,.18-.44c-.18,0-.41-.06-.54,0-1.32.84-2.63,1.71-3.93,2.57a1.53,1.53,0,0,0-.43.41C50.44,64.56,50.4,64.91,51.29,64.94ZM61.18,67c.6.17,1.18.28.87-.38a18.81,18.81,0,0,0-1.64-2.56c0-.07-.37,0-.38,0a11,11,0,0,0-.45,1.75,8.73,8.73,0,0,0,.08,1.61,3.54,3.54,0,0,0,.08.45,1.87,1.87,0,0,0,.35-.16C60.5,67.45,60.9,67.19,61.18,67Zm-8.29-2.64c-.1.08-.38.25-.36.3.21.54.46,1.07.72,1.59,0,.08.23.1.35.13a.28.28,0,0,0,.2,0,5.12,5.12,0,0,0,1-.61.55.55,0,0,0-.17-1A12.22,12.22,0,0,0,52.89,64.36ZM67.45,76.89c-.15-.21-.29-.43-.46-.63,0,0-.23,0-.23,0-.14.74-.77.59-1.25.78-.25.09-.41.5-.53.8s0,.63.44.42c.66-.36,1.29-.79,1.93-1.19C67.4,77,67.42,76.94,67.45,76.89ZM49.53,67c.12.25.25.53.39.81.22-.2.45-.39.67-.6s.21-.21.21-.32c0-.34,0-.68,0-1a4.94,4.94,0,0,0-1,.42C49.61,66.42,49.62,66.73,49.53,67Zm6.52,2.06c.05-.62-1.56-1.66-2.08-1.42-.08,0-.13.33-.09.35.59.41,1.2.8,1.82,1.17C55.78,69.24,56,69.13,56.05,69.1Zm7.93,9S63.84,78,63.8,78c-.6.31-1.2.64-1.79,1,0,0,.13.43.27.49C62.83,79.67,64,78.84,64,78.13Zm-6-7c.3.51.42,1,.7,1.14s1-.53,1-1-.5-.58-.88-.55C58.56,70.72,58.34,70.94,58,71.13ZM62.46,74l-.14.07c.13.25.25.5.37.76.17-.25.35-.49.51-.74a.34.34,0,0,0,0-.29c-.15-.29-.32-.57-.49-.86-.09.26-.19.51-.26.77A1,1,0,0,0,62.46,74ZM61,68.75l.37.34c.11-.12.27-.22.29-.35s-.14-.25-.22-.37Z"/><path d="M76.16,129.13a11.79,11.79,0,0,0-1.47-.28c-1.87-.07-3.75-.11-5.62-.15-1.6,0-3.2-.12-4.8-.08-1.9,0-3.8.18-5.69.32-2.37.18-4.74.4-7.1.63a12.19,12.19,0,0,0-1.58.29.74.74,0,0,0-.36.28,3.72,3.72,0,0,0-.35.58,4,4,0,0,1-.73-.93c-.07-.15.19-.62.37-.67a13.27,13.27,0,0,1,2.55-.52c3.56-.25,7.13-.48,10.7-.63,1.9-.09,3.81,0,5.71,0,2.27,0,4.54-.1,6.82-.14a12.54,12.54,0,0,1,1.5.06c.4,0,.9.17.77.69C76.81,128.85,76.35,129,76.16,129.13Z"/><path d="M61.85,131.09c.68.14,1.37.25,2,.41a1.3,1.3,0,0,1,.58.35,1.62,1.62,0,0,1,.25.51c-.19,0-.38,0-.57-.05-.62-.11-1.23-.28-1.86-.33a26,26,0,0,0-6.58.52,3.21,3.21,0,0,1-.81-.07c.23-.18.43-.45.68-.51,1.1-.28,2.21-.49,3.31-.73.08,0,.14-.11.2-.16s-.16-.14-.23-.14l-4.55.59c-.31,0-.85.11-.91,0a.69.69,0,0,1,.56-1.05,13.13,13.13,0,0,1,2.48-.36c2.44,0,4.89,0,7.33,0l4.88.08c.1,0,.24,0,.29,0,.21.22.38.47.57.71-.24.11-.49.33-.72.31-.93-.05-1.86-.23-2.79-.27-1.69-.06-3.39-.06-5.09-.07-.13,0-.27.12-.41.19a1.24,1.24,0,0,0,.41.16c.3,0,.6,0,.9-.06Z"/><path d="M44.12,92.9c-.3,1-.62,2.09-1,3.2-.15.45-.26.79.19,1.22.63.6.51,1.32-.24,2.23a1.2,1.2,0,0,1-1.75.37c-.39-.27-.57-.13-.82.18a14.24,14.24,0,0,1-1.31,1.38,3.26,3.26,0,0,1-.71.4,3.68,3.68,0,0,1,.35-.65c.51-.66,1-1.29,1.54-2,.31-.4.72-.75.2-1.36-.25-.3-.07-.8.48-.88a1.6,1.6,0,0,0,1.45-1.54c.18-1.26.41-2.5.63-3.75a2.07,2.07,0,0,1,.22-.51c.15.14.37.25.44.42A10.33,10.33,0,0,1,44.12,92.9Zm-1.26,5.58c-.23-.19-.39-.36-.42-.34a2.84,2.84,0,0,0-.61.53s.12.23.19.35Z"/><path d="M126,119.46c-.42.13-.62.26-.81.24-2-.18-4.07-.5-6.12-.55-2.46-.07-4.92.07-7.38.16-.42,0-.83.27-1.26.33a2.05,2.05,0,0,1-.7-.15c.11-.26.16-.67.34-.75a4.67,4.67,0,0,1,1.64-.42,52.06,52.06,0,0,1,5.3,0c2.82.21,5.63.57,8.44.87A3.39,3.39,0,0,1,126,119.46Z"/><path d="M35.25,81.58a9.4,9.4,0,0,0-.59,1.19,13.59,13.59,0,0,0-.29,1.44c-.06.28-.15.57-.22.85-.22-.11-.53-.16-.65-.34-.56-.82-1.09-1.67-1.61-2.53a1.38,1.38,0,0,1,.32-2A3,3,0,0,1,34,79.65C34.75,79.71,35.14,80.58,35.25,81.58Zm-.6-.51c-.16-.54-.72-1-1.11-.82s-.4.42-.59.64a3.81,3.81,0,0,0,.41.29c.46.23.5.44.08.77a1.43,1.43,0,0,0-.31.6.2.2,0,0,0,.35.19C33.88,82.19,34.27,81.63,34.65,81.07Z"/><path d="M1.84,97.93c1.14,0,2.28,0,3.42,0a1.41,1.41,0,0,1,.87.36c.27.27.18.61-.25.6-.65,0-1.29-.17-1.94-.21-1-.07-2.09-.09-3.13-.14a2.61,2.61,0,0,1-.55-.14c.16-.19.3-.49.5-.54a4.31,4.31,0,0,1,1.08,0Z"/><path d="M40.58,92.25c.63.49,1.33.82,1.63,1.36s-.15,1-.67,1.41-1,.19-1.16-.23A6.42,6.42,0,0,1,40,92.88C40,92.71,40.33,92.5,40.58,92.25Z"/><path d="M4.21,96.32c.45.11,1.1.24,1.72.45.15,0,.21.36.32.55-.17.07-.35.21-.51.19-.66-.05-1.31-.19-2-.23-.35,0-.7.11-1,.11a2,2,0,0,1-.6-.21c.1-.21.16-.56.3-.6A16.84,16.84,0,0,1,4.21,96.32Z"/><path d="M61.45,76c-.23.38-.33.72-.55.84a1,1,0,0,1-.8-.09,6,6,0,0,1-1.35-.84c-.24-.21-.29-.62-.43-.93a5.46,5.46,0,0,1,1,0,6.43,6.43,0,0,1,1.29.4A4.79,4.79,0,0,1,61.45,76Z"/><path d="M113.47,116.47a9.5,9.5,0,0,1,1.19.07c.18,0,.33.24.49.37-.13.13-.25.35-.4.37-1.24.15-2.49.28-3.74.38-.11,0-.36-.28-.33-.34s.24-.52.42-.56c.77-.16,1.56-.24,2.35-.36Z"/><path d="M153,50.35l-.78,5.72a1.78,1.78,0,0,1-.18.43c-.09-.15-.26-.31-.25-.46,0-.6.07-1.2.1-1.8a1.5,1.5,0,0,0-.14-.44c-.1.12-.24.22-.27.35-.27,1-.51,1.93-.78,2.89q-.66,2.35-1.34,4.71c-.41,1.4-.9,2.79-1.21,4.21-.48,2.22-.83,4.47-1.29,6.69a24.6,24.6,0,0,1-.76,2.49c-.67,2.16-1.27,4.35-2,6.48-.51,1.42-1.29,2.74-1.92,4.12-.44,1-.79,2-1.25,2.94A6.57,6.57,0,0,1,140,90c-.09.11-.31.11-.47.16a1.29,1.29,0,0,1,0-.56c.59-1.11,1.25-2.18,1.83-3.3s1.16-2.48,1.74-3.71c1.16-2.45,1.58-5.13,2.37-7.69.53-1.74.78-3.57,1.23-5.33.62-2.4,1.28-4.79,2-7.17.84-3,1.79-5.87,2.56-8.85.35-1.39.36-2.87.57-4.3a6.29,6.29,0,0,1,.38-1.16,6.07,6.07,0,0,1,.59,1.09,5.17,5.17,0,0,1,.1,1.19Z"/><path d="M150.46,50.65c-.25.84-.46,1.5-.63,2.18-.7,2.85-1.35,5.7-2.07,8.53a17.85,17.85,0,0,1-.83,2.21,1.09,1.09,0,0,1-.22.27.84.84,0,0,1-.07-.37c.23-1,.5-2.07.74-3.1.44-2,.86-3.91,1.29-5.86.28-1.3.55-2.61.86-3.9.05-.19.32-.32.48-.49Z"/><path d="M143.35,43.89c-.22,1.93-.45,4-.69,6.08a1.58,1.58,0,0,1-.17.56c-.05.09-.2.12-.31.18,0-.1-.1-.19-.09-.28a8.06,8.06,0,0,0,.23-1.17c0-1.25,0-2.5,0-3.75a8.59,8.59,0,0,1,.43-1.92c.06-.2.31-.34.48-.51C143.29,43.3,143.31,43.52,143.35,43.89Z"/><path d="M89.12,91.77c.27-1.11.56-2.38.89-3.64,0-.1.25-.16.38-.23,0,.12.11.25.08.36-.32,1.42-.66,2.84-1,4.25,0,.08-.12.14-.18.21a1.4,1.4,0,0,1-.16-.29C89.1,92.26,89.12,92.09,89.12,91.77Z"/><path d="M56.94,56.47l.53.24a3.43,3.43,0,0,1-.33.33.71.71,0,0,1-.36.17c-1.88.19-3.41,1.28-5,2.13A54.78,54.78,0,0,0,46.29,63c-.78.55-1.45,1.26-2.2,1.87a1.64,1.64,0,0,1-.6.2c0-.22-.14-.53,0-.65a11.29,11.29,0,0,1,1.73-1.79c1.21-.92,2.53-1.7,3.77-2.58a33,33,0,0,1,6.2-3C55.72,56.8,56.34,56.66,56.94,56.47Z"/></g></g></svg>