<svg xmlns="http://www.w3.org/2000/svg" viewBox="0 0 196.48 90.62"><g id="Warstwa_2" data-name="Warstwa 2"><g id="Ńëîé_1" data-name="Ńëîé 1"><path d="M175.7,46c-1.81.09-3.61.18-5.42.29-.16,0-.31.15-.47.24a3.47,3.47,0,0,0,.45.06c3.11.11,6.21.19,9.31.31,1.62.07,3.25.17,4.86.34a8.56,8.56,0,0,1,1.9.54c.12,0,.19.22.27.34a1.12,1.12,0,0,1-.43.1c-2-.24-4-.62-5.95-.72-2.91-.15-5.82-.1-8.73-.12-.83,0-1.67,0-2.5.08a1.48,1.48,0,0,0-.6.09c-.43.23-.83.52-1.24.78.43.07.86.17,1.29.21,2.63.23,5.26.43,7.88.66,1.46.13,2.91.26,4.35.45a12.29,12.29,0,0,1,1.89.52c.07,0,.12.11.17.17a2.7,2.7,0,0,1-.28,0c-1.53-.16-3.06-.34-4.59-.46-2.3-.18-4.6-.32-6.89-.44-1.51-.08-3-.13-4.52-.1a6.36,6.36,0,0,0-1.74.4c-.14,0-.23.29-.34.44.16.09.31.25.47.26,1.14.06,2.27.1,3.41.14,2.41.06,4.81.06,7.21.21,1.69.1,3.36.39,5,.6a.7.7,0,0,1,.23.11,1,1,0,0,1-.29.09c-3.06-.06-6.13-.13-9.2-.18a1.74,1.74,0,0,0-.6.19,2.23,2.23,0,0,0,.61.28c1.5.26,3,.49,4.5.74.14,0,.25.17.37.26a1.72,1.72,0,0,1-.44.06c-4.23-.68-8.5-.57-12.76-.73a13,13,0,0,0-3.41.71c-.15,0-.25.26-.38.4a1.51,1.51,0,0,0,.48.26c2.79.26,5.58.49,8.37.75,1.43.13,2.86.27,4.28.42a1,1,0,0,1,.38.11c.38.19.75.4,1.12.6-.36,0-.73-.08-1.09-.1-2.3-.16-4.6-.29-6.9-.47s-4.32-.4-6.49-.55a14.6,14.6,0,0,0-2.28.18c-.12,0-.22.14-.33.21.13.07.24.2.37.21,1.34.13,2.67.25,4,.36s2.61.12,3.9.31a28.84,28.84,0,0,1,3.24.79c.12,0,.2.22.29.33-.13.06-.29.19-.4.16a18.62,18.62,0,0,0-4.73-.82c-3.37-.18-6.75-.31-10.12-.36a9.28,9.28,0,0,0-2.32.54c-.06,0-.1.12-.15.19l.28.05,4.31.33c1.89.14,3.79.25,5.68.43,1.62.15,3.24.38,4.86.58a6.55,6.55,0,0,1,1,.2c.1,0,.18.15.27.24-.12,0-.23.11-.34.1-1.84-.16-3.67-.38-5.51-.49-4.11-.24-8.23-.51-12.35-.59a11.24,11.24,0,0,0-3.26.94c-.06,0-.09.13-.13.2a.9.9,0,0,0,.24.12c1.33.1,2.66.18,4,.29,1.54.13,3.08.25,4.61.44,2.49.32,5,.68,7.45,1a2.48,2.48,0,0,1,.66.27,4,4,0,0,1-.76.08c-1.46-.14-2.92-.32-4.39-.45-2.53-.22-5.06-.45-7.6-.63-2.06-.15-4.13-.23-6.2-.33a1.49,1.49,0,0,0-.67.18c-.4.18-.3.39,0,.52a3.91,3.91,0,0,0,.77.17l7.84,1c.73.09,1.46.16,2.18.3.23,0,.42.29.62.45a2.67,2.67,0,0,1-.63,0c-2.15-.25-4.29-.58-6.45-.78-2.76-.27-5.53-.54-8.3-.6a14.32,14.32,0,0,0-3.51.75c-.08,0-.13.13-.2.2.11,0,.21.16.31.17,2,.18,3.93.33,5.88.54s4.15.49,6.22.75c.64.07,1.29.15,1.93.24a1.43,1.43,0,0,1,.34.14c-.12.09-.25.27-.37.26-.87-.05-1.73-.14-2.59-.21l-10.62-.85a10.55,10.55,0,0,1-1.7-.13c-1.89-.47-3.64.13-5.4.65a2.43,2.43,0,0,0-.67.4,1.64,1.64,0,0,0-.27.26l.36.06c3.2.2,6.4.41,9.6.59,2,.12,4,.16,6,.32a21.15,21.15,0,0,1,2.7.54,1.33,1.33,0,0,1,.3.18.89.89,0,0,1-.31.08c-.63-.09-1.25-.25-1.87-.29-.9,0-1.8,0-2.7,0-1.3,0-2.6-.1-3.9-.16-3.48-.17-7-.41-10.44-.49a40.42,40.42,0,0,0-4.9.38c-.19,0-.36.2-.54.32a2.18,2.18,0,0,0,.53.17c2.53.24,5.06.43,7.59.7,1.82.2,3.62.5,5.43.77.13,0,.24.14.36.21a1.3,1.3,0,0,1-.45.14c-1.9-.12-3.8-.23-5.69-.38-2.37-.18-4.73-.38-7.09-.57l-4-.28a1.19,1.19,0,0,0-.5,0c-.12,0-.21.21-.31.32.1.07.2.19.3.2l4,.18c.76.05,1.52.12,2.27.21q2.84.3,5.67.65a2.12,2.12,0,0,1,.55.26,3.81,3.81,0,0,1-.59,0c-2.6-.15-5.2-.33-7.8-.45s-5.21-.16-7.81-.23a2,2,0,0,0-.69.11c-.11,0-.18.17-.27.27a1.47,1.47,0,0,0,.34.15c1.16.15,2.33.26,3.48.45,1.8.29,3.59.66,5.39.94,1.34.21,2.7.32,4,.48.38,0,.77.12.69.65s-.43.48-.83.44c-2.75-.31-5.5-.68-8.26-.89s-5.41-.25-8.12-.35a1.43,1.43,0,0,0-.38.13,2.49,2.49,0,0,0,.33.16l3.81.8a1.68,1.68,0,0,1,.63.21c.1.06.1.27.14.41-.13,0-.26.12-.37.1-2.06-.35-4.12-.74-6.19-1-.82-.13-1.67-.07-2.5-.16-1.3-.15-2.59.59-3.91,0-.27-.12-.69.15-1,.24a5.24,5.24,0,0,0,1,.3q6,.59,12,1.13c.89.08,1.8,0,2.7.07.74,0,1.49.16,2.23.25.08,0,.16.09.23.13-.09.06-.18.18-.28.18-.83,0-1.66,0-2.5,0-1.53-.07-3.06-.18-4.59-.26s-3.25-.11-4.87-.24c-2.21-.18-4.41-.44-6.61-.67-.26,0-.58-.15-.78-.06a5.53,5.53,0,0,0-.92.71,3.14,3.14,0,0,0,.69.38c.48.12,1,.17,1.46.25,2.73.44,5.45.91,8.18,1.33,1.51.23,3,.37,4.57.55a2.09,2.09,0,0,1,.66.19c.11.07.15.26.23.4a1.72,1.72,0,0,1-.44.06c-.85-.14-1.7-.36-2.56-.42a6.76,6.76,0,0,0-1.49.29,1.88,1.88,0,0,1-.58,0c-4.17-.34-8.35-.67-12.51-1-1.4-.13-2.78-.4-4.18-.55a10.1,10.1,0,0,0-1.9.07c-.16,0-.3.2-.45.31.15.1.3.26.46.28,1.59.21,3.19.37,4.77.6,2.34.34,4.67.73,7,1.1.62.1,1.25.16,1.86.32.77.21,1.52.49,2.27.77.07,0,.08.21.12.32-.12,0-.25.1-.35.07-3.17-1-6.49-1.18-9.75-1.65-2.25-.32-4.53-.42-6.79-.57a4,4,0,0,0-1.34.28c-.12,0-.17.26-.25.4.13.08.26.21.4.22.46,0,.93,0,1.39.09,2.76.26,5.53.42,8.26.84a44.66,44.66,0,0,1,5.51,1.44c.19,0,.32.34.48.52-.24,0-.49-.06-.73-.12-.5-.11-1-.24-1.51-.38a56.62,56.62,0,0,0-10.12-1.37c-1.79-.15-3.61,0-5.42,0A2.63,2.63,0,0,0,86,77c-.11,0-.2.15-.3.23a2.15,2.15,0,0,0,.36.11c.85.09,1.71.19,2.56.25,1.64.13,3.28.18,4.91.35,2.29.24,4.58.56,6.86.86a2.4,2.4,0,0,1,.73.3c.28.13.54.29.82.43a5.66,5.66,0,0,1-1.09,0,68.4,68.4,0,0,0-9.23-1c-1.73-.13-3.45-.3-5.18-.37-1,0-2,.08-3.06.15-.12,0-.24.16-.36.24a1.49,1.49,0,0,0,.43.19c2,.33,3.94.66,5.92,1,1.25.19,2.52.33,3.78.5l3.36.49a1.33,1.33,0,0,1,.48.14c.34.21.66.46,1,.69-.35,0-.71,0-1.07-.07l-6.65-.92c-2.43-.34-4.85-.72-7.28-1a19,19,0,0,0-2.38.08,24.12,24.12,0,0,1-2.69-.15c-1.49-.19-3-.46-4.46-.66A2.71,2.71,0,0,0,71,79.94c-.33.39-.07.44.25.45,2.24.06,4.47.11,6.71.2a19.34,19.34,0,0,1,5.68.79,17.55,17.55,0,0,0,3.36.38c1,.14,2,.35,3,.55.12,0,.21.18.31.28a1.21,1.21,0,0,1-.36.07A61.11,61.11,0,0,0,81,82.11c-.25,0-.49-.28-.74-.39a3,3,0,0,0-1.06-.4c-2.07-.08-4.15-.17-6.23-.14a15.73,15.73,0,0,0-6.11,1c-.33.14-.69.23-1,.4-.07,0,0,.28-.06.42a1.17,1.17,0,0,0,.42,0c.35-.15.69-.45,1-.46,2.37-.07,4.73-.14,7.1-.1a32.84,32.84,0,0,1,3.54.42c.16,0,.39,0,.47.12a3.52,3.52,0,0,1,.38.72l-.6-.12c-1.09-.17-2.17-.38-3.26-.5-2.42-.27-4.81.38-7.23.18-.07,0-.14.06-.21.09a1.21,1.21,0,0,0,.25.08c1.78.2,3.57.36,5.35.6,1.57.22,3.12.52,4.68.81.14,0,.24.25.35.37a1.43,1.43,0,0,1-.39.23,1.2,1.2,0,0,1-.5,0A115.26,115.26,0,0,0,65.47,84a1.19,1.19,0,0,1-.8-.32c-.44-.59-.83-.37-1.39-.16-1.68.65-3.41,1.2-5.11,1.8a3,3,0,0,0-.55.32c.21.08.41.16.61.22s.27,0,.4.08l.71.23a3.32,3.32,0,0,1-.81.16c-2.76-.16-5.53-.35-8.3-.51a10.67,10.67,0,0,0-1.59.09,1.66,1.66,0,0,0-.46.19,1.81,1.81,0,0,0,.41.22,10,10,0,0,0,1.08.15,46.63,46.63,0,0,1,8.48,1.41c.21.06.38.32.52.52s0,.25-.08.35-.18,0-.28,0a33.37,33.37,0,0,0-3.63-.94c-2-.3-4-.45-6-.63-1-.09-2-.16-3-.16A2.39,2.39,0,0,0,44,87.5c-.34.31-.94.31-1.41.48-.1,0-.17.17-.26.26.1.06.2.16.31.16,1.36.07,2.73,0,4.08.21a29.47,29.47,0,0,1,3.3.72c.08,0,.14.18.21.28-.14,0-.28.17-.41.15-1.06-.1-2.12-.24-3.18-.34-.73-.07-1.46-.13-2.19-.15a8.84,8.84,0,0,1-3.5-.47,3.45,3.45,0,0,0-.79-.15c-.4-.06-.9-.15-1,.38,0,.16.52.52.85.57.92.16,1.86.18,2.79.29a2.65,2.65,0,0,1,.73.29c.08,0,.16.1.24.15a1.55,1.55,0,0,1-.29,0c-1.36-.12-2.73-.19-4.09-.39-.64-.09-1.24-.52-1.87-.58a17.8,17.8,0,0,0-2.17.18c-1,0-2.06-.09-3.08,0-1.21.07-2.35.56-3.53-.43-.53-.45-1.6-.27-2.44-.33a5.63,5.63,0,0,1-3.94-1.46.93.93,0,0,0-.7-.18c-1.22.2-2.43.44-3.65.65a2.74,2.74,0,0,1-.57,0c.13-.13.23-.32.39-.38.92-.37,1.85-.74,2.8-1,.49-.15.68-.31.33-.74a9.33,9.33,0,0,0-1.86-2.16,4.43,4.43,0,0,0-2.3-.33c-1.2,0-2.4.12-3.6.21a3.68,3.68,0,0,0-.74.27,4.18,4.18,0,0,1-.51.06c.07-.18.1-.47.21-.51,1-.34,1.94-.68,2.94-.93a13.6,13.6,0,0,1,1.7-.12,2.93,2.93,0,0,0,.59-.24c-.1-.2-.15-.46-.31-.59a4.46,4.46,0,0,0-3.45-1c-1.83.18-3.64.5-5.46.75a1.93,1.93,0,0,1-.47,0,2.73,2.73,0,0,1,.45-.23c.85-.25,1.71-.53,2.58-.71,1.07-.23,2.16-.36,3.24-.57.42-.08,1-.17,1.16-.44.23-.52-.5-1.38-1.21-1.46-2-.2-3.92-.4-5.88-.46-2.44-.08-4.88,0-7.31,0A3.6,3.6,0,0,1,0,77a2.59,2.59,0,0,1,.72-.29c1.59-.09,3.19-.19,4.78-.2,2.41,0,4.82,0,7.23,0a3,3,0,0,0,.75-.22c-.21-.3-.4-.82-.65-.86a13.3,13.3,0,0,0-4.67-.19c-1.6.34-3.24.45-4.87.66a1.37,1.37,0,0,1-.39-.06,2,2,0,0,0,.35-.11,30.67,30.67,0,0,1,8.55-1.52,2.79,2.79,0,0,0,.81-.37c-.26-.17-.49-.45-.76-.5a15.08,15.08,0,0,0-5,.1,31.52,31.52,0,0,1-3.51.27c-.49,0-1,0-1.47.05a2.2,2.2,0,0,1-.37-.06c.11-.06.2-.15.31-.16,2.25-.29,4.51-.55,6.75-.87A31.69,31.69,0,0,0,11.92,72c.15,0,.26-.47.29-.73.13-1.2.13-2.42.35-3.6s.73-2.57,1-3.86c.52-2.15.92-4.32,1.49-6.45a23.11,23.11,0,0,1,1.46-4.06c1.68-3.45,3.4-6.89,5.25-10.24a48,48,0,0,1,3.25-4.7,28.15,28.15,0,0,1,2-2.51,37.71,37.71,0,0,1,3-2.93c2.07-1.78,4.13-3.58,6.33-5.2A44.1,44.1,0,0,1,41,25c.86-.5,1.71-1,2.6-1.47,1.39-.72,2.82-1.37,4.21-2.1a13.48,13.48,0,0,1,7.43-1.17c.33,0,.66-.08,1-.08s.45-.17.61-.58a5.11,5.11,0,0,1,1.53-1.91,24.08,24.08,0,0,1,8.1-4.5c1.68-.53,3.47-.71,5.2-1.09a13.4,13.4,0,0,1,6.94.37,2.5,2.5,0,0,0,2.43-.55c2.61-2,5.69-2.93,8.71-4a79.05,79.05,0,0,1,8.55-2.12,12.17,12.17,0,0,1,3.47-.45,8.87,8.87,0,0,1,5,1.47,18.69,18.69,0,0,0,2.75,1.4.68.68,0,0,0,.54,0c.87-.53,1.69-1.16,2.6-1.62a8.84,8.84,0,0,1,2.62-.94,3.94,3.94,0,0,0,2-.93,5.8,5.8,0,0,1,3-1c2.6-.46,5.22-.82,7.84-1.19,3.08-.44,6.15-.94,9.24-1.26s6.12-.44,9.18-.66c2.2-.15,4.39-.4,6.59-.47,2.47-.09,4.95,0,7.43,0a23.09,23.09,0,0,1,3,.12c1.26.15,2.51.48,3.78.65a13.68,13.68,0,0,1,4.08,1.25A29.37,29.37,0,0,0,175,3.17a1.29,1.29,0,0,1,.62.3c.91,1.26,1.8,2.52,2.66,3.81.29.44.43,1,.69,1.44.64,1.15.35,2.41.47,3.62,0,.41-.34.93.34,1.17.08,0,0,.44,0,.66a1.62,1.62,0,0,0,.3.47c.16-.15.49-.37.46-.44-.25-.58.2-.69.53-.89,2.3-1.42,4.59-2.86,6.9-4.26a11.29,11.29,0,0,1,2.07-1c.79-.29,1.19,0,1.39.84a.43.43,0,0,0,.35.27,5.5,5.5,0,0,0,.87-.21c.27-.07.74-.25.77-.19a2.75,2.75,0,0,1,.36,1.1c0,.46-.15.93-.15,1.39a2.44,2.44,0,0,0,.85,2.09c.67.59,1.42,1.5.73,2.65a.55.55,0,0,0,.05.5c1.19,1.06.9,2.52,1.07,3.85.06.5,0,1,.07,1.51.08.71-.32.89-.9.86a1.55,1.55,0,0,1-.68-.16C192.45,21.08,189.76,21,187,21a14.91,14.91,0,0,1-2.41-.1c-.62-.09-1,0-1.28.63-.1.28-.33.51-.44.78a1.05,1.05,0,0,1-1.43.74c-.4-.13-.45,0-.44.28s0,.47,0,.7c-.07,1.71-.08,3.42-.26,5.11a17.69,17.69,0,0,1-.74,2.46,15.13,15.13,0,0,1-2.92,5.66.93.93,0,0,0-.12.33,2.46,2.46,0,0,0,.47,0,14.19,14.19,0,0,1,5.45.66.4.4,0,0,1,.18.07l.71.59a4.65,4.65,0,0,1-.83-.07,15.9,15.9,0,0,0-6-.28c-.17,0-.39,0-.48.11-.33.35-.61.74-.91,1.11a5.33,5.33,0,0,0,1.1.21,57.21,57.21,0,0,1,9.61.55c.13,0,.3,0,.39.06a4.61,4.61,0,0,1,.51.48l-.64,0-1.08,0c-2.83-.08-5.66-.17-8.5-.22a17.66,17.66,0,0,0-2.29.18,1.55,1.55,0,0,0-.41.2c.12.09.23.26.36.27.69.08,1.39.15,2.09.17,2.37.09,4.74.1,7.11.24a23.05,23.05,0,0,1,6.41,1.3c.15.06.22.35.33.54a2.46,2.46,0,0,1-.55,0c-.61-.15-1.21-.35-1.82-.49a1.68,1.68,0,0,0-.61.11c.14.14.25.37.42.42.45.14.92.17,1.37.3.18.06.31.28.47.43a1.23,1.23,0,0,1-.52.1c-3.29-.78-6.66-.66-10-.7a51.44,51.44,0,0,0-6.27.64c-.59.07-1.19.16-1.79.27-.13,0-.24.17-.37.26.13.06.26.18.38.18,3.28,0,6.56-.05,9.84.11a52.6,52.6,0,0,1,5.82.83c.2,0,.37.3.55.46a4.08,4.08,0,0,1-.69,0c-1.69-.15-3.37-.4-5.06-.47-2-.08-4,0-6,0ZM83.42,60.07A1.89,1.89,0,0,0,85.2,58c0-.24-.27-.44-.41-.66a2.76,2.76,0,0,0-.45.53c-.33.73-.61,1.48-.91,2.22l-.9,2.06c-.09.2-.21.38-.31.57.23,0,.52,0,.69-.14A6,6,0,0,0,84,61.63c.08-.1,0-.4-.09-.58C83.75,60.71,83.57,60.4,83.42,60.07ZM13.12,70.33l.22,0a11.77,11.77,0,0,0,1.9,6.06c.15.25.55.45.55.67,0,1.1.83,1.73,1.38,2.51a3.52,3.52,0,0,0,.91.67c0-.31,0-.63,0-.94a1.19,1.19,0,0,1,0-.5,1.08,1.08,0,0,0-.35-1.25A8.93,8.93,0,0,1,16,72c0-.16.21-.45.3-.44a1,1,0,0,1,.54.32,1.46,1.46,0,0,1,.16.57c.21,1,.4,2,.64,3a2.61,2.61,0,0,0,1.53,2.07c.45.18.59.47.18.93a1.16,1.16,0,0,0-.14,1,3.67,3.67,0,0,0,.69,1.33,1.17,1.17,0,0,0,1,.38c.71-.15.68.3.6.68a1.3,1.3,0,0,1-.54.67c-.39.24-.42.38-.09.74.64.72,1.19,1.52,1.8,2.27a4.39,4.39,0,0,0,2.46,1.79,19,19,0,0,0,10.49-.68,85.89,85.89,0,0,0,12-5.3,42.21,42.21,0,0,0,5.55-3.92c.86-.64,2-1.08,2.29-2.28,0-.12.32-.18.49-.26a3.07,3.07,0,0,0,.8-.35,33.92,33.92,0,0,0,3.49-3.28c1.72-2,3.22-4.25,4.88-6.33,1.47-1.84,2.38-4.05,4-5.77a17.89,17.89,0,0,0,1.64-2.82,23.24,23.24,0,0,0,2.09-5.06c1.13-3.36,1.22-6.9,1.67-10.38a1.71,1.71,0,0,0-.1-.54,2.54,2.54,0,0,0-.37.51c-.18.5-.28,1-.49,1.52-.07.16-.36.23-.55.33a2.13,2.13,0,0,1-.1-.54c.07-.46.23-.92.26-1.38.14-1.73.28-3.45.34-5.18,0-.39-.24-1.1-.43-1.12-.64-.06-.4-.47-.35-.7s.31-.64.44-.63c.57.06.45-.25.35-.55-.44-1.42-.58-2.94-1.51-4.21-.62-.86-1-1.93-1.63-2.74A12.72,12.72,0,0,0,67.46,23a24.67,24.67,0,0,0-2.31-1A12.21,12.21,0,0,0,58,21.13c-1,.13-2,.05-3,.12-1.37.09-2.74.21-4.11.34-.34,0-.63.12-.53.63s-.29.78-.81.93c-1.27.38-2.51.84-3.77,1.26-.42.14-.86.24-1.29.36l.94-.9c.07-.06.18-.09.26-.16l.78-.69a5.89,5.89,0,0,0-1.13.32,9.62,9.62,0,0,0-2,1.61A10.72,10.72,0,0,1,39.9,27c-2,.72-3.56,2.19-5.27,3.36a45.27,45.27,0,0,0-4.22,3.5,15,15,0,0,0-3.23,3.37c-.66,1.11-1.59,2.06-2.33,3.12a42.66,42.66,0,0,0-2.43,3.74c-.5.89-.7,1.95-1.19,2.84-.85,1.54-1.87,3-2.71,4.52A14.5,14.5,0,0,0,17,55c-.67,2.83-1.93,5.5-2.17,8.44a16.82,16.82,0,0,1-.55,2.14C13.86,67.17,13.5,68.75,13.12,70.33Zm82.5-46c0,.27,0,.54-.05.8a2.34,2.34,0,0,0,1.11,2.11,1.36,1.36,0,0,0,.43.09,1.77,1.77,0,0,0-.07-.46c-.2-.41-.45-.8-.62-1.22-.06-.14,0-.36.07-.55a2,2,0,0,1,.62.22c.17.13.25.38.39.57.66.87,1.08,1.95,2.24,2.34a.67.67,0,0,1,.39.48c0,.43-.27.54-.68.44-.67-.17-1.34-.32-2-.47a3.41,3.41,0,0,0-.55-.05,1.6,1.6,0,0,0,.15.51c.72,1,1.48,2.05,2.2,3.09s1,1,1.62-.05c.05-.09.08-.25.14-.26a1.42,1.42,0,0,1,.73,0,.61.61,0,0,1,.27.55c-.29,1-.6,2-1,2.92-.1.24-.48.37-.73.54a7.41,7.41,0,0,1-.25-.8,1,1,0,0,1,.07-.4c.14-.44-.07-.64-.37-1-1.09-1.24-2.84-1.31-4-2.38-.12-.11-.36-.09-.55-.13a2.28,2.28,0,0,0-.05.58c.06.42.33.88.22,1.24-.28,1,.49,1.47.86,2.14,0,.06.17.07.26.1a1,1,0,0,0,0-.34c0-.09-.15-.17-.16-.25,0-.44,0-.87,0-1.31a7.94,7.94,0,0,1,.81.93c.83,1.28,1.33,2.84,3,3.45a.63.63,0,0,1,.27.5,29.47,29.47,0,0,1-.13,3.39c0,.23-.64.4-1,.6-.1-.28-.31-.57-.27-.83.12-.72.39-1.42.48-2.14a1.39,1.39,0,0,0-.4-1c-1-1-2.66-1.13-3.47-2.44-.06-.11-.35-.21-.42-.16a.8.8,0,0,0-.25.47A2,2,0,0,0,95.75,38c.82.74,1,2.06,2.07,2.6.1,0,0,.52,0,.78,0,0-.46.08-.54,0-.41-.48-.75-1-1.13-1.52s-.61-.76-.92-1.13c.14.56.26,1.12.43,1.67,0,.15.3.22.42.35s.27.33.24.45-.26.22-.42.27a3.43,3.43,0,0,1-.56,0c0,.55-.81,1-.16,1.65a3.43,3.43,0,0,1,.61.92c.41.76,1.41,1.31.89,2.41.16.05.44.19.46.15.55-.77,1.08-1.56,1.6-2.35,0-.05,0-.17,0-.26s-.27,0-.34.13a6.19,6.19,0,0,1-.58.81c-.12.11-.4,0-.61.06a1.41,1.41,0,0,1,.07-.55,3.42,3.42,0,0,1,.65-.86,7.8,7.8,0,0,1,1-.67c.18.4.55.82.5,1.19a6.7,6.7,0,0,1-1.59,3.39,1,1,0,0,1-1.41.26c-.59-.26-.57-.75-.53-1.28a1.83,1.83,0,0,0-.12-1A13.44,13.44,0,0,0,94.57,44c-.1-.11-.22-.21-.32-.31a1.1,1.1,0,0,0-.22.41c0,.5,0,1,0,1.49a3.16,3.16,0,0,1-.18.67c-.16-.19-.41-.36-.44-.57a23.13,23.13,0,0,1-.28-2.49,9.76,9.76,0,0,1,0-2c.06-.4.33-.7.76-.22.08.09.29.06.44.09-.12-.71-.24-1.43-.38-2.13,0-.09-.2-.19-.32-.19s-.15.17-.19.27c-.34.94-.68,1.87-1,2.82s-1,2-.22,3.12c.49.7.9,1.45,1.39,2.15s1.06,1.33,1.52,2a2.09,2.09,0,0,1,.42,1.25,2.66,2.66,0,0,1-.71,1.21,1,1,0,0,1-.7.14,6,6,0,0,1-.83-2.42c.09-1.1-.6-1.72-1-2.53,0-.09-.2-.13-.31-.19-.05.12-.15.23-.14.34a6.06,6.06,0,0,0,.23,2c.66,1.49,1.47,2.9,2.23,4.34a.62.62,0,0,0,.39.28.92.92,0,0,1,.79,1,1.53,1.53,0,0,0,.08.37l.24-.24c.43-.44.78-.37,1,.19a5.05,5.05,0,0,0,.25.45,3.06,3.06,0,0,0,.33-.47c.38-.78.7-1.59,1.12-2.35.1-.18.48-.21.74-.31.06.23.23.49.18.69a6.59,6.59,0,0,1-.47,1.21A32,32,0,0,1,97.7,57c-.46.76-1.1.64-1.44-.19-.12-.28-.16-.58-.27-.87a6.36,6.36,0,0,0-.3-.58,5.73,5.73,0,0,0-.38.62c-.78,1.61-1.52,3.25-2.35,4.83-.15.29-.7.62-.95.54-.47-.15-.45-.65-.28-1.11.47-1.22.88-2.46,1.39-3.66a13.49,13.49,0,0,1,1-1.54.67.67,0,0,0,.08-.54c-.52-1-1.08-2-1.65-2.93a.42.42,0,0,0-.34,0,2.07,2.07,0,0,0,.26,2.39,4.94,4.94,0,0,1,.51.62,2,2,0,0,1,.12.65,1.91,1.91,0,0,1-.72,0,1.24,1.24,0,0,1-.51-.55c-.4-.81-.76-1.63-1.15-2.44a1.28,1.28,0,0,0-.31-.35c-.07.16-.22.32-.22.48a2.37,2.37,0,0,0,.59,1.91,9.48,9.48,0,0,1,1.5,2.23c.14.26-.08.69-.13,1.05-.71-.27-.94.41-1.39.67a1.69,1.69,0,0,1-1.05.06c-.08,0-.08-.51-.09-.79,0-.69,0-1.39,0-2.09,0-1-.1-2.08-.18-3.11a7.31,7.31,0,0,0-.19-1c-.19.33-.39.67-.57,1,0,.08,0,.2,0,.3.11,1.5.31,3,.31,4.51s-.17,3.12-.26,4.69c0,.13.07.38.12.38a1.67,1.67,0,0,0,.63-.11c.07,0,0-.32.1-.36a4,4,0,0,1,1-.39,1.1,1.1,0,0,1,.22.56,1.25,1.25,0,0,1-.4.75c-1.18.68-2.69,1-2.94,2.69,0,.15-.38.24-.58.36,0-.25-.06-.49-.08-.74s0-.62-.1-.79a.87.87,0,0,1,0-1.39,1.46,1.46,0,0,0,.4-1c0-1.06-.14-2.13-.25-3.2,0-.15-.23-.27-.35-.41-.13.12-.37.24-.38.37A14.93,14.93,0,0,0,86,61a28.71,28.71,0,0,1-.11,7.58,2.09,2.09,0,0,1-.47.71,3.87,3.87,0,0,1-.37.32,2.52,2.52,0,0,0,.56-.1,5.06,5.06,0,0,0,2.55-4c0-.37,0-.74.45-.7a1.81,1.81,0,0,1,.88.37c.17.12.18.49.34.58.77.41.49.87.17,1.4-.88,1.51-2.37,2.31-3.73,3.23a2.86,2.86,0,0,1-2,.36c-.9-.2-.81.21-.73.75a3.22,3.22,0,0,0,.2.67,3.07,3.07,0,0,1-.66,2.06c-.12,0-.33.09-.38,0-.73-.83-.42.14-.57.32s-.3.35-.44.53c-.15-.19-.39-.36-.42-.57-.14-.94-.12-.94-1-.57a1.59,1.59,0,0,0-1.14,2,.84.84,0,0,0,.61.5c1.25-.2,2.49-.45,3.73-.73a.63.63,0,0,0,.37-.48c0-.78.31-.82.94-.63a1.59,1.59,0,0,0,1.92-1.11,2.23,2.23,0,0,1,.68-.83,7.66,7.66,0,0,1,.68-.41c.36-.27.66-.55,0-.83-.16-.07-.2-.43-.3-.66.26-.1.61-.36.76-.27.76.46,1.08,0,1.44-.55.51-.7,1-1.41,1.57-2,1-1.08,1.19-2.55,2.18-3.66a28.38,28.38,0,0,0,2.55-4.06c.93-1.5,1.9-3,2.82-4.47.53-.85,1-1.75,1.5-2.6.81-1.33,1.93-2.51,2-4.2,0-.13.17-.27.28-.39a6.53,6.53,0,0,0,.93-1c.84-1.36,1.64-2.75,2.44-4.13.89-1.55,1.79-3.1,2.65-4.67a25,25,0,0,1,1.83-3.53,13.15,13.15,0,0,0,1.88-4,27.15,27.15,0,0,0,1.14-7.59,24,24,0,0,0-.42-5.35,20.88,20.88,0,0,0-1.49-4.11,9.58,9.58,0,0,0-4.34-4.31A30.24,30.24,0,0,1,104.37,8a7,7,0,0,0-4.91-1.29,28.86,28.86,0,0,0-5.23.88,74.8,74.8,0,0,0-7.3,2.36,40.21,40.21,0,0,0-4.43,2.27c-.19.1-.29.35-.43.53.2.09.4.19.6.26a7.14,7.14,0,0,1,1.24.38c1.44.76,2.81,1.71,4.51,1.86.11,0,.2.19.31.24A9.81,9.81,0,0,0,93,16.6a3.55,3.55,0,0,1,2.64.36c.2.14.6.31.58.4a1.51,1.51,0,0,1-.45.82,4.74,4.74,0,0,1-1.25.63c-.37.14-.41.21-.24.62A11.4,11.4,0,0,1,95.62,24.31Zm-21-11.38a26.29,26.29,0,0,0-8.43,1.49,17.13,17.13,0,0,0-5.91,3c-.69.58-1.38,1.15-2,1.77-.17.16-.16.49-.24.74.22,0,.43.1.65.11s.74-.05,1.1,0c1.4.14,2.79.33,4.19.46a2.4,2.4,0,0,0,.77-.23c-.36-.8.08-1.42.47-2.05.16-.26.26-.45-.22-.51-.26,0-.66-.34-.67-.53a1,1,0,0,1,.48-.76c1.38-.58,2.78-1.11,4.19-1.62a.61.61,0,0,1,.54.24.78.78,0,0,1-.2.59c-.12.14-.36.17-.55.24l-2,.79a1.91,1.91,0,0,0-.36.29c.15,0,.29.06.43.07.39,0,.78,0,1.16.1a1.29,1.29,0,0,1,.32.18c-.08.13-.14.33-.26.39s-.54.09-.76.22a6.25,6.25,0,0,0-1.27.88c-.18.17-.17.54-.24.82a3.91,3.91,0,0,0,.75-.26,5.62,5.62,0,0,0,.91-.62,4.75,4.75,0,0,1,2.87-1,1.5,1.5,0,0,1,.45.12,3,3,0,0,1-.26.47,1.35,1.35,0,0,1-.36.18l-4,2.09c-.44.23-.37.48,0,.59.84.25,1.61,1.14,2.59.31.1-.08.32,0,.49,0a11.72,11.72,0,0,1,1.68.24,8.93,8.93,0,0,1,2.29.89c2,1.28,2.86,3.35,3.56,5.49a4.52,4.52,0,0,0,2.5,2.69c.56.27,1,.1,1.13-.55a12.71,12.71,0,0,1,.5-1.73c.37-.91.62-1,1.2-.21a3.62,3.62,0,0,1,.56,1.23,11.67,11.67,0,0,1,.09,1.2.77.77,0,0,0,.33.41c.05,0,.31-.14.35-.26a14.15,14.15,0,0,0,.62-2.08c.39-2.35-.52-4.47-1.36-6.56-.28-.7-.17-1.19.35-1.45.75-.36.47-.53,0-.86a2.32,2.32,0,0,1-.44-.65,2.48,2.48,0,0,1,.72-.19,1.68,1.68,0,0,1,.84.24,10.67,10.67,0,0,1,3.22,3.78c.31.62.42,1.34,1.3,1.42.09,0,.22.18.24.28.18,1.25.88,2.43.55,3.73a7,7,0,0,1-.66,1.35,6.42,6.42,0,0,1-.67-1.23c-.4-1.32-.52-2.7-1-4a7.93,7.93,0,0,0-2.71-3.68,4.53,4.53,0,0,0-.48-.27,2.78,2.78,0,0,0,0,.57,1.69,1.69,0,0,0,.18.47,13.81,13.81,0,0,1,.9,6.88c-.06.47-.33,1,.5,1.09.12,0,.28.31.3.49.14,1.34.69,2.67.1,4-.16.38-.18.9-.73.66-.19-.08-.29-.6-.27-.9,0-.77.21-1.52.23-2.29,0-.28-.25-.56-.39-.85a2.74,2.74,0,0,0-.58.71c-.19.51-.5.84-.93.42s-.42,0-.46.15A4.18,4.18,0,0,1,81.1,35c-.42.28-.65.35-1,0a17.22,17.22,0,0,0-1.48-1.2.51.51,0,0,0-.46-.05.45.45,0,0,0-.07.44,2.06,2.06,0,0,0,.49.7A6.12,6.12,0,0,0,81,36.44c.21,0,.54.4.5.5-.35.91.37,1.37.73,2a2.36,2.36,0,0,1,.27,1.43,8,8,0,0,1-.64,2c-.17.41-.53.73.07,1.09.12.07.17.53.08.59a6.55,6.55,0,0,1-1.29.74,3.7,3.7,0,0,1-.9.21,5.62,5.62,0,0,0,.69.69c.29.21.64.33.95.52a2.4,2.4,0,0,1,.58.52.53.53,0,0,1,0,.46c0,.06-.3.07-.42,0a19,19,0,0,1-2-1.05A16.72,16.72,0,0,1,78.37,45a3.18,3.18,0,0,0-.77-.35,6.38,6.38,0,0,0-.07.87c0,.12.13.23.21.34.53.67,1,1.37,1.6,2,1,1.06,1.24,1.05,2.47.09a.54.54,0,0,1,.44-.08.48.48,0,0,1,.17.4c-.09.35-.25.68-.36,1-.28.9-1.3,1.55-1,2.68,0,.09-.14.29-.27.35a1.94,1.94,0,0,1-1.75-.61c-.56-.74-1.16-1.44-1.78-2.13-.06-.07-.48,0-.47.06,0,.84-.42,1.71.28,2.49s1.2,1.5,1.81,2.25a.88.88,0,0,0,1.55-.15c.14-.23.49-.33.75-.49.09.28.34.62.25.82-.42.94-1,1.83-1.4,2.76-.27.57-.71.8-1.19.47s-.08-.76.11-1.15c.11-.23.26-.64.15-.77-.67-.77-1.4-1.5-2.13-2.23a.53.53,0,0,0-.44,0c-.19.44-.59,1-.47,1.32a34.15,34.15,0,0,0,1.51,3.32c.11.22.4.55.35.62-.24.27-.59.48-.93.13s-.52-.65-.79-1c-.09-.12-.2-.23-.31-.35-.11.14-.29.27-.33.43-.17.75-.71,1.62.57,2,.14,0,.23.45.22.67S76,61,75.84,61a1.49,1.49,0,0,1-1.57-1.14c0-.1-.16-.16-.24-.24,0,.08-.12.18-.11.24.3,1.07.6,2.13.91,3.18a1.28,1.28,0,0,0,.27.4,3.41,3.41,0,0,0,.37-.39,20.85,20.85,0,0,1,1.38-1.83c.18-.2.64-.13,1-.19a3.29,3.29,0,0,1-.1,1c-.11.26-.41.42-.61.64a.44.44,0,0,0-.13.25s.13.11.21.13l.57.1a4.2,4.2,0,0,1-.3.6,6.59,6.59,0,0,1-.66.74c-1.17,1.15-1.85,1-2.59-.44-.39-.77-.61-.83-1.24-.24a.81.81,0,0,0-.21.68c.25.68.6,1.32.89,2a3.75,3.75,0,0,1,.16.68,5.74,5.74,0,0,1-.92,0c-.12,0-.21-.25-.33-.36s-.24-.19-.36-.28c-.07.15-.14.29-.2.44-.17.43-.31.87-.52,1.28,0,.09-.33.06-.51.09,0-.15-.07-.33,0-.44a6.68,6.68,0,0,0,.44-3.72,1.81,1.81,0,0,0-.22-.58c-.12.18-.34.34-.36.53-.22,1.86-.46,3.71-.57,5.58,0,.53.07.93-.63.94a.38.38,0,0,0-.26.22,21.74,21.74,0,0,0-.94,5.59.73.73,0,0,0,.24.59.77.77,0,0,0,.63-.1c.64-.44,1.25-.91,1.86-1.38.32-.24.54-.48.14-.89-.18-.19-.16-.56-.23-.85a2.36,2.36,0,0,1,.87.18,1.05,1.05,0,0,0,1.42-.12,19.07,19.07,0,0,0,4.13-4.75c1.56-2.6,3-5.29,4.33-8a61.45,61.45,0,0,0,2.37-5.75A80.7,80.7,0,0,0,87,47.05c.94-3.72,2.59-7.16,3.75-10.79.69-2.16,1.31-4.35,1.92-6.53.07-.24-.07-.76-.18-.78-.91-.18-.5-.62-.31-1.09a3.6,3.6,0,0,0-.73-4.29c-.27-.22-.64-.32-.93-.53a2.06,2.06,0,0,1-.36-.53c.19-.11.4-.33.58-.31a5.36,5.36,0,0,1,1,.38l.73.25a3,3,0,0,0-.15-.75A8.25,8.25,0,0,0,89.8,19a6.65,6.65,0,0,0-.85-.41c0,.29,0,.58,0,.86,0,.59,0,1.18,0,1.75,0,.14-.38.23-.59.34,0-.17-.16-.35-.12-.5.27-.93-.26-1.59-.71-2.28a1.91,1.91,0,0,0-1.77-1.1c-.44,0-.94-.34-.62-.91s0-.52-.29-.65-.5-.18-.73-.31A19.28,19.28,0,0,0,74.66,12.93Zm49.15,12.72a5.16,5.16,0,0,1-1.31,3.45c-.43.43-.92.84-1.46,0-.14-.21-.57-.23-.87-.34a2.77,2.77,0,0,0-.12.93,1,1,0,0,0,1.8.6c.66-.52,1.25-.49,1.56.14a2.88,2.88,0,0,1-.1,3.07,18,18,0,0,1-2,2.31c-.46.45-.76.72-.2,1.33a1.15,1.15,0,0,1,0,1.12c-.33.33-.69,0-1-.34a3,3,0,0,0-.91-.67c-.12-.07-.35.07-.53.12a1.7,1.7,0,0,0,.24.39,10.16,10.16,0,0,1,1,1,2.43,2.43,0,0,1,.2.92c-.31,0-.7.2-.89.07-.6-.4-.72-.07-.92.4s-.22.82.26,1.12a1,1,0,0,1,.43.54,3.13,3.13,0,0,1,0,.91,6.41,6.41,0,0,1-.89-.21c-.12-.05-.16-.36-.27-.39a1,1,0,0,0-.7,0,.87.87,0,0,0-.16.65c.68.42.67,1.31,1.1,1.76a2.06,2.06,0,0,1,.34,2.63,1.68,1.68,0,0,0-.2.78c.08,1.41-.87,2.25-1.72,3.14-.55.59-.86.43-1.15-.33a13.23,13.23,0,0,0-1.23-2.36c-.4-.6-1-.24-1.46,0s-.33.73,0,1.1c.53.68,1,1.38,1.61,2s.54,1.05-.25,1.35a.88.88,0,0,0-.63,1.1c.11.58-.12.84-.72.94a1.92,1.92,0,0,0-1,.54c-.9,1-1.2,1-2-.08a2.86,2.86,0,0,0-.36-.48,2.39,2.39,0,0,0-.45-.31,4.36,4.36,0,0,0-.24.41,2.05,2.05,0,0,0,.75,2.24c.8.78.52,1.26,0,1.91a1.11,1.11,0,0,0,.17,1.74c.1.08.23.18.25.28.15,1.06.55.39.81.1,2.68-2.94,5.41-5.83,8-8.85s5.33-6.26,7.74-9.58A49.7,49.7,0,0,0,130,36a50.15,50.15,0,0,0,3.52-9.15,16.73,16.73,0,0,0,1.1-5.76c-.07-1.06-.21-2.12-.21-3.18a10.31,10.31,0,0,0-1.65-5,3.17,3.17,0,0,0-.78-.77c-.92-.77-1.81-1.57-2.78-2.28a31.74,31.74,0,0,0-3.7-2.52c-2.15-1.16-4.61-1.29-7-1.71a2.26,2.26,0,0,0-1.06.21c-1,.36-1.93.74-2.87,1.13a19.57,19.57,0,0,0-2.46,1.13c-.82.49-.79,1-.07,1.64a2.66,2.66,0,0,1,.79.89c.22.54.56.59,1,.48a8.47,8.47,0,0,1,1-.19c.89-.07,1.79-.13,2.68-.16.12,0,.25.22.37.34-.13.09-.25.25-.39.28-.78.16-1.58.24-2.34.45-1.13.3-1.26.7-.58,1.63a14.94,14.94,0,0,0,.92,1.18,1.09,1.09,0,0,0,.55.34c.71.17.92.51.78,1.23A1,1,0,0,0,117,17c.23.32.58.57.81.88s.4.83-.27,1.06c-.2.07-.47.4-.45.57A7,7,0,0,0,118.46,23c.27.31.54.63.82.93s.51.28.55.46-.17.61-.3.62a1.25,1.25,0,0,1-.87-.25,14.88,14.88,0,0,1-.94-1.27,2.21,2.21,0,0,0-.49-.36c0,.22-.19.5-.1.63a6.89,6.89,0,0,0,1.27,1.76,2.88,2.88,0,0,1,1.25,2.05c0,.19.23.35.35.53a2.13,2.13,0,0,0,.38-.54,23.35,23.35,0,0,0,.58-2.44c.06-.42.19-.71.59-.55a1,1,0,0,1,.43.73c0,.35-.21.7-.24,1.06,0,.18.12.52.23.54a.81.81,0,0,0,.66-.19,1.77,1.77,0,0,0,.2-.84c0-.5,0-1,.1-1.5a.55.55,0,0,1,.41-.34.57.57,0,0,1,.36.38A9.56,9.56,0,0,1,123.81,25.65Zm36,12,.06.24c2.6.1,4.94-1,7.25-1.88a67.94,67.94,0,0,1,7.45-2.64,6.33,6.33,0,0,0,1-.44,6.35,6.35,0,0,0-1.24,0c-2.57.62-5.13,1.25-7.69,1.92-.49.12-.91.49-1.39.66a6.2,6.2,0,0,1-1.9.49c-.82,0-1.65-.3-2.48-.33a4.33,4.33,0,0,0-2.14.27c-.91.48-1.63,1.31-2.77,1.34-.06,0-.11.06-.18.08-1.54.57-3.07,1.14-4.62,1.69-.18.06-.41,0-.62-.08.12-.18.21-.43.38-.51.93-.44,1.87-.86,2.83-1.24a11.7,11.7,0,0,0,2.71-1A7,7,0,0,1,162.5,35a6.1,6.1,0,0,0,1.6.06.88.88,0,0,0,.63-.37c.34-.74,1-.8,1.67-.89a25.46,25.46,0,0,0,2.78-.38c2.09-.51,4.17-1.11,6.24-1.69a3.1,3.1,0,0,0,.61-.35c-.22-.13-.42-.35-.66-.39a7.87,7.87,0,0,0-4.25,0,11,11,0,0,1-2.15.46,1.53,1.53,0,0,1-.5-.08c.11-.12.2-.3.33-.34,1.07-.35,2.16-.67,3.23-1a6.46,6.46,0,0,0,.6-.27,2.26,2.26,0,0,0-.57-.34,4.66,4.66,0,0,0-3.47.65,7.18,7.18,0,0,1-5.29,1.34,8.19,8.19,0,0,0-4.38.65,16.85,16.85,0,0,0-1.86.76c-.16.08-.23.35-.34.53a1.67,1.67,0,0,0,.53.14c1.63-.08,3.27-.15,4.9-.29a18.24,18.24,0,0,0,2.41-.45,6,6,0,0,0,1.18-.38c.63-.3,1.23-.67,1.87-1,.14-.07.36,0,.54,0a1.77,1.77,0,0,1-.2.6,1.31,1.31,0,0,1-.54.27,41.34,41.34,0,0,1-4.17,1.35c-1.58.35-3.23.44-4.84.68-.75.12-1.8.1-2.16.57-.87,1.12-2.12,1.22-3.24,1.6a11.76,11.76,0,0,0-3.59,1.62,2.83,2.83,0,0,1-1.5.74c-2.76,0-5.34.9-8,1.33-.28,0-.71.44-.72.68a1.63,1.63,0,0,1-1.38,1.61c-.57.17-1.14.38-1.73.5-2.59.54-5.16,1.18-7.77,1.56-2.19.31-3.3,1.82-4.45,3.37,0,0,.11.33.16.32a2.29,2.29,0,0,0,.68-.14c1.42-.5,2.82-1.06,4.26-1.49a9.24,9.24,0,0,1,3.11-.61,21.47,21.47,0,0,0,9.43-1.39c.54-.21.93-.4,1.06-1a1.21,1.21,0,0,1,.69-.76,23.88,23.88,0,0,1,3.08-.86,6.71,6.71,0,0,1,2.35-.19,3.16,3.16,0,0,0,2.11-.38c.53-.29,1-.67,1.52-1a26,26,0,0,1,3.57-2A25.73,25.73,0,0,1,159.8,37.61Zm8.79-12.45.12.38,3.16-1.18a1.42,1.42,0,0,0,.23-.14c-.07,0-.15-.08-.23-.07a21.29,21.29,0,0,1-4.65-.09,5.54,5.54,0,0,0-2,.54c-1.55.45-3.17,1-4.74.58a4.79,4.79,0,0,0-3.66.67c-1.84.89-3.68,1.74-5.86,1.13a8.64,8.64,0,0,0-4.17-.1c-1.34.29-2.68.52-4,.74a4.36,4.36,0,0,1-1.08,0,6.74,6.74,0,0,0-1.82-.18c-1.7.31-3.39.74-5.07,1.16a1,1,0,0,0-.58.56c-.55,1.4-1,2.81-1.56,4.22-.09.25-.18.49-.28.73l1,0,.1,0c1.87-.33,3.75-.68,5.63-1,1-.16,2-.1,2.95-.34,1.56-.38,3.05-1,4.6-1.4.75-.21,1.73-.58,2.3-.29a5.5,5.5,0,0,0,3.33.29c1.79-.19,3.57-.54,5.33-.9a27.22,27.22,0,0,0,3.08-.91c.37-.12.68-.54,1-.55a21.4,21.4,0,0,0,6.12-1.37,5.88,5.88,0,0,1,2-.5c1.37.07,3.89-1,4.56-2.2a1.34,1.34,0,0,0,.09-.37,1.21,1.21,0,0,0-.37,0l-3.47,1c-1.19.34-2.28,1-3.65.81a6.09,6.09,0,0,0-2.21.53c-1.42.4-2.83.85-4.26,1.18a14.58,14.58,0,0,1-1.87,0c-2.39.25-4.77.61-7.17.81a13.07,13.07,0,0,0-3.92.73c-.9.36-1.84.64-2.74,1a1.79,1.79,0,0,1-1.89-.06,1.61,1.61,0,0,0-1.15-.12c-1.72.43-3.43.92-5.14,1.39a7.76,7.76,0,0,1-1.55.37,1,1,0,0,1-.78-.51c-.08-.46.29-.6.76-.69,1.92-.36,3.82-.81,5.73-1.19a6.86,6.86,0,0,1,2.44-.23,2.73,2.73,0,0,0,1.52.07,26.52,26.52,0,0,0,3.22-1.1c1.05-.5,2.15-.22,3.22-.46a35,35,0,0,1,4.48-.38c.72-.06,1.42-.24,2.13-.37s1.16-.25,1.75-.31a17.88,17.88,0,0,0,1.95-.07c1.38-.3,2.73-.71,4.09-1.06C166.57,25.62,167.58,25.4,168.59,25.16ZM132.46,47.08c-1.65-.35-3.24.33-4.84.93a2.41,2.41,0,0,0-.39.26,1.91,1.91,0,0,0,.41.24,8.36,8.36,0,0,0,4.41.08c.45-.14.67-.19.78.35,0,.13.39.3.57.27a13.62,13.62,0,0,1,2.27-.35,10.75,10.75,0,0,0,3.68-.76c1-.37,2.33-.56,2.64-2,0-.08.31-.15.46-.13a24,24,0,0,0,3.92.48,8.24,8.24,0,0,0,5.91-3.18,4.44,4.44,0,0,1,3.54-1.94,33.74,33.74,0,0,0,4.56-.54,7.91,7.91,0,0,0,1.8-.45A14.76,14.76,0,0,1,168,39a8.32,8.32,0,0,0,2.4-.75c1.47-.45,2.31-1.75,3.52-2.56.39-.26.79-.5,1.15-.79a.56.56,0,0,0,.16-.5.51.51,0,0,0-.44-.23,15.55,15.55,0,0,0-2.65.53c-1.91.7-3.76,1.53-5.66,2.27-.76.3-1.58.47-2.36.75a8.83,8.83,0,0,1-1.51.69c-1.38.2-2.79.25-4.18.43a10.4,10.4,0,0,0-2.92.62,18.73,18.73,0,0,0-3.76,2.23,5,5,0,0,1-3.77,1c-1.39-.11-2.84.53-4.25.87-.16,0-.26.29-.4.43a5.82,5.82,0,0,1-1.18,1.15,13.39,13.39,0,0,1-2.25.81A22.9,22.9,0,0,1,132.46,47.08Zm33.9-25.23a18.6,18.6,0,0,0,5.16-1.07,9.56,9.56,0,0,0,3.76-1.72c.19-.17.34-.37.51-.55l-.67.09c-.19,0-.39.07-.59.09-3,.31-5.95.68-8.93.91-.72.06-1.63.19-2.15-.71-.08-.16-.48-.22-.72-.18a5.31,5.31,0,0,0-1,.35,14.56,14.56,0,0,1-5.79,1.28,19.65,19.65,0,0,0-4.85.61c-1.56.3-3.08.84-4.65,1.15a2.66,2.66,0,0,1-1.81-.27,3,3,0,0,0-2.46-.44,35.46,35.46,0,0,0-4.51,1.36c-.75.29-1.93.15-2,1.5-.07.72,0,.9.68.73q1.89-.43,3.78-.9c1.57-.39,3.18-.77,4.73-.1a5.71,5.71,0,0,0,3.44.13c.65-.12,1.28-.37,1.94-.5a39.42,39.42,0,0,1,4.91-.86,17.67,17.67,0,0,0,3.76-.35,14.35,14.35,0,0,1,3-.53C163.36,21.78,164.86,21.85,166.36,21.85Zm-24.67-16a10.67,10.67,0,0,0-5,.51c-.65.22-1.21.72-1.86,1-1.33.53-2.67,1-4,1.46-.67.21-.59.4-.15.75a5.79,5.79,0,0,1,.51.48,1,1,0,0,0,1.58.06,3.14,3.14,0,0,1,1.66-.56c1.63-.16,3.27-.22,4.91-.35.52,0,1-.26,1.47.3.08.1.45.06.64,0,1.46-.55,2.93-1.09,4.36-1.71.78-.35,1.47-.89,2.24-1.28,1.19-.6,2.49-.32,3.75-.4s2.22.91,3.43.32c.65.45,1.27.12,1.92-.05a6.67,6.67,0,0,1,3.49-.39,6.34,6.34,0,0,0,2.71.28,11.5,11.5,0,0,1,4.45-.1,15.4,15.4,0,0,0,2.8,0,1.32,1.32,0,0,0,.35-.15,1.14,1.14,0,0,0-.28-.33,5.72,5.72,0,0,1-1.36-.82,2,2,0,0,0-1.79-.67c-1.55.12-3.09.42-4.65.58a4.57,4.57,0,0,1-2.34-.09c-1.62-.87-3.12-.53-4.72-.06-2.14.62-4.32,1-6.48,0a2.62,2.62,0,0,0-2.51.21A7.19,7.19,0,0,1,141.69,5.82Zm-2,9.13c-1.06.18-2.25.35-3.42.59-.28.06-.75.38-.74.55,0,.47-.13,1.07.59,1.34a14.58,14.58,0,0,1,1.48.93.63.63,0,0,0,.58-.06c.65-.65,1.22-1.38,1.88-2a.86.86,0,0,1,1.34.12c.43.6.91.53,1.49.39.39-.09.8-.07,1.19-.14,1.09-.2,2.31,0,3.09-1.07.24-.33.45-.7.72-1a1.29,1.29,0,0,1,.67-.47c.49-.1,1-.06,1.5-.12a21.7,21.7,0,0,0,2.67-.37,20,20,0,0,1,6.49-.69,16,16,0,0,0,1.95.13c2.1-.07,4.23-.44,6.19.65a6,6,0,0,0,3.11.54,10.27,10.27,0,0,1,2.74.41c.46.12.81.65,1.27.83,1.2.47,2.35-.07,3.51-.33.07,0,.12-.12.18-.19l-.28-.19c-.74-.45-1.5-.85-2.21-1.34a6.77,6.77,0,0,0-5.35-1.35c-1.17.23-2.56.51-3.43-.73-.48-.7-1-.51-1.55-.33-1.24.39-2.46.83-3.7,1.19a1.71,1.71,0,0,1-1.78-.4,3.08,3.08,0,0,0-2.81-.72c-1.9.31-3.79.7-5.7,1-1.21.17-2.45.13-3.67.26-.66.07-1.33.22-1.33,1.16,0,.21-.28.49-.5.6-1.15.6-2.31,1.17-3.49,1.7-.21.1-.7,0-.73-.06C141.33,14.67,140.46,15.11,139.68,15Zm-3.61-4.54,0-.19a18.3,18.3,0,0,0-2.21.55c-.29.1-.68.53-.65.75.09.58,1.12,1.32,1.48,1.22,1.6-.48,3.19-1,4.81-1.43a2.56,2.56,0,0,1,1.78-.06,1.53,1.53,0,0,0,2.09,0,8.88,8.88,0,0,1,5.64-2,19.56,19.56,0,0,0,4.24-.49,4.42,4.42,0,0,1,3,.33,2.77,2.77,0,0,0,2.49-.16c1.12-.54,2.34-1.14,3.55,0a1.47,1.47,0,0,0,.66.2c1.94.46,3.8-.1,5.67-.46.57-.11,1.34-.32,1.72-.05,1.6,1.09,3.4,1.08,5.2,1.19.58,0,.58-.35.28-.6a3.27,3.27,0,0,0-1.43-.79c-1.15-.2-2.33-.24-3.16-1.27-.13-.17-.56-.14-.85-.14-1.19,0-2.39-.07-3.59-.07a21.84,21.84,0,0,0-2.43.08c-1.08.12-2.11.51-3.22,0a5,5,0,0,0-4.42.23,2.69,2.69,0,0,1-1.44.17,18.77,18.77,0,0,0-5.88-.4,5.76,5.76,0,0,0-1.53.61c-.47.24-.86.76-1.34.83a13.37,13.37,0,0,0-5.2,2.22.8.8,0,0,1-.74,0,2,2,0,0,0-1.94-.52C137.78,10.15,136.93,10.3,136.07,10.41Zm5.93,14c-.88.14-1.58.21-2.27.35a11.42,11.42,0,0,0-4.35,1.37c-.29.2-.39.69-.58,1.05a2.45,2.45,0,0,0,.87.23c1.43-.23,2.85-.54,4.29-.77a11.76,11.76,0,0,1,2.06-.12c1,0,2.13.35,3,0a11.7,11.7,0,0,1,5.83-.46,11.83,11.83,0,0,0,1.68.19,9,9,0,0,0,4.27-1.32c1.23-.65,2.43-1.27,3.87-.65a1.46,1.46,0,0,0,.59,0,15.69,15.69,0,0,0,5.2-1c.69-.28,1.49-.68,2.25,0,.1.08.33,0,.49,0a19.46,19.46,0,0,0,5-.53,2.81,2.81,0,0,0,1.94-1.19,2.66,2.66,0,0,1,3.09-1.12c.66.2.77,0,.81-.52a5.9,5.9,0,0,1,.1-.7c.06-.41-.1-.43-.46-.33-.76.21-1.54.34-2.3.54s-1.41.38-2.09.64c-.49.19-.91.57-1.41.75a22.74,22.74,0,0,1-3.21,1c-1.89.36-3.71,1.05-5.71.83a14.06,14.06,0,0,0-3.49.09c-1.45.21-2.87.63-4.31.92a5.9,5.9,0,0,1-1.19,0,15.7,15.7,0,0,0-3,0c-1.71.32-3.37.84-5,1.27a6,6,0,0,1-3.93-.12A12,12,0,0,0,142,24.36Zm1.16-4.49a6.53,6.53,0,0,0-1,.08q-2.83.63-5.65,1.3a2.2,2.2,0,0,0-.64.45c.27.09.57.31.81.25,1.43-.32,2.84-.73,4.27-1.05a6.38,6.38,0,0,1,3.25-.19,6.16,6.16,0,0,0,2.59.4A28.19,28.19,0,0,0,152,19.89a9.75,9.75,0,0,1,3.84-.46,12.12,12.12,0,0,0,6.63-1.51,1,1,0,0,1,1.26.12,2.73,2.73,0,0,0,1.49.67,28.17,28.17,0,0,0,3.67-.16c1.33-.13,2.65-.34,4-.52,1.05-.14,2.11-.24,3.14-.47.58-.13.95-.2,1,.53,0,.17.29.48.39.46a3.25,3.25,0,0,0,1.1-.46,1.14,1.14,0,0,0-.33-.8A3,3,0,0,0,176.7,17c-1,.11-1.95.45-2.94.58a1.85,1.85,0,0,1-1.4-.29c-.49-.51-1-.42-1.55-.42-2.67,0-5.32.38-8-.17a19.06,19.06,0,0,0-4.58.1,10,10,0,0,1-2.16.2,5.65,5.65,0,0,0-3.47.73c-.78.37-1.6.65-2.4,1a1.29,1.29,0,0,1-1.68-.52c-.44-1-.86-.51-1.33-.18-.31.2-.56.47-.86.69A4.51,4.51,0,0,1,143.16,19.87ZM118.31,64.79a8,8,0,0,0,1.49-.12c2-.52,4-1.09,6-1.65.52-.14,1-.3,1.54-.47.14,0,.35-.2.34-.28a.57.57,0,0,0-.28-.38,1.15,1.15,0,0,0-.65-.1c-1.36.33-2.73.64-4.07,1-1.12.34-2.18.89-3.31,1.18-.81.21-1.73,0-2.54.25-1.83.47-3.62,1.09-5.43,1.64-.89.27-1.78.54-2.68.77-.2,0-.45-.11-.67-.18.12-.24.19-.56.39-.69a2,2,0,0,1,1-.35c.59,0,.7-.26.59-.75s.14-.77.59-.88a45.3,45.3,0,0,1,4.56-1.13c.79-.12,1.73-1,2.51.1,0,0,.12,0,.19,0,1.78,0,3.14-1,4.55-1.89a.59.59,0,0,0,.14-.23,1.36,1.36,0,0,0-.29,0c-.45,0-1,.24-1.34.08a3.22,3.22,0,0,0-2.34-.14c-.69.24-1.38.51-2.07.74-1,.33-2,.68-3,.93-.37.09-1,.34-1.08-.43s.52-.6,1-.69a22.6,22.6,0,0,0,2.44-.54c.83-.25,1.62-.63,2.45-.88a2.51,2.51,0,0,1,1.91-.17,2.43,2.43,0,0,0,1.63.13,18,18,0,0,0,6.41-3.56,1.48,1.48,0,0,1,1.11-.27,6.45,6.45,0,0,0,3.3-.67c.38-.13.41-.35,0-.63s-.7-.58-.69-.86c0-1-.64-.65-1-.5a9.58,9.58,0,0,0-3.66,3c-.66.89-1,1.24-2.29.84a5.61,5.61,0,0,0-1.26-.29,2.93,2.93,0,0,0-2,.88c-1.55,1.22-3.5,1.44-5.39,1.67-.77.09-1.68-.3-2.34,0s-1.2,1.11-1.78,1.7c-.12.12-.21.27-.32.38-1.57,1.58-3.1,3.18-4.71,4.71a24.43,24.43,0,0,1-2.23,1.67,2.15,2.15,0,0,0-.23.28c.08,0,.17.14.22.12l2.26-.71a3.74,3.74,0,0,1,1-.32c1.19,0,2.38.05,3.33-.95.2-.22.68-.24,1-.25.63,0,1.27.1,1.9.06s1.5,0,1.86-.85a.79.79,0,0,1,.55-.3A11.08,11.08,0,0,1,118.31,64.79ZM156,15.86l.07.26c.5,0,1-.07,1.49-.12,2.19-.21,4.38-.66,6.56,0a5.38,5.38,0,0,0,1.65.33c1.83-.06,3.66-.24,5.49-.31.6,0,1.27-.21,1.77.42.09.12.53,0,.8-.06a.32.32,0,0,0,0-.21,3.36,3.36,0,0,0-3.06-1,6.91,6.91,0,0,1-4.07-.74,5.74,5.74,0,0,0-2.37-.64c-1.8-.11-3.62.07-5.4-.12a14.42,14.42,0,0,0-4.77.33,36.3,36.3,0,0,1-3.75.66,3.1,3.1,0,0,0-2.28,1,4.06,4.06,0,0,1-1.58,1c-.83.32-1.74.44-2.58.74a3.56,3.56,0,0,1-3-.12c-.31-.15-1-.2-1.09,0a8,8,0,0,0-1,2c-.16.45.1.66.62.53.87-.2,1.76-.32,2.63-.51,1.45-.33,2.95-.45,4.09-1.63a6.38,6.38,0,0,1,1.71-1c.36-.19.68-.2.86.31.39,1.06.77,1.21,1.78.79.68-.27,1.34-.59,2-.81C153.75,16.5,154.89,16.19,156,15.86ZM151.65,34l0,.23a16,16,0,0,0,3.79-1.09c1.22-.7,2.11-2,3.75-1.82.11,0,.25-.25.38-.38a1.48,1.48,0,0,0-.53-.11c-.65.11-1.3.28-2,.4-1.93.36-3.85.74-5.79,1-1,.16-2,.58-2.87-.43a.53.53,0,0,0-.47-.06c-1.14.34-2.28.72-3.42,1.07-1.47.44-2.93.89-4.41,1.26-.35.09-.78-.21-1.15-.14-2.33.39-4.65.83-7,1.29-.21,0-.41.32-.54.53a9.13,9.13,0,0,0-.45,1c-.09.19-.18.39-.28.58a3.35,3.35,0,0,0,.7.05c1.88-.29,3.75-.58,5.62-.92.82-.14,1.16,0,1,.82s.16.67.59.51c1.47-.55,3-1.09,4.39-1.7a3.61,3.61,0,0,0,1.1-.86A4.78,4.78,0,0,1,148,33.79C149.18,33.87,150.41,33.92,151.65,34ZM123.79,52.89a12.42,12.42,0,0,0-2.21.2,9.34,9.34,0,0,0-3,1.21,22.49,22.49,0,0,0-2.93,3,4.65,4.65,0,0,0-.52.83c.33.12.65.26,1,.36a.77.77,0,0,0,.4,0c1.26-.28,2.54-.52,3.77-.89a5.48,5.48,0,0,0,1.35-.9,6.67,6.67,0,0,0-1.42-.93c-.43-.16-.8-.15-.59-.73a.68.68,0,0,1,1-.43,3.65,3.65,0,0,1,.61.34,3.86,3.86,0,0,0,4.15.3,2.43,2.43,0,0,1,.82-.11c-.14.2-.28.4-.4.61s-.11.26-.17.39c.15,0,.36,0,.45-.08.34-.32.63-.69,1-1a14.64,14.64,0,0,1,3.86-2.6,1.88,1.88,0,0,1,2.14,0,5.84,5.84,0,0,0,5.92-.59c.1-.09.25-.2.25-.3,0-.48.18-1.26,0-1.37a4.66,4.66,0,0,0-2.26-.69,16.56,16.56,0,0,0-3.09.61,1.86,1.86,0,0,0-.47.3,2.54,2.54,0,0,0,.45.36,4.83,4.83,0,0,0,3.32.45c.16,0,.39.14.58.22-.16.15-.3.36-.49.43a4.8,4.8,0,0,1-4.57-.58c-1.17-.76-1.36-.75-2.51,0-.09.06-.16.13-.24.19A6.61,6.61,0,0,1,125.79,53C125.08,53,124.38,52.93,123.79,52.89ZM134,42.52l0,.24c1.22-.34,2.45-.65,3.65-1.06.23-.08.42-.52.48-.83.09-.51.12-1,.73-1.18,1-.23,2-.42,3-.66,2.7-.63,5.55-.62,8.06-2.11a23.8,23.8,0,0,1,3.29-1.19,16.91,16.91,0,0,0,2.1-1.12c.12-.07.13-.34.18-.51a2.23,2.23,0,0,0-.45.08,9.82,9.82,0,0,1-5.64.45,4.6,4.6,0,0,0-4,.75A10.59,10.59,0,0,1,142,37.29a9.79,9.79,0,0,0-1.3.52c-.17.08-.45.27-.43.36.19.93-.51.72-1,.83a7.52,7.52,0,0,0-1,.36c-1.08.43-2.15.88-3.25,1.27-1.65.61-3.33,1.15-5,1.78a4.2,4.2,0,0,0-1,.79,7.3,7.3,0,0,0,1.24,0C131.56,43,132.79,42.75,134,42.52ZM126.65,3.94l-.07-.35-4.85,1a1.31,1.31,0,0,0-.33.21,1.62,1.62,0,0,0,.37.23,10.48,10.48,0,0,0,4.75.34c1.78-.2,3.56-.5,5.32-.85a35,35,0,0,0,4-1,1.68,1.68,0,0,1,1.47,0,3.71,3.71,0,0,0,1.94.07c.88-.1,1.75-.4,2.64-.49,2-.21,4.05-.29,6.07-.52a26.64,26.64,0,0,0,3.15-.64c.19-.05.34-.26.5-.39a2.13,2.13,0,0,0-.55-.1c-2.17.09-4.34.16-6.5.29s-4.05.31-6.08.48c-.89.08-1.79.16-2.68.3C132.77,2.93,129.71,3.44,126.65,3.94Zm13.38,8-.07.12a3.42,3.42,0,0,0-.79.1c-1.14.45-2.28.92-3.41,1.41a3.78,3.78,0,0,0-.83.56.41.41,0,0,0-.07.36c0,.07.21.13.31.12a37.62,37.62,0,0,1,4.49-.23c1,.05,2.12-.7,2.92.46,0,.06.25,0,.36,0,.74-.3,1.49-.59,2.21-1a.76.76,0,0,0,.3-.62c-.46-.75.09-1.19.56-1.35a13.91,13.91,0,0,1,3.12-.62c.89-.07,1.81.29,2.68.17,1.44-.22,2.85-.66,4.27-1a1.41,1.41,0,0,0,.32-.17c-.09-.09-.16-.23-.26-.25a9.47,9.47,0,0,0-2.32-.39c-1.6.09-3.18.41-4.77.54-2.11.17-4.08.57-5.6,2.24a1.41,1.41,0,0,1-2,.15A8.21,8.21,0,0,0,140,11.93Zm9.65,38.64c.63-.27.92-.13.72.53s.21.42.41.31c1.07-.54,2.13-1.09,3.15-1.71.16-.1.16-.61.09-.89s-.4-.34-.6-.33a3.35,3.35,0,0,0-2.37.93c-.13.13-.4.13-.61.2,0-.28-.16-.66,0-.82.74-1,3.45-2.08,4.73-1a1.27,1.27,0,0,0,1.5.16q2.33-1.12,4.64-2.28a2.31,2.31,0,0,0,.6-.53,1.44,1.44,0,0,0,.17-.44,3.13,3.13,0,0,0-.44,0l-1.78.18c-.44,0-.88,0-1.32.1-.23,0-.49.19-.66.12a3.15,3.15,0,0,0-2.43.18c-2.08.79-4.51,1-5.72,3.31a4,4,0,0,1-.89.95c-.61.59-.59.71.21,1A4.54,4.54,0,0,0,149.68,50.57Zm23.9-45.15.7-.37c-.15-.15-.28-.36-.46-.43-1.41-.59-2.81-1.21-4.26-1.7a12.37,12.37,0,0,0-3.14-.74c-2-.12-4.08,0-6.11-.1a6.77,6.77,0,0,0-3.48.73,4.81,4.81,0,0,1-3.29.38c-.25-.06-.6-.29-.64-.49-.14-.68-.5-.47-.89-.31a10.51,10.51,0,0,1-1.1.44c-.45.12-.92.16-1.38.28-.13,0-.24.19-.35.3.06.06.12.16.2.19a12.31,12.31,0,0,0,2.17.73,12.07,12.07,0,0,0,5.51-.78,3.83,3.83,0,0,1,2.73,0,8.46,8.46,0,0,0,5.15.06c1.66-.34,3.3-.62,4.93.62C170.85,5,172.35,5.06,173.58,5.42ZM144,55c1.63-.39,3.22-.76,4.8-1.17a1.82,1.82,0,0,0,.79-.41c.28-.26.36-.72-.11-.76-1.25-.12-2.41-1-3.78-.32-.82.4-1.9.3-2.68.74a16.4,16.4,0,0,1-5.49,1.71,21.16,21.16,0,0,0-4.69,1.35,9.18,9.18,0,0,1-3.91,1.06.85.85,0,0,0-.47.12c-.87.5-1.73,1-2.59,1.54-.12.08-.17.25-.26.38.15,0,.33.1.45.06.53-.2,1-.48,1.55-.65,1.7-.53,3.58-.51,5.08-1.67a.89.89,0,0,1,.46-.14c1.15-.16,2.3-.27,3.44-.47a14.15,14.15,0,0,0,4.71-1.84,1.33,1.33,0,0,1,.92-.12A17.6,17.6,0,0,1,144,55Zm30.32-25.88a4.93,4.93,0,0,0,1.27-.33,5.7,5.7,0,0,0,2.24-3.43c.15-.47.31-.93.46-1.4.05-.14.1-.3.14-.44-.14,0-.32-.1-.43-.05a6.75,6.75,0,0,0-1.4.69c-1.06.79-2.06,1.66-3.1,2.48a5.2,5.2,0,0,1-1.15.7c-1,.39-1.87,1.21-3.08.82a1.1,1.1,0,0,0-.58.09c-1.41.38-2.82.75-4.22,1.15-.67.19-1.32.45-2,.7-.11,0-.19.16-.28.24.1.06.21.19.31.19a22,22,0,0,0,3.64-.18A20.5,20.5,0,0,0,169,29.19a7.66,7.66,0,0,1,4.13-.44C173.55,28.83,173.92,29,174.31,29.08ZM142.86,5.27A8,8,0,0,0,146.54,4a.73.73,0,0,0,.19-.2c-.14-.05-.3-.18-.41-.14a5.92,5.92,0,0,1-3.07.05,1.41,1.41,0,0,0-.5,0c-1.39.21-2.77.44-4.16.63a14.09,14.09,0,0,1-1.59.06,7.68,7.68,0,0,0-1.27,0q-4.36.86-8.71,1.76a2.44,2.44,0,0,0-.65.36l.54.38a3.19,3.19,0,0,0,.47.35c.52.25,1.1.72,1.57.63,1.89-.34,3.75-.85,5.62-1.33a.86.86,0,0,0,.51-.51.86.86,0,0,1,.93-.73c1.77-.14,3.53-.31,5.29-.4A7.13,7.13,0,0,1,142.86,5.27ZM167,45.33c-.31,0-.5-.06-.61,0A27,27,0,0,1,164,46.86c-.94.48-2,.73-3,1.22-1.31.68-2.81,1-3.78,2.3a1.92,1.92,0,0,1-.73.51c-2.34,1.1-4.65,2.27-7,3.25-1.54.63-3.19,1-4.79,1.46a3.14,3.14,0,0,0-.58.29,2,2,0,0,0,.68.07c1.32-.36,2.64-.72,3.94-1.13,2.22-.71,4.44-1.42,6.63-2.2,1.41-.5,2.79-1.11,4.17-1.69a4.58,4.58,0,0,0,2.3-1.53,3.65,3.65,0,0,1,.93-.75c1.2-.9,2.41-1.78,3.6-2.69A5.43,5.43,0,0,0,167,45.33Zm-41.84,6.72c2.14.34,3.77-.68,5.34-1.83a3.14,3.14,0,0,0,.46-.5,1.72,1.72,0,0,0-.66-.09,8.42,8.42,0,0,1-4.13-.5,2.25,2.25,0,0,0-1.06-.17c-1.67.46-3.34,1-4.24,2.67a4.55,4.55,0,0,0-.21.51,2.83,2.83,0,0,0,.56.09C122.51,52.18,123.84,52.11,125.12,52.05Zm-1.41,9.48c1.68-.3,3.31-.5,4.88-.89,2.2-.55,4.37-1.25,6.55-1.89.31-.09.82-.14.89-.33.39-1.1,1.32-.87,2.14-1.06,1.43-.32,2.82-.78,4.22-1.2.1,0,.12-.27.18-.42-.55-.08-.94-.55-1.67-.26-2,.8-4,1.42-6.05,2.08-1,.32-2,.54-3,.84-1.79.55-3.58,1.11-5.35,1.7-.94.31-1.87.7-2.79,1.06-.08,0-.12.13-.19.2Zm13.64-22.3a3.78,3.78,0,0,1-.44-1.15c0-.81-.43-.73-1-.61-1.57.33-3.14.68-4.72.91a1.61,1.61,0,0,0-1.48.95c-.35.82-.8,1.59-1.2,2.39a1.45,1.45,0,0,0-.08.36,1.43,1.43,0,0,0,.42-.1,11.36,11.36,0,0,1,4-1.42,34.61,34.61,0,0,0,3.93-1.06A3,3,0,0,0,137.35,39.23Zm8.38,10.46a5.27,5.27,0,0,0,3.84-2.35c.26-.39.47-.83.7-1.24l-1.23.56a9.27,9.27,0,0,1-4.3.63,6.43,6.43,0,0,0-2.24.16,21.17,21.17,0,0,0-2.79,1.27,3,3,0,0,0-.37.25,2.54,2.54,0,0,0,.45.13c.4,0,.8,0,1.2.07a5.64,5.64,0,0,1,.87.31,3.53,3.53,0,0,0,1,.32C143.82,49.81,144.77,49.73,145.73,49.69Zm11.48-5.8c2,.53,3.28-1.14,4.88-1.84.23-.09.3-.55.44-.84-.3,0-.6,0-.9,0s-.45.12-.69.15c-2.13.35-4.27.68-6.4,1a1.13,1.13,0,0,0-.54.22q-1.33,1.2-2.64,2.43a1.21,1.21,0,0,0-.2.33,1.88,1.88,0,0,0,.34,0l5.19-1.47A4,4,0,0,1,157.21,43.89Zm21.14-30a8.05,8.05,0,0,1-.41-.84,3.58,3.58,0,0,0-3.85-2.64A9.16,9.16,0,0,1,171,9.77a6.1,6.1,0,0,0-4.11,0c-.22.07-.26,0-.09.3.82,1.44,2.17,1.4,3.5,1.37,1.58,0,3.15-.49,4.56.82a15.4,15.4,0,0,0,3,1.76.55.55,0,0,0,.38,0C178.28,14.08,178.31,14,178.35,13.89ZM160.93,47.21l.23-.08c1-.64,2.51-.39,3.08-1.78,0-.1.22-.15.34-.2,2-.9,3.95-1.77,5.91-2.69a6.51,6.51,0,0,0,2.31-1.31c1.52-1.81,2.85-3.79,4.23-5.71.11-.15.06-.42.09-.63-.17.15-.35.28-.5.44a28.56,28.56,0,0,1-2.22,2.55,5.31,5.31,0,0,0-1.51,2.28,2.19,2.19,0,0,1-1.44,1.43c-1.85.56-3.7,1.11-5.58,1.51a4.73,4.73,0,0,0-2.65,1.66c-.59.66-1.26,1.25-1.91,1.85a5.54,5.54,0,0,1-.51.33.31.31,0,0,0-.08.26C160.74,47.17,160.88,47.19,160.93,47.21ZM105.46,66a2.14,2.14,0,0,0,.48-.28c.91-.79,1.81-1.57,2.69-2.39s.81-.79.21-1.7c0-.06-.06-.12-.1-.18-.48-.76-.88-.75-1.4,0-.11.17-.26.38-.44.43a7.15,7.15,0,0,1-1.32.24c-.81.07-.67.39-.28.86a2.17,2.17,0,0,1,.36.75s-.31.28-.34.25a3.5,3.5,0,0,1-.69-.64c-.35-.48-.64-1-1-1.48-.08-.11-.45-.09-.61,0s-.53.45-.48.58a7.33,7.33,0,0,0,2.61,3.41A1.24,1.24,0,0,0,105.46,66Zm79.07-51.14a26.26,26.26,0,0,0,7.1-1.44,1.54,1.54,0,0,0,1-2.05.47.47,0,0,0-.4-.22c-.91.17-1.81.36-2.7.59a13,13,0,0,0-5.07,2.49,2.5,2.5,0,0,0-.4.51Zm2,4.94.7-.11-.77-.25a3.69,3.69,0,0,1-.75-.26.69.69,0,0,1-.06-1.17c1.4-.69,2.61-1.76,4.29-1.86a25.41,25.41,0,0,0,3.57-.53c.3-.06.75-.47.75-.71,0-.57-.51-.74-1-.62s-.87.29-1.31.41c-.87.23-1.75.42-2.61.66-1.23.34-2.42.82-3.66,1-1.65.28-1.66.2-1.31,1.86a1.37,1.37,0,0,1,.07.29c0,.88.5,1.13,1.24,1.18Zm-70.19,2.8c-.06-.89-.16-1.59-.15-2.28a10.79,10.79,0,0,0-3-7.25c-.14-.17-.44-.21-.67-.31a2.29,2.29,0,0,0,0,.79c.38.85.82,1.67,1.25,2.49a.92.92,0,0,0,.4.38c.77.31.79.71.38,1.35a3,3,0,0,0-.17,1.67c0,.14.52.21.72.4a2.56,2.56,0,0,1,.63.87c0,.1-.29.52-.41.5-.91-.13-.76.42-.68,1a2,2,0,0,1,0,.8c-.25,1,1,.79,1.08,1.45.06-.07.15-.14.17-.23C116.11,23.57,116.22,23,116.31,22.56ZM66.7,65.67c.66-.17,1.11-.11,1.08.58s-.63.47-1,.48a.91.91,0,0,1-.4-.06c-1.26-.58-1.92.18-2.52,1.11-.2.3-.47.56-.66.88-.07.12-.08.42,0,.49A2.25,2.25,0,0,0,66.05,69,17.12,17.12,0,0,0,68,67.13a10.94,10.94,0,0,0,1-2l-1.65-.57c-.1,0-.21-.09-.29-.07a1.72,1.72,0,0,0-.71.26,2.23,2.23,0,0,0-.31.7ZM195.37,20c.15-2.2-.36-2.7-2.46-2.54a2.44,2.44,0,0,1-1-.1,4,4,0,0,0-3.76.62c-.11.07-.15.26-.22.39a1.37,1.37,0,0,0,.35.13c.85-.07,1.71-.15,2.56-.26.37,0,.74-.28,1.07-.22a2,2,0,0,1,1.06.61,1,1,0,0,1,0,.9c-.5.95-.53.94.55,1.3.22.07.45.13.67.22,1.05.43,1.14.38,1.19-.79A1.72,1.72,0,0,0,195.37,20ZM144.22,50.54v0a13.92,13.92,0,0,0-1.71,0c-.91.11-1.95,0-2.25,1.3-.07.31-.55.57-.89.75-.6.33-1.25.58-1.87.88-.09,0-.15.17-.22.26a.89.89,0,0,0,.26.09,2.32,2.32,0,0,0,.7,0c2.63-.84,5.26-1.7,7.88-2.56a.3.3,0,0,0,.17-.11c.07-.13.12-.28.18-.42a1.57,1.57,0,0,0-.35-.11ZM60.51,82c0,.52.17.67.59.42a1.41,1.41,0,0,0,.6-.61c.31-.88.56-1.78.82-2.68,0-.12,0-.33,0-.38-.62-.47-.14-.68.19-1a.83.83,0,0,0,.25-.41c.43-1.62.84-3.23,1.26-4.85a1.22,1.22,0,0,0,0-.27.71.71,0,0,0-.22.15c-.78,1.08-1.89,1.94-1.95,3.48a15.15,15.15,0,0,1-.65,2.92C61.11,79.86,60.8,80.91,60.51,82ZM115.3,33.83A3,3,0,0,0,115,34a2.07,2.07,0,0,0-.25,2.71c.71.89,1.42,1.77,2.12,2.67.29.36.47.32.61-.1,0-.15.06-.42.13-.44,1-.23.44-.83.23-1.2-.67-1.18-1.41-2.32-2.13-3.46A2.34,2.34,0,0,0,115.3,33.83Zm.08,9.79c-.1-.13-.48-.43-.43-.6.2-.68.2-1.21-.52-1.57-.12-.06-.09-.38-.16-.56a11.28,11.28,0,0,0-.55-1.44,4.35,4.35,0,0,0-.67-.77,6.33,6.33,0,0,0-.64,1.2c-.06.22.17.55.32.8.72,1.23,1.45,2.46,2.19,3.68a16.07,16.07,0,0,0,1,1.56c.11.14.57.22.62.15.28-.37.72-.84.65-1.21A1.73,1.73,0,0,0,115.38,43.62Zm-8.22,5.62c.29.58.43,1.32.87,1.61a1,1,0,0,1,.47,1.06c0,.41,0,.72.53.35.08-.06.48.11.49.22.08.42,0,.89.1,1.29a2.34,2.34,0,0,0,.67.9c.07.06.52-.15.62-.33.19-.35.47-.89.33-1.13-.87-1.5-1.82-3-2.78-4.4a2.81,2.81,0,0,0-.71-.55Zm76-30.35c-.12-.68-.26-1.37-.36-2.05-.23-1.51-1-1.9-2.36-1.11a3.35,3.35,0,0,0-.57.56l-.49.5a3.23,3.23,0,0,0,.7,0c.43-.12.82-.06.77.44a1.94,1.94,0,0,0,.55,1.42,2.77,2.77,0,0,1,.37,1.19c.07.4,0,.8.07,1.2,0,.11.11.21.17.32a.91.91,0,0,0,.21-.18C182.7,20.47,183.37,19.86,183.18,18.89ZM182,43.21v.12c1.1,0,2.2,0,3.31,0,.41,0,.83-.08,1.24-.13a6.59,6.59,0,0,0-1.22-.3c-3.22-.17-6.45-.33-9.68-.46a10.85,10.85,0,0,0-2.28.17c-.35.06-.64.41-1,.63a4.07,4.07,0,0,0,.89.2Zm-3.56-31.94a7.32,7.32,0,0,0-.35-1.06c-.54-1.09-1.06-2.2-1.68-3.24a1.71,1.71,0,0,0-1.07-.75A26.28,26.28,0,0,0,172.28,6a2.61,2.61,0,0,0-.55.08,1.91,1.91,0,0,0,.23.5,1.47,1.47,0,0,0,.6.49,10.69,10.69,0,0,0,1.83.47A3.13,3.13,0,0,1,176.8,9.1c.42.74.79,1.51,1.19,2.25.06.1.18.15.27.22ZM79,78.38v-.07a3.27,3.27,0,0,0,.7,0,3.59,3.59,0,0,0,.66-.31,2.16,2.16,0,0,0-.62-.32c-1.16-.17-2.33-.26-3.48-.47-.21,0-.48-.51-.48-.78s.32-.5.57-.65c.1-.06.36.2.56.21.39,0,1.09.07,1.12,0a5.15,5.15,0,0,0,.08-1.62s-.57-.2-.69-.09c-1.21,1-2.39,2.14-3.56,3.24-.07.06,0,.39,0,.39.62.1,1.43.45,1.83.18.74-.48,1.2-.23,1.83.06A6.2,6.2,0,0,0,79,78.38Zm63.85-21.33V57a5.27,5.27,0,0,0-.69.14l-4,1.35c-.38.12-.78.19-1.15.33-1.46.55-2.9,1.1-4.35,1.67-.46.19-.91.44-1.36.66a7.12,7.12,0,0,0,1.54-.16,28.08,28.08,0,0,1,4.64-1.55c1.87-.31,3.69-.94,5.53-1.43.65-.18,1.29-.38,1.93-.58.09,0,.15-.17.23-.27a1.31,1.31,0,0,0-.27-.06Zm36.94-32.6h-.07c0-.54,0-1.07,0-1.6a2,2,0,0,0-.1-.49,5.59,5.59,0,0,0-.66.52.38.38,0,0,0,0,.37c.74.66.47,1.34,0,2a1,1,0,0,0,.05,1.56.84.84,0,0,1,.09,1.3,9.69,9.69,0,0,0-1.66,4c0,.16-.15.3-.2.46s-.1.35-.15.53c.19,0,.41,0,.56-.05s.68-.36.78-.63a17.2,17.2,0,0,0,1-3.26C179.66,27.58,179.68,26,179.79,24.45Zm-18.5-12.86c1.38-.35,2.64-.67,3.9-1,.11,0,.18-.22.26-.34-.15,0-.29-.08-.44-.1-.88-.13-1.77-.23-2.64-.38a2.33,2.33,0,0,1-.7-.32,3.46,3.46,0,0,0-3.35.53s.07.29.16.33c.48.21,1,.37,1.48.59S160.87,11.37,161.29,11.59Zm-56.2,48.23a1.84,1.84,0,0,0-.06-.23c-.64-1.25-1.28-2.5-2-3.73a.75.75,0,0,0-.6.09c-.76.85-.73,1.51,0,2.57.58.84,1.09,1.73,1.66,2.58.06.1.39.16.4.16C104.73,60.77,104.92,60.28,105.09,59.82ZM75.77,37.71H76c-.72,1.06.77.79.72,1.45.08-.06.23-.12.23-.18,0-1.36.07-2.71.06-4.06a5,5,0,0,0-.27-1.11c-.08-.34-.1-.89-.29-1a1.8,1.8,0,0,0-1.25.08c-.14.06-.11.63-.08,1a4.94,4.94,0,0,0,.26,1.27,1,1,0,0,0,.52.57c.82.16.51.6.31,1S75.93,37.39,75.77,37.71Zm90.7,2.18c-.73.19-1.48.33-2.19.57a4.75,4.75,0,0,0-1,.65,4,4,0,0,0,1.2.19c1.88-.31,3.76-.62,5.6-1.07a3.22,3.22,0,0,0,2.24-1.72,4.72,4.72,0,0,0,.18-.53,2.8,2.8,0,0,0-.57.22A8.69,8.69,0,0,1,166.47,39.89ZM67.86,77.76c-.13-.48-.19-.74-.26-1a3.31,3.31,0,0,0-.78.63,10,10,0,0,0-.43,1.12.57.57,0,0,1-.45.27.69.69,0,0,1-.43-.33,1.76,1.76,0,0,1-.14-.58c-.13.2-.25.41-.39.61a1.41,1.41,0,0,1-.41.46c-.07,0-.29-.16-.41-.28a3.15,3.15,0,0,1-.31-.41c-.12.14-.3.27-.35.43-.22.77-.41,1.55-.6,2.33a.86.86,0,0,0,0,.27,1.29,1.29,0,0,0,.45-.09c1.31-.85,2.62-1.7,3.89-2.6A2.74,2.74,0,0,0,67.86,77.76Zm55.43-45.59-.63-1c-.29.2-.72.34-.83.61a13.25,13.25,0,0,0-.45,1.78c-.08.28.21.85-.43.74-.88-.15-.91.59-1.17,1.06-.06.1.09.41.22.5a.52.52,0,0,0,.5-.08,8.35,8.35,0,0,0,1.57-1.38A17.26,17.26,0,0,0,123.29,32.17ZM105.21,48.85c-.31.25-.57.66-.9.71-1.14.17-1,1.25-1.46,1.91,0,.05.24.38.25.38a4.44,4.44,0,0,0,1.25-.82c1-1.24,1.81-2.55,2.7-3.83a.72.72,0,0,0,0-.26h-.18c-.47.12-1,.22-1.42.37s-.91.46-.53,1.09C105,48.53,105.08,48.64,105.21,48.85Zm-23.07,15c-.62,0-1.38,1.43-1.13,2.16.3.92.12,1.21-.74,1.52-.35.13-.62.51-.92.77.19.15.38.3.56.46a.85.85,0,0,1,.19.32,2.38,2.38,0,0,1,.11.38c.07-.11.15-.21.21-.32.74-1.51,1.44-3,2.25-4.52C83.1,63.85,82.65,63.89,82.14,63.86Zm24-4.81c.29-.37,1.31,0,.82-.67-.88-1.25-1.31-2.88-2.84-3.62l-.48-.23c0,.19-.07.42,0,.56q1,1.78,2,3.54A2.28,2.28,0,0,0,106.14,59.05ZM72.83,26.19c-.57-.2-.64,0-.44.51a3.29,3.29,0,0,0,2.81,1.84c.12,0,.33-.22.31-.29A8.9,8.9,0,0,0,75,26.64a1,1,0,0,0-.68-.43A10.45,10.45,0,0,0,72.83,26.19Zm18.5-8.29-.65.24c.12.14.24.28.37.41a8.86,8.86,0,0,1,2.43,3.71A2.13,2.13,0,0,0,94,23a1.16,1.16,0,0,0,.32.2c0-.13.09-.27.06-.38-.17-.61-.4-1.21-.54-1.82-.3-1.21-1.36-1.87-2-2.83C91.79,18,91.53,18,91.33,17.9Zm18.81,30.68a3.16,3.16,0,0,0-.48.16,2.42,2.42,0,0,0,.25.94c.49.72,1.06,1.38,1.57,2.09.2.28.24.58.71.22s.5-.56.24-1-.73-1.05-1-1.61A1.27,1.27,0,0,0,110.14,48.58ZM182.74,14a10.88,10.88,0,0,0,1.37-.55q2.2-1.26,4.36-2.58a2.54,2.54,0,0,0,.61-.72c.06-.08,0-.24,0-.37a1.23,1.23,0,0,0-.44.06q-2.32,1.44-4.63,2.9c-.47.3-.93.62-1.39.94-.08,0-.12.15-.18.23ZM74.9,31.75c1.52,0,1.74-.32,1.4-1.47-.25-.86-1-.72-1.62-.92a2.3,2.3,0,0,0-.78,0c0,.24.06.49.12.73a3,3,0,0,0,.27.95A3.07,3.07,0,0,0,74.9,31.75Zm-14,42.34a4.5,4.5,0,0,0,.89-.59A15,15,0,0,0,63,72.15a12.8,12.8,0,0,1-1.51-.23.9.9,0,0,0-1.17.47c-.12.2-.3.36-.43.55s-.29.43-.44.64c.27.11.53.23.8.33A6.42,6.42,0,0,0,60.94,74.09Zm8-12.77c-.24,0-1.58,1.43-1.51,1.86a.51.51,0,0,0,.16.23,2.48,2.48,0,0,0,2.29-.29c.31-.46.56-1,.84-1.45ZM154.52,2.41l0,.11c.9-.23,1.8-.44,2.67-.72.24-.08.39-.39.59-.59A2.74,2.74,0,0,0,157,1c-1,.05-2,.15-3,.27-.19,0-.52.24-.5.32a1.29,1.29,0,0,0,.35.74C154,2.42,154.29,2.38,154.52,2.41ZM119.41,33.7a4.43,4.43,0,0,0-.24-.52c-.66-1-1.31-2-2-3-.14-.22-.42-.34-.63-.51,0,.34-.22.76-.09,1,.66,1.1,1.4,2.16,2.13,3.23.09.13.35.33.4.3A2,2,0,0,0,119.41,33.7ZM102,63.81c-.25.25-.6.53-.57.57.4.64.84,1.25,1.29,1.85a3.82,3.82,0,0,0,.45.45c.16.15.37.47.45.44a6.31,6.31,0,0,0,1-.59,1.89,1.89,0,0,0-.12-.22c-.57-.62-1.14-1.25-1.73-1.86A8.85,8.85,0,0,0,102,63.81ZM113,42.92c-.26-.53-.55-1.16-.89-1.77a.77.77,0,0,0-.57.15c-.71.93-.72,1.23,0,2.25a4.86,4.86,0,0,0,.88.74c.17-.35.33-.7.49-1A3.12,3.12,0,0,0,113,42.92Zm-43.12-20v-.08l-.38.05c0,.08,0,.19.08.25a7.14,7.14,0,0,0,1.4,1.4,6.59,6.59,0,0,0,2,.51.82.82,0,0,0,.52-.18c.06,0,0-.29,0-.35a9.33,9.33,0,0,0-1.78-1.3A6.31,6.31,0,0,0,69.87,22.91Zm44.06,21.64c-.13.11-.25.17-.26.24-.12.52-.49,1,0,1.58s.68,1.05,1,1.57a4.35,4.35,0,0,0,.48.48,2.34,2.34,0,0,0,.45-.61,1.11,1.11,0,0,0-.07-.76c-.4-.73-.86-1.43-1.3-2.14A3.31,3.31,0,0,0,113.93,44.55ZM91.29,41.38c.06,0,.44,0,.51-.17a16.87,16.87,0,0,0,.77-1.93c0-.08-.09-.31-.17-.32a1.67,1.67,0,0,0-2,1.34C90.05,41.22,90.14,41.35,91.29,41.38ZM77.93,39.94a3.53,3.53,0,0,0,.36.6c.39.4.8.78,1.21,1.16.2.18.43.34.65.51a3,3,0,0,0,.37-.9,1,1,0,0,0-.28-.73,13.64,13.64,0,0,0-1.4-1.11,5.19,5.19,0,0,0-.65-.37ZM116.09,26c-.1-.17-.26-.7-.46-.72-.52,0-1,.07-1,.89a10.92,10.92,0,0,1-.35,2.16,1.53,1.53,0,0,0,.07.41,1.58,1.58,0,0,1,.22-.29c.19-.16.4-.3.61-.45.5.73.55.07.62-.23C115.94,27.28,116,26.75,116.09,26ZM90.29,45.19a.8.8,0,0,0-.11-.25,1.07,1.07,0,0,0-1.52.29,5.08,5.08,0,0,0-.31,1.25c0,.3.12.78.33.88a1,1,0,0,0,.89-.28A15.11,15.11,0,0,0,90.29,45.19ZM60,80.52l-.08-.33c-.14.07-.38.1-.42.21-.25.68-.42,1.4-.7,2.07-.12.28-.43.48-.66.72-.08-.26-.17-.51-.24-.77a2.22,2.22,0,0,1,0-.45,2.65,2.65,0,0,0-.22.4c-.17.48-.12,1.13-.89,1.12l-.49,0c.16.12.31.32.49.34a2.54,2.54,0,0,0,3.08-2.27C59.84,81.23,59.89,80.94,60,80.52Zm-5.41-.83.05.22c.38-.3.76-.61,1.13-.93,0,0-.12-.32-.22-.34-.47-.13-1.14.09-1.16-.74A1,1,0,0,0,54,78a12.93,12.93,0,0,0-1,.83c-.46.43-.4.75.23.86A7.71,7.71,0,0,0,54.55,79.69Zm-.49,5.41c-.36-.28-.54-.55-.77-.6-1.09-.2-2.18-.37-3.28-.47-.29,0-.6.22-.89.37-.09,0-.12.2-.18.31a1.39,1.39,0,0,0,.26.1c1.42.18,2.83.36,4.24.52C53.58,85.34,53.73,85.23,54.06,85.1Zm47-17.66.2.06c-.06.17-.07.44-.19.5a.74.74,0,0,1-.54-.11c-.19-.11-.33-.34-.53-.43a1.37,1.37,0,0,0-.57,0,1.55,1.55,0,0,0,0,.53c.41.76.86,1.32,1.77.5a2,2,0,0,1,.62-.34c.62-.23.81-.54.24-1.05-.28-.25-.52-.55-.78-.82C101.2,66.67,101.12,67.05,101,67.44ZM88.09,57H88c0-.7,0-1.4,0-2.1,0-.11-.09-.21-.14-.32-.11.07-.29.13-.31.21a5.64,5.64,0,0,0-.09,1.29c.16,1.66.36,3.33.55,5a5.47,5.47,0,0,0,.14.68,3.35,3.35,0,0,0,.15-.74C88.26,59.69,88.17,58.36,88.09,57Zm10.63,5.06-.31,0c0,.25-.13.55,0,.74.51,1,1.05,2,1.64,2.94.08.13.46.18.66.11a.59.59,0,0,0,.19-.54,3.58,3.58,0,0,0-1-1.14c-.58-.31-.9-.61-.83-1.3C99,62.66,98.82,62.37,98.72,62.09ZM71.16,77.71c1.18,0,1.76-.83,2.47-1.41,0,0-.09-.39-.17-.39a2,2,0,0,0-1,0A8.65,8.65,0,0,0,71,77a2.82,2.82,0,0,0-.36.52Zm40.69-32.24A9.38,9.38,0,0,0,111,44.2c-.18-.2-.52-.25-.79-.37-.1.39-.36.83-.26,1.16a4.39,4.39,0,0,0,.83,1.31.91.91,0,0,0,.41.24C111.41,46.2,111.62,45.84,111.85,45.47ZM77.92,41.61a1.68,1.68,0,0,0-.2.44,1.86,1.86,0,0,0,.69,1.68.85.85,0,0,0,1.37,0c.09-.11-.16-.53-.34-.75a13.08,13.08,0,0,0-1-1.07A3.13,3.13,0,0,0,77.92,41.61ZM64,76.88l.23.05c.12-.18.31-.33.35-.52.34-1.67.66-3.33,1-5a1.34,1.34,0,0,0,0-.44c-.13.08-.35.13-.38.25-.17.54-.3,1.1-.43,1.66-.26,1.11-.51,2.21-.74,3.32A3.1,3.1,0,0,0,64,76.88ZM39.42,87.56a8.61,8.61,0,0,0,1.4-.38c.09-.05,0-.53,0-.8,0-.09.09-.18.15-.25s.29-.34.44-.5a6.37,6.37,0,0,0-.75.2,9,9,0,0,0-1.36.56,3.85,3.85,0,0,0-.76.7ZM91.8,37.83l.08-.19c.19.06.44.06.56.19.47.48.52.14.55-.26a5.5,5.5,0,0,1,.07-1.08c.21-.73.15-.83-.6-.73-.38.05-1.23,1.42-1.08,1.8C91.43,37.69,91.65,37.74,91.8,37.83Zm-40,43.8a1.52,1.52,0,0,0,.53-.11,7.08,7.08,0,0,0,.79-.56l-.74-.39a2.61,2.61,0,0,0-.53-.26c-.27-.08-.6-.22-.82-.13s-.46.45-.68.69c.3.23.59.49.91.69A1.36,1.36,0,0,0,51.79,81.63ZM78,31.13s-.18.14-.17.22c0,.27.05.63.22.8a14.11,14.11,0,0,0,1.6,1.29,3.29,3.29,0,0,0,.66.29,6.19,6.19,0,0,1-.3-.57c0-.12,0-.27-.09-.38-.16-.35.35-1-.5-1.05A5.57,5.57,0,0,1,78,31.13Zm34.33,4.13c1.24,0,1.43-.85,1.76-1.55a2.17,2.17,0,0,0,.13-.56,2.42,2.42,0,0,0-.54,0,2.29,2.29,0,0,0-1.6,1.76C112.07,35.08,112.29,35.22,112.32,35.26ZM91,47.26l.2,0c0-.17,0-.34,0-.5a.82.82,0,0,0-.1-.26c-.08,0-.19.07-.23.14a4,4,0,0,0,0,4.16,1,1,0,0,0,.28.18,1.27,1.27,0,0,0,.07-.37C91.14,49.48,91.05,48.37,91,47.26ZM97.39,67.7c-.46-.11-.71.07-.47.5A5.64,5.64,0,0,0,98,69.6c.17.16.59.1.88.06.09,0,.23-.31.2-.45A2.9,2.9,0,0,0,97.39,67.7Zm4.24-7c.92,0,1.1-.33.7-1-.23-.37-.44-.75-.7-1.09a2.78,2.78,0,0,0-.58-.42c-.12.26-.39.56-.33.78a10.42,10.42,0,0,0,.68,1.63C101.44,60.68,101.63,60.68,101.63,60.68Zm9.56-20.92a1.45,1.45,0,0,0-.19-.17,1.29,1.29,0,0,0-1.63.36,10,10,0,0,0-.55,1,5.17,5.17,0,0,1,1,.05c.32.06.64.41.85-.17A9.29,9.29,0,0,1,111.19,39.76ZM95.78,70.16l-1.57-1.28s-.08,0-.09,0c-.23.32-.44.64-.66,1,.53.34,1,.71,1.59,1,.12.07.39-.11.56-.21S95.68,70.45,95.78,70.16Zm16.6-33.1c0-.57-.48-1-.88-.62a6.41,6.41,0,0,0-1.06,1.71.58.58,0,0,0,.27.23A2.08,2.08,0,0,0,112.38,37.06Zm-30.89,33,0-.38A2,2,0,0,0,81,70a8.36,8.36,0,0,0-.85,1.11,4.33,4.33,0,0,0-.32,1,5.37,5.37,0,0,0,1.06,0,.63.63,0,0,0,.41-.43C81.41,71.2,81.43,70.7,81.49,70.09Zm26.7-11.18a3.37,3.37,0,0,0,.42-.6,2.68,2.68,0,0,0-1.12-2.06c-.13,0-.42.06-.42.12a1.87,1.87,0,0,0,.06.92A17,17,0,0,0,108.19,58.91ZM74.45,47.8c.29.24.47.51.68.54.72.11.92-.2,1.06-1.08s-.38-.66-.82-.71C74.24,46.42,75.06,47.42,74.45,47.8Zm.82,2.36s0-.32-.16-.4-.62-.07-.65,0c-.26.66-.45,1.35-.66,2a1.69,1.69,0,0,0,.44.12C74.82,51.93,75.21,51.32,75.27,50.16Zm1.47-9.08h0a2.73,2.73,0,0,1,.05-.4c.25-.75-.21-.69-.68-.56s-.8,1.71-.45,2a.67.67,0,0,0,1-.36C76.71,41.55,76.71,41.31,76.74,41.08Zm44.11-8.89c-.53-.62-1-1.25-1.6-1.83-.12-.14-.38-.14-.58-.2,0,.24,0,.53.09.7.42.59.89,1.14,1.36,1.69a.86.86,0,0,0,.38.21A3.64,3.64,0,0,0,120.85,32.19Zm-8.95-21a1.45,1.45,0,0,0-.27-.42c-.67-.55-1.36-1.09-2.07-1.59-.11-.08-.38.07-.58.11.07.23.07.56.23.68.68.52,1.39,1,2.1,1.46a.72.72,0,0,0,.46,0S111.85,11.26,111.9,11.16ZM86.12,52.83c.14.17.27.45.44.47a.72.72,0,0,0,.62-.26,4.36,4.36,0,0,0,.49-1.3.68.68,0,0,0-.31-.57.63.63,0,0,0-.6.17A12.78,12.78,0,0,0,86.12,52.83Zm9.63-25.31c-.16.17-.27.25-.31.35a2.25,2.25,0,0,0,1.4,3,1,1,0,0,0,.35,0c0-.14,0-.33-.13-.4A2.56,2.56,0,0,1,96,28.14,2,2,0,0,0,95.75,27.52ZM61.23,76c0-.12,0-.28-.07-.43a1.48,1.48,0,0,0-.48.26,1.36,1.36,0,0,0-.35.57c-.16.8-.31,1.6-.42,2.41,0,.15.12.31.19.47.12-.08.31-.15.34-.26C60.72,78,61,77,61.23,76ZM76.5,44c0-.07-.12-.43-.25-.45-.29,0-.83.05-.87.19a6.74,6.74,0,0,0-.14,1.62,1,1,0,0,0,.45.08C76.53,45.39,76.4,44.72,76.5,44ZM59.64,75c-.32-.13-.73-.44-1.09-.4a3.64,3.64,0,0,0-1.18.65c.3.15.59.31.89.45a3.82,3.82,0,0,0,.36.13C59.06,76,59.6,75.67,59.64,75Zm76.13-55.72c.17.29.32.84.51.86a6.53,6.53,0,0,0,1.55-.26L137,19a1.53,1.53,0,0,0-.31-.26l-.65-.38C136,18.63,135.89,18.89,135.77,19.25ZM71.64,57.12c1,0,1.66-.55,1.7-1.36,0-.09-.19-.24-.32-.27-1-.23-1.12.66-1.44,1.26C71.53,56.85,71.62,57,71.64,57.12Zm5.67-10.06c0,.22-.13.4-.07.48.62.86,1.26,1.71,1.9,2.55.07.09.3.17.33.13a.55.55,0,0,0,.21-.4,1.05,1.05,0,0,0-.25-.52c-.6-.67-1.21-1.32-1.82-2A2.59,2.59,0,0,0,77.31,47.06Zm16.57-14c-.07-.07-.22-.33-.39-.34s-.38.23-.49.4a1,1,0,0,0-.19.66c.11.53.31,1.05.47,1.57.16-.4.35-.8.48-1.21A7.46,7.46,0,0,0,93.88,33.11ZM78.56,36.33c-.11.24-.31.47-.25.59A7.72,7.72,0,0,0,79,38a4.25,4.25,0,0,0,.47.48c.19-.4.65-1,.53-1.16A5.41,5.41,0,0,0,78.56,36.33Zm-25.26,47a2.51,2.51,0,0,0,.48,0c.34-.06.92-1.55.7-1.82,0-.05-.28,0-.38.06a6.33,6.33,0,0,0-.75.62c-.28.28-.53.6-.79.9Zm55.13-41.28c-.3.38-.75.78-.69.9a5.33,5.33,0,0,0,1,1.06,4.8,4.8,0,0,0,.75-1.18C109.49,42.71,108.89,42.4,108.43,42.05Zm6.31-11.85a1,1,0,0,0-.77,1.66l.3.45a2.34,2.34,0,0,0,.45-.5c.16-.39.21-.83.38-1.22S115.14,30.07,114.74,30.2Zm4,6.23c-.28-.66-.56-1.38-.91-2.08-.06-.12-.38-.1-.58-.15,0,.18-.16.4-.09.53.31.66.67,1.3,1,1.94.06.09.21.14.31.2ZM56.82,77.34v.06a2.22,2.22,0,0,0,.69-.06c.11,0,.23-.35.18-.42a1.75,1.75,0,0,0-2.22,0,3.46,3.46,0,0,0-.29.45,2.25,2.25,0,0,0,.56.12A9.91,9.91,0,0,0,56.82,77.34Zm10.43-7.29c-.1-.19-.14-.4-.27-.49s-.34.08-.4.2a2.72,2.72,0,0,0-.27.88,12.9,12.9,0,0,0,0,1.39c0,.15,0,.29,0,.43.13-.1.35-.17.39-.29C66.9,71.47,67.06,70.77,67.25,70.05ZM86.64,54.61c-.09-.08-.21-.25-.31-.24s-.53.08-.59.22a13.84,13.84,0,0,0-.58,1.79c0,.1.09.29.2.37a.37.37,0,0,0,.34-.1C86,56,86.31,55.34,86.64,54.61Zm-15.94,5,.29.26c.19-.17.49-.32.55-.52s-.11-.69-.19-.69a1.48,1.48,0,0,0-.94.22,2.48,2.48,0,0,0-.53.94,1.64,1.64,0,0,0-.08.5,1.93,1.93,0,0,0,.55-.23A2.12,2.12,0,0,0,70.7,59.61Zm14.18,4.85h-.06c0,.5,0,1,0,1.5a1.69,1.69,0,0,0,.18.47c.15-.13.44-.27.44-.4,0-1.19-.09-2.38-.15-3.56,0-.11-.1-.22-.15-.33-.09.11-.25.22-.26.34C84.87,63.14,84.88,63.8,84.88,64.46Zm5-20.7c.67-.08,1.2-.23,1.12-.8,0-.26-.64-.55-1-.59-.17,0-.47.51-.58.83C89.39,43.32,89.74,43.57,89.91,43.76Zm-46,41.45a13.64,13.64,0,0,0,1.4-.19c.16,0,.28-.24.42-.38-.14-.09-.28-.25-.42-.26a6,6,0,0,0-1.41,0c-.24,0-.44.3-.66.46Zm71.61-45.92-.3-.44c-.35-.48-.69-1-1-1.44a6.27,6.27,0,0,0-.5-.54,2.6,2.6,0,0,0,.07.8c.3.65.65,1.27,1,1.89a.37.37,0,0,0,.32.12A3.08,3.08,0,0,0,115.55,39.29ZM87.31,49.61c.24.22.39.46.59.51.44.1,1-.53.93-1.13,0-.26-.52-.45-.8-.67Zm89-19.13.1.16c.17-.15.39-.26.48-.44a6.61,6.61,0,0,0,.32-1c-.26.08-.54.14-.8.24-.43.17-.85.36-1.28.55a2,2,0,0,0-.3.21c.1.06.19.16.3.18C175.52,30.42,175.92,30.44,176.31,30.48Zm-67.9,14.67c-.35-.17-.55-.36-.67-.32-.47.15-1.22-.29-1.35.43,0,.28.53.66.82,1Zm55-2.89c-.45.27-1,.58-1.54.92-.09.06-.13.21-.2.32a3.45,3.45,0,0,0,.42.14c.73.19,1.15-.36,1.65-.72a3.68,3.68,0,0,0,.4-.39Zm-53.22,4.67-.84-1.28c-.26.42-.53.84-.76,1.28,0,0,.36.38.52.36A4.71,4.71,0,0,0,110.17,46.93Zm44.1,4.13c.54-.25,1.12-.5,1.67-.81.15-.08.2-.34.3-.52-.24-.06-.55-.25-.71-.16a13.32,13.32,0,0,0-1.44,1.06.34.34,0,0,0-.13.24C154,50.92,154.1,51,154.27,51.06ZM56.13,80.63c-.05-.2-.09-.35-.13-.49-.11.1-.29.19-.32.32-.25.94-.47,1.9-.68,2.85,0,0,.08.13.13.2.09-.08.24-.14.27-.24C55.66,82.38,55.9,81.49,56.13,80.63ZM105.08,6.84c-.18.07-.31.09-.35.15s0,.24,0,.26c.66.37,1.33.73,2,1.06.08,0,.27-.14.41-.22-.06-.1-.1-.26-.19-.31C106.35,7.45,105.69,7.14,105.08,6.84ZM64.86,82c.57-.26,1.21-.54,1.83-.85.16-.08.27-.28.4-.43-.21-.07-.49-.26-.62-.18-.63.35-1.22.77-1.82,1.17,0,0,0,.17,0,.25Zm17.4-10.77-.12,0c.1.22.19.44.28.67a2.55,2.55,0,0,0,.27-.67c.08-1,.13-2.12.17-3.18,0-.12-.11-.24-.17-.36-.06.1-.17.2-.18.31C82.41,69.13,82.34,70.2,82.26,71.26ZM69.63,78.57l-.1-.16c-.41.22-.82.44-1.21.68-.09.06-.11.23-.16.35a1,1,0,0,0,.38,0c.55-.11,1.1-.24,1.64-.4.13,0,.23-.2.35-.3a1.71,1.71,0,0,0-.4-.21A2.07,2.07,0,0,0,69.63,78.57Zm35.54-26.48c-.15.21-.32.35-.3.46a3,3,0,0,0,.33,1.19c.12.19.54.2.83.29-.07-.22-.13-.45-.21-.67a8.33,8.33,0,0,0-.34-.82A4.16,4.16,0,0,0,105.17,52.09ZM77.64,71.34l-.85.85.53.52c.32-.35.65-.69,1-1Zm-15.31-.5.08-.19c.35.14.69.3,1,.41a2.27,2.27,0,0,0,.52,0c-.07-.18-.09-.44-.22-.52a5.81,5.81,0,0,0-1.18-.5c-.13,0-.34.09-.45.21a.58.58,0,0,0-.16.43C62,70.74,62.2,70.78,62.33,70.84ZM66.55,75l-.32-.65a4.14,4.14,0,0,0-.44.5,1,1,0,0,0-.15.46c0,.33-.46.89.21.88C66.08,76.18,66.31,75.42,66.55,75Zm29.72-11-.63-.61a5.31,5.31,0,0,0-.65.89c0,.1.24.36.38.54Zm2.31,1.37c-.29-.43-.55-.85-.85-1.23,0,0-.31.09-.48.14a3.86,3.86,0,0,0,.34.86,2.08,2.08,0,0,0,.69.5S98.45,65.43,98.58,65.31Zm18.71-37.89a1.32,1.32,0,0,0-.18,0c0,.28-.18.63-.06.81a4.73,4.73,0,0,0,.92.78S118,29,118,29a1.45,1.45,0,0,0,0-.56C117.77,28.06,117.51,27.73,117.29,27.42ZM74.49,75.09c.46-.25.92-.5,1.36-.77.05,0,0-.23,0-.35-.52.17-1.06.33-1.58.53a.35.35,0,0,0-.12.33C74.14,74.92,74.3,75,74.49,75.09ZM116.68,32.7l-.65-1c-.13.24-.4.5-.37.71a2.85,2.85,0,0,0,.49.9Zm-19.84,30a10.24,10.24,0,0,0,.67-1.11s-.22-.25-.34-.38c-.25.35-.51.68-.74,1C96.41,62.24,96.61,62.41,96.84,62.66ZM35.05,88.43v0a3,3,0,0,0,.79,0c.15,0,.26-.28.38-.43-.15,0-.32-.17-.46-.14a9.17,9.17,0,0,0-1.25.32c-.11,0-.2.14-.3.21a1.89,1.89,0,0,0,.34.09ZM96.66,69.27c-.44-.5-.9-1.06-1.38-1.59,0,0-.24,0-.24,0s0,.29,0,.36c.41.47.84.92,1.27,1.36.06.06.17.06.26.08Zm2-9.5.69-1c-.13-.09-.26-.25-.41-.26a.74.74,0,0,0-.86.74C98.09,59.4,98.4,59.55,98.68,59.77ZM94.69,25l-.23-1.13a5,5,0,0,0-.29,1.22,3.65,3.65,0,0,0,.32,1Zm7.56,29-.4-.79c-.26.37-.52.74-.78,1.13,0,0,.17.16.21.14C101.59,54.36,101.88,54.2,102.25,54ZM101,56.13c-.28-.09-.54-.24-.59-.18a3.49,3.49,0,0,0-.63.84s.23.24.36.37Zm-26.73-2.7c-.37-.15-.66-.35-.73-.29a2.9,2.9,0,0,0-.6.78s.23.27.26.26C73.56,54,73.86,53.76,74.31,53.43ZM67.91,73l-.16,0a6.12,6.12,0,0,0-.32,1,7.61,7.61,0,0,0,0,1.17c.14-.34.28-.67.4-1a5.16,5.16,0,0,0,.17-.78A.84.84,0,0,0,67.91,73Zm43.85-4.81-1,.13a5,5,0,0,0,1,.29,4.82,4.82,0,0,0,1-.14ZM78.63,69.85l-.42.28a1.22,1.22,0,0,0,.4.22,4.84,4.84,0,0,0,.92.08s.07-.22.11-.34ZM94.56,27.47l-.17-.57c-.15.15-.4.28-.42.45a4.83,4.83,0,0,0,0,1.07s.24.06.25,0C94.38,28.13,94.47,27.8,94.56,27.47Zm12.39,33a9.36,9.36,0,0,0,.54-1c0-.07-.21-.24-.33-.36-.19.32-.38.64-.55,1C106.59,60.09,106.75,60.21,107,60.42ZM55.64,85.48a.8.8,0,0,0,.26-.27c.05-.07,0-.32-.1-.33a7,7,0,0,0-1.21-.12c-.05,0-.13.29-.14.45s.17.16.27.18A8.51,8.51,0,0,0,55.64,85.48Zm-8.3-1.62.59-.26a2,2,0,0,0-.5-.3,4.26,4.26,0,0,0-1-.07.68.68,0,0,0-.07.23C46.7,83.6,47,83.72,47.34,83.86Zm3.17-1.49c-.62-.23-1-.39-1.4-.5-.09,0-.24.17-.35.27.4.15.81.31,1.22.44C50.06,82.6,50.18,82.51,50.51,82.37ZM68,69.8l0,.45a3.76,3.76,0,0,0,.2-.46,3.93,3.93,0,0,0,.19-.67,8.19,8.19,0,0,0,0-.86,8.11,8.11,0,0,0-.31.82A6.14,6.14,0,0,0,68,69.8ZM82,30.32l-.3-.54a4.55,4.55,0,0,0-.43.78c0,.09.17.25.26.39ZM90.12,56l.23.59a7,7,0,0,0,.44-.8c0-.07-.15-.23-.24-.34ZM58.58,78.09l.41.57a4.75,4.75,0,0,0,.28-.8c0-.1-.14-.24-.23-.36ZM94.35,17.18l-1,.5c.08,0,.17.12.24.1.42-.1.83-.23,1.24-.35Zm-2.6,53.1L91.43,70c-.19.29-.39.57-.56.88,0,0,.15.15.23.23Zm8.72-9.78-.54-.42a4.87,4.87,0,0,0-.31.6s.19.21.25.19A4.3,4.3,0,0,0,100.47,60.5Zm16.35-11.91c-.23-.12-.38-.23-.42-.21a3.14,3.14,0,0,0-.46.5,1,1,0,0,0,.23.22A7.67,7.67,0,0,0,116.82,48.59Zm45-18.14v-.19c-.14,0-.3-.16-.41-.13a3.66,3.66,0,0,0-.67.37c.14.05.28.15.4.14A4.15,4.15,0,0,0,161.85,30.45Zm-54.46,22.4-.25-.43c-.14.15-.35.29-.39.46s.16.31.25.46Z"/><path d="M74.82,86.83c-.83-.13-1.46-.19-2.07-.33a18.35,18.35,0,0,0-6-.11c-.27,0-.55-.22-.83-.28-.61-.12-1.24-.19-1.84-.33-.29-.06-.88.17-.73-.5.12-.52.5-.33.88-.28a19.48,19.48,0,0,0,4.34.33,14,14,0,0,1,6.17.91c.15.06.26.23.39.35Z"/><path d="M65.51,89.58a8,8,0,0,1-1.2,0,4,4,0,0,1-.83-.35c.29-.15.59-.44.86-.42,1.66.11,3.33.25,5,.49A18,18,0,0,1,72,90a1.92,1.92,0,0,1,.42.3,3.43,3.43,0,0,1-.49.28.59.59,0,0,1-.29,0c-1-.19-1.95-.4-2.93-.57s-2.09-.35-3.13-.52Z"/><path d="M19.56,85.45a2,2,0,0,1-.68-.1c-1-.6-1.83-.17-2.67.38-.16.12-.41.1-.62.15.05-.24,0-.53.16-.7a2.86,2.86,0,0,1,3.95-.29,1.51,1.51,0,0,1,.21.4Z"/><path d="M31.49,58.46c.31-.79.61-1.58,1-2.35.07-.15.38-.19.58-.28a2.15,2.15,0,0,1,0,.56c-.13.59-.3,1.16-.43,1.74a1,1,0,0,0,0,.59A14.26,14.26,0,0,0,33.28,60c.28-.37.71-.71.8-1.12a12.42,12.42,0,0,0,.23-2.59c0-.39-.05-.94-.81-.82-.5.09-.53-.45-.33-.69s.07-.63,0-1a6.47,6.47,0,0,1,0-2.36,8.68,8.68,0,0,1,2.71-4.59,4.63,4.63,0,0,0,.75-.94c.17-.25.21-.44-.25-.51-1.52-.24-2-1.26-1-2.48s1.83-2.29,2.76-3.42c.81-1,1.5-1,2.46-.11.19.17.51.21.69.39s.11.41.16.62a1.72,1.72,0,0,1-.52-.12c-1-.66-1.46-.68-2.34.24s-1.67,2-2.46,3c-.12.15-.14.57-.06.62a1,1,0,0,0,.73.12,6,6,0,0,0,1.59-.82c1.5-1.21,2.95-2.47,4.4-3.74.17-.15.22-.45.32-.68a3.9,3.9,0,0,0-.74-.11c-.3,0-.6.14-.89.14s-.33-.15-.49-.23c.09-.17.17-.47.28-.48a7.4,7.4,0,0,1,2.24-.11c.5.1.65.65.34,1.23a11.32,11.32,0,0,1-2.94,3.26c-1,.77-2,1.46-2.86,2.3-.22.2-.23,1.1,0,1.2.9.52.18.72-.14.95s-.79.37-1.16.61a3.68,3.68,0,0,0-1.42,2.44c-.32,1.21-.78,2.39-1.15,3.59-.06.19-.07.54,0,.6,1.07.62,1,1.69,1,2.67a16.81,16.81,0,0,1-.54,3.13,1.18,1.18,0,0,1-1.3,1A1.58,1.58,0,0,1,31.92,60a7.21,7.21,0,0,1-.28-1.47Z"/><path d="M19.45,59.75c-.35.08-.74.3-1,.21-.57-.17-.67.08-.66.51a4.69,4.69,0,0,0,.11,1c.11.5.35.88-.15,1.45-.28.32,0,1.21.14,1.82S18.07,66,19,66.06c.09,0,.17.27.26.42-.18.1-.47.34-.54.29-.54-.41-1.25-.77-1.5-1.33A6.94,6.94,0,0,1,16.85,63c0-.82,0-1.65,0-2.48,0-.25.09-.51.12-.76a22.51,22.51,0,0,1,.3-2.35,6.64,6.64,0,0,1,1.5-3.52,2.38,2.38,0,0,1,1.46-.47c.71,0,1-.15.75-.93-.5-1.39.46-2.49.81-3.71a3,3,0,0,1,.79-1.26c.23-.22.67-.23,1-.33a3.64,3.64,0,0,1-.18.95c-.31.61-.71,1.19-1.05,1.79,0,.08,0,.23,0,.34a1,1,0,0,0,.31-.19c.14-.18.21-.43.38-.56a.5.5,0,0,1,.49,0c.4.46.45.49.66,0A13,13,0,0,0,24.72,48c.06-.26,0-.58.18-.77a6.9,6.9,0,0,1,1-.92,5.67,5.67,0,0,1,0,1.09,22.21,22.21,0,0,1-.63,2.43,2.5,2.5,0,0,1-1.5,1.63A2.26,2.26,0,0,0,22.23,54c0,.15,0,.43-.09.44-1.29.33-1.05,1.62-1.5,2.44a27.29,27.29,0,0,0-1.22,3Zm.94-4.59c.07-.89.07-.89-.6-.63a3,3,0,0,0-1.38,3c.12.36.77.53.93.2C19.76,56.84,20.09,55.91,20.39,55.16Z"/><path d="M71.78,36a17.66,17.66,0,0,1-1.3,5,2,2,0,0,1-1.79,1.23c-.87,0-.94.45-.82,1.09a6.71,6.71,0,0,1-.22,4,5.71,5.71,0,0,1-2.26,2.95c-.2.11-.6.18-.7.08a1.5,1.5,0,0,1-.24-.78c0-.12.08-.25.12-.38s.12-.48.18-.73c-.19.15-.38.31-.59.45a2,2,0,0,1-.34.13c0-.14-.12-.3-.08-.42.21-.67.46-1.32.68-2,.35-1,.68-2,1-3,.15-.4,0-1.16.83-.87a1.52,1.52,0,0,0,.15-.6c-.06-.44-.65-1.06.14-1.22a2,2,0,0,1,1.54.62c.3.38.19.39.48,0a5.16,5.16,0,0,0,.93-3.21,2.12,2.12,0,0,0-1.33-1.94c-.33-.07-.85.13-.59-.51.18-.44.58-.76,1-.4a15.41,15.41,0,0,1,1.49,1.53,3.11,3.11,0,0,1,.25.38c.09-.16.26-.34.24-.48-.12-.57.6-1.47-.64-1.64-.11,0-.24-.68-.17-1a1,1,0,0,1,.62-.67.9.9,0,0,1,.79.4A14.11,14.11,0,0,1,71.78,36ZM67,45.19c0-.26,0-.56,0-.86a1.65,1.65,0,0,0-.11-.36c-.08.09-.21.16-.24.27-.14.54-.26,1.08-.4,1.62,0,.14-.14.37-.24.38-.68.11-.56.57-.48,1,0,.26.1.52.14.78s0,.25,0,.37c.13-.07.31-.09.39-.2A4.47,4.47,0,0,0,67,45.19Z"/><path d="M27.77,73.37a10.42,10.42,0,0,1-.35-1.21,4.8,4.8,0,0,1-.07-1.36c0-.18.34-.33.53-.49.09.19.26.38.26.57a2.45,2.45,0,0,0,1.1,1.81c.07.06.43,0,.44-.12.15-.91.95-.59,1.46-.73s1.1-.64,1.38.33c0,.14.38.22.59.29,1.11.38,2.24.67,2.54,2.08.07.32.68.49,1,.78s.52.51.49.74-.35.54-.61.66a4.44,4.44,0,0,1-3,.55.91.91,0,0,0-1.17.54c-.45.84-2.12.91-3,.2a31.12,31.12,0,0,1-2.23-2.22l0,0a6.28,6.28,0,0,1-.08-1.55c.07-.33.46-.61.71-.91.13.67.23,1.34.4,2,.29,1.19,2,2.49,2.83,2.2a3.49,3.49,0,0,0,.78-.51,2.35,2.35,0,0,0-.54-.51c-.6-.3-1.15-.6-.93-1.42,0-.09,0-.25,0-.28C29.46,74.33,28.61,73.86,27.77,73.37Zm6.36,3,1.26-.24c.07,0,.12-.13.19-.2s-.13-.15-.21-.16c-1.11-.14-2.22-.26-3.33-.38a1.69,1.69,0,0,0-.38,0c.1.12.18.33.31.36C32.7,76,33.44,76.18,34.13,76.36Zm-3-3.3c-.2.09-.38.18-.56.28,0,0,.06.22.11.23,1,.25,2,.48,3,.69.09,0,.21-.11.32-.17-.11-.09-.2-.23-.33-.27C32.8,73.56,32,73.32,31.11,73.06Z"/><path d="M69.18,51.28c-.23.59-.41,1.12-.63,1.63a4.2,4.2,0,0,0-.46,2.6,3.32,3.32,0,0,1-.48,1.91C66.84,59,66,60.48,65.12,62A4,4,0,0,1,64,63.29c-.78.53-1,1.38-1.39,2.11a7.66,7.66,0,0,1-3.14,3.31c-.56.27-.83-.06-1-.44,0-.08.26-.35.4-.53.64.52,1,0,1.31-.42a9.75,9.75,0,0,0,2.22-4c.16-.64.21-1.39,1.27-1.08.21.07.68-.32.84-.6,1-1.73,1.9-3.5,2.83-5.26a1.17,1.17,0,0,0,0-.46c-.09.08-.2.15-.29.24-.46.48-.91,1-1.38,1.44s-.83,1.06-1.5.25c-.06-.07-.49.2-.75.28s-.55.12-.83.18c0-.29-.06-.63.08-.84,1.22-1.86,2.48-3.7,3.75-5.53.07-.1.26-.12.4-.17a1.33,1.33,0,0,1-.07.45c-.41.76-.86,1.5-1.25,2.27-.14.27-.68.66.11.85a.9.9,0,0,1,0,.53c-.08.18-.28.28-.4.44s-.45.64-.67,1c.35-.23.82-.39,1-.71.69-1.06,1.29-2.18,1.9-3.29.38-.71.69-1.45,1.07-2.16a.52.52,0,0,1,.48-.14C69.06,51,69.13,51.21,69.18,51.28Z"/><path d="M41.41,77.74c.93,0,1.64.19,1.94.94s-.21,1.41-.66,2a16.75,16.75,0,0,1-1.85,2.09A7.82,7.82,0,0,1,37,84.36c-.79-.74-1.07.11-1.62.4a2.92,2.92,0,0,1-2,.19,14.67,14.67,0,0,1-2.94-1.27c-.33-.17-.49-.64-.73-1a6.67,6.67,0,0,1,.93-.37,20.5,20.5,0,0,1,2.07-.42c.17,0,.38.13.57.2a3.83,3.83,0,0,1-.36.44c-.06.06-.2,0-.29.07l-.79.31a3.16,3.16,0,0,0,.72.61,5.94,5.94,0,0,0,1.71.53,1.38,1.38,0,0,0,1-.43,1,1,0,0,1,1.22-.36,3.4,3.4,0,0,0,1.08-.11c.46,0,.78-.07.44-.71s0-.94.68-.91c1.63.06,2.6-1,3.62-2,.34-.33.15-.72-.27-.69a6,6,0,0,0-2.11.46,26.49,26.49,0,0,0-2.7,1.7,2.54,2.54,0,0,1-.67.43,4,4,0,0,1-.92.08,5.55,5.55,0,0,1,.57-.61c.8-.66,1.6-1.32,2.43-1.94A6,6,0,0,1,41.41,77.74Z"/><path d="M23.1,58.56c-.84.08-1.69-.74-1.44-1.45.08-.22.41-.36.62-.54a5.33,5.33,0,0,0,.31.51c.13.18.28.34.42.51a3.73,3.73,0,0,0,.18-.63,10.32,10.32,0,0,1,.09-1.58,1.45,1.45,0,0,1,.66-.81.92.92,0,0,1,.8.07.77.77,0,0,1,0,.7.92.92,0,0,0-.08,1.4c.15.21-.07.66,0,.95.14.44.33,1,.67,1.19s.76-.26,1-.73.72-1,1.38-.36c.08.07.24.05.37.07,1.39.2,1.93.92,1.34,2.2a8.72,8.72,0,0,1-1.84,2.44,1.08,1.08,0,0,1-1.82-.57,3,3,0,0,1,0-1.37c.11-.55,0-.76-.57-.61-.78.18-1-.55-1.29-1S23.6,58.51,23.1,58.56Zm5.39.42c-.94-.06-2.12,1.68-1.76,2.36a.38.38,0,0,0,.32.13,3.93,3.93,0,0,0,1.62-2A1.38,1.38,0,0,0,28.49,59Z"/><path d="M56.59,25c-.48.23-1.45-.35-1.54.82,0,0-.19.12-.22.09-.25-.19-.68-.43-.67-.63.05-1-.57-.86-1.19-.84a5.74,5.74,0,0,0-3.45,1.12,13.58,13.58,0,0,1-2.69,1.28.78.78,0,0,1-.58,0,3.85,3.85,0,0,1-.67-.47c.19-.16.37-.41.58-.44a7.89,7.89,0,0,0,3.78-1.67c.08-.06.2-.16.26-.14,1.12.37,2-.44,2.94-.66a1.56,1.56,0,0,1,1.6.24,1.38,1.38,0,0,0,.92.18,9.69,9.69,0,0,1,5.77,1.67c.76.49.91,1.1.57,1.7s-1,.75-1.8.48c-.5-.17-1.05-.16-1.55-.32a3.18,3.18,0,0,1-.81-.54,2.67,2.67,0,0,1,.77-.45,2,2,0,0,1,1.69.44c.14.12.49,0,.75,0-.12-.2-.19-.47-.36-.58A6.44,6.44,0,0,0,56.59,25Z"/><path d="M51.6,36.66c.63.17,1.24.14,1.5.43,1.08,1.18,2.67,1.08,4,1.72.2.1.48.12.63.27s.59.66.52.79a2.28,2.28,0,0,1-.9.7s-.33-.24-.39-.42a1.74,1.74,0,0,0-2.48-.78c-.17.11-.6.18-.64.12-.43-.7-.95-.34-1.4-.13-1.26.59-2.5,1.24-3.75,1.85a2.44,2.44,0,0,1-.95.25c-.94,0-1.3-.54-1-1.41a5.18,5.18,0,0,1,2.61-2.49A13.13,13.13,0,0,1,51.6,36.66Zm.56,1.15A7,7,0,0,0,48,40a1,1,0,0,0-.07.35,1.14,1.14,0,0,0,.37,0c1.33-.62,2.66-1.24,4-1.89.13-.06.18-.29.27-.45Z"/><path d="M61.32,56.36c-.37.72-.7,1.46-1.12,2.14-.8,1.3-1.64,2.57-2.46,3.85a2.2,2.2,0,0,1-.5.62,4.87,4.87,0,0,1-.94.38c-.12-.39-.4-.81-.33-1.17a13.79,13.79,0,0,1,2.77-6.32c.14-.17.06-.52.17-.74a2.08,2.08,0,0,1,.63-.82c.13-.08.5.19.73.34.58.38,1.09.82.83,1.66ZM57.4,60.43a4.23,4.23,0,0,0,.37-.41c.45-.66.87-1.33,1.33-2a14.44,14.44,0,0,0,1-1.26,3,3,0,0,0,.13-1,3.65,3.65,0,0,0-.69.47,6.33,6.33,0,0,0-.45.76,9,9,0,0,0-1.64,2.79A3.08,3.08,0,0,0,57.4,60.43Z"/><path d="M38.08,69.86a1.83,1.83,0,0,1-.65-.3c-.35-.38-.52-.88-1.21-.9-.35,0-.31-.76.12-1,1.06-.63,2.13-1.26,3.23-1.82,1.32-.68,2.68-1.3,4-1.91a1.1,1.1,0,0,1,1.46.26c.41.55,0,1-.28,1.44a10.1,10.1,0,0,1-6.13,4.09Zm.69-1.2a10.8,10.8,0,0,0,5.46-3.41c.1-.12.06-.36.08-.54a2.46,2.46,0,0,0-.47,0,4.31,4.31,0,0,0-1.15.29c-1.58.85-3.14,1.73-4.7,2.63-.18.1-.29.33-.44.5a2.32,2.32,0,0,0,.48.36A3.71,3.71,0,0,0,38.77,68.66Z"/><path d="M50,27.3c1.55.22,2.87.36,3.85,1.33a1.47,1.47,0,0,1,.32,1.12,1.29,1.29,0,0,1-.71,1.05c-1,.57-1.85.07-2.76.18-1.23.16-2.47.22-3.41,1.2-.11.11-.37.08-.56.11,0-.28-.19-.65-.07-.82a11.84,11.84,0,0,1,1.12-1.12c.06-.06,0-.23,0-.35-.6.06-1-.29-.89-.81A1.75,1.75,0,0,1,47.7,28,14,14,0,0,1,50,27.3Zm1,2.63V30c.6,0,1.2-.07,1.79-.16.19,0,.35-.21.52-.33-.13-.17-.23-.44-.39-.49a8.53,8.53,0,0,0-2.12-.52,8.23,8.23,0,0,0-2.13.34c-.31.08-.31.24-.22.64.18.74.52.69,1.05.61S50.58,30,51.08,29.93Z"/><path d="M53.21,53.12A13.39,13.39,0,0,1,52,55.33c-.8,1-1.75,1.77-2.63,2.65-.07.07-.13.19-.2.21-.5.1-1.13.4-1.47.2-.62-.35-.3-1,0-1.51A20.2,20.2,0,0,1,48.83,55a7.71,7.71,0,0,0,1.43-5.18c0-.25.22-.51.34-.76a7.11,7.11,0,0,1,.6.63c.24.34.43.71.64,1.07Zm-1,.39a13.47,13.47,0,0,0-.43-1.31c-.07-.17-.27-.28-.41-.41a4.76,4.76,0,0,0-.28.49c-.19.46-.31,1-.54,1.4-.47.91-1,1.78-1.49,2.68a3.38,3.38,0,0,0-.23.63,2.45,2.45,0,0,0,.55-.23,7.74,7.74,0,0,0,1.46-1.19A22.28,22.28,0,0,0,52.18,53.51Z"/><path d="M39.35,55.22a10,10,0,0,1,1.85-5.09c.75-.94,1.45-1,2.42-.21a7.92,7.92,0,0,1,1.43,1.52c.48.68-.42,2.58-1.26,2.73-.11,0-.38-.28-.36-.34a2.94,2.94,0,0,1,.43-.67c.66-.9.56-1.47-.4-2.18a1.15,1.15,0,0,0-1.92.4A18.55,18.55,0,0,0,40.42,54a.94.94,0,0,0,0,.29l.29-.12c.55-.29,1.1-.62,1.37.34,0,.11.33.12.46.23a3.07,3.07,0,0,1,.41.47c-.17.13-.32.33-.51.35-.4.06-.72,0-.77.62,0,.24-.85.53-1.34.57-.25,0-.61-.39-.8-.68A2.4,2.4,0,0,1,39.35,55.22Zm2,.6c-.32-.26-.5-.43-.7-.57,0,0-.16,0-.24.07a2,2,0,0,0,.31.56C40.79,56,41,55.86,41.36,55.82Z"/><path d="M68.38,31.52c-.08.91-.18,1.55-.83,2-.34.22-.63.62-.92,0,0-.05-.1-.14-.14-.13-1.84.28-1.61-1.44-2.17-2.33-.74-1.19-.3-2.52-.11-3.8.07-.41.83-.58,1.38-.34a4.89,4.89,0,0,1,2.28,2.76A10.35,10.35,0,0,1,68.38,31.52Zm-1.86.22h0a2,2,0,0,0,0,.6,4.07,4.07,0,0,0,.35.69c.16-.23.46-.45.46-.67a6.82,6.82,0,0,0-.24-2,4,4,0,0,0-2.07-2.67,1.45,1.45,0,0,0-.36-.08,2.29,2.29,0,0,1,.12.37c0,.18,0,.38.05.57.09.65.17,1.31.3,2a3.76,3.76,0,0,0,.32.75,2.48,2.48,0,0,1,.25-.74,3.76,3.76,0,0,1,.69-.56,4,4,0,0,1,.17.76A8.26,8.26,0,0,1,66.52,31.74Z"/><path d="M19.52,68.67c.12-.85.22-1.61.33-2.37,0-.16.12-.43.18-.43a6.06,6.06,0,0,1,1.81.07c.27.07.51.57.59.92a9.13,9.13,0,0,1,0,5.33c-.2.57-.38,1.27-1.2,1.25s-1-.55-1.14-1.17C19.86,71.05,19.69,69.82,19.52,68.67Zm1.17,1c.11.7.2,1.39.35,2.06a.5.5,0,0,0,.41.3c.13,0,.36-.22.36-.35,0-1.32,0-2.64,0-4,0-.15-.15-.29-.22-.43-.15.11-.4.19-.44.33C21,68.26,20.84,68.94,20.69,69.65Z"/><path d="M44.44,69.69a4.34,4.34,0,0,1,1,.77c.09.12-.22.63-.45.86-.66.65-1.34,1.29-2.07,1.88C42,74,41,74.64,40,75.34a1.82,1.82,0,0,1-.9.38c-.26,0-.52-.22-.78-.35a2.68,2.68,0,0,1,.47-.7c.31-.22.74-.28,1.06-.51s1-.56.33-1.2a.72.72,0,0,1,0-.72A11.26,11.26,0,0,1,44.44,69.69Zm-2.48,3c.39-.29.68-.5.95-.73s.34-.36.51-.54a3.92,3.92,0,0,0-.77.28,3.28,3.28,0,0,0-.65.59C42,72.34,42,72.47,42,72.68Z"/><path d="M37.05,61.45l.56-.25a2.94,2.94,0,0,0-.37-.55,4.62,4.62,0,0,1-.11-5.88,2.91,2.91,0,0,1,.39-.25c0,.18.06.4,0,.53-1,1.66-.45,3.31,0,5,.06.22.35.39.5.6s.31.48.46.72a3,3,0,0,0,.33.58c.81.82.83,1.21.2,2.21a3.37,3.37,0,0,1-2.37,1.69A2.92,2.92,0,0,1,34.06,64a11.9,11.9,0,0,1-.24-2c0-.13.15-.26.22-.39.12.11.29.19.34.33.24.65.45,1.32.68,2a1.19,1.19,0,0,0,1.56.89,4.5,4.5,0,0,0,1.76-1c.64-.67.29-1.4-.64-1.6a4.5,4.5,0,0,1-.94-.31c-.15-.07-.25-.27-.38-.41l.55-.23Z"/><path d="M60.7,45.07a28.22,28.22,0,0,1-1.17,2.84,18.22,18.22,0,0,1-1.74,2.55c-.18.22-.61.23-.93.34a3.1,3.1,0,0,1,.2-1.08c.63-1,1.33-2,2-3a.94.94,0,0,0,.18-.36c.07-.58.13-1.17.19-1.75a10.3,10.3,0,0,0-1.15,1.5,9.33,9.33,0,0,0-.38,1.45,2.57,2.57,0,0,1-.52.64c-.1-.26-.36-.57-.29-.78.36-1.1.78-2.18,1.23-3.25a6.12,6.12,0,0,1,.83-1.36,1,1,0,0,1,.73-.39c.17,0,.37.41.42.66.13.62.18,1.26.26,1.89Z"/><path d="M36.91,33.43c.82,0,1.13.3.94,1A6.24,6.24,0,0,1,34.6,38.6a13.76,13.76,0,0,1-2.73.85c-.18,0-.56,0-.59-.13a.9.9,0,0,1,.08-.72c1-1.26,2-2.53,3.18-3.72a10.78,10.78,0,0,1,1.92-1.38A1.21,1.21,0,0,1,36.91,33.43Zm.52.83c-.3,0-.57-.08-.76,0a9.49,9.49,0,0,0-3.15,3.09c0,.06,0,.18,0,.27.46,0,.81.61,1.36.15a9.19,9.19,0,0,0,2.39-3A2.72,2.72,0,0,0,37.43,34.26Z"/><path d="M51.79,70.32,51.07,70a2.28,2.28,0,0,1,.59-.4,5.65,5.65,0,0,0,2.75-2.08c.76-.91,1.35-1.95,2-2.92a2.56,2.56,0,0,1,.64-.46A2.84,2.84,0,0,1,57,65c-.3.78-1.1,1.41-.66,2.41,0,.07-.42.5-.66.52-1.07.07-1.44,1-2.11,1.58a.49.49,0,0,0,0,.47c.71.4.22.61-.13.81-.83.48-1.68.93-2.5,1.42-.22.13-.37.38-.58.52a1.88,1.88,0,0,1-.75.34c-.1,0-.38-.28-.36-.38a1.18,1.18,0,0,1,.38-.71c.7-.5,1.46-.94,2.19-1.4l.58-.36h-.66Z"/><path d="M46.43,46.29a1.25,1.25,0,0,1-.13.33,1.1,1.1,0,0,1-.44-.11,18,18,0,0,0-1.64-.83,1.2,1.2,0,0,0-1.39.55c-.79,1-1.53,2-2.33,3a1.61,1.61,0,0,1-.86.54.88.88,0,0,1-.77-.29,1,1,0,0,1,.13-.81c.58-.93,1.21-1.84,1.81-2.75.27-.4.52-.77,1.12-.62a.83.83,0,0,0,.63-.22,1.87,1.87,0,0,1,2.31-.14,5.51,5.51,0,0,1,1,.61A4,4,0,0,1,46.43,46.29Z"/><path d="M45.8,57.16a6.07,6.07,0,0,1-3.41,3.73A1.75,1.75,0,0,1,41,60.75c-.47-.32,0-.75.17-1.13.49-.91.89-1.87,1.44-2.74A3.67,3.67,0,0,1,44,55.54C45.1,55,45.76,55.57,45.8,57.16Zm-1-.76c-.36.16-.6.2-.71.33-.75,1-1.47,2-2.2,3.05a.29.29,0,0,0,0,.26.5.5,0,0,0,.36,0,4.16,4.16,0,0,0,.86-.68c.62-.72,1.22-1.46,1.77-2.23C45,57,44.84,56.71,44.79,56.4Z"/><path d="M28.79,38.63c0-.33-.13-.56-.05-.7.62-1.1,1.25-2.2,1.93-3.27.18-.28.6-.39.87-.64.89-.83,1.7-1.76,2.65-2.51,1.23-1,2.55-1.81,3.86-2.66.21-.13.59,0,.88,0a3.51,3.51,0,0,1-.56.7c-1.07.83-2.15,1.62-3.22,2.44a10.09,10.09,0,0,0-1.23,1c-.63.62-1.21,1.28-1.81,1.93s-1.12,1.19-1.66,1.8-.76,1-1.15,1.47A5.18,5.18,0,0,1,28.79,38.63Z"/><path d="M25.22,53c.34-.7.65-1.41,1-2.08a5.13,5.13,0,0,0,.89-2A13.65,13.65,0,0,1,28.51,45c.33-.66,1.13-1.08,1.74-1.59.1-.07.31,0,.46,0,0,.17,0,.38-.12.51a8.82,8.82,0,0,0-1.28,1.63,11.5,11.5,0,0,0-1.13,3.57,5.9,5.9,0,0,1-1,2.45,3.83,3.83,0,0,0-.6,1.72c0,.59-.16.69-.63.72s-.64-.26-.59-.7c0-.06,0-.13,0-.2Z"/><path d="M54.88,43.57c-.28,1.29-.56,2.59-.85,3.89a1,1,0,0,1-.21.44,7,7,0,0,1-.76.55,2.94,2.94,0,0,1-.48-.78c-.22-.94-.36-1.89-.55-2.83,0-.2-.17-.49-.32-.55s-.8,0-.58-.51A3.17,3.17,0,0,1,52,42.3c.43-.28.73.22.77.73.07.9.16,1.8.26,2.7a3.14,3.14,0,0,0,.25.61,2.26,2.26,0,0,0,.34-.65c.14-1.13.22-2.26.36-3.39a2.06,2.06,0,0,1,.33-.64,2.54,2.54,0,0,1,.47.78,4,4,0,0,1-.07,1.09Z"/><path d="M31.54,66a9.1,9.1,0,0,1-.64,1.76c-.75,1.26-2.39,1.07-3.16-.32a3.36,3.36,0,0,1,.45-3.67,1.5,1.5,0,0,1,2.16-.24A3.11,3.11,0,0,1,31.54,66Zm-.87-.17a1.74,1.74,0,0,0-1.09-1.6c-.71-.13-.59.59-.88.89a1.08,1.08,0,0,0-.19.45c-.19.74.25,1.74.8,1.86s1.1-.49,1.29-1.29Z"/><path d="M27.15,75.79c0,.31.09.63.13.95.09.71-.18,1-.81.7s-.66-.1-.61.42a1.68,1.68,0,0,1,0,.5c0,.2-.13.4-.19.6-.12-.24-.41-.59-.34-.69.76-1.14-.14-1.79-.64-2.6a10.05,10.05,0,0,1-1.15-2.52c-.11-.41.28-1,.46-1.44a.84.84,0,0,1,.44.13,11,11,0,0,1,2.4,3.75c0,.1.21.15.33.22Zm-2.08-2.07c-.14.18-.24.26-.23.3.12.3.26.59.4.88.08-.07.23-.16.22-.19C25.36,74.41,25.23,74.12,25.07,73.72Z"/><path d="M25.55,45.56c-.15-.29-.53-.69-.44-.89.64-1.55,1.13-3.2,2.42-4.39.28-.26.52-.48.94-.14s.78.58.55,1.13a13,13,0,0,1-1.15,2.3,12.58,12.58,0,0,1-1.74,1.76C26,45.42,25.89,45.43,25.55,45.56Zm.95-1.77c.11-.14.18-.2.23-.28.38-.56.76-1.11,1.11-1.69.07-.11,0-.32,0-.49-.13.08-.31.14-.37.25-.35.63-.67,1.28-1,1.92C26.44,43.56,26.48,43.65,26.5,43.79Z"/><path d="M47.3,35l-.88.92a3.64,3.64,0,0,0-.45-.43.8.8,0,0,0-.51-.17,37.18,37.18,0,0,0-3.79.87,2.12,2.12,0,0,0-1.53,1.45c0,.2-.57.42-.83.38s-.52-.57-.45-.72a3.39,3.39,0,0,1,1-1.41,12.35,12.35,0,0,1,6.31-1.48C46.5,34.4,46.82,34.73,47.3,35Z"/><path d="M69.29,53.7c-.12-.06-.26-.1-.27-.14a1,1,0,0,1,.08-.47c.59-1.11,1.2-2.2,1.78-3.32a1.48,1.48,0,0,0,.05-1.61c-.32-.58,0-1.52.08-2.29a7.07,7.07,0,0,1,.5-1.58c0-.12.32-.16.48-.24.07.2.26.47.19.59a3.28,3.28,0,0,0,.09,2.69,2.64,2.64,0,0,1-.16,1.75c-.63,1.38-1.4,2.7-2.15,4C69.82,53.35,69.52,53.5,69.29,53.7Z"/><path d="M53.23,60.53a5.68,5.68,0,0,1-.23.53,12.54,12.54,0,0,1-2.77,3.34,1.51,1.51,0,0,1-.35.2c-.34.18-.76.35-.92-.11a1,1,0,0,1,.28-.93,1.48,1.48,0,0,0,.7-1,4.69,4.69,0,0,1,2.25-2.69C52.79,59.51,53.24,59.81,53.23,60.53Z"/><path d="M43.23,29.24c.73.15.89.4.55,1a5.14,5.14,0,0,1-.71,1c-.48.53-1.13.94-1,1.84,0,.15-.35.53-.56.55a1.25,1.25,0,0,1-.86-.34c-.09-.07,0-.51.18-.69.35-.44.78-.82,1.16-1.24a1.25,1.25,0,0,0,.16-.41,1.07,1.07,0,0,0-.44,0,12.91,12.91,0,0,1-1.27.56c-.22.06-.51-.1-.76-.16.06-.26,0-.69.21-.76C41,30.11,42.12,29.69,43.23,29.24Z"/><path d="M54.3,72.58a3.05,3.05,0,0,1-.35.7c-.88.9-1.75,1.81-2.7,2.64a1.22,1.22,0,0,1-1,0c-.46-.2-.27-.59-.07-.93.39-.72.75-1.46,1.18-2.17.09-.16.38-.21.58-.31a2.91,2.91,0,0,1,.15.58,2.45,2.45,0,0,1-.06.6,5.35,5.35,0,0,0,.48-.47c.28-.33.51-.71.82-1a.9.9,0,0,1,.62-.13,2.43,2.43,0,0,1,.58.18Z"/><path d="M65.39,38.89c-.13,1-.14,1.78-.93,2.2-.25.13-.75.19-.91,0A1.88,1.88,0,0,1,63,40c0-.35.3-.36.53-.07.45.55.64.29.74-.23.23-1.29,0-1.78-1.15-2.35a1.33,1.33,0,0,1-.17-2c.13-.09.62.08.62.1-.11,1,.92,1.36,1.26,2.1C65.05,38,65.24,38.53,65.39,38.89Z"/><path d="M52.44,31.42c1,.32,2.12.59,3.16,1,.58.22.55.68,0,1A1.39,1.39,0,0,1,53.76,33a1.33,1.33,0,0,0-1.06-.48c-1.08.13-2.15.41-3.22.61a6.78,6.78,0,0,1-.78,0c.16-.26.27-.67.5-.75C50.21,32,51.27,31.76,52.44,31.42Z"/><path d="M49.34,50.88c-.6.92-1.14,1.9-1.82,2.76-.35.43-1,.1-.93-.49a3.43,3.43,0,0,1,.33-1c.35-.88,1-1.64.82-2.73,0-.32.64-.74,1-1.11.11.16.31.32.32.49,0,.66,0,1.32,0,2Z"/><path d="M20.2,73.44a2.42,2.42,0,0,1,.35.44c.83,1.62,1.64,3.25,2.48,4.86.11.22.43.33.57.54a5.36,5.36,0,0,1,.37.92c-.35-.06-.89,0-1-.19-.83-1.15-1.6-2.36-2.32-3.59a7.93,7.93,0,0,1-.77-1.94,2.8,2.8,0,0,1,.14-1Z"/><path d="M28.54,53.59c.42-1,.78-2.09,1.29-3.08.14-.26.71-.28,1.09-.41a5.13,5.13,0,0,1,0,1c-.16.76-.36,1.52-.58,2.27a2.94,2.94,0,0,1-.48,1,3.31,3.31,0,0,1-.73.52c-.14-.28-.28-.56-.4-.85a.61.61,0,0,1,0-.3Z"/><path d="M26.9,85.76c-.84-.21-1.85-.42-2.83-.71a1.82,1.82,0,0,1-.79-.57.56.56,0,0,1,0-.53.57.57,0,0,1,.5-.14,9.54,9.54,0,0,0,5.38.65c.21,0,.46.16.69.25-.18.17-.34.43-.55.49C28.59,85.41,27.84,85.55,26.9,85.76Z"/><path d="M61.88,62.51a4.57,4.57,0,0,1-.42.9c-.54.69-1.14,1.34-1.68,2-.2.25-.24.62-.43.87-.57.76-1.17,1.5-1.79,2.22-.1.12-.34.12-.51.17a1.48,1.48,0,0,1,0-.55,2.12,2.12,0,0,1,.43-.78,23.45,23.45,0,0,0,3.4-4.7c.07-.11.17-.28.26-.29A4.33,4.33,0,0,1,61.88,62.51Z"/><path d="M19.42,59.78c.43,0,.74,0,.79.61.16,1.74,1.22,2.24,2.73,1.35.13-.08.52,0,.53,0,.06.23.12.59,0,.72a2.82,2.82,0,0,1-3.65-.27,2.11,2.11,0,0,1-.36-2.49Z"/><path d="M25.26,81.21c.09-.13.27-.38.44-.64a5.49,5.49,0,0,1,.56.63,3.54,3.54,0,0,1,.25.64,1.31,1.31,0,0,0,1.66.86c.19-.06.54-.1.59,0s.14.59,0,.65c-.47.29-1,.73-1.51.7C26.48,84,25.3,82.27,25.26,81.21Z"/><path d="M16.72,70.31c.19-.56.38-1.18.62-1.79.06-.12.32-.16.49-.24.05.17.2.37.15.51a4.18,4.18,0,0,0,.53,3.44c.13.25,0,.64,0,1a4,4,0,0,1-.84-.67,5.8,5.8,0,0,1-.58-1.17C17,71.06,16.87,70.74,16.72,70.31Z"/><path d="M33.54,43.08a18.23,18.23,0,0,1-1.08,2.3A10.58,10.58,0,0,1,31,47a1.35,1.35,0,0,1-.44.18c0-.19-.05-.41,0-.55.45-.73,1-1.43,1.39-2.18A15,15,0,0,0,32.58,43a4,4,0,0,1,.38-.56Z"/><path d="M60.62,52.54c-.09-.33-.2-.52-.16-.67.26-1,.58-1.94.84-2.92.1-.39.06-.9.64-.81s.59.49.43,1c-.29.94-.2,2-1,2.78C61.19,52.1,61,52.25,60.62,52.54Z"/><path d="M44.71,80.57l-.88-1c.28-.15.55-.32.84-.44.63-.26,1.28-.51,1.92-.75.21-.08.43-.14.64-.2,0,.28.17.73.06.81C46.51,79.53,45.67,80,44.71,80.57Z"/><path d="M28.35,44c0-.25-.1-.59,0-.74a18.89,18.89,0,0,1,1.56-1.54c.09-.08.29,0,.45,0a1.2,1.2,0,0,1-.11.35c-.47.58-1,1.15-1.43,1.73a1.37,1.37,0,0,0-.17.37Z"/><path d="M93.11,15.69a.74.74,0,0,1-.3,0c-.37-.17-.74-.36-1.1-.54a5.42,5.42,0,0,1,.64-1,4,4,0,0,1,.86-.5,6.43,6.43,0,0,0,1.93-1.47A4.12,4.12,0,0,1,97.39,11a5.3,5.3,0,0,1,2.44.09c.53.14,1,.7,1.37,1.11.07.06,0,.4-.15.52a.61.61,0,0,1-.51.11c-.34-.11-.66-.31-1-.44-.1,0-.25,0-.37,0,.08.07.19.13.23.22a6.06,6.06,0,0,1,.16.61,2.65,2.65,0,0,1-.54.09c-.34,0-.66-.1-1-.14s-.79-.05-.7.61c.07.47-.22.69-.68.38-.85-.58-1.67-.18-2.48.08a.68.68,0,0,0-.28.59C94,15.74,94,15.74,93.11,15.69Z"/><path d="M106.4,37.11A11.68,11.68,0,0,1,105.26,39c-.92,1.06-2,2-3,3-.3.29-.55.68-1.07.19s-.27-.68,0-1.15c.69-1.28,1.28-2.62,1.85-4A3.34,3.34,0,0,1,105,35.27C105.67,35,106.39,35.74,106.4,37.11Zm-.69-.1c-.22-.46,0-1.13-.75-.82a1.61,1.61,0,0,0-.72.74,6.78,6.78,0,0,0-.44,1.22c-.14.48-.27,1-.41,1.46a7,7,0,0,0,1.12-.87A19,19,0,0,0,105.71,37Z"/><path d="M103.3,29.43A8.73,8.73,0,0,1,103,31c-.26.6-.81.64-1.1.05a24.05,24.05,0,0,1-1.13-3c0-.18.23-.47.35-.71.25.2.6.35.72.61a5.6,5.6,0,0,1,.2,1.18c0,.1.18.17.27.26.07-.09.22-.19.21-.27-.17-.9,0-1.87-.77-2.62-.39-.41-.76-.65-1.31-.33s-.82.09-.66-.4c.29-.94-.32-1.51-.67-2.21a16.94,16.94,0,0,1-.85-2c-.06-.18.19-.46.3-.69.23.16.56.27.65.48a25.63,25.63,0,0,1,1,2.7,2.18,2.18,0,0,0,1.27,1.53C103.05,26.35,103.08,27.92,103.3,29.43Z"/><path d="M107.53,29.52c-.23.66-.51,1.6-.9,2.48-.11.23-.57.3-.87.44a3.31,3.31,0,0,1-.12-.87c.11-.73.27-1.45.44-2.16a1.92,1.92,0,0,0-.7-2,5.14,5.14,0,0,1-.46-2.62.44.44,0,0,1,.41-.15.66.66,0,0,1,.32.43c.08.49.07,1,.14,1.49,0,.18.15.48.25.48C107.48,27.16,107.28,28.3,107.53,29.52Z"/><path d="M99.11,47.91c-.2.55-.39,1-.56,1.48a.88.88,0,0,0,0,.28c.11,0,.25-.06.31-.14s.25-.4.4-.58a1.82,1.82,0,0,1,.4-.32l0,.47a.19.19,0,0,1,0,.1c-.79,1-1.56,2.1-2.41,3.09a.9.9,0,0,1-.91.06,1.07,1.07,0,0,1-.1-1c.47-1.07,1-2.1,1.55-3.14a1.61,1.61,0,0,1,.48-.63.84.84,0,0,1,.63,0C99,47.61,99.07,47.83,99.11,47.91Z"/><path d="M98,9.09a4.06,4.06,0,0,1-1,.47c-.78.13-1.59.14-2.37.28a1.84,1.84,0,0,0-1.62,1c-.09.18-.44.26-.69.34-.68.25-1.36.5-2.06.69-.25.06-.69,0-.78-.11-.22-.38,0-.68.43-.79s1-.29,1.44-.41,1.21,0,1.25-1c0-.2.54-.52.85-.56,1.3-.14,2.6-.19,3.9-.26C97.54,8.78,97.67,8.9,98,9.09Z"/><path d="M104.25,22.39c0,.2,0,.44,0,.59a5.26,5.26,0,0,1-.59.75c-.23-.21-.55-.37-.65-.63a20.56,20.56,0,0,1-.84-2.55c-.13-.53-.34-.82-.89-.91a1.61,1.61,0,0,1-.72-.48s.17-.42.19-.42a13,13,0,0,1,2.42.83C104.2,20.16,104.13,21.34,104.25,22.39Z"/><path d="M110.43,18a4.33,4.33,0,0,0-1.62-3.84c-.84-.78-1.81-1.42-2.69-2.16a.79.79,0,0,1-.15-.71.63.63,0,0,1,.55-.23,5.54,5.54,0,0,1,1.63,1.09,20.53,20.53,0,0,1,2.47,3.48,6.67,6.67,0,0,1,.42,2.6c0,.24-.32.51-.49.76l-.15-.79A.64.64,0,0,1,110.43,18Z"/><path d="M107.55,36.71c-.13-.36-.41-.71-.33-1,.45-1.49,1-3,1.52-4.44a.79.79,0,0,1,.4-.34c.2.16.52.39.5.56-.19,1.7-.26,3.45-1.46,4.85A2.6,2.6,0,0,1,107.55,36.71Z"/><path d="M102.83,13.51c0-.76.21-.93.9-.5a10.39,10.39,0,0,1,2,1.66,1.47,1.47,0,0,1,.23,1.12.89.89,0,0,1-.68.53C104.45,16.33,102.82,14.4,102.83,13.51Z"/><path d="M111.88,21.68c-.25,1.73-.43,3.29-.71,4.83,0,.24-.54.39-.83.59-.09-.26-.31-.53-.27-.77q.3-2.32.72-4.65c0-.26.34-.47.52-.71Z"/><path d="M109.37,20.4c-.06.77-.06,1.5-.87,1.92-.47.24-.87.2-1.09-.29A4.64,4.64,0,0,1,107,20.6c0-.22.34-.47.53-.71.13.18.27.35.39.54s.21.37.32.56c.09-.19.28-.39.27-.58a2,2,0,0,0-.24-1.09c-.25-.35-.35-.64,0-.8a.86.86,0,0,1,.79.33A7.87,7.87,0,0,1,109.37,20.4Z"/><path d="M102.44,43.24c1,0,1.18.2.89.88-.44,1-.92,2.07-1.44,3.07a.66.66,0,0,1-.65.17.94.94,0,0,1-.37-.7,3.47,3.47,0,0,1,.35-.92c.24-.66.44-1.33.72-2A1.91,1.91,0,0,1,102.44,43.24Z"/><path d="M91.54,65.25c-.24-.14-.49-.2-.53-.33a.6.6,0,0,1,.13-.54,5.9,5.9,0,0,0,1.75-2.52c.14-.25.7-.53.92-.43.52.22.37.65.08,1.07-.48.69-.87,1.46-1.38,2.14A3.49,3.49,0,0,1,91.54,65.25Z"/><path d="M100,9.77h-.1c-.54,0-1.25,0-1.2-.65s.76-.36,1.24-.39c1.73-.11,2.83,1.15,4.17,1.87.1.06.09.34.12.52a1.53,1.53,0,0,1-.43,0c-.88-.38-1.73-.8-2.62-1.15A5.63,5.63,0,0,0,100,9.72Z"/><path d="M106.07,41.57c0,1-.17,1.58-.94,1.82a.64.64,0,0,1-.53,0,.51.51,0,0,1,0-.52,2.55,2.55,0,0,0,.3-2.46c0-.2.18-.47.28-.7.2.16.5.28.57.49A10.18,10.18,0,0,1,106.07,41.57Z"/><path d="M100.36,17.35c-.16-.26-.39-.46-.36-.61.15-.7-.3-.84-.81-1a1,1,0,0,1-.51-.29.92.92,0,0,1-.11-.63c0-.09.38-.21.49-.15.72.39,1.42.81,2.09,1.26a.66.66,0,0,1,.1.62A5.18,5.18,0,0,1,100.36,17.35Z"/><path d="M88.8,11.75c.2.1.42.14.45.24a.46.46,0,0,1-.18.4c-.87.49-1.75,1-2.65,1.39-.13.06-.54-.17-.59-.34s0-.7.15-.76C86.91,12.32,87.87,12.05,88.8,11.75Z"/><path d="M73.07,14.92a4.45,4.45,0,0,0,3.1-.33c1.49-.79,4.21.25,5,1.72a.92.92,0,0,1,.09.49c0,.38-.13.75-.19,1.13a6.91,6.91,0,0,1-.67-.89,3.62,3.62,0,0,0-2.56-1.51.62.62,0,0,0-.25.11c0,.07.09.17.16.21s.31.1.47.17.42.18.63.28c-.2.23-.37.6-.62.66-1.47.32-3,.52-4.43.88-.62.16-1,.29-1-.55,0-.07-.33-.13-.51-.18s-.09.11-.15.12c-.34.09-.68.18-1,.25,0,0-.12-.21-.11-.22l.87-.56c.16-.09.31-.2.46-.3-.2,0-.43-.15-.6-.09-.79.25-1.55.58-2.35.81a.86.86,0,0,1-.77-.19c-.2-.38,0-.66.45-.79C70.52,15.72,72,15.25,73.07,14.92Z"/><path d="M84.3,41.9a2.3,2.3,0,0,1,1.07-2.45c.18-.15.21-.52.27-.8.48-2.13.93-4.28,1.45-6.4,0-.21.48-.43.74-.44a.78.78,0,0,1,.48.58c-.21,2.1.1,4.32-1.2,6.21-.26.37-.61.67-.88,1a2.13,2.13,0,0,0-.4.83c-.19,1.05-.3,2.11-.5,3.15,0,.19-.35.49-.49.47a.78.78,0,0,1-.52-.51A12.94,12.94,0,0,1,84.3,41.9Z"/><path d="M79,26.19l-1.32-.81a11.05,11.05,0,0,1-1.09-.68.68.68,0,0,1-.24-.58c.06-.23.29-.41.45-.61l.47.38c.38.31.75.65,1.16.93s1-.05,1.34-.33a.73.73,0,0,0-.19-.54,12.54,12.54,0,0,0-1.93-1.22c-.51-.25-.7-.62-.43-1a1.05,1.05,0,0,1,1-.12,28.68,28.68,0,0,1,2.74,2.17c.17.15.25.7.14.79C80.42,25.14,79.7,25.64,79,26.19Z"/><path d="M86,47.53c-.29.81-.61,1.76-1,2.68a17.91,17.91,0,0,1-1,2c-.1.19-.37.29-.56.42,0-.24-.16-.51-.09-.71.35-1,.78-2.05,1.12-3.1a7.1,7.1,0,0,0,.26-1.66c0-.37-.25-.83.43-.88s.66.42.75.84C86,47.18,86,47.28,86,47.53Z"/><path d="M69.46,73.82l-.41-.16c.08-.2.11-.46.26-.59.71-.59,1.45-1.15,2.17-1.73.52-.42,1-.88,1.53-1.28a2,2,0,0,1,.71-.21,2.94,2.94,0,0,1,0,.83,1.17,1.17,0,0,1-.43.54c-1.08.81-2.17,1.62-3.27,2.41A2.09,2.09,0,0,1,69.46,73.82Z"/><path d="M76.41,18.21c.86.19,2,.41,3.06.68.15,0,.26.24.38.37-.17.07-.33.21-.5.2-1.29,0-2.59-.1-3.88-.11-.43,0-.87.16-1.29.14a2.68,2.68,0,0,1-.86-.33c.24-.23.45-.59.73-.66A22,22,0,0,1,76.41,18.21Z"/><path d="M79.23,64.75a15,15,0,0,1-.73,1.32c-.61.86-1.24,1.71-1.91,2.52-.14.16-.52.13-.79.19,0-.32-.14-.73,0-.94.78-1.12,1.61-2.2,2.45-3.27a1.21,1.21,0,0,1,.65-.32C79,64.24,79.1,64.55,79.23,64.75Z"/><path d="M82.84,56.24c-.67,1-1.29,1.95-1.94,2.88a.47.47,0,0,1-.43,0c-.11-.19-.24-.47-.16-.63A25.09,25.09,0,0,1,81.57,56c.11-.19.49-.28.75-.29S82.61,56,82.84,56.24Z"/><path d="M63.27,16.79a2,2,0,0,1,.26.72,1.16,1.16,0,0,1-.31.75,4.54,4.54,0,0,1-1,.55,4,4,0,0,1-.7.19c0-.25-.2-.61-.1-.73a18.13,18.13,0,0,1,1.43-1.34Z"/><path d="M76,21c-.09.07-.25.25-.31.22-.73-.33-1.08,1-1.84.4a.33.33,0,0,1-.08-.27,4.15,4.15,0,0,1,1.11-1c.25-.11.69.21,1,.35C76,20.75,76,20.85,76,21Z"/><path d="M124.39,17a1.34,1.34,0,0,1,0,.4c-.13.38-.3.76-.45,1.15-.09-.36-.19-.72-.26-1.08s-.08-.74-.17-1.09a2.36,2.36,0,0,0-3.38-1.59c-.19.09-.56.14-.67,0a2.2,2.2,0,0,1-.61-1c0-.1.44-.41.73-.51a5.25,5.25,0,0,1,.89,0,4.09,4.09,0,0,0,.65-.21c-.2-.08-.39-.2-.59-.26a7.15,7.15,0,0,1-1.32-.37c-.19-.09-.24-.46-.35-.7.24-.08.5-.26.69-.21,1.06.3,2.12.59,3.14,1a1.86,1.86,0,0,1,1.25,2.12,2.25,2.25,0,0,0,.12.67c.14.54.3,1.08.45,1.62Zm-2.73-3.85-.11.26c.4.15.8.31,1.2.45,0,0,.07-.09.1-.14-.27-.16-.54-.33-.82-.48A1.52,1.52,0,0,0,121.66,13.16Z"/><path d="M119.7,20.73a11.17,11.17,0,0,1,.58,1.08.64.64,0,0,1,0,.59c-.09.11-.38.08-.58.07s-.17-.1-.24-.17c-.75-.64-.74-4,0-4.63a.91.91,0,0,1,1.28,0c.54.5,1,1.06,1.51,1.6.25.27.46.57.73.83a1.87,1.87,0,0,1,.37,2.53,7.31,7.31,0,0,1-.41.66.51.51,0,0,1-.3.17s-.13-.13-.16-.21c-.19-.68-.4-1.37-.55-2.06s-.68-.35-1-.46-.47-.18-.7-.27c.14-.25.28-.51.44-.75a2.6,2.6,0,0,1,.36-.38,2.33,2.33,0,0,0-.61-.41c-.09,0-.35.18-.39.32C119.87,19.65,119.82,20.09,119.7,20.73Z"/><path d="M127.72,13.88a4.6,4.6,0,0,1-2.83-1.77,1.16,1.16,0,0,1,.06-1c.28-.42.57-.09.88.15a14.45,14.45,0,0,0,1.4.75,2.91,2.91,0,0,1,.91.75,1.22,1.22,0,0,1,.12.89C128.24,13.73,127.89,13.8,127.72,13.88Z"/><path d="M116,8c.55,0,1.18,0,1.81,0a1.27,1.27,0,0,1,.71.25.69.69,0,0,1,.18.61c0,.13-.36.22-.57.24-1.27.12-2.54.24-3.82.31-.33,0-.91-.09-1-.28-.19-.52.27-.76.72-.85C114.62,8.17,115.24,8.11,116,8Z"/><path d="M132.35,22.57c-.47,1.32-.87,2.53-1.34,3.72-.1.24-.48.36-.72.54a3.24,3.24,0,0,1,0-.88,26,26,0,0,0,.74-2.68,6.81,6.81,0,0,0-.26-1.8c0-.2,0-.5.08-.6a.64.64,0,0,1,.6,0C131.78,21.38,132,22,132.35,22.57Z"/><path d="M129.92,16.9c-.09-.49-.22-1-.26-1.46a2.8,2.8,0,0,1,.22-.81,2.18,2.18,0,0,1,.8.29,2.75,2.75,0,0,1,.52,3.46.71.71,0,0,1-.49.36.81.81,0,0,1-.6-.37,9.63,9.63,0,0,1-.35-1.43Z"/><path d="M126.44,39.1a3.54,3.54,0,0,1-.2.55A9.62,9.62,0,0,1,122.92,43a1.72,1.72,0,0,1-.46.11c0-.21,0-.48.1-.62.55-.66,1.17-1.27,1.72-1.93s.77-1.1,1.16-1.64c.17-.23.36-.43.55-.65C126.15,38.58,126.3,38.86,126.44,39.1Z"/><path d="M128.78,20.1l-.51.63c-.17-.2-.51-.42-.5-.6.1-1.29-.82-2.1-1.36-3.08a1.18,1.18,0,0,1,.26-1.53c.11-.12.4-.06.61-.08,0,.2.07.43,0,.57-.41.63-.43,1.07.44,1.24.68.14.83.71.89,1.28a14.79,14.79,0,0,1,0,1.49Z"/><path d="M122,40.84c-.53,0-.8-.47-.53-1,.49-1,1-1.93,1.61-2.86.12-.18.51-.19.78-.29.06.27.24.57.16.79a15.39,15.39,0,0,1-.68,1.42,2.66,2.66,0,0,0-.31,1C123.06,40.69,122.49,40.7,122,40.84Z"/><path d="M130.55,31.51a6.48,6.48,0,0,1-1.72,3.84,2.12,2.12,0,0,1-.78.33,4.3,4.3,0,0,1,.19-1c.42-.93.9-1.84,1.31-2.77.1-.23,0-.54.08-.8a3.83,3.83,0,0,1,.3-.61,4.54,4.54,0,0,1,.58.58A.69.69,0,0,1,130.55,31.51Z"/><path d="M122.2,7.46a1.6,1.6,0,0,1,2,.92,1.19,1.19,0,0,1-.2,1.1c-.39.34-.67-.11-.76-.45-.16-.56-.58-.47-1-.49A7.91,7.91,0,0,1,121,8.48c-.19,0-.32-.35-.47-.54.17-.13.33-.32.52-.36A7.61,7.61,0,0,1,122.2,7.46Z"/><path d="M126.21,30.63c.48-.83.91-1.63,1.4-2.4,0-.05.57.05.64.2a2.09,2.09,0,0,1-.26,2,2.92,2.92,0,0,1-.57.7,3.58,3.58,0,0,1-.65.41Z"/><path d="M130.08,12.43l-.44.58a3.93,3.93,0,0,0-.34-.68,3.74,3.74,0,0,0-.71-.77c-.29-.21-.7-.27-1-.5s-.19-.5-.28-.76a2,2,0,0,1,.7-.15A2.71,2.71,0,0,1,130.08,12.43Z"/><path d="M128,24.64c-.18.56-.33,1.13-.56,1.67-.08.18-.36.26-.55.39-.12-.25-.35-.51-.33-.75a12,12,0,0,1,.36-2c.07-.22.36-.38.55-.57a5,5,0,0,1,.43.69,1.21,1.21,0,0,1,0,.5Z"/><path d="M128.54,24.17a12.45,12.45,0,0,1-.17-1.35,2,2,0,0,1,.25-.67c.25.13.7.26.7.4,0,.91-.1,1.82-.2,2.73,0,.1-.26.25-.38.23a.49.49,0,0,1-.28-.35,7.85,7.85,0,0,1,0-1Z"/><path d="M143.44,42.24c-.25.1-.5.18-.75.3-1.26.58-2.51,1.18-3.79,1.73-.21.09-.52-.06-.78-.1.1-.29.13-.75.33-.84,1.37-.6,2.77-1.14,4.17-1.67.15,0,.37.09.56.15Z"/></g></g></svg>