<svg xmlns="http://www.w3.org/2000/svg" xmlns:xlink="http://www.w3.org/1999/xlink" viewBox="0 0 516.25 408.06"><defs><style>.cls-1{fill:none;clip-rule:evenodd;}.cls-2{fill:#fcd7d7;}.cls-2,.cls-4,.cls-5,.cls-6,.cls-8,.cls-9{fill-rule:evenodd;}.cls-3{clip-path:url(#clip-path);}.cls-4{fill:#f2bebe;}.cls-5{fill:#ea8787;}.cls-6{fill:#ff6363;}.cls-7{clip-path:url(#clip-path-2);}.cls-8{fill:#d71212;}.cls-9{fill:#fdb5b5;}</style><clipPath id="clip-path"><path class="cls-1" d="M294.1,305.81c-.56,2.43-18.16,2.94-21.28,2.94-50.85,0-109.82-20-119.48-76.62-12.7-74.48,159.24-24.81,138.15-169C279-22.32,165.72-5.66,112.27,24.18,96.46,33,82.71,49.41,70,61.88c-84.08,82.16-98.29,208-10,294.3,26.57,26,56.21,44.68,93.34,49.86,45.74,6.38,115.57-2.32,153.09-26.76,20.29-13.21,61.92-61.81,33.6-80.26-6.67-4.35-13.56-7-22.4-4.86-14.61,3.57-21,17.78-33.6,21.89"/></clipPath><clipPath id="clip-path-2"><path class="cls-1" d="M429.33,304.41s-16.61,19.33-34.05,30c-33.54,20.48-69.47,38.61-95.3-5.56-5.3-9.06-18.8-37.62-12.8-49.34,7.32-14.31,96.43-5.9,116.64-30.58,14.22-17.37,43.11-95.3,75.39-84.78,15.58,5.07-5.68,49.32-8.54,55.59-1.29,2.84-4.26,8.34-4.26,8.34a23.8,23.8,0,0,1,2.84-4.17c5.84-5.7,24.1-23,34.14-18.07,7.91,3.87,10.4,42.83,9.25,50.73-3.23,22.08-38,59.51-64,49.35-2.46-1-19.3-1.49-19.3-1.49Z"/></clipPath></defs><g id="Warstwa_2" data-name="Warstwa 2"><g id="Warstwa_1-2" data-name="Warstwa 1"><path class="cls-2" d="M294.1,305.81c-.56,2.43-18.16,2.94-21.28,2.94-50.85,0-109.82-20-119.48-76.62-12.7-74.48,159.24-24.81,138.15-169C279-22.32,165.72-5.66,112.27,24.18,96.46,33,82.71,49.41,70,61.88c-84.08,82.16-98.29,208-10,294.3,26.57,26,56.21,44.68,93.34,49.86,45.74,6.38,115.57-2.32,153.09-26.76,20.29-13.21,61.92-61.81,33.6-80.26-6.67-4.35-13.56-7-22.4-4.86-14.61,3.57-21,17.78-33.6,21.89"/><g class="cls-3"><path class="cls-4" d="M309.75,267.57c-.57,0-.13,11.19-.2,11.92a52.9,52.9,0,0,1-13.47,30.71c-18.69,20.87-49.73,22.68-76.32,21.31-62.46-3.21-124.62-69-103.27-131.61,18.84-55.2,106.61-71.64,150.09-34.47,43.91,37.55-51.85,67.08,1.92,105.29,6.15,4.37,16.3,12.7,24.37,10.65"/><polygon class="cls-5" points="136.42 51.67 136.43 51.67 136.68 52.38 136.41 53.16 136.4 53.16 136.35 53.23 136.29 53.3 136.24 53.37 136.19 53.44 136.13 53.51 136.08 53.59 136.03 53.66 135.98 53.73 135.93 53.8 135.88 53.87 135.83 53.95 135.78 54.02 135.73 54.09 135.68 54.17 135.64 54.24 135.59 54.32 135.54 54.39 135.5 54.47 135.45 54.54 135.41 54.62 135.36 54.69 135.32 54.77 135.27 54.85 135.23 54.92 135.19 55 135.14 55.08 135.1 55.15 135.06 55.23 135.02 55.31 134.98 55.39 134.94 55.47 134.9 55.55 134.86 55.63 134.82 55.71 134.78 55.79 134.74 55.87 134.7 55.95 134.67 56.03 134.63 56.11 134.59 56.19 134.56 56.27 134.52 56.35 134.49 56.44 134.45 56.52 134.42 56.6 134.38 56.68 134.35 56.77 134.32 56.85 134.28 56.93 134.25 57.02 134.22 57.1 134.19 57.19 134.16 57.27 134.13 57.36 134.1 57.44 134.07 57.53 134.04 57.62 134.01 57.7 133.98 57.79 133.95 57.88 133.93 57.96 133.9 58.05 133.87 58.14 133.85 58.23 133.82 58.31 133.79 58.4 133.77 58.49 133.74 58.58 133.72 58.67 133.7 58.76 133.67 58.85 133.65 58.94 133.63 59.03 133.6 59.12 133.58 59.21 133.56 59.31 133.54 59.4 133.52 59.49 133.5 59.58 133.48 59.67 133.46 59.77 133.44 59.86 133.42 59.95 133.4 60.05 133.38 60.14 133.37 60.24 133.35 60.33 133.33 60.42 133.31 60.52 133.3 60.62 133.28 60.71 133.27 60.81 133.25 60.9 133.24 61 133.22 61.1 133.21 61.19 133.21 61.2 133.19 61.29 133.18 61.39 133.16 61.48 133.15 61.58 133.13 61.68 133.12 61.78 133.1 61.88 133.09 61.97 133.08 62.07 133.06 62.17 133.05 62.27 133.04 62.37 133.03 62.47 133.01 62.57 133 62.67 132.99 62.77 132.98 62.87 132.97 62.98 132.96 63.08 132.95 63.18 132.94 63.28 132.93 63.38 132.93 63.49 132.92 63.59 132.91 63.69 132.9 63.8 132.9 63.9 132.89 64.01 132.88 64.11 132.88 64.22 132.87 64.32 132.87 64.43 132.86 64.53 132.86 64.64 132.85 64.74 132.85 64.85 132.85 64.96 132.84 65.06 132.84 65.17 132.84 65.28 132.84 65.39 132.84 65.5 132.83 65.6 132.83 65.71 132.83 65.82 132.83 65.93 132.83 66.04 132.83 66.15 132.83 66.26 132.83 66.37 132.84 66.48 132.84 66.59 132.84 66.7 132.84 66.81 132.84 66.92 132.85 67.04 132.85 67.15 132.86 67.26 132.86 67.37 132.87 67.49 132.87 67.6 132.88 67.71 132.88 67.83 132.89 67.94 132.89 68.06 132.9 68.17 132.91 68.28 132.91 68.4 132.92 68.51 132.93 68.63 132.94 68.75 132.95 68.86 132.96 68.98 132.97 69.09 132.97 69.21 132.99 69.33 133 69.44 133 69.52 133 69.56 133.01 69.68 133.02 69.8 133.03 69.91 133.04 70.03 133.05 70.15 133.06 70.27 133.07 70.39 133.08 70.51 133.09 70.63 133.1 70.75 133.11 70.87 133.12 70.99 133.13 71.11 133.14 71.23 133.15 71.35 133.17 71.47 133.18 71.59 133.19 71.71 133.21 71.83 133.22 71.96 133.23 72.08 133.25 72.2 133.26 72.32 133.28 72.45 133.29 72.57 133.31 72.69 133.33 72.82 133.34 72.94 133.36 73.07 133.38 73.19 133.39 73.31 133.41 73.44 133.43 73.56 133.45 73.69 133.47 73.82 133.48 73.93 133.49 73.94 133.5 74.07 133.52 74.19 133.53 74.32 133.55 74.45 133.56 74.58 133.58 74.7 133.6 74.83 133.62 74.96 133.63 75.09 133.65 75.21 133.67 75.34 133.69 75.47 133.71 75.6 133.73 75.73 133.75 75.86 133.77 75.99 133.79 76.12 133.81 76.25 133.83 76.38 133.85 76.51 133.87 76.64 133.9 76.77 133.92 76.9 133.94 77.03 133.96 77.17 133.99 77.3 134.01 77.43 134.03 77.56 134.06 77.69 134.08 77.83 134.11 77.96 134.13 78.09 134.15 78.18 134.16 78.22 134.18 78.36 134.2 78.49 134.22 78.63 134.25 78.76 134.27 78.89 134.29 79.03 134.32 79.17 134.34 79.3 134.36 79.44 134.39 79.57 134.41 79.71 134.44 79.84 134.47 79.98 134.49 80.12 134.52 80.25 134.54 80.39 134.57 80.53 134.6 80.66 134.62 80.8 134.65 80.94 134.68 81.08 134.71 81.21 134.74 81.35 134.76 81.49 134.79 81.63 134.82 81.77 134.85 81.91 134.88 82.05 134.91 82.19 134.94 82.32 134.97 82.46 135 82.6 135.03 82.74 135.07 82.88 135.1 83.02 135.13 83.16 135.16 83.3 135.19 83.44 135.23 83.59 135.26 83.73 135.29 83.87 135.33 84.01 135.36 84.15 135.4 84.29 135.43 84.43 135.46 84.58 135.5 84.72 135.53 84.86 135.57 85 135.6 85.15 135.64 85.29 135.68 85.43 135.71 85.58 135.75 85.72 135.79 85.86 135.82 86 135.86 86.15 135.9 86.29 135.94 86.44 135.95 86.49 135.98 86.58 136.01 86.72 136.05 86.87 136.09 87.01 136.13 87.16 136.17 87.3 136.21 87.45 136.25 87.59 136.28 87.74 136.32 87.89 136.37 88.03 136.41 88.18 136.44 88.32 136.49 88.47 136.53 88.62 136.57 88.76 136.61 88.91 136.65 89.06 136.69 89.2 136.74 89.35 136.78 89.5 136.82 89.64 136.86 89.79 136.91 89.94 136.95 90.08 136.99 90.23 137.04 90.38 137.08 90.53 137.13 90.67 137.17 90.82 137.22 90.97 137.26 91.12 137.31 91.27 137.35 91.42 137.4 91.56 137.44 91.71 137.49 91.86 137.54 92.01 137.59 92.16 137.63 92.31 137.68 92.46 137.73 92.61 137.78 92.76 137.82 92.91 137.87 93.06 137.92 93.21 137.97 93.36 138.02 93.5 138.07 93.66 138.12 93.81 138.17 93.95 138.22 94.11 138.27 94.26 138.32 94.41 138.37 94.56 138.42 94.71 138.47 94.86 138.52 95.01 138.57 95.16 138.63 95.31 138.68 95.46 138.73 95.61 138.78 95.76 138.84 95.91 138.89 96.06 138.94 96.22 139 96.37 139.05 96.52 139.1 96.67 139.16 96.82 139.16 96.83 139.21 96.97 139.26 97.13 139.32 97.28 139.37 97.43 139.43 97.58 139.48 97.73 139.53 97.89 139.59 98.04 139.65 98.19 139.7 98.34 139.76 98.5 139.81 98.65 139.87 98.8 139.93 98.95 139.98 99.11 140.04 99.26 140.09 99.41 140.15 99.57 140.21 99.72 140.27 99.87 140.32 100.03 140.38 100.18 140.44 100.33 140.5 100.48 140.56 100.64 140.62 100.79 140.68 100.94 140.74 101.1 140.8 101.25 140.85 101.41 140.91 101.56 140.97 101.71 141.04 101.86 141.1 102.02 141.16 102.17 141.22 102.33 141.28 102.48 141.34 102.63 141.4 102.79 141.46 102.94 141.53 103.09 141.59 103.25 141.65 103.4 141.71 103.56 141.78 103.71 141.84 103.86 141.9 104.02 141.97 104.17 142.03 104.33 142.09 104.48 142.16 104.63 142.22 104.79 142.35 105.09 142.48 105.4 142.61 105.71 142.74 106.02 142.87 106.33 143.01 106.64 143.14 106.94 143.27 107.25 143.41 107.56 143.54 107.87 143.68 108.17 143.82 108.48 143.96 108.79 144.09 109.1 144.23 109.41 144.37 109.71 144.51 110.02 144.66 110.33 144.8 110.64 144.94 110.94 145.09 111.25 145.23 111.56 145.37 111.86 145.52 112.17 145.67 112.48 145.81 112.78 145.96 113.09 146.11 113.4 146.26 113.7 146.41 114.01 146.56 114.31 146.71 114.62 146.86 114.92 147.01 115.23 147.16 115.53 147.32 115.84 147.47 116.14 147.63 116.44 147.78 116.75 147.94 117.05 148.09 117.36 148.25 117.66 148.41 117.96 148.57 118.26 148.73 118.56 148.88 118.86 149.04 119.17 149.21 119.47 149.37 119.77 149.53 120.07 149.54 120.09 149.69 120.37 149.85 120.67 150.01 120.97 150.17 121.27 150.34 121.56 150.5 121.86 150.66 122.16 150.83 122.46 150.99 122.76 151.16 123.05 151.32 123.35 151.49 123.65 151.66 123.94 151.82 124.24 151.99 124.53 152.16 124.82 152.33 125.12 152.5 125.41 152.67 125.7 152.84 126 153.01 126.29 153.18 126.58 153.35 126.87 153.52 127.16 153.69 127.45 153.87 127.73 154.04 128.02 154.21 128.31 154.39 128.6 154.56 128.88 154.74 129.17 154.91 129.45 155.09 129.74 155.26 130.02 155.44 130.3 155.62 130.59 155.79 130.87 155.97 131.15 156.15 131.43 156.33 131.71 156.51 131.99 156.69 132.27 156.87 132.54 157.05 132.82 157.23 133.1 157.41 133.37 157.59 133.65 157.77 133.92 157.95 134.19 158.04 134.33 158.13 134.46 158.22 134.6 158.31 134.74 158.41 134.87 158.5 135.01 158.59 135.14 158.68 135.28 158.77 135.41 158.86 135.54 158.96 135.68 159.05 135.81 159.14 135.95 159.23 136.08 159.32 136.21 159.41 136.35 159.51 136.48 159.6 136.61 159.69 136.74 159.78 136.88 159.88 137.01 159.97 137.14 160.06 137.27 160.15 137.4 160.25 137.53 160.34 137.66 160.43 137.8 160.53 137.93 160.62 138.06 160.71 138.19 160.8 138.32 160.9 138.45 160.99 138.58 161.08 138.71 161.18 138.83 161.27 138.96 161.36 139.09 161.46 139.22 161.55 139.35 161.64 139.47 161.74 139.6 161.83 139.73 161.92 139.86 162.02 139.98 162.11 140.11 162.21 140.24 162.3 140.36 162.39 140.49 162.49 140.61 162.58 140.74 162.68 140.86 162.77 140.99 162.86 141.11 162.96 141.24 163.05 141.36 163.1 141.43 163.15 141.49 163.24 141.61 163.34 141.73 163.43 141.86 163.52 141.98 163.62 142.1 163.71 142.23 163.8 142.35 163.9 142.47 163.99 142.59 164.09 142.71 164.18 142.84 164.28 142.96 164.37 143.08 164.46 143.2 164.56 143.32 164.65 143.44 164.75 143.56 164.84 143.68 164.94 143.8 165.03 143.92 165.13 144.04 165.22 144.15 165.31 144.27 165.41 144.39 165.5 144.51 165.6 144.63 165.69 144.74 165.79 144.86 165.88 144.98 165.98 145.09 166.07 145.21 166.17 145.32 166.26 145.44 166.36 145.55 166.45 145.67 166.55 145.78 166.64 145.9 166.74 146.01 166.83 146.13 166.93 146.24 167.02 146.35 167.12 146.46 167.21 146.58 167.31 146.69 167.4 146.8 167.5 146.91 167.59 147.02 167.69 147.13 167.78 147.25 167.88 147.35 167.97 147.47 168.07 147.57 168.16 147.68 168.26 147.79 168.35 147.9 168.45 148.01 168.54 148.12 168.64 148.23 168.74 148.33 168.83 148.44 168.93 148.55 169.02 148.66 169.12 148.76 169.21 148.87 169.31 148.97 169.4 149.08 169.5 149.18 169.59 149.29 169.69 149.39 169.78 149.5 169.85 149.57 169.88 149.6 169.97 149.7 170.07 149.81 170.16 149.91 170.26 150.01 170.35 150.12 170.45 150.22 170.54 150.32 170.64 150.42 170.73 150.52 170.83 150.62 170.92 150.72 171.02 150.82 171.11 150.93 171.21 151.02 171.3 151.12 171.4 151.22 171.49 151.32 171.58 151.42 171.68 151.52 171.77 151.62 171.87 151.71 171.96 151.81 172.06 151.91 172.15 152 172.25 152.1 172.34 152.19 172.44 152.29 172.53 152.38 172.62 152.48 172.72 152.57 172.81 152.66 172.91 152.76 173 152.85 173.09 152.94 173.19 153.03 173.28 153.13 173.38 153.22 173.47 153.31 173.57 153.4 173.66 153.49 173.75 153.58 173.85 153.67 173.94 153.76 174.04 153.85 174.13 153.94 174.22 154.02 174.32 154.11 174.41 154.2 174.5 154.29 174.6 154.37 174.69 154.46 174.79 154.54 174.88 154.63 174.97 154.72 175.07 154.8 175.16 154.88 175.25 154.97 175.35 155.05 175.44 155.13 175.53 155.22 175.63 155.3 175.64 155.31 175.72 155.38 175.81 155.47 175.9 155.55 175.99 155.63 176.08 155.72 176.17 155.8 176.26 155.88 176.35 155.96 176.44 156.04 176.54 156.13 176.63 156.21 176.72 156.29 176.81 156.37 176.9 156.45 176.99 156.53 177.08 156.6 177.17 156.68 177.26 156.76 177.35 156.84 177.44 156.91 177.53 156.99 177.62 157.07 177.71 157.14 177.8 157.22 177.89 157.29 177.96 157.35 177.98 157.37 178.07 157.44 178.15 157.52 178.24 157.6 178.33 157.67 178.41 157.75 178.5 157.82 178.59 157.9 178.68 157.97 178.76 158.05 178.85 158.12 178.94 158.19 179.03 158.27 179.11 158.34 179.2 158.41 179.28 158.48 179.37 158.55 179.46 158.62 179.55 158.69 179.63 158.76 179.72 158.83 179.81 158.9 179.89 158.97 179.98 159.04 180.06 159.1 180.15 159.17 180.24 159.24 180.32 159.3 180.41 159.37 180.49 159.43 180.5 159.44 180.58 159.5 180.66 159.57 180.75 159.64 180.83 159.7 180.91 159.77 181 159.84 181.08 159.9 181.17 159.97 181.25 160.03 181.33 160.09 181.42 160.16 181.5 160.22 181.58 160.28 181.67 160.34 181.75 160.41 181.83 160.47 181.92 160.53 182 160.59 182.08 160.65 182.17 160.71 182.25 160.77 182.33 160.82 182.42 160.88 182.5 160.94 182.58 161 182.66 161.05 182.75 161.11 182.83 161.17 182.91 161.22 183 161.28 183.08 161.33 183.16 161.38 183.24 161.44 183.32 161.49 183.41 161.54 183.49 161.6 183.57 161.65 183.65 161.7 183.74 161.75 183.82 161.8 183.9 161.85 183.98 161.9 184.06 161.95 184.14 162 184.22 162.05 184.31 162.09 184.39 162.14 184.47 162.19 184.55 162.23 184.63 162.28 184.71 162.33 184.79 162.37 184.87 162.41 184.96 162.46 185.03 162.5 185.12 162.54 185.2 162.59 185.28 162.63 185.36 162.67 185.44 162.71 185.52 162.75 185.6 162.79 185.68 162.83 185.76 162.87 185.79 162.89 185.84 162.91 185.92 162.96 186 163 186.07 163.03 186.15 163.07 186.23 163.11 186.31 163.15 186.39 163.19 186.47 163.23 186.54 163.27 186.62 163.3 186.7 163.34 186.78 163.38 186.86 163.41 186.94 163.45 187.01 163.48 187.09 163.51 187.17 163.55 187.25 163.58 187.32 163.61 187.4 163.65 187.48 163.68 187.56 163.71 187.63 163.74 187.71 163.77 187.79 163.8 187.87 163.83 187.94 163.86 188.02 163.89 188.1 163.91 188.18 163.94 188.25 163.97 188.33 164 188.41 164.02 188.48 164.05 188.56 164.07 188.64 164.1 188.71 164.12 188.79 164.15 188.87 164.17 188.94 164.19 189.02 164.21 189.1 164.23 189.17 164.26 189.25 164.28 189.32 164.3 189.4 164.32 189.48 164.34 189.55 164.35 189.63 164.37 189.71 164.39 189.78 164.41 189.86 164.43 189.93 164.44 190.01 164.46 190.09 164.47 190.16 164.49 190.24 164.5 190.31 164.52 190.39 164.53 190.46 164.54 190.54 164.56 190.61 164.57 190.69 164.58 190.76 164.59 190.84 164.6 190.92 164.61 190.99 164.62 191.07 164.63 191.14 164.64 191.22 164.65 191.29 164.65 191.37 164.66 191.44 164.67 191.52 164.67 191.59 164.68 191.67 164.68 191.74 164.69 191.82 164.69 191.89 164.7 191.97 164.7 192.04 164.7 192.12 164.7 192.19 164.71 192.27 164.71 192.34 164.71 192.42 164.71 192.49 164.71 192.57 164.71 192.64 164.7 192.72 164.7 192.79 164.7 192.85 164.7 192.87 164.7 192.94 164.69 193.03 164.69 193.73 164.77 194.35 165.05 194.82 165.49 195.07 166.04 195.07 166.04 195.05 166.66 194.79 167.25 194.33 167.75 193.72 168.08 193.72 168.08 193.63 168.11 193.53 168.15 193.5 168.15 193.44 168.17 193.34 168.2 193.25 168.23 193.15 168.26 193.05 168.28 192.96 168.31 192.86 168.33 192.76 168.36 192.67 168.38 192.57 168.41 192.47 168.43 192.37 168.45 192.28 168.47 192.18 168.49 192.08 168.51 191.98 168.53 191.88 168.55 191.78 168.57 191.68 168.58 191.58 168.6 191.48 168.62 191.38 168.63 191.28 168.65 191.18 168.66 191.08 168.67 190.98 168.69 190.88 168.7 190.78 168.71 190.67 168.72 190.57 168.73 190.47 168.74 190.37 168.75 190.27 168.76 190.16 168.77 190.06 168.78 189.96 168.78 189.85 168.79 189.75 168.79 189.65 168.8 189.54 168.8 189.44 168.81 189.34 168.81 189.23 168.81 189.13 168.81 189.02 168.81 188.92 168.81 188.81 168.81 188.71 168.81 188.6 168.81 188.5 168.81 188.39 168.81 188.29 168.8 188.18 168.8 188.07 168.79 187.97 168.79 187.86 168.78 187.76 168.78 187.65 168.77 187.54 168.76 187.44 168.76 187.33 168.75 187.22 168.74 187.12 168.73 187.01 168.72 186.9 168.71 186.79 168.7 186.69 168.69 186.58 168.67 186.47 168.66 186.36 168.65 186.25 168.63 186.15 168.62 186.04 168.6 185.93 168.59 185.82 168.57 185.71 168.55 185.6 168.53 185.49 168.52 185.38 168.5 185.28 168.48 185.17 168.46 185.06 168.44 184.95 168.42 184.84 168.4 184.73 168.37 184.62 168.35 184.51 168.33 184.4 168.3 184.29 168.28 184.18 168.25 184.07 168.23 183.96 168.2 183.89 168.19 183.85 168.18 183.74 168.15 183.63 168.12 183.52 168.09 183.41 168.06 183.3 168.02 183.19 167.99 183.08 167.96 182.97 167.93 182.86 167.89 182.75 167.86 182.64 167.82 182.53 167.79 182.41 167.75 182.3 167.72 182.19 167.68 182.08 167.64 181.97 167.6 181.86 167.57 181.75 167.53 181.64 167.49 181.53 167.45 181.42 167.41 181.31 167.37 181.19 167.33 181.08 167.28 180.97 167.24 180.86 167.2 180.75 167.16 180.64 167.11 180.53 167.07 180.41 167.03 180.3 166.98 180.19 166.93 180.08 166.89 179.97 166.84 179.86 166.79 179.74 166.75 179.63 166.7 179.52 166.65 179.41 166.6 179.29 166.55 179.18 166.5 179.07 166.45 178.96 166.4 178.85 166.35 178.73 166.3 178.62 166.25 178.51 166.19 178.4 166.14 178.28 166.09 178.17 166.03 178.06 165.98 177.94 165.93 177.83 165.87 177.72 165.81 177.61 165.76 177.49 165.7 177.38 165.65 177.27 165.59 177.15 165.53 177.04 165.47 176.93 165.41 176.81 165.35 176.7 165.29 176.69 165.29 176.59 165.23 176.48 165.17 176.37 165.1 176.25 165.04 176.14 164.97 176.03 164.91 175.92 164.84 175.81 164.78 175.7 164.71 175.59 164.65 175.47 164.58 175.36 164.51 175.25 164.44 175.14 164.37 175.03 164.3 174.91 164.24 174.8 164.16 174.69 164.09 174.58 164.03 174.47 163.95 174.35 163.88 174.24 163.81 174.13 163.74 174.02 163.67 173.91 163.59 173.79 163.52 173.68 163.45 173.57 163.37 173.46 163.3 173.44 163.28 173.35 163.22 173.24 163.14 173.13 163.06 173.02 162.98 172.91 162.9 172.8 162.82 172.69 162.74 172.58 162.66 172.47 162.58 172.36 162.5 172.25 162.42 172.14 162.34 172.03 162.25 171.92 162.17 171.81 162.09 171.7 162 171.59 161.92 171.48 161.83 171.37 161.75 171.26 161.66 171.15 161.58 171.04 161.49 170.93 161.4 170.82 161.32 170.71 161.23 170.62 161.16 170.6 161.14 170.5 161.05 170.39 160.96 170.28 160.87 170.18 160.78 170.07 160.69 169.96 160.59 169.85 160.5 169.75 160.41 169.64 160.31 169.53 160.22 169.42 160.13 169.32 160.03 169.21 159.94 169.1 159.84 169 159.75 168.89 159.65 168.78 159.55 168.68 159.46 168.57 159.36 168.46 159.26 168.35 159.16 168.25 159.07 168.14 158.97 168.03 158.87 167.93 158.77 167.82 158.67 167.71 158.57 167.61 158.47 167.5 158.37 167.39 158.27 167.29 158.17 167.18 158.07 167.07 157.97 166.97 157.87 166.86 157.76 166.75 157.66 166.65 157.56 166.54 157.45 166.43 157.35 166.33 157.25 166.22 157.14 166.11 157.04 166.01 156.93 165.9 156.83 165.8 156.72 165.69 156.61 165.58 156.51 165.48 156.4 165.37 156.29 165.26 156.19 165.16 156.08 165.05 155.97 164.95 155.86 164.84 155.75 164.74 155.65 164.63 155.54 164.52 155.43 164.42 155.32 164.31 155.21 164.21 155.1 164.1 154.99 164.07 154.96 164 154.88 163.89 154.76 163.79 154.65 163.68 154.54 163.58 154.43 163.47 154.31 163.37 154.2 163.26 154.09 163.16 153.97 163.05 153.86 162.95 153.74 162.84 153.63 162.74 153.51 162.63 153.4 162.53 153.28 162.43 153.16 162.32 153.05 162.22 152.93 162.11 152.81 162.01 152.7 161.91 152.58 161.8 152.46 161.7 152.34 161.59 152.23 161.49 152.11 161.38 151.99 161.28 151.87 161.18 151.75 161.07 151.63 160.97 151.51 160.87 151.39 160.76 151.27 160.66 151.15 160.56 151.03 160.45 150.91 160.35 150.78 160.25 150.66 160.14 150.54 160.04 150.42 159.94 150.29 159.83 150.17 159.73 150.05 159.63 149.92 159.53 149.8 159.42 149.68 159.32 149.55 159.22 149.43 159.11 149.3 159.01 149.18 158.91 149.05 158.81 148.93 158.7 148.8 158.6 148.67 158.5 148.55 158.4 148.42 158.29 148.29 158.19 148.16 158.09 148.04 157.99 147.91 157.89 147.78 157.79 147.65 157.68 147.53 157.58 147.4 157.48 147.27 157.38 147.14 157.28 147.01 157.18 146.88 157.07 146.75 156.97 146.62 156.87 146.49 156.77 146.36 156.73 146.3 156.67 146.23 156.57 146.09 156.47 145.96 156.37 145.83 156.27 145.7 156.17 145.56 156.07 145.43 155.97 145.3 155.87 145.17 155.77 145.03 155.67 144.9 155.57 144.76 155.47 144.63 155.37 144.5 155.27 144.36 155.17 144.23 155.07 144.09 154.97 143.96 154.88 143.82 154.78 143.68 154.68 143.55 154.58 143.41 154.48 143.28 154.38 143.14 154.28 143 154.18 142.86 154.09 142.73 153.99 142.59 153.89 142.45 153.79 142.31 153.69 142.18 153.59 142.04 153.5 141.9 153.4 141.76 153.3 141.62 153.2 141.48 153.11 141.34 153.01 141.2 152.91 141.06 152.81 140.92 152.72 140.78 152.62 140.64 152.52 140.5 152.43 140.36 152.33 140.22 152.23 140.08 152.13 139.94 152.04 139.79 151.94 139.65 151.84 139.51 151.75 139.37 151.65 139.22 151.56 139.08 151.46 138.94 151.37 138.8 151.27 138.65 151.08 138.37 150.89 138.08 150.7 137.79 150.51 137.5 150.32 137.21 150.13 136.92 149.94 136.63 149.75 136.34 149.56 136.04 149.37 135.75 149.19 135.46 149 135.16 148.81 134.87 148.63 134.57 148.44 134.27 148.26 133.98 148.07 133.68 147.89 133.38 147.7 133.08 147.52 132.78 147.34 132.48 147.16 132.18 146.97 131.88 146.79 131.57 146.61 131.27 146.43 130.97 146.25 130.66 146.07 130.36 145.89 130.06 145.71 129.75 145.54 129.44 145.36 129.14 145.18 128.83 145.01 128.52 144.83 128.22 144.66 127.91 144.48 127.6 144.31 127.29 144.13 126.98 143.96 126.67 143.79 126.36 143.61 126.05 143.44 125.73 143.27 125.42 143.1 125.11 142.93 124.8 142.76 124.48 142.59 124.17 142.44 123.88 142.43 123.86 142.26 123.54 142.09 123.22 141.93 122.91 141.76 122.59 141.6 122.27 141.44 121.96 141.28 121.64 141.12 121.32 140.95 121 140.79 120.69 140.63 120.37 140.47 120.05 140.32 119.73 140.16 119.41 140 119.09 139.84 118.77 139.69 118.45 139.53 118.13 139.38 117.81 139.23 117.48 139.07 117.16 138.92 116.84 138.77 116.52 138.62 116.2 138.47 115.88 138.32 115.55 138.17 115.23 138.02 114.91 137.87 114.59 137.72 114.26 137.58 113.94 137.43 113.62 137.29 113.29 137.14 112.97 137 112.65 136.86 112.32 136.72 112 136.57 111.67 136.43 111.35 136.29 111.03 136.16 110.7 136.02 110.38 135.88 110.05 135.74 109.73 135.61 109.4 135.47 109.08 135.34 108.75 135.2 108.43 135.07 108.11 134.94 107.78 134.87 107.62 134.81 107.46 134.74 107.29 134.68 107.13 134.61 106.97 134.55 106.81 134.48 106.64 134.42 106.48 134.35 106.32 134.29 106.16 134.23 106 134.16 105.83 134.1 105.67 134.04 105.51 133.97 105.35 133.91 105.19 133.85 105.02 133.79 104.86 133.73 104.7 133.66 104.54 133.6 104.37 133.54 104.21 133.48 104.05 133.42 103.89 133.36 103.73 133.3 103.56 133.24 103.4 133.18 103.24 133.12 103.08 133.06 102.92 133 102.75 132.94 102.59 132.88 102.43 132.82 102.27 132.76 102.11 132.7 101.94 132.65 101.78 132.59 101.62 132.53 101.46 132.47 101.3 132.41 101.14 132.36 100.98 132.3 100.81 132.24 100.65 132.19 100.49 132.13 100.33 132.08 100.17 132.02 100.01 131.97 99.85 131.91 99.69 131.85 99.52 131.8 99.37 131.8 99.36 131.75 99.2 131.69 99.04 131.64 98.88 131.59 98.72 131.53 98.56 131.48 98.39 131.43 98.23 131.38 98.07 131.32 97.91 131.27 97.75 131.22 97.59 131.17 97.43 131.12 97.27 131.07 97.11 131.02 96.95 130.97 96.79 130.92 96.63 130.87 96.47 130.82 96.31 130.77 96.15 130.72 95.99 130.67 95.83 130.62 95.67 130.57 95.51 130.53 95.35 130.48 95.19 130.43 95.03 130.38 94.87 130.34 94.71 130.29 94.55 130.24 94.39 130.2 94.23 130.15 94.07 130.1 93.91 130.06 93.75 130.01 93.59 129.97 93.43 129.92 93.27 129.88 93.11 129.83 92.96 129.79 92.8 129.75 92.64 129.7 92.48 129.66 92.32 129.62 92.16 129.57 92.01 129.53 91.85 129.49 91.69 129.44 91.53 129.4 91.37 129.36 91.22 129.32 91.06 129.28 90.9 129.24 90.74 129.2 90.59 129.16 90.43 129.12 90.27 129.08 90.11 129.04 89.96 129 89.8 128.96 89.64 128.92 89.49 128.88 89.33 128.84 89.17 128.81 89.02 128.77 88.86 128.73 88.71 128.69 88.55 128.66 88.39 128.63 88.3 128.62 88.24 128.58 88.08 128.55 87.93 128.51 87.77 128.48 87.61 128.44 87.46 128.41 87.3 128.38 87.15 128.34 86.99 128.31 86.84 128.28 86.68 128.24 86.53 128.21 86.37 128.18 86.22 128.15 86.06 128.12 85.91 128.08 85.76 128.05 85.6 128.02 85.45 127.99 85.3 127.96 85.14 127.93 84.99 127.9 84.83 127.87 84.68 127.84 84.53 127.81 84.38 127.78 84.22 127.76 84.07 127.73 83.92 127.7 83.77 127.67 83.61 127.65 83.46 127.62 83.31 127.59 83.16 127.57 83 127.54 82.85 127.52 82.7 127.49 82.55 127.46 82.4 127.44 82.25 127.41 82.1 127.39 81.95 127.37 81.8 127.34 81.65 127.32 81.5 127.3 81.35 127.27 81.2 127.25 81.05 127.23 80.9 127.21 80.75 127.18 80.6 127.16 80.45 127.14 80.3 127.12 80.15 127.1 80 127.08 79.85 127.06 79.7 127.04 79.56 127.02 79.41 127 79.26 127 79.21 126.99 79.11 126.97 78.97 126.96 78.82 126.94 78.67 126.93 78.52 126.91 78.37 126.9 78.23 126.89 78.08 126.87 77.93 126.86 77.79 126.85 77.64 126.84 77.49 126.83 77.35 126.81 77.2 126.8 77.06 126.79 76.91 126.78 76.77 126.77 76.62 126.76 76.48 126.75 76.33 126.74 76.19 126.73 76.04 126.72 75.9 126.72 75.75 126.71 75.61 126.7 75.47 126.69 75.32 126.69 75.18 126.68 75.04 126.67 74.89 126.67 74.75 126.66 74.61 126.66 74.47 126.66 74.45 126.65 74.33 126.65 74.18 126.65 74.04 126.65 73.9 126.65 73.76 126.65 73.62 126.65 73.48 126.65 73.34 126.65 73.2 126.66 73.06 126.66 72.92 126.66 72.78 126.66 72.64 126.66 72.5 126.67 72.36 126.67 72.22 126.67 72.08 126.68 71.94 126.68 71.81 126.69 71.67 126.69 71.53 126.7 71.39 126.7 71.25 126.71 71.12 126.72 70.98 126.72 70.84 126.73 70.71 126.74 70.57 126.74 70.44 126.75 70.3 126.76 70.17 126.77 70.03 126.78 69.9 126.79 69.76 126.8 69.63 126.81 69.5 126.81 69.45 126.82 69.36 126.83 69.23 126.85 69.09 126.86 68.96 126.88 68.83 126.89 68.7 126.91 68.56 126.92 68.43 126.94 68.3 126.96 68.17 126.97 68.04 126.99 67.91 127.01 67.78 127.03 67.65 127.05 67.52 127.06 67.39 127.08 67.26 127.1 67.13 127.12 67 127.14 66.88 127.17 66.75 127.19 66.62 127.21 66.49 127.23 66.37 127.25 66.24 127.27 66.11 127.3 65.99 127.32 65.86 127.34 65.74 127.36 65.61 127.39 65.48 127.41 65.36 127.44 65.24 127.46 65.11 127.49 64.99 127.51 64.87 127.54 64.74 127.57 64.62 127.59 64.5 127.62 64.37 127.65 64.25 127.68 64.13 127.7 64.01 127.73 63.89 127.76 63.77 127.79 63.65 127.82 63.53 127.85 63.41 127.88 63.29 127.91 63.17 127.94 63.05 127.97 62.94 128.01 62.82 128.04 62.7 128.07 62.58 128.1 62.47 128.14 62.35 128.17 62.23 128.21 62.12 128.24 62 128.28 61.89 128.31 61.77 128.35 61.66 128.38 61.54 128.42 61.43 128.46 61.32 128.49 61.2 128.53 61.09 128.57 60.98 128.61 60.87 128.65 60.75 128.69 60.64 128.72 60.53 128.76 60.42 128.8 60.31 128.84 60.2 128.89 60.09 128.92 59.99 128.93 59.98 128.97 59.87 129.02 59.77 129.06 59.66 129.11 59.55 129.15 59.45 129.2 59.34 129.25 59.24 129.29 59.13 129.34 59.03 129.39 58.92 129.44 58.82 129.49 58.71 129.54 58.61 129.59 58.51 129.63 58.41 129.69 58.3 129.74 58.2 129.79 58.1 129.84 58 129.89 57.9 129.94 57.8 129.99 57.7 130.05 57.6 130.1 57.5 130.15 57.41 130.21 57.31 130.26 57.21 130.32 57.12 130.37 57.02 130.43 56.92 130.48 56.83 130.54 56.73 130.6 56.64 130.65 56.54 130.71 56.45 130.77 56.36 130.83 56.26 130.89 56.17 130.95 56.08 131 55.99 131.06 55.9 131.13 55.81 131.19 55.72 131.25 55.63 131.31 55.54 131.37 55.45 131.43 55.36 131.49 55.27 131.56 55.19 131.62 55.1 131.68 55.02 131.75 54.93 131.81 54.84 131.88 54.76 131.94 54.67 132.01 54.59 132.07 54.51 132.14 54.43 132.21 54.34 132.27 54.26 132.34 54.18 132.41 54.1 132.48 54.02 132.55 53.94 132.62 53.86 132.69 53.78 132.75 53.7 132.82 53.63 132.9 53.55 132.97 53.47 133.04 53.4 133.11 53.32 133.18 53.24 133.25 53.17 133.33 53.1 133.4 53.02 133.47 52.95 133.55 52.88 133.62 52.81 133.7 52.73 133.77 52.66 133.85 52.59 133.92 52.52 134 52.45 134.07 52.38 134.15 52.32 134.23 52.25 134.31 52.18 134.38 52.12 134.46 52.05 134.54 51.98 134.62 51.92 134.7 51.85 134.78 51.79 134.86 51.73 134.94 51.66 135.72 51.4 136.42 51.67 136.42 51.67"/><polygon class="cls-5" points="137.87 212.25 137.85 212.25 137.89 212.25 137.86 212.25 137.9 212.25 137.88 212.26 137.91 212.25 137.89 212.26 137.93 212.25 137.9 212.26 137.94 212.25 137.92 212.26 137.95 212.24 137.93 212.25 137.97 212.24 137.94 212.25 137.95 212.25 137.98 212.24 137.96 212.25 137.99 212.24 137.97 212.25 138 212.24 137.98 212.25 138.02 212.24 137.99 212.25 138.03 212.24 138.72 212.09 139.4 212.15 139.98 212.41 140.4 212.85 140.4 212.85 140.59 213.44 140.54 214.09 140.27 214.71 139.79 215.22 139.79 215.22 139.75 215.25 139.7 215.29 139.65 215.32 139.59 215.36 139.55 215.39 139.54 215.39 139.49 215.43 139.43 215.46 139.38 215.49 139.32 215.52 139.27 215.55 139.21 215.57 139.16 215.6 139.1 215.63 139.04 215.66 138.99 215.68 138.93 215.71 138.87 215.73 138.81 215.75 138.76 215.77 138.7 215.79 138.64 215.82 138.58 215.84 138.52 215.85 138.47 215.87 138.41 215.89 138.35 215.91 138.29 215.93 138.23 215.94 138.18 215.96 138.12 215.97 138.06 215.98 138 216 137.94 216.01 137.88 216.02 137.82 216.03 137.76 216.04 137.71 216.06 137.65 216.06 137.59 216.07 137.53 216.08 137.47 216.09 137.41 216.1 137.35 216.11 137.3 216.11 137.24 216.12 137.18 216.12 137.12 216.13 137.06 216.13 137 216.14 136.94 216.14 136.89 216.15 136.83 216.15 136.77 216.15 136.71 216.16 136.65 216.16 136.59 216.16 136.54 216.16 136.48 216.16 136.42 216.16 136.36 216.16 136.3 216.16 136.25 216.16 136.19 216.16 136.13 216.16 136.07 216.16 136.01 216.16 135.96 216.16 135.9 216.15 135.84 216.15 135.78 216.15 135.72 216.15 135.66 216.14 135.61 216.14 135.55 216.13 135.49 216.13 135.43 216.13 135.38 216.12 135.32 216.12 135.26 216.11 135.2 216.11 135.14 216.1 135.09 216.09 135.03 216.09 134.97 216.08 134.91 216.08 134.86 216.07 134.8 216.06 134.74 216.06 134.63 216.04 134.51 216.03 134.4 216.01 134.28 215.99 134.17 215.98 134.05 215.96 133.94 215.94 133.82 215.92 133.71 215.9 133.59 215.88 133.48 215.86 133.37 215.84 133.25 215.82 133.14 215.8 133.03 215.78 132.91 215.76 132.8 215.73 132.69 215.71 132.58 215.69 132.47 215.66 132.35 215.64 132.24 215.62 132.13 215.6 132.02 215.57 131.8 215.53 131.59 215.48 131.37 215.43 131.16 215.39 130.74 215.3 130.53 215.25 130.4 215.23 130.33 215.21 130.13 215.16 130.03 215.14 129.94 215.12 129.84 215.09 129.74 215.07 129.65 215.05 129.56 215.03 129.47 215.01 129.38 215 129.29 214.98 129.2 214.96 129.11 214.94 129.03 214.93 128.94 214.91 128.86 214.9 128.78 214.88 128.7 214.87 128.62 214.86 128.54 214.84 128.47 214.83 128.39 214.82 128.32 214.81 128.25 214.81 128.18 214.8 128.15 214.8 128.12 214.79 128.08 214.79 128.05 214.79 128.02 214.79 127.99 214.78 127.96 214.78 127.93 214.78 127.9 214.78 127.87 214.78 127.85 214.78 127.82 214.78 127.79 214.78 127.77 214.78 127.74 214.78 127.72 214.78 127.69 214.78 127.67 214.78 127.65 214.78 127.63 214.78 127.61 214.78 127.59 214.78 127.57 214.79 127.55 214.79 127.52 214.79 127.54 214.79 127.51 214.79 127.48 214.79 127.51 214.8 127.48 214.8 127.45 214.8 127.48 214.8 127.45 214.81 127.43 214.81 127.45 214.81 127.43 214.81 127.41 214.81 127.43 214.82 127.41 214.82 127.39 214.82 127.41 214.82 127.39 214.83 127.37 214.83 127.4 214.83 127.37 214.83 127.26 214.85 127.14 214.86 127.02 214.87 126.89 214.88 126.77 214.89 126.65 214.9 126.53 214.91 126.41 214.92 126.29 214.93 126.17 214.94 126.05 214.95 125.93 214.96 125.81 214.97 125.69 214.98 125.56 214.99 125.44 215 125.32 215.01 125.2 215.01 125.08 215.02 124.99 215.03 124.96 215.03 124.84 215.03 124.72 215.03 124.6 215.04 124.48 215.04 124.36 215.04 124.24 215.05 124.12 215.05 124 215.05 123.88 215.05 123.75 215.05 123.63 215.06 123.51 215.06 123.39 215.06 123.27 215.06 123.15 215.06 123.03 215.06 122.91 215.06 122.79 215.06 122.67 215.06 122.55 215.06 122.43 215.06 122.31 215.05 122.19 215.05 122.07 215.05 121.95 215.05 121.83 215.05 121.71 215.04 121.59 215.04 121.58 215.04 121.47 215.03 121.35 215.03 121.23 215.02 121.11 215.01 120.99 215.01 120.87 215 120.75 214.99 120.63 214.98 120.51 214.97 120.39 214.97 120.27 214.96 120.15 214.95 120.03 214.94 119.91 214.93 119.79 214.92 119.67 214.91 119.55 214.9 119.43 214.89 119.31 214.88 119.2 214.87 119.08 214.85 118.96 214.84 118.84 214.83 118.72 214.82 118.6 214.81 118.48 214.79 118.4 214.79 118.36 214.78 118.24 214.77 118.13 214.75 118.01 214.73 117.89 214.72 117.77 214.7 117.65 214.68 117.53 214.66 117.42 214.65 117.3 214.63 117.18 214.61 117.06 214.59 116.94 214.58 116.83 214.56 116.71 214.54 116.59 214.52 116.47 214.5 116.36 214.48 116.24 214.46 116.12 214.44 116 214.42 115.89 214.4 115.77 214.38 115.65 214.36 115.53 214.34 115.42 214.32 115.3 214.3 115.18 214.28 115.06 214.26 114.95 214.24 114.83 214.21 114.71 214.19 114.6 214.17 114.48 214.15 114.36 214.12 114.25 214.1 114.13 214.08 114.01 214.05 113.9 214.03 113.78 214 113.66 213.98 113.55 213.96 113.43 213.93 113.31 213.91 113.2 213.88 113.08 213.86 112.97 213.83 112.85 213.81 112.73 213.78 112.62 213.75 112.5 213.73 112.39 213.7 112.27 213.68 112.16 213.65 112.04 213.62 111.92 213.59 111.81 213.57 111.69 213.54 111.58 213.51 111.46 213.48 111.35 213.46 111.23 213.43 111.12 213.4 111 213.37 110.89 213.34 110.77 213.31 110.66 213.28 110.54 213.25 110.43 213.22 110.31 213.19 110.3 213.19 110.2 213.16 110.08 213.13 109.97 213.1 109.85 213.07 109.74 213.04 109.62 213.01 109.51 212.97 109.4 212.94 109.28 212.91 109.17 212.88 109.05 212.84 108.94 212.81 108.83 212.78 108.71 212.75 108.6 212.71 108.48 212.68 108.37 212.64 108.26 212.61 108.14 212.57 108.03 212.54 107.92 212.51 107.8 212.47 107.69 212.44 107.58 212.4 107.46 212.37 107.35 212.33 107.24 212.29 107.12 212.26 107.01 212.22 106.9 212.19 106.79 212.15 106.67 212.11 106.56 212.07 106.45 212.04 106.33 212 106.22 211.96 106.11 211.93 106 211.89 105.89 211.85 105.77 211.81 105.66 211.77 105.55 211.73 105.44 211.69 105.33 211.66 105.21 211.62 105.1 211.58 104.99 211.54 104.88 211.5 104.77 211.46 104.65 211.42 104.43 211.34 104.21 211.26 103.98 211.18 103.76 211.09 103.54 211.01 103.32 210.92 103.1 210.84 102.88 210.75 102.66 210.67 102.43 210.58 102.21 210.49 101.99 210.4 101.77 210.31 101.55 210.22 101.33 210.13 101.11 210.04 100.89 209.95 100.68 209.86 100.46 209.77 100.38 209.73 100.24 209.67 100.02 209.58 99.81 209.48 99.59 209.38 99.37 209.28 99.16 209.19 98.94 209.09 98.72 208.99 98.51 208.89 98.29 208.79 98.08 208.69 97.86 208.58 97.65 208.48 97.43 208.38 97.22 208.27 97 208.17 96.79 208.06 96.58 207.96 96.36 207.85 96.15 207.74 95.94 207.63 95.73 207.53 95.52 207.42 95.3 207.31 95.09 207.2 94.88 207.09 94.67 206.97 94.46 206.86 94.25 206.75 94.04 206.64 93.83 206.52 93.62 206.41 93.41 206.29 93.2 206.18 92.99 206.06 92.78 205.94 92.58 205.83 92.37 205.71 92.16 205.59 91.95 205.47 91.75 205.35 91.54 205.23 91.33 205.11 91.13 204.99 90.92 204.87 90.72 204.74 90.51 204.62 90.31 204.5 90.1 204.37 89.9 204.25 89.69 204.12 89.49 204 89.28 203.87 89.08 203.74 88.88 203.62 88.67 203.49 88.47 203.36 88.27 203.23 88.07 203.1 87.87 202.97 87.66 202.84 87.46 202.71 87.26 202.57 87.06 202.44 86.86 202.31 86.66 202.18 86.46 202.04 86.26 201.91 86.06 201.77 85.86 201.64 85.67 201.5 85.47 201.37 85.27 201.23 85.07 201.09 84.87 200.96 84.68 200.82 84.48 200.68 84.28 200.54 84.09 200.4 83.89 200.26 83.69 200.12 83.5 199.98 83.3 199.84 83.11 199.69 82.91 199.55 82.72 199.41 82.52 199.26 82.33 199.12 82.14 198.97 81.94 198.83 81.75 198.68 81.56 198.54 81.36 198.39 81.17 198.25 80.98 198.1 80.79 197.95 80.6 197.8 80.41 197.65 80.22 197.5 80.03 197.36 79.84 197.21 79.65 197.06 79.49 196.93 79.46 196.91 79.27 196.75 79.08 196.6 78.89 196.45 78.7 196.29 78.52 196.14 78.33 195.99 78.14 195.83 77.96 195.68 77.77 195.52 77.58 195.36 77.4 195.21 77.22 195.05 77.03 194.89 76.84 194.74 76.66 194.58 76.48 194.42 76.29 194.26 76.11 194.1 75.93 193.94 75.74 193.78 75.56 193.62 75.38 193.46 75.2 193.3 75.02 193.14 74.83 192.98 74.65 192.82 74.47 192.65 74.29 192.49 74.11 192.33 73.93 192.16 73.75 192 73.57 191.84 73.39 191.67 73.22 191.51 73.04 191.34 72.86 191.18 72.68 191.01 72.5 190.84 72.33 190.68 72.15 190.51 71.97 190.34 71.8 190.17 71.62 190.01 71.44 189.84 71.27 189.67 71.09 189.5 70.92 189.33 70.75 189.16 70.57 188.99 70.4 188.82 70.22 188.65 70.05 188.48 69.88 188.31 69.7 188.13 69.53 187.96 69.36 187.79 69.19 187.62 69.02 187.45 68.85 187.27 68.67 187.1 68.5 186.93 68.33 186.75 68.16 186.58 67.99 186.41 67.83 186.23 67.66 186.06 67.49 185.88 67.32 185.7 67.15 185.53 66.98 185.35 66.81 185.18 66.65 185 66.48 184.82 66.31 184.65 66.15 184.47 65.98 184.29 65.82 184.11 65.65 183.93 65.49 183.75 65.32 183.57 65.16 183.4 64.99 183.22 64.83 183.04 64.67 182.86 64.5 182.68 64.34 182.5 64.18 182.32 64.01 182.14 63.85 181.96 63.69 181.78 63.53 181.59 63.37 181.41 63.21 181.23 63.05 181.05 62.89 180.87 62.73 180.68 62.57 180.5 62.41 180.32 62.25 180.13 62.09 179.95 62.07 179.93 61.93 179.77 61.78 179.58 61.62 179.4 61.46 179.21 61.31 179.03 61.15 178.84 61 178.66 60.84 178.47 60.69 178.28 60.53 178.1 60.38 177.91 60.23 177.72 60.07 177.54 59.92 177.35 59.77 177.16 59.61 176.98 59.46 176.79 59.31 176.6 59.16 176.41 59.01 176.22 58.86 176.04 58.71 175.85 58.56 175.66 58.41 175.47 58.26 175.28 58.11 175.09 57.96 174.91 57.81 174.72 57.66 174.53 57.52 174.34 57.37 174.15 57.22 173.96 57.07 173.77 56.93 173.58 56.78 173.39 56.63 173.2 56.49 173.01 56.34 172.82 56.2 172.63 56.05 172.43 55.91 172.24 55.77 172.05 55.62 171.86 55.6 171.84 55.48 171.67 55.34 171.48 55.2 171.28 55.05 171.09 54.91 170.9 54.77 170.71 54.63 170.51 54.49 170.32 54.35 170.13 54.22 169.93 54.08 169.74 53.94 169.55 53.8 169.35 53.66 169.16 53.53 168.97 53.39 168.77 53.25 168.58 53.12 168.38 52.98 168.19 52.84 168 52.71 167.8 52.57 167.61 52.44 167.41 52.3 167.22 52.17 167.03 52.04 166.83 51.9 166.64 51.77 166.44 51.64 166.25 51.51 166.05 51.37 165.86 51.24 165.66 51.11 165.47 50.98 165.27 50.88 165.12 50.85 165.08 50.72 164.88 50.6 164.68 50.47 164.48 50.35 164.28 50.23 164.09 50.1 163.89 49.98 163.69 49.85 163.49 49.73 163.29 49.61 163.09 49.49 162.9 49.37 162.7 49.24 162.5 49.12 162.3 49 162.1 48.88 161.91 48.76 161.71 48.67 161.56 48.65 161.51 48.53 161.31 48.42 161.1 48.31 160.9 48.19 160.7 48.08 160.5 47.97 160.29 47.86 160.09 47.75 159.89 47.64 159.69 47.53 159.49 47.42 159.28 47.31 159.08 47.2 158.88 47.09 158.68 46.98 158.48 46.87 158.28 46.77 158.08 46.66 157.88 46.59 157.74 46.55 157.67 46.45 157.47 46.35 157.26 46.25 157.06 46.15 156.85 46.05 156.65 45.95 156.45 45.85 156.24 45.75 156.04 45.66 155.83 45.56 155.63 45.46 155.43 45.36 155.22 45.27 155.02 45.17 154.82 45.07 154.61 44.98 154.41 44.88 154.21 44.79 154 44.69 153.8 44.6 153.6 44.5 153.4 44.41 153.19 44.32 152.99 44.22 152.79 44.13 152.59 44.04 152.39 43.95 152.18 43.85 151.98 43.76 151.78 43.67 151.58 43.58 151.38 43.49 151.18 43.4 150.98 43.31 150.78 43.22 150.58 43.14 150.38 43.07 150.22 43.05 150.18 42.97 149.97 42.88 149.77 42.8 149.57 42.72 149.36 42.64 149.16 42.56 148.96 42.48 148.76 42.4 148.56 42.32 148.35 42.24 148.15 42.16 147.95 42.08 147.75 42.01 147.55 41.93 147.35 41.85 147.15 41.77 146.95 41.7 146.75 41.62 146.55 41.55 146.35 41.47 146.15 41.39 145.95 41.32 145.75 41.24 145.56 41.17 145.36 41.1 145.16 41.02 144.96 40.95 144.76 40.88 144.57 40.8 144.37 40.73 144.17 40.66 143.97 40.59 143.78 40.52 143.58 40.45 143.39 40.38 143.19 40.31 143 40.24 142.8 40.17 142.61 40.1 142.41 40.03 142.22 39.96 142.03 39.96 142.02 39.95 141.18 40.4 140.59 40.41 140.59 41.15 140.56 41.82 141.07 41.82 141.07 41.94 141.24 42.06 141.41 42.17 141.57 42.29 141.74 42.41 141.91 42.53 142.07 42.65 142.24 42.77 142.41 42.89 142.57 43.01 142.74 43.13 142.91 43.25 143.08 43.37 143.24 43.49 143.41 43.61 143.58 43.73 143.75 43.85 143.91 43.98 144.08 44.1 144.25 44.23 144.42 44.35 144.59 44.47 144.76 44.6 144.93 44.72 145.09 44.85 145.26 44.97 145.43 45.1 145.6 45.23 145.77 45.35 145.94 45.48 146.11 45.61 146.28 45.73 146.44 45.86 146.61 45.99 146.78 46.12 146.95 46.25 147.12 46.38 147.29 46.51 147.46 46.64 147.63 46.77 147.8 46.9 147.97 46.93 148 47.03 148.14 47.15 148.31 47.28 148.49 47.41 148.66 47.53 148.83 47.66 149 47.79 149.18 47.92 149.35 48.05 149.52 48.17 149.69 48.3 149.87 48.43 150.04 48.56 150.22 48.69 150.39 48.82 150.56 48.95 150.73 49.08 150.91 49.22 151.08 49.35 151.25 49.48 151.43 49.61 151.6 49.74 151.77 49.88 151.95 50.01 152.12 50.14 152.29 50.28 152.47 50.41 152.64 50.55 152.81 50.68 152.99 50.82 153.16 50.95 153.33 51.09 153.5 51.22 153.68 51.36 153.85 51.5 154.02 51.63 154.2 51.77 154.37 51.82 154.43 51.91 154.55 52.04 154.72 52.17 154.9 52.3 155.07 52.44 155.25 52.57 155.43 52.71 155.6 52.84 155.78 52.98 155.96 53.11 156.13 53.25 156.31 53.38 156.49 53.52 156.66 53.65 156.84 53.79 157.01 53.93 157.19 54.06 157.37 54.2 157.54 54.34 157.72 54.38 157.76 54.47 157.9 54.61 158.08 54.74 158.26 54.87 158.44 55.01 158.62 55.14 158.79 55.27 158.97 55.41 159.15 55.54 159.33 55.68 159.51 55.81 159.69 55.95 159.87 56.09 160.05 56.22 160.23 56.36 160.41 56.49 160.59 56.63 160.76 56.77 160.94 56.8 160.98 56.9 161.13 57.04 161.31 57.17 161.49 57.3 161.67 57.44 161.85 57.57 162.03 57.71 162.22 57.84 162.4 57.98 162.58 58.11 162.76 58.25 162.94 58.38 163.12 58.52 163.31 58.66 163.49 58.8 163.67 58.93 163.85 59.07 164.03 59.21 164.21 59.35 164.39 59.48 164.57 59.62 164.75 59.76 164.93 59.9 165.11 60.04 165.29 60.18 165.47 60.32 165.65 60.46 165.83 60.6 166.01 60.74 166.19 60.89 166.37 61.03 166.55 61.17 166.73 61.31 166.91 61.46 167.08 61.58 167.24 61.6 167.26 61.74 167.44 61.88 167.62 62.02 167.8 62.17 167.98 62.31 168.16 62.45 168.34 62.6 168.52 62.74 168.7 62.89 168.87 63.03 169.05 63.17 169.23 63.32 169.41 63.47 169.59 63.61 169.76 63.76 169.94 63.9 170.12 64.05 170.29 64.2 170.47 64.34 170.65 64.49 170.82 64.64 171 64.79 171.18 64.93 171.35 65.08 171.53 65.23 171.71 65.38 171.88 65.53 172.06 65.68 172.23 65.83 172.41 65.98 172.58 66.13 172.75 66.28 172.93 66.43 173.1 66.58 173.28 66.73 173.45 66.88 173.62 67.04 173.8 67.19 173.97 67.34 174.14 67.49 174.31 67.65 174.49 67.8 174.66 67.93 174.81 67.95 174.83 68.11 175 68.26 175.18 68.41 175.35 68.57 175.52 68.72 175.69 68.87 175.86 69.03 176.03 69.18 176.21 69.34 176.38 69.49 176.55 69.65 176.72 69.8 176.89 69.96 177.06 70.12 177.23 70.27 177.4 70.43 177.56 70.59 177.73 70.74 177.9 70.9 178.07 71.06 178.24 71.22 178.41 71.38 178.57 71.53 178.74 71.69 178.91 71.85 179.07 72.01 179.24 72.17 179.41 72.33 179.57 72.49 179.74 72.65 179.9 72.81 180.07 72.97 180.23 73.13 180.39 73.3 180.56 73.46 180.72 73.62 180.88 73.78 181.05 73.94 181.21 74.11 181.37 74.27 181.53 74.43 181.7 74.59 181.86 74.76 182.02 74.92 182.18 75.09 182.34 75.25 182.5 75.42 182.66 75.58 182.82 75.75 182.98 75.91 183.14 76.08 183.3 76.24 183.46 76.41 183.61 76.57 183.77 76.74 183.93 76.91 184.08 77.08 184.24 77.24 184.4 77.41 184.55 77.58 184.71 77.75 184.86 77.91 185.02 78.08 185.17 78.25 185.33 78.42 185.48 78.59 185.63 78.76 185.79 78.93 185.94 79.1 186.09 79.27 186.24 79.44 186.39 79.61 186.54 79.78 186.69 79.95 186.84 80.12 187 80.29 187.15 80.46 187.29 80.64 187.44 80.81 187.59 80.98 187.74 81.15 187.89 81.33 188.03 81.5 188.18 81.67 188.33 81.85 188.47 82.02 188.62 82.19 188.76 82.37 188.91 82.54 189.05 82.72 189.19 82.89 189.34 83.07 189.48 83.24 189.62 83.42 189.77 83.59 189.91 83.77 190.05 83.94 190.19 84.12 190.33 84.3 190.47 84.47 190.61 84.51 190.64 84.65 190.75 84.83 190.89 85 191.03 85.18 191.17 85.36 191.31 85.53 191.44 85.71 191.58 85.89 191.72 86.07 191.86 86.25 191.99 86.42 192.13 86.6 192.26 86.78 192.4 86.96 192.53 87.14 192.67 87.32 192.8 87.5 192.93 87.68 193.07 87.86 193.2 88.04 193.33 88.22 193.46 88.4 193.59 88.58 193.72 88.76 193.85 88.94 193.98 89.12 194.11 89.3 194.24 89.49 194.37 89.67 194.49 89.85 194.62 90.03 194.75 90.22 194.87 90.4 195 90.58 195.12 90.76 195.25 90.95 195.37 91.13 195.49 91.31 195.62 91.5 195.74 91.68 195.86 91.87 195.98 92.05 196.1 92.24 196.22 92.42 196.34 92.61 196.46 92.79 196.58 92.98 196.7 93.16 196.81 93.35 196.93 93.54 197.05 93.72 197.16 93.91 197.28 94.09 197.39 94.28 197.51 94.47 197.62 94.66 197.74 94.84 197.85 95.03 197.96 95.22 198.07 95.41 198.18 95.59 198.29 95.78 198.4 95.97 198.51 96.16 198.62 96.35 198.73 96.54 198.84 96.73 198.94 96.92 199.05 97.11 199.16 97.3 199.26 97.49 199.37 97.68 199.47 97.87 199.57 98.06 199.68 98.25 199.78 98.44 199.88 98.63 199.98 98.82 200.08 99.01 200.19 99.2 200.28 99.4 200.38 99.59 200.48 99.78 200.58 99.97 200.68 100.17 200.77 100.36 200.87 100.55 200.97 100.74 201.06 100.94 201.15 101.13 201.25 101.32 201.34 101.52 201.43 101.71 201.52 101.91 201.62 102.1 201.71 102.29 201.8 102.49 201.88 102.68 201.97 102.88 202.06 103.07 202.15 103.27 202.24 103.46 202.32 103.59 202.38 103.66 202.41 103.85 202.49 104.05 202.58 104.25 202.66 104.44 202.75 104.64 202.83 104.83 202.91 105.03 203 105.22 203.08 105.42 203.16 105.62 203.24 105.81 203.32 106.01 203.4 106.21 203.48 106.41 203.56 106.6 203.63 106.8 203.71 107 203.78 107.2 203.86 107.4 203.93 107.49 203.97 107.59 204.01 107.69 204.04 107.79 204.08 107.89 204.12 107.99 204.15 108.09 204.19 108.19 204.22 108.29 204.26 108.39 204.3 108.49 204.33 108.59 204.37 108.69 204.4 108.79 204.44 108.89 204.47 108.99 204.5 109.09 204.54 109.19 204.57 109.29 204.61 109.39 204.64 109.49 204.68 109.59 204.71 109.69 204.74 109.79 204.78 109.89 204.81 109.99 204.84 110.09 204.87 110.19 204.91 110.29 204.94 110.39 204.97 110.49 205 110.59 205.03 110.69 205.06 110.79 205.1 110.89 205.13 110.99 205.16 111.09 205.19 111.19 205.22 111.29 205.25 111.39 205.28 111.49 205.31 111.59 205.34 111.69 205.37 111.8 205.4 111.9 205.43 112 205.46 112.1 205.49 112.2 205.52 112.3 205.55 112.39 205.57 112.4 205.57 112.5 205.6 112.6 205.63 112.7 205.66 112.81 205.69 112.91 205.72 113.01 205.75 113.11 205.77 113.21 205.8 113.31 205.83 113.41 205.86 113.52 205.88 113.62 205.91 113.72 205.94 113.82 205.97 113.92 205.99 114.02 206.02 114.12 206.04 114.23 206.07 114.33 206.1 114.43 206.12 114.53 206.15 114.63 206.17 114.73 206.2 114.84 206.22 114.94 206.25 115.04 206.27 115.14 206.3 115.25 206.32 115.35 206.35 115.45 206.37 115.55 206.39 115.65 206.42 115.76 206.44 115.86 206.46 115.96 206.49 116.06 206.51 116.17 206.53 116.27 206.55 116.37 206.58 116.47 206.6 116.58 206.62 116.68 206.64 116.78 206.66 116.88 206.69 116.99 206.71 117.09 206.73 117.19 206.75 117.3 206.77 117.4 206.79 117.5 206.81 117.61 206.83 117.71 206.85 117.81 206.87 117.92 206.89 118.02 206.91 118.12 206.93 118.22 206.94 118.33 206.96 118.43 206.98 118.53 207 118.64 207.02 118.74 207.04 118.84 207.05 118.95 207.07 119.05 207.09 119.16 207.11 119.26 207.12 119.36 207.14 119.47 207.16 119.5 207.16 119.57 207.18 119.67 207.19 119.78 207.21 119.88 207.23 119.99 207.25 120.09 207.27 120.19 207.29 120.3 207.31 120.4 207.32 120.5 207.34 120.61 207.36 120.71 207.38 120.82 207.39 120.92 207.41 121.03 207.43 121.13 207.44 121.23 207.46 121.34 207.48 121.44 207.49 121.55 207.51 121.65 207.53 121.76 207.54 121.86 207.56 121.97 207.57 122.07 207.59 122.17 207.6 122.28 207.62 122.28 207.62 122.38 207.63 122.49 207.65 122.59 207.67 122.7 207.69 122.8 207.7 122.91 207.72 123.01 207.74 123.12 207.75 123.22 207.77 123.33 207.79 123.43 207.8 123.54 207.82 123.64 207.84 123.75 207.85 123.86 207.87 123.96 207.88 124.07 207.9 124.17 207.91 124.28 207.93 124.38 207.94 124.49 207.95 124.6 207.97 124.7 207.98 124.81 208 124.92 208.01 125.02 208.02 125.13 208.03 125.23 208.05 125.26 208.05 125.34 208.06 125.45 208.08 125.55 208.09 125.66 208.11 125.77 208.13 125.87 208.14 125.98 208.16 126.09 208.17 126.19 208.19 126.3 208.2 126.41 208.21 126.52 208.23 126.62 208.24 126.73 208.25 126.84 208.27 126.95 208.28 127.05 208.29 127.16 208.31 127.27 208.32 127.39 208.33 127.44 208.34 127.51 208.34 127.58 208.35 127.64 208.35 127.71 208.36 127.77 208.37 127.84 208.37 127.9 208.38 127.97 208.39 128.03 208.4 128.09 208.41 128.15 208.42 128.21 208.43 128.28 208.44 128.34 208.45 128.4 208.46 128.46 208.48 128.52 208.49 128.58 208.5 128.63 208.52 128.69 208.53 128.75 208.54 128.81 208.56 128.87 208.57 128.93 208.59 128.98 208.6 129.04 208.62 129.1 208.63 129.15 208.65 129.21 208.66 129.27 208.68 129.32 208.7 129.38 208.72 129.43 208.73 129.49 208.75 129.54 208.77 129.6 208.79 129.66 208.81 129.76 208.84 129.87 208.88 129.98 208.92 130.08 208.96 130.19 209 130.3 209.04 130.4 209.08 130.51 209.12 130.61 209.16 130.72 209.21 130.82 209.25 130.92 209.3 131.02 209.34 131.13 209.38 131.23 209.43 131.33 209.47 131.43 209.52 131.53 209.57 131.63 209.61 131.73 209.66 131.83 209.71 131.93 209.75 132.03 209.8 132.23 209.89 132.3 209.93 132.43 209.99 132.62 210.09 133 210.29 133.19 210.4 133.38 210.49 133.57 210.59 133.75 210.69 133.84 210.74 133.93 210.78 134.03 210.83 134.12 210.88 134.21 210.93 134.29 210.97 134.38 211.02 134.47 211.06 134.56 211.11 134.65 211.15 134.74 211.19 134.82 211.24 134.91 211.28 134.99 211.32 135.08 211.36 135.16 211.4 135.24 211.44 135.33 211.48 135.41 211.51 135.49 211.55 135.57 211.59 135.65 211.62 135.73 211.66 135.81 211.69 135.84 211.71 135.88 211.72 135.92 211.74 135.96 211.75 136 211.77 136.03 211.78 136.07 211.8 136.11 211.81 136.15 211.83 136.18 211.84 136.22 211.86 136.25 211.87 136.29 211.88 136.32 211.9 136.36 211.91 136.4 211.92 136.43 211.94 136.46 211.95 136.5 211.96 136.53 211.97 136.56 211.98 136.6 211.99 136.63 212 136.66 212.01 136.7 212.03 136.73 212.03 136.76 212.04 136.79 212.06 136.82 212.06 136.85 212.07 136.88 212.08 136.91 212.09 136.94 212.1 136.97 212.11 137 212.12 137.03 212.12 137.06 212.13 137.09 212.14 137.08 212.14 137.11 212.14 137.15 212.15 137.13 212.15 137.17 212.16 137.2 212.16 137.18 212.16 137.22 212.17 137.25 212.17 137.24 212.17 137.27 212.18 137.3 212.18 137.28 212.18 137.32 212.19 137.35 212.19 137.33 212.19 137.37 212.2 137.4 212.2 137.38 212.2 137.41 212.21 137.44 212.21 137.43 212.21 137.46 212.21 137.49 212.22 137.47 212.22 137.5 212.22 137.53 212.22 137.51 212.22 137.54 212.22 137.57 212.23 137.55 212.23 137.58 212.23 137.61 212.23 137.59 212.24 137.62 212.24 137.65 212.24 137.63 212.24 137.66 212.24 137.69 212.24 137.66 212.24 137.69 212.24 137.72 212.24 137.7 212.25 137.72 212.25 137.75 212.24 137.73 212.25 137.76 212.25 137.78 212.24 137.76 212.25 137.79 212.25 137.81 212.25 137.79 212.25 137.83 212.25 137.81 212.25 137.84 212.25 137.82 212.25 137.86 212.25 137.84 212.25 137.87 212.25 137.87 212.25"/><polygon class="cls-5" points="137.09 281.87 137.02 281.89 136.95 281.91 136.88 281.93 136.81 281.95 136.74 281.98 136.67 282 136.6 282.03 136.53 282.05 136.45 282.08 136.38 282.1 136.31 282.13 136.24 282.15 136.16 282.18 136.09 282.21 136.02 282.24 135.95 282.26 135.87 282.29 135.8 282.32 135.72 282.35 135.65 282.38 135.58 282.41 135.5 282.44 135.43 282.47 135.35 282.5 135.28 282.53 135.21 282.57 135.13 282.6 135.11 282.61 135.05 282.63 134.98 282.66 134.9 282.69 134.82 282.72 134.75 282.75 134.67 282.78 134.59 282.81 134.52 282.84 134.44 282.87 134.36 282.91 134.28 282.94 134.21 282.97 134.13 283.01 134.05 283.04 133.97 283.07 133.89 283.11 133.81 283.14 133.73 283.18 133.66 283.21 133.58 283.25 133.5 283.29 133.42 283.32 133.34 283.36 133.26 283.4 133.18 283.43 133.11 283.47 133.1 283.47 133.02 283.5 132.93 283.54 132.85 283.57 132.77 283.61 132.69 283.64 132.6 283.68 132.52 283.72 132.44 283.75 132.36 283.79 132.27 283.83 132.19 283.86 132.11 283.9 132.03 283.94 131.94 283.98 131.86 284.02 131.77 284.06 131.69 284.09 131.61 284.13 131.52 284.17 131.44 284.21 131.35 284.25 131.27 284.29 131.21 284.32 131.18 284.33 131.1 284.37 131.01 284.41 130.93 284.45 130.84 284.49 130.75 284.52 130.67 284.56 130.58 284.6 130.49 284.64 130.41 284.68 130.32 284.72 130.23 284.76 130.14 284.8 130.06 284.84 129.97 284.88 129.88 284.92 129.79 284.96 129.71 285.01 129.62 285.05 129.53 285.09 129.44 285.13 129.27 285.22 129.09 285.3 128.91 285.39 128.74 285.48 128.56 285.57 128.38 285.66 128.2 285.75 128.03 285.84 127.85 285.93 127.67 286.02 127.49 286.12 127.31 286.21 127.13 286.3 126.95 286.4 126.78 286.49 126.6 286.59 126.42 286.69 126.24 286.78 126.16 286.82 126.06 286.88 125.88 286.98 125.7 287.07 125.52 287.17 125.34 287.27 125.16 287.37 124.98 287.46 124.8 287.56 124.62 287.66 124.44 287.76 124.26 287.86 124.08 287.96 123.9 288.06 123.72 288.16 123.54 288.26 123.36 288.36 123.19 288.46 123.01 288.56 122.83 288.67 122.47 288.87 122.11 289.07 121.76 289.27 121.41 289.48 121.06 289.68 120.35 290.08 120.01 290.28 119.66 290.48 119.61 290.51 119.31 290.68 118.97 290.87 118.62 291.06 118.28 291.25 118.11 291.35 117.94 291.44 117.77 291.54 117.6 291.63 117.43 291.72 117.27 291.82 117.1 291.91 116.93 292 116.76 292.09 116.6 292.18 116.43 292.27 116.27 292.36 116.1 292.44 115.94 292.53 115.77 292.62 115.61 292.7 115.52 292.75 115.43 292.8 115.34 292.85 115.24 292.9 115.15 292.94 115.06 293 114.97 293.04 114.88 293.09 114.79 293.14 114.69 293.19 114.6 293.25 114.51 293.3 114.42 293.35 114.33 293.4 114.23 293.45 114.14 293.51 114.05 293.56 113.96 293.61 113.86 293.67 113.77 293.72 113.68 293.77 113.59 293.83 113.5 293.88 113.4 293.94 113.31 293.99 113.22 294.05 113.13 294.1 113.03 294.16 112.94 294.21 112.85 294.27 112.75 294.33 112.66 294.38 112.57 294.44 112.48 294.5 112.38 294.56 112.29 294.62 112.2 294.68 112.11 294.74 112.01 294.8 111.92 294.86 111.83 294.92 111.73 294.98 111.64 295.04 111.55 295.1 111.45 295.16 111.36 295.22 111.27 295.28 111.17 295.34 111.08 295.4 110.99 295.47 110.9 295.53 110.8 295.59 110.71 295.66 110.62 295.72 110.52 295.78 110.43 295.85 110.34 295.91 110.24 295.98 110.15 296.04 110.06 296.11 109.96 296.17 109.87 296.24 109.78 296.3 109.69 296.37 109.59 296.44 109.5 296.5 109.41 296.57 109.31 296.64 109.22 296.7 109.13 296.77 109.03 296.84 108.94 296.91 108.85 296.98 108.75 297.05 108.66 297.12 108.57 297.19 108.47 297.25 108.38 297.32 108.29 297.39 108.19 297.47 108.1 297.54 108.01 297.61 107.92 297.68 107.82 297.75 107.73 297.82 107.64 297.89 107.54 297.97 107.45 298.04 107.36 298.11 107.26 298.19 107.17 298.26 107.08 298.33 106.98 298.4 106.89 298.48 106.8 298.55 106.71 298.63 106.61 298.7 106.52 298.78 106.43 298.85 106.34 298.93 106.24 299 106.15 299.08 106.06 299.16 105.97 299.23 105.87 299.31 105.78 299.39 105.69 299.46 105.6 299.54 105.5 299.62 105.41 299.7 105.32 299.77 105.23 299.85 105.15 299.92 105.13 299.93 105.04 300.01 104.95 300.09 104.86 300.17 104.76 300.24 104.67 300.32 104.58 300.4 104.48 300.48 104.39 300.56 104.3 300.64 104.21 300.72 104.11 300.8 104.02 300.88 103.93 300.96 103.84 301.04 103.75 301.12 103.65 301.2 103.56 301.29 103.47 301.37 103.38 301.45 103.29 301.53 103.19 301.61 103.1 301.7 103.01 301.78 102.92 301.86 102.83 301.95 102.73 302.03 102.64 302.11 102.55 302.2 102.46 302.28 102.37 302.37 102.28 302.45 102.19 302.53 102.09 302.62 102 302.7 101.91 302.79 101.82 302.88 101.73 302.96 101.64 303.05 101.55 303.13 101.46 303.22 101.37 303.31 101.28 303.39 101.19 303.48 101.1 303.57 101.01 303.65 100.92 303.74 100.83 303.83 100.73 303.92 100.64 304 100.56 304.09 100.47 304.18 100.38 304.27 100.28 304.36 100.2 304.45 100.11 304.54 100.02 304.63 99.93 304.71 99.84 304.81 99.75 304.89 99.66 304.99 99.57 305.07 99.48 305.17 99.39 305.26 99.3 305.35 99.21 305.44 99.13 305.53 99.04 305.62 98.95 305.71 98.86 305.8 98.77 305.89 98.68 305.99 98.59 306.08 98.51 306.17 98.42 306.26 98.33 306.36 98.24 306.45 98.16 306.54 98.07 306.64 97.98 306.73 97.89 306.82 97.81 306.92 97.72 307.01 97.63 307.1 97.55 307.2 97.46 307.29 97.37 307.39 97.28 307.48 97.2 307.58 97.11 307.67 97.03 307.77 96.94 307.86 96.85 307.96 96.77 308.05 96.68 308.15 96.59 308.24 96.51 308.34 96.42 308.44 96.34 308.53 96.25 308.63 96.17 308.73 96.08 308.82 96 308.92 95.91 309.02 95.83 309.11 95.74 309.21 95.66 309.31 95.57 309.41 95.49 309.5 95.41 309.6 95.32 309.7 95.24 309.8 95.15 309.9 95.07 310 94.98 310.09 94.9 310.19 94.82 310.29 94.73 310.39 94.65 310.49 94.57 310.59 94.49 310.69 94.4 310.79 94.32 310.89 94.24 310.99 94.16 311.09 94.07 311.19 93.99 311.29 93.91 311.39 93.83 311.49 93.75 311.59 93.67 311.69 93.58 311.79 93.5 311.89 93.42 311.99 93.34 312.09 93.26 312.19 93.18 312.3 93.1 312.4 93.09 312.4 93.02 312.5 92.94 312.6 92.85 312.7 92.77 312.8 92.69 312.9 92.61 313 92.53 313.11 92.45 313.21 92.37 313.31 92.29 313.41 92.21 313.51 92.13 313.61 92.05 313.72 91.97 313.82 91.89 313.92 91.81 314.02 91.73 314.13 91.66 314.23 91.58 314.33 91.5 314.44 91.42 314.54 91.34 314.64 91.26 314.74 91.19 314.85 91.11 314.95 91.03 315.06 90.95 315.16 90.88 315.26 90.8 315.37 90.72 315.47 90.64 315.57 90.57 315.68 90.49 315.78 90.42 315.89 90.34 315.99 90.26 316.1 90.19 316.2 90.11 316.3 90.04 316.41 89.96 316.51 89.89 316.62 89.81 316.72 89.73 316.83 89.66 316.93 89.59 317.04 89.51 317.14 89.44 317.25 89.36 317.35 89.29 317.46 89.22 317.56 89.14 317.67 89.07 317.78 89 317.88 88.92 317.99 88.85 318.09 88.78 318.2 88.7 318.31 88.64 318.39 88.63 318.41 88.56 318.52 88.49 318.62 88.41 318.73 88.34 318.83 88.27 318.94 88.2 319.05 88.12 319.15 88.05 319.26 87.98 319.36 87.91 319.47 87.84 319.58 87.77 319.68 87.69 319.79 87.62 319.89 87.55 320 87.48 320.11 87.41 320.21 87.34 320.32 87.27 320.43 87.2 320.53 87.13 320.64 87.06 320.75 87 320.85 86.93 320.96 86.86 321.07 86.79 321.17 86.72 321.28 86.65 321.39 86.58 321.5 86.52 321.6 86.45 321.71 86.38 321.82 86.31 321.92 86.25 322.03 86.18 322.14 86.11 322.25 86.05 322.35 85.98 322.46 85.92 322.57 85.85 322.68 85.78 322.78 85.72 322.89 85.65 323 85.59 323.11 85.52 323.21 85.46 323.32 85.43 323.37 85.39 323.43 85.33 323.53 85.26 323.64 85.19 323.75 85.12 323.85 85.06 323.96 84.99 324.06 84.92 324.17 84.86 324.27 84.79 324.38 84.72 324.49 84.66 324.59 84.59 324.7 84.53 324.8 84.46 324.91 84.39 325.02 84.33 325.12 84.27 325.23 84.2 325.33 84.14 325.44 84.07 325.55 84.01 325.65 83.94 325.76 83.88 325.87 83.84 325.94 83.82 325.97 83.75 326.07 83.68 326.18 83.61 326.28 83.55 326.39 83.48 326.49 83.42 326.6 83.35 326.7 83.28 326.8 83.22 326.91 83.15 327.01 83.09 327.12 83.02 327.22 82.96 327.33 82.89 327.43 82.83 327.54 82.76 327.64 82.7 327.74 82.64 327.85 82.57 327.95 82.51 328.06 82.45 328.16 82.38 328.27 82.32 328.37 82.26 328.48 82.2 328.58 82.17 328.62 82.13 328.68 82.06 328.79 82 328.89 81.93 328.99 81.87 329.1 81.8 329.2 81.74 329.3 81.67 329.4 81.61 329.51 81.55 329.61 81.48 329.71 81.42 329.82 81.35 329.92 81.29 330.02 81.23 330.13 81.16 330.23 81.1 330.33 81.04 330.44 80.98 330.54 80.92 330.64 80.85 330.75 80.79 330.85 80.73 330.95 80.67 331.06 80.61 331.16 80.55 331.26 80.49 331.37 80.43 331.47 80.37 331.57 80.31 331.68 80.25 331.78 80.19 331.88 80.14 331.99 80.08 332.09 80.02 332.19 79.96 332.3 79.9 332.4 79.85 332.5 79.79 332.61 79.73 332.71 79.68 332.82 79.62 332.92 79.56 333.02 79.51 333.13 79.45 333.23 79.4 333.33 79.34 333.44 79.29 333.54 79.23 333.65 79.18 333.75 79.13 333.85 79.12 333.86 79.07 333.95 79.01 334.06 78.95 334.16 78.9 334.26 78.84 334.37 78.78 334.47 78.73 334.57 78.67 334.67 78.61 334.77 78.56 334.88 78.5 334.98 78.45 335.08 78.39 335.18 78.34 335.29 78.28 335.39 78.23 335.49 78.18 335.59 78.12 335.7 78.07 335.8 78.02 335.9 77.97 336 77.91 336.11 77.86 336.21 77.81 336.31 77.76 336.42 77.71 336.52 77.66 336.62 77.61 336.72 77.56 336.83 77.51 336.93 77.46 337.03 77.41 337.13 77.36 337.24 77.31 337.34 77.26 337.44 77.21 337.55 77.17 337.65 77.12 337.75 77.07 337.85 77.03 337.96 76.98 338.06 76.93 338.16 76.89 338.27 76.84 338.37 76.8 338.47 76.75 338.57 76.7 338.68 76.66 338.78 76.62 338.88 76.57 338.99 76.53 339.09 76.49 339.19 76.44 339.3 76.4 339.4 76.36 339.5 76.32 339.6 76.27 339.71 76.27 339.71 75.74 340.37 75.04 340.54 75.04 340.54 75.03 340.54 74.45 340.1 74.23 339.29 74.23 339.17 74.23 339.06 74.24 338.94 74.24 338.82 74.25 338.7 74.25 338.59 74.26 338.47 74.26 338.35 74.27 338.23 74.28 338.12 74.28 338 74.29 337.88 74.3 337.76 74.31 337.64 74.31 337.52 74.32 337.4 74.33 337.29 74.34 337.17 74.35 337.05 74.36 336.93 74.37 336.81 74.38 336.69 74.39 336.57 74.4 336.45 74.41 336.33 74.42 336.2 74.43 336.08 74.44 335.96 74.46 335.84 74.47 335.72 74.48 335.6 74.49 335.48 74.51 335.36 74.52 335.24 74.53 335.11 74.55 334.99 74.56 334.87 74.58 334.75 74.59 334.62 74.61 334.5 74.63 334.38 74.64 334.25 74.66 334.13 74.67 334.01 74.69 333.88 74.71 333.76 74.73 333.64 74.74 333.51 74.76 333.39 74.78 333.26 74.8 333.14 74.82 333.02 74.84 332.89 74.86 332.77 74.88 332.64 74.9 332.52 74.92 332.4 74.94 332.27 74.97 332.15 74.99 332.02 75.02 331.9 75.05 331.78 75.07 331.65 75.1 331.53 75.13 331.4 75.15 331.28 75.18 331.16 75.21 331.03 75.24 330.91 75.27 330.78 75.3 330.66 75.33 330.53 75.36 330.41 75.39 330.28 75.42 330.16 75.44 330.03 75.47 329.91 75.51 329.78 75.54 329.66 75.57 329.53 75.6 329.41 75.63 329.28 75.67 329.15 75.7 329.03 75.73 328.9 75.76 328.78 75.8 328.65 75.83 328.53 75.86 328.4 75.9 328.27 75.93 328.15 75.97 328.02 76 327.89 76.04 327.77 76.07 327.64 76.11 327.52 76.14 327.39 76.18 327.26 76.22 327.14 76.25 327.01 76.29 326.88 76.33 326.76 76.37 326.63 76.4 326.5 76.44 326.37 76.48 326.25 76.52 326.12 76.54 326.04 76.56 325.99 76.6 325.87 76.65 325.74 76.69 325.62 76.73 325.49 76.78 325.37 76.83 325.24 76.87 325.12 76.92 324.99 76.96 324.87 77.01 324.74 77.05 324.62 77.1 324.49 77.15 324.37 77.19 324.24 77.24 324.11 77.29 323.99 77.34 323.86 77.38 323.74 77.43 323.61 77.48 323.49 77.53 323.36 77.58 323.24 77.63 323.11 77.68 322.98 77.73 322.86 77.74 322.82 77.78 322.73 77.83 322.61 77.89 322.49 77.94 322.36 78 322.24 78.06 322.12 78.11 321.99 78.17 321.87 78.22 321.75 78.28 321.62 78.34 321.5 78.39 321.38 78.45 321.25 78.51 321.13 78.57 321.01 78.63 320.88 78.68 320.76 78.74 320.64 78.8 320.51 78.86 320.39 78.92 320.27 78.98 320.15 79.04 320.02 79.1 319.9 79.13 319.83 79.16 319.78 79.22 319.66 79.29 319.54 79.35 319.42 79.42 319.3 79.48 319.18 79.55 319.05 79.61 318.93 79.68 318.81 79.75 318.69 79.81 318.57 79.88 318.45 79.94 318.33 80.01 318.21 80.08 318.09 80.14 317.97 80.21 317.85 80.28 317.73 80.35 317.61 80.42 317.49 80.48 317.37 80.55 317.25 80.62 317.13 80.69 317.01 80.76 316.89 80.83 316.77 80.9 316.65 80.97 316.53 81.04 316.41 81.11 316.29 81.18 316.18 81.25 316.06 81.32 315.94 81.39 315.82 81.46 315.7 81.53 315.58 81.6 315.46 81.68 315.34 81.75 315.22 81.82 315.1 81.89 314.99 81.97 314.87 82.04 314.75 82.11 314.63 82.18 314.51 82.26 314.39 82.33 314.27 82.34 314.25 82.41 314.16 82.48 314.04 82.56 313.92 82.63 313.8 82.71 313.69 82.78 313.57 82.86 313.45 82.93 313.34 83.01 313.22 83.09 313.1 83.16 312.99 83.24 312.87 83.32 312.75 83.39 312.64 83.47 312.52 83.55 312.4 83.63 312.29 83.7 312.17 83.78 312.06 83.86 311.94 83.94 311.82 84.02 311.71 84.1 311.59 84.18 311.48 84.25 311.36 84.33 311.25 84.41 311.13 84.49 311.01 84.57 310.9 84.65 310.79 84.73 310.67 84.81 310.56 84.89 310.44 84.97 310.33 85.06 310.21 85.14 310.1 85.22 309.98 85.3 309.87 85.38 309.75 85.46 309.64 85.55 309.53 85.63 309.41 85.71 309.3 85.79 309.19 85.87 309.07 85.96 308.96 86.04 308.85 86.12 308.73 86.21 308.62 86.29 308.5 86.37 308.39 86.46 308.28 86.54 308.17 86.63 308.06 86.71 307.94 86.79 307.83 86.88 307.72 86.96 307.61 87.05 307.5 87.14 307.38 87.22 307.27 87.31 307.16 87.39 307.05 87.48 306.94 87.57 306.83 87.65 306.72 87.74 306.61 87.83 306.5 87.91 306.39 88 306.28 88.09 306.17 88.18 306.06 88.27 305.95 88.35 305.84 88.44 305.73 88.53 305.62 88.62 305.51 88.71 305.4 88.8 305.3 88.88 305.19 88.97 305.08 89.06 304.97 89.15 304.86 89.24 304.75 89.33 304.65 89.42 304.54 89.51 304.43 89.6 304.32 89.69 304.22 89.78 304.11 89.87 304 89.96 303.9 90.05 303.79 90.14 303.68 90.23 303.58 90.32 303.47 90.42 303.36 90.51 303.26 90.6 303.15 90.69 303.05 90.78 302.94 90.87 302.83 90.97 302.73 91.06 302.63 91.15 302.52 91.24 302.42 91.33 302.31 91.43 302.21 91.52 302.1 91.61 302 91.71 301.89 91.8 301.79 91.89 301.69 91.99 301.58 92.08 301.48 92.17 301.38 92.27 301.27 92.36 301.17 92.45 301.07 92.55 300.96 92.64 300.86 92.74 300.76 92.83 300.66 92.93 300.56 93.02 300.45 93.12 300.35 93.21 300.25 93.31 300.15 93.4 300.05 93.5 299.95 93.59 299.85 93.69 299.75 93.78 299.65 93.88 299.55 93.97 299.45 94.07 299.35 94.17 299.25 94.26 299.15 94.36 299.05 94.46 298.95 94.55 298.85 94.65 298.75 94.75 298.65 94.84 298.56 94.94 298.46 95.04 298.36 95.13 298.26 95.23 298.16 95.33 298.07 95.43 297.97 95.52 297.87 95.62 297.78 95.72 297.68 95.82 297.58 95.92 297.49 96.01 297.39 96.11 297.29 96.21 297.2 96.31 297.1 96.41 297.01 96.51 296.91 96.61 296.82 96.7 296.72 96.8 296.63 96.9 296.53 97 296.44 97.1 296.35 97.2 296.25 97.3 296.16 97.4 296.06 97.5 295.97 97.6 295.88 97.7 295.79 97.8 295.69 97.9 295.6 98 295.51 98.1 295.42 98.2 295.33 98.3 295.24 98.4 295.14 98.5 295.05 98.6 294.96 98.7 294.87 98.8 294.78 98.9 294.69 99 294.6 99.1 294.51 99.2 294.42 99.31 294.33 99.41 294.24 99.51 294.15 99.61 294.06 99.71 293.98 99.81 293.89 99.92 293.8 99.93 293.79 100.02 293.71 100.12 293.63 100.22 293.54 100.33 293.45 100.43 293.37 100.53 293.28 100.64 293.2 100.74 293.11 100.84 293.02 100.94 292.94 101.05 292.86 101.15 292.77 101.25 292.69 101.36 292.6 101.46 292.52 101.56 292.44 101.67 292.35 101.77 292.27 101.88 292.19 101.98 292.1 102.08 292.02 102.19 291.94 102.29 291.86 102.4 291.78 102.5 291.69 102.61 291.61 102.71 291.53 102.81 291.45 102.92 291.37 103.02 291.29 103.13 291.21 103.23 291.13 103.34 291.05 103.44 290.97 103.55 290.89 103.65 290.82 103.76 290.74 103.86 290.66 103.97 290.58 104.07 290.5 104.18 290.43 104.28 290.35 104.39 290.27 104.5 290.2 104.6 290.12 104.71 290.04 104.81 289.97 104.92 289.89 105.02 289.82 105.13 289.74 105.23 289.67 105.34 289.59 105.45 289.52 105.55 289.44 105.66 289.37 105.77 289.3 105.87 289.22 105.98 289.15 106.08 289.08 106.19 289.01 106.3 288.93 106.4 288.86 106.51 288.79 106.62 288.72 106.72 288.65 106.83 288.58 106.94 288.51 107.04 288.44 107.15 288.37 107.26 288.3 107.36 288.23 107.47 288.16 107.58 288.09 107.69 288.02 107.79 287.95 107.9 287.88 108.01 287.82 108.11 287.75 108.22 287.68 108.33 287.62 108.44 287.55 108.54 287.48 108.65 287.42 108.76 287.35 108.87 287.29 108.97 287.22 109.08 287.16 109.19 287.09 109.3 287.03 109.41 286.96 109.51 286.9 109.62 286.84 109.73 286.77 109.84 286.71 109.95 286.65 110.05 286.59 110.16 286.53 110.27 286.46 110.38 286.4 110.49 286.34 110.59 286.28 110.7 286.22 110.81 286.16 110.92 286.1 111.03 286.04 111.14 285.98 111.25 285.93 111.36 285.87 111.46 285.81 111.57 285.75 111.68 285.69 111.79 285.64 112.04 285.5 112.19 285.43 112.34 285.35 112.49 285.27 112.64 285.19 112.79 285.11 112.95 285.02 113.1 284.94 113.26 284.86 113.41 284.77 113.57 284.68 113.73 284.6 113.89 284.51 114.05 284.42 114.22 284.33 114.38 284.24 114.71 284.06 115.04 283.87 115.38 283.68 115.68 283.51 115.72 283.49 116.07 283.3 116.42 283.1 117.13 282.71 117.49 282.51 117.85 282.31 118.22 282.11 118.58 281.91 118.95 281.71 119.14 281.61 119.33 281.5 119.52 281.4 119.7 281.3 119.89 281.2 120.08 281.1 120.27 280.99 120.46 280.89 120.65 280.79 120.84 280.69 121.03 280.59 121.23 280.48 121.42 280.38 121.61 280.28 121.81 280.18 122 280.08 122.2 279.98 122.39 279.88 122.5 279.82 122.59 279.78 122.79 279.68 122.98 279.58 123.18 279.48 123.38 279.38 123.58 279.29 123.78 279.19 123.98 279.1 124.18 279 124.38 278.9 124.58 278.81 124.78 278.71 124.98 278.62 125.18 278.53 125.38 278.44 125.59 278.34 125.79 278.25 125.99 278.16 126.19 278.07 126.3 278.03 126.4 277.98 126.5 277.94 126.6 277.89 126.7 277.85 126.8 277.81 126.91 277.76 127.01 277.72 127.11 277.68 127.21 277.63 127.31 277.59 127.42 277.55 127.52 277.5 127.62 277.46 127.72 277.42 127.83 277.38 127.93 277.34 128.03 277.3 128.13 277.25 128.24 277.21 128.26 277.2 128.34 277.18 128.45 277.14 128.55 277.1 128.66 277.07 128.76 277.03 128.86 276.99 128.97 276.96 129.07 276.92 129.18 276.89 129.28 276.85 129.39 276.82 129.49 276.78 129.6 276.75 129.7 276.72 129.81 276.68 129.91 276.65 130.01 276.62 130.12 276.58 130.22 276.55 130.33 276.52 130.43 276.49 130.54 276.46 130.64 276.43 130.66 276.42 130.75 276.4 130.86 276.37 130.96 276.35 131.07 276.32 131.18 276.29 131.28 276.27 131.39 276.24 131.5 276.22 131.6 276.2 131.71 276.17 131.81 276.15 131.92 276.12 132.03 276.1 132.13 276.08 132.24 276.06 132.34 276.04 132.45 276.01 132.56 275.99 132.66 275.97 132.77 275.95 132.88 275.93 132.98 275.91 133.09 275.89 133.19 275.88 133.3 275.86 133.38 275.85 133.41 275.84 133.51 275.83 133.62 275.81 133.73 275.8 133.83 275.79 133.94 275.78 134.05 275.77 134.15 275.75 134.26 275.74 134.37 275.73 134.47 275.72 134.58 275.71 134.69 275.7 134.79 275.7 134.9 275.69 135 275.68 135.11 275.67 135.21 275.67 135.32 275.66 135.43 275.65 135.53 275.65 135.64 275.64 135.74 275.64 135.85 275.63 135.95 275.63 136.06 275.63 136.16 275.63 136.27 275.63 136.37 275.63 136.49 275.62 136.56 275.62 136.63 275.61 136.69 275.61 136.75 275.61 136.84 275.61 136.93 275.62 137.02 275.62 137.11 275.63 137.21 275.64 137.32 275.65 137.43 275.67 137.55 275.68 137.67 275.69 137.8 275.71 138.07 275.75 138.37 275.78 138.68 275.82 139.01 275.87 139.07 275.88 139.71 275.99 140.45 276.12 140.82 276.18 141.19 276.24 141.56 276.31 141.93 276.37 142.29 276.43 142.46 276.46 142.63 276.49 142.8 276.52 142.97 276.55 143.13 276.57 143.29 276.6 143.44 276.62 143.58 276.65 143.72 276.67 143.86 276.69 143.99 276.71 144.11 276.73 144.22 276.75 144.32 276.76 144.42 276.77 144.46 276.78 144.5 276.79 144.54 276.79 144.58 276.8 144.61 276.8 144.65 276.81 144.64 276.81 144.67 276.81 144.7 276.82 144.68 276.82 144.71 276.82 144.73 276.82 144.71 276.83 144.74 276.83 144.71 276.83 144.74 276.83 144.74 276.83 144.71 276.84 144.74 276.84 144.7 276.85 144.72 276.85 144.67 276.86 144.69 276.86 144.63 276.87 144.65 276.87 144.59 276.88 144.6 276.88 144.55 276.9 144.56 276.9 144.5 276.92 144.51 276.92 144.44 276.94 144.44 276.94 144.36 276.98 144.37 276.98 144.26 277.03 144.27 277.03 144.14 277.1 144.14 277.1 143.99 277.22 143.99 277.22 143.8 277.41 143.8 277.4 143.6 277.69 143.6 277.69 143.43 278.11 143.38 278.61 143.51 277.94 143.86 277.37 144.39 276.97 145.03 276.8 145.03 276.8 145.03 276.8 145.03 276.8 145.62 276.91 146.16 277.26 146.59 277.79 146.84 278.45 146.84 278.45 146.84 278.45 146.84 278.71 146.79 278.96 146.79 278.96 146.72 279.18 146.62 279.38 146.54 279.54 146.33 279.78 146.15 279.93 146 280.03 145.88 280.1 145.78 280.15 145.7 280.18 145.63 280.21 145.58 280.23 145.51 280.25 145.44 280.27 145.37 280.29 145.3 280.3 145.25 280.32 145.25 280.32 145.19 280.33 145.14 280.34 145.09 280.35 145.04 280.36 144.99 280.37 144.94 280.39 144.89 280.4 144.84 280.41 144.78 280.42 144.73 280.43 144.68 280.44 144.62 280.46 144.5 280.48 144.38 280.51 144.25 280.53 144.12 280.56 143.98 280.59 143.83 280.62 143.68 280.65 143.53 280.68 143.37 280.71 143.21 280.74 143.04 280.77 142.87 280.81 142.69 280.84 142.52 280.87 142.34 280.91 141.97 280.98 141.6 281.04 141.23 281.11 140.85 281.18 140.47 281.25 139.74 281.39 139.1 281.5 139.04 281.51 138.72 281.56 138.41 281.6 138.12 281.65 137.86 281.69 137.74 281.7 137.63 281.72 137.52 281.74 137.43 281.75 137.34 281.77 137.27 281.78 137.21 281.8 137.16 281.81 137.13 281.82 137.09 281.82 137.13 281.82 137.11 281.83 137.14 281.82 137.12 281.83 137.16 281.83 137.15 281.83 137.21 281.82 137.19 281.83 137.24 281.82 137.16 281.84 137.09 281.87 137.09 281.87"/><path class="cls-5" d="M194.12,321.76v0l0,0v0l0,0,0,0,0,0,0,0v0l0,0,0,0,0,0,0,0,0,0,0,0,0,0,0,0,0,0,0,0,0,0,0,0,0,0,0,0,0,0v0l0,0,0,0,0,0,0,0,0,0,0,0,0,0,0,0v0l0,0,0,0v0l0,0,0,0v0l0,0v0l0,0v0l0,0v.13l0,0v.22h0v.18l0,0v0l0,0v0l0,0v0l0,0v0l0,0v0l0,.16,0,.18v0l0,.14,0,.17-.05.18,0,.17,0,.17-.05.17,0,.17-.05.18,0,.17-.05.17,0,.17-.05.17,0,.18,0,.17-.05.17-.05.17,0,.17-.05.17,0,.17-.05.17,0,.17-.05.17,0,.18,0,.07,0,.09-.06.17-.06.17,0,.16-.06.17-.11.33-.12.33-.11.33-.07.2-.05.13-.14.32-.13.32-.13.32-.14.32-.13.32v0l-.14.29-.15.32-.14.31-.15.31-.15.31-.15.31-.29.61-.3.62-.29.62-.3.61,0,.09-.26.52-.15.3-.14.31-.15.3-.15.31-.15.3-.14.3-.15.3-.15.31-.14.3-.15.3-.14.3-.14.31-.14.3-.15.3-.07.15-.07.15-.07.15-.07.16-.06.12v0l-.07.15-.07.15-.07.15-.07.15-.07.15-.07.15-.07.15-.07.15-.07.15-.06.15-.07.15-.07.15-.07.15-.07.15L185,344l-.06.13-.06.14-.06.13-.06.14-.06.14-.06.14-.06.14-.06.14-.07.14-.06.15-.06.14-.06.15-.06.15-.07.15-.06.15-.06.15-.07.16-.06.15-.07.16-.06.16-.06.16-.07.16-.06.16-.07.16-.07.17-.06.16-.07.17-.06.16-.07.17-.06.17-.07.17-.07.17-.06.18-.07.17-.07.18-.06.17-.07.18-.07.18-.07.18-.06.18-.07.18-.07.18-.07.18-.07.19-.06.18-.07.19-.07.19-.07.18-.07.19-.06.19-.07.19-.07.19-.07.2-.07.19-.06.19-.07.2-.07.19-.07.2-.07.2-.07.19-.06.2-.07.2-.07.2-.07.2h0l-.07.19-.07.21-.07.2-.07.2-.06.2-.07.21-.07.2-.07.21-.07.21-.07.2-.07.21-.07.21-.07.21-.07.21-.07.21-.06.21-.07.21-.07.21-.07.21-.06.21-.07.22-.07.21-.07.22-.06.21-.07.21-.07.22-.06.22-.07.21-.06.22-.07.22-.07.21-.06.22-.07.22-.06.22-.06.22-.07.22-.06.22-.07.22-.06.22-.06.22-.06.22-.07.22-.06.22-.06.22-.06.22-.06.23-.06.22-.06.22-.06.22-.06.23-.06.22-.06.22-.06.23-.06.22-.05.22-.06.23-.06.22-.06.23-.05.22-.06.22,0,.23-.06.22-.05.23,0,.15,0,.07,0,.22-.06.23-.05.22-.06.22-.05.23,0,.22-.06.23-.05.22,0,.22-.05.23-.06.22,0,.22-.05.23-.05.22,0,.22,0,.22-.05.23-.05.22,0,.22,0,.22,0,.23,0,.22-.05.22,0,.22,0,.22,0,.22v.08l0,.14-.05.22,0,.22,0,.22,0,.22,0,.22,0,.21,0,.22,0,.22,0,.22,0,.21,0,.22,0,.21,0,.22,0,.21,0,.22,0,.21,0,.22,0,.21,0,.21,0,.22,0,.21v0l0,.17,0,.21,0,.21,0,.2,0,.21,0,.21,0,.1,0,.11,0,.1v.1l0,.11,0,.1v.1l0,.11v.1l0,.1,0,.1v.1l0,.11,0,.1,0,.1,0,.1,0,.1,0,.1v.1l0,.1,0,.1,0,.1,0,.1,0,.1,0,.1v.1l0,.1,0,.1,0,.1v.1l0,.1,0,.1v.1l0,.1,0,.09v.2l0,.1,0,.1,0,.09,0,.1,0,.1,0,.1,0,.09v.1l0,.1,0,.09,0,.1,0,.1v.09l0,.1,0,.09v.1l0,.09,0,.1v.09l0,.1v.09l0,.1v.09l0,.1v.09l0,.09V387l0,.1v.27l0,.1v.64l0,.09v.91l0,.08v5h0l-.14.84-.5.5h0l-.71-.09-.61-.58h0l0-.08,0-.07,0-.08,0-.08,0-.08,0-.08,0-.08,0-.07,0-.08,0-.08,0-.09,0-.08,0-.08,0-.08,0-.08,0-.09,0-.08,0-.08,0-.09,0-.08,0-.09,0-.08,0-.09,0-.08,0-.09,0-.09,0-.08,0-.09,0-.09,0-.09,0-.09,0-.08,0-.09,0-.09,0-.09,0-.09,0-.09,0-.1,0-.09,0-.09,0-.09,0-.09,0-.1,0-.09,0-.09,0-.1,0-.09,0-.1,0-.09,0-.1,0-.09,0-.1,0-.09,0-.1,0-.1,0-.09,0-.1,0-.1,0-.1,0-.1,0-.07v0l0-.1,0-.1,0-.1,0-.1,0-.1,0-.11,0-.1,0-.1,0-.1,0-.1,0-.1,0-.11,0-.1,0-.1,0-.11,0-.1,0-.1,0-.11,0-.1,0-.11,0-.1,0-.11,0-.1,0-.11,0-.1,0-.11,0-.1,0-.11,0-.11,0-.1v-.11l0-.11,0-.11,0-.1,0-.11,0-.11,0-.11v-.11l0-.11,0-.11v-.11l0-.11,0-.11,0-.11v-.11l0-.11v-.11l0-.11,0-.11v-5.75l0-.23,0-.24,0-.23,0-.24,0-.23,0-.24,0-.24,0-.23,0-.24,0-.24,0-.24,0-.24,0-.23,0-.24,0-.24,0-.24,0-.24,0-.24,0-.24,0-.24,0-.24,0-.15,0-.09,0-.24,0-.24,0-.24,0-.24,0-.24,0-.24,0-.24,0-.24,0-.24,0-.24,0-.24,0-.24,0-.24,0-.25,0-.24,0-.24.05-.24,0-.24.05-.24,0-.24,0-.24,0-.24.05-.24,0-.24.05-.24.05-.24,0-.08,0-.16.06-.24.05-.24,0-.24.06-.24.05-.24.06-.24.06-.23,0-.24.06-.24.06-.24.05-.24.06-.23.06-.24.06-.24.06-.23L170,363l.06-.24.06-.23.06-.24.06-.23.06-.24.06-.23.06-.24.07-.23.06-.23.06-.24.06-.23.07-.23.06-.23.06-.24.07-.23.06-.23.07-.23.06-.23.07-.23.06-.23.07-.22.06-.23.07-.23.07-.23.06-.22.07-.23.07-.22.06-.23.07-.22.07-.23.07-.22.06-.22.07-.23.07-.22.07-.22.07-.22.06-.22.07-.22.07-.21.07-.22.07-.22.07-.21.07-.22.07-.21.07-.22.07-.21.07-.21.07-.22.07-.21.07-.21.07-.21.08-.2.07-.21.07-.21.07-.2.07-.21.08-.2.07-.2.07-.21.07-.2.08-.2.07-.2.07-.2.07-.2.07-.19.08-.2.07-.19.07-.2.07-.19.07-.19.07-.2.08-.19.07-.19.07-.18.07-.19.07-.19.07-.18.08-.19.07-.18.07-.18.07-.19.07-.18.07-.17.07-.18.07-.18.07-.18.07-.17.07-.17.07-.18.07-.17.07-.17.07-.17.07-.17.07-.16.07-.17.06-.16.07-.17.07-.16.07-.16.07-.16.06-.16.07-.15.07-.16.07-.15.06-.16.07-.15.07-.15.06-.15.07-.15.06-.14.07-.15.07-.16.07-.16.08-.16.07-.17.07-.16.08-.16.07-.16.08-.16.07-.16.07-.16.08-.16.07-.16.08-.16.07-.16.08-.15v0l.06-.13.08-.16.08-.16.08-.16.07-.15.16-.32.15-.31.16-.31.15-.31.16-.31.16-.31.15-.31.16-.31.16-.31.15-.31.16-.31.16-.3.16-.31.15-.31.27-.52.05-.08.32-.61.32-.6.32-.6.32-.61.16-.29.15-.3.16-.3.16-.3.16-.3.14-.28v0l.17-.29.17-.29.17-.29.17-.29.17-.29.07-.12.1-.17.19-.28.18-.29.18-.28.09-.14.09-.14.09-.14.09-.14,0-.08,0-.06.1-.14.1-.14.09-.14.1-.14.1-.14.09-.13.1-.14.1-.14.09-.14.1-.14.09-.14.1-.14.09-.14.1-.14.09-.14.09-.13.1-.14.09-.14.09-.14.1-.14.09-.14.09-.15.08-.11,0,0,.1-.13.1-.15,0-.06,0-.06,0-.07,0-.06,0-.05,0-.06,0-.06,0,0,0-.05,0-.05,0-.05,0-.05,0,0,0-.05,0-.05,0,0,0,0,.05,0,0-.05,0,0,0,0,0-.05,0,0,0,0,0,0,0,0,0,0,0,0,0,0,0,0,0,0,0,0,0,0,0,0,.05,0,0,0,.05,0,0,0,0,0,.05,0,.05,0,0,0,.05,0,0,0,0,0,.05,0,.05,0,0,0,0,0,0,0,.05,0,0,0,.05,0,0,0,.05,0,0,0,.05,0,0,0,.05,0,0,0,.05,0,0,0,.05,0,.05,0,0,0,0,0,.05,0,0,0,.05,0,.05,0,0,0,0,0,.05,0,0,0,.05,0,0,0,0,0,0,0,0,0,0,0,.05,0,0,0,.05,0,0,0,.05,0,0,0,.05,0,0,0,.05,0,.06,0,.05,0,0,0,.06,0,.06,0,.06,0,.07,0,.07,0,.08,0,.07,0,.05,0h1l.1,0,.1,0,.1,0,.11,0,.1.05.1.06.11.07.09.07.1.08.08.08.09.09.07.1.07.09,0,.1.06.09,0,.1,0,.09,0,.09,0,.08,0,.08,0,.08v.9l0,0v.05l0,0h0l-.38.59-.53.43-.2.08,0,0v0h0l0,0,0,0h0l0,0,0,0Zm.08-.13Zm-2.23-2h0v0h0v0h0v0h0v0h0v0h0v0h0v.06h0v0h0v0h0v.05h0v0h0V320h0V320h0v.06h0v.06h0v.06h0l0,.07h0l0,.07h0l0,.08h0l0,.08h0l0,.08h0l0,.08h0l.05.08h0l.06.09h0l.06.09h0l.07.09h0l.08.09h0l.08.08h0l-.09-.11-.26-.64-.09-.72v0Z"/></g><path class="cls-6" d="M429.33,304.41s-16.61,19.33-34.05,30c-33.54,20.48-69.47,38.61-95.3-5.56-5.3-9.06-18.8-37.62-12.8-49.34,7.32-14.31,96.43-5.9,116.64-30.58,14.22-17.37,43.11-95.3,75.39-84.78,15.58,5.07-5.68,49.32-8.54,55.59-1.29,2.84-4.26,8.34-4.26,8.34a23.8,23.8,0,0,1,2.84-4.17c5.84-5.7,24.1-23,34.14-18.07,7.91,3.87,10.4,42.83,9.25,50.73-3.23,22.08-38,59.51-64,49.35-2.46-1-19.3-1.49-19.3-1.49Z"/><g class="cls-7"><path class="cls-8" d="M438.63,263.16C450.38,254,455.3,236,465.21,225.33c6.07-6.53,38-43.1,48.67-39,7.6,3-5.32,33.07-7.55,36.49-17.13,26.29-41.13,38.95-73.43,38.95"/><path class="cls-8" d="M398.62,241.12c-.1.17,2-6.24,2.82-8,3.34-7,7.4-13.46,10.48-20.5,8-18.15,21.13-39.48,36.09-52.88,2.75-2.47,11.79-11.71,16.78-8.2,20.22,14.23-28.6,74.3-40.28,84.45-3.87,3.36-19.42,16.55-24.75,13.94"/><polygon class="cls-9" points="424.34 291.68 424.35 291.68 424.32 291.68 424.29 291.69 424.3 291.69 424.27 291.7 424.24 291.71 424.25 291.71 424.22 291.72 424.2 291.73 424.2 291.72 424.18 291.73 424.15 291.74 424.15 291.74 424.13 291.75 424.1 291.76 424.11 291.76 424.08 291.77 424.05 291.78 424.06 291.78 424.03 291.79 424 291.8 424.01 291.8 423.98 291.81 423.95 291.82 423.96 291.82 423.93 291.83 423.9 291.84 423.91 291.84 423.88 291.85 423.85 291.87 423.86 291.86 423.83 291.87 423.81 291.89 423.78 291.9 423.76 291.91 423.73 291.92 423.71 291.94 423.68 291.95 423.66 291.96 423.63 291.97 423.61 291.99 423.58 292 423.56 292.01 423.53 292.03 423.5 292.04 423.48 292.06 423.48 292.05 423.45 292.07 423.4 292.1 423.35 292.13 423.3 292.16 423.25 292.19 423.19 292.22 423.14 292.25 423.09 292.29 423.04 292.32 422.98 292.35 422.93 292.39 422.88 292.43 422.82 292.46 422.77 292.5 422.71 292.54 422.66 292.58 422.61 292.62 422.55 292.66 422.5 292.7 422.44 292.74 422.39 292.78 422.33 292.83 422.28 292.87 422.22 292.92 422.17 292.96 422.11 293.01 422.05 293.05 422 293.1 421.94 293.15 421.89 293.2 421.83 293.25 421.77 293.3 421.72 293.35 421.66 293.4 421.6 293.45 421.55 293.5 421.49 293.56 421.43 293.61 421.38 293.66 421.32 293.72 421.26 293.77 421.2 293.83 421.15 293.88 421.09 293.94 421.03 294 420.97 294.06 420.92 294.12 420.86 294.18 420.8 294.24 420.74 294.3 420.68 294.36 420.62 294.42 420.57 294.48 420.51 294.54 420.45 294.61 420.39 294.67 420.33 294.73 420.27 294.8 420.22 294.86 420.16 294.93 420.1 294.99 420.04 295.06 419.98 295.13 419.92 295.19 419.86 295.26 419.81 295.33 419.77 295.36 419.75 295.39 419.68 295.46 419.62 295.53 419.56 295.59 419.5 295.66 419.44 295.73 419.38 295.8 419.32 295.87 419.26 295.93 419.19 296 419.13 296.07 419.07 296.14 419.01 296.21 418.95 296.28 418.89 296.35 418.83 296.43 418.76 296.5 418.7 296.57 418.64 296.64 418.58 296.71 418.52 296.79 418.46 296.86 418.4 296.93 418.33 297 418.27 297.08 418.21 297.15 418.15 297.23 418.09 297.3 418.03 297.38 417.9 297.53 417.78 297.68 417.66 297.83 417.54 297.98 417.42 298.13 417.29 298.29 417.17 298.44 417.05 298.6 416.93 298.76 416.81 298.91 416.68 299.07 416.56 299.23 416.44 299.38 416.32 299.54 416.2 299.7 416.08 299.86 415.96 300.01 415.84 300.17 415.72 300.33 415.68 300.39 415.6 300.49 415.48 300.64 415.35 300.79 415.23 300.94 414.98 301.25 414.74 301.55 414.5 301.85 414.02 302.45 413.78 302.74 413.55 303.04 413.46 303.13 413.43 303.18 413.3 303.32 413.18 303.45 413.06 303.59 412.94 303.73 412.82 303.86 412.7 304 412.58 304.13 412.47 304.26 412.35 304.39 412.23 304.52 412.11 304.65 412 304.77 411.88 304.9 411.77 305.02 411.65 305.15 411.54 305.27 411.42 305.39 411.31 305.51 411.25 305.57 411.19 305.62 411.13 305.68 411.08 305.74 411.03 305.79 411.02 305.8 410.96 305.85 410.9 305.91 410.84 305.96 410.78 306.02 410.73 306.07 410.67 306.12 410.61 306.18 410.55 306.23 410.49 306.28 410.43 306.33 410.37 306.38 410.31 306.44 410.25 306.49 410.19 306.54 410.14 306.59 410.08 306.64 410.02 306.69 409.96 306.74 409.9 306.79 409.83 306.84 409.78 306.88 409.58 307.04 409.39 307.19 409.2 307.34 409.01 307.49 408.81 307.64 408.62 307.79 408.42 307.94 408.23 308.09 408.03 308.24 407.83 308.39 407.64 308.54 407.44 308.69 407.24 308.84 407.04 308.99 406.84 309.14 406.64 309.28 406.44 309.43 406.23 309.58 406.03 309.73 405.83 309.87 405.62 310.02 405.42 310.17 405.4 310.18 405.21 310.31 405 310.46 404.79 310.6 404.58 310.75 404.38 310.89 404.17 311.04 403.95 311.18 403.74 311.32 403.53 311.46 403.32 311.61 403.11 311.75 402.89 311.89 402.68 312.03 402.46 312.18 402.25 312.32 402.03 312.46 401.81 312.6 401.6 312.74 401.38 312.88 401.16 313.02 400.94 313.16 400.72 313.3 400.5 313.44 400.28 313.58 400.06 313.71 399.84 313.85 399.62 313.99 399.4 314.13 399.17 314.27 398.95 314.4 398.73 314.54 398.5 314.68 398.28 314.81 398.18 314.87 398.05 314.95 397.82 315.08 397.6 315.22 397.37 315.35 397.14 315.48 396.91 315.62 396.68 315.75 396.45 315.88 396.22 316.01 395.99 316.14 395.76 316.28 395.53 316.41 395.29 316.54 395.06 316.67 394.83 316.8 394.6 316.93 394.36 317.06 394.13 317.19 393.89 317.32 393.66 317.44 393.42 317.57 393.19 317.7 392.95 317.83 392.71 317.95 392.48 318.08 392.24 318.21 392 318.33 391.76 318.46 391.52 318.58 391.29 318.71 391.05 318.83 390.81 318.96 390.57 319.08 390.33 319.21 390.08 319.33 389.84 319.45 389.6 319.58 389.36 319.7 389.12 319.82 388.88 319.94 388.63 320.06 388.39 320.19 388.15 320.31 387.9 320.43 387.66 320.55 387.42 320.67 387.17 320.78 386.93 320.9 386.68 321.02 386.44 321.14 386.19 321.26 385.94 321.37 385.7 321.49 385.45 321.61 385.2 321.72 384.96 321.84 384.71 321.95 384.46 322.07 384.21 322.18 383.97 322.3 383.72 322.41 383.47 322.52 383.22 322.64 382.97 322.75 382.72 322.86 382.47 322.97 382.22 323.08 381.97 323.2 381.72 323.31 381.47 323.42 381.22 323.53 380.97 323.63 380.72 323.75 380.47 323.85 380.32 323.92 380.22 323.96 379.97 324.07 379.72 324.17 379.46 324.28 379.21 324.38 378.96 324.49 378.7 324.59 378.45 324.69 378.2 324.8 377.95 324.9 377.69 325 377.44 325.1 377.19 325.2 376.93 325.3 376.68 325.4 376.42 325.5 376.17 325.6 375.92 325.7 375.66 325.8 375.41 325.9 375.15 325.99 374.9 326.09 374.64 326.19 374.39 326.28 374.13 326.38 373.88 326.48 373.62 326.57 373.37 326.66 373.11 326.76 372.86 326.85 372.6 326.94 372.35 327.04 372.09 327.13 371.84 327.22 371.58 327.31 371.33 327.4 371.07 327.49 370.82 327.58 370.56 327.67 370.31 327.76 370.05 327.85 369.79 327.93 369.54 328.02 369.28 328.11 369.03 328.19 368.77 328.28 368.52 328.36 368.26 328.45 368.01 328.53 367.75 328.62 367.5 328.7 367.24 328.78 366.99 328.86 366.73 328.94 366.48 329.03 366.22 329.11 365.96 329.19 365.71 329.27 365.46 329.35 365.2 329.42 364.95 329.5 364.69 329.58 364.44 329.66 364.18 329.73 363.93 329.81 363.67 329.88 363.42 329.96 363.17 330.03 362.91 330.11 362.66 330.18 362.4 330.25 362.15 330.32 361.9 330.4 361.64 330.47 361.55 330.49 361.39 330.54 361.14 330.6 360.88 330.67 360.63 330.74 360.38 330.81 360.13 330.87 359.87 330.94 359.62 331 359.37 331.07 359.12 331.13 358.86 331.19 358.61 331.26 358.36 331.32 358.11 331.38 357.86 331.44 357.61 331.5 357.36 331.56 357.11 331.62 356.85 331.68 356.6 331.74 356.35 331.79 356.1 331.85 355.86 331.91 355.61 331.96 355.36 332.02 355.11 332.07 354.86 332.13 354.61 332.18 354.36 332.23 354.12 332.28 353.87 332.33 353.62 332.39 353.37 332.44 353.32 332.45 353.13 332.48 352.88 332.53 352.63 332.58 352.39 332.62 352.14 332.67 351.89 332.71 351.65 332.76 351.4 332.8 351.16 332.85 350.91 332.89 350.67 332.93 350.43 332.97 350.18 333.01 349.94 333.05 349.7 333.09 349.45 333.13 349.21 333.17 348.97 333.2 348.73 333.24 348.49 333.27 348.1 333.33 347.71 333.39 347.33 333.44 346.96 333.5 346.81 333.52 346.59 333.54 346.41 333.56 346.23 333.58 346.05 333.6 345.87 333.63 345.69 333.64 345.51 333.67 345.34 333.69 345.17 333.71 345 333.73 344.82 333.75 344.65 333.78 344.48 333.8 344.47 333.8 344.4 333.81 344.32 333.81 344.23 333.82 344.15 333.83 344.07 333.84 343.98 333.85 343.9 333.86 343.82 333.87 343.74 333.88 343.65 333.88 343.57 333.89 343.49 333.9 343.41 333.91 343.33 333.92 343.25 333.93 343.17 333.94 343.09 333.95 343.01 333.96 342.93 333.98 342.85 333.99 342.77 334 342.69 334.01 342.61 334.02 342.53 334.03 342.45 334.04 342.38 334.06 342.3 334.07 342.22 334.08 342.14 334.1 342.12 334.1 342.06 334.11 341.99 334.12 341.91 334.13 341.83 334.13 341.75 334.15 341.68 334.16 341.6 334.17 341.52 334.18 341.44 334.19 341.37 334.2 341.29 334.22 341.21 334.23 341.14 334.24 341.06 334.26 340.98 334.27 340.91 334.28 340.83 334.3 340.75 334.31 340.68 334.33 340.6 334.34 340.52 334.36 340.45 334.38 340.37 334.39 340.3 334.41 340.22 334.43 340.14 334.44 340.07 334.46 339.99 334.48 339.92 334.5 339.84 334.52 339.76 334.54 339.69 334.56 339.61 334.57 339.54 334.6 339.46 334.62 339.38 334.64 339.31 334.66 339.23 334.68 339.16 334.7 339.08 334.73 339 334.75 338.93 334.77 338.85 334.8 338.77 334.82 338.7 334.85 338.62 334.88 338.55 334.9 338.47 334.93 338.39 334.96 338.31 334.99 338.24 335.01 338.16 335.04 338.08 335.07 338 335.1 337.93 335.13 337.9 335.14 337.93 335.12 337.9 335.13 337.87 335.15 337.9 335.13 337.89 335.13 337.87 335.14 337.83 335.15 337.86 335.13 337.82 335.15 337.79 335.16 337.81 335.14 337.78 335.16 337.74 335.18 337.76 335.16 337.72 335.18 337.7 335.19 337.67 335.2 337.63 335.21 337.6 335.23 337.57 335.24 337.54 335.26 337.5 335.27 337.47 335.29 337.43 335.31 337.39 335.33 337.35 335.35 337.31 335.37 337.27 335.39 337.23 335.42 337.19 335.44 337.15 335.47 337.11 335.49 337.07 335.52 337.02 335.55 336.98 335.57 336.89 335.63 336.8 335.69 336.7 335.76 336.61 335.82 336.51 335.89 336.31 336.03 336.21 336.1 336.11 336.17 336 336.24 335.89 336.32 335.79 336.39 335.68 336.47 335.62 336.5 335.57 336.54 335.51 336.58 335.46 336.62 335.4 336.66 335.34 336.69 335.29 336.73 335.23 336.77 335.17 336.81 335.11 336.85 335.05 336.88 334.99 336.92 334.93 336.96 334.87 337 334.81 337.04 334.75 337.07 334.69 337.11 334.63 337.14 334.56 337.18 334.5 337.22 334.44 337.25 334.37 337.29 334.31 337.32 334.24 337.36 334.17 337.39 334.1 337.43 334.04 337.46 333.96 337.49 333.89 337.52 333.83 337.55 333.79 337.57 333.75 337.59 333.71 337.6 333.68 337.62 333.64 337.64 333.64 337.63 333.6 337.65 333.56 337.66 333.53 337.68 333.49 337.69 333.45 337.7 333.41 337.72 333.37 337.73 333.33 337.74 333.29 337.76 333.25 337.77 333.21 337.78 333.17 337.79 333.13 337.8 333.09 337.81 333.05 337.82 333 337.84 332.96 337.85 332.92 337.86 332.88 337.87 332.83 337.87 332.79 337.88 332.74 337.89 332.7 337.9 332.65 337.9 332.61 337.91 332.56 337.92 332.52 337.92 332.47 337.93 332.42 337.93 332.38 337.94 332.33 337.94 332.28 337.94 332.23 337.94 332.19 337.95 332.14 337.95 332.09 337.95 332.04 337.95 331.99 337.94 331.94 337.94 331.89 337.94 331.84 337.94 331.79 337.93 331.74 337.93 331.69 337.92 331.64 337.91 331.6 337.9 331.55 337.9 331.5 337.89 331.44 337.88 331.39 337.87 331.35 337.86 331.3 337.84 331.25 337.83 331.2 337.81 331.15 337.8 331.1 337.78 331.05 337.77 331 337.75 330.96 337.73 330.91 337.71 330.86 337.69 330.81 337.67 330.77 337.65 330.72 337.63 330.68 337.6 330.63 337.58 330.59 337.56 330.54 337.53 330.5 337.51 330.46 337.48 330.42 337.45 330.37 337.43 330.34 337.4 330.33 337.4 330.29 337.37 330.25 337.34 330.21 337.31 330.17 337.28 330.13 337.25 330.11 337.22 330.11 337.22 329.67 336.67 329.45 336.03 329.45 335.38 329.68 334.81 329.69 334.81 330.13 334.42 330.73 334.21 331.41 334.19 332.1 334.38 332.1 334.38 332.12 334.39 332.1 334.38 332.12 334.39 332.1 334.38 332.12 334.39 332.1 334.37 332.12 334.38 332.1 334.37 332.12 334.38 332.1 334.36 332.12 334.37 332.1 334.36 332.11 334.36 332.12 334.36 332.1 334.35 332.12 334.36 332.1 334.35 332.12 334.35 332.09 334.34 332.12 334.35 332.09 334.33 332.11 334.34 332.09 334.33 332.11 334.33 332.08 334.32 332.1 334.33 332.08 334.32 332.1 334.32 332.07 334.31 332.09 334.32 332.07 334.31 332.09 334.31 332.06 334.3 332.08 334.3 332.06 334.29 332.08 334.3 332.05 334.29 332.07 334.29 332.04 334.28 332.06 334.29 332.03 334.28 332.06 334.28 332.03 334.27 332.05 334.27 332.02 334.26 332.04 334.27 332.01 334.26 332.03 334.26 332 334.25 332.02 334.25 331.99 334.25 332.01 334.25 331.98 334.24 332 334.24 331.98 334.24 332 334.24 331.97 334.23 331.99 334.23 331.96 334.23 331.98 334.23 331.95 334.22 331.97 334.22 331.94 334.22 331.96 334.22 331.93 334.21 331.95 334.21 331.92 334.21 331.94 334.21 331.91 334.21 331.93 334.2 331.9 334.2 331.92 334.2 331.89 334.2 331.92 334.2 331.89 334.2 331.91 334.19 331.88 334.19 331.9 334.19 331.87 334.19 331.89 334.19 331.86 334.19 331.88 334.18 331.85 334.18 331.87 334.18 331.84 334.18 331.87 334.18 331.84 334.18 331.86 334.17 331.83 334.18 331.85 334.17 331.82 334.17 331.84 334.17 331.82 334.17 331.84 334.16 331.81 334.17 331.83 334.16 331.8 334.16 331.82 334.16 331.8 334.16 331.82 334.15 331.79 334.16 331.81 334.15 331.79 334.16 331.81 334.15 331.78 334.15 331.8 334.15 331.78 334.15 331.8 334.14 331.77 334.15 331.79 334.14 331.77 334.15 331.79 334.14 331.77 334.14 331.79 334.13 331.76 334.14 331.78 334.13 331.76 334.14 331.78 334.13 331.76 334.13 331.78 334.13 331.76 334.13 331.78 334.12 331.76 334.13 331.77 334.12 331.75 334.13 331.77 334.12 331.75 334.12 331.77 334.11 331.75 334.12 331.77 334.11 331.75 334.12 331.77 334.1 331.75 334.11 331.77 334.1 331.75 334.11 331.77 334.1 331.76 334.1 331.77 334.09 331.76 334.1 331.78 334.09 331.76 334.09 331.78 334.08 331.76 334.09 331.78 334.08 331.76 334.08 331.78 334.07 331.77 334.08 331.79 334.06 331.77 334.07 331.79 334.06 331.77 334.07 331.79 334.05 331.78 334.06 331.8 334.05 331.78 334.05 331.8 334.04 331.79 334.05 331.81 334.03 331.8 334.03 331.82 334.01 331.81 334.02 331.82 334.01 331.83 334 331.81 334.01 331.84 333.98 331.86 333.96 331.84 333.97 331.87 333.95 331.89 333.92 331.87 333.94 331.9 333.91 331.93 333.88 331.91 333.89 331.93 333.86 331.96 333.83 331.94 333.85 331.97 333.81 332 333.78 331.99 333.79 332.01 333.76 332.04 333.73 332.06 333.7 332.08 333.68 332.11 333.64 332.13 333.61 332.16 333.58 332.18 333.55 332.21 333.51 332.24 333.48 332.26 333.44 332.29 333.41 332.32 333.37 332.35 333.33 332.38 333.29 332.4 333.25 332.43 333.21 332.46 333.17 332.49 333.13 332.52 333.09 332.59 333 332.65 332.92 332.79 332.73 332.85 332.64 332.92 332.54 333.07 332.35 333.14 332.25 333.22 332.14 333.3 332.04 333.38 331.94 333.46 331.84 333.5 331.78 333.54 331.73 333.58 331.68 333.63 331.62 333.67 331.57 333.71 331.52 333.76 331.46 333.81 331.41 333.85 331.36 333.9 331.3 333.95 331.25 334 331.2 334.05 331.14 334.1 331.09 334.15 331.04 334.2 330.98 334.25 330.93 334.31 330.87 334.36 330.82 334.42 330.77 334.48 330.71 334.53 330.66 334.59 330.61 334.65 330.55 334.72 330.5 334.78 330.45 334.84 330.4 334.85 330.39 334.92 330.34 334.99 330.29 335.05 330.25 335.24 330.11 335.33 330.04 335.43 329.97 335.52 329.91 335.61 329.84 335.7 329.78 335.8 329.72 335.89 329.65 335.98 329.59 336.08 329.53 336.17 329.47 336.26 329.41 336.36 329.35 336.45 329.29 336.55 329.23 336.64 329.17 336.73 329.12 336.83 329.06 336.92 329 337.02 328.95 337.11 328.89 337.21 328.84 337.3 328.78 337.4 328.73 337.49 328.68 337.59 328.62 337.68 328.57 337.78 328.52 337.87 328.47 337.97 328.42 338.06 328.37 338.16 328.32 338.25 328.27 338.35 328.23 338.45 328.18 338.54 328.13 338.64 328.08 338.73 328.04 338.83 327.99 338.93 327.95 339.02 327.9 339.12 327.86 339.21 327.81 339.31 327.77 339.41 327.73 339.5 327.69 339.6 327.64 339.7 327.6 339.79 327.56 339.89 327.52 339.98 327.48 340.08 327.44 340.18 327.4 340.25 327.37 340.27 327.36 340.37 327.33 340.47 327.29 340.56 327.26 340.66 327.23 340.76 327.19 340.86 327.16 340.95 327.12 341.05 327.09 341.15 327.06 341.24 327.03 341.34 327 341.44 326.96 341.53 326.93 341.63 326.9 341.73 326.87 341.82 326.84 341.92 326.81 342.01 326.78 342.11 326.75 342.21 326.72 342.3 326.69 342.4 326.67 342.5 326.64 342.59 326.61 342.69 326.58 342.78 326.55 342.88 326.53 342.97 326.5 343.05 326.48 343.07 326.47 343.26 326.43 343.45 326.38 343.65 326.34 343.84 326.29 344.03 326.25 344.22 326.21 344.41 326.17 344.6 326.12 344.79 326.08 344.98 326.04 345.17 326 345.36 325.96 345.58 325.91 345.73 325.88 346.11 325.82 346.49 325.75 346.87 325.69 347.24 325.62 347.46 325.58 347.69 325.54 347.91 325.5 348.13 325.46 348.35 325.41 348.58 325.37 348.8 325.33 349.03 325.28 349.25 325.24 349.48 325.19 349.7 325.14 349.93 325.1 350.15 325.05 350.38 325 350.61 324.95 350.83 324.9 351.06 324.86 351.29 324.81 351.52 324.75 351.7 324.71 351.75 324.7 351.98 324.65 352.21 324.6 352.44 324.55 352.67 324.5 352.9 324.44 353.13 324.39 353.36 324.34 353.6 324.28 353.83 324.23 354.06 324.17 354.29 324.12 354.53 324.06 354.76 324 354.99 323.94 355.23 323.89 355.46 323.83 355.7 323.77 355.93 323.71 356.17 323.65 356.4 323.58 356.64 323.52 356.87 323.46 357.11 323.4 357.35 323.33 357.58 323.27 357.82 323.21 358.06 323.14 358.29 323.07 358.53 323.01 358.77 322.94 359 322.87 359.24 322.81 359.39 322.76 359.48 322.74 359.72 322.67 359.96 322.6 360.2 322.54 360.44 322.47 360.68 322.4 360.92 322.33 361.16 322.26 361.4 322.19 361.64 322.11 361.88 322.04 362.12 321.97 362.36 321.9 362.6 321.82 362.84 321.75 363.08 321.68 363.32 321.6 363.56 321.52 363.8 321.45 364.05 321.37 364.29 321.29 364.53 321.22 364.77 321.14 365.01 321.06 365.25 320.98 365.5 320.9 365.74 320.82 365.98 320.74 366.22 320.66 366.46 320.58 366.7 320.5 366.95 320.41 367.19 320.33 367.43 320.25 367.67 320.16 367.92 320.08 368.16 319.99 368.4 319.91 368.64 319.82 368.88 319.74 369.13 319.65 369.37 319.56 369.61 319.48 369.86 319.39 370.1 319.3 370.34 319.21 370.58 319.12 370.82 319.03 371.07 318.94 371.31 318.85 371.55 318.76 371.79 318.67 372.03 318.57 372.28 318.48 372.52 318.39 372.76 318.3 373 318.2 373.24 318.11 373.49 318.01 373.73 317.92 373.97 317.82 374.21 317.73 374.45 317.63 374.69 317.53 374.93 317.44 375.17 317.34 375.41 317.24 375.65 317.14 375.89 317.04 376.13 316.94 376.37 316.84 376.61 316.74 376.85 316.64 377.09 316.54 377.19 316.5 377.33 316.44 377.57 316.34 377.81 316.24 378.05 316.14 378.29 316.04 378.53 315.94 378.77 315.84 379.01 315.73 379.25 315.63 379.49 315.53 379.73 315.43 379.96 315.32 380.2 315.22 380.44 315.11 380.68 315.01 380.92 314.9 381.15 314.8 381.39 314.69 381.63 314.58 381.86 314.48 382.1 314.37 382.33 314.26 382.57 314.15 382.81 314.05 383.04 313.94 383.28 313.83 383.51 313.72 383.75 313.61 383.98 313.5 384.21 313.39 384.45 313.28 384.68 313.17 384.91 313.06 385.14 312.94 385.38 312.83 385.61 312.72 385.84 312.61 386.07 312.5 386.3 312.38 386.53 312.27 386.76 312.15 386.99 312.04 387.22 311.93 387.45 311.81 387.68 311.69 387.91 311.58 388.13 311.46 388.36 311.35 388.59 311.23 388.82 311.11 389.04 311 389.27 310.88 389.49 310.76 389.72 310.64 389.94 310.52 390.17 310.41 390.39 310.29 390.62 310.17 390.84 310.05 391.06 309.93 391.28 309.81 391.5 309.69 391.73 309.57 391.95 309.45 392.17 309.33 392.39 309.2 392.61 309.08 392.82 308.96 393.04 308.84 393.26 308.72 393.48 308.59 393.7 308.47 393.91 308.35 394.13 308.22 394.25 308.15 394.35 308.1 394.56 307.98 394.78 307.86 394.99 307.73 395.2 307.61 395.42 307.49 395.63 307.36 395.85 307.24 396.06 307.11 396.27 306.99 396.48 306.87 396.69 306.74 396.9 306.62 397.11 306.49 397.32 306.36 397.53 306.24 397.74 306.11 397.94 305.99 398.15 305.86 398.36 305.73 398.56 305.61 398.76 305.48 398.97 305.35 399.17 305.22 399.38 305.1 399.58 304.97 399.78 304.84 399.98 304.71 400.18 304.58 400.38 304.45 400.58 304.32 400.78 304.19 400.98 304.07 401.16 303.95 401.17 303.94 401.37 303.81 401.57 303.68 401.76 303.55 401.96 303.42 402.16 303.3 402.35 303.17 402.54 303.04 402.74 302.91 402.93 302.78 403.12 302.65 403.31 302.52 403.5 302.39 403.69 302.26 403.88 302.13 404.07 302 404.25 301.87 404.44 301.74 404.63 301.61 404.81 301.48 405 301.34 405.18 301.21 405.36 301.08 405.39 301.06 405.42 301.04 405.45 301.01 405.49 300.99 405.52 300.97 405.56 300.94 405.59 300.91 405.63 300.89 405.66 300.86 405.7 300.83 405.74 300.8 405.78 300.76 405.82 300.73 405.86 300.7 405.9 300.67 405.94 300.63 405.99 300.6 406.03 300.56 406.07 300.52 406.12 300.48 406.17 300.44 406.21 300.41 406.26 300.37 406.31 300.33 406.36 300.29 406.41 300.25 406.51 300.16 406.61 300.08 406.72 299.99 406.83 299.9 406.94 299.8 407.05 299.7 407.16 299.61 407.28 299.5 407.4 299.4 407.52 299.3 407.64 299.19 407.76 299.08 407.88 298.97 408.01 298.86 408.13 298.74 408.26 298.62 408.39 298.51 408.52 298.39 408.56 298.35 408.66 298.27 408.94 298.03 409.22 297.79 409.8 297.3 410.1 297.04 410.4 296.79 410.7 296.53 410.85 296.39 411.01 296.26 411.16 296.13 411.26 296.05 411.32 296 411.48 295.87 411.65 295.75 411.81 295.62 411.97 295.49 412.14 295.36 412.3 295.23 412.47 295.11 412.64 294.98 412.8 294.85 412.97 294.72 413.14 294.59 413.31 294.47 413.48 294.34 413.65 294.21 413.82 294.09 413.99 293.96 414.16 293.83 414.33 293.71 414.5 293.59 414.59 293.52 414.67 293.46 414.76 293.4 414.84 293.34 414.93 293.28 415.02 293.22 415.1 293.15 415.19 293.1 415.27 293.03 415.36 292.97 415.45 292.91 415.53 292.85 415.62 292.8 415.71 292.74 415.79 292.68 415.88 292.62 415.97 292.56 416.05 292.5 416.14 292.44 416.23 292.39 416.31 292.33 416.4 292.27 416.49 292.21 416.57 292.16 416.66 292.1 416.75 292.05 416.83 291.99 416.92 291.94 416.96 291.91 417.01 291.88 417.1 291.83 417.19 291.78 417.28 291.73 417.37 291.68 417.45 291.63 417.54 291.58 417.63 291.53 417.72 291.48 417.81 291.43 417.9 291.38 417.99 291.33 418.08 291.29 418.17 291.24 418.25 291.19 418.34 291.15 418.43 291.1 418.52 291.06 418.61 291.01 418.7 290.97 418.79 290.92 418.87 290.88 418.96 290.84 419.05 290.8 419.14 290.75 419.23 290.71 419.31 290.67 419.4 290.63 419.49 290.59 419.58 290.55 419.66 290.51 419.75 290.48 419.84 290.44 419.93 290.4 420.01 290.37 420.1 290.33 420.19 290.29 420.27 290.26 420.36 290.23 420.45 290.19 420.54 290.16 420.62 290.13 420.71 290.1 420.8 290.06 420.88 290.04 420.97 290 421.05 289.98 421.14 289.95 421.23 289.92 421.31 289.89 421.4 289.87 421.48 289.84 421.57 289.82 421.65 289.79 421.74 289.77 421.82 289.75 421.91 289.73 421.99 289.71 422.08 289.69 422.16 289.67 422.25 289.65 422.33 289.63 422.42 289.61 422.5 289.6 422.58 289.58 422.67 289.57 422.71 289.56 422.75 289.55 422.79 289.55 422.83 289.54 422.88 289.54 422.92 289.53 422.96 289.52 423 289.52 423.04 289.51 423.08 289.51 423.13 289.5 423.17 289.5 423.21 289.5 423.25 289.49 423.29 289.49 423.33 289.48 423.38 289.48 423.42 289.48 423.46 289.48 423.5 289.47 423.54 289.47 423.58 289.47 423.62 289.47 423.66 289.47 423.7 289.46 423.74 289.46 423.79 289.46 423.82 289.46 423.87 289.46 423.91 289.46 423.95 289.46 423.99 289.46 424.03 289.46 424.07 289.46 424.11 289.47 424.15 289.47 424.19 289.47 424.23 289.47 424.27 289.48 424.31 289.48 424.35 289.48 424.39 289.48 424.43 289.49 424.47 289.49 424.51 289.5 424.55 289.5 424.59 289.5 424.62 289.51 424.63 289.51 425.37 289.88 425.68 290.55 425.68 290.55 425.37 291.21 424.63 291.6 424.63 291.6 424.6 291.61 424.58 291.61 424.58 291.61 424.56 291.62 424.53 291.62 424.54 291.62 424.51 291.63 424.48 291.63 424.49 291.63 424.46 291.64 424.44 291.65 424.44 291.65 424.42 291.65 424.39 291.66 424.39 291.66 424.37 291.67 424.34 291.68 424.34 291.68"/></g></g></g></svg>