<svg xmlns="http://www.w3.org/2000/svg" viewBox="0 0 115.45 132.32"><g id="Warstwa_2" data-name="Warstwa 2"><g id="Ńëîé_1" data-name="Ńëîé 1"><path d="M110.54,66c1.34.09,2.69.17,4,.27a1.72,1.72,0,0,1,.46.17c-.18.12-.34.35-.52.35-1,0-2,0-3,0-1.38,0-2.75.11-4.12.18-.15,0-.35,0-.43.1a3.6,3.6,0,0,0-.35.61,1.8,1.8,0,0,0,.55.19c1,0,2,0,3,0,.75,0,1.5.06,2.25.11.07,0,.14.09.22.13-.09.05-.18.15-.27.15l-5.81.16a1.37,1.37,0,0,0-.71.09,3.24,3.24,0,0,0-.59.68l.69,0a18.91,18.91,0,0,1,3.65-.29c1,.1,1.9.11,2.85.18s1.81.08,2.72.12a1.51,1.51,0,0,1,.31.12c-.06.1-.11.24-.19.27a1.56,1.56,0,0,1-.6.11c-2.11,0-4.21-.14-6.31-.09a27.45,27.45,0,0,0-3.7.52c-.11,0-.2.16-.3.25a1.13,1.13,0,0,0,.35.09c2.49-.15,5-.32,7.48-.46a8.71,8.71,0,0,1,1.53.14c.13,0,.24.17.36.26-.15.13-.3.38-.45.38-1.15,0-2.29-.09-3.44-.09s-2.07.07-3.1.16-2,.24-3.07.38a1.42,1.42,0,0,0-.62.15,4.57,4.57,0,0,0-.68.64,3.07,3.07,0,0,0,.73.11c2.25-.17,4.5-.41,6.76-.52a24.65,24.65,0,0,1,3.42.22c.21,0,.39.3.58.46-.24,0-.48.07-.71.07-1.23,0-2.46-.07-3.69,0-1.74.11-3.47.3-5.2.51-1.08.13-2.16.34-3.24.52a1.08,1.08,0,0,0-.5.18,8.62,8.62,0,0,0-.63.71c.3,0,.6.07.89.06C103.07,74.22,105,74,107,74s4,.1,6,.17a2.14,2.14,0,0,1,.47.15c-.17.13-.32.34-.49.36a11.63,11.63,0,0,1-1.18,0c-1,0-2.06,0-3.09,0a37.45,37.45,0,0,0-8.18.73c-.58.15-1.19.23-1.77.38-.11,0-.19.21-.28.32a1.49,1.49,0,0,0,.4.08c1.53-.05,3.06-.14,4.59-.17,1.92,0,3.85,0,5.77,0,1.26,0,2.52,0,3.78,0a1.33,1.33,0,0,1,.44.17c-.16.11-.31.33-.47.33-2.35,0-4.71,0-7.06.06s-4.44.32-6.66.52a15.37,15.37,0,0,0-2.13.4c-.17,0-.28.32-.42.49a4.36,4.36,0,0,0,.49.06c1.46,0,2.91,0,4.36-.1a58.92,58.92,0,0,1,6.49.28c.09,0,.2,0,.27,0s.39.29.59.44c-.24,0-.47,0-.71,0-.91,0-1.83-.11-2.74-.1-2.64,0-5.27.09-7.9.21a9.75,9.75,0,0,0-2.09.49c-.1,0-.15.22-.23.34a1.41,1.41,0,0,0,.41.07l3.65-.13c1.13,0,2.26-.1,3.39,0,1.43.07,2.86.24,4.29.37.24,0,.48,0,.72,0s.34.09.52.13c-.18.13-.35.37-.54.38-.56,0-1.13,0-1.69,0-2.73,0-5.45,0-8.18,0a15.65,15.65,0,0,0-2.65.25,8.3,8.3,0,0,0-1.78.66c-.12,0-.19.2-.28.31a1.47,1.47,0,0,0,.4.1c2-.17,4-.39,6-.52,1-.07,2,0,3,0,.66,0,1.33-.12,2-.14a1.92,1.92,0,0,1,.62.19c-.19.15-.37.42-.57.43-.92.07-1.85,0-2.76.09q-3.79.3-7.57.69c-.22,0-.6.3-.59.44,0,.45.31.54.77.46a17.91,17.91,0,0,1,3.09-.33c2,0,4,.21,6,.35.19,0,.37.23.55.35-.24,0-.52.19-.72.12a6.19,6.19,0,0,0-2.93-.17c-.9.09-1.82,0-2.72.07a25,25,0,0,0-2.7.38.69.69,0,0,0-.44.44c0,.11.19.39.35.44a5.63,5.63,0,0,0,1.16.2c1.1.08,2.2.12,3.29.19a1.39,1.39,0,0,1,.32.12c-.12.08-.23.23-.35.23-.61,0-1.23,0-1.84,0s-1.44.23-2.15.37c-.1,0-.18.18-.27.28.11.08.21.23.31.24,1.39.08,2.78.12,4.16.22,1,.08,1.91.24,2.86.38.13,0,.23.17.35.26-.15.08-.31.25-.44.22a20.66,20.66,0,0,0-6,0c-.06,0-.13,0-.18,0l-.75.46a5,5,0,0,0,.92.14c.67,0,1.35-.06,2-.08a41.17,41.17,0,0,1,6.93.19c.09,0,.2,0,.27,0a2.34,2.34,0,0,1,.31.32c-.13.06-.26.17-.39.16-.45,0-.9-.13-1.35-.14-1.23,0-2.47-.08-3.69,0-1.39.11-2.77.35-4.16.54a.59.59,0,0,0-.27,0c-.18.15-.35.32-.53.49a2.73,2.73,0,0,0,.73.16c.51,0,1-.16,1.54-.14,1.67.09,3.34.23,5,.36.76,0,1.52.11,2.28.2.15,0,.28.22.42.34-.17,0-.35,0-.52,0-.44,0-.87-.16-1.31-.17-1.52,0-3-.07-4.55,0a18.54,18.54,0,0,0-3,.53c-.23.06-.45.39-.58.65s0,.52.42.48c1.67-.14,3.34-.33,5-.35a28.48,28.48,0,0,1,3.43.35c.42.05.84.09,1.25.18.17,0,.3.23.44.35a2,2,0,0,1-.42.07c-1.38,0-2.76-.21-4.14-.15-1.76.07-3.52.3-5.28.47a.65.65,0,0,0-.35.09c-.25.19-.47.42-.7.63a3.91,3.91,0,0,0,.82.14,24.09,24.09,0,0,1,6.23.19,14.17,14.17,0,0,0,2.61,0,1.35,1.35,0,0,1,.45,0c.09,0,.15.17.22.25-.08.07-.17.2-.25.2-.66,0-1.32-.12-2-.11-2.28,0-4.55.08-6.83.19a3.35,3.35,0,0,0-1.32.55c-.16.09-.23.33-.34.51.18.07.36.21.53.2.85-.07,1.7-.18,2.56-.26A13.42,13.42,0,0,1,99.46,96c1.36.09,2.72.23,4.08.37a1.94,1.94,0,0,1,.57.26,3.2,3.2,0,0,1-.58.13c-1.34,0-2.68,0-4,0a10.63,10.63,0,0,0-1.37.15c-1.17.17-2.34.35-3.5.56-.16,0-.28.24-.42.37a1.21,1.21,0,0,0,.46.16c.79,0,1.58-.12,2.37-.11,1.07,0,2.14,0,3.2.14,1.6.15,3.2.36,4.8.57.2,0,.37.21.56.32A2.69,2.69,0,0,1,105,99l-6-.27c-.86,0-1.73.06-2.58,0a5.29,5.29,0,0,0-2.42.64.92.92,0,0,0-.45.42,2.35,2.35,0,0,0-.17.67l.68,0c.67,0,1.34-.06,2-.07,1.91,0,3.83,0,5.74,0,.68,0,1.36,0,2,0,.1,0,.19.1.28.15s-.09.17-.16.18a4.72,4.72,0,0,1-1,.19c-2.8.14-5.6.24-8.4.4a7.45,7.45,0,0,0-1.85.39c-.2.06-.3.4-.44.61a3.75,3.75,0,0,0,.57.09h3.47c.94,0,1.88,0,2.83,0a1.7,1.7,0,0,1,.53.19c-.19.13-.36.35-.56.37-1.7.15-3.41.22-5.11.4a15.05,15.05,0,0,0-2.18.53c-.09,0-.16.14-.24.22.1,0,.2,0,.29,0l5.6.1c1.62,0,3.23,0,4.84,0a1.47,1.47,0,0,1,.5.19,1.71,1.71,0,0,1-.47.15c-1.05,0-2.1,0-3.14,0-2.23.1-4.47.19-6.69.4a6.47,6.47,0,0,0-1.82.76c-.07,0-.1.13-.15.21a1.34,1.34,0,0,0,.31.09l7.2,0a1.28,1.28,0,0,1,.47.2,1.35,1.35,0,0,1-.43.22c-.88.06-1.76.09-2.65.15-1.64.1-3.29.22-4.94.34a.9.9,0,0,0-.42.13,4.22,4.22,0,0,0-.41.43,1.74,1.74,0,0,0,.55.17c1,0,2-.16,2.93-.18,1.24,0,2.48,0,3.72.08.61,0,1.22.06,1.82.14.16,0,.29.23.43.36a1.8,1.8,0,0,1-.46.16c-1.28,0-2.56-.16-3.83-.08a19.53,19.53,0,0,0-5.93.82c-.17.07-.39.09-.5.22A5.53,5.53,0,0,0,88,110a4,4,0,0,0,.75.15c1.68-.06,3.35-.18,5-.21s3.47,0,5.21.07a1.69,1.69,0,0,1,.53.12,1.51,1.51,0,0,1,.36.22h-.42a27.52,27.52,0,0,1-3.51.12,39.79,39.79,0,0,0-5.24.4c-1.22.06-2.43.22-3.63.39-.23,0-.43.31-.61.5s-.08.22-.12.33a1.55,1.55,0,0,0,.35.07c2.47-.4,4.92.07,7.38.21.11,0,.22.19.33.29-.13.08-.27.22-.41.22-1.79,0-3.58,0-5.38,0a22,22,0,0,0-2.79.39c-.17,0-.3.25-.44.37a2.07,2.07,0,0,0,.52.16c1.82,0,3.63,0,5.45,0a5.19,5.19,0,0,1,1.31.35c.09,0,.16.14.23.21-.09,0-.21.18-.28.15a9.66,9.66,0,0,0-2.79,0,23.76,23.76,0,0,0-5.19.46c-.2,0-.56.12-.59,0-.42-.83-.77-.16-1.11.05s-.85.59-1.27.9a1.65,1.65,0,0,0-.24.33,1.3,1.3,0,0,0,.34.08,5.58,5.58,0,0,1,1,0c.2,0,.38.22.57.35-.15.2-.25.5-.45.59a1.84,1.84,0,0,1-2-.53c-.06-.07-.22-.14-.28-.11-.59.3-1.17.61-1.74,1a.35.35,0,0,0-.11.31c0,.07.19.13.29.13q2.13,0,4.26,0a17.12,17.12,0,0,1,4.52.21c.2.05.36.25.54.38-.24.1-.48.31-.71.29-.94-.08-1.87-.32-2.8-.31a18,18,0,0,0-2.62.38,4.36,4.36,0,0,1-1,.13,1.31,1.31,0,0,0-1.34.74,2.68,2.68,0,0,1-.18.28,1.41,1.41,0,0,0,.32.09,26.52,26.52,0,0,1,2.68,0c1.26.17,2.51.47,3.76.75.13,0,.21.3.32.45-.18.07-.38.24-.54.2a13.6,13.6,0,0,0-1.93-.48c-1.61-.06-3.23,0-4.84,0a5.06,5.06,0,0,0-1.17,0,6.16,6.16,0,0,0-1.08.5c.09.07.17.21.26.22,1,.12,2.06.18,3.08.33s2,.35,3,.58c.21,0,.36.33.55.5a2.93,2.93,0,0,1-.81.14,12.21,12.21,0,0,1-1.33-.31,26.8,26.8,0,0,0-5.52-.29,5.41,5.41,0,0,0-1-.07c-.22,0-.39.33-.59.51a3.25,3.25,0,0,0,.56.22l4.13.74a2.35,2.35,0,0,1,.57.23c.29.15.65.29.38.72a2.93,2.93,0,0,1-.57-.24.9.9,0,0,0-.24-.12c-1.27-.14-2.53-.25-3.79-.42-.62-.08-1.4.11-1.69-.75,0-.05-.21-.09-.28-.06-.75.41-1.49.83-2.23,1.25a.77.77,0,0,0-.17.19,1,1,0,0,0,.28.12c1.36.13,2.73.21,4.09.39a14.52,14.52,0,0,1,2.12.59.24.24,0,0,1,.11.21c0,.08-.09.21-.14.21s-.35-.07-.53-.08L71.88,126a10.71,10.71,0,0,0-2.11-.11,7.23,7.23,0,0,0-1.69.59c.12.13.23.34.37.37a17.61,17.61,0,0,0,1.92.38c1.27.17,2.56.3,3.83.46.14,0,.26.19.39.29-.14.08-.29.22-.42.22-.64,0-1.28-.09-1.91-.17l-6.62-.85a1.43,1.43,0,0,0-.45-.06,5.22,5.22,0,0,0-.75.28,2.65,2.65,0,0,0,.65.37c1.4.37,2.8.73,4.21,1.06.6.15,1.22.2,1.82.32.14,0,.24.21.35.32-.14.07-.28.21-.42.21a6.93,6.93,0,0,1-.79-.17q-3.54-.66-7.08-1.29c-.63-.12-1.26-.19-1.9-.25-.13,0-.27.11-.4.16.12.09.22.22.35.25,1.18.26,2.38.47,3.55.77.9.23,1.77.58,2.66.85.25.07.54,0,.81.08s.22.16.33.24c-.13,0-.27.13-.38.11-.8-.15-1.59-.34-2.39-.47-2.57-.41-5.14-.85-7.73-1.16-1-.13-2.09.34-3.14-.16-.2-.1-.62.3-.94.47,0-.47-.36-.44-.65-.51-.05,0-.2.15-.19.2.11.43.12.43-.29.38a39,39,0,0,0-8.22.08c-1.08.1-2.17.1-3.24.25-.87.12-1.7.43-2.56.6a6.83,6.83,0,0,1-1.28,0,11.56,11.56,0,0,1,1-.91,5.23,5.23,0,0,1,.91-.47,4.13,4.13,0,0,0-1.2-.11,15.53,15.53,0,0,0-2.31.74c-.27.11-.43.48-.7.65a1.81,1.81,0,0,1-.75.19c-.07,0-.23-.19-.23-.2.14-.19.26-.43.46-.52A23.71,23.71,0,0,1,38.06,128a2.3,2.3,0,0,1,2.57.41.72.72,0,0,0,.47.22c1,0,2.1,0,3.15,0a1.7,1.7,0,0,0,.59-.22,3.86,3.86,0,0,0-.59-.27,3.47,3.47,0,0,0-.55-.08,25.7,25.7,0,0,0-4-.74,34.82,34.82,0,0,0-8.1.65,9.17,9.17,0,0,0-1.83.91,1.41,1.41,0,0,1-.47.06c0-.17-.1-.45,0-.5a5.24,5.24,0,0,1,1.45-.86c1.31-.37,2.65-.61,4-.92a1.85,1.85,0,0,0,.37-.19,1.36,1.36,0,0,0-.34-.21c-1.8-.36-3.49.24-5.19.62-.55.12-1,.69-1.51,1-.2.12-.51,0-.76,0a2.58,2.58,0,0,1,.33-.59,7.31,7.31,0,0,1,3.92-1.8,3.61,3.61,0,0,0,.61-.26,6.49,6.49,0,0,0-.75-.23c-.2,0-.42.06-.61,0a8.05,8.05,0,0,0-6.14,1.31,2.49,2.49,0,0,1-.69.15c.07-.27.05-.7.22-.79,1-.53,2-1,3.09-1.46a9.42,9.42,0,0,1,1.51-.32.76.76,0,0,0,.23-.13l-.21-.14a4.43,4.43,0,0,0-3.41-.69,25,25,0,0,0-3.89.91,17.42,17.42,0,0,0-1.95.94,3.9,3.9,0,0,1-.77.16,2.61,2.61,0,0,1,.39-.72,8.79,8.79,0,0,1,4-1.69c.82-.21,1.66-.33,2.49-.52a1.41,1.41,0,0,0,.42-.25,2.28,2.28,0,0,0-.35-.4,1,1,0,0,0-.42-.15,9,9,0,0,0-3.43-.1c-1.41.29-2.86.44-4.29.68-.42.07-.81.27-1.22.35-.17,0-.37-.13-.55-.21.14-.11.26-.29.42-.34a25.42,25.42,0,0,1,5.18-1.1c.75-.08,1.5-.24,2.25-.34.49-.06.41-.29.16-.51s-.64-.89-1.36-.47c-.24.14-.7-.1-1.05-.16a9.19,9.19,0,0,0-3.86.47c-1,.27-1.94.66-2.91,1-.12,0-.28,0-.42-.07,0-.13,0-.29.12-.38a1.5,1.5,0,0,1,.56-.42c2-.58,4.08-1.13,6.13-1.69.18,0,.36-.12.54-.19-.17-.16-.33-.34-.51-.5s-.12,0-.18,0a17.45,17.45,0,0,0-6.56.41c-1.16.28-2.27.77-3.41,1.16-.09,0-.2,0-.3,0,.05-.16,0-.43.15-.48a9.48,9.48,0,0,1,1.58-.67c1.63-.48,3.27-.91,4.89-1.38.16,0,.28-.19.42-.29a1.56,1.56,0,0,0-.56-.17c-2.4.23-4.81.43-7.21.75a21.7,21.7,0,0,0-2.78.77,1.7,1.7,0,0,1-.55,0c.14-.13.25-.33.42-.39a24.57,24.57,0,0,1,5.4-1.49,2,2,0,0,0,.38-.14c-.15-.07-.3-.21-.44-.21-1.9,0-3.8.1-5.7.15a1.58,1.58,0,0,1-.42-.09c.14-.09.28-.24.42-.26,1-.08,2-.11,3-.2.73-.06,1.45-.22,2.17-.28,1.27-.1,2.54-.16,3.81-.26a10.54,10.54,0,0,0,1.23-.21c.07,0,.12-.12.17-.18s-.12-.13-.19-.14c-.57-.09-1.19-.05-1.5-.71,0,0-.17-.06-.26,0-1.2,0-2.41.06-3.62.12-.61,0-1.21.13-1.82.23-.44.08-.86.25-1.31.29-.21,0-.44-.15-.66-.23.15-.14.28-.39.44-.41,2-.32,4-.61,6-.91a3.74,3.74,0,0,0,.54-.17c-.16-.17-.3-.44-.5-.49a7,7,0,0,0-1.7-.27c-1.51,0-3,.07-4.52.09-.15,0-.3-.15-.45-.23a1.48,1.48,0,0,1,.31-.25,9.39,9.39,0,0,1,4.64-.46l1.3.17c-.27-.35-.53-.71-.81-1.06a10.32,10.32,0,0,0-1.81-2.2c-1.33-.94-1.59-2.53-2.58-3.65-.67-.77-1.32-1.57-2-2.36a2.49,2.49,0,0,1-.25-.38c-1.14-2.12-2.37-4.21-3.41-6.38A29.29,29.29,0,0,1,.34,84.8,27.29,27.29,0,0,1,.4,75.92a43.47,43.47,0,0,1,.84-4.58,32.89,32.89,0,0,1,2.19-5.11,70.5,70.5,0,0,1,3.79-6.66,46.45,46.45,0,0,1,4.49-5.77,21.94,21.94,0,0,1,6.36-4.57c.95-.47,1.9-.95,2.81-1.5a24.74,24.74,0,0,1,7.48-2.56l5.23-1.23c.38-.09.59,0,.35-.64a5.45,5.45,0,0,1,0-2.81,27,27,0,0,1,2-6.6,44.5,44.5,0,0,1,2.43-4.77,36.3,36.3,0,0,1,3.06-3.75c.8-1,1.59-1.93,2.44-2.84a6.9,6.9,0,0,1,1.47-1.16,35.36,35.36,0,0,1,13.34-4.93,33,33,0,0,1,3.86-.08c.3,0,.77-.06.85-.24.2-.44-.2-.58-.54-.85a6.11,6.11,0,0,1-1.59-1.81,34.12,34.12,0,0,1-2.08-4.41,29.24,29.24,0,0,0-1.76-3.38c-.15-.3-.23-1-.13-1a.78.78,0,0,1,1.18.42c.31.69.75,1.32,1.08,2,.64,1.3,1.9,1.94,3,2.78s2.15,1.56,3.24,2.34l.59.44c.32.25.45.22.61-.21.7-1.84,1.45-3.67,2.21-5.48.06-.15.35-.36.44-.32.24.11.6.32.61.51a8,8,0,0,1,0,2.63,10,10,0,0,0,.11,5.14c.12.51.63.93,1,1.38.2.26.7.39.22.85-.09.09,0,.5.11.64.71.79,1.44,1.57,2.22,2.3.58.54,1.24,1,1.84,1.49a1.56,1.56,0,0,1,.42.59.45.45,0,0,1-.13.39.41.41,0,0,1-.39,0c-.74-.62-1.46-1.26-2.18-1.89-.11-.1-.2-.26-.33-.32a9,9,0,0,1-2.7-2.44A7.15,7.15,0,0,1,69,14.82a13.21,13.21,0,0,1-.09-3.27c0-.87.24-1.74.35-2.61a1.22,1.22,0,0,0-.1-.45c-.08.12-.21.22-.25.35a37.83,37.83,0,0,0-1.19,4.25,6,6,0,0,0,.09,3.66,11.88,11.88,0,0,0,1.49,2c.07.09.26.12.28.21.38,1.35,1.48,2,2.56,2.66.17.11.16.49.27.72a5.47,5.47,0,0,0,.44.63c.11-.14.19-.34.33-.4s.57-.25.75-.15c1,.52,2,1.11,3,1.66a3,3,0,0,0,.55.19,2,2,0,0,0,0-.6,14.79,14.79,0,0,0-.56-1.44,5,5,0,0,0-1-1.32,8.74,8.74,0,0,0-2.59-1.84,1.71,1.71,0,0,1-1-1.65c0-.17.15-.46.25-.47a1,1,0,0,1,.63.2c.13.1.11.36.22.49s.49.51.74.76l.59-.75A12,12,0,0,0,77,13.22c.12-.47.19-1,.27-1.43.37-2.24.83-4.48,1.08-6.74a4.47,4.47,0,0,0-1.05-3.84c-.11-.1-.25-.25-.24-.38A4.89,4.89,0,0,1,77.25,0c.28.07.68,0,.83.22.93,1.16,1.8,2.36,2.7,3.54a1,1,0,0,1,.13,1.08C80.58,5.91,80.31,7,80,8.08a2,2,0,0,0,.06.53,4.33,4.33,0,0,1,.05,1,39.27,39.27,0,0,1-1,4.71,21.9,21.9,0,0,1-1.71,3.8c-.4.73-.39.83.38,1.29a3.77,3.77,0,0,0,2.34.61,4,4,0,0,0,.84-.33c.19-.07.5-.22.56-.16.62.64,1.26.2,1.88.07A5.46,5.46,0,0,0,85.55,19c.69-.49.09-1.35.13-2.05a18,18,0,0,0-.19-3c0-.36-.43-.66-.53-1a3.58,3.58,0,0,1,0-1.08c.35.12.88.13,1,.37,1,1.66,2.25,3.17,2.81,5,.18.6.42.49.78.3a10.86,10.86,0,0,0,4.91-5.32,4.53,4.53,0,0,0-.09-3.12,5.67,5.67,0,0,1-.21-1.15,2.45,2.45,0,0,1,.25-.75c.31.19.79.06.86.66.2,1.69.54,3.36.7,5.05a13.62,13.62,0,0,1,0,3.19,9.23,9.23,0,0,1-2.56,4.63c-.6.7-.58.63.28,1a58.59,58.59,0,0,1,5.42,2.75,26.33,26.33,0,0,1,5.83,5.32,21.07,21.07,0,0,1,2,3.27c1,1.66,2.07,3.27,2.9,5a29.94,29.94,0,0,1,1.35,4.21,26.86,26.86,0,0,1,.81,7.84,31.68,31.68,0,0,1-1.57,9.23A35.42,35.42,0,0,1,109,63.19c-.39.94-.34,1,.68,1s2.14,0,3.2.11c.19,0,.35.35.53.53a5.62,5.62,0,0,1-.57.09c-1.55,0-3.12-.16-4.59.55a2.69,2.69,0,0,0-.47.43,4,4,0,0,0,.58.12c.74,0,1.48,0,2.21,0Zm-28-7.56c0-.71,0-1.42,0-2.13a1.64,1.64,0,0,1,.05-.63c.07-.17.27-.29.42-.43.09.15.24.3.25.46a15.12,15.12,0,0,1,.16,2.51c-.1,1.58-.4,3.14-.49,4.72a21,21,0,0,1-1.6,6.63c-.32.8-.57,1.62-.91,2.41-.2.45.07.55.38.61.06,0,.18-.22.27-.34.18-.28.34-.57.53-.83s.55-.54.67-.87A48.86,48.86,0,0,0,84,65.12c.49-2.26.74-4.59,1-6.89a33.09,33.09,0,0,0,.26-3.3c0-.72-.14-1.46-.15-2.19,0-.18.25-.38.38-.57.17.18.48.36.48.55,0,1.39.08,2.78,0,4.16a19,19,0,0,1-.38,3.37c-.7,3.12-1.43,6.23-2.3,9.31a9.51,9.51,0,0,1-1.62,3c-.33.45-.14.53.12.56a1,1,0,0,0,.85-.26,17.14,17.14,0,0,0,1.67-2.82,26,26,0,0,0,1.69-6.68,3.73,3.73,0,0,1,.28-1.15A.7.7,0,0,1,87,62a.77.77,0,0,1,.42.53,1.71,1.71,0,0,1-.12.72c-.42,1.63-.77,3.29-1.27,4.89a25.73,25.73,0,0,1-1.43,3.44,11.72,11.72,0,0,1-1.17,1.82c-.24.34-.17.55.15.75.66.43,1.33.86,2,1.31s.94.52,1.36-.33C87.48,74,88,72.8,88.56,71.63a13.06,13.06,0,0,0,1-2.53c.68-3,1.16-6,1.92-9A23.19,23.19,0,0,0,91.77,52a20.66,20.66,0,0,0-.8-3.44c-.29-1-.69-2-1-3-.06-.22.09-.51.15-.76l.55.59s0,.12,0,.18a30.26,30.26,0,0,0,.93,3.12A12.55,12.55,0,0,1,92.49,54c0,.21,0,.41,0,.62a15.39,15.39,0,0,1,.06,3c-.37,2.11-1,4.19-1.4,6.29-.29,1.38-.4,2.8-.75,4.17a31.09,31.09,0,0,1-1.39,4c-.59,1.45-1.33,2.85-2,4.28a.61.61,0,0,0,.11.46c.75,1,1.5,2.07,2.26,3.09a1.12,1.12,0,0,0,.29.19c.07-.13.22-.27.2-.39a2.11,2.11,0,0,1,.43-1.5c.33-.55.66-1.1,1-1.66a27.47,27.47,0,0,0,3-7.3,47.26,47.26,0,0,0,1-4.82c.25-2.19.28-4.39.41-6.59,0-.82.16-1.64.23-2.46A29.55,29.55,0,0,0,96.16,52c-.09-2.16-.3-4.31-.49-6.46a9.59,9.59,0,0,0-1.41-4.39,8.7,8.7,0,0,1-.79-1.79c-.06-.18.07-.43.12-.65.21.16.5.28.62.49.29.56.51,1.17.75,1.76a17.62,17.62,0,0,1,1.39,3.43,42.11,42.11,0,0,1,.43,5.39c0,.76-.08,1.54,0,2.29.33,2.33-.29,4.6-.4,6.9-.06,1.18-.1,2.36-.19,3.53s-.14,2.25-.33,3.35a36.14,36.14,0,0,1-1,4.24c-.46,1.56-1,3.09-1.63,4.6s-1.29,2.67-1.89,4a1.1,1.1,0,0,0,.09.9c.54.83.67.85,1.69.41a3.64,3.64,0,0,0,.76-.61c-.27,0-.55.07-.82.08s-.68,0-1,0a3.17,3.17,0,0,1,.08-1,16.37,16.37,0,0,1,1.25-2.64,26.71,26.71,0,0,0,3.31-8.35A53.74,53.74,0,0,0,98,58.57c.25-4.1.24-8.23.2-12.34,0-2-1-3.86-1.69-5.73-.1-.29-.52-.53-.13-.79s.66.12.79.47c.25.65.49,1.29.68,2s.41,1.61.59,2.42a14.3,14.3,0,0,1,.5,2.56c.08,2.26.07,4.53,0,6.8a27.5,27.5,0,0,1-.35,6.21,34.22,34.22,0,0,0-.57,3.51,20.59,20.59,0,0,1-.45,3.63c-1,3.2-1.81,6.52-3.74,9.37a6,6,0,0,0-.61,1.5c-.09.33,0,.4.43.39,1.73,0,2.07-1.57,2.78-2.6a11,11,0,0,0,1.2-3,39.07,39.07,0,0,0,1.1-4.12c.29-1.4.42-2.83.61-4.25.44-3.23.88-6.46,1.29-9.69.13-1.05.16-2.11.23-3.16a15.65,15.65,0,0,0-.4-6.35c-.19-.54-.28-1.12-.42-1.68-.26-1.08-.51-2.16-.8-3.23-.2-.73-.47-1.44-.66-2.17-.07-.31-.11-.7.4-.76s.5.3.51.65a3.68,3.68,0,0,0,.08.82c.42,1.65.9,3.28,1.29,4.94a19.63,19.63,0,0,1,.84,6.14c-.1,1.27-.26,2.54-.36,3.81-.2,2.44-.26,4.9-.59,7.32-.43,3.1-1.07,6.17-1.6,9.26a3,3,0,0,0,.1.83,3.35,3.35,0,0,0,.41-.67c.73-2.34,1.53-4.67,2.14-7A51,51,0,0,0,103,57.33c.3-2.34.42-4.69.55-7a12.85,12.85,0,0,0-.13-2.84,42.56,42.56,0,0,0-1-4.44c-.48-1.63-.61-3.4-1.89-4.73-.21-.21-.21-1-.05-1.12.54-.3.87.15,1.12.6a1.19,1.19,0,0,1,.13.25c.32.92.66,1.82.94,2.75.45,1.45.85,2.91,1.27,4.37a3,3,0,0,0,.18.36,2.33,2.33,0,0,0,0-.36c-.21-1.51-.32-3-.67-4.51a21.92,21.92,0,0,0-1.26-3c-.08-.2,0-.47,0-.71.25.06.65,0,.72.19a17.58,17.58,0,0,1,1.15,2.64,29.13,29.13,0,0,1,.92,7.2c.16,2.93.3,5.86.33,8.8,0,1.74-.17,3.48-.32,5.21a18.19,18.19,0,0,1-2.26,7.46,8.15,8.15,0,0,0-.64,1.52.66.66,0,0,0,.16.51c.21,0,.58,0,.63-.18.28-.78,1.4-1.13,1.08-2.19,0-.09.09-.23.15-.33a19.69,19.69,0,0,0,2.13-6A53.49,53.49,0,0,0,107.45,51a27.39,27.39,0,0,0-.16-3.39c-.17-1.55-.42-3.09-.68-4.62-.36-2.11-1.58-4-1.57-6.22,0-.13-.16-.26-.21-.4-.43-1.23-.87-2.46-1.26-3.7-.06-.18.1-.42.15-.64.2.11.49.18.57.35a9.79,9.79,0,0,1,.6,1.52c.43,1.3.84,2.59,1.23,3.89.24.8.46,1.6.63,2.42.23,1.1.4,2.21.61,3.32a26,26,0,0,1,.65,3.57c.1,2.31.09,4.64,0,7a44.13,44.13,0,0,1-.58,5.25c-.28,1.66-.71,3.31-1.14,5-.25.93-.63,1.83-.93,2.74a1.63,1.63,0,0,0,0,.44,1.34,1.34,0,0,0,.32-.24,10.05,10.05,0,0,0,.88-1.38c.82-1.66,1.6-3.35,2.37-5a.52.52,0,0,0-.17-.43s-.29,0-.39.12a1.47,1.47,0,0,0-.22.39,1.71,1.71,0,0,1,.09-.51,14,14,0,0,0,1.41-6.09c.1-2.76.6-5.58-.42-8.34a36.53,36.53,0,0,1-1-4.44c-.29-1.22-.64-2.41-1-3.61-.1-.39-.2-.78.38-.78s.42-.25.21-.55a10.48,10.48,0,0,1-1-1.42,26,26,0,0,0-4.81-6.79,18.31,18.31,0,0,0-3-2.47A19.94,19.94,0,0,0,95.68,24a12.93,12.93,0,0,0-3.84-1.35,2.54,2.54,0,0,0-.9.31c.27.1.53.22.8.29A13.16,13.16,0,0,1,96.4,25a2.4,2.4,0,0,1,.36.41c-.2,0-.41.06-.61.06a1.06,1.06,0,0,1-.35-.09A41.64,41.64,0,0,0,91.66,24a10,10,0,0,0-2.72.08c-.14,0-.25.23-.38.35a1.76,1.76,0,0,0,.46.22,8.81,8.81,0,0,1,4,1.46c.39.32,1,.8,1.33.67.75-.29,1,.27,1.39.55s.93.87,1.44,1.25a6.45,6.45,0,0,1,2.51,3c.46,1.31.92,2.62,1.36,3.94a3.06,3.06,0,0,1,.06.69c-.18-.18-.37-.35-.53-.54a1,1,0,0,1-.14-.34c-.72-2.73-1.82-5.22-4.33-6.82-.37-.24-.75-.46-1.13-.69.13.4.26.81.4,1.21a2.69,2.69,0,0,0,.27.65,23.28,23.28,0,0,1,3.13,6.72,1.53,1.53,0,0,1,0,.59,2.35,2.35,0,0,1-.43-.47c-1-2-2-4.05-3-6.05a5.38,5.38,0,0,0-2.42-2.67c-.33-.16-.5-.43-.17-.71s.1-.49-.17-.6a8.66,8.66,0,0,0-1.73-.6,29.34,29.34,0,0,0-3.6-.48c-.31,0-.64.45-1,.69.24.16.46.34.7.48s.25.05.35.1c1.56.8,3.34,1.23,4.57,2.61.08.08.21.19.3.18.86-.11,1.29.55,1.83,1,1.8,1.47,2.28,3.67,3.18,5.65,0,.09-.16.29-.25.45-.14-.09-.33-.16-.39-.28-.45-1-.79-2-1.32-2.88a6.45,6.45,0,0,0-2.88-3.09,6.57,6.57,0,0,1-1.31-.8,11.34,11.34,0,0,0-4.31-1.89,1.5,1.5,0,0,0-.49.09,2.64,2.64,0,0,0,.31.4,22.26,22.26,0,0,1,1.89,1.58A2.46,2.46,0,0,1,89,31c-.6.35-.16.71,0,1a12.28,12.28,0,0,1,1.2,5.49c0,.34-.11.68-.16,1l-.39-1c0-.06,0-.13,0-.19-.34-1.38-.59-2.8-1-4.14a14.49,14.49,0,0,0-3.09-4.48c-.68-.8-1.15-.79-2.07-.22s-1.6,1-2.42,1.44c-.1.06-.33.08-.39,0-.66-.67-1.29-1.37-1.94-2.05-.08-.07-.22-.07-.33-.11a1.57,1.57,0,0,0,.09.4c.1.16.31.26.35.42a2.05,2.05,0,0,1,0,.65c-.13-.1-.28-.2-.4-.31a4.9,4.9,0,0,0-.43-.47c-1.57-1.19-3.16-2.37-4.72-3.56-.5-.39-1.26-.77-1.35-1.26a.83.83,0,0,0-.7-.8c-2.85-.82-5.66-1.85-8.7-1.83a3,3,0,0,1-1.24-.49c-.08,0-.08-.24-.12-.37a1.39,1.39,0,0,1,.4-.06c.3.05.59.16.89.2,1.35.18,2.71.35,4.06.51a2.89,2.89,0,0,0,.5,0c-.15-.1-.28-.25-.44-.28-1.45-.32-2.92-.6-4.37-.93a2.93,2.93,0,0,1-.75-.45c.3-.15.6-.43.88-.41a12.9,12.9,0,0,1,2.22.39c1.14.3,2.25.68,3.39,1a2.08,2.08,0,0,0,.69-.07,3.24,3.24,0,0,0-.35-.53,4.41,4.41,0,0,0-2.36-.84c-.71-.17-1.64,0-1.87-1.09,0-.16-.36-.33-.58-.37A5.46,5.46,0,0,0,61.91,17q-3.31.43-6.61.94a12.62,12.62,0,0,0-2.59.58A34,34,0,0,0,47,21.28a12,12,0,0,0-3.72,3c-.56.79-1.17,1.55-1.73,2.35-.87,1.25-2.08,2.21-2.81,3.61a40.22,40.22,0,0,0-3.25,8.1,8.83,8.83,0,0,0-.36,4.3c.13.56.27,1,1,.83A20.42,20.42,0,0,1,38.53,43a20.69,20.69,0,0,1,2.84,0c.2,0,.39.36.58.56-.2.17-.38.42-.61.49a1.43,1.43,0,0,1-.82,0,6.09,6.09,0,0,0-3.25.13c-.88.23-1.79.31-2.68.49-1.28.25-2.55.52-3.82.82-1,.23-2,.52-2.95.77-1.27.33-2.55.59-3.8,1a27.9,27.9,0,0,0-2.84,1.18,22.4,22.4,0,0,0-3,1.42c-1.3.82-2.53,1.77-3.75,2.71a13.77,13.77,0,0,0-2.59,2.19C10.2,56.8,8.72,59,7.22,61.15a36.3,36.3,0,0,0-3.63,6.72,30.87,30.87,0,0,0-2.3,17.51c.53,2.53.82,5.13,2,7.54A28.78,28.78,0,0,0,4.62,96c1,1.6,2,3.23,3.13,4.77a30.81,30.81,0,0,0,2.31,2.68c.5.57,1,1.16,1.54,1.68,1,.89,2,1.67,2.89,2.63a25.27,25.27,0,0,0,4.62,4c2.36,1.56,4.84,2.92,7.21,4.46a38.16,38.16,0,0,0,8.15,3.58c1.48.53,3,.93,4.55,1.33a58.08,58.08,0,0,0,6.44,1.57,49.66,49.66,0,0,0,9.44.6c.51,0,1.05.11,1.43-.41.05-.08.31,0,.47,0a4.27,4.27,0,0,0,1.14.2c1.87-.27,3.75-.49,5.58-.93,2.39-.57,4.77-1.23,7.09-2A59.56,59.56,0,0,0,79.79,116a19.34,19.34,0,0,0,6.08-5,33.15,33.15,0,0,0,4.49-7.18c.28-.67.77-1.27,1-2a24.05,24.05,0,0,0,1.41-8.23,21.05,21.05,0,0,0-2.33-9.82A31.4,31.4,0,0,0,86,77.46c-1.9-2-4.36-3.2-6.79-4.41a30.64,30.64,0,0,0-7.33-2.71c-2.41-.51-4.75-1.46-7.36-1a12.18,12.18,0,0,0-6.39,2.77,4.72,4.72,0,0,1-1.18.54,2.07,2.07,0,0,0-.47.24c-.91.82-1.79,1.65-2.7,2.47-1.34,1.21-2.68,2.44-4,3.62-.94.8-2,1.52-2.92,2.29-.18.14-.34.29-.51.44a5,5,0,0,1,.2-.76,1,1,0,0,1,.35-.42c1.15-.84,2.32-1.65,3.46-2.51a19.47,19.47,0,0,0,2-1.64c.67-.64,1.24-1.39,1.91-2,1.25-1.23,2.54-2.43,3.82-3.64a29,29,0,0,1,3-2.76c.67-.47,1.26-1.22,2.28-1.18.43,0,.7-.41.27-.83a6.08,6.08,0,0,0-.85-.53c-.09-.06-.25-.15-.25-.18.26-.72-.38-1-.67-1.48s-.49-.74-.73-1.11c-.14.42-.24.86-.41,1.27-1.14,2.64-2,5.37-4.35,7.41-1.36,1.19-2.76,2.34-4.14,3.51-1.07.89-2.35,1.55-3.08,2.82-.1.17-.51.18-.79.2-.08,0-.28-.2-.26-.23a1.35,1.35,0,0,1,.36-.54c1.24-1,2.52-1.88,3.75-2.85.91-.72,1.73-1.56,2.66-2.25a9.93,9.93,0,0,0,3-3.52,49.7,49.7,0,0,0,2-4.75A6.36,6.36,0,0,0,60,62c.11-1.09-1.39-1.91-.55-3.14,0,0,0-.06,0-.08-.64-1.51-1.2-3-1.94-4.51a33.16,33.16,0,0,0-2.59-4.38,17.59,17.59,0,0,0-2.58-2.52,12.28,12.28,0,0,0-3.74-2c-.87-.38-1.74-.75-2.63-1.07-.43-.15-.93-.1-1.34-.28a1,1,0,0,1-.47-.74c0-.14.41-.46.63-.46a4.84,4.84,0,0,1,1.5.31c1.08.4,2.15.83,3.19,1.33a31.71,31.71,0,0,1,3.64,1.95C55.58,48,57,50.53,58.3,53c.94,1.8,1.5,3.78,2.35,5.62.72,1.58,1.59,3.09,2.41,4.62.25.46.42.51.68-.08a22.47,22.47,0,0,1,1.47-2.62c.12-.19.42-.26.64-.38a1.74,1.74,0,0,1,0,.69c-.31.56-.65,1.09-1,1.62-1.1,1.62-1.09,1.86.21,3.05.8.73,1.37.51,1.71-.58s.75-2.19,1.16-3.27a.83.83,0,0,1,.35-.41,1.4,1.4,0,0,1,.51-.07,2.06,2.06,0,0,1,0,.43,7.15,7.15,0,0,1-.35,1.11c-.57,1.2-1.18,2.38-1.73,3.58a.77.77,0,0,0,.08.73.86.86,0,0,0,.81.12,2.21,2.21,0,0,0,.78-1c.54-1.58,1-3.18,1.52-4.77a3.81,3.81,0,0,1,.61-.87,3.63,3.63,0,0,1,0,1.13c-.57,1.81-1.21,3.61-1.79,5.43a2.91,2.91,0,0,0,0,.88c.56-.14,1,.82,1.57.16A4.28,4.28,0,0,0,71,66.75a17.88,17.88,0,0,0,1.3-5.58,1.64,1.64,0,0,1,.29-.85c.12-.17.39-.24.6-.36,0,.22.19.45.15.64a31.91,31.91,0,0,1-2.24,7.58c-.09.2-.06.68,0,.71a4.31,4.31,0,0,0,1.41.28c.13,0,.28-.44.39-.7a9.38,9.38,0,0,1,.35-.93,10.47,10.47,0,0,0,1.42-5.32c0-.9.09-1.8.18-2.7,0-.17.18-.33.28-.49a3.82,3.82,0,0,1,.35.47.94.94,0,0,1,.09.44,13.91,13.91,0,0,1-1.07,6.17C74,67,73.71,68,73.29,69c-.21.46-.09.64.38.77.83.22,1.63.51,2.44.77.35.11.72.35,1,.28s.3-.52.45-.81a1,1,0,0,1,.19-.31,6.11,6.11,0,0,0,1.49-2.87,16.74,16.74,0,0,0,.79-4.67,21.86,21.86,0,0,0,.14-5.54.77.77,0,0,1,.36-.67c.44-.17.47.2.46.53,0,1.46-.09,2.93-.14,4.39,0,.51,0,1-.07,1.54a15.58,15.58,0,0,1-1,4.52c-.55,1.24-1.09,2.48-1.69,3.7-.17.34-.24.5.09.75.87.66,1.63.44,2.07-.62A30.25,30.25,0,0,0,82.57,58.4Zm22.19-2.93h-.23c0-1,0-2,0-3,0-.12-.14-.23-.22-.35a1.36,1.36,0,0,0-.13.37,37.31,37.31,0,0,1-.94,8.43c-.43,1.89-.94,3.76-1.45,5.63-.33,1.26-.74,2.5-1.09,3.75a1.63,1.63,0,0,0,.06.52,2,2,0,0,0,.29-.38c.37-.8.74-1.6,1.08-2.41a23.4,23.4,0,0,0,1.8-4.55C104.4,60.83,104.5,58.14,104.76,55.47ZM86.85,18.38a7.42,7.42,0,0,1-1.22,5.2c-.21.3-.45.58-.68.86a11,11,0,0,0,1.15,0c.1,0,.3-.21.28-.27-.18-.66.34-.74.73-.95s.74-.27.89-.53A4.17,4.17,0,0,0,88.44,19c-.41-1-1-2-1.45-3a.58.58,0,0,0-.16-.15c0,.1-.13.2-.13.3C86.74,16.92,86.8,17.65,86.85,18.38ZM54.63,127.69c.7,0,1.19,0,1.68,0a1.74,1.74,0,0,0,.55-.23,2.91,2.91,0,0,0-.48-.45,17.41,17.41,0,0,1-3.2-2A3.59,3.59,0,0,0,51,124a1.55,1.55,0,0,0-.42,0c.08.13.12.3.23.37l3.58,2.32c.23.15.43.33.65.5a6.82,6.82,0,0,1-.87.2.89.89,0,0,1-.52-.14c-1-.57-2-1.11-3-1.76-.56-.39-.91-1.07-1.48-1.42a4.4,4.4,0,0,0-1.58-.27c0,.23-.07.56,0,.67A9.73,9.73,0,0,0,49.46,126C51.12,126.94,52.81,127.86,54.63,127.69Zm11.26-1.77c.63-.16,1.25-.29,1.86-.47a2.48,2.48,0,0,0,.57-.36,2.19,2.19,0,0,0-.61-.27,1.09,1.09,0,0,0-.49.16c-.2.09-.41.3-.6.28a6,6,0,0,1-4-1.61.7.7,0,0,0-.55-.17c-.94.09-1.88.21-2.81.35a2.7,2.7,0,0,0-.63.28,2.35,2.35,0,0,0,.5.58c1,.64,2.26.94,3.26,1.69.13.1.44,0,.67,0a2.67,2.67,0,0,0-.31-.36L61,124.41a1.23,1.23,0,0,1-.22-.35c.14,0,.31,0,.42,0a8.68,8.68,0,0,0,1.62,1.09A31.29,31.29,0,0,0,65.89,125.92Zm-30.75-4.63a8,8,0,0,0,1.27,1.48c1.16.85,2.45,1.52,3.6,2.39.75.56,1.86.42,2.42,1.35.09.15.63,0,1,0-.23-.17-.45-.35-.69-.51a3.57,3.57,0,0,0-.74-.41,7.45,7.45,0,0,1-3.07-2.33c-.43-.47-.72-1.12-1.23-1.44a9.44,9.44,0,0,0-2.15-.76C35.44,121.09,35.32,121.2,35.14,121.29ZM54.31,124l-1,.17a6.43,6.43,0,0,0,.6.57c.64.44,1.27.88,1.94,1.28a1,1,0,0,0,.64,0c.19-.91.87-.52,1.33-.47a11.07,11.07,0,0,1,1.55.48c.09,0,.21,0,.31-.08-.06-.06-.1-.15-.17-.19a8,8,0,0,0-2-1.17A26.66,26.66,0,0,0,54.31,124Zm10.6-56.85c-.6.09-1,.12-1.44.21-1.74.38-2.91,1.71-4.32,2.64-.09.06-.09.26-.13.4a3.84,3.84,0,0,0,.4-.11c1.39-.59,2.76-1.23,4.18-1.73a11.85,11.85,0,0,1,2.25-.33c.09,0,.17-.16.25-.24Zm-25.5,55s-.19.08-.18.13a.76.76,0,0,0,.19.38,16.4,16.4,0,0,0,2,1.75c1,.66,2.1,1.19,3.17,1.76.11.06.29,0,.43,0a3.62,3.62,0,0,0-.19-.4,2,2,0,0,0-.25-.26A10.41,10.41,0,0,1,42.83,124a2.77,2.77,0,0,0-1.78-1.29C40.53,122.56,40,122.34,39.41,122.15Zm5.36,1.27-.83.15c.18.33.35.67.55,1,.06.09.22.11.32.18.35.23.68.49,1,.71,1,.63,2,1.26,3,1.84.19.11.53,0,.79-.07a2.54,2.54,0,0,0-.45-.61c-1.1-.89-2.24-1.72-3.32-2.64C45.55,123.67,45.33,123.27,44.77,123.42Zm-13.06-3.83c0,.38-.09.67,0,.8a14.14,14.14,0,0,0,1.83,2.1,23.47,23.47,0,0,0,2.66,1.81,16.73,16.73,0,0,0,1.51.8c.08,0,.2,0,.3,0-.05-.07-.08-.17-.14-.21a11.24,11.24,0,0,1-1.12-.79c-1.34-1.22-2.64-2.48-4-3.71A10.66,10.66,0,0,0,31.71,119.59ZM29.15,121a4.06,4.06,0,0,0-.43-.63c-.7-.75-1.44-1.45-2.1-2.23a8.63,8.63,0,0,0-2.6-2.09,1.59,1.59,0,0,0-.38-.06.81.81,0,0,0,0,.35,1.65,1.65,0,0,0,.33.42c.89.86,1.78,1.73,2.69,2.58.67.62,1.38,1.21,2.07,1.81a.35.35,0,0,0,.27,0S29.11,121.09,29.15,121ZM109.88,56h-.09l.17.54a2.78,2.78,0,0,0,.18-.48,34,34,0,0,0,.64-3.85c.11-1.75,0-3.52,0-5.27a7.81,7.81,0,0,0-.18-1.26c0-.06,0-.1-.07-.15s-.11.11-.11.16c-.06,1.28-.1,2.56-.15,3.84s-.08,2.61-.15,3.92C110.08,54.28,110,55.13,109.88,56Zm-32.7,62.66a3.86,3.86,0,0,0-.72.19c-.43.2-.83.45-1.24.68.48.21,1,.43,1.45.61s1.19-.35,1.86-.05c.23.1.71-.36,1.06-.6,0,0,0-.33-.09-.35C78.76,119,78,118.81,77.18,118.64Zm-.71-93.88c0,.16-.1.26-.07.3a2,2,0,0,0,.33.32c.82.65,1.66,1.3,2.48,2,.65.54,1.26,1.14,1.91,1.67.12.1.37,0,.56,0,0-.18,0-.44-.05-.53A6.7,6.7,0,0,0,80,27.17,2.55,2.55,0,0,1,78.64,26C78.18,25.14,77.18,25.35,76.47,24.76Zm33.07,16.35.21,0a7.48,7.48,0,0,0-.24-1c-.35-.84-.72-1.66-1.11-2.47a1.65,1.65,0,0,0-.34-.41,2.32,2.32,0,0,0-.07.52c.25,2,1.24,3.95,1.21,6.06a.82.82,0,0,0,.06.27,1.06,1.06,0,0,0,.16.21c0-.09.12-.17.12-.26C109.55,43.07,109.54,42.09,109.54,41.11ZM28.18,118.56c.17.21.24.31.32.4.64.73,1.24,1.5,1.93,2.18.94.92,1.94,1.77,2.93,2.63.09.08.28,0,.42,0a3.13,3.13,0,0,0-.2-.3c-1.08-1.15-2.21-2.26-3.21-3.48a3.25,3.25,0,0,0-1.77-1.42Zm40.25,5.49.67-.12a4.61,4.61,0,0,0-.43-.29c-.53-.25-1.08-.47-1.61-.74a2,2,0,0,0-1.88-.2,13.94,13.94,0,0,1-1.54.52l1.54.91a.59.59,0,0,0,.27.05l.45,0a2.42,2.42,0,0,1-.18-.36c-.09-.23-.15-.46-.23-.7a4.28,4.28,0,0,1,.72.05,7,7,0,0,1,.75.32ZM83.07,24.19,82.76,24,80,21.79l-.17-.16c0,.09-.08.19,0,.26q.54,1.14,1.11,2.28c0,.06.16.08.24.12a1.61,1.61,0,0,0,1.79.12C83,24.39,83,24.28,83.07,24.19Zm12.07-8.34c0-.21,0-.36-.08-.51-.15.05-.31.09-.46.15-.6.24-1.19.48-1.78.74-.11.05-.25.21-.24.32a.4.4,0,0,0,.27.29,2.37,2.37,0,0,0,.74-.19c.45-.2.64-.06.6.41a3.58,3.58,0,0,0-.08.43,3,3,0,0,0,.12.52c.12-.1.31-.18.36-.32C94.8,17.07,95,16.43,95.14,15.85ZM24,117.64l-.3-.42c-.61-.64-1.25-1.26-1.81-1.94-.43-.52-.69-1.2-1.45-1.35l-.37-.11c.05.15.05.34.15.45.65.73,1.31,1.45,2,2.14a17.22,17.22,0,0,0,1.37,1.17C23.62,117.63,23.74,117.61,24,117.64Zm49.47,2.41c-.32.12-.61.22-.88.35-.11,0-.18.18-.26.28a1,1,0,0,0,.29.17c.77.14,1.54.24,2.3.39a2.76,2.76,0,0,1,.66.34c.1,0,.26.16.32.13a1.76,1.76,0,0,0,.38-.39c-.1-.09-.19-.23-.32-.27-.53-.19-1.08-.33-1.61-.53A8.3,8.3,0,0,1,73.44,120.05Zm-5.37,1.7s-.13.2-.09.32a.6.6,0,0,0,.32.36c1,.3,1.86,1.13,3,.91.16,0,.36.32.55.33a2.62,2.62,0,0,0,.9-.18c.08,0,.13-.16.2-.25l-.68-.16c-.72-.17-1.46-.29-2.17-.51S68.91,122.09,68.07,121.75ZM66.76,17.15a2.62,2.62,0,0,0-1.45-1.95,2.33,2.33,0,0,0-.83.28.22.22,0,0,0,0,.16c.65.53,1.3,1.07,2,1.58C66.54,17.26,66.69,17.17,66.76,17.15ZM89.49,22c.76-.27,1.44-.49,2.1-.77.15-.06.22-.31.32-.47a4.51,4.51,0,0,1-.52,0,3.27,3.27,0,0,1-.69-.15c-.31-.11-.6-.27-.9-.4-.07.35-.14.71-.22,1.06,0,.17-.11.34-.14.51A.48.48,0,0,0,89.49,22Zm10.64,49.77c-.21.26-.32.38-.41.52-.39.61-.78,1.21-1.16,1.83a1.62,1.62,0,0,0-.14.44c.16,0,.41,0,.49-.07a24.27,24.27,0,0,0,1.54-2C100.52,72.44,100.28,72.13,100.13,71.79ZM90.22,18c-.08.29-.22.53-.16.6.4.44.51,1.2,1.37,1.16a6.79,6.79,0,0,1,1.16.33c.13,0,.31-.19.47-.29-.12-.09-.24-.24-.36-.25a1.92,1.92,0,0,1-1.6-.8A6.93,6.93,0,0,0,90.22,18ZM72.14,122.21l.84-.07a2,2,0,0,0,.23-.06,1.1,1.1,0,0,0-.14-.09c-.91-.24-1.82-.49-2.74-.72-.07,0-.19.12-.28.18.09.11.17.27.28.31C71,121.94,71.66,122.09,72.14,122.21ZM63.85,12.77a5,5,0,0,0,.32,1,3,3,0,0,0,.59.64c0-.23-.06-.46-.1-.69a6.24,6.24,0,0,0-.18-1.08c0-.19-.27-.33-.41-.48ZM84.42,23.6a8.46,8.46,0,0,0,.39-.9,1.78,1.78,0,0,0-.43-.24c-.29-.11-.58-.22-.87-.31a2.26,2.26,0,0,0-.44-.08c0,.16,0,.37.11.47.29.3.62.57.94.85Zm-2.67,3.52-.2,0a1.34,1.34,0,0,0,.12.24,6.51,6.51,0,0,0,.65.73c.14.12.4.24.52.18s.31-.35.47-.53a2.36,2.36,0,0,0-.45-.33C82.52,27.32,82.16,27.24,81.75,27.12ZM93.59,88.57c-.06-.74-.09-1.34-.17-1.94,0-.11-.24-.19-.37-.28a1.4,1.4,0,0,0-.07.39c.1.56.22,1.12.35,1.68a.88.88,0,0,0,.16.28C93.55,88.62,93.61,88.53,93.59,88.57Zm-18.5,33.69c-.16-.1-.32-.27-.39-.24-.37.16-.9.11-1,.7a.67.67,0,0,1-.13.25l.26,0a6.83,6.83,0,0,0,.91-.27C74.88,122.61,74.94,122.45,75.09,122.26Zm3-108.68h-.23a2.21,2.21,0,0,0-.24.68,1.94,1.94,0,0,0,.28.63,4.45,4.45,0,0,0,.42-.81C78.33,13.94,78.15,13.74,78.07,13.58ZM92.75,84.86c-.26-.55-.53-1.15-.82-1.74,0,0-.14,0-.22,0s0,.18,0,.24q.36.87.75,1.74c0,.05.13.08.2.12Zm2.64-71-.32-.55-.77,1.08a.85.85,0,0,0,.17.16C94.78,14.28,95.07,14.05,95.39,13.81ZM46.62,127.1c-.27-.2-.5-.39-.75-.55a3.11,3.11,0,0,0-.53-.22c0,.25,0,.61.18.72a2.5,2.5,0,0,0,.93.24S46.55,127.18,46.62,127.1ZM62.92,11.76l-.12,0a1.05,1.05,0,0,0,.08-.34,2.17,2.17,0,0,0-.15-.4c-.1.11-.23.19-.28.31a.55.55,0,0,0,0,.36c.08.31.18.61.27.91Zm13.83,6-.37-.45a4.71,4.71,0,0,0-.45.65c0,.09.11.27.17.41Zm15.72,0-.54.18a2.74,2.74,0,0,0,.73.43c.14,0,.33-.22.5-.34ZM91.24,82.55a.91.91,0,0,0,.16-.06c0-.2,0-.45-.09-.59a3.44,3.44,0,0,0-.66-.6s-.1.1-.09.11C90.78,81.8,91,82.18,91.24,82.55Zm-12.33-71-.46-.51c-.07.1-.22.23-.2.31a8.72,8.72,0,0,0,.36,1Zm2.39,9.21c-.17.25-.27.36-.26.39.19.26.4.51.6.77.06-.1.2-.23.17-.29A8.53,8.53,0,0,0,81.3,20.78ZM30.1,122.59l.36-.14c-.32-.26-.64-.53-1-.78,0,0-.11,0-.16.08ZM79.69,25.07l.3-.15-.83-.59s-.16,0-.25.07Zm-.22-21.6c-.12.21-.2.29-.18.33.14.27.3.53.45.8.06,0,.17-.13.16-.16C79.79,4.15,79.65,3.87,79.47,3.47ZM102,71.54c-.24-.08-.37-.16-.41-.13a3,3,0,0,0-.4.4c.08,0,.2.17.24.15A4.66,4.66,0,0,0,102,71.54ZM70,124l-.3.34a1.63,1.63,0,0,0,.52.24c.09,0,.22-.15.33-.23Z"/><path d="M48.38,130.46c-1.07,0-2.14,0-3.21,0a12.45,12.45,0,0,0-1.88.36,2.78,2.78,0,0,1-.79.16c-.25,0-.64-.14-.7-.3-.13-.42.13-.69.58-.73,1.06-.08,2.13-.18,3.19-.24a67.16,67.16,0,0,1,9.3.49c1.2.1,2.39.26,3.59.4a2.25,2.25,0,0,1,.4.12c-.17.07-.35.22-.51.21-1.4-.09-2.79-.21-4.19-.3-.87-.05-1.75-.07-2.63-.06a1.5,1.5,0,0,0-.53.22c.19.11.41.35.58.32a10.53,10.53,0,0,1,3.58.27,2.38,2.38,0,0,1,.61.23c-.22.1-.45.3-.67.3-1.13,0-2.27-.1-3.4-.1-1.34,0-2.68.08-4,.1a2,2,0,0,1-.6-.21c.15-.17.28-.46.46-.49.71-.12,1.44-.17,2.16-.24.22,0,.44,0,.64,0s.21-.18.31-.28c-.11-.08-.21-.23-.32-.23-.65,0-1.29,0-1.94,0Z"/><path d="M87.91,115.08c1.23.24,2.24.43,3.25.64.07,0,.12.1.17.15s-.11.15-.18.17a2.55,2.55,0,0,1-1.06.18c-2-.45-3.8.12-5.69.43a2.65,2.65,0,0,1-.85-.14c.18-.22.33-.59.56-.65C85.43,115.55,86.77,115.31,87.91,115.08Z"/><path d="M57.66,131.91H56.24c-.06,0-.17-.1-.17-.15s.11-.2.14-.19c.46.17,1.09-.32,1.43.36Z"/><path d="M57.64,131.94c.42,0,.84,0,1.26,0,.09,0,.18.14.27.21-.1.06-.21.17-.28.15-.41-.12-.82-.27-1.23-.41Z"/><path d="M100.88,102.59c.15,0,.3,0,.45,0a1.09,1.09,0,0,1,.23.09.85.85,0,0,1-.22.09,3.38,3.38,0,0,1-.45,0l-.75-.11.72-.14Z"/><path d="M50.58,65.06A8.37,8.37,0,0,1,49,71.17a5.19,5.19,0,0,1-4.1,2.6,7,7,0,0,1-5.1-1.68,6.56,6.56,0,0,1-1.48-2.21A2.09,2.09,0,0,0,36,68.44a19.44,19.44,0,0,0-5.22,2,1.06,1.06,0,0,0-.45.73c-.17,1.72-1.45,2.64-2.61,3.65a6.22,6.22,0,0,0-2.21,3.21c-.13.56-.3,1.11-.47,1.65a6.51,6.51,0,0,0,.57,5.35,19.33,19.33,0,0,0,1.51,2.11A3.16,3.16,0,0,1,27.93,90a15.49,15.49,0,0,0-.28,1.81c-.14,1.08-1,1.64-1.63,2.42a2.69,2.69,0,0,0-.39.92,1.71,1.71,0,0,1-1.27,1,.32.32,0,0,1-.23-.13c-.4-.56-.58-.64-1.18-.42a3.45,3.45,0,0,0-.92.39,6.17,6.17,0,0,1-4,.86,8.88,8.88,0,0,0-1.45.13,1.12,1.12,0,0,0-.45.17,2.2,2.2,0,0,0,.21.77c0,.08.32.08.47,0,.56-.14,1.1-.33,1.66-.47a1.5,1.5,0,0,1,.51,0c-.09.17-.14.41-.28.51-.37.26-.79.45-1.18.68-.07,0-.1.13-.15.2l.22.08a5.49,5.49,0,0,0,4.19-.78c.84-.48,1.73-.89,2.6-1.31.1,0,.25,0,.37,0,0,.08-.06.18-.12.22-1.39.8-2.75,1.67-4.19,2.36-1.26.59-2.65.21-4,.22a5,5,0,0,1-4-2.35A57,57,0,0,1,9.1,92.65a12.67,12.67,0,0,1-1.43-4.51,19.24,19.24,0,0,1,.19-7.56A31.93,31.93,0,0,1,11.5,70.05c1.12-1.85,2.13-3.77,3.36-5.54a38,38,0,0,1,4.51-5.72,14.77,14.77,0,0,1,5-3.68,7.38,7.38,0,0,0,2.18-1.6,12.77,12.77,0,0,1,5.22-2.72,27.61,27.61,0,0,1,5.7-1.22,9.27,9.27,0,0,1,6.74,2.06c.34.29.73.54,1.08.83a2.46,2.46,0,0,1,.58.58C47,55,48.16,56.87,49.2,58.82a19.59,19.59,0,0,1,.74,2.24A7.09,7.09,0,0,1,50.58,65.06ZM19.69,90.69a19.73,19.73,0,0,1,2.23.55,2,2,0,0,1,.93.92c.27.54-.38,1.4-.84,1.16A4.23,4.23,0,0,0,19.47,93a5.47,5.47,0,0,0-3.21,1.28c-.24.22-.72.34-.38.85s.4.89,1,.81c.82-.1,1.64-.11,2.46-.2a4.41,4.41,0,0,0,1.3-.31,7.89,7.89,0,0,1,3.95-1,.59.59,0,0,0,.48-.14,14.08,14.08,0,0,0,1.34-2.1A14.4,14.4,0,0,0,27.05,90a2.55,2.55,0,0,0-.79-2.82,7.68,7.68,0,0,1-2.38-5.42,12.29,12.29,0,0,1,1-5,2.78,2.78,0,0,1,.64-1c1-1,2-1.95,3-2.87a2.31,2.31,0,0,0,.88-1.74,2.24,2.24,0,0,1,1.71-2c1-.4,2.1-.78,3.15-1.13a7.66,7.66,0,0,1,2.24-.59c1.31,0,1.89,1.07,2.43,2.06.63,1.15,1.21,2.33,2.55,2.81.45.16.92.28,1.39.41a5.18,5.18,0,0,0,6-3c.33-.71-.57-.65-.36-1.11a4.6,4.6,0,0,0-.75.33,2,2,0,0,0-.52.52c-.87,1.19-2,1-3.18.6A3.24,3.24,0,0,1,42.51,68a4.17,4.17,0,0,1,2.32-3.77c.9-.32,1.14-1.08,1.6-1.71.32-.45,0-.66-.4-.75a1.79,1.79,0,0,0-2.34,1.31,5.78,5.78,0,0,1-3.34,3.25,1.28,1.28,0,0,1-.79-.06,8,8,0,0,0-.85-.39c-.62-.1-.92-.49-.8-1a9.51,9.51,0,0,1,.87-2.67c.65-1.15,1.6-2.11,2.28-3.24a20,20,0,0,0,1.5-3.17,1.17,1.17,0,0,0-1-1.5,1.69,1.69,0,0,1-.49-.27,3.41,3.41,0,0,1,.53-.13c.8,0,1.6,0,2.39-.07.36,0,.48-.2.2-.61A2.56,2.56,0,0,0,41.68,52a.93.93,0,0,0-.63.38,2,2,0,0,1-3,.81,2.81,2.81,0,0,0-.68-.26.34.34,0,0,0-.24.12,3.41,3.41,0,0,0,.36,1.27c.26.35.68.33,1.14.05a6.26,6.26,0,0,1,1.6-.59.68.68,0,0,1,.47.12c.06,0,.09.29,0,.32a1.12,1.12,0,0,1-.46.2c-.74.13-.73.12-.44.67a.45.45,0,0,1-.05.42c-.19.27-.46.48-.65.74a3,3,0,0,0-.54,1c-.23,1.35-.32,2.73-.59,4.07a4.54,4.54,0,0,1-1.48,2.87,2,2,0,0,1-2,.31,1,1,0,0,1-.71-1.32c.24-1,.55-2,.85-3a10.92,10.92,0,0,0,.56-1.67,4.35,4.35,0,0,0-.07-2.16,5.31,5.31,0,0,0-1.51-1.56c-1-.86-1.12-.86-2.21-.21a6.42,6.42,0,0,0-.6.42A1.39,1.39,0,0,0,30.91,57a4.08,4.08,0,0,1,1,2.53,3.64,3.64,0,0,0-.16,1.09,21.68,21.68,0,0,1,.07,2.27c-.14,1.26-.18,2.61-1.3,3.49-.52.42-1.12.93-1.84.55a1.51,1.51,0,0,1-.74-1.72c.19-1.14.28-2.29.49-3.43.31-1.68,0-2.53-1.46-3.33-1-.56-1.87-.55-2.31.09a14.29,14.29,0,0,0-1.08,1.8,2,2,0,0,0,.38,2.42A6.65,6.65,0,0,1,25,64.24a6.26,6.26,0,0,1-.87,7.27.77.77,0,0,1-.64.21.74.74,0,0,1-.38-.51c-.07-.35,0-.74-.07-1.1A11,11,0,0,0,20.9,66c-.3-.4-.7-1-1.34-.74a20.26,20.26,0,0,0-3,1.54c-.52.33-.45,1.77,0,2.17A24.07,24.07,0,0,0,19,71.26a8.19,8.19,0,0,1,2.89,4.5,5.15,5.15,0,0,1,.25,1.7,1.23,1.23,0,0,1-1.35,1.19c-.28-.06-.49-.42-.78-.5-1.22-.38-1.76-1.44-2.44-2.36s-1.34-1.94-2.08-2.85a1.21,1.21,0,0,0-2,0,17.76,17.76,0,0,0-1.72,2.66c-.37.71-.13,1,.66,1.23a24.15,24.15,0,0,1,3.11,1,8.45,8.45,0,0,1,3,1.8c.06.07.14.17.21.17,1,0,1.39.8,2,1.31a2.11,2.11,0,0,1,.41,2.28,1.49,1.49,0,0,1-.69.67A3.55,3.55,0,0,1,17,83.27c-.45-.42-.86-.87-1.29-1.31-.25-.26-.45-.52-.93-.31a.46.46,0,0,1-.66-.5c0-.66-.52-.7-.93-.81a7.32,7.32,0,0,0-1.24-.09,1.77,1.77,0,0,0-2,1.47,2.19,2.19,0,0,0,1.5,2.22c1.7.32,3.42.56,5.1,1a33.44,33.44,0,0,1,3.91,1.23c1,.36,1.32,1.28.78,1.85a4,4,0,0,1-1.21,1,3.43,3.43,0,0,1-1.86.41c-1.14-.26-2.2-.88-3.34-1.16-2.39-.61-3.35-.7-3.16,2.21a.61.61,0,0,1,0,.19c-.09.48.23.68.61.73a7.06,7.06,0,0,0,1.59,0C15.7,91.16,17.51,90.94,19.69,90.69ZM8.47,84.58c.2,2.19.12,4.13.93,5.93a25.18,25.18,0,0,0,3.81,6A14,14,0,0,0,14.8,98c.08.07.24,0,.37.06a1.29,1.29,0,0,0-.05-.35.65.65,0,0,0-.27-.25c-.91-.44-1.07-1.33-1.34-2.17a.93.93,0,0,0-.32-.44,2,2,0,0,1-1-1.63,1.36,1.36,0,0,0-.6-1c-.88-.28-1-.94-1-1.64,0-.47.32-1-.58-1-.15,0-.37-.22-.48-.39a3.42,3.42,0,0,1,.28-3.41,2.23,2.23,0,0,0,.09-1.64A2.87,2.87,0,0,1,9.26,81a2.4,2.4,0,0,0,0-.54c-.13.17-.35.32-.37.5C8.73,82.24,8.59,83.55,8.47,84.58ZM35.38,50.87l-3.24,1c-.4.12-.36.28-.14.59a3.45,3.45,0,0,0,1.19,1.08,13.26,13.26,0,0,1,2,1.8,1.65,1.65,0,0,1,.68,1.49c0,.27.32.58.49.87a4.82,4.82,0,0,0,.77-1.13A2,2,0,0,0,37,55.47a2.26,2.26,0,0,0-.41-1c-.58-.6-1.22-1.14-1.86-1.69s-.51-.68.15-1a4.83,4.83,0,0,0,.74-.41c.08,0,.1-.23.08-.33S35.49,51,35.38,50.87ZM27,55.54a4.05,4.05,0,0,1-.57.15,2.77,2.77,0,0,0-2.77,2.84,1.56,1.56,0,0,0,.05.36,2.12,2.12,0,0,0,.36-.21c.08-.08.09-.21.14-.32a1.5,1.5,0,0,1,2.07-1,2.21,2.21,0,0,0,1.19-.11,6.26,6.26,0,0,0,1.08-.64.67.67,0,0,0,.14-1.18,1.13,1.13,0,0,1,.13-1.86l1.6-1c.1-.06.15-.19.22-.29a1,1,0,0,0-.4.08c-1,.7-2,1.42-3,2.14a3.13,3.13,0,0,0-.39.42,1.24,1.24,0,0,1,.48.08,4.51,4.51,0,0,1,.6.48c-.23.05-.45.11-.68.14A.4.4,0,0,1,27,55.54ZM40.09,65.3c1,.19,2.64-1.22,3-2.22.16-.43-.08-.45-.31-.39-1,.29-1.67-.4-2.21-1-.36-.44-.48-.34-.65,0-.33.77-.67,1.53-.92,2.32S39.12,65.32,40.09,65.3Zm6.56-8.42a2.15,2.15,0,0,0-.16-.45,20.88,20.88,0,0,0-1.41-1.56c-.4-.37-1.48,0-1.45.48.08,1.28-.74,2.16-1.27,3.17-.14.27-.3.54-.44.8l.72-.32.42-.17C44,58.39,45,58,46,57.49A3.41,3.41,0,0,0,46.65,56.88ZM20.48,75.25c-.08-1.57-.45-2.06-1.75-2.34-.56-.12-1.08-.18-1.37-.77,0,0-.32,0-.33,0-.08.32-.28.75-.14,1a31.29,31.29,0,0,0,1.82,2.76A7.84,7.84,0,0,0,19.84,77s.29,0,.31-.12C20.29,76.29,20.4,75.67,20.48,75.25ZM49.4,64.41l.13-.06c-.31-1.22-.61-2.44-.94-3.66a9.85,9.85,0,0,0-.45-1.29s-.38-.06-.4,0c-.19.42-.53.8.1,1.24a1.65,1.65,0,0,1,.44,2.08.7.7,0,0,0,.16,1,1.27,1.27,0,0,1-.22,2c-.76.26-1.55.45-2.31.73-.61.21-1.29.34-1.6,1-.17.39,0,.48.28.39.54-.16,1.06-.39,1.58-.6s1.21-.92,2-.38c.52.36.87.26,1-.38S49.31,65.11,49.4,64.41ZM38,59.44c-.14-.29-.18-.49-.29-.57s-.3,0-.42.09-.36.36-.57.41a1.67,1.67,0,0,0-1.29,1.46,12.37,12.37,0,0,1-.85,2s0,.12.07.17c.19.21.43.62.57.59.45-.1,1.09-.25,1.26-.58C37.09,61.85,37.53,60.59,38,59.44ZM12.21,73l-.16-.08a3.35,3.35,0,0,0,0-.55c0-.19-.11-.37-.16-.56-.12.13-.28.23-.34.38-.24.59-.47,1.18-.67,1.78-.51,1.52-1,3-1.5,4.58-.09.27-.2.66.24.54A22.39,22.39,0,0,0,12,78.18a2,2,0,0,0,.4-.32c-.15-.08-.3-.17-.45-.24-1.32-.59-1.53-1.25-.8-2.52.12-.21.26-.42.37-.64Zm8.14,9.38a4.75,4.75,0,0,0-.38-.7c-.09-.14-.3-.19-.46-.28.06.17.14.34.19.52s.09.45.14.68a2.09,2.09,0,0,1-.55-.32c-.62-.74-1.18-1.53-1.83-2.22a1.18,1.18,0,0,0-1-.31c-.41.13-.5,1.15-.21,1.47s.62.66.94,1a3.91,3.91,0,0,0,2.11,1.23C20.07,83.51,20.38,83.28,20.35,82.36ZM42,62a4.71,4.71,0,0,0,.87-.19A6.34,6.34,0,0,0,45.28,59s-.23-.27-.28-.25c-1.19.61-2.62.8-3.5,2-.18.23-.43.69-.34.8A2.79,2.79,0,0,0,42,62ZM18.77,88.48l0-.11c.16,0,.36.06.45,0,.39-.3.74-.64,1.1-1-.25-.27-.45-.69-.76-.79A4,4,0,0,0,18,86.41a3.83,3.83,0,0,0-1.06.48c-.27.12-.56.2-.83.34-.05,0,0,.36,0,.37C17,87.91,17.88,88.19,18.77,88.48Zm3-28.54,0-.12c-.7.16-1.41.3-2.1.51a.51.51,0,0,0-.28.87c.34.41.75.84,1.41.52a1,1,0,0,1,1.54.43,1.23,1.23,0,0,0,.22.24c0-.1,0-.21,0-.31,0-.52-.13-1.18.13-1.52.59-.79.06-.62-.39-.62ZM38.5,50.71h0a2.52,2.52,0,0,0-.55,0c-.26,0-.7.11-.71.2,0,.36-.07.89.15,1.06a2.86,2.86,0,0,0,2.36.73c.2,0,.38-.28.5-.48,0,0-.25-.25-.34-.42s-.27-.42-.24-.6c.09-.42-.12-.49-.44-.49ZM9.88,87.81c.15.37.26.63.36.9.21-.19.43-.37.63-.57a.69.69,0,0,0,.1-.25c.26-.83.51-1.66.77-2.49.06-.21.5-.44,0-.6-.34-.1-.77-.44-1,.18C10.44,85.93,10.16,86.88,9.88,87.81ZM48,64.72l.26-.36a5.33,5.33,0,0,0-1.05-.56,1.05,1.05,0,0,0-.75.19c-.73.54-1.42,1.12-2.13,1.68A1.81,1.81,0,0,0,44,66c0,.06,0,.17,0,.25a.3.3,0,0,0,.15,0c1.15-.43,2.3-.85,3.45-1.29A1.67,1.67,0,0,0,48,64.72Zm-26-.26.12,0c-.14-.48-.28-1-.43-1.46-.05-.15-.14-.36-.27-.42-.38-.17-.93.38-1.26,1.11-.26.57,0,.61.47.76s.59.5.88.75a1.49,1.49,0,0,0,.29.2A1.14,1.14,0,0,0,22,65,2.53,2.53,0,0,0,22,64.46Zm-2.35-1.85a3.1,3.1,0,0,0-.33-.45c-.59-.56-1.13-.39-1.65.43-.41.63-.89,1.21-1.35,1.81-.21.29-.45.56-.66.85a.8.8,0,0,0,0,.32,1.53,1.53,0,0,0,.27-.17,1.81,1.81,0,0,0,.18-.21,3.86,3.86,0,0,1,2.47-1.84C18.94,63.3,19.27,62.88,19.66,62.61Zm5.53,4.58c-.13-.41-.25-.77-.36-1.13-.16.27-.31.54-.46.82a7.05,7.05,0,0,0-.36.73.58.58,0,0,0,0,.49c.36.37.53.62-.14.86-.11,0,0,.62,0,1,0,.12.13.22.2.34.17-.21.42-.39.49-.62C24.81,68.82,25,68,25.19,67.19Zm-9.87,4a7.52,7.52,0,0,0-.17-1.07.55.55,0,0,0-1-.21,9.34,9.34,0,0,0-.84,1.39,4.08,4.08,0,0,0-.19.87,7.21,7.21,0,0,1,.74-.36c.34-.13.71-.17,1-.31A1.24,1.24,0,0,0,15.32,71.2Zm7.81-13.57v-.55a2.22,2.22,0,0,0-.43.23c-.48.4-1,.81-1.42,1.23-.23.22-.43.46-.64.7l.92,0C23.07,59.16,23.07,59.16,23.13,57.63ZM15.77,86.38c.31-.08.69-.17,1.07-.29a.48.48,0,0,0,0-.29c-1.05-.26-2.1-.52-3.17-.74-.34-.07-.43.07-.2.41C14,86.27,14.87,86.24,15.77,86.38ZM30.92,64c0-.22,0-.44-.05-.67a3.14,3.14,0,0,0-.5.46,13.61,13.61,0,0,1-.95,1.39c-.23.23-.69.34-.31.69.15.15.66.06.92-.09A2,2,0,0,0,30.92,64ZM23,67.26c.16-.18.33-.29.39-.45.23-.52.45-1,.63-1.59a2.2,2.2,0,0,0,0-.63,4.35,4.35,0,0,0-.57.38c-.25.21-.46.46-.71.67a4.67,4.67,0,0,1-.6.38Zm22.27,2.3a3.64,3.64,0,0,0,2.25-1.31.22.22,0,0,0,0-.23.27.27,0,0,0-.23-.07l-2.44.82c-.13,0-.36.16-.35.19a.92.92,0,0,0,.24.47A1.37,1.37,0,0,0,45.31,69.56ZM31.78,53.49c-.28-.12-.49-.3-.6-.24a12.11,12.11,0,0,0-1.71.9c-.14.09-.11.44-.16.67.26,0,.58.21.77.11a6.41,6.41,0,0,0,1.18-.85A4.46,4.46,0,0,0,31.78,53.49Zm-3,9.83.09.45a1.57,1.57,0,0,0,.45-.22,9.66,9.66,0,0,0,.94-1.09c.19-.27.35-.68-.14-.82s-.82-.17-1,.36S28.94,62.88,28.83,63.32ZM47.2,59c-.09-.26-.14-.39-.18-.52a1.17,1.17,0,0,0-.3.19A10.94,10.94,0,0,0,45.53,60c-.17.25-.1.65-.14,1a.81.81,0,0,0,.78-.59c.08-.2.39-.29.53-.49A8.69,8.69,0,0,0,47.2,59Zm-16,.89c0-.31,0-.62,0-.92a.25.25,0,0,0-.12-.2.24.24,0,0,0-.21.09c-.33.52-.66,1-1,1.57a.43.43,0,0,0,.13.42c1.14.5,1.14.49,1.17-.78A1.09,1.09,0,0,0,31.24,59.84ZM19.29,91.7v0c-.77.13-1.54.25-2.31.41-.14,0-.26.21-.39.32.17.08.35.23.51.21.92-.15,1.83-.34,2.74-.5.24,0,.48-.06.72-.09a6.44,6.44,0,0,0-.72-.3A2.51,2.51,0,0,0,19.29,91.7ZM14.43,78.88c-.17-.17-.32-.42-.52-.47-.45-.13-1.4.43-1.25.61a2.21,2.21,0,0,0,1,.65C14.24,79.86,14.31,79.43,14.43,78.88ZM30.31,58.11c-.54.07-1,.12-1.44.21-.08,0-.22.19-.2.24.14.4.31.78.48,1.16a7.38,7.38,0,0,0,.81-.67,2.55,2.55,0,0,0,.4-.7C30.4,58.27,30.32,58.15,30.31,58.11ZM12.72,92.61c.29.48.47.79.65,1.1L14,92.55c-.18-.09-.37-.26-.55-.26A3,3,0,0,0,12.72,92.61ZM15.8,70.08l.53,1.33c.17-.31.49-.62.48-.91s-.33-.64-.52-1ZM36.67,53.23c.12-.87-.63-.63-1-.84,0,0-.2.17-.2.18l.92,1.08Zm-6.59,4c-.26-.22-.4-.4-.45-.37-.32.16-.61.35-.92.54.14.09.3.27.42.24A7.12,7.12,0,0,0,30.08,57.25ZM12.58,87l.63-.49L12.58,86c-.11.16-.29.31-.31.49S12.44,86.79,12.58,87Zm1.34-18.64.2.16a4.9,4.9,0,0,0,.38-.62c.12-.26.2-.54.3-.81-.06,0-.16,0-.18,0-.25.34-.49.69-.71,1C13.88,68.2,13.92,68.3,13.92,68.37ZM15.13,79.5l.19.46a2.85,2.85,0,0,0,.39-.67c0-.12-.14-.3-.22-.44ZM37.64,55.07c0,.21-.1.31-.07.37a5.28,5.28,0,0,0,.35.56l.4-.34Zm-23,40.08c-.16.18-.31.31-.3.34.15.23.33.45.5.67.06,0,.18-.12.17-.15C14.86,95.75,14.74,95.49,14.59,95.15Zm9-31.62-.68-.39c0,.1-.1.21-.07.3A4,4,0,0,0,23,64Z"/><path d="M54.79,116.17c-3.23.1-6.29-.77-9.39-1.45-1.14-.25-2.32-.32-3.48-.51-2.25-.36-4.54-.57-6.74-1.15a6,6,0,0,1-4.69-4.21,6.12,6.12,0,0,1-.06-2.26,9.51,9.51,0,0,1,2.8-5.38c.91-1,1.69-2.08,2.51-3.14A5.52,5.52,0,0,1,38.27,96a1.92,1.92,0,0,1,2.34.55,1.89,1.89,0,0,1-.2,2.38,17.59,17.59,0,0,1-4.29,3.28,8.54,8.54,0,0,0-1.69,1.26c-.14.13-.23.6-.16.65.33.22.75.41,1-.1a3.51,3.51,0,0,1,2.08-1.67,3.21,3.21,0,0,1,1.6,0c.7.14.68,1.11.05,1.81-1,1.14-2,2.33-3.08,3.47a2.19,2.19,0,0,0-.44,1.89c.12,1.06,1.09,1.5,2.37,1a2.9,2.9,0,0,0,1.85-1.9,11.53,11.53,0,0,1,.92-2,12.94,12.94,0,0,1,1.31-2,3.56,3.56,0,0,1,2.66-1.43A1.32,1.32,0,0,1,45.89,105c-.44.94-1,1.81-1.58,2.72-.12.2-.38.47-.33.6a.92.92,0,0,1-.38,1.3c-.17.11,0,.84.16,1.23a.81.81,0,0,0,.7.38,5.69,5.69,0,0,0,2.29-.57A4.9,4.9,0,0,0,48,108.81c.33-.61.56-1.27.84-1.9.06-.14.24-.33.2-.4-.52-.92.24-.93.77-1.13a2.8,2.8,0,0,0,.54-.33,1.41,1.41,0,0,1,2.16.16.84.84,0,0,1,.17.74c-.35.87-.77,1.72-1.19,2.57-.59,1.21-.56,1.32.48,2.06a2.45,2.45,0,0,1,.51.79c.13.21.26.59.38.59.37,0,.89,0,1.06-.27a2.88,2.88,0,0,0,.51-1.45,10.28,10.28,0,0,1,1.27-4.09,2.57,2.57,0,0,1,1.9-1.46,3.57,3.57,0,0,1,1.17,0c.65.08.76.46.55,1s-.48,1.43-.75,2.14a4.36,4.36,0,0,0,.25,3.12,2.13,2.13,0,0,0,1.68,1.27c.12,0,.31-.12.43-.22s.16-.34.26-.35c1-.13.67-.77.6-1.39-.19-1.92-.27-3.86.87-5.56a3.6,3.6,0,0,1,2.69-1.68c.62-.06,1,.28,1,.92,0,.29.16.57.21.87s.21.75.08.85c-.71.6-.19,1.32-.3,2-.06.36.13.45.43.28a10.18,10.18,0,0,1,1-.63,4.07,4.07,0,0,1,.87-.18,2.19,2.19,0,0,1-.19.81c-.24.3-.62.48-.89.76a1.59,1.59,0,0,0-.26.54,2.33,2.33,0,0,0,.51.11,2.47,2.47,0,0,0,2.27-3.11,9.91,9.91,0,0,1-.41-5.23,2.35,2.35,0,0,1,2-1.89,1,1,0,0,1,.84.33,9.55,9.55,0,0,1,.63,1.62c.28.75.55,1.51.87,2.24a.77.77,0,0,0,.51.31A3.47,3.47,0,0,0,77.93,102a2.54,2.54,0,0,0,.22-.86c.06-.46,0-.68-.6-.87-.76-.26-1.68-.44-2.08-1.34a.73.73,0,0,0-.5-.38,1,1,0,0,1-1.13-.78,5.18,5.18,0,0,1-.06-1.8,4,4,0,0,1,.52-1.35,1.17,1.17,0,0,1,1.17-.73,13.54,13.54,0,0,1,3.08.26,17.82,17.82,0,0,0,2.25.61,2.33,2.33,0,0,0,2.11-.57,1.43,1.43,0,0,0-.31-2.31,5.71,5.71,0,0,0-3.95-1.06,13.7,13.7,0,0,1-2.71.15c-1-.08-1.51-.45-1.7-1.13a2.63,2.63,0,0,1,1.57-2.78c.64-.16,1.29-.26,1.94-.38a5.44,5.44,0,0,0,3-2c.51-.55-.09-1.54-1-1.66a15.19,15.19,0,0,0-3.16-.16c-.49,0-1,.52-1.43.85a7.4,7.4,0,0,1-2.81,1.76c-1.13.23-2.09,0-2.37-.72A2.32,2.32,0,0,1,71,82.11a4.64,4.64,0,0,0,2.21-1.67c.47-.76.28-1.06-.57-1.42s-1.23-.27-1.71.59a2.81,2.81,0,0,1-1.77,1.12,11.43,11.43,0,0,0-1.62.56,5.52,5.52,0,0,1-3.53.47,2.92,2.92,0,0,1-2.33-2.93,14.61,14.61,0,0,1,.53-2.22c0-.19.19-.46.34-.51,1.08-.33,2-1.12,3.29-.88.39.08.84-.15,1.25-.12,1.4.11,2.8.38,4.2.38a7,7,0,0,1,2.53.7c2,.74,4.08,1.35,6.11,2.08a7.34,7.34,0,0,1,3.89,3.59,40.09,40.09,0,0,1,2.33,4.63,9.88,9.88,0,0,1,.4,5.94c-.44,2-.88,3.9-1.47,5.81a12.53,12.53,0,0,1-1.41,2.65,8.34,8.34,0,0,1-1,1.32c-1.52,1.66-3,3.36-4.61,4.92a23,23,0,0,1-3.12,2.3c-.85.58-1.74,1.09-2.63,1.61a7,7,0,0,0-2.43,1.65c-.07.09-.35,0-.53.06a8.29,8.29,0,0,0-2.63.9,19.43,19.43,0,0,1-3.59,1.29,34,34,0,0,1-4.13.87C57.6,116,56.19,116.05,54.79,116.17ZM86,90.94l-.21-.68-.47.36a1.65,1.65,0,0,1-.45.31c-.55.19-.68.49-.46,1a4.69,4.69,0,0,1,.24,1.25c.14,1.12-.14,1.5-1.21,1.81-.19,0-.36.4-.41.64-.14.56-.14,1.15-.31,1.7s-.69.88-.16,1.46c.06.06-.06.33-.13.49a5.52,5.52,0,0,0-.49,1.16c-.25,1.52-1.37,2-2.63,2.22-.65.12-.87.31-.82,1s.35,1.61-.43,2.23c0,0,0,.16,0,.25s.22-.07.28-.14c1-1.14,2-2.27,2.9-3.43.61-.75,1.11-1.59,1.77-2.28A6.47,6.47,0,0,0,84.6,97c.21-1,.41-2.07.64-3.1S85.74,91.89,86,90.94ZM70.78,103.13h0a8.2,8.2,0,0,1,0-1.11c0-.14.23-.26.35-.39.07.15.21.29.22.44.06,1,.1,2,.16,3,0,.12.16.22.24.34a1.82,1.82,0,0,0,.11-.4c0-.33,0-.67,0-1,0-.06.08-.12.13-.18a1.31,1.31,0,0,1,.11.12c.06.14.18.3.15.42-.33,1.23.75,1.3,1.39,1.72.3.2.65.33,1,.52,1,.61,1.07.63,1.9-.16a8,8,0,0,0,1-1.22,1.48,1.48,0,0,0,.23-.87c0-.16-.35-.44-.5-.41-.94.17-1.86.49-2.81.59a1.6,1.6,0,0,1-1.25-.53,6.75,6.75,0,0,1-.79-1.89c-.15-.49-.18-1-.32-1.51-.06-.19-.27-.49-.4-.49s-.61.17-.66.35A14,14,0,0,0,70.4,103a4.26,4.26,0,0,0,.29,1.36ZM40.13,98.25,40,98.13c0-.15,0-.31,0-.46-.08-.75-.24-.91-1-.63a5.33,5.33,0,0,0-2,1.11c-1.49,1.65-2.84,3.43-4.23,5.17-.1.12-.08.33-.12.49a1.31,1.31,0,0,0,.52,0,2,2,0,0,0,.51-.37c.87-.67,1.72-1.37,2.6-2,.31-.23.74-.27,1.06-.49a14.72,14.72,0,0,0,1.79-1.35A11.83,11.83,0,0,0,40.13,98.25Zm40.19-2.5c-.38,0-.61,0-.42.71a2.38,2.38,0,0,1-1.13,3c-.34.2-.39.36,0,.59a.9.9,0,0,1,.31,1.34c-.36.65.09.57.48.51a2.39,2.39,0,0,0,1.75-2.38A4,4,0,0,1,82,96.73c.37-.48.21-.73-.38-.79Zm-8,12.58-.15-.06A5.7,5.7,0,0,0,72,107c-.09-.26-.43-.44-.65-.65a5.93,5.93,0,0,0-.29.56,3.22,3.22,0,0,0-.1.54,3.42,3.42,0,0,1-4.18,2.79c-.24-.05-.63-.06-.73.08a21.08,21.08,0,0,0-1.26,2c0,.09,0,.24,0,.36a.76.76,0,0,0,.3-.14c.37-.38.7-.81,1.09-1.18.69-.67.84-.63,1.41.11.12.15.37.37.46.33a13.3,13.3,0,0,0,2.17-1.08,7.34,7.34,0,0,0,1.33-1.34A10.45,10.45,0,0,0,72.3,108.33Zm-41-1.22c.26.83.51,1.64.78,2.43,0,.11.15.19.22.28,0-.11.11-.25.07-.34-.25-.63.09-.69.62-.87a4.43,4.43,0,0,0,1.69-1.15c.68-.75.61-.8-.39-1.19s-1.82-.66-1.9-1.84a2.17,2.17,0,0,0-.07-.24c-.08.08-.21.16-.24.26C31.77,105.31,31.53,106.18,31.26,107.11ZM83.14,90.79c.27-.15.62-.38,1-.55,1.56-.7,1.25-1,.85-2.44-.3-1.06-.77-1.08-1.47-.23-.06.07-.05.19-.11.25a3.47,3.47,0,0,1-2.79,1.67c-.1,0-.27.07-.29.13s.05.29.12.31C81.29,90.22,82.14,90.48,83.14,90.79ZM64.29,78.52l.15.06a2.79,2.79,0,0,0,0,.82A8,8,0,0,0,65,80.53c.34-.21.69-.41,1-.65a.76.76,0,0,0,.22-.39c.18-.74.33-1.48.5-2.21a2.89,2.89,0,0,1,.27-.83,2.85,2.85,0,0,1,.6-.54,8.75,8.75,0,0,0-.88-.09,11,11,0,0,0-1.27.14.5.5,0,0,0-.35.21C64.79,77,64.54,77.74,64.29,78.52Zm-24,34.31v.08l.36,0a1.24,1.24,0,0,0-.17-.3,5.44,5.44,0,0,0-1.52-1.26,5.67,5.67,0,0,0-1.93,0h-.45c-1.42-.09-1.91-.54-2.17-1.94,0-.12-.11-.29-.19-.31-.37-.08-1,.56-.9.9a3.55,3.55,0,0,0,.91,1.56,6.36,6.36,0,0,0,2.27.86C37.72,112.59,39,112.68,40.26,112.83ZM82.73,86.52c-.26-.42-.49-.86-.78-1.26a.52.52,0,0,0-.5,0c-.78.64-1.53,1.3-2.27,2a.7.7,0,0,0-.16.51.94.94,0,0,0,1.41.79c.52-.23,1-.64,1.49-.86S82.61,87.13,82.73,86.52ZM77.94,99a3.81,3.81,0,0,0,.82-.52,2.39,2.39,0,0,0-.09-3.1c-.21-.24-.62-.58-.86-.09a14.43,14.43,0,0,0-.88,2.29C76.67,98.45,77,98.89,77.94,99ZM82,83.22c.19.88.17,1.73,1,2.3.43.3.42,1.48,1.3.47,1,.18.52-.46.37-.75-.47-.91-1-1.79-1.51-2.67-.36-.6-.62-.58-.93.05C82.15,82.83,82.08,83.06,82,83.22ZM63.69,110.83c-.79-.27-.88.12-.86.56a2.11,2.11,0,0,1-.86,1.72,7,7,0,0,0-.83.89.86.86,0,0,0-.11.33,1.2,1.2,0,0,0,.33,0c.62-.16,1.24-.3,1.84-.5.2-.06.5-.26.51-.41A5.14,5.14,0,0,1,65,110.64a1.24,1.24,0,0,0,.1-.4,2,2,0,0,0-.42.09C64.28,110.5,63.93,110.7,63.69,110.83ZM51.38,112.9l.2,0a3.68,3.68,0,0,0-.31-.38c-.25-.25-.61-.46-.76-.76-.3-.66-.74-.44-1.1-.2a.66.66,0,0,0-.16,1.06c.22.3.38.92.21,1.14-.49.67-.1.71.4.8s.7.17,1.06.23.6,0,.48-.51A6,6,0,0,1,51.38,112.9Zm6.08-2.57c0-.07,0-.19,0-.31s-.09-.39-.13-.59a3.33,3.33,0,0,0-.65.23,4,4,0,0,0-1.59,1.92c-.14.31-.34.59-.48.89a.74.74,0,0,0-.09.51c0,.11.29.19.44.18A3.22,3.22,0,0,0,57.46,110.33ZM76.33,81.92c1.29.13,2.74-1.51,3-2.54,0-.15-.25-.46-.45-.58s-.66-.23-.73-.13c-.7.92-1.36,1.87-2,2.83C76.12,81.59,76.3,81.84,76.33,81.92ZM41.53,110v-.08a4.86,4.86,0,0,0-1.09.12,1.53,1.53,0,0,0-.81.63c-.07.14.24.61.49.75a7.61,7.61,0,0,0,1.78.77c.66.18,1-.36.86-1-.11-.33-.08-.7-.17-1a.5.5,0,0,0-.36-.28A3.33,3.33,0,0,0,41.53,110ZM51,106.85a3.72,3.72,0,0,1-.4.85,14.36,14.36,0,0,1-1.31,1.5,5.64,5.64,0,0,0-1.3,1.91.86.86,0,0,0,0,.39.3.3,0,0,0,.23,0,11.77,11.77,0,0,0,1.78-1.5,8.52,8.52,0,0,0,1-1.82c.32-.64.65-1.28.93-1.94.06-.16,0-.53-.1-.55a1.84,1.84,0,0,0-.81,0s0,.33,0,.5S51,106.55,51,106.85ZM76.67,94.66A1.77,1.77,0,0,0,74.84,96a1.85,1.85,0,0,0,.74,2.13c.43.28.42-.07.51-.32.3-.78.61-1.55.91-2.33.08-.21.25-.48.18-.64S76.78,94.7,76.67,94.66ZM63.48,108.59l.07,0a5.62,5.62,0,0,0,0,.82c0,.09.19.24.24.23a7.82,7.82,0,0,0,1-.45c.89-.48.58-1.35.67-2.11s-.29-.76-.73-.6a1.93,1.93,0,0,0-.91.78A5,5,0,0,0,63.48,108.59ZM75.89,80.84a2.46,2.46,0,0,0-.4-.09,3.49,3.49,0,0,0-2.69,3,.37.37,0,0,0,.31.19,1.18,1.18,0,0,0,.65-.29c.68-.82,1.32-1.67,2-2.51A2.67,2.67,0,0,0,75.89,80.84ZM44.8,105.29a20.42,20.42,0,0,0-2.27.79c-.54.25-.53.7-.07,1.28s.88.71,1.25.26a15.12,15.12,0,0,0,1.24-1.9C45,105.64,44.86,105.45,44.8,105.29Zm-6.86-2.2v.07a2.51,2.51,0,0,0-.55,0,1.2,1.2,0,0,0-.37.23c.13,0,.25.07.38.09a2.11,2.11,0,0,0,.35.05c-.05.11-.08.25-.16.3l-2.13,1.33-.67.38a5.65,5.65,0,0,1,.58.36c.17.13.28.34.45.45a.42.42,0,0,0,.41,0c.72-.77,1.43-1.56,2.11-2.37a1,1,0,0,0,.16-.69C38.48,103.19,38.13,103.15,37.94,103.09Zm9.94,9.09c-.54-.23-.91-.53-1.25-.5a16.2,16.2,0,0,0-2.24.46c-.25,0-.75-.13-.52.42s.25,1.08,1,.88,1.59-.56,2.37-.86A5.39,5.39,0,0,0,47.88,112.18ZM74.44,79.61s.27.43.39.4a8.11,8.11,0,0,0,1.69-.66.69.69,0,0,0,.22-.63A.88.88,0,0,0,75.57,78C74.79,78.19,74.45,78.57,74.44,79.61ZM71.19,77c-.16-.25-.26-.6-.49-.74a3,3,0,0,0-1-.29s-.16.1-.15.13c.34.94-.33,1.6-.67,2.34a2.25,2.25,0,0,0-.08.24c.14,0,.33.08.44,0A9.4,9.4,0,0,1,70.54,78C71,77.78,71.26,77.64,71.19,77ZM56.42,115v0a11.54,11.54,0,0,0,1.18-.16.49.49,0,0,0,.27-.38,11.58,11.58,0,0,0-.23-1.31,3.08,3.08,0,0,0-.16-.38l-.3.17a10.46,10.46,0,0,0-1.38.94c-.24.21-.3.61-.45.92.21,0,.4.12.61.15A2.34,2.34,0,0,0,56.42,115ZM66.86,80.55a6.8,6.8,0,0,0,.74-.89c.31-.61.58-1.24.86-1.87a5,5,0,0,0,.32-.84.43.43,0,0,0-.25-.34c-.44-.09-1.19.52-1.28,1-.17.8-.35,1.59-.51,2.38A2.5,2.5,0,0,0,66.86,80.55Zm8.45,8.89A2.58,2.58,0,0,0,76,90c.14.07.62-.2.61-.27-.11-.79.39-1.23.85-1.71a.42.42,0,0,0-.06-.35A1.92,1.92,0,0,0,75.31,89.44ZM41.49,109.18l1.19-.51a9.38,9.38,0,0,0-.61-.8c-.29-.33-.61-.63-.92-1-.13.43-.26.85-.37,1.28C40.55,109.07,40.55,109.07,41.49,109.18Zm15-2.42s-.11.07-.12.12c-.31.84-.61,1.68-.9,2.53,0,0,.26.15.31.12.47-.32.93-.66,1.37-1a1.08,1.08,0,0,0,.22-.46,1.15,1.15,0,0,1-.73-1.25Zm1.95,5.86s0,0,0,0a3.17,3.17,0,0,0-.09,1.21,1,1,0,0,0,.82.44,5.13,5.13,0,0,0,1.15-.9s-.06-.19-.12-.21C59.65,113,59.1,112.81,58.48,112.62ZM62.82,79a1.14,1.14,0,0,0,.14.36,2.13,2.13,0,0,0,.47.37l.12-.49c.18-.83.37-1.66.54-2.49a4.18,4.18,0,0,0,.07-.51,3.06,3.06,0,0,0-.56.18c-.15.09-.34.24-.37.39C63.08,77.51,63,78.2,62.82,79Zm16.81,2.36c.4-.09.67-.13.93-.21s.62-.27.92-.41c-.22-.26-.44-.53-.68-.78a.81.81,0,0,0-.37-.26c-.14,0-.38,0-.42.15a9.37,9.37,0,0,0-.44,1.19C79.54,81.15,79.61,81.27,79.63,81.38Zm-7.32,1.18s-.12-.09-.14-.07a12.56,12.56,0,0,0-1.36,1.37c-.07.08.25.53.46.73a.6.6,0,0,0,.53,0C72,83.92,72.13,83.28,72.31,82.56ZM53.68,115a4.56,4.56,0,0,0,.64,0,2.81,2.81,0,0,0,.53-.19c-.09-.19-.14-.48-.28-.54a2,2,0,0,0-.94-.12,2.42,2.42,0,0,0-.83.32,1.66,1.66,0,0,0-.38.37A3.24,3.24,0,0,0,53,115,5.93,5.93,0,0,0,53.68,115Zm19.55-5.53c.54-.36,1.13-.73,1.7-1.13a.35.35,0,0,0,0-.31,6.78,6.78,0,0,0-1-.53,2,2,0,0,0-.23.35c-.22.44-.43.89-.64,1.34,0,.07,0,.15-.08.22ZM65.8,104.3c-.18-.07-.34-.19-.48-.17a2.07,2.07,0,0,0-1.76,1.25,2.36,2.36,0,0,0-.1.38.72.72,0,0,0,.33-.05c.62-.37,1.22-.75,1.82-1.14C65.68,104.53,65.71,104.43,65.8,104.3Zm-23.09.93c.59-.32,1.19-.65,1.78-1,.06,0,.09-.13.13-.2s-.17-.11-.23-.09c-.64.26-1.27.52-1.89.81a.34.34,0,0,0-.14.29C42.38,105.12,42.54,105.15,42.71,105.23ZM79.06,89.46c0-.11,0-.17,0-.17-.32-.12-.73-.4-.94-.29s-.45.59-.67.91c.27,0,.55,0,.82-.1a2.46,2.46,0,0,0,.53-.15A1.69,1.69,0,0,0,79.06,89.46ZM73,77.33V77c-.24-.1-.48-.29-.7-.28s-.32.29-.48.44c.16.15.32.43.47.43S72.79,77.44,73,77.33Zm1.66.2v-.21c-.21-.07-.5-.26-.6-.19a3.14,3.14,0,0,0-.53.7c.08.06.19.19.24.17C74.1,77.86,74.39,77.69,74.69,77.53ZM70.94,79c-.33-.11-.42-.17-.45-.15-.41.3-.81.61-1.21.92,0,0,.12.12.14.11C69.87,79.61,70.31,79.35,70.94,79ZM47.38,113.29l-.68.4a6.86,6.86,0,0,0,.76.27s.22-.16.21-.19A3.61,3.61,0,0,0,47.38,113.29Z"/><path d="M55.14,103a31.4,31.4,0,0,1-3.91-.49,22.82,22.82,0,0,1-4.35-1.5c-1.7-.78-2-2.44-1.71-4.31A1.51,1.51,0,0,0,45,95.66c-.8-1.5-2.19-1.9-3.7-2.09a1,1,0,0,0-.74.41c-.31.48-.73.44-1.19.44-.87,0-1.74,0-2.61,0a2.65,2.65,0,0,0-1.83,1.09,4.36,4.36,0,0,0-1.26,2.21c0,.1-.13.18-.2.27a1.14,1.14,0,0,1-.15-.34,4.29,4.29,0,0,1,3-4.16,12.27,12.27,0,0,1,1.79-.34c.72-.06,1.44.09,2-.6a1.21,1.21,0,0,1,1.6-.15,5.24,5.24,0,0,0,1,.36,4.82,4.82,0,0,1,3.19,2.79A4.46,4.46,0,0,1,46.14,97a8.76,8.76,0,0,0,.23,2.07c.57,1.54,2,1.91,3.42,2.17,1.88.35,3.75.72,5.65.89a9.79,9.79,0,0,0,2.66-.49c.43-.1.85-.23,1.27-.36s.69-.23,1-.36c1.43-.55,2.87-1.09,4.29-1.69a2.1,2.1,0,0,0,.89-.76,24.12,24.12,0,0,0,3.26-5.95,14.75,14.75,0,0,0,.56-4.13,3.19,3.19,0,0,0-1-2A4.41,4.41,0,0,0,65,84.73a8,8,0,0,1-4.83-1.62A4,4,0,0,1,59,79.26a22.56,22.56,0,0,1,1.71-3.78,5.25,5.25,0,0,1,1.63-1.42c.13-.1.48.11.72.18-.07.18-.09.42-.22.52a7.14,7.14,0,0,0-2.76,5,3,3,0,0,0,1.29,2.91A7.22,7.22,0,0,0,65.56,84a4.14,4.14,0,0,1,1.79.54A7.67,7.67,0,0,1,70,87.17,5.29,5.29,0,0,1,70.36,91c-.43,2.71-1.9,4.93-3.37,7.15-.25.38-.53.73-.75,1.12a3.7,3.7,0,0,1-2.5,1.5c-1,.31-2,.74-3,1.06A17.13,17.13,0,0,1,55.14,103Z"/><path d="M95.12,51.6c-.16,2.54-.42,5.2-.49,7.86a32,32,0,0,1-1.19,7.92c-.53,1.89-1.33,3.7-2,5.53C91,74,90.57,75,90.13,76a5.31,5.31,0,0,1-.73,1.27.91.91,0,0,1-.81.26c-.31-.17-.21-.49,0-.85,1.11-2.25,2.23-4.5,3.19-6.82A31,31,0,0,0,93.62,62c.2-1.45.06-3,.33-4.38.5-2.7,0-5.37,0-8a7.34,7.34,0,0,0-.5-1.83c-.43-1.67-.76-3.37-1.3-5a16.61,16.61,0,0,0-1.37-2.51,1.93,1.93,0,0,1-.09-.6,1.78,1.78,0,0,1,.61.25,7.48,7.48,0,0,1,1.79,3.53c.35,1.37.8,2.73,1.14,4.11S94.81,50.14,95.12,51.6Z"/><path d="M88.79,56.06a30.8,30.8,0,0,0-.88-7c0-.17.1-.39.16-.58.17.13.46.24.49.39.24,1.6,1,3.09.72,4.81-.19,1.4.15,2.87.08,4.3-.11,2-.32,4-.59,5.91a24,24,0,0,1-.9,4.46c-.64,1.88-1.53,3.67-2.34,5.49a.77.77,0,0,1-.49.36c-.16,0-.37,0-.55-.09a2,2,0,0,1,.14-.47A33.92,33.92,0,0,0,87,68.86a40.64,40.64,0,0,0,1.28-6.52C88.55,60.26,88.62,58.16,88.79,56.06Z"/><path d="M78.76,58.41a21.34,21.34,0,0,1-1.87,9.49A10,10,0,0,1,76.35,69c-.12.17-.43.22-.65.32,0-.24-.12-.55,0-.72A13.32,13.32,0,0,0,77.78,61c0-1.16-.14-2.32-.18-3.48,0-.16.17-.48.23-.47.24,0,.59.1.67.27A5.17,5.17,0,0,1,78.76,58.41Z"/><path d="M104,37.2l-.17.25c-.08-.07-.21-.11-.25-.2-.23-.53-.46-1.06-.67-1.6a36.49,36.49,0,0,0-5.08-8.73,2,2,0,0,1-.35-.53,1.54,1.54,0,0,1,.07-.55c.24.05.61,0,.7.17,1.24,2,2.55,3.89,3.62,5.94a50.55,50.55,0,0,1,2,4.95A2.74,2.74,0,0,0,104,37.2Z"/><path d="M92.85,37.1l-.27,1.37c-.16-.43-.35-.85-.48-1.29-.41-1.32-.74-2.68-1.23-4a13.22,13.22,0,0,0-1.14-1.73c-.15-.27-.28-.77-.14-.93.36-.41.63.05.88.29a6.07,6.07,0,0,1,1.45,2.77l1,3.44Z"/><path d="M96.13,37.57c-.09,0-.23.16-.36.14a.41.41,0,0,1-.27-.3,11.11,11.11,0,0,0-2.84-5.34,15.42,15.42,0,0,0-2.39-1.89,1.54,1.54,0,0,1-.28-.42c.17,0,.39-.08.5,0a31.38,31.38,0,0,1,3,2.42,10.31,10.31,0,0,1,2.46,4.87A5.36,5.36,0,0,0,96.13,37.57Z"/></g></g></svg>