<svg xmlns="http://www.w3.org/2000/svg" xmlns:xlink="http://www.w3.org/1999/xlink" viewBox="0 0 425.76 774.37"><defs><style>.cls-1,.cls-2,.cls-3,.cls-4,.cls-5{fill:none;}.cls-1,.cls-2{clip-rule:evenodd;}.cls-2{clip-path:url(#clip-path);}.cls-10,.cls-12,.cls-13,.cls-3,.cls-4,.cls-5,.cls-6,.cls-8,.cls-9{fill-rule:evenodd;}.cls-3{clip-path:url(#clip-path-2);}.cls-5{clip-path:url(#clip-path-4);}.cls-6{fill:#d20000;}.cls-7{clip-path:url(#clip-path-7);}.cls-8{fill:#ff8181;}.cls-9{fill:#25520b;}.cls-10{fill:#b60909;}.cls-11{clip-path:url(#clip-path-8);}.cls-12{fill:#e15f5f;}.cls-13{fill:#f9b0b0;}</style><clipPath id="clip-path"><path class="cls-1" d="M241.49,555.49S326.6,596.38,271,676.63c0,0,50.28-4.63,82.68-30.31,8.88-7-5.49-15.9-.7-26.43,3.68-8.1,27.65-17.09,27.45-27.6s-22.21-8.64-28.39-17.88c-4.69-7,7.46-25.4.63-31.21-6.36-5.41-28.11-2.43-35.38-6.41-10.26-5.61-6.51-17.65-17.19-20.42-39.35-10.22-75,0-58.62,39.12Z"/></clipPath><clipPath id="clip-path-2"><path class="cls-2" d="M221.09,463.46c104.58,0,189.48,63.53,189.48,141.78S325.67,747,221.09,747,31.6,683.48,31.6,605.24s84.91-141.78,189.49-141.78Z"/></clipPath><clipPath id="clip-path-4"><path class="cls-1" d="M187.46,570.67S143.1,645,241.39,685.49a181.14,181.14,0,0,1-36.57,12.42c-12.6,2.87-25.72-8.43-40.85-9.45-14.82-1-32.65,7.14-46-1-8.17-5,.27-19.07-6.28-27.79-7.05-9.37-26.44-12.41-27-23.23-.5-9.52,19.28-11.57,22.53-21,2.53-7.35-12.08-22.21-7.92-28.91,3.33-5.36,18.32-2.64,22.38-7.29s-2.68-16.8,1.88-20.51c24.63-20,53.68-23.31,63.94,12Z"/></clipPath><clipPath id="clip-path-7"><path class="cls-1" d="M116,105.17C39.41,97-6.8,184.8.82,253.33c13.66,123,214.79,165,307.07,125.41,35.76-15.32,79.77-55,97.15-88.48C460.73,183,399.91,76.33,273.21,94.43c-32.44,4.63-36,25.13-65.28,32.44-29,7.25-62.54-18.27-91.9-21.7"/></clipPath><clipPath id="clip-path-8"><path class="cls-1" d="M179.49,477.48c104.58,0,240.38,99.14,223.11,166.94-19.47,76.46-98.77,137.76-200.33,129.14C97.68,764.69,33.94,689.36,26.82,641.49c-11.55-77.62,48.08-164,152.67-164Z"/></clipPath></defs><g id="Warstwa_2" data-name="Warstwa 2"><g id="Warstwa_1-2" data-name="Warstwa 1"><path class="cls-6" d="M116,105.17C39.41,97-6.8,184.8.82,253.33c13.66,123,214.79,165,307.07,125.41,35.76-15.32,79.77-55,97.15-88.48C460.73,183,399.91,76.33,273.21,94.43c-32.44,4.63-36,25.13-65.28,32.44-29,7.25-62.54-18.27-91.9-21.7"/><g class="cls-7"><polygon class="cls-8" points="337.56 159.42 337.55 160.17 337.55 160.17 337.49 160.34 337.43 160.51 337.42 160.55 337.37 160.69 337.31 160.86 337.25 161.03 337.19 161.2 337.12 161.38 337.06 161.55 336.99 161.72 336.93 161.89 336.87 162.06 336.8 162.23 336.73 162.4 336.67 162.57 336.6 162.75 336.54 162.92 336.47 163.09 336.4 163.26 336.33 163.43 336.26 163.6 336.2 163.77 336.13 163.94 336.06 164.11 335.99 164.28 335.92 164.45 335.85 164.62 335.78 164.78 335.71 164.96 335.63 165.12 335.56 165.29 335.49 165.46 335.42 165.63 335.35 165.8 335.27 165.97 335.2 166.13 335.12 166.3 335.05 166.47 334.97 166.64 334.9 166.81 334.82 166.97 334.75 167.14 334.67 167.31 334.6 167.48 334.52 167.64 334.44 167.81 334.36 167.98 334.28 168.15 334.2 168.31 334.13 168.48 334.05 168.65 333.97 168.81 333.89 168.98 333.81 169.14 333.73 169.31 333.64 169.47 333.56 169.64 333.48 169.81 333.4 169.97 333.32 170.14 333.23 170.3 333.15 170.47 333.07 170.63 332.98 170.79 332.9 170.96 332.81 171.12 332.73 171.29 332.64 171.45 332.56 171.62 332.47 171.78 332.39 171.94 332.3 172.11 332.21 172.27 332.12 172.43 332.04 172.6 331.95 172.76 331.86 172.92 331.77 173.09 331.68 173.25 331.59 173.41 331.5 173.57 331.41 173.74 331.32 173.9 331.23 174.06 331.14 174.22 331.05 174.38 330.95 174.54 330.86 174.71 330.77 174.87 330.68 175.03 330.58 175.19 330.49 175.35 330.39 175.51 330.3 175.67 330.21 175.83 330.11 175.99 330.01 176.15 329.92 176.31 329.82 176.47 329.73 176.63 329.63 176.79 329.53 176.95 329.44 177.11 329.34 177.27 329.24 177.43 329.14 177.58 329.04 177.74 328.94 177.9 328.84 178.06 328.74 178.22 328.64 178.38 328.54 178.53 328.44 178.69 328.34 178.85 328.24 179.01 328.14 179.16 328.03 179.32 327.93 179.48 327.83 179.63 327.72 179.79 327.62 179.95 327.52 180.1 327.41 180.26 327.31 180.42 327.2 180.57 327.1 180.73 326.99 180.88 326.89 181.04 326.78 181.19 326.67 181.35 326.57 181.5 326.46 181.66 326.35 181.81 326.24 181.97 326.14 182.12 326.08 182.21 326.03 182.28 325.92 182.43 325.8 182.58 325.69 182.73 325.58 182.88 325.46 183.03 325.35 183.18 325.24 183.33 325.12 183.48 325.01 183.63 324.89 183.78 324.78 183.93 324.66 184.08 324.55 184.23 324.43 184.38 324.32 184.53 324.2 184.68 324.08 184.83 323.96 184.97 323.85 185.12 323.73 185.27 323.61 185.42 323.49 185.57 323.38 185.72 323.25 185.86 323.14 186.01 323.02 186.16 322.9 186.3 322.78 186.45 322.66 186.6 322.54 186.74 322.42 186.89 322.29 187.04 322.17 187.18 322.05 187.33 321.93 187.47 321.81 187.62 321.68 187.76 321.56 187.91 321.44 188.06 321.31 188.2 321.19 188.34 321.06 188.49 320.94 188.63 320.82 188.78 320.69 188.92 320.56 189.07 320.44 189.21 320.31 189.35 320.19 189.5 320.06 189.64 319.93 189.78 319.81 189.93 319.68 190.07 319.55 190.21 319.42 190.35 319.3 190.49 319.17 190.64 319.04 190.78 318.91 190.92 318.78 191.06 318.65 191.2 318.52 191.34 318.39 191.49 318.26 191.63 318.13 191.77 318 191.91 317.87 192.05 317.74 192.19 317.6 192.33 317.47 192.47 317.34 192.61 317.21 192.75 317.07 192.88 316.94 193.02 316.81 193.16 316.67 193.3 316.54 193.44 316.41 193.58 316.27 193.72 316.14 193.85 316 193.99 315.87 194.13 315.73 194.27 315.6 194.4 315.46 194.54 315.32 194.68 315.19 194.81 315.05 194.95 314.91 195.09 314.77 195.22 314.64 195.36 314.5 195.5 314.36 195.63 314.22 195.77 314.08 195.9 313.94 196.04 313.81 196.17 313.67 196.31 313.53 196.44 313.39 196.58 313.25 196.71 313.11 196.85 312.97 196.98 312.82 197.11 312.68 197.25 312.54 197.38 312.4 197.51 312.26 197.65 312.12 197.78 311.97 197.91 311.83 198.05 311.69 198.18 311.55 198.31 311.4 198.44 311.26 198.57 311.11 198.71 310.97 198.84 310.82 198.97 310.68 199.1 310.53 199.23 310.39 199.36 310.24 199.49 310.1 199.62 310.05 199.67 309.95 199.75 309.8 199.88 309.65 200 309.5 200.13 309.36 200.26 309.2 200.38 309.06 200.51 308.9 200.63 308.75 200.76 308.6 200.88 308.45 201.01 308.3 201.13 308.15 201.26 308 201.38 307.85 201.51 307.69 201.63 307.54 201.75 307.39 201.88 307.24 202 307.08 202.12 306.93 202.25 306.78 202.37 306.63 202.49 306.47 202.62 306.32 202.74 306.16 202.86 306.01 202.98 305.86 203.1 305.7 203.22 305.55 203.35 305.39 203.47 305.23 203.59 305.08 203.71 304.92 203.83 304.76 203.95 304.61 204.07 304.45 204.19 304.3 204.31 304.14 204.43 303.98 204.55 303.82 204.67 303.67 204.79 303.51 204.91 303.35 205.03 303.19 205.14 303.04 205.26 302.88 205.38 302.72 205.5 302.56 205.62 302.4 205.73 302.24 205.85 302.08 205.97 301.92 206.09 301.76 206.2 301.6 206.32 301.44 206.44 301.28 206.55 301.12 206.67 300.96 206.78 300.8 206.9 300.63 207.01 300.47 207.13 300.31 207.25 300.29 207.26 300.15 207.36 299.98 207.47 299.82 207.58 299.65 207.69 299.49 207.8 299.32 207.91 299.16 208.02 298.99 208.13 298.82 208.24 298.66 208.35 298.49 208.46 298.33 208.56 298.16 208.67 297.99 208.78 297.82 208.89 297.66 209 297.49 209.11 297.32 209.21 297.15 209.32 296.99 209.43 296.82 209.53 296.65 209.64 296.48 209.75 296.31 209.85 296.14 209.96 295.98 210.07 295.81 210.17 295.64 210.28 295.47 210.38 295.3 210.49 295.13 210.6 294.96 210.7 294.79 210.81 294.62 210.91 294.45 211.01 294.28 211.12 294.11 211.22 293.94 211.33 293.76 211.43 293.59 211.53 293.42 211.64 293.25 211.74 293.08 211.84 292.91 211.94 292.73 212.05 292.56 212.15 292.39 212.25 292.22 212.35 292.04 212.46 291.87 212.56 291.7 212.66 291.52 212.76 291.35 212.86 291.18 212.96 291 213.06 290.83 213.16 290.65 213.26 290.48 213.36 290.31 213.46 290.3 213.47 290.13 213.56 289.95 213.65 289.77 213.75 289.6 213.84 289.42 213.94 289.24 214.03 289.07 214.13 288.89 214.22 288.71 214.31 288.53 214.41 288.36 214.5 288.18 214.6 288 214.69 287.82 214.78 287.64 214.88 287.46 214.97 287.28 215.06 287.11 215.15 286.93 215.25 286.75 215.34 286.57 215.43 286.39 215.52 286.21 215.61 286.03 215.7 285.85 215.79 285.67 215.88 285.49 215.97 285.31 216.06 285.13 216.16 284.95 216.25 284.77 216.33 284.59 216.42 284.41 216.51 284.22 216.6 284.04 216.69 283.86 216.78 283.68 216.87 283.5 216.96 283.32 217.04 283.14 217.13 282.95 217.22 282.77 217.31 282.59 217.4 282.41 217.48 282.22 217.57 282.04 217.66 281.86 217.74 281.68 217.83 281.49 217.92 281.31 218 281.13 218.09 280.94 218.17 280.76 218.26 280.58 218.34 280.39 218.43 280.21 218.51 280.02 218.6 279.84 218.68 279.66 218.77 279.47 218.85 279.29 218.94 279.1 219.02 278.92 219.1 278.73 219.19 278.55 219.27 278.36 219.35 278.18 219.44 277.99 219.52 277.81 219.6 277.62 219.68 277.44 219.76 277.25 219.84 277.19 219.87 277.07 219.93 276.88 220.01 276.69 220.09 276.5 220.16 276.32 220.24 276.13 220.32 275.94 220.4 275.76 220.48 275.57 220.56 275.38 220.64 275.19 220.71 275.01 220.79 274.82 220.87 274.63 220.95 274.44 221.02 274.25 221.1 274.07 221.18 273.88 221.25 273.69 221.33 273.5 221.41 273.31 221.48 273.13 221.56 272.94 221.63 272.75 221.71 272.56 221.78 272.37 221.86 272.18 221.94 271.99 222.01 271.8 222.08 271.61 222.16 271.43 222.23 271.24 222.31 271.05 222.38 270.86 222.45 270.67 222.53 270.48 222.6 270.29 222.67 270.1 222.75 269.91 222.82 269.72 222.89 269.52 222.96 269.33 223.03 269.14 223.11 268.95 223.18 268.76 223.25 268.57 223.32 268.38 223.39 268.19 223.46 268 223.53 267.81 223.6 267.62 223.67 267.43 223.74 267.23 223.81 267.04 223.88 266.85 223.95 266.66 224.02 266.47 224.09 266.28 224.16 266.08 224.23 265.89 224.3 265.7 224.37 265.51 224.43 265.32 224.5 265.13 224.57 264.93 224.64 264.74 224.7 264.55 224.77 264.36 224.84 264.16 224.9 263.97 224.97 263.78 225.04 263.58 225.1 263.39 225.17 263.2 225.24 263 225.3 262.81 225.37 262.62 225.43 262.43 225.5 262.23 225.56 262.04 225.63 261.85 225.69 261.65 225.75 261.46 225.82 261.27 225.88 261.26 225.88 261.07 225.94 260.88 226.01 260.68 226.07 260.49 226.13 260.3 226.19 260.1 226.25 259.91 226.32 259.71 226.38 259.52 226.44 259.32 226.5 259.13 226.56 258.93 226.62 258.74 226.68 258.54 226.74 258.35 226.8 258.15 226.86 257.96 226.92 257.76 226.98 257.57 227.04 257.37 227.1 257.18 227.15 256.98 227.21 256.79 227.27 256.59 227.33 256.4 227.39 256.2 227.44 256 227.5 255.81 227.56 255.61 227.62 255.42 227.67 255.22 227.73 255.03 227.79 254.83 227.84 254.63 227.9 254.44 227.96 254.24 228.01 254.05 228.07 253.85 228.12 253.65 228.18 253.46 228.23 253.26 228.29 253.07 228.34 252.87 228.4 252.67 228.45 252.48 228.5 252.28 228.56 252.08 228.61 251.89 228.67 251.69 228.72 251.49 228.77 251.3 228.83 251.1 228.88 250.9 228.93 250.71 228.98 250.51 229.04 250.31 229.09 250.12 229.14 249.92 229.19 249.72 229.24 249.53 229.29 249.33 229.34 249.13 229.4 248.94 229.45 248.74 229.5 248.54 229.55 248.34 229.6 248.15 229.65 247.95 229.7 247.75 229.75 247.55 229.8 247.36 229.85 247.16 229.9 246.96 229.94 246.76 229.99 246.37 230.09 245.97 230.19 245.58 230.28 245.18 230.38 244.79 230.47 244.39 230.56 244 230.66 243.6 230.75 243.38 230.8 243.21 230.84 242.81 230.92 242.41 231.01 242.02 231.1 241.62 231.18 241.22 231.27 240.83 231.35 240.43 231.44 240.03 231.52 239.64 231.6 239.24 231.68 238.84 231.76 238.45 231.84 238.05 231.92 237.65 232 237.25 232.07 236.86 232.15 236.46 232.23 236.07 232.3 235.67 232.38 235.27 232.45 234.88 232.53 234.48 232.6 234.08 232.67 233.68 232.74 233.29 232.81 232.89 232.88 232.49 232.95 232.1 233.01 231.7 233.08 231.3 233.15 230.91 233.22 230.51 233.28 230.11 233.34 229.72 233.41 229.32 233.47 228.92 233.53 228.53 233.59 228.13 233.65 227.74 233.71 227.34 233.77 226.94 233.83 226.55 233.89 226.15 233.95 225.75 234 225.36 234.06 224.96 234.11 224.57 234.17 224.47 234.18 224.17 234.22 223.78 234.27 223.38 234.32 222.99 234.37 222.59 234.41 222.19 234.46 221.8 234.51 221.41 234.56 221.01 234.6 220.62 234.65 220.22 234.69 219.83 234.73 219.43 234.77 219.04 234.81 218.65 234.86 218.25 234.9 217.86 234.94 217.47 234.97 217.07 235.01 216.68 235.05 216.29 235.09 215.89 235.12 215.5 235.16 215.11 235.19 214.72 235.22 214.33 235.26 213.94 235.29 213.54 235.32 213.15 235.35 212.76 235.38 212.37 235.41 211.98 235.44 211.59 235.47 211.2 235.5 210.81 235.52 210.42 235.55 210.03 235.57 209.64 235.6 209.25 235.62 208.87 235.65 208.48 235.67 208.09 235.69 207.7 235.71 207.31 235.73 206.93 235.75 206.54 235.77 206.15 235.79 205.77 235.8 205.52 235.81 205.38 235.82 205 235.83 204.61 235.84 204.22 235.86 203.84 235.87 203.45 235.88 203.07 235.89 202.69 235.9 202.3 235.91 201.92 235.91 201.53 235.92 201.15 235.93 200.77 235.93 200.39 235.94 200.01 235.94 199.63 235.94 199.24 235.95 198.87 235.95 198.49 235.95 198.1 235.95 197.72 235.95 197.35 235.95 196.97 235.95 196.59 235.94 196.21 235.94 195.83 235.94 195.46 235.93 195.08 235.93 194.7 235.92 194.33 235.92 193.95 235.91 193.58 235.9 193.2 235.89 192.83 235.88 192.45 235.87 192.08 235.86 191.71 235.85 191.33 235.84 190.96 235.83 190.59 235.81 190.22 235.8 189.85 235.78 189.48 235.77 189.11 235.75 188.74 235.73 188.37 235.72 188 235.7 187.63 235.68 187.53 235.67 187.26 235.66 186.9 235.63 186.53 235.61 186.16 235.58 185.8 235.56 185.43 235.53 185.07 235.5 184.7 235.47 184.34 235.45 183.98 235.42 183.62 235.39 183.25 235.35 182.89 235.32 182.53 235.29 182.17 235.26 181.81 235.22 181.45 235.19 181.09 235.16 180.73 235.12 180.38 235.08 180.02 235.05 179.66 235.01 179.31 234.97 178.95 234.93 178.59 234.89 178.24 234.85 177.89 234.81 177.53 234.77 177.18 234.72 176.83 234.68 176.48 234.64 176.13 234.59 175.95 234.57 175.77 234.55 175.6 234.53 175.43 234.5 175.25 234.48 175.08 234.46 174.9 234.43 174.73 234.41 174.55 234.38 174.38 234.36 174.21 234.34 174.03 234.31 173.86 234.29 173.69 234.26 173.51 234.24 173.34 234.21 173.17 234.19 172.99 234.16 172.82 234.13 172.65 234.11 172.48 234.08 172.3 234.06 172.13 234.03 171.96 234 171.79 233.98 171.62 233.95 171.52 233.93 171.45 233.92 171.27 233.89 171.1 233.86 170.93 233.83 170.76 233.8 170.59 233.77 170.42 233.74 170.25 233.71 170.09 233.68 169.91 233.65 169.75 233.62 169.58 233.58 169.41 233.55 169.24 233.52 169.07 233.49 168.9 233.46 168.73 233.42 168.57 233.39 168.4 233.36 168.23 233.33 168.13 233.31 168.04 233.29 167.94 233.27 167.85 233.25 167.75 233.23 167.66 233.21 167.56 233.19 167.47 233.17 167.37 233.15 167.28 233.13 167.18 233.11 167.09 233.09 166.99 233.07 166.9 233.04 166.8 233.02 166.71 233 166.62 232.98 166.52 232.96 166.43 232.93 166.33 232.91 166.24 232.89 166.15 232.86 166.05 232.84 165.96 232.81 165.87 232.79 165.77 232.76 165.68 232.74 165.59 232.71 165.49 232.69 165.4 232.66 165.31 232.64 165.22 232.61 165.12 232.59 165.03 232.56 164.94 232.53 164.85 232.5 164.75 232.48 164.66 232.45 164.57 232.42 164.48 232.39 164.39 232.37 164.3 232.34 164.21 232.31 164.12 232.28 164.03 232.25 163.94 232.22 163.84 232.19 163.75 232.16 163.66 232.13 163.57 232.1 163.39 232.04 163.21 231.98 163.03 231.92 162.85 231.86 162.68 231.79 162.5 231.73 162.32 231.66 162.14 231.59 161.97 231.53 161.79 231.46 161.62 231.39 161.44 231.32 161.26 231.25 161.09 231.18 160.92 231.11 160.74 231.04 160.57 230.97 160.4 230.89 160.22 230.82 160.05 230.74 159.88 230.67 159.71 230.59 159.54 230.51 159.37 230.44 159.2 230.36 159.03 230.28 158.86 230.2 158.69 230.12 158.52 230.04 158.36 229.96 158.19 229.88 158.02 229.79 157.86 229.71 157.69 229.63 157.53 229.54 157.36 229.46 157.2 229.37 157.11 229.33 157.03 229.28 156.87 229.19 156.71 229.1 156.55 229 156.39 228.91 156.23 228.81 156.08 228.72 155.92 228.62 155.76 228.52 155.6 228.42 155.45 228.33 155.29 228.23 155.14 228.13 154.98 228.03 154.83 227.93 154.67 227.83 154.52 227.73 154.37 227.63 154.21 227.53 154.06 227.42 153.91 227.32 153.75 227.22 153.6 227.12 153.45 227.01 153.3 226.91 153.15 226.8 153 226.7 152.85 226.59 152.7 226.49 152.56 226.38 152.41 226.28 152.26 226.17 152.11 226.06 151.96 225.95 151.82 225.85 151.67 225.74 151.52 225.63 151.38 225.52 151.23 225.41 151.11 225.32 151.09 225.3 150.95 225.18 150.81 225.07 150.67 224.95 150.53 224.83 150.4 224.71 150.26 224.59 150.12 224.47 149.99 224.35 149.85 224.24 149.71 224.12 149.58 224 149.44 223.88 149.31 223.75 149.17 223.63 149.04 223.51 148.91 223.39 148.77 223.27 148.64 223.15 148.51 223.03 148.38 222.91 148.24 222.78 148.11 222.66 147.98 222.54 147.85 222.41 147.72 222.29 147.59 222.17 147.46 222.04 147.34 221.92 147.21 221.8 147.08 221.67 146.95 221.55 146.82 221.43 146.7 221.3 146.57 221.18 146.44 221.05 146.32 220.93 146.19 220.8 146.07 220.68 145.94 220.55 145.82 220.43 145.69 220.3 145.65 220.25 145.57 220.17 145.46 220.04 145.34 219.91 145.22 219.77 145.1 219.64 144.99 219.51 144.87 219.38 144.75 219.24 144.64 219.11 144.52 218.98 144.41 218.84 144.29 218.71 144.18 218.58 144.07 218.44 143.95 218.31 143.84 218.18 143.73 218.05 143.61 217.91 143.5 217.78 143.39 217.65 143.28 217.51 143.17 217.38 143.06 217.25 142.95 217.11 142.84 216.98 142.73 216.85 142.62 216.71 142.51 216.58 142.4 216.45 142.29 216.31 142.19 216.18 142.08 216.05 141.97 215.91 141.87 215.78 141.76 215.65 141.65 215.51 141.55 215.38 141.44 215.25 141.34 215.12 141.23 214.98 141.13 214.85 141.03 214.72 140.92 214.59 140.82 214.45 140.72 214.32 140.61 214.19 140.51 214.06 140.41 213.92 140.31 213.79 140.11 213.53 139.91 213.26 139.71 213 139.51 212.74 139.31 212.48 139.12 212.22 138.92 211.96 138.73 211.69 138.54 211.44 138.35 211.18 138.16 210.92 137.97 210.66 137.79 210.41 137.6 210.15 137.42 209.9 137.24 209.64 137.06 209.39 136.88 209.14 136.77 208.99 136.7 208.88 136.54 208.62 136.37 208.37 136.21 208.11 136.04 207.85 135.88 207.6 135.72 207.34 135.56 207.09 135.41 206.84 135.25 206.59 135.09 206.34 134.94 206.09 134.79 205.85 134.63 205.6 134.59 205.54 134.54 205.48 134.5 205.41 134.45 205.35 134.41 205.29 134.37 205.22 134.32 205.16 134.28 205.09 134.24 205.03 134.2 204.96 134.16 204.9 134.13 204.84 134.09 204.77 134.05 204.71 134.01 204.64 133.98 204.58 133.95 204.51 133.91 204.45 133.88 204.38 133.84 204.32 133.81 204.25 133.78 204.19 133.75 204.12 133.71 204.06 133.68 203.99 133.65 203.92 133.62 203.86 133.59 203.79 133.56 203.73 133.53 203.66 133.51 203.59 133.48 203.53 133.45 203.46 133.42 203.4 133.4 203.33 133.37 203.26 133.34 203.19 133.31 203.13 133.29 203.06 133.26 202.99 133.21 202.86 133.16 202.72 133.11 202.59 133.06 202.46 133.02 202.32 132.97 202.18 132.93 202.05 132.88 201.91 132.84 201.78 132.79 201.64 132.75 201.5 132.71 201.37 132.66 201.23 132.62 201.09 132.58 200.95 132.54 200.82 132.5 200.68 132.46 200.54 132.38 200.27 132.31 200 132.23 199.73 132.08 199.19 132.01 198.93 131.94 198.67 131.9 198.54 131.86 198.41 131.83 198.28 131.79 198.15 131.76 198.03 131.72 197.9 131.69 197.78 131.65 197.66 131.62 197.54 131.58 197.41 131.54 197.3 131.51 197.18 131.48 197.06 131.44 196.95 131.41 196.84 131.37 196.72 131.34 196.62 131.3 196.51 131.27 196.4 131.25 196.35 131.23 196.3 131.22 196.25 131.2 196.19 131.18 196.14 131.16 196.09 131.15 196.04 131.13 196 131.11 195.95 131.09 195.9 131.08 195.85 131.06 195.8 131.06 195.81 131.04 195.76 131.02 195.71 131.03 195.72 131.01 195.67 130.99 195.62 130.99 195.63 130.97 195.58 130.96 195.53 130.96 195.54 130.94 195.49 130.92 195.45 130.93 195.45 130.91 195.41 130.89 195.37 130.89 195.37 130.87 195.33 130.85 195.28 130.86 195.29 130.84 195.25 130.82 195.21 130.82 195.21 130.81 195.17 130.79 195.13 130.79 195.14 130.77 195.1 130.75 195.06 130.76 195.07 130.74 195.03 130.74 195.03 130.72 194.99 130.73 195 130.7 194.96 130.71 194.97 130.69 194.93 130.69 194.93 130.67 194.89 130.68 194.9 130.66 194.86 130.66 194.87 130.64 194.83 130.65 194.84 130.62 194.8 130.63 194.81 130.61 194.77 130.62 194.78 130.59 194.74 130.6 194.75 130.58 194.72 130.59 194.72 130.56 194.69 130.57 194.7 130.55 194.66 130.56 194.67 130.53 194.64 130.54 194.65 130.52 194.61 130.53 194.62 130.5 194.59 130.51 194.6 130.49 194.57 130.5 194.57 130.48 194.54 130.49 194.55 130.46 194.52 130.47 194.53 130.45 194.5 130.46 194.51 130.44 194.48 130.45 194.49 130.42 194.46 130.44 194.47 130.41 194.44 130.42 194.45 130.4 194.43 130.41 194.44 130.39 194.41 130.4 194.42 130.38 194.39 130.39 194.4 130.36 194.38 130.38 194.39 130.35 194.36 130.37 194.37 130.34 194.35 130.36 194.36 130.33 194.34 130.35 194.34 130.32 194.32 130.34 194.33 130.31 194.31 130.33 194.32 130.31 194.31 130.32 194.31 130.31 194.3 130.32 194.31 130.31 194.3 130.32 194.3 130.3 194.29 130.31 194.29 130.3 194.29 130.31 194.29 130.29 194.28 130.31 194.28 130.29 194.28 130.3 194.28 130.29 194.27 130.3 194.27 130.28 194.27 130.29 194.27 130.28 194.26 130.29 194.26 130.28 194.26 130.29 194.26 130.27 194.25 130.28 194.25 130.27 194.25 130.28 194.25 130.27 194.24 130.28 194.25 130.26 194.24 130.28 194.24 130.26 194.24 130.27 194.24 130.26 194.23 130.27 194.23 130.26 194.23 130.27 194.23 130.25 194.22 130.26 194.22 130.25 194.22 130.26 194.22 130.25 194.22 130.26 194.22 130.25 194.21 130.26 194.21 130.24 194.21 130.25 194.21 130.24 194.21 130.25 194.21 130.24 194.2 130.25 194.2 130.24 194.2 130.25 194.2 130.23 194.19 130.25 194.19 130.23 194.19 130.24 194.19 130.23 194.19 130.24 194.19 130.23 194.19 130.24 194.19 130.22 194.18 130.24 194.18 130.22 194.18 130.23 194.18 130.22 194.18 130.23 194.18 130.22 194.17 130.23 194.17 130.21 194.17 130.23 194.17 130.21 194.17 130.22 194.16 130.21 194.16 130.22 194.16 130.21 194.16 130.22 194.16 130.2 194.16 130.21 194.16 130.2 194.16 130.21 194.15 130.2 194.15 130.21 194.15 130.19 194.15 130.2 194.15 130.19 194.15 130.2 194.14 130.19 194.14 130.2 194.14 130.18 194.14 130.19 194.14 130.18 194.14 130.19 194.14 130.17 194.14 130.18 194.13 130.17 194.13 130.18 194.13 130.16 194.13 130.17 194.13 130.16 194.13 130.17 194.13 130.15 194.13 130.16 194.13 130.15 194.13 130.16 194.12 130.14 194.13 130.15 194.12 130.14 194.12 130.15 194.12 130.13 194.12 130.14 194.12 130.13 194.12 130.13 194.12 130.12 194.12 130.13 194.12 130.11 194.12 130.12 194.12 130.1 194.12 130.11 194.12 130.1 194.12 130.11 194.12 130.09 194.12 130.1 194.11 130.08 194.12 130.09 194.11 130.07 194.12 130.08 194.12 130.07 194.12 130.07 194.12 130.06 194.12 130.07 194.12 130.05 194.12 130.06 194.12 130.04 194.12 130.05 194.12 130.03 194.12 130.04 194.12 130.02 194.13 130.03 194.12 130.01 194.13 130.02 194.12 130 194.13 130.01 194.13 129.99 194.13 130 194.13 129.98 194.13 129.99 194.13 129.97 194.14 129.98 194.13 129.96 194.14 129.97 194.14 129.95 194.15 129.96 194.14 129.94 194.15 129.94 194.15 129.93 194.15 129.93 194.15 129.92 194.16 129.92 194.15 129.91 194.16 129.91 194.16 129.89 194.17 129.9 194.16 129.88 194.17 129.89 194.17 129.87 194.18 129.87 194.18 129.86 194.19 129.86 194.18 129.84 194.19 129.85 194.19 129.83 194.2 129.83 194.19 129.82 194.21 129.82 194.2 129.8 194.21 129.81 194.21 129.79 194.22 129.79 194.22 129.78 194.23 129.78 194.23 129.76 194.24 129.77 194.24 129.75 194.25 129.75 194.24 129.73 194.26 129.74 194.25 129.72 194.26 129.72 194.27 129.72 194.26 129.71 194.28 129.71 194.27 129.69 194.29 129.69 194.28 129.68 194.3 129.68 194.29 129.66 194.31 129.66 194.3 129.64 194.32 129.65 194.31 129.63 194.33 129.63 194.33 129.61 194.34 129.61 194.34 129.6 194.35 129.6 194.35 129.56 194.38 129.56 194.38 129.24 194.53 128.96 194.49 128.96 194.49 128.82 194.23 128.85 193.88 128.87 193.83 128.89 193.78 128.9 193.76 128.91 193.74 128.92 193.71 128.94 193.69 128.95 193.66 128.96 193.64 128.97 193.62 128.98 193.59 129 193.57 129.01 193.55 129.02 193.53 129.03 193.51 129.05 193.48 129.06 193.46 129.08 193.44 129.09 193.42 129.11 193.4 129.12 193.38 129.14 193.36 129.15 193.34 129.17 193.32 129.18 193.3 129.2 193.28 129.21 193.26 129.23 193.24 129.25 193.22 129.26 193.21 129.28 193.19 129.3 193.17 129.32 193.15 129.33 193.13 129.35 193.12 129.37 193.1 129.39 193.08 129.41 193.06 129.43 193.05 129.45 193.03 129.47 193.02 129.49 193 129.5 192.99 129.53 192.97 129.55 192.96 129.57 192.94 129.59 192.93 129.61 192.92 129.63 192.9 129.66 192.89 129.68 192.88 129.7 192.87 129.72 192.85 129.75 192.84 129.77 192.83 129.79 192.82 129.82 192.81 129.84 192.8 129.87 192.79 129.89 192.78 129.91 192.77 129.94 192.76 129.96 192.76 129.99 192.75 130.01 192.74 130.04 192.74 130.06 192.73 130.09 192.72 130.12 192.72 130.14 192.71 130.17 192.71 130.19 192.7 130.22 192.7 130.24 192.7 130.27 192.69 130.3 192.69 130.32 192.69 130.35 192.69 130.38 192.69 130.4 192.68 130.43 192.68 130.46 192.68 130.48 192.68 130.51 192.68 130.53 192.69 130.56 192.69 130.59 192.69 130.61 192.69 130.64 192.69 130.66 192.69 130.69 192.7 130.71 192.7 130.74 192.71 130.76 192.71 130.79 192.71 130.82 192.72 130.84 192.72 130.87 192.73 130.89 192.73 130.92 192.74 130.94 192.74 130.97 192.75 131 192.76 131.04 192.77 131.09 192.79 131.14 192.8 131.19 192.82 131.24 192.84 131.29 192.85 131.34 192.87 131.38 192.89 131.43 192.91 131.48 192.94 131.52 192.96 131.57 192.98 131.62 193 131.66 193.03 131.71 193.05 131.75 193.08 131.8 193.1 131.84 193.13 131.89 193.16 131.94 193.19 131.98 193.21 132.02 193.24 132.07 193.27 132.12 193.3 132.16 193.33 132.2 193.36 132.25 193.39 132.29 193.43 132.34 193.46 132.38 193.49 132.43 193.53 132.47 193.56 132.51 193.59 132.56 193.63 132.6 193.66 132.65 193.7 132.69 193.74 132.74 193.77 132.78 193.81 132.83 193.85 132.87 193.88 132.92 193.92 132.96 193.96 133 194 133.05 194.04 133.1 194.08 133.14 194.12 133.19 194.16 133.23 194.2 133.27 194.24 133.32 194.28 133.37 194.33 133.41 194.37 133.46 194.41 133.5 194.46 133.54 194.5 133.59 194.54 133.64 194.59 133.68 194.63 133.73 194.68 133.77 194.72 133.82 194.77 133.91 194.86 134 194.95 134.09 195.05 134.18 195.14 134.28 195.24 134.37 195.33 134.46 195.43 134.55 195.53 134.65 195.63 134.74 195.73 134.83 195.83 134.92 195.93 135.02 196.03 135.11 196.13 135.2 196.24 135.3 196.34 135.39 196.44 135.48 196.54 135.58 196.65 135.76 196.86 135.95 197.06 136.32 197.48 136.51 197.68 136.69 197.88 136.88 198.08 136.97 198.18 137.06 198.28 137.15 198.38 137.24 198.47 137.33 198.57 137.42 198.66 137.51 198.75 137.6 198.84 137.69 198.93 137.78 199.02 137.86 199.11 137.95 199.19 138.03 199.28 138.12 199.36 138.21 199.44 138.29 199.52 138.37 199.59 138.45 199.67 138.49 199.7 138.53 199.74 138.57 199.77 138.61 199.81 138.65 199.84 138.69 199.87 138.73 199.91 138.77 199.94 138.81 199.97 138.84 200 138.88 200.03 138.92 200.06 138.95 200.08 138.99 200.11 139.02 200.14 139.06 200.16 139.09 200.19 139.13 200.22 139.12 200.21 139.16 200.24 139.2 200.27 139.19 200.25 139.23 200.28 139.27 200.31 139.25 200.29 139.29 200.32 139.33 200.35 139.32 200.33 139.35 200.36 139.39 200.39 139.38 200.37 139.41 200.39 139.45 200.42 139.44 200.4 139.47 200.42 139.51 200.45 139.49 200.43 139.53 200.45 139.56 200.47 139.54 200.45 139.58 200.47 139.61 200.49 139.59 200.47 139.62 200.49 139.66 200.51 139.64 200.49 139.68 200.51 139.66 200.49 139.7 200.52 139.68 200.5 139.72 200.52 139.7 200.5 139.73 200.52 139.97 200.66 140.21 200.81 140.45 200.96 140.7 201.11 140.94 201.26 141.19 201.41 141.44 201.56 141.69 201.71 141.94 201.86 142.19 202.01 142.44 202.17 142.7 202.32 142.96 202.47 143.05 202.53 143.21 202.63 143.45 202.79 143.7 202.96 143.95 203.12 144.2 203.28 144.45 203.44 144.71 203.61 144.96 203.77 145.22 203.93 145.47 204.1 145.73 204.26 145.99 204.42 146.24 204.59 146.5 204.75 146.76 204.91 147.02 205.07 147.28 205.23 147.54 205.39 147.81 205.55 147.94 205.63 148.07 205.71 148.21 205.79 148.34 205.87 148.47 205.95 148.6 206.03 148.73 206.11 148.87 206.19 149 206.27 149.13 206.35 149.27 206.43 149.4 206.5 149.53 206.58 149.67 206.66 149.8 206.74 149.94 206.81 150.07 206.89 150.2 206.97 150.34 207.05 150.47 207.12 150.61 207.2 150.74 207.28 150.88 207.35 151.01 207.43 151.15 207.5 151.28 207.58 151.41 207.66 151.55 207.73 151.69 207.81 151.82 207.88 151.96 207.95 152.09 208.03 152.23 208.1 152.36 208.18 152.5 208.25 152.63 208.32 152.77 208.39 152.91 208.47 153.04 208.54 153.18 208.61 153.31 208.68 153.45 208.75 153.59 208.82 153.72 208.89 153.86 208.96 153.99 209.03 154.13 209.1 154.26 209.17 154.35 209.22 154.4 209.24 154.53 209.32 154.66 209.39 154.79 209.47 154.92 209.54 155.06 209.62 155.19 209.69 155.32 209.76 155.45 209.83 155.58 209.91 155.71 209.98 155.84 210.05 155.97 210.12 156.1 210.19 156.24 210.26 156.37 210.33 156.5 210.4 156.63 210.47 156.76 210.54 156.89 210.61 157.02 210.68 157.15 210.74 157.28 210.81 157.41 210.88 157.54 210.94 157.68 211.01 157.81 211.07 157.94 211.14 158.07 211.2 158.2 211.27 158.33 211.33 158.46 211.39 158.59 211.46 158.72 211.52 158.85 211.58 158.98 211.64 159.11 211.7 159.24 211.76 159.37 211.82 159.5 211.88 159.63 211.94 159.75 212 159.78 212.01 159.88 212.06 160 212.13 160.13 212.19 160.25 212.26 160.38 212.32 160.5 212.38 160.62 212.44 160.75 212.51 160.87 212.57 160.99 212.63 161.12 212.69 161.24 212.75 161.36 212.81 161.48 212.87 161.61 212.92 161.73 212.98 161.85 213.04 161.97 213.09 162.1 213.15 162.22 213.21 162.34 213.26 162.46 213.31 162.58 213.37 162.7 213.42 162.82 213.47 162.94 213.53 163.06 213.58 163.19 213.63 163.31 213.68 163.42 213.73 163.54 213.78 163.66 213.83 163.78 213.87 163.9 213.92 164.02 213.97 164.14 214.01 164.25 214.06 164.37 214.1 164.49 214.15 164.55 214.17 164.61 214.2 164.72 214.25 164.84 214.29 164.95 214.34 165.06 214.39 165.17 214.44 165.29 214.49 165.4 214.53 165.51 214.58 165.62 214.62 165.73 214.67 165.85 214.71 165.96 214.76 166.07 214.8 166.18 214.84 166.29 214.88 166.4 214.92 166.51 214.96 166.62 215 166.73 215.04 166.84 215.08 166.94 215.12 167.05 215.15 167.16 215.19 167.27 215.23 167.38 215.26 167.48 215.29 167.59 215.33 167.7 215.36 167.8 215.4 167.91 215.43 168.01 215.46 168.12 215.49 168.22 215.52 168.33 215.55 168.43 215.58 168.53 215.6 168.64 215.63 168.69 215.64 168.74 215.66 168.79 215.67 168.84 215.68 168.9 215.7 168.95 215.71 169 215.72 169.05 215.73 169.1 215.75 169.15 215.76 169.2 215.77 169.25 215.78 169.3 215.79 169.35 215.8 169.4 215.81 169.45 215.83 169.5 215.84 169.55 215.85 169.6 215.86 169.65 215.87 169.7 215.88 169.75 215.89 169.8 215.9 169.85 215.91 169.9 215.92 169.95 215.93 170 215.94 170.05 215.94 170.1 215.95 170.15 215.96 170.19 215.97 170.24 215.98 170.29 215.99 170.34 216 170.39 216 170.44 216.01 170.48 216.02 170.53 216.03 170.58 216.03 170.63 216.04 170.68 216.05 170.72 216.06 170.77 216.06 170.82 216.07 170.87 216.07 170.91 216.08 170.96 216.09 171 216.09 171.05 216.1 171.1 216.11 171.25 216.13 171.4 216.14 171.55 216.16 171.7 216.18 171.85 216.2 172 216.22 172.15 216.24 172.3 216.26 172.45 216.28 172.6 216.3 172.75 216.31 172.9 216.33 173.05 216.35 173.21 216.37 173.36 216.38 173.51 216.4 173.66 216.42 173.81 216.44 173.97 216.45 174.03 216.46 174.12 216.47 174.27 216.49 174.42 216.51 174.58 216.53 174.73 216.55 174.88 216.57 175.03 216.59 175.19 216.6 175.34 216.62 175.5 216.64 175.65 216.66 175.81 216.68 175.96 216.69 176.11 216.71 176.27 216.73 176.42 216.75 176.58 216.76 176.73 216.78 176.89 216.8 177.04 216.81 177.2 216.83 177.36 216.84 177.51 216.86 177.67 216.88 177.83 216.89 177.98 216.91 178.14 216.92 178.45 216.95 178.77 216.98 179.08 217.01 179.4 217.04 179.72 217.07 180.03 217.1 180.35 217.12 180.67 217.15 180.99 217.18 181.31 217.2 181.63 217.22 181.95 217.25 182.27 217.27 182.6 217.29 182.92 217.31 183.24 217.34 183.57 217.36 183.89 217.38 184.22 217.4 184.54 217.41 184.87 217.43 185.2 217.45 185.52 217.47 185.85 217.48 186.18 217.5 186.51 217.51 186.84 217.53 187.17 217.54 187.5 217.55 187.84 217.57 188.17 217.58 188.41 217.59 188.5 217.59 188.83 217.6 189.17 217.62 189.5 217.63 189.84 217.64 190.17 217.65 190.5 217.66 190.84 217.67 191.18 217.68 191.51 217.69 191.85 217.7 192.19 217.71 192.53 217.71 192.87 217.72 193.21 217.73 193.55 217.73 193.89 217.74 194.23 217.74 194.57 217.74 194.91 217.75 195.25 217.75 195.6 217.75 195.94 217.75 196.28 217.75 196.63 217.75 196.97 217.75 197.32 217.74 197.66 217.74 198.01 217.74 198.36 217.73 198.7 217.73 199.05 217.72 199.4 217.72 199.75 217.71 200.09 217.71 200.44 217.7 200.79 217.69 201.14 217.68 201.49 217.67 201.84 217.66 202.19 217.65 202.54 217.64 202.89 217.62 203.24 217.61 203.59 217.6 203.95 217.58 204.3 217.57 204.65 217.55 204.78 217.55 205 217.54 205.36 217.52 205.71 217.51 206.07 217.49 206.42 217.48 206.78 217.46 207.13 217.44 207.49 217.43 207.84 217.41 208.2 217.39 208.56 217.37 208.91 217.35 209.27 217.32 209.63 217.3 209.98 217.28 210.34 217.26 210.7 217.23 211.06 217.21 211.42 217.18 211.77 217.16 212.13 217.13 212.49 217.1 212.85 217.08 213.21 217.05 213.57 217.02 213.93 216.99 214.29 216.96 214.65 216.93 215.01 216.89 215.38 216.86 215.74 216.83 216.1 216.79 216.46 216.76 216.82 216.72 217.18 216.69 217.54 216.65 217.91 216.62 218.27 216.58 218.63 216.54 219 216.5 219.36 216.46 219.72 216.42 220.09 216.38 220.45 216.34 220.81 216.29 221.18 216.25 221.54 216.21 221.91 216.16 222.18 216.13 222.27 216.12 222.63 216.07 223 216.03 223.36 215.99 223.73 215.94 224.09 215.9 224.46 215.85 224.82 215.8 225.19 215.75 225.56 215.7 225.92 215.65 226.28 215.6 226.65 215.55 227.02 215.5 227.38 215.45 227.75 215.4 228.12 215.34 228.48 215.29 228.85 215.24 229.21 215.18 229.58 215.12 229.95 215.07 230.31 215.01 230.68 214.95 231.04 214.89 231.41 214.83 231.78 214.77 232.14 214.71 232.51 214.65 232.88 214.59 233.24 214.53 233.61 214.46 233.98 214.4 234.34 214.33 234.71 214.27 235.07 214.2 235.44 214.13 235.81 214.07 236.17 214 236.54 213.93 236.91 213.86 237.27 213.79 237.64 213.72 238 213.65 238.37 213.57 238.74 213.5 239.1 213.43 239.47 213.35 239.63 213.32 239.84 213.28 240.2 213.21 240.57 213.13 240.93 213.06 241.3 212.98 241.66 212.91 242.03 212.83 242.4 212.75 242.76 212.67 242.94 212.63 243.13 212.59 243.31 212.55 243.49 212.51 243.68 212.47 243.86 212.43 244.04 212.39 244.22 212.35 244.41 212.31 244.59 212.27 244.77 212.23 244.95 212.19 245.14 212.15 245.32 212.11 245.5 212.06 245.68 212.02 245.87 211.98 246.05 211.94 246.23 211.9 246.41 211.85 246.59 211.81 246.78 211.77 246.96 211.72 247.14 211.68 247.32 211.64 247.5 211.59 247.69 211.55 247.87 211.51 248.05 211.46 248.23 211.42 248.41 211.37 248.59 211.33 248.78 211.28 248.96 211.24 249.14 211.19 249.32 211.15 249.5 211.1 249.68 211.06 249.87 211.01 250.05 210.97 250.23 210.92 250.41 210.87 250.59 210.83 250.77 210.78 250.95 210.73 251.13 210.69 251.31 210.64 251.5 210.59 251.68 210.54 251.86 210.5 252.04 210.45 252.22 210.4 252.4 210.35 252.58 210.3 252.76 210.25 252.94 210.21 253.12 210.16 253.3 210.11 253.48 210.06 253.66 210.01 253.84 209.96 254.02 209.91 254.2 209.86 254.38 209.81 254.56 209.76 254.74 209.71 254.92 209.66 255.1 209.61 255.28 209.56 255.46 209.5 255.64 209.45 255.82 209.4 256 209.35 256.18 209.3 256.36 209.25 256.54 209.2 256.72 209.15 256.9 209.09 257.08 209.04 257.26 208.99 257.44 208.94 257.62 208.89 257.8 208.84 257.98 208.78 258.15 208.73 258.33 208.68 258.51 208.62 258.69 208.57 258.87 208.52 259.05 208.47 259.23 208.41 259.41 208.36 259.59 208.3 259.76 208.25 259.94 208.19 260.12 208.14 260.3 208.09 260.48 208.03 260.66 207.98 260.83 207.92 261.01 207.87 261.19 207.81 261.37 207.75 261.55 207.7 261.72 207.64 261.9 207.59 262.08 207.53 262.25 207.47 262.43 207.42 262.61 207.36 262.79 207.3 262.96 207.25 263.14 207.19 263.32 207.13 263.5 207.07 263.67 207.02 263.85 206.96 264.02 206.9 264.2 206.84 264.38 206.78 264.55 206.72 264.73 206.66 264.91 206.61 265.08 206.55 265.26 206.49 265.44 206.43 265.61 206.37 265.79 206.31 265.96 206.25 266.14 206.19 266.31 206.13 266.49 206.07 266.66 206 266.84 205.94 267.01 205.88 267.19 205.82 267.36 205.76 267.54 205.7 267.71 205.64 267.89 205.57 268.06 205.51 268.24 205.45 268.41 205.39 268.58 205.32 268.76 205.26 268.93 205.2 269.11 205.13 269.28 205.07 269.45 205.01 269.63 204.94 269.8 204.88 269.98 204.82 270.15 204.75 270.32 204.69 270.49 204.62 270.67 204.56 270.84 204.49 270.95 204.45 271.01 204.43 271.19 204.36 271.36 204.3 271.53 204.24 271.71 204.17 271.88 204.11 272.05 204.04 272.22 203.98 272.4 203.91 272.57 203.85 272.74 203.78 272.92 203.72 273.09 203.65 273.26 203.59 273.43 203.52 273.6 203.45 273.77 203.39 273.95 203.32 274.12 203.25 274.29 203.19 274.46 203.12 274.63 203.05 274.8 202.99 274.97 202.92 275.15 202.85 275.32 202.78 275.49 202.71 275.66 202.65 275.83 202.58 276 202.51 276.17 202.44 276.34 202.37 276.51 202.3 276.68 202.23 276.85 202.16 277.02 202.09 277.19 202.02 277.36 201.95 277.52 201.88 277.69 201.81 277.86 201.74 278.03 201.67 278.2 201.6 278.37 201.53 278.54 201.46 278.71 201.38 278.88 201.31 279.04 201.24 279.21 201.17 279.38 201.1 279.55 201.02 279.71 200.95 279.88 200.88 280.05 200.81 280.22 200.73 280.38 200.66 280.55 200.59 280.72 200.51 280.88 200.44 281.05 200.36 281.22 200.29 281.38 200.22 281.55 200.14 281.72 200.07 281.88 199.99 282.05 199.92 282.21 199.84 282.38 199.76 282.54 199.69 282.71 199.61 282.87 199.54 283.04 199.46 283.2 199.39 283.37 199.31 283.54 199.24 283.7 199.17 283.87 199.09 284.04 199.02 284.2 198.95 284.37 198.87 284.53 198.8 284.7 198.72 284.87 198.65 285.03 198.58 285.19 198.5 285.36 198.43 285.52 198.35 285.69 198.28 285.86 198.2 286.02 198.13 286.18 198.05 286.35 197.97 286.51 197.9 286.68 197.82 286.84 197.75 287 197.67 287.17 197.59 287.33 197.51 287.49 197.44 287.66 197.36 287.82 197.28 287.98 197.21 288.15 197.13 288.31 197.05 288.47 196.97 288.63 196.89 288.8 196.81 288.96 196.74 289.12 196.66 289.28 196.58 289.44 196.5 289.6 196.42 289.76 196.34 289.93 196.26 290.09 196.18 290.25 196.1 290.41 196.02 290.57 195.94 290.73 195.85 290.89 195.77 291.05 195.69 291.21 195.61 291.37 195.53 291.53 195.45 291.69 195.37 291.85 195.28 292.01 195.2 292.17 195.12 292.32 195.03 292.48 194.95 292.64 194.87 292.78 194.79 292.8 194.79 292.96 194.71 293.12 194.63 293.28 194.55 293.44 194.47 293.6 194.39 293.76 194.31 293.92 194.22 294.08 194.14 294.24 194.06 294.4 193.98 294.56 193.9 294.72 193.82 294.88 193.74 295.04 193.66 295.19 193.57 295.35 193.49 295.51 193.41 295.67 193.32 295.83 193.24 295.99 193.16 296.14 193.07 296.3 192.99 296.46 192.91 296.62 192.82 296.77 192.74 296.93 192.66 297.09 192.57 297.24 192.49 297.4 192.4 297.56 192.32 297.71 192.23 297.87 192.15 298.02 192.06 298.18 191.97 298.33 191.89 298.49 191.8 298.64 191.71 298.8 191.63 298.95 191.54 299.11 191.45 299.26 191.37 299.42 191.28 299.57 191.19 299.72 191.1 299.88 191.01 300.03 190.93 300.19 190.84 300.34 190.75 300.49 190.66 300.64 190.57 300.8 190.48 300.95 190.39 301.1 190.3 301.25 190.21 301.41 190.12 301.56 190.03 301.71 189.94 301.86 189.85 302.01 189.76 302.16 189.67 302.31 189.58 302.47 189.49 302.56 189.43 302.62 189.39 302.77 189.31 302.92 189.22 303.08 189.13 303.23 189.04 303.38 188.95 303.53 188.86 303.69 188.77 303.84 188.68 303.99 188.59 304.14 188.5 304.29 188.41 304.44 188.32 304.6 188.23 304.75 188.14 304.9 188.05 305.05 187.96 305.2 187.86 305.35 187.77 305.5 187.68 305.65 187.59 305.8 187.49 305.95 187.4 306.1 187.31 306.25 187.22 306.39 187.12 306.54 187.03 306.69 186.93 306.84 186.84 306.99 186.75 307.14 186.65 307.28 186.56 307.43 186.46 307.58 186.37 307.73 186.27 307.88 186.18 308.02 186.08 308.17 185.98 308.32 185.89 308.46 185.79 308.61 185.69 308.75 185.6 308.9 185.5 309.05 185.4 309.19 185.31 309.34 185.21 309.48 185.11 309.63 185.01 309.77 184.91 309.92 184.81 310.06 184.72 310.21 184.62 310.35 184.52 310.49 184.42 310.64 184.32 310.78 184.22 310.93 184.12 311.07 184.02 311.21 183.92 311.35 183.81 311.5 183.71 311.64 183.61 311.78 183.51 311.92 183.41 312.06 183.31 312.21 183.21 312.35 183.1 312.49 183 312.63 182.9 312.77 182.79 312.91 182.69 313.05 182.59 313.19 182.48 313.33 182.38 313.47 182.28 313.61 182.17 313.75 182.07 313.89 181.96 314.03 181.86 314.17 181.75 314.31 181.65 314.45 181.54 314.58 181.43 314.72 181.33 314.86 181.22 315 181.12 315.13 181.01 315.27 180.9 315.41 180.79 315.55 180.69 315.68 180.58 315.82 180.47 315.96 180.36 316.09 180.25 316.23 180.15 316.36 180.04 316.5 179.93 316.63 179.82 316.77 179.71 316.9 179.6 317.04 179.49 317.17 179.38 317.31 179.27 317.44 179.16 317.57 179.05 317.71 178.94 317.84 178.82 317.97 178.71 318.11 178.6 318.24 178.49 318.37 178.38 318.5 178.26 318.64 178.15 318.77 178.04 318.9 177.92 319.03 177.81 319.16 177.7 319.29 177.58 319.43 177.47 319.56 177.35 319.69 177.24 319.82 177.13 319.95 177.01 320.08 176.89 320.13 176.84 320.21 176.78 320.34 176.67 320.47 176.55 320.6 176.44 320.74 176.33 320.87 176.21 321 176.1 321.13 175.99 321.26 175.87 321.39 175.75 321.52 175.64 321.65 175.52 321.78 175.41 321.91 175.29 322.04 175.18 322.17 175.06 322.3 174.94 322.43 174.83 322.56 174.71 322.69 174.59 322.81 174.47 322.94 174.36 323.07 174.24 323.2 174.12 323.32 174 323.45 173.88 323.58 173.76 323.71 173.64 323.83 173.52 323.96 173.4 324.08 173.28 324.21 173.16 324.34 173.04 324.46 172.92 324.59 172.8 324.71 172.68 324.84 172.56 324.96 172.44 325.09 172.31 325.21 172.19 325.33 172.07 325.46 171.94 325.58 171.82 325.7 171.7 325.83 171.57 325.95 171.45 326.07 171.32 326.19 171.2 326.32 171.07 326.44 170.95 326.56 170.82 326.68 170.7 326.8 170.57 326.92 170.45 327.04 170.32 327.16 170.19 327.28 170.07 327.4 169.94 327.52 169.81 327.64 169.69 327.76 169.56 327.88 169.43 328 169.3 328.12 169.17 328.24 169.04 328.36 168.91 328.47 168.78 328.59 168.65 328.71 168.52 328.82 168.39 328.94 168.26 329.06 168.13 329.17 168 329.29 167.87 329.4 167.74 329.52 167.6 329.64 167.47 329.75 167.34 329.87 167.21 329.98 167.07 330.1 166.94 330.21 166.81 330.32 166.67 330.44 166.54 330.55 166.41 330.66 166.27 330.77 166.13 330.89 166 331 165.87 331.11 165.73 331.22 165.59 331.33 165.46 331.45 165.32 331.56 165.18 331.67 165.05 331.78 164.91 331.89 164.77 332 164.63 332.11 164.5 332.22 164.36 332.33 164.22 332.44 164.08 332.55 163.94 332.65 163.8 332.76 163.66 332.87 163.52 332.98 163.38 333.08 163.24 333.19 163.1 333.3 162.96 333.4 162.81 333.51 162.67 333.62 162.53 333.72 162.39 333.83 162.25 333.93 162.1 334.04 161.96 334.14 161.81 334.25 161.67 334.35 161.53 334.45 161.38 334.56 161.24 334.66 161.09 334.76 160.95 334.87 160.8 334.97 160.66 335.07 160.51 335.17 160.36 335.27 160.22 335.38 160.07 335.48 159.92 335.58 159.78 335.66 159.66 335.68 159.63 335.78 159.48 335.89 159.33 336.48 158.88 337.14 158.89 337.15 158.9 337.15 158.9 337.56 159.42 337.56 159.42"/></g><path class="cls-9" d="M196.27,121.08l.09-1.13s.1-.88.2-1.65c.46-3.47,1-6.93,1.6-10.37l0-.09c.91-4.48,2.32-8.85,3.61-13.24l.15-.5q1.35-4.38,2.76-8.74c2.08-6.47,4.36-12.91,6.79-19.29l.07-.19q2.79-7.06,5.89-14l0-.08c2-4.37,4.17-8.69,6.43-13l0-.06q3.13-5.66,6.56-11.15l0-.05c2-2.94,4-5.84,6.07-8.69h0c1.14-1.29,2.28-2.58,3.43-3.85l1.36-1.24c1-.88,2-1.75,3-2.61l.18-.16c3.29-2.38,6.67-4.64,10.15-6.72l.07,0q3.6-1.77,7.32-3.26a8,8,0,0,1,1.3-.69,7.68,7.68,0,0,1,3.36-.2,12.9,12.9,0,0,1,1.69.55c3,1,1,.53,1.21.47h0c-.17.06,1.83.54-1.21-.47l1.32.46.31,0,.77-.55.55.81c.2,1.35-1.32,2.39-2.37,3l-.77.43c-1,.57-.72.45-.72.45l-.49,1,.48-.09s-.68,1.92-1.16,3.44c-1.47,4.71-3,9.36-4.24,14.1,0,0-.93,2.58-1.69,4.85a62.41,62.41,0,0,1-2.71,5.76,387.26,387.26,0,0,0-20,41.64l-.17.42L237,77.65q-2.44,5.88-4.7,11.82s-1.6,4-2.88,7.42c-.72,1.88-1.43,3.77-2.13,5.65l-.06.16q-1.69,4.35-3.35,8.72s-.6,1.77-1.05,3.22c-1.75,5.77-3.3,11.59-4.89,17.62,0,0-.86,2.73-1.54,5.08-.3,1-.6,2.06-.88,3.1l-.15.56c-1,3-1.89,6.05-2.67,9.12a60.83,60.83,0,0,1,7.7-8.29A67.34,67.34,0,0,1,231.84,133l2.06-1.23,8.2-4.89,1.55-.89q3.85-2.22,7.75-4.35l0,0a120.39,120.39,0,0,1,16.17-7,81.35,81.35,0,0,1,17.16-3.7,64.08,64.08,0,0,1,6.92-.3,70.39,70.39,0,0,1,11.15.82l.3,0,.59.3.25.52-.25.51a5.79,5.79,0,0,1-2.14.56,74.43,74.43,0,0,0-15.16,4.34s-1.83.7-3.3,1.33a86.93,86.93,0,0,0-11,5.7s-2.15,1.24-3.91,2.33c-6.1,3.81-12.07,7.79-17.92,11.77l-1.95,1.3-8,5.34a59,59,0,0,0-5.4,4,62.6,62.6,0,0,0-10,10.72c-1.32,1.83-1,4.4-1.89,7.15l.42,1.88c.8,3.48,1.55,7,2.29,10.48l0,.2q1.08,5.44,2.1,10.9l0,.22q.74,4.37,1.44,8.73l.06.42c.14,1.37.27,2.74.4,4.11l0,.49c0,1.34.08,2.67.11,4l0,.74s0,1.26-.05,2.2q-.15,4.13-.35,8.24v.12a97.92,97.92,0,0,1-1.85,13l-.07.24-.38.38-.38-.38c-1.46-4.52-3.82-8.76-5.63-13.19q-1.57-3.83-3.2-7.63l-.17-.39c-1-2.87-2-5.73-2.9-8.72,0,0-.31-1.23-.54-2.19-.51-2.17-1-4.35-1.57-6.53l-.12-.5q-1.17-5.22-2.39-10.44l-.11-.44c-.66-3-1.28-5.92-2-8.87l-.3-.16a7.87,7.87,0,0,1-8.41,5.7,8,8,0,0,1-4-1.7,20.34,20.34,0,0,0-2.12,2.63s-.69.81-1.25,1.52c0,0-.64.6-1.22,1.19,0,0-1.48,1.14-2.61,2.13l-.57.46a117.53,117.53,0,0,0-10.68,10.13c-4.89,5.18-9.58,10.51-14,16.08,0,0-1.24,1.39-2.35,2.71,0,0-1.4,1.47-2.57,2.79,0,0-2.19,2.19-3.81,4.07-.41.47-.81.95-1.19,1.43,0,0-.33.36-.65.73a19.77,19.77,0,0,0-3.62,5.45l-.14.33-.38.6-.44.24-.45-.25-.36-.59a1.9,1.9,0,0,1-.09-.31,24.93,24.93,0,0,1-.38-8.84,52.94,52.94,0,0,1,1.71-8.12l0-.07q.66-2,1.38-4l0-.07c.53-1.2,1.09-2.39,1.65-3.58l0-.07q1.19-2.13,2.44-4.23l0-.06a113.6,113.6,0,0,1,11-14.66,85.54,85.54,0,0,1,9.42-9.12l0,0c1.42-1.12,2.87-2.21,4.37-3.23,0,0,1.4-.9,2.58-1.57l.91-.5c-5-1.44-10.48-1.4-15.52-1.51a410.48,410.48,0,0,0-43.13,1.23l-.53,0-1.16.06c-1.7.09-3.4.2-5.09.32,0,0-2.33.08-4.41.19l-2.36.14s-2.16.06-4.06.16q-5,.24-10,.85s-1.27.1-2.32.21A95.46,95.46,0,0,0,78.57,176l-.23.06-.51-.17.17-.51.19-.16A102.76,102.76,0,0,1,94,165.43,109.69,109.69,0,0,1,107.64,160l.16-.06c2.36-.71,4.76-1.4,7.11-2,2-.49,4.08-.84,6.14-1.22l.51-.09.93-.13a280.39,280.39,0,0,1,28.23-2.27c4.29-.15,8.61-.17,12.91-.19H164c-3.85-1.43-7.65-2.92-11.45-4.43l-.53-.21L141.57,145l-.45-.19-2.09-.92c-10.14-4.47-20.29-9-30.88-12.27l-1.3-.42a115.53,115.53,0,0,0-22.54-5l-.71-.08L83,125.8l-.25-.54.25-.53.59-.28a99,99,0,0,1,11.8-.58c12.7.07,25.41,2.42,38,5.53,4,1,7.95,2.21,11.91,3.37l.2.06,11.13,3.55,2,.67c5.46,1.84,11.09,3.26,16.39,5.44,9.22,3.81,17,10.46,24.18,17.36-.14-.47-.28-.94-.41-1.42l0-.05c-.17-.75-.34-1.51-.5-2.27l-.16-.14-1.77-1.91L195,152.28s-1.62-2.82-2.83-5.15c-.56-1.08-1.13-2.16-1.7-3.24,0,0-1.32-2.61-2.62-5.1l-.27-.52c-.92-1.83-1.85-3.65-2.82-5.46,0,0-2-3.69-3.15-5.23a28.44,28.44,0,0,0-9.3-8.59,27.68,27.68,0,0,0-2.86-1.51s-1.33-.7-2.71-1.3l-.81-.35-.38-.18c-2.43-1.17-4.89-2.22-7.29-3.44h0A40.22,40.22,0,0,1,151,107c-.18-.15-.42-.4-.42-.4l-.39-.59a4.27,4.27,0,0,1,0-.52l.42-.29.71-.06a75.53,75.53,0,0,0,14.1-.09l.62,0,2-.11h.19c1.46,0,2.92.09,4.38.23h.14a31.16,31.16,0,0,1,10.41,3.53s.91.53,1.52.93a41.9,41.9,0,0,1,9.44,8.63c.74.9,1.43,1.85,2.09,2.82ZM227.1,165.7l.42-.8.15-.11c1.82-1.23,3.5-2.65,5.39-3.83a53.9,53.9,0,0,1,4.95-2.82l1.91-.63,1.39-.26c2.66-.51,5.36-.92,8-1.37,0,0,2.71-.69,4.34-.94a56.07,56.07,0,0,1,20,.75c1.82.39,3.62.87,5.42,1.38,1.1.32,2.2.69,3.29,1l.39.13.71.23,3.1,1.24s2.61,1.15,4.56,2.19c1.8,1,3.62,1.88,5.48,2.72,0,0,1.42.73,2.65,1.31,1.47.68,3,1.31,4.52,1.86l.13.05.6.38.26.44-.26.43-.74.43a58.1,58.1,0,0,1-7.65,2c-.07,0-1.59.23-2.9.36-1.76.18-3.53.3-5.3.4h0c-1.27,0-2.55,0-3.82-.05h-.14l-3.56-.3s-2.22-.33-4.31-.6c0,0-3.32-.47-5.62-.73a50.66,50.66,0,0,0-13.64.06c-1.28.2-2.57.43-3.83.72,0,0-1.85.32-2.94.41-1.49.14-3,.25-4.47.35h0c-1.25,0-2.5.06-3.76.09,0,0-1.3-.11-2.29-.22l-.12,0-2.2-.58h-.06l-3-1.21-1-.43a31.49,31.49,0,0,1-6-3.32l-.16-.11-.11-.08a1.09,1.09,0,0,1-.4-.64l.42-.33a3.28,3.28,0,0,1,.33.43Zm22.4-9.86c.23-.05-.35.08,0,0,.09,0,0,0,0,0Z"/><path class="cls-10" d="M179.49,477.48c104.58,0,240.38,99.14,223.11,166.94-19.47,76.46-98.77,137.76-200.33,129.14C97.68,764.69,33.94,689.36,26.82,641.49c-11.55-77.62,48.08-164,152.67-164Z"/><g class="cls-11"><path class="cls-12" d="M221.09,463.46c104.58,0,189.48,63.53,189.48,141.78S325.67,747,221.09,747,31.6,683.48,31.6,605.24s84.91-141.78,189.49-141.78Z"/></g><g class="cls-11"><path class="cls-6" d="M187.46,570.67S143.1,645,241.39,685.49a181.14,181.14,0,0,1-36.57,12.42c-12.6,2.87-25.72-8.43-40.85-9.45-14.82-1-32.65,7.14-46-1-8.17-5,.27-19.07-6.28-27.79-7.05-9.37-26.44-12.41-27-23.23-.5-9.52,19.28-11.57,22.53-21,2.53-7.35-12.08-22.21-7.92-28.91,3.33-5.36,18.32-2.64,22.38-7.29s-2.68-16.8,1.88-20.51c24.63-20,53.68-23.31,63.94,12Z"/></g><g class="cls-11"><path class="cls-13" d="M169.22,584.18s-9.56-11.71-15.05-13.38a9.57,9.57,0,0,0-11.39,5.33,7.54,7.54,0,0,0,4.89,10.29c5.49,1.67,21.55-2.24,21.55-2.24Z"/><path class="cls-13" d="M170.14,614.31s-15.93-4.38-21.51-2.87a7.57,7.57,0,0,0-5.24,10.11,9.43,9.43,0,0,0,11.1,5.69c5.57-1.51,15.65-12.93,15.65-12.93Z"/><path class="cls-13" d="M189,654.34s-15.36,3.3-18.67,6.91a7.69,7.69,0,0,0,1.34,12,11.11,11.11,0,0,0,13.92-1.73c3.31-3.6,3.41-17.14,3.41-17.14Z"/></g><g class="cls-11"><path class="cls-6" d="M241.49,555.49S326.6,596.38,271,676.63c0,0,50.28-4.63,82.68-30.31,8.88-7-5.49-15.9-.7-26.43,3.68-8.1,27.65-17.09,27.45-27.6s-22.21-8.64-28.39-17.88c-4.69-7,7.46-25.4.63-31.21-6.36-5.41-28.11-2.43-35.38-6.41-10.26-5.61-6.51-17.65-17.19-20.42-39.35-10.22-75,0-58.62,39.12Z"/></g><g class="cls-11"><path class="cls-13" d="M270.37,555.05s15.42-3.16,18.78-6.75a7.66,7.66,0,0,0-1.2-11.95A11.09,11.09,0,0,0,274,537.91c-3.37,3.59-3.67,17.14-3.67,17.14Z"/><path class="cls-13" d="M291.48,575s16.13-.89,20.35-4a7.45,7.45,0,0,0,1-11.63,10.81,10.81,0,0,0-13.58-1C295,561.5,291.48,575,291.48,575Z"/><path class="cls-13" d="M299.36,597.33s14.61,7.24,20.51,6.8a8,8,0,0,0,7.45-8.87,8.59,8.59,0,0,0-9.12-7.65c-5.91.44-18.84,9.72-18.84,9.72Z"/><path class="cls-13" d="M300,629s11,10.83,16.74,12a9.15,9.15,0,0,0,10.52-6.33,7.69,7.69,0,0,0-5.92-9.77C315.66,623.74,300,629,300,629Z"/></g></g></g></svg>