<svg xmlns="http://www.w3.org/2000/svg" viewBox="0 0 1052.31 658.07"><defs><style>.cls-1{fill:#e8bc87;}.cls-1,.cls-2,.cls-3,.cls-4{fill-rule:evenodd;}.cls-2{fill:#ffd39c;}.cls-3{fill:#ffebd3;}.cls-4{fill:#f9a653;}</style></defs><g id="Warstwa_2" data-name="Warstwa 2"><g id="Warstwa_1-2" data-name="Warstwa 1"><path class="cls-1" d="M35.78,404.17c-32.34-47.7-59.41-170.64,4.57-239.81C138,58.76,320.61-28.25,611.15,8.61s506.49,235.44,423.07,421.52S604.67,689.76,402.77,645.62,92.13,487.28,35.78,404.17Z"/><path class="cls-2" d="M35.78,404.17C-.94,359.75-23.63,233.53,40.35,164.36,138,58.76,320.61-28.25,611.15,8.61s496.41,217.72,413,403.8S595.23,662,394.86,625.92C191.46,589.26,73.18,449.41,35.78,404.17Z"/><polygon class="cls-3" points="1007.67 301.46 1008.93 302.14 1009.96 303.25 1010.61 304.67 1010.61 304.68 1010.71 305.04 1010.74 305.15 1010.8 305.4 1010.89 305.76 1010.99 306.12 1011.08 306.48 1011.17 306.85 1011.26 307.21 1011.35 307.57 1011.43 307.93 1011.52 308.29 1011.61 308.65 1011.7 309.02 1011.78 309.38 1011.87 309.74 1011.95 310.1 1012.04 310.46 1012.12 310.82 1012.2 311.18 1012.29 311.55 1012.37 311.9 1012.45 312.26 1012.53 312.63 1012.61 312.99 1012.66 313.22 1012.69 313.35 1012.76 313.71 1012.83 314.07 1012.9 314.43 1012.98 314.79 1013.04 315.15 1013.11 315.51 1013.18 315.87 1013.25 316.23 1013.32 316.59 1013.39 316.95 1013.45 317.31 1013.52 317.67 1013.58 318.03 1013.65 318.39 1013.71 318.75 1013.78 319.11 1013.84 319.47 1013.9 319.83 1013.96 320.19 1014.03 320.55 1014.09 320.91 1014.15 321.26 1014.21 321.62 1014.27 321.98 1014.33 322.34 1014.38 322.7 1014.44 323.06 1014.5 323.42 1014.55 323.77 1014.61 324.13 1014.66 324.49 1014.72 324.85 1014.77 325.2 1014.83 325.56 1014.88 325.92 1014.93 326.28 1014.99 326.63 1015.04 326.99 1015.09 327.35 1015.14 327.7 1015.19 328.06 1015.24 328.42 1015.28 328.78 1015.33 329.13 1015.38 329.49 1015.43 329.84 1015.47 330.2 1015.51 330.52 1015.52 330.56 1015.55 330.91 1015.59 331.27 1015.62 331.63 1015.65 331.98 1015.68 332.33 1015.72 332.69 1015.75 333.05 1015.78 333.4 1015.81 333.75 1015.84 334.11 1015.87 334.47 1015.89 334.82 1015.92 335.17 1015.95 335.53 1015.98 335.88 1016 336.24 1016.03 336.59 1016.05 336.94 1016.08 337.3 1016.1 337.65 1016.13 338 1016.15 338.36 1016.17 338.71 1016.19 339.06 1016.22 339.42 1016.24 339.77 1016.26 340.12 1016.28 340.47 1016.29 340.82 1016.31 341.18 1016.33 341.53 1016.35 341.88 1016.37 342.23 1016.38 342.58 1016.4 342.93 1016.41 343.29 1016.43 343.64 1016.44 343.99 1016.46 344.34 1016.47 344.69 1016.48 345.04 1016.49 345.39 1016.51 345.74 1016.52 346.09 1016.53 346.44 1016.54 346.79 1016.55 347.14 1016.55 347.49 1016.56 347.84 1016.57 348.19 1016.58 348.53 1016.59 348.88 1016.59 349.23 1016.6 349.58 1016.6 349.93 1016.61 350.28 1016.61 350.63 1016.61 350.97 1016.62 351.32 1016.62 351.67 1016.62 352.01 1016.62 352.36 1016.62 352.71 1016.62 353.06 1016.62 353.4 1016.62 353.45 1016.61 353.75 1016.6 354.1 1016.59 35.44 1016.57 354.79 1016.56 355.13 1016.54 355.48 1016.53 355.82 1016.51 356.17 1016.5 356.51 1016.48 356.86 1016.47 357.2 1016.45 357.54 1016.43 357.89 1016.41 358.23 1016.39 358.57 1016.37 358.92 1016.35 359.26 1016.33 359.6 1016.31 359.94 1016.29 360.29 1016.27 360.63 1016.24 360.97 1016.22 361.31 1016.2 361.65 1016.17 362 1016.15 362.34 1016.12 362.68 1016.1 363.02 1016.07 363.36 1016.04 363.7 1016.01 364.04 1015.99 364.38 1015.96 364.72 1015.93 365.06 1015.9 365.4 1015.87 365.74 1015.86 365.88 1015.83 366.08 1015.79 366.42 1015.75 366.75 1015.71 367.09 1015.67 367.43 1015.62 367.76 1015.58 368.1 1015.54 368.44 1015.49 368.77 1015.45 369.11 1015.4 369.45 1015.36 369.78 1015.31 370.12 1015.26 370.45 1015.22 370.79 1015.17 371.12 1015.12 371.46 1015.07 371.79 1015.02 372.13 1014.97 372.46 1014.92 372.79 1014.87 373.13 1014.82 373.46 1014.76 373.79 1014.71 374.12 1014.66 374.46 1014.61 374.79 1014.55 375.12 1014.5 375.45 1014.44 375.78 1014.39 376.12 1014.33 376.45 1014.27 376.78 1014.22 377.11 1014.16 377.44 1014.1 377.77 1014.04 378.1 1014.02 378.25 1013.98 378.43 1013.91 378.76 1013.84 379.08 1013.77 379.41 1013.71 379.74 1013.64 380.06 1013.57 380.39 1013.5 380.72 1013.42 381.05 1013.35 381.37 1013.28 381.7 1013.21 382.02 1013.13 382.35 1013.06 382.67 1012.99 383 1012.91 383.32 1012.84 383.65 1012.76 383.97 1012.69 384.3 1012.61 384.62 1012.53 384.94 1012.46 385.26 1012.38 385.59 1012.3 385.91 1012.22 386.23 1012.14 386.55 1012.06 386.88 1011.98 387.2 1011.9 387.52 1011.82 387.84 1011.74 388.16 1011.66 388.48 1011.57 388.8 1011.49 389.12 1011.41 389.44 1011.32 389.76 1011.24 390.08 1011.15 390.4 1011.07 390.72 1010.98 391.04 1010.89 391.36 1010.81 391.67 1010.72 391.99 1010.63 392.31 1010.54 392.63 1010.46 392.94 1010.37 393.26 1010.27 393.58 1010.18 393.89 1010.09 394.21 1010 394.52 1009.91 394.84 1009.82 395.15 1009.73 395.47 1009.63 395.78 1009.54 396.1 1009.45 396.41 1009.35 396.73 1009.26 397.04 1009.16 397.36 1009.07 397.67 1008.97 397.98 1008.87 398.29 1008.77 398.61 1008.68 398.92 1008.58 399.23 1008.48 399.54 1008.38 399.85 1008.28 400.17 1008.18 400.48 1008.08 400.79 1007.98 401.1 1007.88 401.41 1007.77 401.72 1007.67 402.03 1007.57 402.34 1007.47 402.65 1007.36 402.95 1007.26 403.26 1007.15 403.57 1007.05 403.88 1006.94 404.19 1006.84 404.5 1006.73 404.8 1006.62 405.11 1006.52 405.42 1006.41 405.72 1006.3 406.03 1006.19 406.33 1006.08 406.64 1005.97 406.95 1005.86 407.25 1005.75 407.56 1005.64 407.86 1005.53 408.17 1005.42 408.47 1005.3 408.77 1005.19 409.08 1005.19 409.09 1005.08 409.38 1004.96 409.68 1004.84 409.99 1004.73 410.29 1004.61 410.59 1004.49 410.89 1004.37 411.19 1004.25 411.49 1004.13 411.79 1004.01 412.1 1003.89 412.4 1003.77 412.69 1003.65 412.99 1003.53 413.29 1003.41 413.59 1003.29 413.89 1003.17 414.19 1003.04 414.49 1002.92 414.79 1002.8 415.08 1002.67 415.38 1002.55 415.68 1002.42 415.98 1002.3 416.27 1002.17 416.57 1002.04 416.87 1001.92 417.16 1001.79 417.46 1001.66 417.75 1001.53 418.05 1001.4 418.34 1001.27 418.64 1001.14 418.93 1001.01 419.22 1000.88 419.52 1000.75 419.81 1000.62 420.1 1000.49 420.4 1000.36 420.69 1000.23 420.98 1000.09 421.27 999.96 421.57 999.82 421.86 999.69 422.15 999.55 422.44 999.42 422.73 999.28 423.02 999.15 423.31 999.01 423.6 998.87 423.89 998.74 424.18 998.6 424.47 998.46 424.76 998.32 425.05 998.18 425.34 998.04 425.62 997.9 425.91 997.76 426.2 997.62 426.49 997.48 426.77 997.34 427.06 997.2 427.35 997.05 427.63 996.91 427.92 996.77 428.2 996.63 428.49 996.48 428.77 996.34 429.06 996.19 429.34 996.04 429.63 995.9 429.91 995.75 430.2 995.61 430.48 995.46 430.76 995.31 431.05 995.16 431.33 995.01 431.61 994.87 431.89 994.72 432.18 994.57 432.46 994.42 432.74 994.27 433.02 994.12 433.3 993.97 433.58 993.81 433.86 993.66 434.14 993.51 434.42 993.36 434.7 993.2 434.98 993.05 435.26 992.89 435.54 992.74 435.82 992.59 436.09 992.43 436.37 992.27 436.65 992.12 436.93 991.96 437.2 991.8 437.48 991.65 437.76 991.49 438.03 991.33 438.31 991.17 438.58 991.01 438.86 990.85 439.13 990.69 439.41 990.53 439.68 990.37 439.96 990.21 440.23 990.05 440.5 989.89 440.78 989.73 441.05 989.56 441.32 989.4 441.6 989.24 441.87 989.07 442.14 988.91 442.41 988.74 442.68 988.58 442.95 988.41 443.23 988.25 443.5 988.08 443.77 987.91 444.04 987.75 444.31 987.58 444.58 987.41 444.85 987.24 445.12 987.07 445.38 986.9 445.65 986.73 445.92 986.57 446.19 986.39 446.46 986.22 446.72 986.05 446.99 985.88 447.26 985.71 447.52 985.54 447.79 985.36 448.06 985.19 448.32 985.14 448.41 985.02 448.59 984.84 448.85 984.67 449.12 984.49 449.38 984.32 449.64 984.14 449.91 983.96 450.17 983.78 450.43 983.61 450.7 983.43 450.96 983.25 451.22 983.07 451.48 982.89 451.74 982.71 452 982.53 452.26 982.35 452.53 982.17 452.79 981.99 453.05 981.81 453.31 981.63 453.57 981.45 453.82 981.26 454.08 981.08 454.34 980.9 454.6 980.71 454.86 980.53 455.12 980.35 455.38 980.16 455.63 979.98 455.89 979.79 456.14 979.6 456.4 979.42 456.66 979.23 456.92 979.04 457.17 978.86 457.43 978.67 457.68 978.48 457.94 978.29 458.19 978.1 458.44 977.91 458.7 977.72 458.95 977.53 459.2 977.34 459.46 977.15 459.71 976.96 459.96 976.77 460.22 976.58 460.47 976.38 460.72 976.19 460.97 976 461.22 975.81 461.47 975.61 461.72 975.42 461.97 975.22 462.22 975.03 462.47 974.83 462.72 974.64 462.97 974.44 463.22 974.25 463.47 974.05 463.72 973.85 463.97 973.65 464.21 973.46 464.46 973.26 464.71 973.06 464.95 972.86 465.2 972.66 465.45 972.46 465.69 972.26 465.94 972.06 466.19 971.86 466.43 971.66 466.68 971.46 466.92 971.26 467.16 971.06 467.41 970.85 467.65 970.65 467.9 970.45 468.14 970.24 468.38 970.04 468.62 969.84 468.87 969.63 469.11 969.43 469.35 969.22 469.59 969.02 469.83 968.81 470.07 968.6 470.32 968.4 470.56 968.19 470.8 967.98 471.04 967.77 471.28 967.57 471.51 967.36 471.75 967.15 471.99 966.94 472.23 966.73 472.47 966.52 472.71 966.31 472.95 966.1 473.18 965.89 473.42 965.68 473.66 965.47 473.89 965.25 474.13 965.04 474.37 964.83 474.6 964.62 474.84 964.4 475.07 964.19 475.31 963.98 475.54 963.76 475.78 963.55 476.01 963.33 476.25 963.12 476.48 962.9 476.71 962.69 476.94 962.47 477.18 962.25 477.41 962.04 477.64 961.82 477.87 961.6 478.1 961.38 478.33 961.16 478.57 960.95 478.8 960.73 479.03 960.51 479.26 960.29 479.49 960.07 479.72 959.85 479.95 959.63 480.18 959.41 480.4 959.18 480.63 958.96 480.86 958.74 481.09 958.52 481.31 958.3 481.54 958.07 481.77 957.85 482 957.63 482.22 957.4 482.45 957.18 482.68 956.95 482.9 956.73 483.13 956.5 483.35 956.28 483.58 956.05 483.8 955.82 484.02 955.6 484.25 955.37 484.47 955.14 484.69 954.92 484.92 954.69 485.14 954.46 485.36 954.23 485.59 954 485.81 953.77 486.03 953.54 486.25 953.31 486.47 953.08 486.69 952.85 486.92 952.62 487.13 952.39 487.36 952.16 487.57 951.93 487.79 951.7 488.01 951.46 488.23 951.23 488.45 951 488.67 950.76 488.89 950.53 489.1 950.29 489.32 950.06 489.54 949.83 489.76 949.59 489.97 949.36 490.19 949.12 490.4 948.88 490.62 948.65 490.84 948.41 491.05 948.17 491.27 947.94 491.48 947.7 491.7 947.46 491.91 947.22 492.13 946.99 492.34 946.75 492.55 946.51 492.76 946.27 492.98 946.03 493.19 945.79 493.4 945.55 493.61 945.31 493.82 945.07 494.04 944.83 494.25 944.58 494.46 944.34 494.67 944.1 494.88 943.86 495.09 943.61 495.3 943.37 495.51 943.13 495.72 942.88 495.93 942.64 496.13 942.4 496.34 942.15 496.55 941.91 496.76 941.66 496.97 941.42 497.17 941.17 497.38 940.92 497.59 940.68 497.79 940.43 498 940.18 498.2 939.94 498.41 939.69 498.61 939.44 498.82 939.19 499.02 938.94 499.23 938.7 499.43 938.45 499.63 938.2 499.84 937.95 500.04 937.7 500.25 937.45 500.45 937.2 500.65 936.94 500.85 936.69 501.05 936.44 501.25 936.19 501.46 935.94 501.66 935.68 501.86 935.43 502.06 935.18 502.26 934.93 502.46 934.67 502.66 934.42 502.86 934.16 503.06 933.91 503.25 933.66 503.45 933.4 503.65 933.14 503.85 932.89 504.05 932.63 504.25 932.38 504.44 932.12 504.64 931.86 504.83 931.61 505.03 931.35 505.23 931.09 505.42 930.83 505.62 930.58 505.81 930.32 506.01 930.06 506.2 929.8 506.4 929.54 506.59 929.28 506.78 929.02 506.98 928.76 507.17 928.5 507.36 928.24 507.56 927.98 507.75 927.72 507.94 927.46 508.13 927.19 508.32 926.93 508.51 926.67 508.71 926.41 508.9 926.14 509.09 925.88 509.28 925.62 509.47 925.35 509.66 925.09 509.85 924.82 510.03 924.56 510.22 924.29 510.41 924.03 510.6 923.76 510.79 923.5 510.97 923.23 511.16 922.97 511.35 922.7 511.54 922.43 511.72 922.16 511.91 921.9 512.09 921.63 512.28 921.36 512.46 921.09 512.65 920.82 512.83 920.55 513.02 920.29 513.2 920.02 513.39 919.75 513.57 919.48 513.75 919.21 513.94 918.94 514.12 918.67 514.3 918.39 514.49 918.12 514.67 917.85 514.85 917.58 515.03 917.31 515.21 917.04 515.39 916.76 515.57 916.49 515.75 916.22 515.93 915.94 516.11 915.67 516.29 915.4 516.47 915.12 516.65 914.85 516.83 914.57 517.01 914.3 517.18 914.02 517.36 913.75 517.54 913.47 517.72 913.2 517.89 912.92 518.07 912.64 518.25 912.37 518.42 912.09 518.6 911.81 518.77 911.53 518.95 911.26 519.12 910.98 519.3 910.94 519.32 910.7 519.47 910.42 519.65 910.14 519.82 909.86 519.99 909.58 520.16 909.3 520.34 909.02 520.51 908.74 520.68 908.46 520.85 908.18 521.02 907.9 521.19 907.62 521.36 907.33 521.53 907.05 521.71 906.77 521.87 906.49 522.04 906.2 522.21 905.92 522.38 905.64 522.55 905.35 522.72 905.07 522.89 904.78 523.05 904.5 523.22 904.22 523.39 903.93 523.56 903.65 523.72 903.36 523.89 903.08 524.06 902.79 524.22 902.5 524.39 902.22 524.55 901.93 524.72 901.64 524.88 901.36 525.05 901.07 525.21 900.78 525.38 900.49 525.54 900.21 525.7 899.92 525.87 899.63 526.03 899.34 526.19 899.05 526.35 898.76 526.51 898.47 526.68 898.18 526.84 897.89 527 897.6 527.16 897.31 527.32 897.02 527.48 896.73 527.64 896.44 527.8 896.15 527.96 895.85 528.12 895.56 528.28 895.27 528.44 894.98 528.59 894.68 528.75 894.39 528.91 894.1 529.07 893.81 529.22 893.51 529.38 893.22 529.54 892.92 529.7 892.63 529.85 892.34 530.01 892.04 530.16 891.75 530.32 891.45 530.47 891.15 530.63 890.86 530.78 890.56 530.94 890.27 531.09 889.97 531.24 889.67 531.39 889.38 531.55 889.08 531.7 888.78 531.85 888.49 532.01 888.19 532.16 887.89 532.31 887.59 532.46 887.29 532.61 886.99 532.76 886.7 532.91 886.4 533.06 886.1 533.21 885.8 533.36 885.5 533.51 885.2 533.66 884.9 533.81 884.6 533.96 884.29 534.11 883.99 534.25 883.69 534.4 883.39 534.55 883.09 534.7 882.79 534.84 882.49 534.99 882.18 535.14 881.88 535.28 881.58 535.43 881.28 535.57 880.97 535.72 880.67 535.86 880.37 536.01 880.06 536.15 879.76 536.3 879.45 536.44 879.15 536.58 878.84 536.73 878.54 536.87 878.23 537.01 877.93 537.15 877.62 537.3 877.32 537.44 877.01 537.58 876.71 537.72 876.4 537.86 876.09 538 875.78 538.14 875.48 538.28 875.17 538.42 874.86 538.56 874.55 538.7 874.25 538.84 873.94 538.98 873.63 539.12 873.32 539.25 873.01 539.39 872.7 539.53 872.39 539.67 872.09 539.8 871.78 539.94 871.47 540.08 871.16 540.22 870.85 540.35 870.53 540.49 870.23 540.62 869.91 540.76 869.6 540.89 869.29 541.03 868.98 541.16 868.67 541.29 868.36 541.43 868.04 541.56 867.73 541.7 867.42 541.83 867.11 541.96 866.79 542.09 866.48 542.22 866.17 542.36 865.85 542.49 865.54 542.62 865.23 542.75 864.91 542.88 864.6 543.01 864.28 543.14 863.97 543.27 863.65 543.4 863.34 543.53 863.02 543.66 862.71 543.79 862.39 543.91 862.08 544.04 861.76 544.17 861.44 544.3 861.13 544.42 860.81 544.55 860.49 544.68 860.17 544.8 859.86 544.93 859.54 545.06 859.22 545.18 858.9 545.31 858.59 545.43 858.27 545.56 857.95 545.68 857.63 545.81 857.31 545.93 856.99 546.05 856.67 546.18 856.35 546.3 856.03 546.42 855.71 546.55 855.39 546.67 855.07 546.79 854.75 546.91 854.43 547.03 854.11 547.15 853.79 547.27 853.47 547.39 853.15 547.51 852.83 547.63 852.5 547.75 852.18 547.87 851.86 547.99 851.54 548.11 851.22 548.23 850.89 548.35 850.57 548.47 850.25 548.59 849.92 548.7 849.6 548.82 849.28 548.93 848.95 549.05 848.63 549.17 848.3 549.28 847.98 549.4 847.66 549.51 847.33 549.63 847.01 549.75 846.68 549.86 846.36 549.98 846.03 550.09 845.7 550.2 845.38 550.32 845.05 550.43 844.73 550.54 844.4 550.65 844.07 550.77 843.75 550.88 843.42 550.99 843.09 551.1 842.76 551.21 842.44 551.33 842.11 551.44 841.78 551.55 841.45 551.66 841.13 551.77 840.8 551.88 840.47 551.99 840.14 552.09 839.81 552.2 839.48 552.31 839.15 552.42 838.82 552.53 838.5 552.63 838.16 552.74 837.84 552.85 837.5 552.96 837.17 553.06 836.84 553.17 836.51 553.27 836.18 553.38 835.85 553.49 835.52 553.59 835.19 553.7 834.86 553.8 834.53 553.9 834.2 554.01 833.86 554.11 833.53 554.22 833.2 554.32 832.87 554.42 832.54 554.52 832.42 554.56 832.3 554.6 832.19 554.63 832.07 554.67 831.96 554.71 831.84 554.74 831.72 554.78 831.6 554.82 831.48 554.86 831.36 554.9 831.23 554.95 831.11 554.99 830.99 555.03 830.86 555.08 830.74 555.12 830.61 555.17 830.48 555.21 830.36 555.26 830.23 555.3 830.1 555.35 829.97 555.4 829.84 555.45 829.71 555.5 829.58 555.55 829.44 555.6 829.31 555.65 829.18 555.7 829.18 555.7 829.04 555.75 828.91 555.8 828.77 555.85 828.63 555.91 828.5 555.96 828.36 556.02 828.22 556.07 828.08 556.13 827.94 556.18 827.8 556.24 827.66 556.3 827.52 556.35 827.38 556.41 827.24 556.47 827.1 556.53 826.95 556.59 826.81 556.64 826.67 556.71 826.52 556.76 826.38 556.83 826.23 556.89 825.94 557.01 825.64 557.13 825.35 557.26 825.05 557.39 824.75 557.52 824.45 557.65 824.14 557.78 823.84 557.91 823.53 558.05 823.22 558.18 822.91 558.32 822.6 558.46 822.28 558.6 821.97 558.74 821.65 558.88 821.34 559.02 820.7 559.3 820.06 559.59 819.41 559.88 818.76 560.17 818.1 560.46 817.77 560.61 817.44 560.75 817.11 560.9 816.78 561.04 816.45 561.19 816.11 561.34 815.78 561.48 815.45 561.63 815.11 561.78 814.77 561.92 814.44 562.07 814.1 562.21 813.76 562.36 813.42 562.5 813.09 562.64 812.75 562.79 812.58 562.86 812.41 562.93 812.24 563 812.07 563.07 811.9 563.14 811.73 563.21 811.56 563.28 811.39 563.35 811.22 563.42 811.05 563.49 810.88 563.56 810.71 563.63 810.54 563.7 810.37 563.77 810.2 563.83 810.03 563.9 809.86 563.97 809.68 564.04 809.51 564.11 809.34 564.17 809.17 564.24 809 564.3 808.83 564.37 808.66 564.44 808.49 564.5 808.32 564.57 808.15 564.63 807.98 564.7 807.81 564.76 807.64 564.83 807.47 564.89 807.29 564.95 807.13 565.01 806.95 565.08 806.78 565.14 806.61 565.2 806.44 565.26 806.27 565.32 806.1 565.38 805.93 565.44 805.76 565.5 805.59 565.56 805.42 565.62 805.25 565.68 805.08 565.74 804.91 565.79 804.74 565.85 804.57 565.9 804.4 565.96 804.23 566.02 804.06 566.07 803.89 566.13 803.72 566.18 803.55 566.23 803.38 566.29 803.21 566.34 803.04 566.39 802.87 566.44 802.7 566.49 802.53 566.54 802.36 566.59 802.2 566.64 802.03 566.69 801.86 566.74 801.69 566.78 801.52 566.83 801.35 566.88 801.18 566.92 801.02 566.97 800.85 567.01 800.68 567.05 800.51 567.1 800.34 567.14 800.18 567.18 800.01 567.22 799.84 567.26 799.67 567.3 799.51 567.34 799.34 567.38 799.17 567.42 799.01 567.45 798.84 567.49 798.67 567.52 798.51 567.56 798.34 567.59 798.17 567.63 798.01 567.66 797.84 567.69 797.68 567.72 797.51 567.75 797.35 567.78 797.18 567.81 797.02 567.84 796.93 567.85 796.85 567.86 796.77 567.88 796.69 567.89 796.61 567.9 796.52 567.92 796.44 567.93 796.36 567.94 796.28 567.95 796.19 567.96 796.11 567.97 796.03 567.99 795.95 568 795.87 568.01 795.78 568.02 795.7 568.03 795.62 568.04 795.54 568.05 795.46 568.06 795.38 568.07 795.29 568.08 795.21 568.09 795.13 568.09 795.05 568.1 794.97 568.11 794.89 568.12 794.8 568.13 794.72 568.13 794.64 568.14 794.56 568.15 794.48 568.15 794.4 568.16 794.32 568.17 794.24 568.17 794.15 568.18 794.07 568.18 793.99 568.19 793.91 568.19 793.83 568.2 793.78 568.2 793.75 568.2 793.67 568.21 793.59 568.21 793.51 568.22 793.43 568.22 793.35 568.22 793.26 568.22 793.18 568.23 793.1 568.23 793.02 568.23 792.94 568.23 792.86 568.24 792.78 568.24 792.7 568.24 792.62 568.24 792.54 568.24 792.46 568.24 792.38 568.24 792.3 568.24 792.22 568.24 792.14 568.24 792.06 568.24 791.99 568.23 791.99 568.23 790.71 567.95 789.66 567.24 788.95 566.2 788.69 564.95 788.69 564.95 788.95 563.7 789.65 562.66 790.7 561.95 791.97 561.65 792.04 561.65 792.09 561.65 792.15 561.65 792.21 561.65 792.26 561.64 792.32 561.64 792.38 561.64 792.43 561.63 792.49 561.63 792.55 561.63 792.6 561.62 792.66 561.62 792.72 561.62 792.78 561.61 792.84 561.61 792.89 561.6 792.95 561.6 793.01 561.59 793.07 561.59 793.13 561.58 793.19 561.57 793.25 561.57 793.31 561.56 793.37 561.55 793.43 561.55 793.49 561.54 793.55 561.53 793.61 561.53 793.67 561.52 793.73 561.51 793.79 561.5 793.85 561.49 793.91 561.49 793.98 561.48 794.04 561.47 794.1 561.46 794.16 561.45 794.22 561.44 794.29 561.43 794.35 561.42 794.41 561.41 794.48 561.4 794.54 561.39 794.6 561.38 794.66 561.37 794.73 561.36 794.79 561.35 794.86 561.34 794.92 561.32 794.98 561.31 795.05 561.3 795.11 561.29 795.18 561.28 795.24 561.26 795.31 561.25 795.37 561.24 795.44 561.22 795.5 561.21 795.57 561.2 795.63 561.18 795.7 561.17 795.76 561.16 795.9 561.13 796.03 561.1 796.16 561.07 796.29 561.04 796.43 561 796.57 560.97 796.7 560.94 796.84 560.9 796.97 560.87 797.11 560.83 797.25 560.8 797.38 560.76 797.52 560.72 797.66 560.68 797.8 560.64 797.94 560.6 798.08 560.56 798.22 560.52 798.36 560.48 798.5 560.44 798.65 560.39 798.79 560.35 798.93 560.31 799.08 560.26 799.22 560.21 799.36 560.17 799.51 560.12 799.65 560.07 799.8 560.02 799.94 559.98 800.09 559.92 800.24 559.87 800.38 559.82 800.53 559.77 800.68 559.72 800.83 559.67 800.97 559.61 801.12 559.56 801.27 559.5 801.42 559.45 801.57 559.39 801.72 559.34 801.87 559.28 802.02 559.22 802.17 559.17 802.32 559.11 802.47 559.05 802.62 558.99 802.77 558.93 802.93 558.87 803.08 558.81 803.23 558.75 803.38 558.68 803.54 558.62 803.69 558.56 803.85 558.5 804 558.43 804.15 558.37 804.31 558.3 804.46 558.24 804.62 558.17 804.77 558.11 804.93 558.04 805.08 557.97 805.24 557.91 805.39 557.84 805.55 557.77 805.7 557.7 805.86 557.63 806.02 557.56 806.17 557.5 806.33 557.42 806.49 557.35 806.64 557.28 806.8 557.21 806.96 557.14 807.12 557.07 807.27 557 807.43 556.92 807.59 556.85 807.75 556.78 807.9 556.71 808.06 556.63 808.22 556.56 808.38 556.49 808.54 556.41 808.69 556.34 808.85 556.26 809.01 556.19 809.17 556.11 809.33 556.03 809.49 555.96 809.65 555.88 809.97 555.73 810.28 555.58 810.6 555.42 810.92 555.27 811.24 555.11 811.56 554.95 811.88 554.8 812.19 554.64 812.51 554.48 812.83 554.32 813.15 554.16 813.47 554 813.79 553.84 814.11 553.68 814.42 553.53 814.74 553.37 815.38 553.04 816.01 552.72 816.64 552.4 817.27 552.09 817.9 551.77 818.21 551.61 818.52 551.45 818.84 551.3 819.15 551.14 819.46 550.98 819.77 550.83 820.08 550.67 820.39 550.52 820.69 550.37 821 550.22 821.31 550.07 821.61 549.92 821.92 549.77 822.22 549.62 822.53 549.47 822.83 549.33 822.98 549.26 823.13 549.18 823.28 549.11 823.43 549.04 823.58 548.97 823.73 548.9 823.88 548.83 824.03 548.76 824.18 548.69 824.33 548.62 824.48 548.55 824.62 548.49 824.77 548.42 824.92 548.35 825.07 548.28 825.21 548.22 825.36 548.15 825.51 548.08 825.65 548.02 825.8 547.95 825.95 547.89 826.09 547.82 826.24 547.76 826.38 547.7 826.53 547.63 826.67 547.57 826.82 547.51 826.96 547.45 827.11 547.39 827.25 547.33 827.4 547.27 827.54 547.21 827.68 547.15 827.83 547.09 827.97 547.03 828.11 546.98 828.25 546.92 828.39 546.87 828.54 546.81 828.68 546.75 828.82 546.7 828.96 546.65 829.1 546.59 829.24 546.54 829.38 546.49 829.52 546.44 829.66 546.39 829.8 546.34 830.12 546.22 830.44 546.11 830.76 545.99 831.08 545.87 831.4 545.76 831.72 545.64 832.04 545.52 832.36 545.41 832.68 545.29 833 545.17 833.31 545.05 833.63 544.94 833.95 544.82 834.27 544.7 834.58 544.58 834.9 544.46 835.22 544.34 835.53 544.22 835.85 544.1 836.17 543.98 836.48 543.86 836.8 543.74 837.12 543.62 837.43 543.5 837.75 543.38 838.06 543.25 838.38 543.13 838.69 543.01 839 542.89 839.32 542.76 839.63 542.64 839.95 542.52 840.26 542.39 840.57 542.27 840.89 542.15 841.2 542.02 841.51 541.9 841.83 541.77 842.14 541.65 842.45 541.52 842.76 541.4 843.07 541.27 843.38 541.14 843.7 541.02 844.01 540.89 844.32 540.76 844.63 540.64 844.94 540.51 845.25 540.38 845.56 540.25 845.87 540.13 846.18 540 846.49 539.87 846.8 539.74 847.11 539.61 847.42 539.48 847.72 539.35 848.03 539.22 848.34 539.09 848.65 538.96 848.96 538.83 849.26 538.7 849.57 538.57 849.88 538.44 850.18 538.31 850.49 538.17 850.8 538.04 851.1 537.91 851.41 537.78 851.72 537.64 852.02 537.51 852.33 537.38 852.63 537.24 852.93 537.11 853.24 536.98 853.54 536.84 853.85 536.71 854.15 536.57 854.46 536.44 854.76 536.3 855.06 536.16 855.37 536.03 855.67 535.89 855.97 535.76 856.27 535.62 856.58 535.48 856.88 535.35 857.18 535.21 857.48 535.07 857.78 534.93 858.08 534.79 858.38 534.65 858.68 534.52 858.98 534.38 859.28 534.24 859.58 534.1 859.88 533.96 860.18 533.82 860.48 533.68 860.78 533.54 861.08 533.4 861.38 533.25 861.67 533.11 861.97 532.97 862.27 532.83 862.57 532.69 862.87 532.55 863.16 532.4 863.46 532.26 863.76 532.12 864.05 531.98 864.35 531.83 864.64 531.69 864.94 531.54 865.24 531.4 865.53 531.25 865.83 531.11 866.12 530.97 866.41 530.82 866.71 530.67 867 530.53 867.29 530.38 867.59 530.24 867.88 530.09 868.17 529.94 868.47 529.79 868.76 529.65 869.05 529.5 869.34 529.35 869.64 529.21 869.93 529.06 870.22 528.91 870.51 528.76 870.8 528.61 871.09 528.46 871.38 528.31 871.67 528.16 871.96 528.01 872.25 527.86 872.54 527.71 872.83 527.56 873.12 527.41 873.41 527.26 873.69 527.11 873.98 526.96 874.27 526.8 874.56 526.65 874.85 526.5 875.13 526.35 875.42 526.19 875.71 526.04 875.99 525.88 876.28 525.73 876.56 525.58 876.85 525.42 877.13 525.27 877.42 525.11 877.7 524.96 877.99 524.8 878.27 524.65 878.56 524.49 878.84 524.34 879.13 524.18 879.41 524.02 879.69 523.87 879.97 523.71 880.26 523.55 880.54 523.4 880.82 523.24 881.1 523.08 881.38 522.92 881.66 522.76 881.95 522.61 882.23 522.45 882.51 522.29 882.79 522.13 883.07 521.97 883.35 521.81 883.63 521.65 883.9 521.49 884.18 521.33 884.46 521.17 884.74 521.01 885.02 520.85 885.3 520.68 885.58 520.52 885.85 520.36 886.13 520.2 886.41 520.03 886.68 519.87 886.96 519.71 887.24 519.55 887.51 519.38 887.79 519.22 888.06 519.05 888.34 518.89 888.61 518.73 888.88 518.56 889.16 518.4 889.43 518.23 889.71 518.07 889.98 517.9 890.25 517.73 890.53 517.57 890.8 517.4 891.07 517.23 891.34 517.07 891.61 516.9 891.89 516.73 892.16 516.57 892.43 516.4 892.7 516.23 892.97 516.06 893.24 515.89 893.51 515.72 893.78 515.55 894.05 515.38 894.32 515.22 894.59 515.05 894.85 514.88 895.12 514.71 895.39 514.54 895.66 514.36 895.92 514.19 896.19 514.02 896.46 513.85 896.73 513.68 896.99 513.51 897.26 513.34 897.52 513.16 897.79 512.99 898.05 512.82 898.32 512.64 898.58 512.47 898.85 512.3 899.11 512.12 899.38 511.95 899.64 511.77 899.9 511.6 900.16 511.42 900.43 511.25 900.69 511.07 900.95 510.9 901.21 510.72 901.48 510.55 901.74 510.37 902 510.19 902.26 510.02 902.52 509.84 902.78 509.66 903.04 509.49 903.3 509.31 903.56 509.13 903.82 508.95 904.04 508.8 904.07 508.77 904.33 508.6 904.59 508.42 904.85 508.24 905.11 508.06 905.37 507.88 905.62 507.7 905.88 507.52 906.14 507.34 906.39 507.16 906.65 506.98 906.9 506.8 907.16 506.62 907.42 506.44 907.67 506.26 907.93 506.08 908.18 505.9 908.43 505.72 908.69 505.53 908.94 505.35 909.2 505.17 909.45 504.99 909.7 504.8 909.95 504.62 910.21 504.44 910.46 504.25 910.71 504.07 910.96 503.88 911.21 503.7 911.46 503.52 911.71 503.33 911.96 503.15 912.21 502.96 912.46 502.78 912.71 502.59 912.96 502.4 913.21 502.22 913.46 502.03 913.71 501.84 913.95 501.66 914.2 501.47 914.45 501.28 914.69 501.1 914.94 500.91 915.19 500.72 915.43 500.53 915.68 500.34 915.92 500.15 916.17 499.96 916.41 499.78 916.66 499.58 916.9 499.4 917.15 499.21 917.39 499.01 917.63 498.82 917.88 498.63 918.12 498.44 918.36 498.25 918.6 498.06 918.84 497.87 919.09 497.68 919.33 497.49 919.57 497.29 919.81 497.1 920.05 496.91 920.29 496.71 920.53 496.52 920.77 496.33 921 496.13 921.24 495.94 921.48 495.75 921.72 495.55 921.96 495.36 922.2 495.16 922.43 494.97 922.67 494.77 922.91 494.58 923.14 494.38 923.38 494.18 923.61 493.99 923.85 493.79 924.08 493.59 924.32 493.4 924.55 493.2 924.79 493 925.02 492.81 925.25 492.61 925.49 492.41 925.72 492.21 925.95 492.01 926.18 491.81 926.41 491.61 926.65 491.42 926.88 491.22 927.11 491.02 927.34 490.82 927.57 490.62 927.8 490.42 928.03 490.22 928.26 490.01 928.49 489.81 928.72 489.61 928.94 489.41 929.17 489.21 929.4 489.01 929.63 488.8 929.85 488.6 930.08 488.4 930.31 488.19 930.53 487.99 930.76 487.79 930.98 487.58 931.21 487.38 931.43 487.18 931.66 486.97 931.88 486.77 932.11 486.56 932.33 486.36 932.55 486.15 932.77 485.95 933 485.74 933.22 485.54 933.44 485.33 933.66 485.12 933.88 484.92 934.11 484.71 934.33 484.5 934.55 484.3 934.77 484.09 934.99 483.88 935.2 483.67 935.42 483.47 935.64 483.26 935.86 483.05 936.08 482.84 936.3 482.63 936.51 482.42 936.73 482.21 936.95 482 937.16 481.79 937.38 481.58 937.59 481.37 937.81 481.16 938.02 480.95 938.24 480.74 938.45 480.53 938.67 480.31 938.88 480.1 939.09 479.89 939.31 479.68 939.52 479.47 939.73 479.25 939.94 479.04 940.15 478.83 940.37 478.61 940.58 478.4 940.79 478.19 941 477.97 941.21 477.76 941.42 477.54 941.63 477.33 941.84 477.11 942.04 476.9 942.25 476.69 942.46 476.47 942.67 476.25 942.88 476.04 943.08 475.82 943.29 475.6 943.5 475.39 943.7 475.17 943.91 474.95 944.11 474.74 944.32 474.52 944.52 474.3 944.73 474.08 944.93 473.86 945.13 473.64 945.34 473.43 945.54 473.21 945.74 472.99 945.94 472.77 946.14 472.55 946.35 472.33 946.55 472.11 946.75 471.89 946.95 471.67 947.15 471.45 947.35 471.23 947.55 471 947.75 470.78 947.95 470.56 948.14 470.34 948.34 470.12 948.54 469.9 948.74 469.67 948.93 469.45 949.13 469.23 949.33 469 949.52 468.78 949.72 468.56 949.91 468.33 950.11 468.11 950.3 467.89 950.5 467.66 950.69 467.44 950.88 467.21 951.08 466.99 951.27 466.76 951.46 466.54 951.65 466.31 951.85 466.08 952.04 465.86 952.23 465.63 952.42 465.4 952.61 465.18 952.8 464.95 952.99 464.72 953.18 464.5 953.37 464.27 953.55 464.04 953.74 463.81 953.93 463.58 954.12 463.36 954.3 463.13 954.49 462.9 954.68 462.67 954.86 462.44 955.05 462.21 955.23 461.98 955.42 461.75 955.6 461.52 955.79 461.29 955.97 461.06 956.15 460.82 956.34 460.59 956.52 460.36 956.7 460.13 956.88 459.9 957.07 459.67 957.25 459.43 957.43 459.2 957.61 458.97 957.79 458.74 957.97 458.5 958.15 458.27 958.33 458.03 958.51 457.8 958.69 457.57 958.86 457.33 959.04 457.1 959.22 456.86 959.4 456.63 959.57 456.39 959.75 456.16 959.92 455.92 960.1 455.69 960.27 455.45 960.45 455.21 960.62 454.98 960.8 454.74 960.97 454.5 961.14 454.27 961.32 454.03 961.49 453.79 961.66 453.55 961.84 453.31 962.01 453.08 962.18 452.84 962.35 452.6 962.52 452.36 962.69 452.12 962.86 451.88 963.03 451.64 963.2 451.4 963.37 451.16 963.53 450.92 963.7 450.68 963.87 450.44 964.03 450.2 964.2 449.96 964.37 449.72 964.53 449.48 964.7 449.24 964.86 448.99 965.03 448.75 965.19 448.51 965.36 448.27 965.52 448.02 965.68 447.78 965.85 447.54 966.01 447.3 966.17 447.05 966.33 446.81 966.5 446.56 966.66 446.32 966.82 446.07 966.98 445.83 967.14 445.58 967.3 445.34 967.46 445.09 967.61 444.85 967.77 444.6 967.93 444.36 968.09 444.11 968.25 443.86 968.4 443.62 968.56 443.37 968.72 443.12 968.87 442.88 969.03 442.63 969.18 442.38 969.34 442.13 969.49 441.88 969.64 441.64 969.8 441.39 969.95 441.14 970.1 440.89 970.25 440.64 970.41 440.39 970.56 440.14 970.71 439.89 970.86 439.64 970.96 439.47 971.01 439.39 971.16 439.14 971.31 438.89 971.46 438.64 971.61 438.39 971.76 438.14 971.91 437.89 972.06 437.64 972.21 437.39 972.36 437.14 972.5 436.88 972.65 436.63 972.8 436.38 972.95 436.13 973.09 435.88 973.24 435.62 973.38 435.37 973.53 435.12 973.67 434.86 973.82 434.61 973.96 434.36 974.1 434.1 974.25 433.85 974.39 433.59 974.53 433.34 974.67 433.08 974.81 432.83 974.96 432.57 975.1 432.32 975.24 432.06 975.38 431.81 975.51 431.55 975.65 431.29 975.79 431.04 975.93 430.78 976.07 430.52 976.21 430.26 976.34 430.01 976.48 429.75 976.62 429.49 976.75 429.24 976.89 428.98 977.02 428.72 977.16 428.46 977.29 428.2 977.43 427.94 977.56 427.68 977.69 427.42 977.83 427.16 977.96 426.9 978.09 426.64 978.22 426.38 978.35 426.12 978.48 425.86 978.61 425.6 978.74 425.33 978.87 425.07 979 424.81 979.13 424.55 979.26 424.29 979.39 424.03 979.52 423.76 979.64 423.5 979.77 423.24 979.9 422.97 980.02 422.71 980.15 422.45 980.27 422.18 980.4 421.92 980.52 421.65 980.65 421.39 980.77 421.12 980.89 420.86 981.02 420.59 981.14 420.33 981.26 420.06 981.38 419.8 981.5 419.53 981.62 419.26 981.74 419 981.86 418.73 981.98 418.46 982.1 418.2 982.22 417.93 982.34 417.66 982.46 417.39 982.58 417.13 982.69 416.86 982.81 416.59 982.92 416.32 983.04 416.05 983.16 415.78 983.27 415.51 983.39 415.24 983.5 414.97 983.62 414.7 983.73 414.43 983.84 414.16 983.95 413.89 984.07 413.62 984.18 413.35 984.29 413.08 984.4 412.81 984.51 412.54 984.62 412.26 984.73 411.99 984.84 411.72 984.95 411.45 985.06 411.17 985.17 410.9 985.27 410.63 985.38 410.35 985.49 410.08 985.59 409.81 985.7 409.53 985.8 409.26 985.91 408.99 986.01 408.71 986.12 408.44 986.22 408.16 986.33 407.88 986.43 407.61 986.53 407.33 986.64 407.06 986.74 406.78 986.84 406.5 986.94 406.23 987.04 405.95 987.14 405.67 987.24 405.4 987.34 405.12 987.44 404.84 987.54 404.56 987.64 404.29 987.73 404.01 987.83 403.73 987.93 403.45 988.02 403.17 988.12 402.9 988.12 402.89 988.22 402.61 988.32 402.33 988.41 402.05 988.51 401.77 988.6 401.5 988.7 401.22 988.79 400.94 988.89 400.65 988.98 400.37 989.08 400.09 989.17 399.81 989.26 399.53 989.36 399.25 989.45 398.97 989.54 398.69 989.63 398.4 989.72 398.12 989.81 397.84 989.9 397.56 989.99 397.27 990.08 396.99 990.17 396.71 990.26 396.43 990.35 396.14 990.44 395.86 990.52 395.57 990.61 395.29 990.7 395 990.78 394.72 990.87 394.43 990.95 394.15 991.04 393.86 991.12 393.58 991.2 393.29 991.29 393 991.37 392.72 991.45 392.43 991.53 392.15 991.62 391.86 991.7 391.57 991.78 391.28 991.86 391 991.94 390.71 992.02 390.42 992.1 390.13 992.17 389.84 992.25 389.55 992.33 389.26 992.41 388.97 992.49 388.68 992.56 388.4 992.64 388.11 992.71 387.81 992.79 387.52 992.86 387.23 992.94 386.94 993.01 386.65 993.08 386.36 993.16 386.07 993.23 385.78 993.3 385.48 993.37 385.19 993.44 384.9 993.51 384.61 993.58 384.31 993.65 384.02 993.72 383.73 993.79 383.43 993.86 383.14 993.93 382.85 994 382.55 994.06 382.26 994.13 381.96 994.2 381.67 994.26 381.37 994.33 381.08 994.39 380.78 994.46 380.49 994.52 380.19 994.59 379.89 994.65 379.6 994.71 379.3 994.77 379 994.84 378.71 994.9 378.41 994.96 378.11 995.02 377.81 995.08 377.51 995.14 377.22 995.2 376.92 995.26 376.62 995.31 376.32 995.37 376.02 995.43 375.72 995.49 375.42 995.54 375.12 995.6 374.82 995.63 374.66 995.66 374.52 995.72 374.22 995.78 373.92 995.85 373.63 995.91 373.32 995.97 373.03 996.03 372.73 996.09 372.42 996.15 372.12 996.21 371.82 996.27 371.52 996.33 371.22 996.39 370.92 996.45 370.62 996.5 370.31 996.56 370.01 996.62 369.71 996.67 369.4 996.73 369.1 996.79 368.8 996.84 368.5 996.89 368.19 996.95 367.89 997 367.58 997.06 367.28 997.11 366.97 997.16 366.67 997.21 366.36 997.26 366.06 997.31 365.75 997.36 365.44 997.41 365.14 997.46 364.83 997.51 364.52 997.56 364.22 997.61 363.91 997.66 363.6 997.68 363.42 997.71 363.29 997.76 362.99 997.82 362.68 997.88 362.37 997.93 362.06 997.99 361.75 998.04 361.45 998.09 361.14 998.15 360.83 998.2 360.52 998.25 360.21 998.3 359.9 998.36 359.59 998.41 359.28 998.46 358.97 998.51 358.66 998.56 358.35 998.61 358.04 998.66 357.72 998.71 357.41 998.75 357.1 998.8 356.79 998.85 356.47 998.89 356.16 998.94 355.85 998.99 355.53 999.03 355.22 999.08 354.9 999.12 354.59 999.16 354.28 999.21 353.96 999.25 353.64 999.29 353.33 999.33 353.01 999.38 352.7 999.42 352.38 999.45 352.1 999.46 352.06 999.51 351.75 999.56 351.43 999.61 351.11 999.66 350.8 999.71 350.48 999.76 350.16 999.8 349.84 999.85 349.52 999.9 349.2 999.95 348.88 999.99 348.56 1000.04 348.25 1000.09 347.93 1000.13 347.61 1000.17 347.28 1000.22 346.96 1000.26 346.64 1000.3 346.32 1000.35 346 1000.39 345.68 1000.43 345.35 1000.47 345.03 1000.51 344.71 1000.55 344.38 1000.59 344.06 1000.63 343.74 1000.67 343.41 1000.71 343.08 1000.75 342.76 1000.79 342.43 1000.82 342.11 1000.86 341.78 1000.9 341.45 1000.93 341.13 1000.97 340.8 1001 340.47 1001.04 340.14 1001.07 339.82 1001.1 339.49 1001.14 339.16 1001.17 338.83 1001.2 338.5 1001.23 338.17 1001.26 337.84 1001.29 337.51 1001.32 337.18 1001.35 336.85 1001.38 336.52 1001.41 336.19 1001.44 335.86 1001.47 335.52 1001.49 335.19 1001.52 334.86 1001.55 334.52 1001.57 334.19 1001.6 333.86 1001.62 333.52 1001.65 333.19 1001.67 332.85 1001.69 332.52 1001.72 332.18 1001.74 331.85 1001.76 331.51 1001.78 331.17 1001.8 330.84 1001.8 330.81 1001.83 330.5 1001.86 330.16 1001.89 329.82 1001.92 329.49 1001.95 329.15 1001.98 328.81 1002.01 328.47 1002.04 328.13 1002.06 327.79 1002.09 327.45 1002.12 327.11 1002.14 326.76 1002.17 326.42 1002.19 326.08 1002.22 325.74 1002.24 325.4 1002.26 325.05 1002.29 324.71 1002.31 324.37 1002.33 324.02 1002.35 323.68 1002.37 323.33 1002.39 322.99 1002.41 322.64 1002.43 322.3 1002.45 321.95 1002.47 321.61 1002.49 321.26 1002.5 320.91 1002.52 320.56 1002.54 320.22 1002.55 319.87 1002.57 319.52 1002.59 319.17 1002.6 318.82 1002.61 318.47 1002.63 318.12 1002.64 317.77 1002.65 317.42 1002.66 317.07 1002.67 316.72 1002.69 316.37 1002.7 316.01 1002.71 315.66 1002.72 315.31 1002.73 314.96 1002.73 314.6 1002.74 314.25 1002.74 314.13 1002.75 313.89 1002.77 313.54 1002.78 313.19 1002.79 312.83 1002.81 312.47 1002.82 312.12 1002.83 311.76 1002.84 311.4 1002.85 311.04 1002.86 310.68 1002.87 310.33 1002.88 309.97 1002.89 309.61 1002.9 309.25 1002.9 308.89 1002.91 308.53 1002.92 308.17 1002.92 307.81 1002.93 307.44 1002.93 307.08 1002.94 306.72 1002.94 306.36 1002.94 306.11 1002.95 305.99 1002.95 305.63 1003.23 304.08 1003.96 302.75 1005.02 301.79 1006.3 301.32 1006.31 301.32 1007.67 301.46 1007.67 301.46"/><path class="cls-4" d="M97.75,383.81c-27.24-40.37-50-144.38,3.84-202.91,82.24-89.34,236-163,480.61-131.77s426.44,199.2,356.2,356.64S576.74,625.43,406.74,588.09s-261.55-134-309-204.28Z"/></g></g></svg>